M48
; DRILL file {KiCad (7.0.0)} date Sun Mar 12 18:53:06 2023
; FORMAT={3:3/ absolute / metric / suppress leading zeros}
; #@! TF.CreationDate,2023-03-12T18:53:06+09:00
; #@! TF.GenerationSoftware,Kicad,Pcbnew,(7.0.0)
; #@! TF.FileFunction,Plated,1,2,PTH
FMAT,2
METRIC,TZ
; #@! TA.AperFunction,Plated,PTH,ViaDrill
T1C0.400
; #@! TA.AperFunction,Plated,PTH,ComponentDrill
T2C0.600
; #@! TA.AperFunction,Plated,PTH,ComponentDrill
T3C0.700
; #@! TA.AperFunction,Plated,PTH,ComponentDrill
T4C0.800
%
G90
G05
T1
X-16700Y-17700
X-16000Y-14100
X-15200Y-12800
X-13900Y-12100
X-13500Y-14300
X-13000Y-11200
X-11900Y-10000
X-11800Y-12900
X-11300Y-14000
X-10300Y-11900
X-7900Y-18900
X-7700Y-15300
X-6845Y-19545
X-5400Y-16800
X-2500Y-13200
X-2100Y8700
X-1100Y-17700
X-900Y7500
X-600Y-11600
X-300Y10300
X200Y5900
X200Y-18900
X900Y9100
X1100Y-11500
X1200Y5100
X1500Y-20200
X1800Y12500
X2300Y-34900
X2400Y-21900
X3000Y7100
X3700Y-11000
X3900Y2600
X4000Y-32700
X4300Y-20000
X4700Y9400
X6000Y7800
X6200Y-11000
X6700Y9900
X8700Y-11000
X11100Y-14100
X11400Y-33000
T2
X-8890Y14200
X-8890Y-14200
X-6350Y14200
X-6350Y-14200
X-3810Y14200
X-3810Y-14200
X-1270Y14200
X-1270Y-14200
X1270Y14200
X1270Y-14200
X3810Y14200
X3810Y-14200
X6350Y14200
X6350Y-14200
X8890Y14200
X8890Y-14200
T3
X-17780Y-22860
X-17780Y-27940
X-15240Y-22860
X-15240Y-27940
X-12700Y-22860
X-12700Y-27940
X-10160Y-22860
X-10160Y-27940
X-7620Y-22860
X-7620Y-27940
X-5080Y-22860
X-5080Y-27940
X-2540Y-22860
X-2540Y-27940
X0Y-22860
X0Y-27940
T4
X-17780Y-34490
X-17780Y-37030
X-15240Y-34490
X-15240Y-37030
X-12700Y-34490
X-12700Y-37030
X-10160Y-34490
X-10160Y-37030
X-7620Y-34490
X-7620Y-37030
X-5080Y-34490
X-5080Y-37030
X5080Y-34490
X5080Y-37030
X7620Y-34490
X7620Y-37030
X10160Y-34490
X10160Y-37030
X12700Y-34490
X12700Y-37030
X15240Y-34490
X15240Y-37030
X17780Y-34490
X17780Y-37030
T0
M30
