G04 #@! TF.GenerationSoftware,KiCad,Pcbnew,(7.0.0)*
G04 #@! TF.CreationDate,2023-03-12T18:52:53+09:00*
G04 #@! TF.ProjectId,Pmod_MatrixLED,506d6f64-5f4d-4617-9472-69784c45442e,rev?*
G04 #@! TF.SameCoordinates,Original*
G04 #@! TF.FileFunction,Copper,L2,Bot*
G04 #@! TF.FilePolarity,Positive*
%FSLAX46Y46*%
G04 Gerber Fmt 4.6, Leading zero omitted, Abs format (unit mm)*
G04 Created by KiCad (PCBNEW (7.0.0)) date 2023-03-12 18:52:53*
%MOMM*%
%LPD*%
G01*
G04 APERTURE LIST*
G04 #@! TA.AperFunction,ComponentPad*
%ADD10R,1.600000X1.600000*%
G04 #@! TD*
G04 #@! TA.AperFunction,ComponentPad*
%ADD11O,1.600000X1.600000*%
G04 #@! TD*
G04 #@! TA.AperFunction,ComponentPad*
%ADD12C,1.400000*%
G04 #@! TD*
G04 #@! TA.AperFunction,ComponentPad*
%ADD13O,1.400000X1.400000*%
G04 #@! TD*
G04 #@! TA.AperFunction,ComponentPad*
%ADD14O,1.200000X1.600000*%
G04 #@! TD*
G04 #@! TA.AperFunction,ViaPad*
%ADD15C,0.800000*%
G04 #@! TD*
G04 #@! TA.AperFunction,Conductor*
%ADD16C,0.300000*%
G04 #@! TD*
G04 APERTURE END LIST*
D10*
G04 #@! TO.P,J1,1,Pin_1*
G04 #@! TO.N,/PMOD0_P1_CATHODE1*
X5079999Y-34489999D03*
D11*
G04 #@! TO.P,J1,2,Pin_2*
G04 #@! TO.N,/PMOD0_P2_CATHODE3*
X7619999Y-34489999D03*
G04 #@! TO.P,J1,3,Pin_3*
G04 #@! TO.N,/PMOD0_P3_CATHODE5*
X10159999Y-34489999D03*
G04 #@! TO.P,J1,4,Pin_4*
G04 #@! TO.N,/PMOD0_P4_CATHODE7*
X12699999Y-34489999D03*
G04 #@! TO.P,J1,5,Pin_5*
G04 #@! TO.N,GND*
X15239999Y-34489999D03*
G04 #@! TO.P,J1,6,Pin_6*
G04 #@! TO.N,+3V3*
X17779999Y-34489999D03*
G04 #@! TO.P,J1,7,Pin_7*
G04 #@! TO.N,/PMOD0_P7_CATHODE0*
X5079999Y-37029999D03*
G04 #@! TO.P,J1,8,Pin_8*
G04 #@! TO.N,/PMOD0_P8_CATHODE2*
X7619999Y-37029999D03*
G04 #@! TO.P,J1,9,Pin_9*
G04 #@! TO.N,/PMOD0_P9_CATHODE4*
X10159999Y-37029999D03*
G04 #@! TO.P,J1,10,Pin_10*
G04 #@! TO.N,/PMOD0_P10_CATHODE6*
X12699999Y-37029999D03*
G04 #@! TO.P,J1,11,Pin_11*
G04 #@! TO.N,GND*
X15239999Y-37029999D03*
G04 #@! TO.P,J1,12,Pin_12*
G04 #@! TO.N,+3V3*
X17779999Y-37029999D03*
G04 #@! TD*
D12*
G04 #@! TO.P,R8,1*
G04 #@! TO.N,/PMOD1_P4_ANODE7*
X-2540000Y-27940000D03*
D13*
G04 #@! TO.P,R8,2*
G04 #@! TO.N,Net-(U1-COL8)*
X-2539999Y-22859999D03*
G04 #@! TD*
D12*
G04 #@! TO.P,R4,1*
G04 #@! TO.N,/PMOD1_P2_ANODE3*
X-12700000Y-27940000D03*
D13*
G04 #@! TO.P,R4,2*
G04 #@! TO.N,Net-(U1-COL4)*
X-12699999Y-22859999D03*
G04 #@! TD*
D12*
G04 #@! TO.P,R2,1*
G04 #@! TO.N,/PMOD1_P1_ANODE1*
X-17780000Y-27940000D03*
D13*
G04 #@! TO.P,R2,2*
G04 #@! TO.N,Net-(U1-COL2)*
X-17779999Y-22859999D03*
G04 #@! TD*
D12*
G04 #@! TO.P,R3,1*
G04 #@! TO.N,/PMOD1_P8_ANODE2*
X-10160000Y-27940000D03*
D13*
G04 #@! TO.P,R3,2*
G04 #@! TO.N,Net-(U1-COL3)*
X-10159999Y-22859999D03*
G04 #@! TD*
D12*
G04 #@! TO.P,R1,1*
G04 #@! TO.N,/PMOD1_P7_ANODE0*
X-15240000Y-27940000D03*
D13*
G04 #@! TO.P,R1,2*
G04 #@! TO.N,Net-(U1-COL1)*
X-15239999Y-22859999D03*
G04 #@! TD*
D12*
G04 #@! TO.P,R6,1*
G04 #@! TO.N,/PMOD1_P3_ANODE5*
X-7620000Y-27940000D03*
D13*
G04 #@! TO.P,R6,2*
G04 #@! TO.N,Net-(U1-COL6)*
X-7619999Y-22859999D03*
G04 #@! TD*
D10*
G04 #@! TO.P,J2,1,Pin_1*
G04 #@! TO.N,/PMOD1_P1_ANODE1*
X-17779999Y-34489999D03*
D11*
G04 #@! TO.P,J2,2,Pin_2*
G04 #@! TO.N,/PMOD1_P2_ANODE3*
X-15239999Y-34489999D03*
G04 #@! TO.P,J2,3,Pin_3*
G04 #@! TO.N,/PMOD1_P3_ANODE5*
X-12699999Y-34489999D03*
G04 #@! TO.P,J2,4,Pin_4*
G04 #@! TO.N,/PMOD1_P4_ANODE7*
X-10159999Y-34489999D03*
G04 #@! TO.P,J2,5,Pin_5*
G04 #@! TO.N,GND*
X-7619999Y-34489999D03*
G04 #@! TO.P,J2,6,Pin_6*
G04 #@! TO.N,+3V3*
X-5079999Y-34489999D03*
G04 #@! TO.P,J2,7,Pin_7*
G04 #@! TO.N,/PMOD1_P7_ANODE0*
X-17779999Y-37029999D03*
G04 #@! TO.P,J2,8,Pin_8*
G04 #@! TO.N,/PMOD1_P8_ANODE2*
X-15239999Y-37029999D03*
G04 #@! TO.P,J2,9,Pin_9*
G04 #@! TO.N,/PMOD1_P9_ANODE4*
X-12699999Y-37029999D03*
G04 #@! TO.P,J2,10,Pin_10*
G04 #@! TO.N,/PMOD1_P10_ANODE6*
X-10159999Y-37029999D03*
G04 #@! TO.P,J2,11,Pin_11*
G04 #@! TO.N,GND*
X-7619999Y-37029999D03*
G04 #@! TO.P,J2,12,Pin_12*
G04 #@! TO.N,+3V3*
X-5079999Y-37029999D03*
G04 #@! TD*
D12*
G04 #@! TO.P,R5,1*
G04 #@! TO.N,/PMOD1_P9_ANODE4*
X-5080000Y-27940000D03*
D13*
G04 #@! TO.P,R5,2*
G04 #@! TO.N,Net-(U1-COL5)*
X-5079999Y-22859999D03*
G04 #@! TD*
D14*
G04 #@! TO.P,U1,1,ROW5*
G04 #@! TO.N,/PMOD0_P9_CATHODE4*
X-8889999Y-14199999D03*
G04 #@! TO.P,U1,2,ROW7*
G04 #@! TO.N,/PMOD0_P10_CATHODE6*
X-6349999Y-14199999D03*
G04 #@! TO.P,U1,3,COL2*
G04 #@! TO.N,Net-(U1-COL2)*
X-3809999Y-14199999D03*
G04 #@! TO.P,U1,4,COL3*
G04 #@! TO.N,Net-(U1-COL3)*
X-1269999Y-14199999D03*
G04 #@! TO.P,U1,5,ROW8*
G04 #@! TO.N,/PMOD0_P4_CATHODE7*
X1269999Y-14199999D03*
G04 #@! TO.P,U1,6,COL5*
G04 #@! TO.N,Net-(U1-COL5)*
X3809999Y-14199999D03*
G04 #@! TO.P,U1,7,ROW6*
G04 #@! TO.N,/PMOD0_P3_CATHODE5*
X6349999Y-14199999D03*
G04 #@! TO.P,U1,8,ROW3*
G04 #@! TO.N,/PMOD0_P8_CATHODE2*
X8889999Y-14199999D03*
G04 #@! TO.P,U1,9,ROW1*
G04 #@! TO.N,/PMOD0_P7_CATHODE0*
X8889999Y14199999D03*
G04 #@! TO.P,U1,10,COL4*
G04 #@! TO.N,Net-(U1-COL4)*
X6349999Y14199999D03*
G04 #@! TO.P,U1,11,COL6*
G04 #@! TO.N,Net-(U1-COL6)*
X3809999Y14199999D03*
G04 #@! TO.P,U1,12,ROW4*
G04 #@! TO.N,/PMOD0_P2_CATHODE3*
X1269999Y14199999D03*
G04 #@! TO.P,U1,13,COL1*
G04 #@! TO.N,Net-(U1-COL1)*
X-1269999Y14199999D03*
G04 #@! TO.P,U1,14,ROW2*
G04 #@! TO.N,/PMOD0_P1_CATHODE1*
X-3809999Y14199999D03*
G04 #@! TO.P,U1,15,COL7*
G04 #@! TO.N,Net-(U1-COL7)*
X-6349999Y14199999D03*
G04 #@! TO.P,U1,16,COL8*
G04 #@! TO.N,Net-(U1-COL8)*
X-8889999Y14199999D03*
G04 #@! TD*
D12*
G04 #@! TO.P,R7,1*
G04 #@! TO.N,/PMOD1_P10_ANODE6*
X0Y-27940000D03*
D13*
G04 #@! TO.P,R7,2*
G04 #@! TO.N,Net-(U1-COL7)*
X0Y-22859999D03*
G04 #@! TD*
D15*
G04 #@! TO.N,GND*
X-1100000Y-17700000D03*
X-11900000Y-10000000D03*
X1800000Y12500000D03*
X4000000Y-32700000D03*
X8700000Y-11000000D03*
X1100000Y-11500000D03*
X-16700000Y-17700000D03*
X4700000Y9400000D03*
X-2100000Y8700000D03*
X4300000Y-20000000D03*
X-16000000Y-14100000D03*
X11100000Y-14100000D03*
X3000000Y7100000D03*
X2400000Y-21900000D03*
X-2500000Y-13200000D03*
X-7700000Y-15300000D03*
X11400000Y-33000000D03*
X-7900000Y-18900000D03*
X6700000Y9900000D03*
X900000Y9100000D03*
X-900000Y7500000D03*
X2300000Y-34900000D03*
X6200000Y-11000000D03*
X3900000Y2600000D03*
X-600000Y-11600000D03*
X200000Y-18900000D03*
X-300000Y10300000D03*
X1200000Y5100000D03*
X-5400000Y-16800000D03*
X1500000Y-20200000D03*
X-13900000Y-12100000D03*
X-11300000Y-14000000D03*
X3700000Y-11000000D03*
X-13500000Y-14300000D03*
G04 #@! TO.N,Net-(U1-COL1)*
X-15200000Y-12800000D03*
G04 #@! TO.N,/PMOD0_P7_CATHODE0*
X6000000Y7800000D03*
G04 #@! TO.N,Net-(U1-COL3)*
X-6844622Y-19544622D03*
G04 #@! TO.N,Net-(U1-COL4)*
X-11800000Y-12900000D03*
X-13000000Y-11200000D03*
G04 #@! TO.N,Net-(U1-COL6)*
X200000Y5900000D03*
G04 #@! TO.N,Net-(U1-COL8)*
X-10300000Y-11900000D03*
G04 #@! TD*
D16*
G04 #@! TO.N,/PMOD0_P1_CATHODE1*
X5159031Y-34410969D02*
X5159031Y3640969D01*
X5080000Y-34490000D02*
X5159031Y-34410969D01*
X-3810000Y12610000D02*
X-3810000Y14200000D01*
X5159031Y3640969D02*
X-3810000Y12610000D01*
G04 #@! TO.N,/PMOD0_P2_CATHODE3*
X7620000Y-34490000D02*
X7699030Y-34410970D01*
X7699030Y7770970D02*
X1270000Y14200000D01*
X7699030Y-34410970D02*
X7699030Y7770970D01*
G04 #@! TO.N,Net-(U1-COL1)*
X-15240000Y-12840000D02*
X-15200000Y-12800000D01*
X-15240000Y-22860000D02*
X-15240000Y-12840000D01*
G04 #@! TO.N,/PMOD0_P7_CATHODE0*
X7249520Y6550480D02*
X6000000Y7800000D01*
X6229511Y-35880489D02*
X6229511Y-30870489D01*
X6229511Y-30870489D02*
X6229511Y-15792602D01*
X6229511Y-15792602D02*
X7249520Y-14772593D01*
X5080000Y-37030000D02*
X6229511Y-35880489D01*
X7249520Y-14772593D02*
X7249520Y6550480D01*
G04 #@! TO.N,Net-(U1-COL3)*
X-2870000Y-16000000D02*
X-3300000Y-16000000D01*
X-1270000Y-14200000D02*
X-1270000Y-14400000D01*
X-1270000Y-14400000D02*
X-2870000Y-16000000D01*
X-3300000Y-16000000D02*
X-6844622Y-19544622D01*
G04 #@! TO.N,Net-(U1-COL4)*
X-11800000Y-12900000D02*
X-11800000Y-12400000D01*
X-11800000Y-12400000D02*
X-13000000Y-11200000D01*
G04 #@! TO.N,Net-(U1-COL5)*
X2900000Y-16900000D02*
X3810000Y-15990000D01*
X880000Y-16900000D02*
X2900000Y-16900000D01*
X-5080000Y-22860000D02*
X880000Y-16900000D01*
X3810000Y-15990000D02*
X3810000Y-14200000D01*
G04 #@! TO.N,Net-(U1-COL6)*
X-7620000Y-22860000D02*
X-160000Y-15400000D01*
X200000Y-15040000D02*
X200000Y5900000D01*
X-160000Y-15400000D02*
X200000Y-15040000D01*
G04 #@! TO.N,Net-(U1-COL7)*
X4709520Y3140480D02*
X-6350000Y14200000D01*
X4709520Y-18150480D02*
X4709520Y3140480D01*
X0Y-22860000D02*
X4709520Y-18150480D01*
G04 #@! TO.N,Net-(U1-COL8)*
X-10300000Y11700000D02*
X-8890000Y13110000D01*
X-10300000Y-11900000D02*
X-10300000Y11700000D01*
X-8890000Y13110000D02*
X-8890000Y14200000D01*
G04 #@! TD*
G04 #@! TA.AperFunction,Conductor*
G04 #@! TO.N,GND*
G36*
X10950500Y28911237D02*
G01*
X10986737Y28875000D01*
X11000000Y28825500D01*
X11000000Y20000000D01*
X19825500Y20000000D01*
X19875000Y19986737D01*
X19911237Y19950500D01*
X19924500Y19901000D01*
X19924500Y-40825500D01*
X19911237Y-40875000D01*
X19875000Y-40911237D01*
X19825500Y-40924500D01*
X-19825500Y-40924500D01*
X-19875000Y-40911237D01*
X-19911237Y-40875000D01*
X-19924500Y-40825500D01*
X-19924500Y-37030000D01*
X-18785341Y-37030000D01*
X-18766024Y-37226132D01*
X-18708814Y-37414727D01*
X-18615910Y-37588538D01*
X-18490883Y-37740883D01*
X-18338538Y-37865910D01*
X-18164727Y-37958814D01*
X-17976132Y-38016024D01*
X-17780000Y-38035341D01*
X-17583868Y-38016024D01*
X-17395273Y-37958814D01*
X-17221462Y-37865910D01*
X-17069117Y-37740883D01*
X-16944090Y-37588538D01*
X-16851186Y-37414727D01*
X-16793976Y-37226132D01*
X-16774659Y-37030000D01*
X-16245341Y-37030000D01*
X-16226024Y-37226132D01*
X-16168814Y-37414727D01*
X-16075910Y-37588538D01*
X-15950883Y-37740883D01*
X-15798538Y-37865910D01*
X-15624727Y-37958814D01*
X-15436132Y-38016024D01*
X-15240000Y-38035341D01*
X-15043868Y-38016024D01*
X-14855273Y-37958814D01*
X-14681462Y-37865910D01*
X-14529117Y-37740883D01*
X-14404090Y-37588538D01*
X-14311186Y-37414727D01*
X-14253976Y-37226132D01*
X-14234659Y-37030000D01*
X-13705341Y-37030000D01*
X-13686024Y-37226132D01*
X-13628814Y-37414727D01*
X-13535910Y-37588538D01*
X-13410883Y-37740883D01*
X-13258538Y-37865910D01*
X-13084727Y-37958814D01*
X-12896132Y-38016024D01*
X-12700000Y-38035341D01*
X-12503868Y-38016024D01*
X-12315273Y-37958814D01*
X-12141462Y-37865910D01*
X-11989117Y-37740883D01*
X-11864090Y-37588538D01*
X-11771186Y-37414727D01*
X-11713976Y-37226132D01*
X-11694659Y-37030000D01*
X-11165341Y-37030000D01*
X-11146024Y-37226132D01*
X-11088814Y-37414727D01*
X-10995910Y-37588538D01*
X-10870883Y-37740883D01*
X-10718538Y-37865910D01*
X-10544727Y-37958814D01*
X-10356132Y-38016024D01*
X-10160000Y-38035341D01*
X-9963868Y-38016024D01*
X-9775273Y-37958814D01*
X-9601462Y-37865910D01*
X-9449117Y-37740883D01*
X-9324090Y-37588538D01*
X-9231186Y-37414727D01*
X-9173976Y-37226132D01*
X-9165866Y-37143791D01*
X-8613631Y-37143791D01*
X-8606008Y-37221190D01*
X-8604118Y-37230690D01*
X-8549762Y-37409878D01*
X-8546055Y-37418827D01*
X-8457784Y-37583971D01*
X-8452409Y-37592015D01*
X-8333617Y-37736763D01*
X-8326763Y-37743617D01*
X-8182015Y-37862409D01*
X-8173971Y-37867784D01*
X-8008827Y-37956055D01*
X-7999878Y-37959762D01*
X-7820690Y-38014118D01*
X-7811190Y-38016008D01*
X-7733791Y-38023631D01*
X-7723009Y-38021669D01*
X-7720000Y-38011131D01*
X-7520000Y-38011131D01*
X-7516990Y-38021669D01*
X-7506208Y-38023631D01*
X-7428809Y-38016008D01*
X-7419309Y-38014118D01*
X-7240121Y-37959762D01*
X-7231172Y-37956055D01*
X-7066028Y-37867784D01*
X-7057984Y-37862409D01*
X-6913236Y-37743617D01*
X-6906382Y-37736763D01*
X-6787590Y-37592015D01*
X-6782215Y-37583971D01*
X-6693944Y-37418827D01*
X-6690237Y-37409878D01*
X-6635881Y-37230690D01*
X-6633991Y-37221190D01*
X-6626368Y-37143791D01*
X-6628330Y-37133009D01*
X-6638869Y-37130000D01*
X-7506967Y-37130000D01*
X-7517245Y-37132754D01*
X-7520000Y-37143033D01*
X-7520000Y-38011131D01*
X-7720000Y-38011131D01*
X-7720000Y-37143033D01*
X-7722754Y-37132754D01*
X-7733033Y-37130000D01*
X-8601131Y-37130000D01*
X-8611669Y-37133009D01*
X-8613631Y-37143791D01*
X-9165866Y-37143791D01*
X-9154659Y-37030000D01*
X-6085341Y-37030000D01*
X-6066024Y-37226132D01*
X-6008814Y-37414727D01*
X-5915910Y-37588538D01*
X-5790883Y-37740883D01*
X-5638538Y-37865910D01*
X-5464727Y-37958814D01*
X-5276132Y-38016024D01*
X-5080000Y-38035341D01*
X-4883868Y-38016024D01*
X-4695273Y-37958814D01*
X-4521462Y-37865910D01*
X-4369117Y-37740883D01*
X-4244090Y-37588538D01*
X-4151186Y-37414727D01*
X-4093976Y-37226132D01*
X-4074659Y-37030000D01*
X-4093976Y-36833868D01*
X-4095386Y-36829217D01*
X-4095388Y-36829211D01*
X-4149773Y-36649929D01*
X-4149775Y-36649923D01*
X-4151186Y-36645273D01*
X-4153477Y-36640985D01*
X-4153480Y-36640980D01*
X-4241798Y-36475750D01*
X-4241798Y-36475749D01*
X-4244090Y-36471462D01*
X-4247168Y-36467711D01*
X-4247173Y-36467704D01*
X-4366027Y-36322881D01*
X-4366032Y-36322875D01*
X-4369117Y-36319117D01*
X-4372875Y-36316032D01*
X-4372881Y-36316027D01*
X-4517704Y-36197173D01*
X-4517711Y-36197168D01*
X-4521462Y-36194090D01*
X-4610661Y-36146412D01*
X-4690980Y-36103480D01*
X-4690985Y-36103477D01*
X-4695273Y-36101186D01*
X-4699923Y-36099775D01*
X-4699929Y-36099773D01*
X-4879211Y-36045388D01*
X-4879217Y-36045386D01*
X-4883868Y-36043976D01*
X-4888708Y-36043499D01*
X-4888710Y-36043499D01*
X-5075157Y-36025136D01*
X-5080000Y-36024659D01*
X-5084843Y-36025136D01*
X-5262120Y-36042596D01*
X-5276132Y-36043976D01*
X-5280784Y-36045387D01*
X-5280788Y-36045388D01*
X-5460070Y-36099773D01*
X-5460072Y-36099774D01*
X-5464727Y-36101186D01*
X-5469017Y-36103479D01*
X-5469019Y-36103480D01*
X-5486728Y-36112946D01*
X-5638538Y-36194090D01*
X-5790883Y-36319117D01*
X-5915910Y-36471462D01*
X-6008814Y-36645273D01*
X-6066024Y-36833868D01*
X-6085341Y-37030000D01*
X-9154659Y-37030000D01*
X-9165866Y-36916208D01*
X-8613631Y-36916208D01*
X-8611669Y-36926990D01*
X-8601131Y-36930000D01*
X-7733033Y-36930000D01*
X-7722754Y-36927245D01*
X-7720000Y-36916967D01*
X-7520000Y-36916967D01*
X-7517245Y-36927245D01*
X-7506967Y-36930000D01*
X-6638869Y-36930000D01*
X-6628330Y-36926990D01*
X-6626368Y-36916208D01*
X-6633991Y-36838809D01*
X-6635881Y-36829309D01*
X-6690237Y-36650121D01*
X-6693944Y-36641172D01*
X-6782215Y-36476028D01*
X-6787590Y-36467984D01*
X-6906382Y-36323236D01*
X-6913236Y-36316382D01*
X-7057984Y-36197590D01*
X-7066028Y-36192215D01*
X-7231172Y-36103944D01*
X-7240121Y-36100237D01*
X-7419309Y-36045881D01*
X-7428809Y-36043991D01*
X-7506208Y-36036368D01*
X-7516990Y-36038330D01*
X-7520000Y-36048869D01*
X-7520000Y-36916967D01*
X-7720000Y-36916967D01*
X-7720000Y-36048869D01*
X-7723009Y-36038330D01*
X-7733791Y-36036368D01*
X-7811190Y-36043991D01*
X-7820690Y-36045881D01*
X-7999878Y-36100237D01*
X-8008827Y-36103944D01*
X-8173971Y-36192215D01*
X-8182015Y-36197590D01*
X-8326763Y-36316382D01*
X-8333617Y-36323236D01*
X-8452409Y-36467984D01*
X-8457784Y-36476028D01*
X-8546055Y-36641172D01*
X-8549762Y-36650121D01*
X-8604118Y-36829309D01*
X-8606008Y-36838809D01*
X-8613631Y-36916208D01*
X-9165866Y-36916208D01*
X-9173976Y-36833868D01*
X-9175386Y-36829217D01*
X-9175388Y-36829211D01*
X-9229773Y-36649929D01*
X-9229775Y-36649923D01*
X-9231186Y-36645273D01*
X-9233477Y-36640985D01*
X-9233480Y-36640980D01*
X-9321798Y-36475750D01*
X-9321798Y-36475749D01*
X-9324090Y-36471462D01*
X-9327168Y-36467711D01*
X-9327173Y-36467704D01*
X-9446027Y-36322881D01*
X-9446032Y-36322875D01*
X-9449117Y-36319117D01*
X-9452875Y-36316032D01*
X-9452881Y-36316027D01*
X-9597704Y-36197173D01*
X-9597711Y-36197168D01*
X-9601462Y-36194090D01*
X-9690661Y-36146412D01*
X-9770980Y-36103480D01*
X-9770985Y-36103477D01*
X-9775273Y-36101186D01*
X-9779923Y-36099775D01*
X-9779929Y-36099773D01*
X-9959211Y-36045388D01*
X-9959217Y-36045386D01*
X-9963868Y-36043976D01*
X-9968708Y-36043499D01*
X-9968710Y-36043499D01*
X-10155157Y-36025136D01*
X-10160000Y-36024659D01*
X-10164843Y-36025136D01*
X-10342120Y-36042596D01*
X-10356132Y-36043976D01*
X-10360784Y-36045387D01*
X-10360788Y-36045388D01*
X-10540070Y-36099773D01*
X-10540072Y-36099774D01*
X-10544727Y-36101186D01*
X-10549017Y-36103479D01*
X-10549019Y-36103480D01*
X-10566728Y-36112946D01*
X-10718538Y-36194090D01*
X-10870883Y-36319117D01*
X-10995910Y-36471462D01*
X-11088814Y-36645273D01*
X-11146024Y-36833868D01*
X-11165341Y-37030000D01*
X-11694659Y-37030000D01*
X-11713976Y-36833868D01*
X-11715386Y-36829217D01*
X-11715388Y-36829211D01*
X-11769773Y-36649929D01*
X-11769775Y-36649923D01*
X-11771186Y-36645273D01*
X-11773477Y-36640985D01*
X-11773480Y-36640980D01*
X-11861798Y-36475750D01*
X-11861798Y-36475749D01*
X-11864090Y-36471462D01*
X-11867168Y-36467711D01*
X-11867173Y-36467704D01*
X-11986027Y-36322881D01*
X-11986032Y-36322875D01*
X-11989117Y-36319117D01*
X-11992875Y-36316032D01*
X-11992881Y-36316027D01*
X-12137704Y-36197173D01*
X-12137711Y-36197168D01*
X-12141462Y-36194090D01*
X-12230661Y-36146412D01*
X-12310980Y-36103480D01*
X-12310985Y-36103477D01*
X-12315273Y-36101186D01*
X-12319923Y-36099775D01*
X-12319929Y-36099773D01*
X-12499211Y-36045388D01*
X-12499217Y-36045386D01*
X-12503868Y-36043976D01*
X-12508708Y-36043499D01*
X-12508710Y-36043499D01*
X-12695157Y-36025136D01*
X-12700000Y-36024659D01*
X-12704843Y-36025136D01*
X-12882120Y-36042596D01*
X-12896132Y-36043976D01*
X-12900784Y-36045387D01*
X-12900788Y-36045388D01*
X-13080070Y-36099773D01*
X-13080072Y-36099774D01*
X-13084727Y-36101186D01*
X-13089017Y-36103479D01*
X-13089019Y-36103480D01*
X-13106728Y-36112946D01*
X-13258538Y-36194090D01*
X-13410883Y-36319117D01*
X-13535910Y-36471462D01*
X-13628814Y-36645273D01*
X-13686024Y-36833868D01*
X-13705341Y-37030000D01*
X-14234659Y-37030000D01*
X-14253976Y-36833868D01*
X-14255386Y-36829217D01*
X-14255388Y-36829211D01*
X-14309773Y-36649929D01*
X-14309775Y-36649923D01*
X-14311186Y-36645273D01*
X-14313477Y-36640985D01*
X-14313480Y-36640980D01*
X-14401798Y-36475750D01*
X-14401798Y-36475749D01*
X-14404090Y-36471462D01*
X-14407168Y-36467711D01*
X-14407173Y-36467704D01*
X-14526027Y-36322881D01*
X-14526032Y-36322875D01*
X-14529117Y-36319117D01*
X-14532875Y-36316032D01*
X-14532881Y-36316027D01*
X-14677704Y-36197173D01*
X-14677711Y-36197168D01*
X-14681462Y-36194090D01*
X-14770661Y-36146412D01*
X-14850980Y-36103480D01*
X-14850985Y-36103477D01*
X-14855273Y-36101186D01*
X-14859923Y-36099775D01*
X-14859929Y-36099773D01*
X-15039211Y-36045388D01*
X-15039217Y-36045386D01*
X-15043868Y-36043976D01*
X-15048708Y-36043499D01*
X-15048710Y-36043499D01*
X-15235157Y-36025136D01*
X-15240000Y-36024659D01*
X-15244843Y-36025136D01*
X-15422120Y-36042596D01*
X-15436132Y-36043976D01*
X-15440784Y-36045387D01*
X-15440788Y-36045388D01*
X-15620070Y-36099773D01*
X-15620072Y-36099774D01*
X-15624727Y-36101186D01*
X-15629017Y-36103479D01*
X-15629019Y-36103480D01*
X-15646728Y-36112946D01*
X-15798538Y-36194090D01*
X-15950883Y-36319117D01*
X-16075910Y-36471462D01*
X-16168814Y-36645273D01*
X-16226024Y-36833868D01*
X-16245341Y-37030000D01*
X-16774659Y-37030000D01*
X-16793976Y-36833868D01*
X-16795386Y-36829217D01*
X-16795388Y-36829211D01*
X-16849773Y-36649929D01*
X-16849775Y-36649923D01*
X-16851186Y-36645273D01*
X-16853477Y-36640985D01*
X-16853480Y-36640980D01*
X-16941798Y-36475750D01*
X-16941798Y-36475749D01*
X-16944090Y-36471462D01*
X-16947168Y-36467711D01*
X-16947173Y-36467704D01*
X-17066027Y-36322881D01*
X-17066032Y-36322875D01*
X-17069117Y-36319117D01*
X-17072875Y-36316032D01*
X-17072881Y-36316027D01*
X-17217704Y-36197173D01*
X-17217711Y-36197168D01*
X-17221462Y-36194090D01*
X-17310661Y-36146412D01*
X-17390980Y-36103480D01*
X-17390985Y-36103477D01*
X-17395273Y-36101186D01*
X-17399923Y-36099775D01*
X-17399929Y-36099773D01*
X-17579211Y-36045388D01*
X-17579217Y-36045386D01*
X-17583868Y-36043976D01*
X-17588708Y-36043499D01*
X-17588710Y-36043499D01*
X-17775157Y-36025136D01*
X-17780000Y-36024659D01*
X-17784843Y-36025136D01*
X-17962120Y-36042596D01*
X-17976132Y-36043976D01*
X-17980784Y-36045387D01*
X-17980788Y-36045388D01*
X-18160070Y-36099773D01*
X-18160072Y-36099774D01*
X-18164727Y-36101186D01*
X-18169017Y-36103479D01*
X-18169019Y-36103480D01*
X-18186728Y-36112946D01*
X-18338538Y-36194090D01*
X-18490883Y-36319117D01*
X-18615910Y-36471462D01*
X-18708814Y-36645273D01*
X-18766024Y-36833868D01*
X-18785341Y-37030000D01*
X-19924500Y-37030000D01*
X-19924500Y-35309748D01*
X-18780500Y-35309748D01*
X-18768867Y-35368231D01*
X-18724552Y-35434552D01*
X-18658231Y-35478867D01*
X-18599748Y-35490500D01*
X-16965110Y-35490500D01*
X-16960252Y-35490500D01*
X-16901769Y-35478867D01*
X-16835448Y-35434552D01*
X-16830028Y-35426441D01*
X-16796551Y-35376340D01*
X-16796550Y-35376338D01*
X-16791133Y-35368231D01*
X-16789230Y-35358666D01*
X-16780447Y-35314511D01*
X-16780446Y-35314506D01*
X-16779500Y-35309748D01*
X-16779500Y-34490000D01*
X-16245341Y-34490000D01*
X-16226024Y-34686132D01*
X-16168814Y-34874727D01*
X-16075910Y-35048538D01*
X-15950883Y-35200883D01*
X-15798538Y-35325910D01*
X-15624727Y-35418814D01*
X-15436132Y-35476024D01*
X-15240000Y-35495341D01*
X-15043868Y-35476024D01*
X-14855273Y-35418814D01*
X-14681462Y-35325910D01*
X-14529117Y-35200883D01*
X-14525736Y-35196763D01*
X-14407173Y-35052295D01*
X-14407171Y-35052292D01*
X-14404090Y-35048538D01*
X-14311186Y-34874727D01*
X-14253976Y-34686132D01*
X-14234659Y-34490000D01*
X-13705341Y-34490000D01*
X-13686024Y-34686132D01*
X-13628814Y-34874727D01*
X-13535910Y-35048538D01*
X-13410883Y-35200883D01*
X-13258538Y-35325910D01*
X-13084727Y-35418814D01*
X-12896132Y-35476024D01*
X-12700000Y-35495341D01*
X-12503868Y-35476024D01*
X-12315273Y-35418814D01*
X-12141462Y-35325910D01*
X-11989117Y-35200883D01*
X-11985736Y-35196763D01*
X-11867173Y-35052295D01*
X-11867171Y-35052292D01*
X-11864090Y-35048538D01*
X-11771186Y-34874727D01*
X-11713976Y-34686132D01*
X-11694659Y-34490000D01*
X-11165341Y-34490000D01*
X-11146024Y-34686132D01*
X-11088814Y-34874727D01*
X-10995910Y-35048538D01*
X-10870883Y-35200883D01*
X-10718538Y-35325910D01*
X-10544727Y-35418814D01*
X-10356132Y-35476024D01*
X-10160000Y-35495341D01*
X-9963868Y-35476024D01*
X-9775273Y-35418814D01*
X-9601462Y-35325910D01*
X-9449117Y-35200883D01*
X-9445736Y-35196763D01*
X-9327173Y-35052295D01*
X-9327171Y-35052292D01*
X-9324090Y-35048538D01*
X-9231186Y-34874727D01*
X-9173976Y-34686132D01*
X-9165866Y-34603791D01*
X-8613631Y-34603791D01*
X-8606008Y-34681190D01*
X-8604118Y-34690690D01*
X-8549762Y-34869878D01*
X-8546055Y-34878827D01*
X-8457784Y-35043971D01*
X-8452409Y-35052015D01*
X-8333617Y-35196763D01*
X-8326763Y-35203617D01*
X-8182015Y-35322409D01*
X-8173971Y-35327784D01*
X-8008827Y-35416055D01*
X-7999878Y-35419762D01*
X-7820690Y-35474118D01*
X-7811190Y-35476008D01*
X-7733791Y-35483631D01*
X-7723009Y-35481669D01*
X-7720000Y-35471131D01*
X-7520000Y-35471131D01*
X-7516990Y-35481669D01*
X-7506208Y-35483631D01*
X-7428809Y-35476008D01*
X-7419309Y-35474118D01*
X-7240121Y-35419762D01*
X-7231172Y-35416055D01*
X-7066028Y-35327784D01*
X-7057984Y-35322409D01*
X-6913236Y-35203617D01*
X-6906382Y-35196763D01*
X-6787590Y-35052015D01*
X-6782215Y-35043971D01*
X-6693944Y-34878827D01*
X-6690237Y-34869878D01*
X-6635881Y-34690690D01*
X-6633991Y-34681190D01*
X-6626368Y-34603791D01*
X-6628330Y-34593009D01*
X-6638869Y-34590000D01*
X-7506967Y-34590000D01*
X-7517245Y-34592754D01*
X-7520000Y-34603033D01*
X-7520000Y-35471131D01*
X-7720000Y-35471131D01*
X-7720000Y-34603033D01*
X-7722754Y-34592754D01*
X-7733033Y-34590000D01*
X-8601131Y-34590000D01*
X-8611669Y-34593009D01*
X-8613631Y-34603791D01*
X-9165866Y-34603791D01*
X-9154659Y-34490000D01*
X-6085341Y-34490000D01*
X-6066024Y-34686132D01*
X-6008814Y-34874727D01*
X-5915910Y-35048538D01*
X-5790883Y-35200883D01*
X-5638538Y-35325910D01*
X-5464727Y-35418814D01*
X-5276132Y-35476024D01*
X-5080000Y-35495341D01*
X-4883868Y-35476024D01*
X-4695273Y-35418814D01*
X-4521462Y-35325910D01*
X-4369117Y-35200883D01*
X-4365736Y-35196763D01*
X-4247173Y-35052295D01*
X-4247171Y-35052292D01*
X-4244090Y-35048538D01*
X-4151186Y-34874727D01*
X-4093976Y-34686132D01*
X-4074659Y-34490000D01*
X-4093976Y-34293868D01*
X-4095386Y-34289217D01*
X-4095388Y-34289211D01*
X-4149773Y-34109929D01*
X-4149775Y-34109923D01*
X-4151186Y-34105273D01*
X-4153477Y-34100985D01*
X-4153480Y-34100980D01*
X-4241798Y-33935750D01*
X-4241798Y-33935749D01*
X-4244090Y-33931462D01*
X-4247168Y-33927711D01*
X-4247173Y-33927704D01*
X-4366027Y-33782881D01*
X-4366032Y-33782875D01*
X-4369117Y-33779117D01*
X-4372875Y-33776032D01*
X-4372881Y-33776027D01*
X-4517704Y-33657173D01*
X-4517711Y-33657168D01*
X-4521462Y-33654090D01*
X-4582746Y-33621333D01*
X-4690980Y-33563480D01*
X-4690985Y-33563477D01*
X-4695273Y-33561186D01*
X-4699923Y-33559775D01*
X-4699929Y-33559773D01*
X-4879211Y-33505388D01*
X-4879217Y-33505386D01*
X-4883868Y-33503976D01*
X-4888708Y-33503499D01*
X-4888710Y-33503499D01*
X-5075157Y-33485136D01*
X-5080000Y-33484659D01*
X-5276132Y-33503976D01*
X-5280784Y-33505387D01*
X-5280788Y-33505388D01*
X-5460070Y-33559773D01*
X-5460072Y-33559774D01*
X-5464727Y-33561186D01*
X-5638538Y-33654090D01*
X-5642292Y-33657171D01*
X-5642295Y-33657173D01*
X-5664151Y-33675110D01*
X-5790883Y-33779117D01*
X-5915910Y-33931462D01*
X-6008814Y-34105273D01*
X-6066024Y-34293868D01*
X-6085341Y-34490000D01*
X-9154659Y-34490000D01*
X-9165866Y-34376208D01*
X-8613631Y-34376208D01*
X-8611669Y-34386990D01*
X-8601131Y-34390000D01*
X-7733033Y-34390000D01*
X-7722754Y-34387245D01*
X-7720000Y-34376967D01*
X-7520000Y-34376967D01*
X-7517245Y-34387245D01*
X-7506967Y-34390000D01*
X-6638869Y-34390000D01*
X-6628330Y-34386990D01*
X-6626368Y-34376208D01*
X-6633991Y-34298809D01*
X-6635881Y-34289309D01*
X-6690237Y-34110121D01*
X-6693944Y-34101172D01*
X-6782215Y-33936028D01*
X-6787590Y-33927984D01*
X-6906382Y-33783236D01*
X-6913236Y-33776382D01*
X-7057984Y-33657590D01*
X-7066028Y-33652215D01*
X-7231172Y-33563944D01*
X-7240121Y-33560237D01*
X-7419309Y-33505881D01*
X-7428809Y-33503991D01*
X-7506208Y-33496368D01*
X-7516990Y-33498330D01*
X-7520000Y-33508869D01*
X-7520000Y-34376967D01*
X-7720000Y-34376967D01*
X-7720000Y-33508869D01*
X-7723009Y-33498330D01*
X-7733791Y-33496368D01*
X-7811190Y-33503991D01*
X-7820690Y-33505881D01*
X-7999878Y-33560237D01*
X-8008827Y-33563944D01*
X-8173971Y-33652215D01*
X-8182015Y-33657590D01*
X-8326763Y-33776382D01*
X-8333617Y-33783236D01*
X-8452409Y-33927984D01*
X-8457784Y-33936028D01*
X-8546055Y-34101172D01*
X-8549762Y-34110121D01*
X-8604118Y-34289309D01*
X-8606008Y-34298809D01*
X-8613631Y-34376208D01*
X-9165866Y-34376208D01*
X-9173976Y-34293868D01*
X-9175386Y-34289217D01*
X-9175388Y-34289211D01*
X-9229773Y-34109929D01*
X-9229775Y-34109923D01*
X-9231186Y-34105273D01*
X-9233477Y-34100985D01*
X-9233480Y-34100980D01*
X-9321798Y-33935750D01*
X-9321798Y-33935749D01*
X-9324090Y-33931462D01*
X-9327168Y-33927711D01*
X-9327173Y-33927704D01*
X-9446027Y-33782881D01*
X-9446032Y-33782875D01*
X-9449117Y-33779117D01*
X-9452875Y-33776032D01*
X-9452881Y-33776027D01*
X-9597704Y-33657173D01*
X-9597711Y-33657168D01*
X-9601462Y-33654090D01*
X-9662746Y-33621333D01*
X-9770980Y-33563480D01*
X-9770985Y-33563477D01*
X-9775273Y-33561186D01*
X-9779923Y-33559775D01*
X-9779929Y-33559773D01*
X-9959211Y-33505388D01*
X-9959217Y-33505386D01*
X-9963868Y-33503976D01*
X-9968708Y-33503499D01*
X-9968710Y-33503499D01*
X-10155157Y-33485136D01*
X-10160000Y-33484659D01*
X-10356132Y-33503976D01*
X-10360784Y-33505387D01*
X-10360788Y-33505388D01*
X-10540070Y-33559773D01*
X-10540072Y-33559774D01*
X-10544727Y-33561186D01*
X-10718538Y-33654090D01*
X-10722292Y-33657171D01*
X-10722295Y-33657173D01*
X-10744151Y-33675110D01*
X-10870883Y-33779117D01*
X-10995910Y-33931462D01*
X-11088814Y-34105273D01*
X-11146024Y-34293868D01*
X-11165341Y-34490000D01*
X-11694659Y-34490000D01*
X-11713976Y-34293868D01*
X-11715386Y-34289217D01*
X-11715388Y-34289211D01*
X-11769773Y-34109929D01*
X-11769775Y-34109923D01*
X-11771186Y-34105273D01*
X-11773477Y-34100985D01*
X-11773480Y-34100980D01*
X-11861798Y-33935750D01*
X-11861798Y-33935749D01*
X-11864090Y-33931462D01*
X-11867168Y-33927711D01*
X-11867173Y-33927704D01*
X-11986027Y-33782881D01*
X-11986032Y-33782875D01*
X-11989117Y-33779117D01*
X-11992875Y-33776032D01*
X-11992881Y-33776027D01*
X-12137704Y-33657173D01*
X-12137711Y-33657168D01*
X-12141462Y-33654090D01*
X-12202746Y-33621333D01*
X-12310980Y-33563480D01*
X-12310985Y-33563477D01*
X-12315273Y-33561186D01*
X-12319923Y-33559775D01*
X-12319929Y-33559773D01*
X-12499211Y-33505388D01*
X-12499217Y-33505386D01*
X-12503868Y-33503976D01*
X-12508708Y-33503499D01*
X-12508710Y-33503499D01*
X-12695157Y-33485136D01*
X-12700000Y-33484659D01*
X-12896132Y-33503976D01*
X-12900784Y-33505387D01*
X-12900788Y-33505388D01*
X-13080070Y-33559773D01*
X-13080072Y-33559774D01*
X-13084727Y-33561186D01*
X-13258538Y-33654090D01*
X-13262292Y-33657171D01*
X-13262295Y-33657173D01*
X-13284151Y-33675110D01*
X-13410883Y-33779117D01*
X-13535910Y-33931462D01*
X-13628814Y-34105273D01*
X-13686024Y-34293868D01*
X-13705341Y-34490000D01*
X-14234659Y-34490000D01*
X-14253976Y-34293868D01*
X-14255386Y-34289217D01*
X-14255388Y-34289211D01*
X-14309773Y-34109929D01*
X-14309775Y-34109923D01*
X-14311186Y-34105273D01*
X-14313477Y-34100985D01*
X-14313480Y-34100980D01*
X-14401798Y-33935750D01*
X-14401798Y-33935749D01*
X-14404090Y-33931462D01*
X-14407168Y-33927711D01*
X-14407173Y-33927704D01*
X-14526027Y-33782881D01*
X-14526032Y-33782875D01*
X-14529117Y-33779117D01*
X-14532875Y-33776032D01*
X-14532881Y-33776027D01*
X-14677704Y-33657173D01*
X-14677711Y-33657168D01*
X-14681462Y-33654090D01*
X-14742746Y-33621333D01*
X-14850980Y-33563480D01*
X-14850985Y-33563477D01*
X-14855273Y-33561186D01*
X-14859923Y-33559775D01*
X-14859929Y-33559773D01*
X-15039211Y-33505388D01*
X-15039217Y-33505386D01*
X-15043868Y-33503976D01*
X-15048708Y-33503499D01*
X-15048710Y-33503499D01*
X-15235157Y-33485136D01*
X-15240000Y-33484659D01*
X-15436132Y-33503976D01*
X-15440784Y-33505387D01*
X-15440788Y-33505388D01*
X-15620070Y-33559773D01*
X-15620072Y-33559774D01*
X-15624727Y-33561186D01*
X-15798538Y-33654090D01*
X-15802292Y-33657171D01*
X-15802295Y-33657173D01*
X-15824151Y-33675110D01*
X-15950883Y-33779117D01*
X-16075910Y-33931462D01*
X-16168814Y-34105273D01*
X-16226024Y-34293868D01*
X-16245341Y-34490000D01*
X-16779500Y-34490000D01*
X-16779500Y-33670252D01*
X-16780446Y-33665494D01*
X-16780447Y-33665488D01*
X-16789230Y-33621333D01*
X-16789231Y-33621330D01*
X-16791133Y-33611769D01*
X-16796549Y-33603663D01*
X-16796551Y-33603659D01*
X-16830028Y-33553558D01*
X-16830030Y-33553555D01*
X-16835448Y-33545448D01*
X-16843555Y-33540030D01*
X-16843558Y-33540028D01*
X-16893659Y-33506551D01*
X-16893663Y-33506549D01*
X-16901769Y-33501133D01*
X-16911330Y-33499231D01*
X-16911333Y-33499230D01*
X-16955488Y-33490447D01*
X-16955494Y-33490446D01*
X-16960252Y-33489500D01*
X-18599748Y-33489500D01*
X-18604506Y-33490446D01*
X-18604511Y-33490447D01*
X-18648666Y-33499230D01*
X-18648667Y-33499230D01*
X-18658231Y-33501133D01*
X-18666338Y-33506550D01*
X-18666340Y-33506551D01*
X-18716441Y-33540028D01*
X-18724552Y-33545448D01*
X-18768867Y-33611769D01*
X-18780500Y-33670252D01*
X-18780500Y-35309748D01*
X-19924500Y-35309748D01*
X-19924500Y-27940000D01*
X-18685460Y-27940000D01*
X-18665674Y-28128256D01*
X-18607179Y-28308284D01*
X-18512533Y-28472216D01*
X-18385871Y-28612888D01*
X-18232730Y-28724151D01*
X-18059803Y-28801144D01*
X-17874646Y-28840500D01*
X-17690543Y-28840500D01*
X-17685354Y-28840500D01*
X-17500197Y-28801144D01*
X-17327270Y-28724151D01*
X-17174129Y-28612888D01*
X-17047467Y-28472216D01*
X-16952821Y-28308284D01*
X-16894326Y-28128256D01*
X-16893784Y-28123106D01*
X-16893783Y-28123098D01*
X-16875082Y-27945157D01*
X-16874540Y-27940000D01*
X-16145460Y-27940000D01*
X-16125674Y-28128256D01*
X-16067179Y-28308284D01*
X-15972533Y-28472216D01*
X-15845871Y-28612888D01*
X-15692730Y-28724151D01*
X-15519803Y-28801144D01*
X-15334646Y-28840500D01*
X-15150543Y-28840500D01*
X-15145354Y-28840500D01*
X-14960197Y-28801144D01*
X-14787270Y-28724151D01*
X-14634129Y-28612888D01*
X-14507467Y-28472216D01*
X-14412821Y-28308284D01*
X-14354326Y-28128256D01*
X-14353784Y-28123106D01*
X-14353783Y-28123098D01*
X-14335082Y-27945157D01*
X-14334540Y-27940000D01*
X-13605460Y-27940000D01*
X-13585674Y-28128256D01*
X-13527179Y-28308284D01*
X-13432533Y-28472216D01*
X-13305871Y-28612888D01*
X-13152730Y-28724151D01*
X-12979803Y-28801144D01*
X-12794646Y-28840500D01*
X-12610543Y-28840500D01*
X-12605354Y-28840500D01*
X-12420197Y-28801144D01*
X-12247270Y-28724151D01*
X-12094129Y-28612888D01*
X-11967467Y-28472216D01*
X-11872821Y-28308284D01*
X-11814326Y-28128256D01*
X-11813784Y-28123106D01*
X-11813783Y-28123098D01*
X-11795082Y-27945157D01*
X-11794540Y-27940000D01*
X-11065460Y-27940000D01*
X-11045674Y-28128256D01*
X-10987179Y-28308284D01*
X-10892533Y-28472216D01*
X-10765871Y-28612888D01*
X-10612730Y-28724151D01*
X-10439803Y-28801144D01*
X-10254646Y-28840500D01*
X-10070543Y-28840500D01*
X-10065354Y-28840500D01*
X-9880197Y-28801144D01*
X-9707270Y-28724151D01*
X-9554129Y-28612888D01*
X-9427467Y-28472216D01*
X-9332821Y-28308284D01*
X-9274326Y-28128256D01*
X-9273784Y-28123106D01*
X-9273783Y-28123098D01*
X-9255082Y-27945157D01*
X-9254540Y-27940000D01*
X-8525460Y-27940000D01*
X-8505674Y-28128256D01*
X-8447179Y-28308284D01*
X-8352533Y-28472216D01*
X-8225871Y-28612888D01*
X-8072730Y-28724151D01*
X-7899803Y-28801144D01*
X-7714646Y-28840500D01*
X-7530543Y-28840500D01*
X-7525354Y-28840500D01*
X-7340197Y-28801144D01*
X-7167270Y-28724151D01*
X-7014129Y-28612888D01*
X-6887467Y-28472216D01*
X-6792821Y-28308284D01*
X-6734326Y-28128256D01*
X-6733784Y-28123106D01*
X-6733783Y-28123098D01*
X-6715082Y-27945157D01*
X-6714540Y-27940000D01*
X-5985460Y-27940000D01*
X-5965674Y-28128256D01*
X-5907179Y-28308284D01*
X-5812533Y-28472216D01*
X-5685871Y-28612888D01*
X-5532730Y-28724151D01*
X-5359803Y-28801144D01*
X-5174646Y-28840500D01*
X-4990543Y-28840500D01*
X-4985354Y-28840500D01*
X-4800197Y-28801144D01*
X-4627270Y-28724151D01*
X-4474129Y-28612888D01*
X-4347467Y-28472216D01*
X-4252821Y-28308284D01*
X-4194326Y-28128256D01*
X-4193784Y-28123106D01*
X-4193783Y-28123098D01*
X-4175082Y-27945157D01*
X-4174540Y-27940000D01*
X-3445460Y-27940000D01*
X-3425674Y-28128256D01*
X-3367179Y-28308284D01*
X-3272533Y-28472216D01*
X-3145871Y-28612888D01*
X-2992730Y-28724151D01*
X-2819803Y-28801144D01*
X-2634646Y-28840500D01*
X-2450543Y-28840500D01*
X-2445354Y-28840500D01*
X-2260197Y-28801144D01*
X-2087270Y-28724151D01*
X-1934129Y-28612888D01*
X-1807467Y-28472216D01*
X-1712821Y-28308284D01*
X-1654326Y-28128256D01*
X-1653784Y-28123106D01*
X-1653783Y-28123098D01*
X-1635082Y-27945157D01*
X-1634540Y-27940000D01*
X-905460Y-27940000D01*
X-885674Y-28128256D01*
X-827179Y-28308284D01*
X-732533Y-28472216D01*
X-605871Y-28612888D01*
X-452730Y-28724151D01*
X-279803Y-28801144D01*
X-94646Y-28840500D01*
X89457Y-28840500D01*
X94646Y-28840500D01*
X279803Y-28801144D01*
X452730Y-28724151D01*
X605871Y-28612888D01*
X732533Y-28472216D01*
X827179Y-28308284D01*
X885674Y-28128256D01*
X905460Y-27940000D01*
X885674Y-27751744D01*
X827179Y-27571716D01*
X732533Y-27407784D01*
X605871Y-27267112D01*
X601681Y-27264068D01*
X601678Y-27264065D01*
X456920Y-27158893D01*
X456918Y-27158892D01*
X452730Y-27155849D01*
X447997Y-27153742D01*
X447996Y-27153741D01*
X284540Y-27080965D01*
X284539Y-27080964D01*
X279803Y-27078856D01*
X251306Y-27072799D01*
X99720Y-27040578D01*
X99715Y-27040577D01*
X94646Y-27039500D01*
X-94646Y-27039500D01*
X-99715Y-27040577D01*
X-99720Y-27040578D01*
X-251306Y-27072799D01*
X-279803Y-27078856D01*
X-284539Y-27080964D01*
X-284540Y-27080965D01*
X-447996Y-27153741D01*
X-447997Y-27153742D01*
X-452730Y-27155849D01*
X-456918Y-27158892D01*
X-456920Y-27158893D01*
X-601678Y-27264065D01*
X-601681Y-27264068D01*
X-605871Y-27267112D01*
X-732533Y-27407784D01*
X-827179Y-27571716D01*
X-885674Y-27751744D01*
X-905460Y-27940000D01*
X-1634540Y-27940000D01*
X-1635082Y-27934843D01*
X-1653783Y-27756901D01*
X-1653784Y-27756891D01*
X-1654326Y-27751744D01*
X-1655927Y-27746816D01*
X-1655928Y-27746812D01*
X-1711219Y-27576646D01*
X-1711219Y-27576644D01*
X-1712821Y-27571716D01*
X-1807467Y-27407784D01*
X-1810933Y-27403933D01*
X-1810938Y-27403928D01*
X-1930659Y-27270965D01*
X-1930662Y-27270961D01*
X-1934129Y-27267112D01*
X-1938313Y-27264071D01*
X-1938321Y-27264065D01*
X-2083079Y-27158893D01*
X-2083085Y-27158889D01*
X-2087270Y-27155849D01*
X-2091997Y-27153744D01*
X-2092003Y-27153741D01*
X-2255459Y-27080965D01*
X-2255463Y-27080963D01*
X-2260197Y-27078856D01*
X-2265266Y-27077778D01*
X-2265268Y-27077778D01*
X-2440279Y-27040578D01*
X-2440285Y-27040577D01*
X-2445354Y-27039500D01*
X-2634646Y-27039500D01*
X-2639715Y-27040577D01*
X-2639720Y-27040578D01*
X-2791306Y-27072799D01*
X-2819803Y-27078856D01*
X-2824539Y-27080964D01*
X-2824540Y-27080965D01*
X-2987996Y-27153741D01*
X-2987997Y-27153742D01*
X-2992730Y-27155849D01*
X-2996918Y-27158892D01*
X-2996920Y-27158893D01*
X-3141678Y-27264065D01*
X-3141681Y-27264068D01*
X-3145871Y-27267112D01*
X-3272533Y-27407784D01*
X-3367179Y-27571716D01*
X-3425674Y-27751744D01*
X-3445460Y-27940000D01*
X-4174540Y-27940000D01*
X-4175082Y-27934843D01*
X-4193783Y-27756901D01*
X-4193784Y-27756891D01*
X-4194326Y-27751744D01*
X-4195927Y-27746816D01*
X-4195928Y-27746812D01*
X-4251219Y-27576646D01*
X-4251219Y-27576644D01*
X-4252821Y-27571716D01*
X-4347467Y-27407784D01*
X-4350933Y-27403933D01*
X-4350938Y-27403928D01*
X-4470659Y-27270965D01*
X-4470662Y-27270961D01*
X-4474129Y-27267112D01*
X-4478313Y-27264071D01*
X-4478321Y-27264065D01*
X-4623079Y-27158893D01*
X-4623085Y-27158889D01*
X-4627270Y-27155849D01*
X-4631997Y-27153744D01*
X-4632003Y-27153741D01*
X-4795459Y-27080965D01*
X-4795463Y-27080963D01*
X-4800197Y-27078856D01*
X-4805266Y-27077778D01*
X-4805268Y-27077778D01*
X-4980279Y-27040578D01*
X-4980285Y-27040577D01*
X-4985354Y-27039500D01*
X-5174646Y-27039500D01*
X-5179715Y-27040577D01*
X-5179720Y-27040578D01*
X-5331306Y-27072799D01*
X-5359803Y-27078856D01*
X-5364539Y-27080964D01*
X-5364540Y-27080965D01*
X-5527996Y-27153741D01*
X-5527997Y-27153742D01*
X-5532730Y-27155849D01*
X-5536918Y-27158892D01*
X-5536920Y-27158893D01*
X-5681678Y-27264065D01*
X-5681681Y-27264068D01*
X-5685871Y-27267112D01*
X-5812533Y-27407784D01*
X-5907179Y-27571716D01*
X-5965674Y-27751744D01*
X-5985460Y-27940000D01*
X-6714540Y-27940000D01*
X-6715082Y-27934843D01*
X-6733783Y-27756901D01*
X-6733784Y-27756891D01*
X-6734326Y-27751744D01*
X-6735927Y-27746816D01*
X-6735928Y-27746812D01*
X-6791219Y-27576646D01*
X-6791219Y-27576644D01*
X-6792821Y-27571716D01*
X-6887467Y-27407784D01*
X-6890933Y-27403933D01*
X-6890938Y-27403928D01*
X-7010659Y-27270965D01*
X-7010662Y-27270961D01*
X-7014129Y-27267112D01*
X-7018313Y-27264071D01*
X-7018321Y-27264065D01*
X-7163079Y-27158893D01*
X-7163085Y-27158889D01*
X-7167270Y-27155849D01*
X-7171997Y-27153744D01*
X-7172003Y-27153741D01*
X-7335459Y-27080965D01*
X-7335463Y-27080963D01*
X-7340197Y-27078856D01*
X-7345266Y-27077778D01*
X-7345268Y-27077778D01*
X-7520279Y-27040578D01*
X-7520285Y-27040577D01*
X-7525354Y-27039500D01*
X-7714646Y-27039500D01*
X-7719715Y-27040577D01*
X-7719720Y-27040578D01*
X-7871306Y-27072799D01*
X-7899803Y-27078856D01*
X-7904539Y-27080964D01*
X-7904540Y-27080965D01*
X-8067996Y-27153741D01*
X-8067997Y-27153742D01*
X-8072730Y-27155849D01*
X-8076918Y-27158892D01*
X-8076920Y-27158893D01*
X-8221678Y-27264065D01*
X-8221681Y-27264068D01*
X-8225871Y-27267112D01*
X-8352533Y-27407784D01*
X-8447179Y-27571716D01*
X-8505674Y-27751744D01*
X-8525460Y-27940000D01*
X-9254540Y-27940000D01*
X-9255082Y-27934843D01*
X-9273783Y-27756901D01*
X-9273784Y-27756891D01*
X-9274326Y-27751744D01*
X-9275927Y-27746816D01*
X-9275928Y-27746812D01*
X-9331219Y-27576646D01*
X-9331219Y-27576644D01*
X-9332821Y-27571716D01*
X-9427467Y-27407784D01*
X-9430933Y-27403933D01*
X-9430938Y-27403928D01*
X-9550659Y-27270965D01*
X-9550662Y-27270961D01*
X-9554129Y-27267112D01*
X-9558313Y-27264071D01*
X-9558321Y-27264065D01*
X-9703079Y-27158893D01*
X-9703085Y-27158889D01*
X-9707270Y-27155849D01*
X-9711997Y-27153744D01*
X-9712003Y-27153741D01*
X-9875459Y-27080965D01*
X-9875463Y-27080963D01*
X-9880197Y-27078856D01*
X-9885266Y-27077778D01*
X-9885268Y-27077778D01*
X-10060279Y-27040578D01*
X-10060285Y-27040577D01*
X-10065354Y-27039500D01*
X-10254646Y-27039500D01*
X-10259715Y-27040577D01*
X-10259720Y-27040578D01*
X-10411306Y-27072799D01*
X-10439803Y-27078856D01*
X-10444539Y-27080964D01*
X-10444540Y-27080965D01*
X-10607996Y-27153741D01*
X-10607997Y-27153742D01*
X-10612730Y-27155849D01*
X-10616918Y-27158892D01*
X-10616920Y-27158893D01*
X-10761678Y-27264065D01*
X-10761681Y-27264068D01*
X-10765871Y-27267112D01*
X-10892533Y-27407784D01*
X-10987179Y-27571716D01*
X-11045674Y-27751744D01*
X-11065460Y-27940000D01*
X-11794540Y-27940000D01*
X-11795082Y-27934843D01*
X-11813783Y-27756901D01*
X-11813784Y-27756891D01*
X-11814326Y-27751744D01*
X-11815927Y-27746816D01*
X-11815928Y-27746812D01*
X-11871219Y-27576646D01*
X-11871219Y-27576644D01*
X-11872821Y-27571716D01*
X-11967467Y-27407784D01*
X-11970933Y-27403933D01*
X-11970938Y-27403928D01*
X-12090659Y-27270965D01*
X-12090662Y-27270961D01*
X-12094129Y-27267112D01*
X-12098313Y-27264071D01*
X-12098321Y-27264065D01*
X-12243079Y-27158893D01*
X-12243085Y-27158889D01*
X-12247270Y-27155849D01*
X-12251997Y-27153744D01*
X-12252003Y-27153741D01*
X-12415459Y-27080965D01*
X-12415463Y-27080963D01*
X-12420197Y-27078856D01*
X-12425266Y-27077778D01*
X-12425268Y-27077778D01*
X-12600279Y-27040578D01*
X-12600285Y-27040577D01*
X-12605354Y-27039500D01*
X-12794646Y-27039500D01*
X-12799715Y-27040577D01*
X-12799720Y-27040578D01*
X-12951306Y-27072799D01*
X-12979803Y-27078856D01*
X-12984539Y-27080964D01*
X-12984540Y-27080965D01*
X-13147996Y-27153741D01*
X-13147997Y-27153742D01*
X-13152730Y-27155849D01*
X-13156918Y-27158892D01*
X-13156920Y-27158893D01*
X-13301678Y-27264065D01*
X-13301681Y-27264068D01*
X-13305871Y-27267112D01*
X-13432533Y-27407784D01*
X-13527179Y-27571716D01*
X-13585674Y-27751744D01*
X-13605460Y-27940000D01*
X-14334540Y-27940000D01*
X-14335082Y-27934843D01*
X-14353783Y-27756901D01*
X-14353784Y-27756891D01*
X-14354326Y-27751744D01*
X-14355927Y-27746816D01*
X-14355928Y-27746812D01*
X-14411219Y-27576646D01*
X-14411219Y-27576644D01*
X-14412821Y-27571716D01*
X-14507467Y-27407784D01*
X-14510933Y-27403933D01*
X-14510938Y-27403928D01*
X-14630659Y-27270965D01*
X-14630662Y-27270961D01*
X-14634129Y-27267112D01*
X-14638313Y-27264071D01*
X-14638321Y-27264065D01*
X-14783079Y-27158893D01*
X-14783085Y-27158889D01*
X-14787270Y-27155849D01*
X-14791997Y-27153744D01*
X-14792003Y-27153741D01*
X-14955459Y-27080965D01*
X-14955463Y-27080963D01*
X-14960197Y-27078856D01*
X-14965266Y-27077778D01*
X-14965268Y-27077778D01*
X-15140279Y-27040578D01*
X-15140285Y-27040577D01*
X-15145354Y-27039500D01*
X-15334646Y-27039500D01*
X-15339715Y-27040577D01*
X-15339720Y-27040578D01*
X-15491306Y-27072799D01*
X-15519803Y-27078856D01*
X-15524539Y-27080964D01*
X-15524540Y-27080965D01*
X-15687996Y-27153741D01*
X-15687997Y-27153742D01*
X-15692730Y-27155849D01*
X-15696918Y-27158892D01*
X-15696920Y-27158893D01*
X-15841678Y-27264065D01*
X-15841681Y-27264068D01*
X-15845871Y-27267112D01*
X-15972533Y-27407784D01*
X-16067179Y-27571716D01*
X-16125674Y-27751744D01*
X-16145460Y-27940000D01*
X-16874540Y-27940000D01*
X-16875082Y-27934843D01*
X-16893783Y-27756901D01*
X-16893784Y-27756891D01*
X-16894326Y-27751744D01*
X-16895927Y-27746816D01*
X-16895928Y-27746812D01*
X-16951219Y-27576646D01*
X-16951219Y-27576644D01*
X-16952821Y-27571716D01*
X-17047467Y-27407784D01*
X-17050933Y-27403933D01*
X-17050938Y-27403928D01*
X-17170659Y-27270965D01*
X-17170662Y-27270961D01*
X-17174129Y-27267112D01*
X-17178313Y-27264071D01*
X-17178321Y-27264065D01*
X-17323079Y-27158893D01*
X-17323085Y-27158889D01*
X-17327270Y-27155849D01*
X-17331997Y-27153744D01*
X-17332003Y-27153741D01*
X-17495459Y-27080965D01*
X-17495463Y-27080963D01*
X-17500197Y-27078856D01*
X-17505266Y-27077778D01*
X-17505268Y-27077778D01*
X-17680279Y-27040578D01*
X-17680285Y-27040577D01*
X-17685354Y-27039500D01*
X-17874646Y-27039500D01*
X-17879715Y-27040577D01*
X-17879720Y-27040578D01*
X-18031306Y-27072799D01*
X-18059803Y-27078856D01*
X-18064539Y-27080964D01*
X-18064540Y-27080965D01*
X-18227996Y-27153741D01*
X-18227997Y-27153742D01*
X-18232730Y-27155849D01*
X-18236918Y-27158892D01*
X-18236920Y-27158893D01*
X-18381678Y-27264065D01*
X-18381681Y-27264068D01*
X-18385871Y-27267112D01*
X-18512533Y-27407784D01*
X-18607179Y-27571716D01*
X-18665674Y-27751744D01*
X-18685460Y-27940000D01*
X-19924500Y-27940000D01*
X-19924500Y-22860000D01*
X-18685460Y-22860000D01*
X-18665674Y-23048256D01*
X-18607179Y-23228284D01*
X-18512533Y-23392216D01*
X-18385871Y-23532888D01*
X-18232730Y-23644151D01*
X-18059803Y-23721144D01*
X-17874646Y-23760500D01*
X-17690543Y-23760500D01*
X-17685354Y-23760500D01*
X-17500197Y-23721144D01*
X-17327270Y-23644151D01*
X-17174129Y-23532888D01*
X-17047467Y-23392216D01*
X-16952821Y-23228284D01*
X-16894326Y-23048256D01*
X-16893784Y-23043106D01*
X-16893783Y-23043098D01*
X-16875082Y-22865157D01*
X-16874540Y-22860000D01*
X-16145460Y-22860000D01*
X-16125674Y-23048256D01*
X-16067179Y-23228284D01*
X-15972533Y-23392216D01*
X-15845871Y-23532888D01*
X-15692730Y-23644151D01*
X-15519803Y-23721144D01*
X-15334646Y-23760500D01*
X-15150543Y-23760500D01*
X-15145354Y-23760500D01*
X-14960197Y-23721144D01*
X-14787270Y-23644151D01*
X-14634129Y-23532888D01*
X-14507467Y-23392216D01*
X-14412821Y-23228284D01*
X-14354326Y-23048256D01*
X-14353784Y-23043106D01*
X-14353783Y-23043098D01*
X-14335082Y-22865157D01*
X-14334540Y-22860000D01*
X-13605460Y-22860000D01*
X-13585674Y-23048256D01*
X-13527179Y-23228284D01*
X-13432533Y-23392216D01*
X-13305871Y-23532888D01*
X-13152730Y-23644151D01*
X-12979803Y-23721144D01*
X-12794646Y-23760500D01*
X-12610543Y-23760500D01*
X-12605354Y-23760500D01*
X-12420197Y-23721144D01*
X-12247270Y-23644151D01*
X-12094129Y-23532888D01*
X-11967467Y-23392216D01*
X-11872821Y-23228284D01*
X-11814326Y-23048256D01*
X-11813784Y-23043106D01*
X-11813783Y-23043098D01*
X-11795082Y-22865157D01*
X-11794540Y-22860000D01*
X-11065460Y-22860000D01*
X-11045674Y-23048256D01*
X-10987179Y-23228284D01*
X-10892533Y-23392216D01*
X-10765871Y-23532888D01*
X-10612730Y-23644151D01*
X-10439803Y-23721144D01*
X-10254646Y-23760500D01*
X-10070543Y-23760500D01*
X-10065354Y-23760500D01*
X-9880197Y-23721144D01*
X-9707270Y-23644151D01*
X-9554129Y-23532888D01*
X-9427467Y-23392216D01*
X-9332821Y-23228284D01*
X-9274326Y-23048256D01*
X-9273784Y-23043106D01*
X-9273783Y-23043098D01*
X-9255082Y-22865157D01*
X-9254540Y-22860000D01*
X-8525460Y-22860000D01*
X-8505674Y-23048256D01*
X-8447179Y-23228284D01*
X-8352533Y-23392216D01*
X-8225871Y-23532888D01*
X-8072730Y-23644151D01*
X-7899803Y-23721144D01*
X-7714646Y-23760500D01*
X-7530543Y-23760500D01*
X-7525354Y-23760500D01*
X-7340197Y-23721144D01*
X-7167270Y-23644151D01*
X-7014129Y-23532888D01*
X-6887467Y-23392216D01*
X-6792821Y-23228284D01*
X-6734326Y-23048256D01*
X-6733784Y-23043106D01*
X-6733783Y-23043098D01*
X-6715082Y-22865157D01*
X-6714540Y-22860000D01*
X-6715082Y-22854843D01*
X-6733783Y-22676901D01*
X-6733784Y-22676891D01*
X-6734326Y-22671744D01*
X-6735928Y-22666812D01*
X-6735929Y-22666808D01*
X-6765051Y-22577178D01*
X-6767161Y-22523474D01*
X-6740900Y-22476582D01*
X-3376703Y-19112385D01*
X108375Y-15627307D01*
X108375Y-15627306D01*
X414882Y-15320798D01*
X430730Y-15307929D01*
X440669Y-15301437D01*
X459454Y-15277299D01*
X462905Y-15273394D01*
X462829Y-15273329D01*
X465469Y-15270210D01*
X468375Y-15267306D01*
X479890Y-15251176D01*
X482253Y-15248007D01*
X512517Y-15209126D01*
X514926Y-15202107D01*
X519240Y-15196066D01*
X533291Y-15148866D01*
X534508Y-15145068D01*
X550500Y-15098488D01*
X550500Y-15091065D01*
X552617Y-15083954D01*
X551484Y-15056575D01*
X566417Y-15000063D01*
X610630Y-14961824D01*
X668708Y-14955193D01*
X720403Y-14982481D01*
X767738Y-15029816D01*
X920478Y-15125789D01*
X1090745Y-15185368D01*
X1270000Y-15205565D01*
X1449255Y-15185368D01*
X1619522Y-15125789D01*
X1772262Y-15029816D01*
X1899816Y-14902262D01*
X1995789Y-14749522D01*
X2055368Y-14579255D01*
X2070500Y-14444954D01*
X2070500Y-13955046D01*
X2055368Y-13820745D01*
X1995789Y-13650478D01*
X1899816Y-13497738D01*
X1772262Y-13370184D01*
X1619522Y-13274211D01*
X1614271Y-13272373D01*
X1614270Y-13272373D01*
X1454503Y-13216468D01*
X1454500Y-13216467D01*
X1449255Y-13214632D01*
X1443738Y-13214010D01*
X1443732Y-13214009D01*
X1275520Y-13195057D01*
X1270000Y-13194435D01*
X1264480Y-13195057D01*
X1096267Y-13214009D01*
X1096259Y-13214010D01*
X1090745Y-13214632D01*
X1085501Y-13216466D01*
X1085496Y-13216468D01*
X925729Y-13272373D01*
X925724Y-13272375D01*
X920478Y-13274211D01*
X915771Y-13277168D01*
X915768Y-13277170D01*
X772446Y-13367225D01*
X772441Y-13367228D01*
X767738Y-13370184D01*
X763811Y-13374110D01*
X763807Y-13374114D01*
X719504Y-13418418D01*
X668814Y-13445512D01*
X611614Y-13439878D01*
X567185Y-13403415D01*
X550500Y-13348414D01*
X550500Y5363213D01*
X560710Y5407000D01*
X589233Y5441755D01*
X623129Y5467764D01*
X628282Y5471718D01*
X724536Y5597159D01*
X785044Y5743238D01*
X805682Y5900000D01*
X785044Y6056762D01*
X724536Y6202841D01*
X628282Y6328282D01*
X502841Y6424536D01*
X356762Y6485044D01*
X200000Y6505682D01*
X43238Y6485044D01*
X-102841Y6424536D01*
X-228282Y6328282D01*
X-324536Y6202841D01*
X-385044Y6056762D01*
X-405682Y5900000D01*
X-385044Y5743238D01*
X-324536Y5597159D01*
X-228282Y5471718D01*
X-223129Y5467764D01*
X-189233Y5441755D01*
X-160710Y5407000D01*
X-150500Y5363213D01*
X-150500Y-14853810D01*
X-158036Y-14891696D01*
X-179496Y-14923814D01*
X-7233077Y-21977395D01*
X-7279970Y-22003656D01*
X-7333674Y-22001545D01*
X-7335464Y-22000963D01*
X-7340197Y-21998856D01*
X-7345258Y-21997780D01*
X-7345265Y-21997778D01*
X-7520279Y-21960578D01*
X-7520285Y-21960577D01*
X-7525354Y-21959500D01*
X-7714646Y-21959500D01*
X-7719715Y-21960577D01*
X-7719720Y-21960578D01*
X-7871306Y-21992799D01*
X-7899803Y-21998856D01*
X-7904539Y-22000964D01*
X-7904540Y-22000965D01*
X-8067996Y-22073741D01*
X-8067997Y-22073742D01*
X-8072730Y-22075849D01*
X-8076918Y-22078892D01*
X-8076920Y-22078893D01*
X-8221678Y-22184065D01*
X-8221681Y-22184068D01*
X-8225871Y-22187112D01*
X-8352533Y-22327784D01*
X-8447179Y-22491716D01*
X-8505674Y-22671744D01*
X-8525460Y-22860000D01*
X-9254540Y-22860000D01*
X-9255082Y-22854843D01*
X-9273783Y-22676901D01*
X-9273784Y-22676891D01*
X-9274326Y-22671744D01*
X-9275927Y-22666816D01*
X-9275928Y-22666812D01*
X-9331219Y-22496646D01*
X-9331219Y-22496644D01*
X-9332821Y-22491716D01*
X-9341559Y-22476582D01*
X-9424874Y-22332275D01*
X-9424874Y-22332274D01*
X-9427467Y-22327784D01*
X-9430933Y-22323933D01*
X-9430938Y-22323928D01*
X-9550659Y-22190965D01*
X-9550662Y-22190961D01*
X-9554129Y-22187112D01*
X-9558313Y-22184071D01*
X-9558321Y-22184065D01*
X-9703079Y-22078893D01*
X-9703085Y-22078889D01*
X-9707270Y-22075849D01*
X-9711997Y-22073744D01*
X-9712003Y-22073741D01*
X-9875459Y-22000965D01*
X-9875463Y-22000963D01*
X-9880197Y-21998856D01*
X-9885266Y-21997778D01*
X-9885268Y-21997778D01*
X-10060279Y-21960578D01*
X-10060285Y-21960577D01*
X-10065354Y-21959500D01*
X-10254646Y-21959500D01*
X-10259715Y-21960577D01*
X-10259720Y-21960578D01*
X-10411306Y-21992799D01*
X-10439803Y-21998856D01*
X-10444539Y-22000964D01*
X-10444540Y-22000965D01*
X-10607996Y-22073741D01*
X-10607997Y-22073742D01*
X-10612730Y-22075849D01*
X-10616918Y-22078892D01*
X-10616920Y-22078893D01*
X-10761678Y-22184065D01*
X-10761681Y-22184068D01*
X-10765871Y-22187112D01*
X-10892533Y-22327784D01*
X-10987179Y-22491716D01*
X-11045674Y-22671744D01*
X-11065460Y-22860000D01*
X-11794540Y-22860000D01*
X-11795082Y-22854843D01*
X-11813783Y-22676901D01*
X-11813784Y-22676891D01*
X-11814326Y-22671744D01*
X-11815927Y-22666816D01*
X-11815928Y-22666812D01*
X-11871219Y-22496646D01*
X-11871219Y-22496644D01*
X-11872821Y-22491716D01*
X-11881559Y-22476582D01*
X-11964874Y-22332275D01*
X-11964874Y-22332274D01*
X-11967467Y-22327784D01*
X-11970933Y-22323933D01*
X-11970938Y-22323928D01*
X-12090659Y-22190965D01*
X-12090662Y-22190961D01*
X-12094129Y-22187112D01*
X-12098313Y-22184071D01*
X-12098321Y-22184065D01*
X-12243079Y-22078893D01*
X-12243085Y-22078889D01*
X-12247270Y-22075849D01*
X-12251997Y-22073744D01*
X-12252003Y-22073741D01*
X-12415459Y-22000965D01*
X-12415463Y-22000963D01*
X-12420197Y-21998856D01*
X-12425266Y-21997778D01*
X-12425268Y-21997778D01*
X-12600279Y-21960578D01*
X-12600285Y-21960577D01*
X-12605354Y-21959500D01*
X-12794646Y-21959500D01*
X-12799715Y-21960577D01*
X-12799720Y-21960578D01*
X-12951306Y-21992799D01*
X-12979803Y-21998856D01*
X-12984539Y-22000964D01*
X-12984540Y-22000965D01*
X-13147996Y-22073741D01*
X-13147997Y-22073742D01*
X-13152730Y-22075849D01*
X-13156918Y-22078892D01*
X-13156920Y-22078893D01*
X-13301678Y-22184065D01*
X-13301681Y-22184068D01*
X-13305871Y-22187112D01*
X-13432533Y-22327784D01*
X-13527179Y-22491716D01*
X-13585674Y-22671744D01*
X-13605460Y-22860000D01*
X-14334540Y-22860000D01*
X-14335082Y-22854843D01*
X-14353783Y-22676901D01*
X-14353784Y-22676891D01*
X-14354326Y-22671744D01*
X-14355927Y-22666816D01*
X-14355928Y-22666812D01*
X-14411219Y-22496646D01*
X-14411219Y-22496644D01*
X-14412821Y-22491716D01*
X-14421559Y-22476582D01*
X-14504874Y-22332275D01*
X-14504874Y-22332274D01*
X-14507467Y-22327784D01*
X-14510933Y-22323933D01*
X-14510938Y-22323928D01*
X-14630659Y-22190965D01*
X-14630662Y-22190961D01*
X-14634129Y-22187112D01*
X-14638313Y-22184071D01*
X-14638321Y-22184065D01*
X-14783079Y-22078893D01*
X-14783085Y-22078889D01*
X-14787270Y-22075849D01*
X-14791997Y-22073744D01*
X-14792003Y-22073741D01*
X-14821455Y-22060628D01*
X-14830767Y-22056482D01*
X-14873528Y-22019961D01*
X-14889500Y-21966042D01*
X-14889500Y-19544622D01*
X-7450304Y-19544622D01*
X-7429666Y-19701384D01*
X-7369158Y-19847463D01*
X-7272904Y-19972904D01*
X-7147463Y-20069158D01*
X-7001384Y-20129666D01*
X-6844622Y-20150304D01*
X-6687860Y-20129666D01*
X-6541781Y-20069158D01*
X-6416340Y-19972904D01*
X-6320086Y-19847463D01*
X-6259578Y-19701384D01*
X-6258731Y-19694953D01*
X-6258730Y-19694948D01*
X-6239787Y-19551056D01*
X-6238940Y-19544622D01*
X-6245364Y-19495822D01*
X-6240957Y-19451078D01*
X-6217215Y-19412897D01*
X-3183814Y-16379496D01*
X-3151696Y-16358036D01*
X-3113810Y-16350500D01*
X-2916620Y-16350500D01*
X-2896304Y-16352607D01*
X-2892712Y-16353360D01*
X-2892711Y-16353360D01*
X-2884685Y-16355043D01*
X-2854337Y-16351259D01*
X-2849125Y-16350936D01*
X-2849134Y-16350838D01*
X-2845056Y-16350500D01*
X-2840960Y-16350500D01*
X-2821481Y-16347249D01*
X-2817429Y-16346659D01*
X-2811869Y-16345965D01*
X-2768607Y-16340573D01*
X-2761939Y-16337313D01*
X-2754619Y-16336092D01*
X-2711359Y-16312680D01*
X-2707730Y-16310812D01*
X-2670884Y-16292800D01*
X-2670883Y-16292799D01*
X-2663516Y-16289198D01*
X-2658267Y-16283949D01*
X-2651742Y-16280418D01*
X-2646185Y-16274382D01*
X-2646184Y-16274381D01*
X-2618444Y-16244247D01*
X-2615612Y-16241294D01*
X-1575046Y-15200728D01*
X-1527069Y-15174214D01*
X-1472342Y-15177288D01*
X-1449255Y-15185368D01*
X-1270000Y-15205565D01*
X-1090745Y-15185368D01*
X-920478Y-15125789D01*
X-767738Y-15029816D01*
X-640184Y-14902262D01*
X-635506Y-14894818D01*
X-547170Y-14754231D01*
X-544211Y-14749522D01*
X-542373Y-14744270D01*
X-486468Y-14584503D01*
X-486467Y-14584499D01*
X-484632Y-14579255D01*
X-484010Y-14573738D01*
X-484009Y-14573732D01*
X-469809Y-14447699D01*
X-469808Y-14447693D01*
X-469500Y-14444954D01*
X-469500Y-13955046D01*
X-469809Y-13952300D01*
X-484009Y-13826267D01*
X-484010Y-13826259D01*
X-484632Y-13820745D01*
X-486466Y-13815501D01*
X-486468Y-13815496D01*
X-542373Y-13655729D01*
X-542375Y-13655724D01*
X-544211Y-13650478D01*
X-590674Y-13576532D01*
X-637225Y-13502446D01*
X-637228Y-13502441D01*
X-640184Y-13497738D01*
X-644110Y-13493811D01*
X-644114Y-13493807D01*
X-763807Y-13374114D01*
X-763811Y-13374110D01*
X-767738Y-13370184D01*
X-772441Y-13367228D01*
X-772446Y-13367225D01*
X-915768Y-13277170D01*
X-915771Y-13277168D01*
X-920478Y-13274211D01*
X-925724Y-13272375D01*
X-925729Y-13272373D01*
X-1085496Y-13216468D01*
X-1085501Y-13216466D01*
X-1090745Y-13214632D01*
X-1096259Y-13214010D01*
X-1096267Y-13214009D01*
X-1264480Y-13195057D01*
X-1270000Y-13194435D01*
X-1275520Y-13195057D01*
X-1443732Y-13214009D01*
X-1443738Y-13214010D01*
X-1449255Y-13214632D01*
X-1454500Y-13216467D01*
X-1454503Y-13216468D01*
X-1614270Y-13272373D01*
X-1614271Y-13272373D01*
X-1619522Y-13274211D01*
X-1772262Y-13370184D01*
X-1899816Y-13497738D01*
X-1995789Y-13650478D01*
X-2055368Y-13820745D01*
X-2070500Y-13955046D01*
X-2070500Y-14444954D01*
X-2055368Y-14579255D01*
X-2047287Y-14602345D01*
X-2044214Y-14657072D01*
X-2070727Y-14705046D01*
X-2534947Y-15169265D01*
X-2986186Y-15620504D01*
X-3018304Y-15641964D01*
X-3056190Y-15649500D01*
X-3253379Y-15649500D01*
X-3273695Y-15647393D01*
X-3277286Y-15646639D01*
X-3277293Y-15646638D01*
X-3285314Y-15644957D01*
X-3293448Y-15645971D01*
X-3293450Y-15645971D01*
X-3315661Y-15648740D01*
X-3320874Y-15649063D01*
X-3320866Y-15649162D01*
X-3324949Y-15649500D01*
X-3329040Y-15649500D01*
X-3333068Y-15650172D01*
X-3333078Y-15650173D01*
X-3348522Y-15652750D01*
X-3352562Y-15653338D01*
X-3393252Y-15658411D01*
X-3393259Y-15658413D01*
X-3401392Y-15659427D01*
X-3408058Y-15662686D01*
X-3415381Y-15663908D01*
X-3422595Y-15667812D01*
X-3458636Y-15687316D01*
X-3462272Y-15689188D01*
X-3506483Y-15710801D01*
X-3511732Y-15716050D01*
X-3518258Y-15719582D01*
X-3551566Y-15755764D01*
X-3554399Y-15758717D01*
X-6712897Y-18917215D01*
X-6751078Y-18940957D01*
X-6795822Y-18945364D01*
X-6844622Y-18938940D01*
X-6851056Y-18939787D01*
X-6994948Y-18958730D01*
X-6994953Y-18958731D01*
X-7001384Y-18959578D01*
X-7007380Y-18962061D01*
X-7007381Y-18962062D01*
X-7141467Y-19017602D01*
X-7141469Y-19017603D01*
X-7147463Y-19020086D01*
X-7272904Y-19116340D01*
X-7369158Y-19241781D01*
X-7429666Y-19387860D01*
X-7450304Y-19544622D01*
X-14889500Y-19544622D01*
X-14889500Y-14444954D01*
X-9690500Y-14444954D01*
X-9675368Y-14579255D01*
X-9615789Y-14749522D01*
X-9519816Y-14902262D01*
X-9392262Y-15029816D01*
X-9239522Y-15125789D01*
X-9069255Y-15185368D01*
X-8890000Y-15205565D01*
X-8710745Y-15185368D01*
X-8540478Y-15125789D01*
X-8387738Y-15029816D01*
X-8260184Y-14902262D01*
X-8255506Y-14894818D01*
X-8167170Y-14754231D01*
X-8164211Y-14749522D01*
X-8162373Y-14744270D01*
X-8106468Y-14584503D01*
X-8106467Y-14584499D01*
X-8104632Y-14579255D01*
X-8104010Y-14573738D01*
X-8104009Y-14573732D01*
X-8089809Y-14447699D01*
X-8089808Y-14447693D01*
X-8089500Y-14444954D01*
X-7150500Y-14444954D01*
X-7135368Y-14579255D01*
X-7075789Y-14749522D01*
X-6979816Y-14902262D01*
X-6852262Y-15029816D01*
X-6699522Y-15125789D01*
X-6529255Y-15185368D01*
X-6350000Y-15205565D01*
X-6170745Y-15185368D01*
X-6000478Y-15125789D01*
X-5847738Y-15029816D01*
X-5720184Y-14902262D01*
X-5715506Y-14894818D01*
X-5627170Y-14754231D01*
X-5624211Y-14749522D01*
X-5622373Y-14744270D01*
X-5566468Y-14584503D01*
X-5566467Y-14584499D01*
X-5564632Y-14579255D01*
X-5564010Y-14573738D01*
X-5564009Y-14573732D01*
X-5549809Y-14447699D01*
X-5549808Y-14447693D01*
X-5549500Y-14444954D01*
X-4610500Y-14444954D01*
X-4595368Y-14579255D01*
X-4535789Y-14749522D01*
X-4439816Y-14902262D01*
X-4312262Y-15029816D01*
X-4159522Y-15125789D01*
X-3989255Y-15185368D01*
X-3810000Y-15205565D01*
X-3630745Y-15185368D01*
X-3460478Y-15125789D01*
X-3307738Y-15029816D01*
X-3180184Y-14902262D01*
X-3175506Y-14894818D01*
X-3087170Y-14754231D01*
X-3084211Y-14749522D01*
X-3082373Y-14744270D01*
X-3026468Y-14584503D01*
X-3026467Y-14584499D01*
X-3024632Y-14579255D01*
X-3024010Y-14573738D01*
X-3024009Y-14573732D01*
X-3009809Y-14447699D01*
X-3009808Y-14447693D01*
X-3009500Y-14444954D01*
X-3009500Y-13955046D01*
X-3009809Y-13952300D01*
X-3024009Y-13826267D01*
X-3024010Y-13826259D01*
X-3024632Y-13820745D01*
X-3026466Y-13815501D01*
X-3026468Y-13815496D01*
X-3082373Y-13655729D01*
X-3082375Y-13655724D01*
X-3084211Y-13650478D01*
X-3130674Y-13576532D01*
X-3177225Y-13502446D01*
X-3177228Y-13502441D01*
X-3180184Y-13497738D01*
X-3184110Y-13493811D01*
X-3184114Y-13493807D01*
X-3303807Y-13374114D01*
X-3303811Y-13374110D01*
X-3307738Y-13370184D01*
X-3312441Y-13367228D01*
X-3312446Y-13367225D01*
X-3455768Y-13277170D01*
X-3455771Y-13277168D01*
X-3460478Y-13274211D01*
X-3465724Y-13272375D01*
X-3465729Y-13272373D01*
X-3625496Y-13216468D01*
X-3625501Y-13216466D01*
X-3630745Y-13214632D01*
X-3636259Y-13214010D01*
X-3636267Y-13214009D01*
X-3804480Y-13195057D01*
X-3810000Y-13194435D01*
X-3815520Y-13195057D01*
X-3983732Y-13214009D01*
X-3983738Y-13214010D01*
X-3989255Y-13214632D01*
X-3994500Y-13216467D01*
X-3994503Y-13216468D01*
X-4154270Y-13272373D01*
X-4154271Y-13272373D01*
X-4159522Y-13274211D01*
X-4312262Y-13370184D01*
X-4439816Y-13497738D01*
X-4535789Y-13650478D01*
X-4595368Y-13820745D01*
X-4610500Y-13955046D01*
X-4610500Y-14444954D01*
X-5549500Y-14444954D01*
X-5549500Y-13955046D01*
X-5549809Y-13952300D01*
X-5564009Y-13826267D01*
X-5564010Y-13826259D01*
X-5564632Y-13820745D01*
X-5566466Y-13815501D01*
X-5566468Y-13815496D01*
X-5622373Y-13655729D01*
X-5622375Y-13655724D01*
X-5624211Y-13650478D01*
X-5670674Y-13576532D01*
X-5717225Y-13502446D01*
X-5717228Y-13502441D01*
X-5720184Y-13497738D01*
X-5724110Y-13493811D01*
X-5724114Y-13493807D01*
X-5843807Y-13374114D01*
X-5843811Y-13374110D01*
X-5847738Y-13370184D01*
X-5852441Y-13367228D01*
X-5852446Y-13367225D01*
X-5995768Y-13277170D01*
X-5995771Y-13277168D01*
X-6000478Y-13274211D01*
X-6005724Y-13272375D01*
X-6005729Y-13272373D01*
X-6165496Y-13216468D01*
X-6165501Y-13216466D01*
X-6170745Y-13214632D01*
X-6176259Y-13214010D01*
X-6176267Y-13214009D01*
X-6344480Y-13195057D01*
X-6350000Y-13194435D01*
X-6355520Y-13195057D01*
X-6523732Y-13214009D01*
X-6523738Y-13214010D01*
X-6529255Y-13214632D01*
X-6534500Y-13216467D01*
X-6534503Y-13216468D01*
X-6694270Y-13272373D01*
X-6694271Y-13272373D01*
X-6699522Y-13274211D01*
X-6852262Y-13370184D01*
X-6979816Y-13497738D01*
X-7075789Y-13650478D01*
X-7135368Y-13820745D01*
X-7150500Y-13955046D01*
X-7150500Y-14444954D01*
X-8089500Y-14444954D01*
X-8089500Y-13955046D01*
X-8089809Y-13952300D01*
X-8104009Y-13826267D01*
X-8104010Y-13826259D01*
X-8104632Y-13820745D01*
X-8106466Y-13815501D01*
X-8106468Y-13815496D01*
X-8162373Y-13655729D01*
X-8162375Y-13655724D01*
X-8164211Y-13650478D01*
X-8210674Y-13576532D01*
X-8257225Y-13502446D01*
X-8257228Y-13502441D01*
X-8260184Y-13497738D01*
X-8264110Y-13493811D01*
X-8264114Y-13493807D01*
X-8383807Y-13374114D01*
X-8383811Y-13374110D01*
X-8387738Y-13370184D01*
X-8392441Y-13367228D01*
X-8392446Y-13367225D01*
X-8535768Y-13277170D01*
X-8535771Y-13277168D01*
X-8540478Y-13274211D01*
X-8545724Y-13272375D01*
X-8545729Y-13272373D01*
X-8705496Y-13216468D01*
X-8705501Y-13216466D01*
X-8710745Y-13214632D01*
X-8716259Y-13214010D01*
X-8716267Y-13214009D01*
X-8884480Y-13195057D01*
X-8890000Y-13194435D01*
X-8895520Y-13195057D01*
X-9063732Y-13214009D01*
X-9063738Y-13214010D01*
X-9069255Y-13214632D01*
X-9074500Y-13216467D01*
X-9074503Y-13216468D01*
X-9234270Y-13272373D01*
X-9234271Y-13272373D01*
X-9239522Y-13274211D01*
X-9392262Y-13370184D01*
X-9519816Y-13497738D01*
X-9615789Y-13650478D01*
X-9675368Y-13820745D01*
X-9690500Y-13955046D01*
X-9690500Y-14444954D01*
X-14889500Y-14444954D01*
X-14889500Y-13367480D01*
X-14879290Y-13323693D01*
X-14850767Y-13288938D01*
X-14835430Y-13277170D01*
X-14771718Y-13228282D01*
X-14756146Y-13207989D01*
X-14679414Y-13107989D01*
X-14679413Y-13107988D01*
X-14675464Y-13102841D01*
X-14653711Y-13050326D01*
X-14617440Y-12962759D01*
X-14617439Y-12962758D01*
X-14614956Y-12956762D01*
X-14614109Y-12950331D01*
X-14614108Y-12950326D01*
X-14595165Y-12806434D01*
X-14594318Y-12800000D01*
X-14595165Y-12793566D01*
X-14614108Y-12649673D01*
X-14614109Y-12649666D01*
X-14614956Y-12643238D01*
X-14631559Y-12603154D01*
X-14672980Y-12503154D01*
X-14672982Y-12503149D01*
X-14675464Y-12497159D01*
X-14679411Y-12492015D01*
X-14679414Y-12492010D01*
X-14767763Y-12376871D01*
X-14767767Y-12376866D01*
X-14771718Y-12371718D01*
X-14776866Y-12367767D01*
X-14776871Y-12367763D01*
X-14892010Y-12279414D01*
X-14892015Y-12279411D01*
X-14897159Y-12275464D01*
X-14903149Y-12272982D01*
X-14903154Y-12272980D01*
X-15037240Y-12217440D01*
X-15037243Y-12217439D01*
X-15043238Y-12214956D01*
X-15049666Y-12214109D01*
X-15049673Y-12214108D01*
X-15193566Y-12195165D01*
X-15200000Y-12194318D01*
X-15206434Y-12195165D01*
X-15350326Y-12214108D01*
X-15350331Y-12214109D01*
X-15356762Y-12214956D01*
X-15362758Y-12217439D01*
X-15362759Y-12217440D01*
X-15496845Y-12272980D01*
X-15496847Y-12272981D01*
X-15502841Y-12275464D01*
X-15507988Y-12279413D01*
X-15507989Y-12279414D01*
X-15622038Y-12366927D01*
X-15628282Y-12371718D01*
X-15724536Y-12497159D01*
X-15785044Y-12643238D01*
X-15805682Y-12800000D01*
X-15785044Y-12956762D01*
X-15724536Y-13102841D01*
X-15628282Y-13228282D01*
X-15623129Y-13232236D01*
X-15619496Y-13235869D01*
X-15598036Y-13267987D01*
X-15590500Y-13305873D01*
X-15590500Y-21966042D01*
X-15606472Y-22019961D01*
X-15649232Y-22056482D01*
X-15666794Y-22064301D01*
X-15687996Y-22073741D01*
X-15687998Y-22073742D01*
X-15692730Y-22075849D01*
X-15696918Y-22078892D01*
X-15696920Y-22078893D01*
X-15841678Y-22184065D01*
X-15841681Y-22184068D01*
X-15845871Y-22187112D01*
X-15972533Y-22327784D01*
X-16067179Y-22491716D01*
X-16125674Y-22671744D01*
X-16145460Y-22860000D01*
X-16874540Y-22860000D01*
X-16875082Y-22854843D01*
X-16893783Y-22676901D01*
X-16893784Y-22676891D01*
X-16894326Y-22671744D01*
X-16895927Y-22666816D01*
X-16895928Y-22666812D01*
X-16951219Y-22496646D01*
X-16951219Y-22496644D01*
X-16952821Y-22491716D01*
X-16961559Y-22476582D01*
X-17044874Y-22332275D01*
X-17044874Y-22332274D01*
X-17047467Y-22327784D01*
X-17050933Y-22323933D01*
X-17050938Y-22323928D01*
X-17170659Y-22190965D01*
X-17170662Y-22190961D01*
X-17174129Y-22187112D01*
X-17178313Y-22184071D01*
X-17178321Y-22184065D01*
X-17323079Y-22078893D01*
X-17323085Y-22078889D01*
X-17327270Y-22075849D01*
X-17331997Y-22073744D01*
X-17332003Y-22073741D01*
X-17495459Y-22000965D01*
X-17495463Y-22000963D01*
X-17500197Y-21998856D01*
X-17505266Y-21997778D01*
X-17505268Y-21997778D01*
X-17680279Y-21960578D01*
X-17680285Y-21960577D01*
X-17685354Y-21959500D01*
X-17874646Y-21959500D01*
X-17879715Y-21960577D01*
X-17879720Y-21960578D01*
X-18031306Y-21992799D01*
X-18059803Y-21998856D01*
X-18064539Y-22000964D01*
X-18064540Y-22000965D01*
X-18227996Y-22073741D01*
X-18227997Y-22073742D01*
X-18232730Y-22075849D01*
X-18236918Y-22078892D01*
X-18236920Y-22078893D01*
X-18381678Y-22184065D01*
X-18381681Y-22184068D01*
X-18385871Y-22187112D01*
X-18512533Y-22327784D01*
X-18607179Y-22491716D01*
X-18665674Y-22671744D01*
X-18685460Y-22860000D01*
X-19924500Y-22860000D01*
X-19924500Y-11200000D01*
X-13605682Y-11200000D01*
X-13585044Y-11356762D01*
X-13524536Y-11502841D01*
X-13428282Y-11628282D01*
X-13302841Y-11724536D01*
X-13156762Y-11785044D01*
X-13048803Y-11799257D01*
X-13015329Y-11803664D01*
X-13000000Y-11805682D01*
X-12951198Y-11799257D01*
X-12906456Y-11803664D01*
X-12868276Y-11827404D01*
X-12287795Y-12407885D01*
X-12263383Y-12448117D01*
X-12260305Y-12495079D01*
X-12279258Y-12538152D01*
X-12324536Y-12597159D01*
X-12385044Y-12743238D01*
X-12405682Y-12900000D01*
X-12385044Y-13056762D01*
X-12324536Y-13202841D01*
X-12228282Y-13328282D01*
X-12102841Y-13424536D01*
X-11956762Y-13485044D01*
X-11800000Y-13505682D01*
X-11643238Y-13485044D01*
X-11497159Y-13424536D01*
X-11371718Y-13328282D01*
X-11328817Y-13272373D01*
X-11279414Y-13207989D01*
X-11279413Y-13207988D01*
X-11275464Y-13202841D01*
X-11272239Y-13195057D01*
X-11217440Y-13062759D01*
X-11217439Y-13062758D01*
X-11214956Y-13056762D01*
X-11214109Y-13050331D01*
X-11214108Y-13050326D01*
X-11195165Y-12906434D01*
X-11194318Y-12900000D01*
X-11208330Y-12793566D01*
X-11214108Y-12749673D01*
X-11214109Y-12749666D01*
X-11214956Y-12743238D01*
X-11217440Y-12737240D01*
X-11272980Y-12603154D01*
X-11272982Y-12603149D01*
X-11275464Y-12597159D01*
X-11279411Y-12592015D01*
X-11279414Y-12592010D01*
X-11367768Y-12476865D01*
X-11367770Y-12476862D01*
X-11371718Y-12471718D01*
X-11376858Y-12467773D01*
X-11376865Y-12467767D01*
X-11411454Y-12441226D01*
X-11438089Y-12410106D01*
X-11449500Y-12372024D01*
X-11449500Y-12370960D01*
X-11450171Y-12366937D01*
X-11450172Y-12366927D01*
X-11452750Y-12351477D01*
X-11453338Y-12347437D01*
X-11458410Y-12306748D01*
X-11458413Y-12306735D01*
X-11459427Y-12298607D01*
X-11462686Y-12291939D01*
X-11463908Y-12284619D01*
X-11470207Y-12272980D01*
X-11487318Y-12241360D01*
X-11489189Y-12237724D01*
X-11507197Y-12200887D01*
X-11507201Y-12200880D01*
X-11510802Y-12193516D01*
X-11516050Y-12188267D01*
X-11519582Y-12181742D01*
X-11525612Y-12176189D01*
X-11525616Y-12176186D01*
X-11555764Y-12148432D01*
X-11558715Y-12145601D01*
X-11804316Y-11900000D01*
X-10905682Y-11900000D01*
X-10885044Y-12056762D01*
X-10824536Y-12202841D01*
X-10728282Y-12328282D01*
X-10602841Y-12424536D01*
X-10456762Y-12485044D01*
X-10300000Y-12505682D01*
X-10143238Y-12485044D01*
X-9997159Y-12424536D01*
X-9871718Y-12328282D01*
X-9848947Y-12298607D01*
X-9779414Y-12207989D01*
X-9779413Y-12207988D01*
X-9775464Y-12202841D01*
X-9771933Y-12194318D01*
X-9717440Y-12062759D01*
X-9717439Y-12062758D01*
X-9714956Y-12056762D01*
X-9714109Y-12050331D01*
X-9714108Y-12050326D01*
X-9695165Y-11906434D01*
X-9694318Y-11900000D01*
X-9706735Y-11805682D01*
X-9714108Y-11749673D01*
X-9714109Y-11749666D01*
X-9714956Y-11743238D01*
X-9721674Y-11727019D01*
X-9772980Y-11603154D01*
X-9772982Y-11603149D01*
X-9775464Y-11597159D01*
X-9779411Y-11592015D01*
X-9779414Y-11592010D01*
X-9867763Y-11476871D01*
X-9867767Y-11476866D01*
X-9871718Y-11471718D01*
X-9876866Y-11467767D01*
X-9876870Y-11467764D01*
X-9910767Y-11441755D01*
X-9939290Y-11407000D01*
X-9949500Y-11363213D01*
X-9949500Y11513810D01*
X-9941964Y11551696D01*
X-9920504Y11583814D01*
X-8675117Y12829199D01*
X-8659267Y12842070D01*
X-8656199Y12844074D01*
X-8656192Y12844079D01*
X-8649331Y12848563D01*
X-8630546Y12872697D01*
X-8627088Y12876614D01*
X-8627162Y12876677D01*
X-8624512Y12879804D01*
X-8621625Y12882693D01*
X-8619256Y12886009D01*
X-8619249Y12886019D01*
X-8610133Y12898787D01*
X-8607691Y12902061D01*
X-8582520Y12934401D01*
X-8582517Y12934405D01*
X-8577483Y12940874D01*
X-8575073Y12947892D01*
X-8570760Y12953934D01*
X-8556717Y13001097D01*
X-8555471Y13004989D01*
X-8542162Y13043757D01*
X-8542161Y13043757D01*
X-8539500Y13051512D01*
X-8539500Y13058935D01*
X-8537383Y13066046D01*
X-8539415Y13115176D01*
X-8539500Y13119267D01*
X-8539500Y13220110D01*
X-8527147Y13267998D01*
X-8493171Y13303936D01*
X-8392446Y13367225D01*
X-8392441Y13367228D01*
X-8387738Y13370184D01*
X-8383811Y13374110D01*
X-8383807Y13374114D01*
X-8264114Y13493807D01*
X-8264110Y13493811D01*
X-8260184Y13497738D01*
X-8257228Y13502441D01*
X-8257225Y13502446D01*
X-8167170Y13645768D01*
X-8167168Y13645771D01*
X-8164211Y13650478D01*
X-8162375Y13655724D01*
X-8162373Y13655729D01*
X-8106468Y13815496D01*
X-8106466Y13815501D01*
X-8104632Y13820745D01*
X-8104010Y13826259D01*
X-8104009Y13826267D01*
X-8089809Y13952300D01*
X-8089808Y13952307D01*
X-8089500Y13955046D01*
X-7150500Y13955046D01*
X-7135368Y13820745D01*
X-7075789Y13650478D01*
X-6979816Y13497738D01*
X-6852262Y13370184D01*
X-6699522Y13274211D01*
X-6694271Y13272373D01*
X-6694270Y13272373D01*
X-6534503Y13216468D01*
X-6534500Y13216467D01*
X-6529255Y13214632D01*
X-6523738Y13214010D01*
X-6523732Y13214009D01*
X-6355520Y13195057D01*
X-6350000Y13194435D01*
X-6344480Y13195057D01*
X-6176267Y13214009D01*
X-6176259Y13214010D01*
X-6170745Y13214632D01*
X-6165501Y13216466D01*
X-6165496Y13216468D01*
X-6000478Y13274211D01*
X-5999646Y13271833D01*
X-5950302Y13278798D01*
X-5896883Y13251201D01*
X4330024Y3024294D01*
X4351484Y2992176D01*
X4359020Y2954290D01*
X4359020Y-13220437D01*
X4345290Y-13270737D01*
X4307908Y-13307084D01*
X4257243Y-13319398D01*
X4207348Y-13304262D01*
X4164233Y-13277171D01*
X4164232Y-13277170D01*
X4159522Y-13274211D01*
X4154271Y-13272373D01*
X4154270Y-13272373D01*
X3994503Y-13216468D01*
X3994500Y-13216467D01*
X3989255Y-13214632D01*
X3983738Y-13214010D01*
X3983732Y-13214009D01*
X3815520Y-13195057D01*
X3810000Y-13194435D01*
X3804480Y-13195057D01*
X3636267Y-13214009D01*
X3636259Y-13214010D01*
X3630745Y-13214632D01*
X3625501Y-13216466D01*
X3625496Y-13216468D01*
X3465729Y-13272373D01*
X3465724Y-13272375D01*
X3460478Y-13274211D01*
X3455771Y-13277168D01*
X3455768Y-13277170D01*
X3312446Y-13367225D01*
X3312441Y-13367228D01*
X3307738Y-13370184D01*
X3303811Y-13374110D01*
X3303807Y-13374114D01*
X3184114Y-13493807D01*
X3184110Y-13493811D01*
X3180184Y-13497738D01*
X3177228Y-13502441D01*
X3177225Y-13502446D01*
X3130674Y-13576532D01*
X3084211Y-13650478D01*
X3082375Y-13655724D01*
X3082373Y-13655729D01*
X3026468Y-13815496D01*
X3026466Y-13815501D01*
X3024632Y-13820745D01*
X3024010Y-13826259D01*
X3024009Y-13826267D01*
X3009809Y-13952300D01*
X3009500Y-13955046D01*
X3009500Y-14444954D01*
X3009808Y-14447693D01*
X3009809Y-14447699D01*
X3024009Y-14573732D01*
X3024010Y-14573738D01*
X3024632Y-14579255D01*
X3026467Y-14584499D01*
X3026468Y-14584503D01*
X3082373Y-14744270D01*
X3084211Y-14749522D01*
X3087170Y-14754231D01*
X3175506Y-14894818D01*
X3180184Y-14902262D01*
X3307738Y-15029816D01*
X3312446Y-15032774D01*
X3413171Y-15096064D01*
X3447147Y-15132002D01*
X3459500Y-15179890D01*
X3459500Y-15803810D01*
X3451964Y-15841696D01*
X3430504Y-15873814D01*
X2783814Y-16520504D01*
X2751696Y-16541964D01*
X2713810Y-16549500D01*
X926620Y-16549500D01*
X906304Y-16547393D01*
X902712Y-16546639D01*
X902705Y-16546638D01*
X894685Y-16544957D01*
X886550Y-16545971D01*
X886548Y-16545971D01*
X864338Y-16548740D01*
X859127Y-16549063D01*
X859136Y-16549162D01*
X855054Y-16549500D01*
X850960Y-16549500D01*
X846924Y-16550173D01*
X846915Y-16550174D01*
X831468Y-16552751D01*
X827432Y-16553339D01*
X786743Y-16558412D01*
X786739Y-16558413D01*
X778607Y-16559427D01*
X771939Y-16562686D01*
X764619Y-16563908D01*
X757409Y-16567809D01*
X757408Y-16567810D01*
X721360Y-16587318D01*
X717724Y-16589189D01*
X680887Y-16607197D01*
X680880Y-16607201D01*
X673516Y-16610802D01*
X668267Y-16616050D01*
X661742Y-16619582D01*
X656189Y-16625612D01*
X656186Y-16625616D01*
X628432Y-16655764D01*
X625601Y-16658715D01*
X-4693077Y-21977395D01*
X-4739970Y-22003656D01*
X-4793674Y-22001545D01*
X-4795464Y-22000963D01*
X-4800197Y-21998856D01*
X-4805258Y-21997780D01*
X-4805265Y-21997778D01*
X-4980279Y-21960578D01*
X-4980285Y-21960577D01*
X-4985354Y-21959500D01*
X-5174646Y-21959500D01*
X-5179715Y-21960577D01*
X-5179720Y-21960578D01*
X-5331306Y-21992799D01*
X-5359803Y-21998856D01*
X-5364539Y-22000964D01*
X-5364540Y-22000965D01*
X-5527996Y-22073741D01*
X-5527997Y-22073742D01*
X-5532730Y-22075849D01*
X-5536918Y-22078892D01*
X-5536920Y-22078893D01*
X-5681678Y-22184065D01*
X-5681681Y-22184068D01*
X-5685871Y-22187112D01*
X-5812533Y-22327784D01*
X-5907179Y-22491716D01*
X-5965674Y-22671744D01*
X-5985460Y-22860000D01*
X-5965674Y-23048256D01*
X-5907179Y-23228284D01*
X-5812533Y-23392216D01*
X-5685871Y-23532888D01*
X-5532730Y-23644151D01*
X-5359803Y-23721144D01*
X-5174646Y-23760500D01*
X-4990543Y-23760500D01*
X-4985354Y-23760500D01*
X-4800197Y-23721144D01*
X-4627270Y-23644151D01*
X-4474129Y-23532888D01*
X-4347467Y-23392216D01*
X-4252821Y-23228284D01*
X-4194326Y-23048256D01*
X-4193784Y-23043106D01*
X-4193783Y-23043098D01*
X-4175082Y-22865157D01*
X-4174540Y-22860000D01*
X-3445460Y-22860000D01*
X-3425674Y-23048256D01*
X-3367179Y-23228284D01*
X-3272533Y-23392216D01*
X-3145871Y-23532888D01*
X-2992730Y-23644151D01*
X-2819803Y-23721144D01*
X-2634646Y-23760500D01*
X-2450543Y-23760500D01*
X-2445354Y-23760500D01*
X-2260197Y-23721144D01*
X-2087270Y-23644151D01*
X-1934129Y-23532888D01*
X-1807467Y-23392216D01*
X-1712821Y-23228284D01*
X-1654326Y-23048256D01*
X-1653784Y-23043106D01*
X-1653783Y-23043098D01*
X-1635082Y-22865157D01*
X-1634540Y-22860000D01*
X-1635082Y-22854843D01*
X-1653783Y-22676901D01*
X-1653784Y-22676891D01*
X-1654326Y-22671744D01*
X-1655927Y-22666816D01*
X-1655928Y-22666812D01*
X-1711219Y-22496646D01*
X-1711219Y-22496644D01*
X-1712821Y-22491716D01*
X-1721559Y-22476582D01*
X-1804874Y-22332275D01*
X-1804874Y-22332274D01*
X-1807467Y-22327784D01*
X-1810933Y-22323933D01*
X-1810938Y-22323928D01*
X-1930659Y-22190965D01*
X-1930662Y-22190961D01*
X-1934129Y-22187112D01*
X-1938313Y-22184071D01*
X-1938321Y-22184065D01*
X-2083079Y-22078893D01*
X-2083085Y-22078889D01*
X-2087270Y-22075849D01*
X-2091997Y-22073744D01*
X-2092003Y-22073741D01*
X-2255459Y-22000965D01*
X-2255463Y-22000963D01*
X-2260197Y-21998856D01*
X-2265266Y-21997778D01*
X-2265268Y-21997778D01*
X-2440279Y-21960578D01*
X-2440285Y-21960577D01*
X-2445354Y-21959500D01*
X-2634646Y-21959500D01*
X-2639715Y-21960577D01*
X-2639720Y-21960578D01*
X-2791306Y-21992799D01*
X-2819803Y-21998856D01*
X-2824539Y-22000964D01*
X-2824540Y-22000965D01*
X-2987996Y-22073741D01*
X-2987997Y-22073742D01*
X-2992730Y-22075849D01*
X-2996918Y-22078892D01*
X-2996920Y-22078893D01*
X-3141678Y-22184065D01*
X-3141681Y-22184068D01*
X-3145871Y-22187112D01*
X-3272533Y-22327784D01*
X-3367179Y-22491716D01*
X-3425674Y-22671744D01*
X-3445460Y-22860000D01*
X-4174540Y-22860000D01*
X-4175082Y-22854843D01*
X-4193783Y-22676901D01*
X-4193784Y-22676891D01*
X-4194326Y-22671744D01*
X-4195928Y-22666812D01*
X-4195929Y-22666808D01*
X-4225051Y-22577178D01*
X-4227161Y-22523474D01*
X-4200900Y-22476582D01*
X996185Y-17279496D01*
X1028303Y-17258036D01*
X1066189Y-17250500D01*
X2853380Y-17250500D01*
X2873696Y-17252607D01*
X2877287Y-17253360D01*
X2877289Y-17253360D01*
X2885315Y-17255043D01*
X2915662Y-17251259D01*
X2920875Y-17250936D01*
X2920867Y-17250838D01*
X2924946Y-17250500D01*
X2929040Y-17250500D01*
X2948524Y-17247248D01*
X2952552Y-17246661D01*
X3001393Y-17240573D01*
X3008060Y-17237313D01*
X3015381Y-17236092D01*
X3058673Y-17212662D01*
X3062279Y-17210807D01*
X3063061Y-17210424D01*
X3106484Y-17189198D01*
X3111732Y-17183949D01*
X3118258Y-17180418D01*
X3151579Y-17144220D01*
X3154364Y-17141316D01*
X4024884Y-16270796D01*
X4040734Y-16257926D01*
X4050669Y-16251437D01*
X4069458Y-16227295D01*
X4072902Y-16223397D01*
X4072827Y-16223333D01*
X4075473Y-16220207D01*
X4078375Y-16217307D01*
X4089861Y-16201217D01*
X4092285Y-16197966D01*
X4122517Y-16159126D01*
X4124927Y-16152104D01*
X4129239Y-16146066D01*
X4143274Y-16098919D01*
X4144512Y-16095054D01*
X4160500Y-16048488D01*
X4160500Y-16041065D01*
X4162617Y-16033954D01*
X4162387Y-16028407D01*
X4167964Y-16016110D01*
X4161105Y-15997397D01*
X4160585Y-15984824D01*
X4160500Y-15980733D01*
X4160500Y-15179890D01*
X4172844Y-15132017D01*
X4206799Y-15096083D01*
X4207319Y-15095756D01*
X4257217Y-15080603D01*
X4307893Y-15092907D01*
X4345285Y-15129256D01*
X4359020Y-15179563D01*
X4359020Y-15993306D01*
X4351333Y-16017299D01*
X4359020Y-16041993D01*
X4359020Y-17964290D01*
X4351484Y-18002176D01*
X4330024Y-18034294D01*
X386922Y-21977394D01*
X340031Y-22003654D01*
X286328Y-22001546D01*
X284539Y-22000965D01*
X279803Y-21998856D01*
X274727Y-21997777D01*
X99720Y-21960578D01*
X99715Y-21960577D01*
X94646Y-21959500D01*
X-94646Y-21959500D01*
X-99715Y-21960577D01*
X-99720Y-21960578D01*
X-251306Y-21992799D01*
X-279803Y-21998856D01*
X-284539Y-22000964D01*
X-284540Y-22000965D01*
X-447996Y-22073741D01*
X-447997Y-22073742D01*
X-452730Y-22075849D01*
X-456918Y-22078892D01*
X-456920Y-22078893D01*
X-601678Y-22184065D01*
X-601681Y-22184068D01*
X-605871Y-22187112D01*
X-732533Y-22327784D01*
X-827179Y-22491716D01*
X-885674Y-22671744D01*
X-905460Y-22860000D01*
X-885674Y-23048256D01*
X-827179Y-23228284D01*
X-732533Y-23392216D01*
X-605871Y-23532888D01*
X-452730Y-23644151D01*
X-279803Y-23721144D01*
X-94646Y-23760500D01*
X89457Y-23760500D01*
X94646Y-23760500D01*
X279803Y-23721144D01*
X452730Y-23644151D01*
X605871Y-23532888D01*
X732533Y-23392216D01*
X827179Y-23228284D01*
X885674Y-23048256D01*
X905460Y-22860000D01*
X885674Y-22671744D01*
X854946Y-22577176D01*
X852836Y-22523476D01*
X879095Y-22476585D01*
X4639526Y-18716155D01*
X4690217Y-18689061D01*
X4747417Y-18694695D01*
X4791846Y-18731158D01*
X4808531Y-18786159D01*
X4808531Y-33390500D01*
X4795268Y-33440000D01*
X4759031Y-33476237D01*
X4709531Y-33489500D01*
X4260252Y-33489500D01*
X4255494Y-33490446D01*
X4255488Y-33490447D01*
X4211333Y-33499230D01*
X4211330Y-33499231D01*
X4201769Y-33501133D01*
X4193663Y-33506549D01*
X4193659Y-33506551D01*
X4143558Y-33540028D01*
X4143555Y-33540030D01*
X4135448Y-33545448D01*
X4130030Y-33553555D01*
X4130028Y-33553558D01*
X4096551Y-33603659D01*
X4096549Y-33603663D01*
X4091133Y-33611769D01*
X4089231Y-33621330D01*
X4089230Y-33621333D01*
X4080447Y-33665488D01*
X4080446Y-33665494D01*
X4079500Y-33670252D01*
X4079500Y-35309748D01*
X4080446Y-35314506D01*
X4080447Y-35314511D01*
X4089230Y-35358666D01*
X4091133Y-35368231D01*
X4096550Y-35376338D01*
X4096551Y-35376340D01*
X4130028Y-35426441D01*
X4135448Y-35434552D01*
X4201769Y-35478867D01*
X4260252Y-35490500D01*
X5780011Y-35490500D01*
X5829511Y-35503763D01*
X5865748Y-35540000D01*
X5879011Y-35589500D01*
X5879011Y-35694300D01*
X5871475Y-35732186D01*
X5850014Y-35764304D01*
X5543823Y-36070493D01*
X5497875Y-36096522D01*
X5445082Y-36095226D01*
X5280788Y-36045388D01*
X5280784Y-36045387D01*
X5276132Y-36043976D01*
X5262120Y-36042596D01*
X5084843Y-36025136D01*
X5080000Y-36024659D01*
X5075157Y-36025136D01*
X4888710Y-36043499D01*
X4888708Y-36043499D01*
X4883868Y-36043976D01*
X4879217Y-36045386D01*
X4879211Y-36045388D01*
X4699929Y-36099773D01*
X4699923Y-36099775D01*
X4695273Y-36101186D01*
X4690985Y-36103477D01*
X4690980Y-36103480D01*
X4610661Y-36146412D01*
X4521462Y-36194090D01*
X4517711Y-36197168D01*
X4517704Y-36197173D01*
X4372881Y-36316027D01*
X4372875Y-36316032D01*
X4369117Y-36319117D01*
X4366032Y-36322875D01*
X4366027Y-36322881D01*
X4247173Y-36467704D01*
X4247168Y-36467711D01*
X4244090Y-36471462D01*
X4241798Y-36475749D01*
X4241798Y-36475750D01*
X4153480Y-36640980D01*
X4153477Y-36640985D01*
X4151186Y-36645273D01*
X4149775Y-36649923D01*
X4149773Y-36649929D01*
X4095388Y-36829211D01*
X4095386Y-36829217D01*
X4093976Y-36833868D01*
X4074659Y-37030000D01*
X4093976Y-37226132D01*
X4151186Y-37414727D01*
X4244090Y-37588538D01*
X4369117Y-37740883D01*
X4521462Y-37865910D01*
X4695273Y-37958814D01*
X4883868Y-38016024D01*
X5080000Y-38035341D01*
X5276132Y-38016024D01*
X5464727Y-37958814D01*
X5638538Y-37865910D01*
X5790883Y-37740883D01*
X5915910Y-37588538D01*
X6008814Y-37414727D01*
X6066024Y-37226132D01*
X6085341Y-37030000D01*
X6614659Y-37030000D01*
X6633976Y-37226132D01*
X6691186Y-37414727D01*
X6784090Y-37588538D01*
X6909117Y-37740883D01*
X7061462Y-37865910D01*
X7235273Y-37958814D01*
X7423868Y-38016024D01*
X7620000Y-38035341D01*
X7816132Y-38016024D01*
X8004727Y-37958814D01*
X8178538Y-37865910D01*
X8330883Y-37740883D01*
X8455910Y-37588538D01*
X8548814Y-37414727D01*
X8606024Y-37226132D01*
X8625341Y-37030000D01*
X9154659Y-37030000D01*
X9173976Y-37226132D01*
X9231186Y-37414727D01*
X9324090Y-37588538D01*
X9449117Y-37740883D01*
X9601462Y-37865910D01*
X9775273Y-37958814D01*
X9963868Y-38016024D01*
X10160000Y-38035341D01*
X10356132Y-38016024D01*
X10544727Y-37958814D01*
X10718538Y-37865910D01*
X10870883Y-37740883D01*
X10995910Y-37588538D01*
X11088814Y-37414727D01*
X11146024Y-37226132D01*
X11165341Y-37030000D01*
X11694659Y-37030000D01*
X11713976Y-37226132D01*
X11771186Y-37414727D01*
X11864090Y-37588538D01*
X11989117Y-37740883D01*
X12141462Y-37865910D01*
X12315273Y-37958814D01*
X12503868Y-38016024D01*
X12700000Y-38035341D01*
X12896132Y-38016024D01*
X13084727Y-37958814D01*
X13258538Y-37865910D01*
X13410883Y-37740883D01*
X13535910Y-37588538D01*
X13628814Y-37414727D01*
X13686024Y-37226132D01*
X13694134Y-37143791D01*
X14246368Y-37143791D01*
X14253991Y-37221190D01*
X14255881Y-37230690D01*
X14310237Y-37409878D01*
X14313944Y-37418827D01*
X14402215Y-37583971D01*
X14407590Y-37592015D01*
X14526382Y-37736763D01*
X14533236Y-37743617D01*
X14677984Y-37862409D01*
X14686028Y-37867784D01*
X14851172Y-37956055D01*
X14860121Y-37959762D01*
X15039309Y-38014118D01*
X15048809Y-38016008D01*
X15126208Y-38023631D01*
X15136990Y-38021669D01*
X15140000Y-38011131D01*
X15340000Y-38011131D01*
X15343009Y-38021669D01*
X15353791Y-38023631D01*
X15431190Y-38016008D01*
X15440690Y-38014118D01*
X15619878Y-37959762D01*
X15628827Y-37956055D01*
X15793971Y-37867784D01*
X15802015Y-37862409D01*
X15946763Y-37743617D01*
X15953617Y-37736763D01*
X16072409Y-37592015D01*
X16077784Y-37583971D01*
X16166055Y-37418827D01*
X16169762Y-37409878D01*
X16224118Y-37230690D01*
X16226008Y-37221190D01*
X16233631Y-37143791D01*
X16231669Y-37133009D01*
X16221131Y-37130000D01*
X15353033Y-37130000D01*
X15342754Y-37132754D01*
X15340000Y-37143033D01*
X15340000Y-38011131D01*
X15140000Y-38011131D01*
X15140000Y-37143033D01*
X15137245Y-37132754D01*
X15126967Y-37130000D01*
X14258869Y-37130000D01*
X14248330Y-37133009D01*
X14246368Y-37143791D01*
X13694134Y-37143791D01*
X13705341Y-37030000D01*
X16774659Y-37030000D01*
X16793976Y-37226132D01*
X16851186Y-37414727D01*
X16944090Y-37588538D01*
X17069117Y-37740883D01*
X17221462Y-37865910D01*
X17395273Y-37958814D01*
X17583868Y-38016024D01*
X17780000Y-38035341D01*
X17976132Y-38016024D01*
X18164727Y-37958814D01*
X18338538Y-37865910D01*
X18490883Y-37740883D01*
X18615910Y-37588538D01*
X18708814Y-37414727D01*
X18766024Y-37226132D01*
X18785341Y-37030000D01*
X18766024Y-36833868D01*
X18708814Y-36645273D01*
X18615910Y-36471462D01*
X18490883Y-36319117D01*
X18338538Y-36194090D01*
X18186728Y-36112946D01*
X18169019Y-36103480D01*
X18169017Y-36103479D01*
X18164727Y-36101186D01*
X18160072Y-36099774D01*
X18160070Y-36099773D01*
X17980788Y-36045388D01*
X17980784Y-36045387D01*
X17976132Y-36043976D01*
X17962120Y-36042596D01*
X17784843Y-36025136D01*
X17780000Y-36024659D01*
X17775157Y-36025136D01*
X17588710Y-36043499D01*
X17588708Y-36043499D01*
X17583868Y-36043976D01*
X17579217Y-36045386D01*
X17579211Y-36045388D01*
X17399929Y-36099773D01*
X17399923Y-36099775D01*
X17395273Y-36101186D01*
X17390985Y-36103477D01*
X17390980Y-36103480D01*
X17310661Y-36146412D01*
X17221462Y-36194090D01*
X17217711Y-36197168D01*
X17217704Y-36197173D01*
X17072881Y-36316027D01*
X17072875Y-36316032D01*
X17069117Y-36319117D01*
X17066032Y-36322875D01*
X17066027Y-36322881D01*
X16947173Y-36467704D01*
X16947168Y-36467711D01*
X16944090Y-36471462D01*
X16941798Y-36475749D01*
X16941798Y-36475750D01*
X16853480Y-36640980D01*
X16853477Y-36640985D01*
X16851186Y-36645273D01*
X16849775Y-36649923D01*
X16849773Y-36649929D01*
X16795388Y-36829211D01*
X16795386Y-36829217D01*
X16793976Y-36833868D01*
X16774659Y-37030000D01*
X13705341Y-37030000D01*
X13694134Y-36916208D01*
X14246368Y-36916208D01*
X14248330Y-36926990D01*
X14258869Y-36930000D01*
X15126967Y-36930000D01*
X15137245Y-36927245D01*
X15140000Y-36916967D01*
X15340000Y-36916967D01*
X15342754Y-36927245D01*
X15353033Y-36930000D01*
X16221131Y-36930000D01*
X16231669Y-36926990D01*
X16233631Y-36916208D01*
X16226008Y-36838809D01*
X16224118Y-36829309D01*
X16169762Y-36650121D01*
X16166055Y-36641172D01*
X16077784Y-36476028D01*
X16072409Y-36467984D01*
X15953617Y-36323236D01*
X15946763Y-36316382D01*
X15802015Y-36197590D01*
X15793971Y-36192215D01*
X15628827Y-36103944D01*
X15619878Y-36100237D01*
X15440690Y-36045881D01*
X15431190Y-36043991D01*
X15353791Y-36036368D01*
X15343009Y-36038330D01*
X15340000Y-36048869D01*
X15340000Y-36916967D01*
X15140000Y-36916967D01*
X15140000Y-36048869D01*
X15136990Y-36038330D01*
X15126208Y-36036368D01*
X15048809Y-36043991D01*
X15039309Y-36045881D01*
X14860121Y-36100237D01*
X14851172Y-36103944D01*
X14686028Y-36192215D01*
X14677984Y-36197590D01*
X14533236Y-36316382D01*
X14526382Y-36323236D01*
X14407590Y-36467984D01*
X14402215Y-36476028D01*
X14313944Y-36641172D01*
X14310237Y-36650121D01*
X14255881Y-36829309D01*
X14253991Y-36838809D01*
X14246368Y-36916208D01*
X13694134Y-36916208D01*
X13686024Y-36833868D01*
X13628814Y-36645273D01*
X13535910Y-36471462D01*
X13410883Y-36319117D01*
X13258538Y-36194090D01*
X13106728Y-36112946D01*
X13089019Y-36103480D01*
X13089017Y-36103479D01*
X13084727Y-36101186D01*
X13080072Y-36099774D01*
X13080070Y-36099773D01*
X12900788Y-36045388D01*
X12900784Y-36045387D01*
X12896132Y-36043976D01*
X12882120Y-36042596D01*
X12704843Y-36025136D01*
X12700000Y-36024659D01*
X12695157Y-36025136D01*
X12508710Y-36043499D01*
X12508708Y-36043499D01*
X12503868Y-36043976D01*
X12499217Y-36045386D01*
X12499211Y-36045388D01*
X12319929Y-36099773D01*
X12319923Y-36099775D01*
X12315273Y-36101186D01*
X12310985Y-36103477D01*
X12310980Y-36103480D01*
X12230661Y-36146412D01*
X12141462Y-36194090D01*
X12137711Y-36197168D01*
X12137704Y-36197173D01*
X11992881Y-36316027D01*
X11992875Y-36316032D01*
X11989117Y-36319117D01*
X11986032Y-36322875D01*
X11986027Y-36322881D01*
X11867173Y-36467704D01*
X11867168Y-36467711D01*
X11864090Y-36471462D01*
X11861798Y-36475749D01*
X11861798Y-36475750D01*
X11773480Y-36640980D01*
X11773477Y-36640985D01*
X11771186Y-36645273D01*
X11769775Y-36649923D01*
X11769773Y-36649929D01*
X11715388Y-36829211D01*
X11715386Y-36829217D01*
X11713976Y-36833868D01*
X11694659Y-37030000D01*
X11165341Y-37030000D01*
X11146024Y-36833868D01*
X11088814Y-36645273D01*
X10995910Y-36471462D01*
X10870883Y-36319117D01*
X10718538Y-36194090D01*
X10566728Y-36112946D01*
X10549019Y-36103480D01*
X10549017Y-36103479D01*
X10544727Y-36101186D01*
X10540072Y-36099774D01*
X10540070Y-36099773D01*
X10360788Y-36045388D01*
X10360784Y-36045387D01*
X10356132Y-36043976D01*
X10342120Y-36042596D01*
X10164843Y-36025136D01*
X10160000Y-36024659D01*
X10155157Y-36025136D01*
X9968710Y-36043499D01*
X9968708Y-36043499D01*
X9963868Y-36043976D01*
X9959217Y-36045386D01*
X9959211Y-36045388D01*
X9779929Y-36099773D01*
X9779923Y-36099775D01*
X9775273Y-36101186D01*
X9770985Y-36103477D01*
X9770980Y-36103480D01*
X9690661Y-36146412D01*
X9601462Y-36194090D01*
X9597711Y-36197168D01*
X9597704Y-36197173D01*
X9452881Y-36316027D01*
X9452875Y-36316032D01*
X9449117Y-36319117D01*
X9446032Y-36322875D01*
X9446027Y-36322881D01*
X9327173Y-36467704D01*
X9327168Y-36467711D01*
X9324090Y-36471462D01*
X9321798Y-36475749D01*
X9321798Y-36475750D01*
X9233480Y-36640980D01*
X9233477Y-36640985D01*
X9231186Y-36645273D01*
X9229775Y-36649923D01*
X9229773Y-36649929D01*
X9175388Y-36829211D01*
X9175386Y-36829217D01*
X9173976Y-36833868D01*
X9154659Y-37030000D01*
X8625341Y-37030000D01*
X8606024Y-36833868D01*
X8548814Y-36645273D01*
X8455910Y-36471462D01*
X8330883Y-36319117D01*
X8178538Y-36194090D01*
X8026728Y-36112946D01*
X8009019Y-36103480D01*
X8009017Y-36103479D01*
X8004727Y-36101186D01*
X8000072Y-36099774D01*
X8000070Y-36099773D01*
X7820788Y-36045388D01*
X7820784Y-36045387D01*
X7816132Y-36043976D01*
X7802120Y-36042596D01*
X7624843Y-36025136D01*
X7620000Y-36024659D01*
X7615157Y-36025136D01*
X7428710Y-36043499D01*
X7428708Y-36043499D01*
X7423868Y-36043976D01*
X7419217Y-36045386D01*
X7419211Y-36045388D01*
X7239929Y-36099773D01*
X7239923Y-36099775D01*
X7235273Y-36101186D01*
X7230985Y-36103477D01*
X7230980Y-36103480D01*
X7150661Y-36146412D01*
X7061462Y-36194090D01*
X7057711Y-36197168D01*
X7057704Y-36197173D01*
X6912881Y-36316027D01*
X6912875Y-36316032D01*
X6909117Y-36319117D01*
X6906032Y-36322875D01*
X6906027Y-36322881D01*
X6787173Y-36467704D01*
X6787168Y-36467711D01*
X6784090Y-36471462D01*
X6781798Y-36475749D01*
X6781798Y-36475750D01*
X6693480Y-36640980D01*
X6693477Y-36640985D01*
X6691186Y-36645273D01*
X6689775Y-36649923D01*
X6689773Y-36649929D01*
X6635388Y-36829211D01*
X6635386Y-36829217D01*
X6633976Y-36833868D01*
X6614659Y-37030000D01*
X6085341Y-37030000D01*
X6066024Y-36833868D01*
X6014771Y-36664913D01*
X6013476Y-36612124D01*
X6039503Y-36566177D01*
X6444395Y-36161285D01*
X6460245Y-36148415D01*
X6470180Y-36141926D01*
X6488969Y-36117784D01*
X6492413Y-36113886D01*
X6492338Y-36113822D01*
X6494984Y-36110696D01*
X6497886Y-36107796D01*
X6509391Y-36091679D01*
X6511781Y-36088474D01*
X6542028Y-36049615D01*
X6544437Y-36042596D01*
X6548751Y-36036555D01*
X6562802Y-35989355D01*
X6564019Y-35985557D01*
X6580011Y-35938977D01*
X6580011Y-35931554D01*
X6582128Y-35924443D01*
X6580096Y-35875313D01*
X6580011Y-35871222D01*
X6580011Y-35061963D01*
X6593600Y-35011903D01*
X6630637Y-34975586D01*
X6680954Y-34962982D01*
X6730738Y-34977551D01*
X6766320Y-35015293D01*
X6784090Y-35048538D01*
X6787171Y-35052292D01*
X6787173Y-35052295D01*
X6905736Y-35196763D01*
X6909117Y-35200883D01*
X7061462Y-35325910D01*
X7235273Y-35418814D01*
X7423868Y-35476024D01*
X7620000Y-35495341D01*
X7816132Y-35476024D01*
X8004727Y-35418814D01*
X8178538Y-35325910D01*
X8330883Y-35200883D01*
X8455910Y-35048538D01*
X8548814Y-34874727D01*
X8606024Y-34686132D01*
X8625341Y-34490000D01*
X9154659Y-34490000D01*
X9173976Y-34686132D01*
X9231186Y-34874727D01*
X9324090Y-35048538D01*
X9327171Y-35052292D01*
X9327173Y-35052295D01*
X9445736Y-35196763D01*
X9449117Y-35200883D01*
X9601462Y-35325910D01*
X9775273Y-35418814D01*
X9963868Y-35476024D01*
X10160000Y-35495341D01*
X10356132Y-35476024D01*
X10544727Y-35418814D01*
X10718538Y-35325910D01*
X10870883Y-35200883D01*
X10995910Y-35048538D01*
X11088814Y-34874727D01*
X11146024Y-34686132D01*
X11165341Y-34490000D01*
X11694659Y-34490000D01*
X11713976Y-34686132D01*
X11771186Y-34874727D01*
X11864090Y-35048538D01*
X11867171Y-35052292D01*
X11867173Y-35052295D01*
X11985736Y-35196763D01*
X11989117Y-35200883D01*
X12141462Y-35325910D01*
X12315273Y-35418814D01*
X12503868Y-35476024D01*
X12700000Y-35495341D01*
X12896132Y-35476024D01*
X13084727Y-35418814D01*
X13258538Y-35325910D01*
X13410883Y-35200883D01*
X13535910Y-35048538D01*
X13628814Y-34874727D01*
X13686024Y-34686132D01*
X13694134Y-34603791D01*
X14246368Y-34603791D01*
X14253991Y-34681190D01*
X14255881Y-34690690D01*
X14310237Y-34869878D01*
X14313944Y-34878827D01*
X14402215Y-35043971D01*
X14407590Y-35052015D01*
X14526382Y-35196763D01*
X14533236Y-35203617D01*
X14677984Y-35322409D01*
X14686028Y-35327784D01*
X14851172Y-35416055D01*
X14860121Y-35419762D01*
X15039309Y-35474118D01*
X15048809Y-35476008D01*
X15126208Y-35483631D01*
X15136990Y-35481669D01*
X15140000Y-35471131D01*
X15340000Y-35471131D01*
X15343009Y-35481669D01*
X15353791Y-35483631D01*
X15431190Y-35476008D01*
X15440690Y-35474118D01*
X15619878Y-35419762D01*
X15628827Y-35416055D01*
X15793971Y-35327784D01*
X15802015Y-35322409D01*
X15946763Y-35203617D01*
X15953617Y-35196763D01*
X16072409Y-35052015D01*
X16077784Y-35043971D01*
X16166055Y-34878827D01*
X16169762Y-34869878D01*
X16224118Y-34690690D01*
X16226008Y-34681190D01*
X16233631Y-34603791D01*
X16231669Y-34593009D01*
X16221131Y-34590000D01*
X15353033Y-34590000D01*
X15342754Y-34592754D01*
X15340000Y-34603033D01*
X15340000Y-35471131D01*
X15140000Y-35471131D01*
X15140000Y-34603033D01*
X15137245Y-34592754D01*
X15126967Y-34590000D01*
X14258869Y-34590000D01*
X14248330Y-34593009D01*
X14246368Y-34603791D01*
X13694134Y-34603791D01*
X13705341Y-34490000D01*
X16774659Y-34490000D01*
X16793976Y-34686132D01*
X16851186Y-34874727D01*
X16944090Y-35048538D01*
X16947171Y-35052292D01*
X16947173Y-35052295D01*
X17065736Y-35196763D01*
X17069117Y-35200883D01*
X17221462Y-35325910D01*
X17395273Y-35418814D01*
X17583868Y-35476024D01*
X17780000Y-35495341D01*
X17976132Y-35476024D01*
X18164727Y-35418814D01*
X18338538Y-35325910D01*
X18490883Y-35200883D01*
X18615910Y-35048538D01*
X18708814Y-34874727D01*
X18766024Y-34686132D01*
X18785341Y-34490000D01*
X18766024Y-34293868D01*
X18708814Y-34105273D01*
X18615910Y-33931462D01*
X18490883Y-33779117D01*
X18364151Y-33675110D01*
X18342295Y-33657173D01*
X18342292Y-33657171D01*
X18338538Y-33654090D01*
X18164727Y-33561186D01*
X18160072Y-33559774D01*
X18160070Y-33559773D01*
X17980788Y-33505388D01*
X17980784Y-33505387D01*
X17976132Y-33503976D01*
X17780000Y-33484659D01*
X17775157Y-33485136D01*
X17588710Y-33503499D01*
X17588708Y-33503499D01*
X17583868Y-33503976D01*
X17579217Y-33505386D01*
X17579211Y-33505388D01*
X17399929Y-33559773D01*
X17399923Y-33559775D01*
X17395273Y-33561186D01*
X17390985Y-33563477D01*
X17390980Y-33563480D01*
X17282746Y-33621333D01*
X17221462Y-33654090D01*
X17217711Y-33657168D01*
X17217704Y-33657173D01*
X17072881Y-33776027D01*
X17072875Y-33776032D01*
X17069117Y-33779117D01*
X17066032Y-33782875D01*
X17066027Y-33782881D01*
X16947173Y-33927704D01*
X16947168Y-33927711D01*
X16944090Y-33931462D01*
X16941798Y-33935749D01*
X16941798Y-33935750D01*
X16853480Y-34100980D01*
X16853477Y-34100985D01*
X16851186Y-34105273D01*
X16849775Y-34109923D01*
X16849773Y-34109929D01*
X16795388Y-34289211D01*
X16795386Y-34289217D01*
X16793976Y-34293868D01*
X16774659Y-34490000D01*
X13705341Y-34490000D01*
X13694134Y-34376208D01*
X14246368Y-34376208D01*
X14248330Y-34386990D01*
X14258869Y-34390000D01*
X15126967Y-34390000D01*
X15137245Y-34387245D01*
X15140000Y-34376967D01*
X15340000Y-34376967D01*
X15342754Y-34387245D01*
X15353033Y-34390000D01*
X16221131Y-34390000D01*
X16231669Y-34386990D01*
X16233631Y-34376208D01*
X16226008Y-34298809D01*
X16224118Y-34289309D01*
X16169762Y-34110121D01*
X16166055Y-34101172D01*
X16077784Y-33936028D01*
X16072409Y-33927984D01*
X15953617Y-33783236D01*
X15946763Y-33776382D01*
X15802015Y-33657590D01*
X15793971Y-33652215D01*
X15628827Y-33563944D01*
X15619878Y-33560237D01*
X15440690Y-33505881D01*
X15431190Y-33503991D01*
X15353791Y-33496368D01*
X15343009Y-33498330D01*
X15340000Y-33508869D01*
X15340000Y-34376967D01*
X15140000Y-34376967D01*
X15140000Y-33508869D01*
X15136990Y-33498330D01*
X15126208Y-33496368D01*
X15048809Y-33503991D01*
X15039309Y-33505881D01*
X14860121Y-33560237D01*
X14851172Y-33563944D01*
X14686028Y-33652215D01*
X14677984Y-33657590D01*
X14533236Y-33776382D01*
X14526382Y-33783236D01*
X14407590Y-33927984D01*
X14402215Y-33936028D01*
X14313944Y-34101172D01*
X14310237Y-34110121D01*
X14255881Y-34289309D01*
X14253991Y-34298809D01*
X14246368Y-34376208D01*
X13694134Y-34376208D01*
X13686024Y-34293868D01*
X13628814Y-34105273D01*
X13535910Y-33931462D01*
X13410883Y-33779117D01*
X13284151Y-33675110D01*
X13262295Y-33657173D01*
X13262292Y-33657171D01*
X13258538Y-33654090D01*
X13084727Y-33561186D01*
X13080072Y-33559774D01*
X13080070Y-33559773D01*
X12900788Y-33505388D01*
X12900784Y-33505387D01*
X12896132Y-33503976D01*
X12700000Y-33484659D01*
X12695157Y-33485136D01*
X12508710Y-33503499D01*
X12508708Y-33503499D01*
X12503868Y-33503976D01*
X12499217Y-33505386D01*
X12499211Y-33505388D01*
X12319929Y-33559773D01*
X12319923Y-33559775D01*
X12315273Y-33561186D01*
X12310985Y-33563477D01*
X12310980Y-33563480D01*
X12202746Y-33621333D01*
X12141462Y-33654090D01*
X12137711Y-33657168D01*
X12137704Y-33657173D01*
X11992881Y-33776027D01*
X11992875Y-33776032D01*
X11989117Y-33779117D01*
X11986032Y-33782875D01*
X11986027Y-33782881D01*
X11867173Y-33927704D01*
X11867168Y-33927711D01*
X11864090Y-33931462D01*
X11861798Y-33935749D01*
X11861798Y-33935750D01*
X11773480Y-34100980D01*
X11773477Y-34100985D01*
X11771186Y-34105273D01*
X11769775Y-34109923D01*
X11769773Y-34109929D01*
X11715388Y-34289211D01*
X11715386Y-34289217D01*
X11713976Y-34293868D01*
X11694659Y-34490000D01*
X11165341Y-34490000D01*
X11146024Y-34293868D01*
X11088814Y-34105273D01*
X10995910Y-33931462D01*
X10870883Y-33779117D01*
X10744151Y-33675110D01*
X10722295Y-33657173D01*
X10722292Y-33657171D01*
X10718538Y-33654090D01*
X10544727Y-33561186D01*
X10540072Y-33559774D01*
X10540070Y-33559773D01*
X10360788Y-33505388D01*
X10360784Y-33505387D01*
X10356132Y-33503976D01*
X10160000Y-33484659D01*
X10155157Y-33485136D01*
X9968710Y-33503499D01*
X9968708Y-33503499D01*
X9963868Y-33503976D01*
X9959217Y-33505386D01*
X9959211Y-33505388D01*
X9779929Y-33559773D01*
X9779923Y-33559775D01*
X9775273Y-33561186D01*
X9770985Y-33563477D01*
X9770980Y-33563480D01*
X9662746Y-33621333D01*
X9601462Y-33654090D01*
X9597711Y-33657168D01*
X9597704Y-33657173D01*
X9452881Y-33776027D01*
X9452875Y-33776032D01*
X9449117Y-33779117D01*
X9446032Y-33782875D01*
X9446027Y-33782881D01*
X9327173Y-33927704D01*
X9327168Y-33927711D01*
X9324090Y-33931462D01*
X9321798Y-33935749D01*
X9321798Y-33935750D01*
X9233480Y-34100980D01*
X9233477Y-34100985D01*
X9231186Y-34105273D01*
X9229775Y-34109923D01*
X9229773Y-34109929D01*
X9175388Y-34289211D01*
X9175386Y-34289217D01*
X9173976Y-34293868D01*
X9154659Y-34490000D01*
X8625341Y-34490000D01*
X8606024Y-34293868D01*
X8548814Y-34105273D01*
X8455910Y-33931462D01*
X8330883Y-33779117D01*
X8204151Y-33675110D01*
X8182295Y-33657173D01*
X8182292Y-33657171D01*
X8178538Y-33654090D01*
X8101861Y-33613105D01*
X8063615Y-33576692D01*
X8049530Y-33525796D01*
X8049530Y-14910645D01*
X8062426Y-14861788D01*
X8097753Y-14825659D01*
X8146309Y-14811670D01*
X8195443Y-14823466D01*
X8232356Y-14857974D01*
X8255506Y-14894818D01*
X8260184Y-14902262D01*
X8387738Y-15029816D01*
X8540478Y-15125789D01*
X8710745Y-15185368D01*
X8890000Y-15205565D01*
X9069255Y-15185368D01*
X9239522Y-15125789D01*
X9392262Y-15029816D01*
X9519816Y-14902262D01*
X9615789Y-14749522D01*
X9675368Y-14579255D01*
X9690500Y-14444954D01*
X9690500Y-13955046D01*
X9675368Y-13820745D01*
X9615789Y-13650478D01*
X9519816Y-13497738D01*
X9392262Y-13370184D01*
X9239522Y-13274211D01*
X9234271Y-13272373D01*
X9234270Y-13272373D01*
X9074503Y-13216468D01*
X9074500Y-13216467D01*
X9069255Y-13214632D01*
X9063738Y-13214010D01*
X9063732Y-13214009D01*
X8895520Y-13195057D01*
X8890000Y-13194435D01*
X8884480Y-13195057D01*
X8716267Y-13214009D01*
X8716259Y-13214010D01*
X8710745Y-13214632D01*
X8705501Y-13216466D01*
X8705496Y-13216468D01*
X8545729Y-13272373D01*
X8545724Y-13272375D01*
X8540478Y-13274211D01*
X8535771Y-13277168D01*
X8535768Y-13277170D01*
X8392446Y-13367225D01*
X8392441Y-13367228D01*
X8387738Y-13370184D01*
X8383811Y-13374110D01*
X8383807Y-13374114D01*
X8264114Y-13493807D01*
X8264110Y-13493811D01*
X8260184Y-13497738D01*
X8257228Y-13502441D01*
X8257225Y-13502446D01*
X8232356Y-13542026D01*
X8195443Y-13576534D01*
X8146309Y-13588330D01*
X8097753Y-13574341D01*
X8062426Y-13538212D01*
X8049530Y-13489355D01*
X8049530Y7724356D01*
X8051637Y7744672D01*
X8052389Y7748259D01*
X8054072Y7756285D01*
X8050290Y7786626D01*
X8049966Y7791840D01*
X8049868Y7791832D01*
X8049530Y7795908D01*
X8049530Y7800010D01*
X8046270Y7819541D01*
X8045687Y7823546D01*
X8040618Y7864216D01*
X8039603Y7872363D01*
X8036343Y7879030D01*
X8035122Y7886351D01*
X8011692Y7929643D01*
X8009837Y7933249D01*
X7995411Y7962759D01*
X7988228Y7977454D01*
X7982979Y7982702D01*
X7979448Y7989228D01*
X7943250Y8022549D01*
X7940346Y8025334D01*
X2098147Y13867533D01*
X2074706Y13904843D01*
X2069777Y13948632D01*
X2070190Y13952297D01*
X2070500Y13955046D01*
X3009500Y13955046D01*
X3009808Y13952307D01*
X3009809Y13952300D01*
X3024009Y13826267D01*
X3024010Y13826259D01*
X3024632Y13820745D01*
X3026466Y13815501D01*
X3026468Y13815496D01*
X3082373Y13655729D01*
X3082375Y13655724D01*
X3084211Y13650478D01*
X3087168Y13645771D01*
X3087170Y13645768D01*
X3177225Y13502446D01*
X3177228Y13502441D01*
X3180184Y13497738D01*
X3184110Y13493811D01*
X3184114Y13493807D01*
X3303807Y13374114D01*
X3303811Y13374110D01*
X3307738Y13370184D01*
X3312441Y13367228D01*
X3312446Y13367225D01*
X3455768Y13277170D01*
X3455771Y13277168D01*
X3460478Y13274211D01*
X3465724Y13272375D01*
X3465729Y13272373D01*
X3625496Y13216468D01*
X3625501Y13216466D01*
X3630745Y13214632D01*
X3636259Y13214010D01*
X3636267Y13214009D01*
X3804480Y13195057D01*
X3810000Y13194435D01*
X3815520Y13195057D01*
X3983732Y13214009D01*
X3983738Y13214010D01*
X3989255Y13214632D01*
X3994500Y13216467D01*
X3994503Y13216468D01*
X4154270Y13272373D01*
X4154271Y13272373D01*
X4159522Y13274211D01*
X4312262Y13370184D01*
X4439816Y13497738D01*
X4535789Y13650478D01*
X4595368Y13820745D01*
X4610500Y13955046D01*
X5549500Y13955046D01*
X5549808Y13952307D01*
X5549809Y13952300D01*
X5564009Y13826267D01*
X5564010Y13826259D01*
X5564632Y13820745D01*
X5566466Y13815501D01*
X5566468Y13815496D01*
X5622373Y13655729D01*
X5622375Y13655724D01*
X5624211Y13650478D01*
X5627168Y13645771D01*
X5627170Y13645768D01*
X5717225Y13502446D01*
X5717228Y13502441D01*
X5720184Y13497738D01*
X5724110Y13493811D01*
X5724114Y13493807D01*
X5843807Y13374114D01*
X5843811Y13374110D01*
X5847738Y13370184D01*
X5852441Y13367228D01*
X5852446Y13367225D01*
X5995768Y13277170D01*
X5995771Y13277168D01*
X6000478Y13274211D01*
X6005724Y13272375D01*
X6005729Y13272373D01*
X6165496Y13216468D01*
X6165501Y13216466D01*
X6170745Y13214632D01*
X6176259Y13214010D01*
X6176267Y13214009D01*
X6344480Y13195057D01*
X6350000Y13194435D01*
X6355520Y13195057D01*
X6523732Y13214009D01*
X6523738Y13214010D01*
X6529255Y13214632D01*
X6534500Y13216467D01*
X6534503Y13216468D01*
X6694270Y13272373D01*
X6694271Y13272373D01*
X6699522Y13274211D01*
X6852262Y13370184D01*
X6979816Y13497738D01*
X7075789Y13650478D01*
X7135368Y13820745D01*
X7150500Y13955046D01*
X8089500Y13955046D01*
X8089808Y13952307D01*
X8089809Y13952300D01*
X8104009Y13826267D01*
X8104010Y13826259D01*
X8104632Y13820745D01*
X8106466Y13815501D01*
X8106468Y13815496D01*
X8162373Y13655729D01*
X8162375Y13655724D01*
X8164211Y13650478D01*
X8167168Y13645771D01*
X8167170Y13645768D01*
X8257225Y13502446D01*
X8257228Y13502441D01*
X8260184Y13497738D01*
X8264110Y13493811D01*
X8264114Y13493807D01*
X8383807Y13374114D01*
X8383811Y13374110D01*
X8387738Y13370184D01*
X8392441Y13367228D01*
X8392446Y13367225D01*
X8535768Y13277170D01*
X8535771Y13277168D01*
X8540478Y13274211D01*
X8545724Y13272375D01*
X8545729Y13272373D01*
X8705496Y13216468D01*
X8705501Y13216466D01*
X8710745Y13214632D01*
X8716259Y13214010D01*
X8716267Y13214009D01*
X8884480Y13195057D01*
X8890000Y13194435D01*
X8895520Y13195057D01*
X9063732Y13214009D01*
X9063738Y13214010D01*
X9069255Y13214632D01*
X9074500Y13216467D01*
X9074503Y13216468D01*
X9234270Y13272373D01*
X9234271Y13272373D01*
X9239522Y13274211D01*
X9392262Y13370184D01*
X9519816Y13497738D01*
X9615789Y13650478D01*
X9675368Y13820745D01*
X9690500Y13955046D01*
X9690500Y14444954D01*
X9675368Y14579255D01*
X9615789Y14749522D01*
X9519816Y14902262D01*
X9392262Y15029816D01*
X9239522Y15125789D01*
X9069255Y15185368D01*
X8890000Y15205565D01*
X8710745Y15185368D01*
X8540478Y15125789D01*
X8387738Y15029816D01*
X8260184Y14902262D01*
X8164211Y14749522D01*
X8104632Y14579255D01*
X8104010Y14573738D01*
X8104009Y14573732D01*
X8089809Y14447699D01*
X8089500Y14444954D01*
X8089500Y13955046D01*
X7150500Y13955046D01*
X7150500Y14444954D01*
X7135368Y14579255D01*
X7075789Y14749522D01*
X6979816Y14902262D01*
X6852262Y15029816D01*
X6699522Y15125789D01*
X6529255Y15185368D01*
X6350000Y15205565D01*
X6170745Y15185368D01*
X6000478Y15125789D01*
X5847738Y15029816D01*
X5720184Y14902262D01*
X5624211Y14749522D01*
X5564632Y14579255D01*
X5564010Y14573738D01*
X5564009Y14573732D01*
X5549809Y14447699D01*
X5549500Y14444954D01*
X5549500Y13955046D01*
X4610500Y13955046D01*
X4610500Y14444954D01*
X4595368Y14579255D01*
X4535789Y14749522D01*
X4439816Y14902262D01*
X4312262Y15029816D01*
X4159522Y15125789D01*
X3989255Y15185368D01*
X3810000Y15205565D01*
X3630745Y15185368D01*
X3460478Y15125789D01*
X3307738Y15029816D01*
X3180184Y14902262D01*
X3084211Y14749522D01*
X3024632Y14579255D01*
X3024010Y14573738D01*
X3024009Y14573732D01*
X3009809Y14447699D01*
X3009500Y14444954D01*
X3009500Y13955046D01*
X2070500Y13955046D01*
X2070500Y14444954D01*
X2055368Y14579255D01*
X1995789Y14749522D01*
X1899816Y14902262D01*
X1772262Y15029816D01*
X1619522Y15125789D01*
X1449255Y15185368D01*
X1270000Y15205565D01*
X1090745Y15185368D01*
X920478Y15125789D01*
X767738Y15029816D01*
X640184Y14902262D01*
X544211Y14749522D01*
X484632Y14579255D01*
X484010Y14573738D01*
X484009Y14573732D01*
X469809Y14447699D01*
X469500Y14444954D01*
X469500Y13955046D01*
X469808Y13952307D01*
X469809Y13952300D01*
X484009Y13826267D01*
X484010Y13826259D01*
X484632Y13820745D01*
X486466Y13815501D01*
X486468Y13815496D01*
X542373Y13655729D01*
X542375Y13655724D01*
X544211Y13650478D01*
X547168Y13645771D01*
X547170Y13645768D01*
X637225Y13502446D01*
X637228Y13502441D01*
X640184Y13497738D01*
X644110Y13493811D01*
X644114Y13493807D01*
X763807Y13374114D01*
X763811Y13374110D01*
X767738Y13370184D01*
X772441Y13367228D01*
X772446Y13367225D01*
X915768Y13277170D01*
X915771Y13277168D01*
X920478Y13274211D01*
X925724Y13272375D01*
X925729Y13272373D01*
X1085496Y13216468D01*
X1085501Y13216466D01*
X1090745Y13214632D01*
X1096259Y13214010D01*
X1096267Y13214009D01*
X1264480Y13195057D01*
X1270000Y13194435D01*
X1275520Y13195057D01*
X1443732Y13214009D01*
X1443738Y13214010D01*
X1449255Y13214632D01*
X1454500Y13216467D01*
X1454503Y13216468D01*
X1619522Y13274211D01*
X1620350Y13271842D01*
X1669720Y13278793D01*
X1723116Y13251200D01*
X7319534Y7654784D01*
X7340994Y7622666D01*
X7348530Y7584780D01*
X7348530Y7186160D01*
X7331846Y7131159D01*
X7287416Y7094696D01*
X7230216Y7089062D01*
X7179527Y7116156D01*
X6627407Y7668274D01*
X6603664Y7706456D01*
X6599257Y7751198D01*
X6605682Y7800000D01*
X6585044Y7956762D01*
X6524536Y8102841D01*
X6428282Y8228282D01*
X6302841Y8324536D01*
X6156762Y8385044D01*
X6000000Y8405682D01*
X5843238Y8385044D01*
X5697159Y8324536D01*
X5571718Y8228282D01*
X5475464Y8102841D01*
X5472981Y8096847D01*
X5472980Y8096845D01*
X5425701Y7982702D01*
X5414956Y7956762D01*
X5414109Y7950331D01*
X5414108Y7950326D01*
X5403810Y7872103D01*
X5394318Y7800000D01*
X5395165Y7793568D01*
X5395165Y7793566D01*
X5414108Y7649673D01*
X5414109Y7649666D01*
X5414956Y7643238D01*
X5417439Y7637243D01*
X5417440Y7637240D01*
X5472980Y7503154D01*
X5472982Y7503149D01*
X5475464Y7497159D01*
X5479411Y7492015D01*
X5479414Y7492010D01*
X5567763Y7376871D01*
X5567767Y7376866D01*
X5571718Y7371718D01*
X5576866Y7367767D01*
X5576871Y7367763D01*
X5692010Y7279414D01*
X5692015Y7279411D01*
X5697159Y7275464D01*
X5703149Y7272982D01*
X5703154Y7272980D01*
X5837240Y7217440D01*
X5837243Y7217439D01*
X5843238Y7214956D01*
X5849666Y7214109D01*
X5849673Y7214108D01*
X5993566Y7195165D01*
X6000000Y7194318D01*
X6006434Y7195165D01*
X6048799Y7200742D01*
X6093543Y7196335D01*
X6131724Y7172593D01*
X6870024Y6434294D01*
X6891484Y6402176D01*
X6899020Y6364290D01*
X6899020Y-13220437D01*
X6885290Y-13270737D01*
X6847908Y-13307084D01*
X6797243Y-13319398D01*
X6747348Y-13304262D01*
X6704233Y-13277171D01*
X6704232Y-13277170D01*
X6699522Y-13274211D01*
X6694271Y-13272373D01*
X6694270Y-13272373D01*
X6534503Y-13216468D01*
X6534500Y-13216467D01*
X6529255Y-13214632D01*
X6523738Y-13214010D01*
X6523732Y-13214009D01*
X6355520Y-13195057D01*
X6350000Y-13194435D01*
X6344480Y-13195057D01*
X6176267Y-13214009D01*
X6176259Y-13214010D01*
X6170745Y-13214632D01*
X6165501Y-13216466D01*
X6165496Y-13216468D01*
X6005729Y-13272373D01*
X6005724Y-13272375D01*
X6000478Y-13274211D01*
X5995771Y-13277168D01*
X5995768Y-13277170D01*
X5852446Y-13367225D01*
X5852441Y-13367228D01*
X5847738Y-13370184D01*
X5843811Y-13374110D01*
X5843807Y-13374114D01*
X5724114Y-13493807D01*
X5724110Y-13493811D01*
X5720184Y-13497738D01*
X5717230Y-13502439D01*
X5717223Y-13502448D01*
X5692356Y-13542025D01*
X5655444Y-13576532D01*
X5606309Y-13588328D01*
X5557754Y-13574339D01*
X5522427Y-13538210D01*
X5509531Y-13489353D01*
X5509531Y3594355D01*
X5511638Y3614671D01*
X5512390Y3618258D01*
X5514073Y3626284D01*
X5510291Y3656625D01*
X5509967Y3661839D01*
X5509869Y3661831D01*
X5509531Y3665907D01*
X5509531Y3670009D01*
X5506271Y3689540D01*
X5505688Y3693545D01*
X5500619Y3734215D01*
X5499604Y3742362D01*
X5496344Y3749029D01*
X5495123Y3756350D01*
X5471693Y3799642D01*
X5469838Y3803248D01*
X5469455Y3804030D01*
X5448229Y3847453D01*
X5442980Y3852701D01*
X5439449Y3859227D01*
X5403251Y3892548D01*
X5400347Y3895333D01*
X-3430504Y12726186D01*
X-3451964Y12758304D01*
X-3459500Y12796190D01*
X-3459500Y13220110D01*
X-3447147Y13267998D01*
X-3413171Y13303936D01*
X-3312446Y13367225D01*
X-3312441Y13367228D01*
X-3307738Y13370184D01*
X-3303811Y13374110D01*
X-3303807Y13374114D01*
X-3184114Y13493807D01*
X-3184110Y13493811D01*
X-3180184Y13497738D01*
X-3177228Y13502441D01*
X-3177225Y13502446D01*
X-3087170Y13645768D01*
X-3087168Y13645771D01*
X-3084211Y13650478D01*
X-3082375Y13655724D01*
X-3082373Y13655729D01*
X-3026468Y13815496D01*
X-3026466Y13815501D01*
X-3024632Y13820745D01*
X-3024010Y13826259D01*
X-3024009Y13826267D01*
X-3009809Y13952300D01*
X-3009808Y13952307D01*
X-3009500Y13955046D01*
X-2070500Y13955046D01*
X-2055368Y13820745D01*
X-1995789Y13650478D01*
X-1899816Y13497738D01*
X-1772262Y13370184D01*
X-1619522Y13274211D01*
X-1614271Y13272373D01*
X-1614270Y13272373D01*
X-1454503Y13216468D01*
X-1454500Y13216467D01*
X-1449255Y13214632D01*
X-1443738Y13214010D01*
X-1443732Y13214009D01*
X-1275520Y13195057D01*
X-1270000Y13194435D01*
X-1264480Y13195057D01*
X-1096267Y13214009D01*
X-1096259Y13214010D01*
X-1090745Y13214632D01*
X-1085501Y13216466D01*
X-1085496Y13216468D01*
X-925729Y13272373D01*
X-925724Y13272375D01*
X-920478Y13274211D01*
X-915771Y13277168D01*
X-915768Y13277170D01*
X-772446Y13367225D01*
X-772441Y13367228D01*
X-767738Y13370184D01*
X-763811Y13374110D01*
X-763807Y13374114D01*
X-644114Y13493807D01*
X-644110Y13493811D01*
X-640184Y13497738D01*
X-637228Y13502441D01*
X-637225Y13502446D01*
X-547170Y13645768D01*
X-547168Y13645771D01*
X-544211Y13650478D01*
X-542375Y13655724D01*
X-542373Y13655729D01*
X-486468Y13815496D01*
X-486466Y13815501D01*
X-484632Y13820745D01*
X-484010Y13826259D01*
X-484009Y13826267D01*
X-469809Y13952300D01*
X-469808Y13952307D01*
X-469500Y13955046D01*
X-469500Y14444954D01*
X-469809Y14447699D01*
X-484009Y14573732D01*
X-484010Y14573738D01*
X-484632Y14579255D01*
X-544211Y14749522D01*
X-640184Y14902262D01*
X-767738Y15029816D01*
X-920478Y15125789D01*
X-1090745Y15185368D01*
X-1270000Y15205565D01*
X-1449255Y15185368D01*
X-1619522Y15125789D01*
X-1772262Y15029816D01*
X-1899816Y14902262D01*
X-1995789Y14749522D01*
X-2055368Y14579255D01*
X-2070500Y14444954D01*
X-2070500Y13955046D01*
X-3009500Y13955046D01*
X-3009500Y14444954D01*
X-3009809Y14447699D01*
X-3024009Y14573732D01*
X-3024010Y14573738D01*
X-3024632Y14579255D01*
X-3084211Y14749522D01*
X-3180184Y14902262D01*
X-3307738Y15029816D01*
X-3460478Y15125789D01*
X-3630745Y15185368D01*
X-3810000Y15205565D01*
X-3989255Y15185368D01*
X-4159522Y15125789D01*
X-4312262Y15029816D01*
X-4439816Y14902262D01*
X-4535789Y14749522D01*
X-4595368Y14579255D01*
X-4610500Y14444954D01*
X-4610500Y13955046D01*
X-4595368Y13820745D01*
X-4535789Y13650478D01*
X-4439816Y13497738D01*
X-4312262Y13370184D01*
X-4307553Y13367225D01*
X-4206829Y13303936D01*
X-4172853Y13267998D01*
X-4160500Y13220110D01*
X-4160500Y12745190D01*
X-4177185Y12690189D01*
X-4221614Y12653726D01*
X-4278814Y12648092D01*
X-4329504Y12675186D01*
X-5521850Y13867532D01*
X-5545290Y13904836D01*
X-5550224Y13948617D01*
X-5549809Y13952293D01*
X-5549807Y13952312D01*
X-5549500Y13955046D01*
X-5549500Y14444954D01*
X-5549809Y14447699D01*
X-5564009Y14573732D01*
X-5564010Y14573738D01*
X-5564632Y14579255D01*
X-5624211Y14749522D01*
X-5720184Y14902262D01*
X-5847738Y15029816D01*
X-6000478Y15125789D01*
X-6170745Y15185368D01*
X-6350000Y15205565D01*
X-6529255Y15185368D01*
X-6699522Y15125789D01*
X-6852262Y15029816D01*
X-6979816Y14902262D01*
X-7075789Y14749522D01*
X-7135368Y14579255D01*
X-7150500Y14444954D01*
X-7150500Y13955046D01*
X-8089500Y13955046D01*
X-8089500Y14444954D01*
X-8089809Y14447699D01*
X-8104009Y14573732D01*
X-8104010Y14573738D01*
X-8104632Y14579255D01*
X-8164211Y14749522D01*
X-8260184Y14902262D01*
X-8387738Y15029816D01*
X-8540478Y15125789D01*
X-8710745Y15185368D01*
X-8890000Y15205565D01*
X-9069255Y15185368D01*
X-9239522Y15125789D01*
X-9392262Y15029816D01*
X-9519816Y14902262D01*
X-9615789Y14749522D01*
X-9675368Y14579255D01*
X-9690500Y14444954D01*
X-9690500Y13955046D01*
X-9675368Y13820745D01*
X-9615789Y13650478D01*
X-9519816Y13497738D01*
X-9392262Y13370184D01*
X-9387553Y13367225D01*
X-9387550Y13367223D01*
X-9333550Y13333292D01*
X-9295482Y13289056D01*
X-9288948Y13231062D01*
X-9316216Y13179464D01*
X-10514884Y11980796D01*
X-10530734Y11967926D01*
X-10540669Y11961437D01*
X-10559458Y11937295D01*
X-10562902Y11933397D01*
X-10562827Y11933333D01*
X-10565473Y11930207D01*
X-10568375Y11927307D01*
X-10579880Y11911190D01*
X-10582270Y11907985D01*
X-10612517Y11869126D01*
X-10614926Y11862107D01*
X-10619240Y11856066D01*
X-10633291Y11808866D01*
X-10634508Y11805068D01*
X-10650500Y11758488D01*
X-10650500Y11751065D01*
X-10652617Y11743954D01*
X-10650596Y11695095D01*
X-10650585Y11694824D01*
X-10650500Y11690733D01*
X-10650500Y-11363213D01*
X-10660710Y-11407000D01*
X-10689232Y-11441754D01*
X-10728282Y-11471718D01*
X-10824536Y-11597159D01*
X-10885044Y-11743238D01*
X-10905682Y-11900000D01*
X-11804316Y-11900000D01*
X-12372592Y-11331724D01*
X-12396334Y-11293544D01*
X-12400741Y-11248801D01*
X-12395165Y-11206437D01*
X-12395165Y-11206434D01*
X-12394318Y-11200000D01*
X-12395165Y-11193566D01*
X-12414108Y-11049673D01*
X-12414109Y-11049666D01*
X-12414956Y-11043238D01*
X-12417440Y-11037240D01*
X-12472980Y-10903154D01*
X-12472982Y-10903149D01*
X-12475464Y-10897159D01*
X-12479411Y-10892015D01*
X-12479414Y-10892010D01*
X-12567763Y-10776871D01*
X-12567767Y-10776866D01*
X-12571718Y-10771718D01*
X-12576866Y-10767767D01*
X-12576871Y-10767763D01*
X-12692010Y-10679414D01*
X-12692015Y-10679411D01*
X-12697159Y-10675464D01*
X-12703149Y-10672982D01*
X-12703154Y-10672980D01*
X-12837240Y-10617440D01*
X-12837243Y-10617439D01*
X-12843238Y-10614956D01*
X-12849666Y-10614109D01*
X-12849673Y-10614108D01*
X-12993566Y-10595165D01*
X-13000000Y-10594318D01*
X-13006434Y-10595165D01*
X-13150326Y-10614108D01*
X-13150331Y-10614109D01*
X-13156762Y-10614956D01*
X-13162758Y-10617439D01*
X-13162759Y-10617440D01*
X-13296845Y-10672980D01*
X-13296847Y-10672981D01*
X-13302841Y-10675464D01*
X-13428282Y-10771718D01*
X-13524536Y-10897159D01*
X-13585044Y-11043238D01*
X-13605682Y-11200000D01*
X-19924500Y-11200000D01*
X-19924500Y19901000D01*
X-19911237Y19950500D01*
X-19875000Y19986737D01*
X-19825500Y20000000D01*
X-11013033Y20000000D01*
X-11000000Y20000000D01*
X-11000000Y28825500D01*
X-10986737Y28875000D01*
X-10950500Y28911237D01*
X-10901000Y28924500D01*
X10901000Y28924500D01*
X10950500Y28911237D01*
G37*
G04 #@! TD.AperFunction*
G04 #@! TD*
M02*
