G04 #@! TF.GenerationSoftware,KiCad,Pcbnew,(7.0.0)*
G04 #@! TF.CreationDate,2023-03-12T18:52:52+09:00*
G04 #@! TF.ProjectId,Pmod_MatrixLED,506d6f64-5f4d-4617-9472-69784c45442e,rev?*
G04 #@! TF.SameCoordinates,Original*
G04 #@! TF.FileFunction,Copper,L1,Top*
G04 #@! TF.FilePolarity,Positive*
%FSLAX46Y46*%
G04 Gerber Fmt 4.6, Leading zero omitted, Abs format (unit mm)*
G04 Created by KiCad (PCBNEW (7.0.0)) date 2023-03-12 18:52:52*
%MOMM*%
%LPD*%
G01*
G04 APERTURE LIST*
G04 Aperture macros list*
%AMRoundRect*
0 Rectangle with rounded corners*
0 $1 Rounding radius*
0 $2 $3 $4 $5 $6 $7 $8 $9 X,Y pos of 4 corners*
0 Add a 4 corners polygon primitive as box body*
4,1,4,$2,$3,$4,$5,$6,$7,$8,$9,$2,$3,0*
0 Add four circle primitives for the rounded corners*
1,1,$1+$1,$2,$3*
1,1,$1+$1,$4,$5*
1,1,$1+$1,$6,$7*
1,1,$1+$1,$8,$9*
0 Add four rect primitives between the rounded corners*
20,1,$1+$1,$2,$3,$4,$5,0*
20,1,$1+$1,$4,$5,$6,$7,0*
20,1,$1+$1,$6,$7,$8,$9,0*
20,1,$1+$1,$8,$9,$2,$3,0*%
G04 Aperture macros list end*
G04 #@! TA.AperFunction,NonConductor*
%ADD10C,0.150000*%
G04 #@! TD*
G04 #@! TA.AperFunction,ComponentPad*
%ADD11R,1.600000X1.600000*%
G04 #@! TD*
G04 #@! TA.AperFunction,ComponentPad*
%ADD12O,1.600000X1.600000*%
G04 #@! TD*
G04 #@! TA.AperFunction,ComponentPad*
%ADD13C,1.400000*%
G04 #@! TD*
G04 #@! TA.AperFunction,SMDPad,CuDef*
%ADD14RoundRect,0.200000X0.275000X-0.200000X0.275000X0.200000X-0.275000X0.200000X-0.275000X-0.200000X0*%
G04 #@! TD*
G04 #@! TA.AperFunction,SMDPad,CuDef*
%ADD15O,0.600000X1.650000*%
G04 #@! TD*
G04 #@! TA.AperFunction,ComponentPad*
%ADD16O,1.400000X1.400000*%
G04 #@! TD*
G04 #@! TA.AperFunction,ComponentPad*
%ADD17O,1.200000X1.600000*%
G04 #@! TD*
G04 #@! TA.AperFunction,ViaPad*
%ADD18C,0.800000*%
G04 #@! TD*
G04 #@! TA.AperFunction,Conductor*
%ADD19C,0.300000*%
G04 #@! TD*
G04 APERTURE END LIST*
D10*
X-11598530Y24000000D02*
G75*
G03*
X-11598530Y24000000I-3401470J0D01*
G01*
D11*
G04 #@! TO.P,J1,1,Pin_1*
G04 #@! TO.N,/PMOD0_P1_CATHODE1*
X5079999Y-34489999D03*
D12*
G04 #@! TO.P,J1,2,Pin_2*
G04 #@! TO.N,/PMOD0_P2_CATHODE3*
X7619999Y-34489999D03*
G04 #@! TO.P,J1,3,Pin_3*
G04 #@! TO.N,/PMOD0_P3_CATHODE5*
X10159999Y-34489999D03*
G04 #@! TO.P,J1,4,Pin_4*
G04 #@! TO.N,/PMOD0_P4_CATHODE7*
X12699999Y-34489999D03*
G04 #@! TO.P,J1,5,Pin_5*
G04 #@! TO.N,GND*
X15239999Y-34489999D03*
G04 #@! TO.P,J1,6,Pin_6*
G04 #@! TO.N,+3V3*
X17779999Y-34489999D03*
G04 #@! TO.P,J1,7,Pin_7*
G04 #@! TO.N,/PMOD0_P7_CATHODE0*
X5079999Y-37029999D03*
G04 #@! TO.P,J1,8,Pin_8*
G04 #@! TO.N,/PMOD0_P8_CATHODE2*
X7619999Y-37029999D03*
G04 #@! TO.P,J1,9,Pin_9*
G04 #@! TO.N,/PMOD0_P9_CATHODE4*
X10159999Y-37029999D03*
G04 #@! TO.P,J1,10,Pin_10*
G04 #@! TO.N,/PMOD0_P10_CATHODE6*
X12699999Y-37029999D03*
G04 #@! TO.P,J1,11,Pin_11*
G04 #@! TO.N,GND*
X15239999Y-37029999D03*
G04 #@! TO.P,J1,12,Pin_12*
G04 #@! TO.N,+3V3*
X17779999Y-37029999D03*
G04 #@! TD*
D13*
G04 #@! TO.P,R8,1*
G04 #@! TO.N,/PMOD1_P4_ANODE7*
X-2540000Y-27940000D03*
D14*
X-2540000Y-26225000D03*
D15*
X-2539999Y-26774999D03*
D14*
G04 #@! TO.P,R8,2*
G04 #@! TO.N,Net-(U1-COL8)*
X-2540000Y-24575000D03*
D15*
X-2539999Y-24024999D03*
D16*
X-2539999Y-22859999D03*
G04 #@! TD*
D13*
G04 #@! TO.P,R4,1*
G04 #@! TO.N,/PMOD1_P2_ANODE3*
X-12700000Y-27940000D03*
D14*
X-12700000Y-26225000D03*
D15*
X-12699999Y-26774999D03*
D14*
G04 #@! TO.P,R4,2*
G04 #@! TO.N,Net-(U1-COL4)*
X-12700000Y-24575000D03*
D15*
X-12699999Y-24024999D03*
D16*
X-12699999Y-22859999D03*
G04 #@! TD*
D13*
G04 #@! TO.P,R2,1*
G04 #@! TO.N,/PMOD1_P1_ANODE1*
X-17780000Y-27940000D03*
D14*
X-17780000Y-26225000D03*
D15*
X-17779999Y-26774999D03*
D14*
G04 #@! TO.P,R2,2*
G04 #@! TO.N,Net-(U1-COL2)*
X-17780000Y-24575000D03*
D15*
X-17779999Y-24024999D03*
D16*
X-17779999Y-22859999D03*
G04 #@! TD*
D13*
G04 #@! TO.P,R3,1*
G04 #@! TO.N,/PMOD1_P8_ANODE2*
X-10160000Y-27940000D03*
D14*
X-10160000Y-26225000D03*
D15*
X-10159999Y-26774999D03*
D14*
G04 #@! TO.P,R3,2*
G04 #@! TO.N,Net-(U1-COL3)*
X-10160000Y-24575000D03*
D15*
X-10159999Y-24024999D03*
D16*
X-10159999Y-22859999D03*
G04 #@! TD*
D13*
G04 #@! TO.P,R1,1*
G04 #@! TO.N,/PMOD1_P7_ANODE0*
X-15240000Y-27940000D03*
D14*
X-15240000Y-26225000D03*
D15*
X-15239999Y-26774999D03*
D14*
G04 #@! TO.P,R1,2*
G04 #@! TO.N,Net-(U1-COL1)*
X-15240000Y-24575000D03*
D15*
X-15239999Y-24024999D03*
D16*
X-15239999Y-22859999D03*
G04 #@! TD*
D13*
G04 #@! TO.P,R6,1*
G04 #@! TO.N,/PMOD1_P3_ANODE5*
X-7620000Y-27940000D03*
D14*
X-7620000Y-26225000D03*
D15*
X-7619999Y-26774999D03*
D14*
G04 #@! TO.P,R6,2*
G04 #@! TO.N,Net-(U1-COL6)*
X-7620000Y-24575000D03*
D15*
X-7619999Y-24024999D03*
D16*
X-7619999Y-22859999D03*
G04 #@! TD*
D11*
G04 #@! TO.P,J2,1,Pin_1*
G04 #@! TO.N,/PMOD1_P1_ANODE1*
X-17779999Y-34489999D03*
D12*
G04 #@! TO.P,J2,2,Pin_2*
G04 #@! TO.N,/PMOD1_P2_ANODE3*
X-15239999Y-34489999D03*
G04 #@! TO.P,J2,3,Pin_3*
G04 #@! TO.N,/PMOD1_P3_ANODE5*
X-12699999Y-34489999D03*
G04 #@! TO.P,J2,4,Pin_4*
G04 #@! TO.N,/PMOD1_P4_ANODE7*
X-10159999Y-34489999D03*
G04 #@! TO.P,J2,5,Pin_5*
G04 #@! TO.N,GND*
X-7619999Y-34489999D03*
G04 #@! TO.P,J2,6,Pin_6*
G04 #@! TO.N,+3V3*
X-5079999Y-34489999D03*
G04 #@! TO.P,J2,7,Pin_7*
G04 #@! TO.N,/PMOD1_P7_ANODE0*
X-17779999Y-37029999D03*
G04 #@! TO.P,J2,8,Pin_8*
G04 #@! TO.N,/PMOD1_P8_ANODE2*
X-15239999Y-37029999D03*
G04 #@! TO.P,J2,9,Pin_9*
G04 #@! TO.N,/PMOD1_P9_ANODE4*
X-12699999Y-37029999D03*
G04 #@! TO.P,J2,10,Pin_10*
G04 #@! TO.N,/PMOD1_P10_ANODE6*
X-10159999Y-37029999D03*
G04 #@! TO.P,J2,11,Pin_11*
G04 #@! TO.N,GND*
X-7619999Y-37029999D03*
G04 #@! TO.P,J2,12,Pin_12*
G04 #@! TO.N,+3V3*
X-5079999Y-37029999D03*
G04 #@! TD*
D13*
G04 #@! TO.P,R5,1*
G04 #@! TO.N,/PMOD1_P9_ANODE4*
X-5080000Y-27940000D03*
D14*
X-5080000Y-26225000D03*
D15*
X-5079999Y-26774999D03*
D14*
G04 #@! TO.P,R5,2*
G04 #@! TO.N,Net-(U1-COL5)*
X-5080000Y-24575000D03*
D15*
X-5079999Y-24024999D03*
D16*
X-5079999Y-22859999D03*
G04 #@! TD*
D17*
G04 #@! TO.P,U1,1,ROW5*
G04 #@! TO.N,/PMOD0_P9_CATHODE4*
X-8889999Y-14199999D03*
G04 #@! TO.P,U1,2,ROW7*
G04 #@! TO.N,/PMOD0_P10_CATHODE6*
X-6349999Y-14199999D03*
G04 #@! TO.P,U1,3,COL2*
G04 #@! TO.N,Net-(U1-COL2)*
X-3809999Y-14199999D03*
G04 #@! TO.P,U1,4,COL3*
G04 #@! TO.N,Net-(U1-COL3)*
X-1269999Y-14199999D03*
G04 #@! TO.P,U1,5,ROW8*
G04 #@! TO.N,/PMOD0_P4_CATHODE7*
X1269999Y-14199999D03*
G04 #@! TO.P,U1,6,COL5*
G04 #@! TO.N,Net-(U1-COL5)*
X3809999Y-14199999D03*
G04 #@! TO.P,U1,7,ROW6*
G04 #@! TO.N,/PMOD0_P3_CATHODE5*
X6349999Y-14199999D03*
G04 #@! TO.P,U1,8,ROW3*
G04 #@! TO.N,/PMOD0_P8_CATHODE2*
X8889999Y-14199999D03*
G04 #@! TO.P,U1,9,ROW1*
G04 #@! TO.N,/PMOD0_P7_CATHODE0*
X8889999Y14199999D03*
G04 #@! TO.P,U1,10,COL4*
G04 #@! TO.N,Net-(U1-COL4)*
X6349999Y14199999D03*
G04 #@! TO.P,U1,11,COL6*
G04 #@! TO.N,Net-(U1-COL6)*
X3809999Y14199999D03*
G04 #@! TO.P,U1,12,ROW4*
G04 #@! TO.N,/PMOD0_P2_CATHODE3*
X1269999Y14199999D03*
G04 #@! TO.P,U1,13,COL1*
G04 #@! TO.N,Net-(U1-COL1)*
X-1269999Y14199999D03*
G04 #@! TO.P,U1,14,ROW2*
G04 #@! TO.N,/PMOD0_P1_CATHODE1*
X-3809999Y14199999D03*
G04 #@! TO.P,U1,15,COL7*
G04 #@! TO.N,Net-(U1-COL7)*
X-6349999Y14199999D03*
G04 #@! TO.P,U1,16,COL8*
G04 #@! TO.N,Net-(U1-COL8)*
X-8889999Y14199999D03*
G04 #@! TD*
D13*
G04 #@! TO.P,R7,1*
G04 #@! TO.N,/PMOD1_P10_ANODE6*
X0Y-27940000D03*
D14*
X0Y-26225000D03*
D15*
X0Y-26774999D03*
D14*
G04 #@! TO.P,R7,2*
G04 #@! TO.N,Net-(U1-COL7)*
X0Y-24575000D03*
D15*
X0Y-24024999D03*
D16*
X0Y-22859999D03*
G04 #@! TD*
D18*
G04 #@! TO.N,GND*
X-1100000Y-17700000D03*
X-11900000Y-10000000D03*
X1800000Y12500000D03*
X4000000Y-32700000D03*
X8700000Y-11000000D03*
X1100000Y-11500000D03*
X-16700000Y-17700000D03*
X4700000Y9400000D03*
X-2100000Y8700000D03*
X4300000Y-20000000D03*
X-16000000Y-14100000D03*
X11100000Y-14100000D03*
X3000000Y7100000D03*
X2400000Y-21900000D03*
X-2500000Y-13200000D03*
X-7700000Y-15300000D03*
X11400000Y-33000000D03*
X-7900000Y-18900000D03*
X6700000Y9900000D03*
X900000Y9100000D03*
X-900000Y7500000D03*
X2300000Y-34900000D03*
X6200000Y-11000000D03*
X3900000Y2600000D03*
X-600000Y-11600000D03*
X200000Y-18900000D03*
X-300000Y10300000D03*
X1200000Y5100000D03*
X-5400000Y-16800000D03*
X1500000Y-20200000D03*
X-13900000Y-12100000D03*
X-11300000Y-14000000D03*
X3700000Y-11000000D03*
X-13500000Y-14300000D03*
G04 #@! TO.N,Net-(U1-COL1)*
X-15200000Y-12800000D03*
G04 #@! TO.N,/PMOD0_P7_CATHODE0*
X6000000Y7800000D03*
G04 #@! TO.N,Net-(U1-COL3)*
X-6844622Y-19544622D03*
G04 #@! TO.N,Net-(U1-COL4)*
X-11800000Y-12900000D03*
X-13000000Y-11200000D03*
G04 #@! TO.N,Net-(U1-COL6)*
X200000Y5900000D03*
G04 #@! TO.N,Net-(U1-COL8)*
X-10300000Y-11900000D03*
G04 #@! TD*
D19*
G04 #@! TO.N,Net-(U1-COL1)*
X-2300000Y17200000D02*
X-1270000Y16170000D01*
X-15200000Y12700000D02*
X-10700000Y17200000D01*
X-10700000Y17200000D02*
X-2300000Y17200000D01*
X-15200000Y-12800000D02*
X-15200000Y12700000D01*
X-1270000Y16170000D02*
X-1270000Y14200000D01*
G04 #@! TO.N,Net-(U1-COL2)*
X-3810000Y-12390000D02*
X-3810000Y-14200000D01*
X-17780000Y-17280000D02*
X-11300000Y-10800000D01*
X-17780000Y-22860000D02*
X-17780000Y-17280000D01*
X-11300000Y-10800000D02*
X-5400000Y-10800000D01*
X-5400000Y-10800000D02*
X-3810000Y-12390000D01*
G04 #@! TO.N,/PMOD0_P3_CATHODE5*
X6500000Y-12800000D02*
X6350000Y-12950000D01*
X9720000Y-12800000D02*
X6500000Y-12800000D01*
X10160000Y-34490000D02*
X10160000Y-13240000D01*
X10160000Y-13240000D02*
X9720000Y-12800000D01*
X6350000Y-12950000D02*
X6350000Y-14200000D01*
G04 #@! TO.N,/PMOD0_P4_CATHODE7*
X12700000Y-14500000D02*
X10400000Y-12200000D01*
X10400000Y-12200000D02*
X1800000Y-12200000D01*
X1270000Y-12730000D02*
X1270000Y-14200000D01*
X1800000Y-12200000D02*
X1270000Y-12730000D01*
X12700000Y-34490000D02*
X12700000Y-14500000D01*
G04 #@! TO.N,/PMOD0_P7_CATHODE0*
X6000000Y7800000D02*
X8890000Y10690000D01*
X8890000Y10690000D02*
X8890000Y14200000D01*
G04 #@! TO.N,/PMOD0_P8_CATHODE2*
X7620000Y-37030000D02*
X8890000Y-35760000D01*
X8890000Y-35760000D02*
X8890000Y-14200000D01*
G04 #@! TO.N,/PMOD0_P9_CATHODE4*
X-8890000Y-12690000D02*
X-8890000Y-14200000D01*
X9010489Y-38179511D02*
X4379511Y-38179511D01*
X4379511Y-38179511D02*
X1449022Y-35249022D01*
X-8600000Y-12400000D02*
X-8890000Y-12690000D01*
X1449022Y-21649022D02*
X-4709520Y-15490480D01*
X-4709520Y-15490480D02*
X-4709520Y-13490480D01*
X-5800000Y-12400000D02*
X-8600000Y-12400000D01*
X1449022Y-35249022D02*
X1449022Y-21649022D01*
X-4709520Y-13490480D02*
X-5800000Y-12400000D01*
X10160000Y-37030000D02*
X9010489Y-38179511D01*
G04 #@! TO.N,/PMOD0_P10_CATHODE6*
X11100979Y-38629021D02*
X4029021Y-38629021D01*
X-6350000Y-14485704D02*
X-6350000Y-14200000D01*
X999511Y-21835215D02*
X-6350000Y-14485704D01*
X12700000Y-37030000D02*
X11100979Y-38629021D01*
X999511Y-35599511D02*
X999511Y-21835215D01*
X4029021Y-38629021D02*
X999511Y-35599511D01*
G04 #@! TO.N,/PMOD1_P1_ANODE1*
X-17780000Y-34490000D02*
X-17780000Y-27940000D01*
G04 #@! TO.N,/PMOD1_P2_ANODE3*
X-15240000Y-34490000D02*
X-15240000Y-30480000D01*
X-15240000Y-30480000D02*
X-12700000Y-27940000D01*
G04 #@! TO.N,/PMOD1_P3_ANODE5*
X-12700000Y-33020000D02*
X-7620000Y-27940000D01*
X-12700000Y-34490000D02*
X-12700000Y-33020000D01*
G04 #@! TO.N,/PMOD1_P4_ANODE7*
X-4200000Y-29600000D02*
X-2540000Y-27940000D01*
X-10160000Y-34490000D02*
X-5270000Y-29600000D01*
X-5270000Y-29600000D02*
X-4200000Y-29600000D01*
G04 #@! TO.N,/PMOD1_P7_ANODE0*
X-16630489Y-29330489D02*
X-15240000Y-27940000D01*
X-16630489Y-35880489D02*
X-16630489Y-29330489D01*
X-17780000Y-37030000D02*
X-16630489Y-35880489D01*
G04 #@! TO.N,/PMOD1_P8_ANODE2*
X-14090489Y-35880489D02*
X-14090489Y-31870489D01*
X-15240000Y-37030000D02*
X-14090489Y-35880489D01*
X-14090489Y-31870489D02*
X-10160000Y-27940000D01*
G04 #@! TO.N,/PMOD1_P9_ANODE4*
X-8000000Y-30200000D02*
X-7340000Y-30200000D01*
X-11550489Y-35880489D02*
X-11550489Y-33750489D01*
X-7340000Y-30200000D02*
X-5080000Y-27940000D01*
X-11550489Y-33750489D02*
X-8000000Y-30200000D01*
X-12700000Y-37030000D02*
X-11550489Y-35880489D01*
G04 #@! TO.N,/PMOD1_P10_ANODE6*
X-7204345Y-35700000D02*
X-6229511Y-34725166D01*
X-6229511Y-33229511D02*
X-3400000Y-30400000D01*
X-3400000Y-30400000D02*
X-2460000Y-30400000D01*
X-8830000Y-35700000D02*
X-7204345Y-35700000D01*
X-2460000Y-30400000D02*
X0Y-27940000D01*
X-10160000Y-37030000D02*
X-8830000Y-35700000D01*
X-6229511Y-34725166D02*
X-6229511Y-33229511D01*
G04 #@! TO.N,Net-(U1-COL3)*
X-10160000Y-22860000D02*
X-6844622Y-19544622D01*
G04 #@! TO.N,Net-(U1-COL4)*
X5200000Y16700000D02*
X6350000Y15550000D01*
X-13000000Y-3400000D02*
X2600000Y12200000D01*
X-13000000Y-11200000D02*
X-13000000Y-3400000D01*
X3700000Y16700000D02*
X5200000Y16700000D01*
X-12700000Y-13800000D02*
X-11800000Y-12900000D01*
X2600000Y12200000D02*
X2600000Y15600000D01*
X6350000Y15550000D02*
X6350000Y14200000D01*
X2600000Y15600000D02*
X3700000Y16700000D01*
X-12700000Y-22860000D02*
X-12700000Y-13800000D01*
G04 #@! TO.N,Net-(U1-COL6)*
X3810000Y9510000D02*
X3810000Y14200000D01*
X200000Y5900000D02*
X3810000Y9510000D01*
G04 #@! TO.N,Net-(U1-COL8)*
X-2540000Y-22860000D02*
X-8100000Y-17300000D01*
X-10300000Y-15100000D02*
X-10300000Y-11900000D01*
X-8100000Y-17300000D02*
X-10300000Y-15100000D01*
G04 #@! TD*
G04 #@! TA.AperFunction,Conductor*
G04 #@! TO.N,GND*
G36*
X10950500Y28911237D02*
G01*
X10986737Y28875000D01*
X11000000Y28825500D01*
X11000000Y20000000D01*
X19825500Y20000000D01*
X19875000Y19986737D01*
X19911237Y19950500D01*
X19924500Y19901000D01*
X19924500Y-40825500D01*
X19911237Y-40875000D01*
X19875000Y-40911237D01*
X19825500Y-40924500D01*
X-19825500Y-40924500D01*
X-19875000Y-40911237D01*
X-19911237Y-40875000D01*
X-19924500Y-40825500D01*
X-19924500Y-37030000D01*
X-18785341Y-37030000D01*
X-18766024Y-37226132D01*
X-18708814Y-37414727D01*
X-18615910Y-37588538D01*
X-18490883Y-37740883D01*
X-18338538Y-37865910D01*
X-18164727Y-37958814D01*
X-17976132Y-38016024D01*
X-17780000Y-38035341D01*
X-17583868Y-38016024D01*
X-17395273Y-37958814D01*
X-17221462Y-37865910D01*
X-17069117Y-37740883D01*
X-17050249Y-37717892D01*
X-16947173Y-37592295D01*
X-16947171Y-37592292D01*
X-16944090Y-37588538D01*
X-16851186Y-37414727D01*
X-16849715Y-37409878D01*
X-16795388Y-37230788D01*
X-16795387Y-37230784D01*
X-16793976Y-37226132D01*
X-16774659Y-37030000D01*
X-16793976Y-36833868D01*
X-16795386Y-36829217D01*
X-16795388Y-36829211D01*
X-16845226Y-36664917D01*
X-16846522Y-36612124D01*
X-16820493Y-36566175D01*
X-16415608Y-36161290D01*
X-16399750Y-36148414D01*
X-16396688Y-36146413D01*
X-16396687Y-36146412D01*
X-16389820Y-36141926D01*
X-16371042Y-36117800D01*
X-16367584Y-36113884D01*
X-16367659Y-36113821D01*
X-16365003Y-36110685D01*
X-16362114Y-36107796D01*
X-16350621Y-36091698D01*
X-16348188Y-36088436D01*
X-16341229Y-36079496D01*
X-16317972Y-36049615D01*
X-16315562Y-36042596D01*
X-16311249Y-36036555D01*
X-16308909Y-36028696D01*
X-16308908Y-36028694D01*
X-16297209Y-35989398D01*
X-16295961Y-35985503D01*
X-16282651Y-35946733D01*
X-16282650Y-35946729D01*
X-16279989Y-35938977D01*
X-16279989Y-35931554D01*
X-16277872Y-35924443D01*
X-16278239Y-35915581D01*
X-16279904Y-35875313D01*
X-16279989Y-35871222D01*
X-16279989Y-35061963D01*
X-16266400Y-35011903D01*
X-16229363Y-34975586D01*
X-16179046Y-34962982D01*
X-16129262Y-34977551D01*
X-16093679Y-35015293D01*
X-16075910Y-35048538D01*
X-15950883Y-35200883D01*
X-15798538Y-35325910D01*
X-15624727Y-35418814D01*
X-15436132Y-35476024D01*
X-15240000Y-35495341D01*
X-15043868Y-35476024D01*
X-14855273Y-35418814D01*
X-14681462Y-35325910D01*
X-14602792Y-35261347D01*
X-14552108Y-35239621D01*
X-14497661Y-35248381D01*
X-14456349Y-35284911D01*
X-14440989Y-35337876D01*
X-14440989Y-35694299D01*
X-14448525Y-35732185D01*
X-14469985Y-35764303D01*
X-14776175Y-36070493D01*
X-14822124Y-36096522D01*
X-14874917Y-36095226D01*
X-15039211Y-36045388D01*
X-15039217Y-36045386D01*
X-15043868Y-36043976D01*
X-15048708Y-36043499D01*
X-15048710Y-36043499D01*
X-15235157Y-36025136D01*
X-15240000Y-36024659D01*
X-15244843Y-36025136D01*
X-15422120Y-36042596D01*
X-15436132Y-36043976D01*
X-15440784Y-36045387D01*
X-15440788Y-36045388D01*
X-15620070Y-36099773D01*
X-15620072Y-36099774D01*
X-15624727Y-36101186D01*
X-15629017Y-36103479D01*
X-15629019Y-36103480D01*
X-15646728Y-36112946D01*
X-15798538Y-36194090D01*
X-15802292Y-36197171D01*
X-15802295Y-36197173D01*
X-15947118Y-36316027D01*
X-15950883Y-36319117D01*
X-16075910Y-36471462D01*
X-16168814Y-36645273D01*
X-16226024Y-36833868D01*
X-16245341Y-37030000D01*
X-16226024Y-37226132D01*
X-16168814Y-37414727D01*
X-16075910Y-37588538D01*
X-15950883Y-37740883D01*
X-15798538Y-37865910D01*
X-15624727Y-37958814D01*
X-15436132Y-38016024D01*
X-15240000Y-38035341D01*
X-15043868Y-38016024D01*
X-14855273Y-37958814D01*
X-14681462Y-37865910D01*
X-14529117Y-37740883D01*
X-14510249Y-37717892D01*
X-14407173Y-37592295D01*
X-14407171Y-37592292D01*
X-14404090Y-37588538D01*
X-14311186Y-37414727D01*
X-14309715Y-37409878D01*
X-14255388Y-37230788D01*
X-14255387Y-37230784D01*
X-14253976Y-37226132D01*
X-14234659Y-37030000D01*
X-14253976Y-36833868D01*
X-14255386Y-36829217D01*
X-14255388Y-36829211D01*
X-14305226Y-36664917D01*
X-14306522Y-36612124D01*
X-14280493Y-36566175D01*
X-13875608Y-36161290D01*
X-13859750Y-36148414D01*
X-13856688Y-36146413D01*
X-13856687Y-36146412D01*
X-13849820Y-36141926D01*
X-13831042Y-36117800D01*
X-13827584Y-36113884D01*
X-13827659Y-36113821D01*
X-13825003Y-36110685D01*
X-13822114Y-36107796D01*
X-13810621Y-36091698D01*
X-13808188Y-36088436D01*
X-13801229Y-36079496D01*
X-13777972Y-36049615D01*
X-13775562Y-36042596D01*
X-13771249Y-36036555D01*
X-13768909Y-36028696D01*
X-13768908Y-36028694D01*
X-13757209Y-35989398D01*
X-13755961Y-35985503D01*
X-13742651Y-35946733D01*
X-13742650Y-35946729D01*
X-13739989Y-35938977D01*
X-13739989Y-35931554D01*
X-13737872Y-35924443D01*
X-13738239Y-35915581D01*
X-13739904Y-35875313D01*
X-13739989Y-35871222D01*
X-13739989Y-35061963D01*
X-13726400Y-35011903D01*
X-13689363Y-34975586D01*
X-13639046Y-34962982D01*
X-13589262Y-34977551D01*
X-13553679Y-35015293D01*
X-13535910Y-35048538D01*
X-13410883Y-35200883D01*
X-13258538Y-35325910D01*
X-13084727Y-35418814D01*
X-12896132Y-35476024D01*
X-12700000Y-35495341D01*
X-12503868Y-35476024D01*
X-12315273Y-35418814D01*
X-12141462Y-35325910D01*
X-12062792Y-35261347D01*
X-12012108Y-35239621D01*
X-11957661Y-35248381D01*
X-11916349Y-35284911D01*
X-11900989Y-35337876D01*
X-11900989Y-35694299D01*
X-11908525Y-35732185D01*
X-11929985Y-35764303D01*
X-12236175Y-36070493D01*
X-12282124Y-36096522D01*
X-12334917Y-36095226D01*
X-12499211Y-36045388D01*
X-12499217Y-36045386D01*
X-12503868Y-36043976D01*
X-12508708Y-36043499D01*
X-12508710Y-36043499D01*
X-12695157Y-36025136D01*
X-12700000Y-36024659D01*
X-12704843Y-36025136D01*
X-12882120Y-36042596D01*
X-12896132Y-36043976D01*
X-12900784Y-36045387D01*
X-12900788Y-36045388D01*
X-13080070Y-36099773D01*
X-13080072Y-36099774D01*
X-13084727Y-36101186D01*
X-13089017Y-36103479D01*
X-13089019Y-36103480D01*
X-13106728Y-36112946D01*
X-13258538Y-36194090D01*
X-13262292Y-36197171D01*
X-13262295Y-36197173D01*
X-13407118Y-36316027D01*
X-13410883Y-36319117D01*
X-13535910Y-36471462D01*
X-13628814Y-36645273D01*
X-13686024Y-36833868D01*
X-13705341Y-37030000D01*
X-13686024Y-37226132D01*
X-13628814Y-37414727D01*
X-13535910Y-37588538D01*
X-13410883Y-37740883D01*
X-13258538Y-37865910D01*
X-13084727Y-37958814D01*
X-12896132Y-38016024D01*
X-12700000Y-38035341D01*
X-12503868Y-38016024D01*
X-12315273Y-37958814D01*
X-12141462Y-37865910D01*
X-11989117Y-37740883D01*
X-11970249Y-37717892D01*
X-11867173Y-37592295D01*
X-11867171Y-37592292D01*
X-11864090Y-37588538D01*
X-11771186Y-37414727D01*
X-11769715Y-37409878D01*
X-11715388Y-37230788D01*
X-11715387Y-37230784D01*
X-11713976Y-37226132D01*
X-11694659Y-37030000D01*
X-11713976Y-36833868D01*
X-11715386Y-36829217D01*
X-11715388Y-36829211D01*
X-11765226Y-36664917D01*
X-11766522Y-36612124D01*
X-11740493Y-36566175D01*
X-11335608Y-36161290D01*
X-11319750Y-36148414D01*
X-11316688Y-36146413D01*
X-11316687Y-36146412D01*
X-11309820Y-36141926D01*
X-11291042Y-36117800D01*
X-11287584Y-36113884D01*
X-11287659Y-36113821D01*
X-11285003Y-36110685D01*
X-11282114Y-36107796D01*
X-11270621Y-36091698D01*
X-11268188Y-36088436D01*
X-11261229Y-36079496D01*
X-11237972Y-36049615D01*
X-11235562Y-36042596D01*
X-11231249Y-36036555D01*
X-11228909Y-36028696D01*
X-11228908Y-36028694D01*
X-11217209Y-35989398D01*
X-11215961Y-35985503D01*
X-11202651Y-35946733D01*
X-11202650Y-35946729D01*
X-11199989Y-35938977D01*
X-11199989Y-35931554D01*
X-11197872Y-35924443D01*
X-11198239Y-35915581D01*
X-11199904Y-35875313D01*
X-11199989Y-35871222D01*
X-11199989Y-35061963D01*
X-11186400Y-35011903D01*
X-11149363Y-34975586D01*
X-11099046Y-34962982D01*
X-11049262Y-34977551D01*
X-11013679Y-35015293D01*
X-10995910Y-35048538D01*
X-10870883Y-35200883D01*
X-10718538Y-35325910D01*
X-10544727Y-35418814D01*
X-10356132Y-35476024D01*
X-10160000Y-35495341D01*
X-9963868Y-35476024D01*
X-9775273Y-35418814D01*
X-9601462Y-35325910D01*
X-9449117Y-35200883D01*
X-9393272Y-35132836D01*
X-9327173Y-35052295D01*
X-9327171Y-35052292D01*
X-9324090Y-35048538D01*
X-9231186Y-34874727D01*
X-9173976Y-34686132D01*
X-9154659Y-34490000D01*
X-9165866Y-34376208D01*
X-8613631Y-34376208D01*
X-8611669Y-34386990D01*
X-8601131Y-34390000D01*
X-7733033Y-34390000D01*
X-7722754Y-34387245D01*
X-7720000Y-34376967D01*
X-7720000Y-33508869D01*
X-7723009Y-33498330D01*
X-7733791Y-33496368D01*
X-7811190Y-33503991D01*
X-7820690Y-33505881D01*
X-7999878Y-33560237D01*
X-8008827Y-33563944D01*
X-8173971Y-33652215D01*
X-8182015Y-33657590D01*
X-8326763Y-33776382D01*
X-8333617Y-33783236D01*
X-8452409Y-33927984D01*
X-8457784Y-33936028D01*
X-8546055Y-34101172D01*
X-8549762Y-34110121D01*
X-8604118Y-34289309D01*
X-8606008Y-34298809D01*
X-8613631Y-34376208D01*
X-9165866Y-34376208D01*
X-9173976Y-34293868D01*
X-9175386Y-34289217D01*
X-9175388Y-34289211D01*
X-9225226Y-34124917D01*
X-9226522Y-34072124D01*
X-9200493Y-34026175D01*
X-5153814Y-29979496D01*
X-5121696Y-29958036D01*
X-5083810Y-29950500D01*
X-4246620Y-29950500D01*
X-4226304Y-29952607D01*
X-4222712Y-29953360D01*
X-4222711Y-29953360D01*
X-4214685Y-29955043D01*
X-4184337Y-29951259D01*
X-4179125Y-29950936D01*
X-4179134Y-29950838D01*
X-4175056Y-29950500D01*
X-4170960Y-29950500D01*
X-4151481Y-29947249D01*
X-4147429Y-29946659D01*
X-4141869Y-29945965D01*
X-4098607Y-29940573D01*
X-4091939Y-29937313D01*
X-4084619Y-29936092D01*
X-4041359Y-29912680D01*
X-4037730Y-29910812D01*
X-4000884Y-29892800D01*
X-4000883Y-29892799D01*
X-3993516Y-29889198D01*
X-3988267Y-29883949D01*
X-3981742Y-29880418D01*
X-3976185Y-29874382D01*
X-3976184Y-29874381D01*
X-3948444Y-29844247D01*
X-3945612Y-29841294D01*
X-2926922Y-28822604D01*
X-2880025Y-28796342D01*
X-2826318Y-28798456D01*
X-2824548Y-28799030D01*
X-2819803Y-28801144D01*
X-2634646Y-28840500D01*
X-2450543Y-28840500D01*
X-2445354Y-28840500D01*
X-2260197Y-28801144D01*
X-2087270Y-28724151D01*
X-1934129Y-28612888D01*
X-1807467Y-28472216D01*
X-1712821Y-28308284D01*
X-1654326Y-28128256D01*
X-1653784Y-28123106D01*
X-1653783Y-28123098D01*
X-1635082Y-27945157D01*
X-1634540Y-27940000D01*
X-1635082Y-27934843D01*
X-1653783Y-27756901D01*
X-1653784Y-27756891D01*
X-1654326Y-27751744D01*
X-1655927Y-27746816D01*
X-1655928Y-27746812D01*
X-1711219Y-27576646D01*
X-1711219Y-27576644D01*
X-1712821Y-27571716D01*
X-1807467Y-27407784D01*
X-1810933Y-27403933D01*
X-1810938Y-27403928D01*
X-1930652Y-27270972D01*
X-1930659Y-27270965D01*
X-1934129Y-27267112D01*
X-1998689Y-27220206D01*
X-2028710Y-27185058D01*
X-2039500Y-27140113D01*
X-2039500Y-26806900D01*
X-2031964Y-26769014D01*
X-2010504Y-26736896D01*
X-1942456Y-26668848D01*
X-1936950Y-26663342D01*
X-1879354Y-26550304D01*
X-1864500Y-26456519D01*
X-1864500Y-26452623D01*
X-1864500Y-25997376D01*
X-1864500Y-25997363D01*
X-1864501Y-25993482D01*
X-1865110Y-25989634D01*
X-1865110Y-25989633D01*
X-1878135Y-25907389D01*
X-1878136Y-25907385D01*
X-1879354Y-25899696D01*
X-1882887Y-25892760D01*
X-1882889Y-25892757D01*
X-1933414Y-25793597D01*
X-1933415Y-25793595D01*
X-1936950Y-25786658D01*
X-1942453Y-25781154D01*
X-1942456Y-25781151D01*
X-2021151Y-25702456D01*
X-2021154Y-25702453D01*
X-2026658Y-25696950D01*
X-2033595Y-25693415D01*
X-2033597Y-25693414D01*
X-2132755Y-25642890D01*
X-2132758Y-25642888D01*
X-2139696Y-25639354D01*
X-2147387Y-25638135D01*
X-2147390Y-25638135D01*
X-2229634Y-25625109D01*
X-2229637Y-25625108D01*
X-2233481Y-25624500D01*
X-2237372Y-25624500D01*
X-2237373Y-25624500D01*
X-2842623Y-25624500D01*
X-2842635Y-25624500D01*
X-2846518Y-25624501D01*
X-2850360Y-25625109D01*
X-2850366Y-25625110D01*
X-2932610Y-25638135D01*
X-2932612Y-25638135D01*
X-2940304Y-25639354D01*
X-3053342Y-25696950D01*
X-3143050Y-25786658D01*
X-3200646Y-25899696D01*
X-3215500Y-25993481D01*
X-3215499Y-26456518D01*
X-3200646Y-26550304D01*
X-3143050Y-26663342D01*
X-3069496Y-26736895D01*
X-3069496Y-26736896D01*
X-3048036Y-26769014D01*
X-3040500Y-26806900D01*
X-3040500Y-27140113D01*
X-3051290Y-27185058D01*
X-3081310Y-27220206D01*
X-3145871Y-27267112D01*
X-3149344Y-27270969D01*
X-3149347Y-27270972D01*
X-3260759Y-27394707D01*
X-3272533Y-27407784D01*
X-3367179Y-27571716D01*
X-3425674Y-27751744D01*
X-3445460Y-27940000D01*
X-3425674Y-28128256D01*
X-3394946Y-28222822D01*
X-3392836Y-28276521D01*
X-3419097Y-28323415D01*
X-4316186Y-29220504D01*
X-4348304Y-29241964D01*
X-4386190Y-29249500D01*
X-5223386Y-29249500D01*
X-5243702Y-29247393D01*
X-5247289Y-29246640D01*
X-5247294Y-29246639D01*
X-5255315Y-29244958D01*
X-5263450Y-29245972D01*
X-5285656Y-29248740D01*
X-5290873Y-29249063D01*
X-5290865Y-29249162D01*
X-5294948Y-29249500D01*
X-5299040Y-29249500D01*
X-5303069Y-29250172D01*
X-5303078Y-29250173D01*
X-5318527Y-29252751D01*
X-5322568Y-29253339D01*
X-5363248Y-29258410D01*
X-5363257Y-29258412D01*
X-5371393Y-29259427D01*
X-5378060Y-29262686D01*
X-5385381Y-29263908D01*
X-5417777Y-29281440D01*
X-5428646Y-29287322D01*
X-5432284Y-29289194D01*
X-5476484Y-29310802D01*
X-5481732Y-29316050D01*
X-5488258Y-29319582D01*
X-5521566Y-29355764D01*
X-5524399Y-29358717D01*
X-9696175Y-33530493D01*
X-9742124Y-33556522D01*
X-9794917Y-33555226D01*
X-9959211Y-33505388D01*
X-9959217Y-33505386D01*
X-9963868Y-33503976D01*
X-9968708Y-33503499D01*
X-9968710Y-33503499D01*
X-10155157Y-33485136D01*
X-10160000Y-33484659D01*
X-10356132Y-33503976D01*
X-10360784Y-33505387D01*
X-10360788Y-33505388D01*
X-10540070Y-33559773D01*
X-10540072Y-33559774D01*
X-10544727Y-33561186D01*
X-10549017Y-33563479D01*
X-10549019Y-33563480D01*
X-10645247Y-33614915D01*
X-10699682Y-33626300D01*
X-10751667Y-33606540D01*
X-10784796Y-33561871D01*
X-10788615Y-33506388D01*
X-10761919Y-33457601D01*
X-7883814Y-30579496D01*
X-7851696Y-30558036D01*
X-7813810Y-30550500D01*
X-7386620Y-30550500D01*
X-7366304Y-30552607D01*
X-7362712Y-30553360D01*
X-7362711Y-30553360D01*
X-7354685Y-30555043D01*
X-7324337Y-30551259D01*
X-7319125Y-30550936D01*
X-7319134Y-30550838D01*
X-7315056Y-30550500D01*
X-7310960Y-30550500D01*
X-7291481Y-30547249D01*
X-7287429Y-30546659D01*
X-7281869Y-30545965D01*
X-7238607Y-30540573D01*
X-7231939Y-30537313D01*
X-7224619Y-30536092D01*
X-7181359Y-30512680D01*
X-7177730Y-30510812D01*
X-7140884Y-30492800D01*
X-7140883Y-30492799D01*
X-7133516Y-30489198D01*
X-7128267Y-30483949D01*
X-7121742Y-30480418D01*
X-7116185Y-30474382D01*
X-7116184Y-30474381D01*
X-7088444Y-30444247D01*
X-7085612Y-30441294D01*
X-5466922Y-28822604D01*
X-5420025Y-28796342D01*
X-5366318Y-28798456D01*
X-5364548Y-28799030D01*
X-5359803Y-28801144D01*
X-5174646Y-28840500D01*
X-4990543Y-28840500D01*
X-4985354Y-28840500D01*
X-4800197Y-28801144D01*
X-4627270Y-28724151D01*
X-4474129Y-28612888D01*
X-4347467Y-28472216D01*
X-4252821Y-28308284D01*
X-4194326Y-28128256D01*
X-4193784Y-28123106D01*
X-4193783Y-28123098D01*
X-4175082Y-27945157D01*
X-4174540Y-27940000D01*
X-4175082Y-27934843D01*
X-4193783Y-27756901D01*
X-4193784Y-27756891D01*
X-4194326Y-27751744D01*
X-4195927Y-27746816D01*
X-4195928Y-27746812D01*
X-4251219Y-27576646D01*
X-4251219Y-27576644D01*
X-4252821Y-27571716D01*
X-4347467Y-27407784D01*
X-4350933Y-27403933D01*
X-4350938Y-27403928D01*
X-4470652Y-27270972D01*
X-4470659Y-27270965D01*
X-4474129Y-27267112D01*
X-4538689Y-27220206D01*
X-4568710Y-27185058D01*
X-4579500Y-27140113D01*
X-4579500Y-26806900D01*
X-4571964Y-26769014D01*
X-4550504Y-26736896D01*
X-4482456Y-26668848D01*
X-4476950Y-26663342D01*
X-4419354Y-26550304D01*
X-4404500Y-26456519D01*
X-4404500Y-26452623D01*
X-4404500Y-25997376D01*
X-4404500Y-25997363D01*
X-4404501Y-25993482D01*
X-4405110Y-25989634D01*
X-4405110Y-25989633D01*
X-4418135Y-25907389D01*
X-4418136Y-25907385D01*
X-4419354Y-25899696D01*
X-4422887Y-25892760D01*
X-4422889Y-25892757D01*
X-4473414Y-25793597D01*
X-4473415Y-25793595D01*
X-4476950Y-25786658D01*
X-4482453Y-25781154D01*
X-4482456Y-25781151D01*
X-4561151Y-25702456D01*
X-4561154Y-25702453D01*
X-4566658Y-25696950D01*
X-4573595Y-25693415D01*
X-4573597Y-25693414D01*
X-4672755Y-25642890D01*
X-4672758Y-25642888D01*
X-4679696Y-25639354D01*
X-4687387Y-25638135D01*
X-4687390Y-25638135D01*
X-4769634Y-25625109D01*
X-4769637Y-25625108D01*
X-4773481Y-25624500D01*
X-4777372Y-25624500D01*
X-4777373Y-25624500D01*
X-5382623Y-25624500D01*
X-5382635Y-25624500D01*
X-5386518Y-25624501D01*
X-5390360Y-25625109D01*
X-5390366Y-25625110D01*
X-5472610Y-25638135D01*
X-5472612Y-25638135D01*
X-5480304Y-25639354D01*
X-5593342Y-25696950D01*
X-5683050Y-25786658D01*
X-5740646Y-25899696D01*
X-5755500Y-25993481D01*
X-5755499Y-26456518D01*
X-5740646Y-26550304D01*
X-5683050Y-26663342D01*
X-5609496Y-26736895D01*
X-5609496Y-26736896D01*
X-5588036Y-26769014D01*
X-5580500Y-26806900D01*
X-5580500Y-27140113D01*
X-5591290Y-27185058D01*
X-5621310Y-27220206D01*
X-5685871Y-27267112D01*
X-5689344Y-27270969D01*
X-5689347Y-27270972D01*
X-5800759Y-27394707D01*
X-5812533Y-27407784D01*
X-5907179Y-27571716D01*
X-5965674Y-27751744D01*
X-5985460Y-27940000D01*
X-5965674Y-28128256D01*
X-5934946Y-28222823D01*
X-5932836Y-28276522D01*
X-5959096Y-28323415D01*
X-6711205Y-29075523D01*
X-7456186Y-29820504D01*
X-7488304Y-29841964D01*
X-7526190Y-29849500D01*
X-7953380Y-29849500D01*
X-7973696Y-29847393D01*
X-7977287Y-29846639D01*
X-7977294Y-29846638D01*
X-7985315Y-29844957D01*
X-7993449Y-29845971D01*
X-7993451Y-29845971D01*
X-8015662Y-29848740D01*
X-8020873Y-29849063D01*
X-8020865Y-29849162D01*
X-8024947Y-29849500D01*
X-8029040Y-29849500D01*
X-8048546Y-29852754D01*
X-8052572Y-29853340D01*
X-8093253Y-29858412D01*
X-8101393Y-29859427D01*
X-8108060Y-29862686D01*
X-8115381Y-29863908D01*
X-8122592Y-29867810D01*
X-8122594Y-29867811D01*
X-8158651Y-29887324D01*
X-8162289Y-29889196D01*
X-8206483Y-29910802D01*
X-8211730Y-29916049D01*
X-8218258Y-29919582D01*
X-8246720Y-29950500D01*
X-8251577Y-29955776D01*
X-8254410Y-29958729D01*
X-11765370Y-33469688D01*
X-11781226Y-33482563D01*
X-11791158Y-33489052D01*
X-11796193Y-33495521D01*
X-11796195Y-33495523D01*
X-11809935Y-33513177D01*
X-11813393Y-33517093D01*
X-11813319Y-33517157D01*
X-11815973Y-33520291D01*
X-11818864Y-33523182D01*
X-11824083Y-33530493D01*
X-11830331Y-33539244D01*
X-11832780Y-33542528D01*
X-11857965Y-33574885D01*
X-11857967Y-33574889D01*
X-11863006Y-33581363D01*
X-11865415Y-33588381D01*
X-11869729Y-33594423D01*
X-11883780Y-33641621D01*
X-11884996Y-33645418D01*
X-11897419Y-33681603D01*
X-11922975Y-33721332D01*
X-11964034Y-33744696D01*
X-12011245Y-33746374D01*
X-12053858Y-33725983D01*
X-12137699Y-33657177D01*
X-12137707Y-33657171D01*
X-12141462Y-33654090D01*
X-12145742Y-33651802D01*
X-12145750Y-33651797D01*
X-12297168Y-33570863D01*
X-12335415Y-33534449D01*
X-12349500Y-33483553D01*
X-12349500Y-33206190D01*
X-12341964Y-33168304D01*
X-12320504Y-33136186D01*
X-8006923Y-28822604D01*
X-7960027Y-28796343D01*
X-7906321Y-28798455D01*
X-7904550Y-28799030D01*
X-7899803Y-28801144D01*
X-7714646Y-28840500D01*
X-7530543Y-28840500D01*
X-7525354Y-28840500D01*
X-7340197Y-28801144D01*
X-7167270Y-28724151D01*
X-7014129Y-28612888D01*
X-6887467Y-28472216D01*
X-6792821Y-28308284D01*
X-6734326Y-28128256D01*
X-6733784Y-28123106D01*
X-6733783Y-28123098D01*
X-6715082Y-27945157D01*
X-6714540Y-27940000D01*
X-6715082Y-27934843D01*
X-6733783Y-27756901D01*
X-6733784Y-27756891D01*
X-6734326Y-27751744D01*
X-6735927Y-27746816D01*
X-6735928Y-27746812D01*
X-6791219Y-27576646D01*
X-6791219Y-27576644D01*
X-6792821Y-27571716D01*
X-6887467Y-27407784D01*
X-6890933Y-27403933D01*
X-6890938Y-27403928D01*
X-7010652Y-27270972D01*
X-7010659Y-27270965D01*
X-7014129Y-27267112D01*
X-7078689Y-27220206D01*
X-7108710Y-27185058D01*
X-7119500Y-27140113D01*
X-7119500Y-26806900D01*
X-7111964Y-26769014D01*
X-7090504Y-26736896D01*
X-7022456Y-26668848D01*
X-7016950Y-26663342D01*
X-6959354Y-26550304D01*
X-6944500Y-26456519D01*
X-6944500Y-26452623D01*
X-6944500Y-25997376D01*
X-6944500Y-25997363D01*
X-6944501Y-25993482D01*
X-6945110Y-25989634D01*
X-6945110Y-25989633D01*
X-6958135Y-25907389D01*
X-6958136Y-25907385D01*
X-6959354Y-25899696D01*
X-6962887Y-25892760D01*
X-6962889Y-25892757D01*
X-7013414Y-25793597D01*
X-7013415Y-25793595D01*
X-7016950Y-25786658D01*
X-7022453Y-25781154D01*
X-7022456Y-25781151D01*
X-7101151Y-25702456D01*
X-7101154Y-25702453D01*
X-7106658Y-25696950D01*
X-7113595Y-25693415D01*
X-7113597Y-25693414D01*
X-7212755Y-25642890D01*
X-7212758Y-25642888D01*
X-7219696Y-25639354D01*
X-7227387Y-25638135D01*
X-7227390Y-25638135D01*
X-7309634Y-25625109D01*
X-7309637Y-25625108D01*
X-7313481Y-25624500D01*
X-7317372Y-25624500D01*
X-7317373Y-25624500D01*
X-7922623Y-25624500D01*
X-7922635Y-25624500D01*
X-7926518Y-25624501D01*
X-7930360Y-25625109D01*
X-7930366Y-25625110D01*
X-8012610Y-25638135D01*
X-8012612Y-25638135D01*
X-8020304Y-25639354D01*
X-8133342Y-25696950D01*
X-8223050Y-25786658D01*
X-8280646Y-25899696D01*
X-8295500Y-25993481D01*
X-8295499Y-26456518D01*
X-8280646Y-26550304D01*
X-8223050Y-26663342D01*
X-8149495Y-26736896D01*
X-8149496Y-26736896D01*
X-8128036Y-26769014D01*
X-8120500Y-26806900D01*
X-8120500Y-27140113D01*
X-8131290Y-27185058D01*
X-8161310Y-27220206D01*
X-8225871Y-27267112D01*
X-8229344Y-27270969D01*
X-8229347Y-27270972D01*
X-8340759Y-27394707D01*
X-8352533Y-27407784D01*
X-8447179Y-27571716D01*
X-8505674Y-27751744D01*
X-8525460Y-27940000D01*
X-8505674Y-28128256D01*
X-8474946Y-28222822D01*
X-8472836Y-28276521D01*
X-8499097Y-28323415D01*
X-12914881Y-32739199D01*
X-12930737Y-32752074D01*
X-12940669Y-32758563D01*
X-12945704Y-32765032D01*
X-12945706Y-32765034D01*
X-12959446Y-32782688D01*
X-12962904Y-32786604D01*
X-12962830Y-32786668D01*
X-12965484Y-32789802D01*
X-12968375Y-32792693D01*
X-12970750Y-32796020D01*
X-12979842Y-32808755D01*
X-12982291Y-32812039D01*
X-13007476Y-32844396D01*
X-13007478Y-32844400D01*
X-13012517Y-32850874D01*
X-13014926Y-32857892D01*
X-13019240Y-32863934D01*
X-13033291Y-32911132D01*
X-13034517Y-32914958D01*
X-13050500Y-32961512D01*
X-13050500Y-32968935D01*
X-13052617Y-32976046D01*
X-13050871Y-33018266D01*
X-13050585Y-33025176D01*
X-13050500Y-33029267D01*
X-13050500Y-33483553D01*
X-13064585Y-33534449D01*
X-13102832Y-33570863D01*
X-13254249Y-33651797D01*
X-13254250Y-33651798D01*
X-13258538Y-33654090D01*
X-13262292Y-33657171D01*
X-13262295Y-33657173D01*
X-13353007Y-33731619D01*
X-13410883Y-33779117D01*
X-13413972Y-33782881D01*
X-13468927Y-33849844D01*
X-13535910Y-33931462D01*
X-13553679Y-33964706D01*
X-13589262Y-34002449D01*
X-13639046Y-34017018D01*
X-13689363Y-34004414D01*
X-13726400Y-33968097D01*
X-13739989Y-33918037D01*
X-13739989Y-32056679D01*
X-13732453Y-32018793D01*
X-13710993Y-31986675D01*
X-10546923Y-28822604D01*
X-10500027Y-28796343D01*
X-10446321Y-28798455D01*
X-10444550Y-28799030D01*
X-10439803Y-28801144D01*
X-10254646Y-28840500D01*
X-10070543Y-28840500D01*
X-10065354Y-28840500D01*
X-9880197Y-28801144D01*
X-9707270Y-28724151D01*
X-9554129Y-28612888D01*
X-9427467Y-28472216D01*
X-9332821Y-28308284D01*
X-9274326Y-28128256D01*
X-9273784Y-28123106D01*
X-9273783Y-28123098D01*
X-9255082Y-27945157D01*
X-9254540Y-27940000D01*
X-9255082Y-27934843D01*
X-9273783Y-27756901D01*
X-9273784Y-27756891D01*
X-9274326Y-27751744D01*
X-9275927Y-27746816D01*
X-9275928Y-27746812D01*
X-9331219Y-27576646D01*
X-9331219Y-27576644D01*
X-9332821Y-27571716D01*
X-9427467Y-27407784D01*
X-9430933Y-27403933D01*
X-9430938Y-27403928D01*
X-9550652Y-27270972D01*
X-9550659Y-27270965D01*
X-9554129Y-27267112D01*
X-9618689Y-27220206D01*
X-9648710Y-27185058D01*
X-9659500Y-27140113D01*
X-9659500Y-26806900D01*
X-9651964Y-26769014D01*
X-9630504Y-26736896D01*
X-9562456Y-26668848D01*
X-9556950Y-26663342D01*
X-9499354Y-26550304D01*
X-9484500Y-26456519D01*
X-9484500Y-26452623D01*
X-9484500Y-25997376D01*
X-9484500Y-25997363D01*
X-9484501Y-25993482D01*
X-9485110Y-25989634D01*
X-9485110Y-25989633D01*
X-9498135Y-25907389D01*
X-9498136Y-25907385D01*
X-9499354Y-25899696D01*
X-9502887Y-25892760D01*
X-9502889Y-25892757D01*
X-9553414Y-25793597D01*
X-9553415Y-25793595D01*
X-9556950Y-25786658D01*
X-9562453Y-25781154D01*
X-9562456Y-25781151D01*
X-9641151Y-25702456D01*
X-9641154Y-25702453D01*
X-9646658Y-25696950D01*
X-9653595Y-25693415D01*
X-9653597Y-25693414D01*
X-9752755Y-25642890D01*
X-9752758Y-25642888D01*
X-9759696Y-25639354D01*
X-9767387Y-25638135D01*
X-9767390Y-25638135D01*
X-9849634Y-25625109D01*
X-9849637Y-25625108D01*
X-9853481Y-25624500D01*
X-9857372Y-25624500D01*
X-9857373Y-25624500D01*
X-10462623Y-25624500D01*
X-10462635Y-25624500D01*
X-10466518Y-25624501D01*
X-10470360Y-25625109D01*
X-10470366Y-25625110D01*
X-10552610Y-25638135D01*
X-10552612Y-25638135D01*
X-10560304Y-25639354D01*
X-10673342Y-25696950D01*
X-10763050Y-25786658D01*
X-10820646Y-25899696D01*
X-10835500Y-25993481D01*
X-10835499Y-26456518D01*
X-10820646Y-26550304D01*
X-10763050Y-26663342D01*
X-10689495Y-26736896D01*
X-10689496Y-26736896D01*
X-10668036Y-26769014D01*
X-10660500Y-26806900D01*
X-10660500Y-27140113D01*
X-10671290Y-27185058D01*
X-10701310Y-27220206D01*
X-10765871Y-27267112D01*
X-10769344Y-27270969D01*
X-10769347Y-27270972D01*
X-10880759Y-27394707D01*
X-10892533Y-27407784D01*
X-10987179Y-27571716D01*
X-11045674Y-27751744D01*
X-11065460Y-27940000D01*
X-11045674Y-28128256D01*
X-11014946Y-28222822D01*
X-11012836Y-28276521D01*
X-11039097Y-28323415D01*
X-14305370Y-31589688D01*
X-14321226Y-31602563D01*
X-14331158Y-31609052D01*
X-14336193Y-31615521D01*
X-14336195Y-31615523D01*
X-14349935Y-31633177D01*
X-14353393Y-31637093D01*
X-14353319Y-31637157D01*
X-14355973Y-31640291D01*
X-14358864Y-31643182D01*
X-14361239Y-31646509D01*
X-14370331Y-31659244D01*
X-14372780Y-31662528D01*
X-14397965Y-31694885D01*
X-14397967Y-31694889D01*
X-14403006Y-31701363D01*
X-14405415Y-31708381D01*
X-14409729Y-31714423D01*
X-14423780Y-31761621D01*
X-14425006Y-31765447D01*
X-14440989Y-31812001D01*
X-14440989Y-31819424D01*
X-14443106Y-31826535D01*
X-14441084Y-31875406D01*
X-14441074Y-31875665D01*
X-14440989Y-31879756D01*
X-14440989Y-33642124D01*
X-14456349Y-33695089D01*
X-14497661Y-33731619D01*
X-14552108Y-33740379D01*
X-14602792Y-33718652D01*
X-14655849Y-33675110D01*
X-14677705Y-33657173D01*
X-14677707Y-33657171D01*
X-14681462Y-33654090D01*
X-14685742Y-33651802D01*
X-14685750Y-33651797D01*
X-14837168Y-33570863D01*
X-14875415Y-33534449D01*
X-14889500Y-33483553D01*
X-14889500Y-30666190D01*
X-14881964Y-30628304D01*
X-14860504Y-30596186D01*
X-13086922Y-28822604D01*
X-13040025Y-28796342D01*
X-12986318Y-28798456D01*
X-12984548Y-28799030D01*
X-12979803Y-28801144D01*
X-12794646Y-28840500D01*
X-12610543Y-28840500D01*
X-12605354Y-28840500D01*
X-12420197Y-28801144D01*
X-12247270Y-28724151D01*
X-12094129Y-28612888D01*
X-11967467Y-28472216D01*
X-11872821Y-28308284D01*
X-11814326Y-28128256D01*
X-11813784Y-28123106D01*
X-11813783Y-28123098D01*
X-11795082Y-27945157D01*
X-11794540Y-27940000D01*
X-11795082Y-27934843D01*
X-11813783Y-27756901D01*
X-11813784Y-27756891D01*
X-11814326Y-27751744D01*
X-11815927Y-27746816D01*
X-11815928Y-27746812D01*
X-11871219Y-27576646D01*
X-11871219Y-27576644D01*
X-11872821Y-27571716D01*
X-11967467Y-27407784D01*
X-11970933Y-27403933D01*
X-11970938Y-27403928D01*
X-12090652Y-27270972D01*
X-12090659Y-27270965D01*
X-12094129Y-27267112D01*
X-12158689Y-27220206D01*
X-12188710Y-27185058D01*
X-12199500Y-27140113D01*
X-12199500Y-26806900D01*
X-12191964Y-26769014D01*
X-12170504Y-26736896D01*
X-12102456Y-26668848D01*
X-12096950Y-26663342D01*
X-12039354Y-26550304D01*
X-12024500Y-26456519D01*
X-12024500Y-26452623D01*
X-12024500Y-25997376D01*
X-12024500Y-25997363D01*
X-12024501Y-25993482D01*
X-12025110Y-25989634D01*
X-12025110Y-25989633D01*
X-12038135Y-25907389D01*
X-12038136Y-25907385D01*
X-12039354Y-25899696D01*
X-12042887Y-25892760D01*
X-12042889Y-25892757D01*
X-12093414Y-25793597D01*
X-12093415Y-25793595D01*
X-12096950Y-25786658D01*
X-12102453Y-25781154D01*
X-12102456Y-25781151D01*
X-12181151Y-25702456D01*
X-12181154Y-25702453D01*
X-12186658Y-25696950D01*
X-12193595Y-25693415D01*
X-12193597Y-25693414D01*
X-12292755Y-25642890D01*
X-12292758Y-25642888D01*
X-12299696Y-25639354D01*
X-12307387Y-25638135D01*
X-12307390Y-25638135D01*
X-12389634Y-25625109D01*
X-12389637Y-25625108D01*
X-12393481Y-25624500D01*
X-12397372Y-25624500D01*
X-12397373Y-25624500D01*
X-13002623Y-25624500D01*
X-13002635Y-25624500D01*
X-13006518Y-25624501D01*
X-13010360Y-25625109D01*
X-13010366Y-25625110D01*
X-13092610Y-25638135D01*
X-13092612Y-25638135D01*
X-13100304Y-25639354D01*
X-13213342Y-25696950D01*
X-13303050Y-25786658D01*
X-13360646Y-25899696D01*
X-13375500Y-25993481D01*
X-13375499Y-26456518D01*
X-13360646Y-26550304D01*
X-13303050Y-26663342D01*
X-13229495Y-26736896D01*
X-13229496Y-26736896D01*
X-13208036Y-26769014D01*
X-13200500Y-26806900D01*
X-13200500Y-27140113D01*
X-13211290Y-27185058D01*
X-13241310Y-27220206D01*
X-13305871Y-27267112D01*
X-13309344Y-27270969D01*
X-13309347Y-27270972D01*
X-13420759Y-27394707D01*
X-13432533Y-27407784D01*
X-13527179Y-27571716D01*
X-13585674Y-27751744D01*
X-13605460Y-27940000D01*
X-13585674Y-28128256D01*
X-13554946Y-28222822D01*
X-13552836Y-28276521D01*
X-13579097Y-28323415D01*
X-15454881Y-30199199D01*
X-15470737Y-30212074D01*
X-15480669Y-30218563D01*
X-15485704Y-30225032D01*
X-15485706Y-30225034D01*
X-15499446Y-30242688D01*
X-15502904Y-30246604D01*
X-15502830Y-30246668D01*
X-15505484Y-30249802D01*
X-15508375Y-30252693D01*
X-15510750Y-30256020D01*
X-15519842Y-30268755D01*
X-15522291Y-30272039D01*
X-15547476Y-30304396D01*
X-15547478Y-30304400D01*
X-15552517Y-30310874D01*
X-15554926Y-30317892D01*
X-15559240Y-30323934D01*
X-15573291Y-30371132D01*
X-15574517Y-30374958D01*
X-15590500Y-30421512D01*
X-15590500Y-30428935D01*
X-15592617Y-30436046D01*
X-15590782Y-30480418D01*
X-15590585Y-30485176D01*
X-15590500Y-30489267D01*
X-15590500Y-33483553D01*
X-15604585Y-33534449D01*
X-15642832Y-33570863D01*
X-15794249Y-33651797D01*
X-15794250Y-33651798D01*
X-15798538Y-33654090D01*
X-15802292Y-33657171D01*
X-15802295Y-33657173D01*
X-15893007Y-33731619D01*
X-15950883Y-33779117D01*
X-15953972Y-33782881D01*
X-16008927Y-33849844D01*
X-16075910Y-33931462D01*
X-16093679Y-33964706D01*
X-16129262Y-34002449D01*
X-16179046Y-34017018D01*
X-16229363Y-34004414D01*
X-16266400Y-33968097D01*
X-16279989Y-33918037D01*
X-16279989Y-29516679D01*
X-16272453Y-29478793D01*
X-16250993Y-29446675D01*
X-15626922Y-28822604D01*
X-15580025Y-28796342D01*
X-15526318Y-28798456D01*
X-15524548Y-28799030D01*
X-15519803Y-28801144D01*
X-15334646Y-28840500D01*
X-15150543Y-28840500D01*
X-15145354Y-28840500D01*
X-14960197Y-28801144D01*
X-14787270Y-28724151D01*
X-14634129Y-28612888D01*
X-14507467Y-28472216D01*
X-14412821Y-28308284D01*
X-14354326Y-28128256D01*
X-14353784Y-28123106D01*
X-14353783Y-28123098D01*
X-14335082Y-27945157D01*
X-14334540Y-27940000D01*
X-14335082Y-27934843D01*
X-14353783Y-27756901D01*
X-14353784Y-27756891D01*
X-14354326Y-27751744D01*
X-14355927Y-27746816D01*
X-14355928Y-27746812D01*
X-14411219Y-27576646D01*
X-14411219Y-27576644D01*
X-14412821Y-27571716D01*
X-14507467Y-27407784D01*
X-14510933Y-27403933D01*
X-14510938Y-27403928D01*
X-14630652Y-27270972D01*
X-14630659Y-27270965D01*
X-14634129Y-27267112D01*
X-14698689Y-27220206D01*
X-14728710Y-27185058D01*
X-14739500Y-27140113D01*
X-14739500Y-26806900D01*
X-14731964Y-26769014D01*
X-14710504Y-26736896D01*
X-14642456Y-26668848D01*
X-14636950Y-26663342D01*
X-14579354Y-26550304D01*
X-14564500Y-26456519D01*
X-14564500Y-26452623D01*
X-14564500Y-25997376D01*
X-14564500Y-25997363D01*
X-14564501Y-25993482D01*
X-14565110Y-25989634D01*
X-14565110Y-25989633D01*
X-14578135Y-25907389D01*
X-14578136Y-25907385D01*
X-14579354Y-25899696D01*
X-14582887Y-25892760D01*
X-14582889Y-25892757D01*
X-14633414Y-25793597D01*
X-14633415Y-25793595D01*
X-14636950Y-25786658D01*
X-14642453Y-25781154D01*
X-14642456Y-25781151D01*
X-14721151Y-25702456D01*
X-14721154Y-25702453D01*
X-14726658Y-25696950D01*
X-14733595Y-25693415D01*
X-14733597Y-25693414D01*
X-14832755Y-25642890D01*
X-14832758Y-25642888D01*
X-14839696Y-25639354D01*
X-14847387Y-25638135D01*
X-14847390Y-25638135D01*
X-14929634Y-25625109D01*
X-14929637Y-25625108D01*
X-14933481Y-25624500D01*
X-14937372Y-25624500D01*
X-14937373Y-25624500D01*
X-15542623Y-25624500D01*
X-15542635Y-25624500D01*
X-15546518Y-25624501D01*
X-15550360Y-25625109D01*
X-15550366Y-25625110D01*
X-15632610Y-25638135D01*
X-15632612Y-25638135D01*
X-15640304Y-25639354D01*
X-15753342Y-25696950D01*
X-15843050Y-25786658D01*
X-15900646Y-25899696D01*
X-15915500Y-25993481D01*
X-15915499Y-26456518D01*
X-15900646Y-26550304D01*
X-15843050Y-26663342D01*
X-15769495Y-26736896D01*
X-15769496Y-26736896D01*
X-15748036Y-26769014D01*
X-15740500Y-26806900D01*
X-15740500Y-27140113D01*
X-15751290Y-27185058D01*
X-15781310Y-27220206D01*
X-15845871Y-27267112D01*
X-15849344Y-27270969D01*
X-15849347Y-27270972D01*
X-15960759Y-27394707D01*
X-15972533Y-27407784D01*
X-16067179Y-27571716D01*
X-16125674Y-27751744D01*
X-16145460Y-27940000D01*
X-16125674Y-28128256D01*
X-16094946Y-28222822D01*
X-16092836Y-28276521D01*
X-16119097Y-28323415D01*
X-16845370Y-29049688D01*
X-16861226Y-29062563D01*
X-16871158Y-29069052D01*
X-16876193Y-29075521D01*
X-16876195Y-29075523D01*
X-16889935Y-29093177D01*
X-16893393Y-29097093D01*
X-16893319Y-29097157D01*
X-16895973Y-29100291D01*
X-16898864Y-29103182D01*
X-16901239Y-29106509D01*
X-16910331Y-29119244D01*
X-16912780Y-29122528D01*
X-16937965Y-29154885D01*
X-16937967Y-29154889D01*
X-16943006Y-29161363D01*
X-16945415Y-29168381D01*
X-16949729Y-29174423D01*
X-16963780Y-29221621D01*
X-16965006Y-29225447D01*
X-16980989Y-29272001D01*
X-16980989Y-29279424D01*
X-16983106Y-29286535D01*
X-16981084Y-29335406D01*
X-16981074Y-29335665D01*
X-16980989Y-29339756D01*
X-16980989Y-33390500D01*
X-16994252Y-33440000D01*
X-17030489Y-33476237D01*
X-17079989Y-33489500D01*
X-17330500Y-33489500D01*
X-17380000Y-33476237D01*
X-17416237Y-33440000D01*
X-17429500Y-33390500D01*
X-17429500Y-28833958D01*
X-17413528Y-28780039D01*
X-17370767Y-28743517D01*
X-17327270Y-28724151D01*
X-17174129Y-28612888D01*
X-17047467Y-28472216D01*
X-16952821Y-28308284D01*
X-16894326Y-28128256D01*
X-16893784Y-28123106D01*
X-16893783Y-28123098D01*
X-16875082Y-27945157D01*
X-16874540Y-27940000D01*
X-16875082Y-27934843D01*
X-16893783Y-27756901D01*
X-16893784Y-27756891D01*
X-16894326Y-27751744D01*
X-16895927Y-27746816D01*
X-16895928Y-27746812D01*
X-16951219Y-27576646D01*
X-16951219Y-27576644D01*
X-16952821Y-27571716D01*
X-17047467Y-27407784D01*
X-17050933Y-27403933D01*
X-17050938Y-27403928D01*
X-17170652Y-27270972D01*
X-17170659Y-27270965D01*
X-17174129Y-27267112D01*
X-17238689Y-27220206D01*
X-17268710Y-27185058D01*
X-17279500Y-27140113D01*
X-17279500Y-26806900D01*
X-17271964Y-26769014D01*
X-17250504Y-26736896D01*
X-17182456Y-26668848D01*
X-17176950Y-26663342D01*
X-17119354Y-26550304D01*
X-17104500Y-26456519D01*
X-17104500Y-26452623D01*
X-17104500Y-25997376D01*
X-17104500Y-25997363D01*
X-17104501Y-25993482D01*
X-17105110Y-25989634D01*
X-17105110Y-25989633D01*
X-17118135Y-25907389D01*
X-17118136Y-25907385D01*
X-17119354Y-25899696D01*
X-17122887Y-25892760D01*
X-17122889Y-25892757D01*
X-17173414Y-25793597D01*
X-17173415Y-25793595D01*
X-17176950Y-25786658D01*
X-17182453Y-25781154D01*
X-17182456Y-25781151D01*
X-17261151Y-25702456D01*
X-17261154Y-25702453D01*
X-17266658Y-25696950D01*
X-17273595Y-25693415D01*
X-17273597Y-25693414D01*
X-17372755Y-25642890D01*
X-17372758Y-25642888D01*
X-17379696Y-25639354D01*
X-17387387Y-25638135D01*
X-17387390Y-25638135D01*
X-17469634Y-25625109D01*
X-17469637Y-25625108D01*
X-17473481Y-25624500D01*
X-17477372Y-25624500D01*
X-17477373Y-25624500D01*
X-18082623Y-25624500D01*
X-18082635Y-25624500D01*
X-18086518Y-25624501D01*
X-18090360Y-25625109D01*
X-18090366Y-25625110D01*
X-18172610Y-25638135D01*
X-18172612Y-25638135D01*
X-18180304Y-25639354D01*
X-18293342Y-25696950D01*
X-18383050Y-25786658D01*
X-18440646Y-25899696D01*
X-18455500Y-25993481D01*
X-18455499Y-26456518D01*
X-18440646Y-26550304D01*
X-18383050Y-26663342D01*
X-18309495Y-26736896D01*
X-18309496Y-26736896D01*
X-18288036Y-26769014D01*
X-18280500Y-26806900D01*
X-18280500Y-27140113D01*
X-18291290Y-27185058D01*
X-18321310Y-27220206D01*
X-18385871Y-27267112D01*
X-18389344Y-27270969D01*
X-18389347Y-27270972D01*
X-18500759Y-27394707D01*
X-18512533Y-27407784D01*
X-18607179Y-27571716D01*
X-18665674Y-27751744D01*
X-18685460Y-27940000D01*
X-18665674Y-28128256D01*
X-18607179Y-28308284D01*
X-18512533Y-28472216D01*
X-18385871Y-28612888D01*
X-18232730Y-28724151D01*
X-18189232Y-28743517D01*
X-18146472Y-28780039D01*
X-18130500Y-28833958D01*
X-18130500Y-33390500D01*
X-18143763Y-33440000D01*
X-18180000Y-33476237D01*
X-18229500Y-33489500D01*
X-18599748Y-33489500D01*
X-18604506Y-33490446D01*
X-18604511Y-33490447D01*
X-18648666Y-33499230D01*
X-18648667Y-33499230D01*
X-18658231Y-33501133D01*
X-18666338Y-33506550D01*
X-18666340Y-33506551D01*
X-18716441Y-33540028D01*
X-18724552Y-33545448D01*
X-18768867Y-33611769D01*
X-18780500Y-33670252D01*
X-18780500Y-35309748D01*
X-18768867Y-35368231D01*
X-18724552Y-35434552D01*
X-18658231Y-35478867D01*
X-18599748Y-35490500D01*
X-17079989Y-35490500D01*
X-17030489Y-35503763D01*
X-16994252Y-35540000D01*
X-16980989Y-35589500D01*
X-16980989Y-35694299D01*
X-16988525Y-35732185D01*
X-17009985Y-35764303D01*
X-17316175Y-36070493D01*
X-17362124Y-36096522D01*
X-17414917Y-36095226D01*
X-17579211Y-36045388D01*
X-17579217Y-36045386D01*
X-17583868Y-36043976D01*
X-17588708Y-36043499D01*
X-17588710Y-36043499D01*
X-17775157Y-36025136D01*
X-17780000Y-36024659D01*
X-17784843Y-36025136D01*
X-17962120Y-36042596D01*
X-17976132Y-36043976D01*
X-17980784Y-36045387D01*
X-17980788Y-36045388D01*
X-18160070Y-36099773D01*
X-18160072Y-36099774D01*
X-18164727Y-36101186D01*
X-18169017Y-36103479D01*
X-18169019Y-36103480D01*
X-18186728Y-36112946D01*
X-18338538Y-36194090D01*
X-18342292Y-36197171D01*
X-18342295Y-36197173D01*
X-18487118Y-36316027D01*
X-18490883Y-36319117D01*
X-18615910Y-36471462D01*
X-18708814Y-36645273D01*
X-18766024Y-36833868D01*
X-18785341Y-37030000D01*
X-19924500Y-37030000D01*
X-19924500Y-22860000D01*
X-18685460Y-22860000D01*
X-18665674Y-23048256D01*
X-18607179Y-23228284D01*
X-18512533Y-23392216D01*
X-18385871Y-23532888D01*
X-18321398Y-23579730D01*
X-18321310Y-23579794D01*
X-18291290Y-23614942D01*
X-18280500Y-23659887D01*
X-18280500Y-23993100D01*
X-18288036Y-24030986D01*
X-18309496Y-24063104D01*
X-18383050Y-24136658D01*
X-18440646Y-24249696D01*
X-18455500Y-24343481D01*
X-18455499Y-24806518D01*
X-18440646Y-24900304D01*
X-18383050Y-25013342D01*
X-18293342Y-25103050D01*
X-18180304Y-25160646D01*
X-18086519Y-25175500D01*
X-17473482Y-25175499D01*
X-17379696Y-25160646D01*
X-17266658Y-25103050D01*
X-17176950Y-25013342D01*
X-17119354Y-24900304D01*
X-17104500Y-24806519D01*
X-17104500Y-24802623D01*
X-17104500Y-24347376D01*
X-17104500Y-24347363D01*
X-17104501Y-24343482D01*
X-17105110Y-24339634D01*
X-17105110Y-24339633D01*
X-17118135Y-24257389D01*
X-17118136Y-24257385D01*
X-17119354Y-24249696D01*
X-17122887Y-24242760D01*
X-17122889Y-24242757D01*
X-17173414Y-24143597D01*
X-17173415Y-24143595D01*
X-17176950Y-24136658D01*
X-17182453Y-24131154D01*
X-17182456Y-24131151D01*
X-17250504Y-24063104D01*
X-17271964Y-24030986D01*
X-17279500Y-23993100D01*
X-17279500Y-23659887D01*
X-17268710Y-23614942D01*
X-17238690Y-23579794D01*
X-17238501Y-23579657D01*
X-17174129Y-23532888D01*
X-17170654Y-23529029D01*
X-17170652Y-23529027D01*
X-17050938Y-23396071D01*
X-17050937Y-23396070D01*
X-17047467Y-23392216D01*
X-16952821Y-23228284D01*
X-16894326Y-23048256D01*
X-16893784Y-23043106D01*
X-16893783Y-23043098D01*
X-16875082Y-22865157D01*
X-16874540Y-22860000D01*
X-16145460Y-22860000D01*
X-16125674Y-23048256D01*
X-16067179Y-23228284D01*
X-15972533Y-23392216D01*
X-15845871Y-23532888D01*
X-15781398Y-23579730D01*
X-15781310Y-23579794D01*
X-15751290Y-23614942D01*
X-15740500Y-23659887D01*
X-15740500Y-23993100D01*
X-15748036Y-24030986D01*
X-15769496Y-24063104D01*
X-15843050Y-24136658D01*
X-15900646Y-24249696D01*
X-15915500Y-24343481D01*
X-15915499Y-24806518D01*
X-15900646Y-24900304D01*
X-15843050Y-25013342D01*
X-15753342Y-25103050D01*
X-15640304Y-25160646D01*
X-15546519Y-25175500D01*
X-14933482Y-25175499D01*
X-14839696Y-25160646D01*
X-14726658Y-25103050D01*
X-14636950Y-25013342D01*
X-14579354Y-24900304D01*
X-14564500Y-24806519D01*
X-14564500Y-24802623D01*
X-14564500Y-24347376D01*
X-14564500Y-24347363D01*
X-14564501Y-24343482D01*
X-14565110Y-24339634D01*
X-14565110Y-24339633D01*
X-14578135Y-24257389D01*
X-14578136Y-24257385D01*
X-14579354Y-24249696D01*
X-14582887Y-24242760D01*
X-14582889Y-24242757D01*
X-14633414Y-24143597D01*
X-14633415Y-24143595D01*
X-14636950Y-24136658D01*
X-14642453Y-24131154D01*
X-14642456Y-24131151D01*
X-14710504Y-24063104D01*
X-14731964Y-24030986D01*
X-14739500Y-23993100D01*
X-14739500Y-23659887D01*
X-14728710Y-23614942D01*
X-14698690Y-23579794D01*
X-14698501Y-23579657D01*
X-14634129Y-23532888D01*
X-14630654Y-23529029D01*
X-14630652Y-23529027D01*
X-14510938Y-23396071D01*
X-14510937Y-23396070D01*
X-14507467Y-23392216D01*
X-14412821Y-23228284D01*
X-14354326Y-23048256D01*
X-14353784Y-23043106D01*
X-14353783Y-23043098D01*
X-14335082Y-22865157D01*
X-14334540Y-22860000D01*
X-14335082Y-22854843D01*
X-14353783Y-22676901D01*
X-14353784Y-22676891D01*
X-14354326Y-22671744D01*
X-14355927Y-22666816D01*
X-14355928Y-22666812D01*
X-14411219Y-22496646D01*
X-14411219Y-22496644D01*
X-14412821Y-22491716D01*
X-14421559Y-22476582D01*
X-14504874Y-22332275D01*
X-14504874Y-22332274D01*
X-14507467Y-22327784D01*
X-14510933Y-22323933D01*
X-14510938Y-22323928D01*
X-14630659Y-22190965D01*
X-14630662Y-22190961D01*
X-14634129Y-22187112D01*
X-14638313Y-22184071D01*
X-14638321Y-22184065D01*
X-14783079Y-22078893D01*
X-14783085Y-22078889D01*
X-14787270Y-22075849D01*
X-14791997Y-22073744D01*
X-14792003Y-22073741D01*
X-14955459Y-22000965D01*
X-14955463Y-22000963D01*
X-14960197Y-21998856D01*
X-14965266Y-21997778D01*
X-14965268Y-21997778D01*
X-15140279Y-21960578D01*
X-15140285Y-21960577D01*
X-15145354Y-21959500D01*
X-15334646Y-21959500D01*
X-15339715Y-21960577D01*
X-15339720Y-21960578D01*
X-15491306Y-21992799D01*
X-15519803Y-21998856D01*
X-15524539Y-22000964D01*
X-15524540Y-22000965D01*
X-15687996Y-22073741D01*
X-15687997Y-22073742D01*
X-15692730Y-22075849D01*
X-15696918Y-22078892D01*
X-15696920Y-22078893D01*
X-15841678Y-22184065D01*
X-15841681Y-22184068D01*
X-15845871Y-22187112D01*
X-15972533Y-22327784D01*
X-16067179Y-22491716D01*
X-16125674Y-22671744D01*
X-16145460Y-22860000D01*
X-16874540Y-22860000D01*
X-16875082Y-22854843D01*
X-16893783Y-22676901D01*
X-16893784Y-22676891D01*
X-16894326Y-22671744D01*
X-16895927Y-22666816D01*
X-16895928Y-22666812D01*
X-16951219Y-22496646D01*
X-16951219Y-22496644D01*
X-16952821Y-22491716D01*
X-16961559Y-22476582D01*
X-17044874Y-22332275D01*
X-17044874Y-22332274D01*
X-17047467Y-22327784D01*
X-17050933Y-22323933D01*
X-17050938Y-22323928D01*
X-17170659Y-22190965D01*
X-17170662Y-22190961D01*
X-17174129Y-22187112D01*
X-17178313Y-22184071D01*
X-17178321Y-22184065D01*
X-17323079Y-22078893D01*
X-17323085Y-22078889D01*
X-17327270Y-22075849D01*
X-17331997Y-22073744D01*
X-17332003Y-22073741D01*
X-17361455Y-22060628D01*
X-17370767Y-22056482D01*
X-17413528Y-22019961D01*
X-17429500Y-21966042D01*
X-17429500Y-17466190D01*
X-17421964Y-17428304D01*
X-17400504Y-17396186D01*
X-14956014Y-14951696D01*
X-12475642Y-12471323D01*
X-12426222Y-12444491D01*
X-12370160Y-12448904D01*
X-12325546Y-12483138D01*
X-12306775Y-12536148D01*
X-12319903Y-12590830D01*
X-12320581Y-12592005D01*
X-12324536Y-12597159D01*
X-12385044Y-12743238D01*
X-12405682Y-12900000D01*
X-12399257Y-12948800D01*
X-12403664Y-12993542D01*
X-12427406Y-13031724D01*
X-12914881Y-13519199D01*
X-12930737Y-13532074D01*
X-12940669Y-13538563D01*
X-12945704Y-13545032D01*
X-12945706Y-13545034D01*
X-12959446Y-13562688D01*
X-12962904Y-13566604D01*
X-12962830Y-13566668D01*
X-12965484Y-13569802D01*
X-12968375Y-13572693D01*
X-12970750Y-13576020D01*
X-12979842Y-13588755D01*
X-12982291Y-13592039D01*
X-13007476Y-13624396D01*
X-13007478Y-13624400D01*
X-13012517Y-13630874D01*
X-13014926Y-13637892D01*
X-13019240Y-13643934D01*
X-13033291Y-13691132D01*
X-13034517Y-13694958D01*
X-13050500Y-13741512D01*
X-13050500Y-13748935D01*
X-13052617Y-13756046D01*
X-13050595Y-13804917D01*
X-13050585Y-13805176D01*
X-13050500Y-13809267D01*
X-13050500Y-21966042D01*
X-13066472Y-22019961D01*
X-13109232Y-22056482D01*
X-13126794Y-22064301D01*
X-13147996Y-22073741D01*
X-13147998Y-22073742D01*
X-13152730Y-22075849D01*
X-13156918Y-22078892D01*
X-13156920Y-22078893D01*
X-13301678Y-22184065D01*
X-13301681Y-22184068D01*
X-13305871Y-22187112D01*
X-13432533Y-22327784D01*
X-13527179Y-22491716D01*
X-13585674Y-22671744D01*
X-13605460Y-22860000D01*
X-13585674Y-23048256D01*
X-13527179Y-23228284D01*
X-13432533Y-23392216D01*
X-13305871Y-23532888D01*
X-13241398Y-23579730D01*
X-13241310Y-23579794D01*
X-13211290Y-23614942D01*
X-13200500Y-23659887D01*
X-13200500Y-23993100D01*
X-13208036Y-24030986D01*
X-13229496Y-24063104D01*
X-13303050Y-24136658D01*
X-13360646Y-24249696D01*
X-13375500Y-24343481D01*
X-13375499Y-24806518D01*
X-13360646Y-24900304D01*
X-13303050Y-25013342D01*
X-13213342Y-25103050D01*
X-13100304Y-25160646D01*
X-13006519Y-25175500D01*
X-12393482Y-25175499D01*
X-12299696Y-25160646D01*
X-12186658Y-25103050D01*
X-12096950Y-25013342D01*
X-12039354Y-24900304D01*
X-12024500Y-24806519D01*
X-12024500Y-24802623D01*
X-12024500Y-24347376D01*
X-12024500Y-24347363D01*
X-12024501Y-24343482D01*
X-12025110Y-24339634D01*
X-12025110Y-24339633D01*
X-12038135Y-24257389D01*
X-12038136Y-24257385D01*
X-12039354Y-24249696D01*
X-12042887Y-24242760D01*
X-12042889Y-24242757D01*
X-12093414Y-24143597D01*
X-12093415Y-24143595D01*
X-12096950Y-24136658D01*
X-12102453Y-24131154D01*
X-12102456Y-24131151D01*
X-12170504Y-24063104D01*
X-12191964Y-24030986D01*
X-12199500Y-23993100D01*
X-12199500Y-23659887D01*
X-12188710Y-23614942D01*
X-12158690Y-23579794D01*
X-12158501Y-23579657D01*
X-12094129Y-23532888D01*
X-12090654Y-23529029D01*
X-12090652Y-23529027D01*
X-11970938Y-23396071D01*
X-11970937Y-23396070D01*
X-11967467Y-23392216D01*
X-11872821Y-23228284D01*
X-11814326Y-23048256D01*
X-11813784Y-23043106D01*
X-11813783Y-23043098D01*
X-11795082Y-22865157D01*
X-11794540Y-22860000D01*
X-11795082Y-22854843D01*
X-11813783Y-22676901D01*
X-11813784Y-22676891D01*
X-11814326Y-22671744D01*
X-11815927Y-22666816D01*
X-11815928Y-22666812D01*
X-11871219Y-22496646D01*
X-11871219Y-22496644D01*
X-11872821Y-22491716D01*
X-11881559Y-22476582D01*
X-11964874Y-22332275D01*
X-11964874Y-22332274D01*
X-11967467Y-22327784D01*
X-11970933Y-22323933D01*
X-11970938Y-22323928D01*
X-12090659Y-22190965D01*
X-12090662Y-22190961D01*
X-12094129Y-22187112D01*
X-12098313Y-22184071D01*
X-12098321Y-22184065D01*
X-12243079Y-22078893D01*
X-12243085Y-22078889D01*
X-12247270Y-22075849D01*
X-12251997Y-22073744D01*
X-12252003Y-22073741D01*
X-12281455Y-22060628D01*
X-12290767Y-22056482D01*
X-12333528Y-22019961D01*
X-12349500Y-21966042D01*
X-12349500Y-13986190D01*
X-12341964Y-13948304D01*
X-12320504Y-13916186D01*
X-11931724Y-13527406D01*
X-11893542Y-13503664D01*
X-11848800Y-13499257D01*
X-11800000Y-13505682D01*
X-11784671Y-13503664D01*
X-11739659Y-13497738D01*
X-11643238Y-13485044D01*
X-11497159Y-13424536D01*
X-11371718Y-13328282D01*
X-11336363Y-13282207D01*
X-11279414Y-13207989D01*
X-11279413Y-13207988D01*
X-11275464Y-13202841D01*
X-11272239Y-13195057D01*
X-11217440Y-13062759D01*
X-11217439Y-13062758D01*
X-11214956Y-13056762D01*
X-11214109Y-13050331D01*
X-11214108Y-13050326D01*
X-11195165Y-12906434D01*
X-11195165Y-12906432D01*
X-11194318Y-12900000D01*
X-11197585Y-12875182D01*
X-11214108Y-12749673D01*
X-11214109Y-12749666D01*
X-11214956Y-12743238D01*
X-11223466Y-12722693D01*
X-11272980Y-12603154D01*
X-11272982Y-12603149D01*
X-11275464Y-12597159D01*
X-11279411Y-12592015D01*
X-11279414Y-12592010D01*
X-11367763Y-12476871D01*
X-11367767Y-12476866D01*
X-11371718Y-12471718D01*
X-11376866Y-12467767D01*
X-11376871Y-12467763D01*
X-11492010Y-12379414D01*
X-11492015Y-12379411D01*
X-11497159Y-12375464D01*
X-11503149Y-12372982D01*
X-11503154Y-12372980D01*
X-11637240Y-12317440D01*
X-11637243Y-12317439D01*
X-11643238Y-12314956D01*
X-11649666Y-12314109D01*
X-11649673Y-12314108D01*
X-11793566Y-12295165D01*
X-11800000Y-12294318D01*
X-11806434Y-12295165D01*
X-11950326Y-12314108D01*
X-11950331Y-12314109D01*
X-11956762Y-12314956D01*
X-11962758Y-12317439D01*
X-11962759Y-12317440D01*
X-12093797Y-12371718D01*
X-12102841Y-12375464D01*
X-12107985Y-12379411D01*
X-12109171Y-12380096D01*
X-12163852Y-12393224D01*
X-12216862Y-12374453D01*
X-12251095Y-12329838D01*
X-12255508Y-12273777D01*
X-12228675Y-12224356D01*
X-11183815Y-11179496D01*
X-11151697Y-11158036D01*
X-11113811Y-11150500D01*
X-10557437Y-11150500D01*
X-10505710Y-11165089D01*
X-10469227Y-11204555D01*
X-10458742Y-11257267D01*
X-10477344Y-11307691D01*
X-10519551Y-11340964D01*
X-10596845Y-11372980D01*
X-10596847Y-11372981D01*
X-10602841Y-11375464D01*
X-10728282Y-11471718D01*
X-10824536Y-11597159D01*
X-10885044Y-11743238D01*
X-10905682Y-11900000D01*
X-10885044Y-12056762D01*
X-10824536Y-12202841D01*
X-10728282Y-12328282D01*
X-10690968Y-12356914D01*
X-10689233Y-12358245D01*
X-10660710Y-12393000D01*
X-10650500Y-12436787D01*
X-10650500Y-15053380D01*
X-10652607Y-15073696D01*
X-10655043Y-15085315D01*
X-10651260Y-15115662D01*
X-10650936Y-15120875D01*
X-10650838Y-15120867D01*
X-10650500Y-15124946D01*
X-10650500Y-15129040D01*
X-10649826Y-15133078D01*
X-10649826Y-15133079D01*
X-10647249Y-15148520D01*
X-10646661Y-15152552D01*
X-10640573Y-15201393D01*
X-10637313Y-15208060D01*
X-10636092Y-15215381D01*
X-10612662Y-15258673D01*
X-10610806Y-15262279D01*
X-10589198Y-15306484D01*
X-10583949Y-15311732D01*
X-10580418Y-15318258D01*
X-10544220Y-15351579D01*
X-10541316Y-15354364D01*
X-8389198Y-17506482D01*
X-8389198Y-17506484D01*
X-7059989Y-18835691D01*
X-7035258Y-18876955D01*
X-7032897Y-18925006D01*
X-7053467Y-18968497D01*
X-7092108Y-18997157D01*
X-7147463Y-19020086D01*
X-7272904Y-19116340D01*
X-7369158Y-19241781D01*
X-7429666Y-19387860D01*
X-7450304Y-19544622D01*
X-7443879Y-19593422D01*
X-7448286Y-19638164D01*
X-7472028Y-19676346D01*
X-9773077Y-21977395D01*
X-9819970Y-22003656D01*
X-9873674Y-22001545D01*
X-9875464Y-22000963D01*
X-9880197Y-21998856D01*
X-9885258Y-21997780D01*
X-9885265Y-21997778D01*
X-10060279Y-21960578D01*
X-10060285Y-21960577D01*
X-10065354Y-21959500D01*
X-10254646Y-21959500D01*
X-10259715Y-21960577D01*
X-10259720Y-21960578D01*
X-10411306Y-21992799D01*
X-10439803Y-21998856D01*
X-10444539Y-22000964D01*
X-10444540Y-22000965D01*
X-10607996Y-22073741D01*
X-10607997Y-22073742D01*
X-10612730Y-22075849D01*
X-10616918Y-22078892D01*
X-10616920Y-22078893D01*
X-10761678Y-22184065D01*
X-10761681Y-22184068D01*
X-10765871Y-22187112D01*
X-10892533Y-22327784D01*
X-10987179Y-22491716D01*
X-11045674Y-22671744D01*
X-11065460Y-22860000D01*
X-11045674Y-23048256D01*
X-10987179Y-23228284D01*
X-10892533Y-23392216D01*
X-10765871Y-23532888D01*
X-10701398Y-23579730D01*
X-10701310Y-23579794D01*
X-10671290Y-23614942D01*
X-10660500Y-23659887D01*
X-10660500Y-23993100D01*
X-10668036Y-24030986D01*
X-10689496Y-24063104D01*
X-10763050Y-24136658D01*
X-10820646Y-24249696D01*
X-10835500Y-24343481D01*
X-10835499Y-24806518D01*
X-10820646Y-24900304D01*
X-10763050Y-25013342D01*
X-10673342Y-25103050D01*
X-10560304Y-25160646D01*
X-10466519Y-25175500D01*
X-9853482Y-25175499D01*
X-9759696Y-25160646D01*
X-9646658Y-25103050D01*
X-9556950Y-25013342D01*
X-9499354Y-24900304D01*
X-9484500Y-24806519D01*
X-9484500Y-24802623D01*
X-9484500Y-24347376D01*
X-9484500Y-24347363D01*
X-9484501Y-24343482D01*
X-9485110Y-24339634D01*
X-9485110Y-24339633D01*
X-9498135Y-24257389D01*
X-9498136Y-24257385D01*
X-9499354Y-24249696D01*
X-9502887Y-24242760D01*
X-9502889Y-24242757D01*
X-9553414Y-24143597D01*
X-9553415Y-24143595D01*
X-9556950Y-24136658D01*
X-9562453Y-24131154D01*
X-9562456Y-24131151D01*
X-9630504Y-24063104D01*
X-9651964Y-24030986D01*
X-9659500Y-23993100D01*
X-9659500Y-23659887D01*
X-9648710Y-23614942D01*
X-9618690Y-23579794D01*
X-9618501Y-23579657D01*
X-9554129Y-23532888D01*
X-9550654Y-23529029D01*
X-9550652Y-23529027D01*
X-9430938Y-23396071D01*
X-9430937Y-23396070D01*
X-9427467Y-23392216D01*
X-9332821Y-23228284D01*
X-9274326Y-23048256D01*
X-9273784Y-23043106D01*
X-9273783Y-23043098D01*
X-9255082Y-22865157D01*
X-9254540Y-22860000D01*
X-8525460Y-22860000D01*
X-8505674Y-23048256D01*
X-8447179Y-23228284D01*
X-8352533Y-23392216D01*
X-8225871Y-23532888D01*
X-8161398Y-23579730D01*
X-8161310Y-23579794D01*
X-8131290Y-23614942D01*
X-8120500Y-23659887D01*
X-8120500Y-23993100D01*
X-8128036Y-24030986D01*
X-8149496Y-24063104D01*
X-8223050Y-24136658D01*
X-8280646Y-24249696D01*
X-8295500Y-24343481D01*
X-8295499Y-24806518D01*
X-8280646Y-24900304D01*
X-8223050Y-25013342D01*
X-8133342Y-25103050D01*
X-8020304Y-25160646D01*
X-7926519Y-25175500D01*
X-7313482Y-25175499D01*
X-7219696Y-25160646D01*
X-7106658Y-25103050D01*
X-7016950Y-25013342D01*
X-6959354Y-24900304D01*
X-6944500Y-24806519D01*
X-6944500Y-24802623D01*
X-6944500Y-24347376D01*
X-6944500Y-24347363D01*
X-6944501Y-24343482D01*
X-6945110Y-24339634D01*
X-6945110Y-24339633D01*
X-6958135Y-24257389D01*
X-6958136Y-24257385D01*
X-6959354Y-24249696D01*
X-6962887Y-24242760D01*
X-6962889Y-24242757D01*
X-7013414Y-24143597D01*
X-7013415Y-24143595D01*
X-7016950Y-24136658D01*
X-7022453Y-24131154D01*
X-7022456Y-24131151D01*
X-7090504Y-24063104D01*
X-7111964Y-24030986D01*
X-7119500Y-23993100D01*
X-7119500Y-23659887D01*
X-7108710Y-23614942D01*
X-7078690Y-23579794D01*
X-7078501Y-23579657D01*
X-7014129Y-23532888D01*
X-7010654Y-23529029D01*
X-7010652Y-23529027D01*
X-6890938Y-23396071D01*
X-6890937Y-23396070D01*
X-6887467Y-23392216D01*
X-6792821Y-23228284D01*
X-6734326Y-23048256D01*
X-6733784Y-23043106D01*
X-6733783Y-23043098D01*
X-6715082Y-22865157D01*
X-6714540Y-22860000D01*
X-5985460Y-22860000D01*
X-5965674Y-23048256D01*
X-5907179Y-23228284D01*
X-5812533Y-23392216D01*
X-5685871Y-23532888D01*
X-5621398Y-23579730D01*
X-5621310Y-23579794D01*
X-5591290Y-23614942D01*
X-5580500Y-23659887D01*
X-5580500Y-23993100D01*
X-5588036Y-24030986D01*
X-5609496Y-24063104D01*
X-5683050Y-24136658D01*
X-5740646Y-24249696D01*
X-5755500Y-24343481D01*
X-5755499Y-24806518D01*
X-5740646Y-24900304D01*
X-5683050Y-25013342D01*
X-5593342Y-25103050D01*
X-5480304Y-25160646D01*
X-5386519Y-25175500D01*
X-4773482Y-25175499D01*
X-4679696Y-25160646D01*
X-4566658Y-25103050D01*
X-4476950Y-25013342D01*
X-4419354Y-24900304D01*
X-4404500Y-24806519D01*
X-4404500Y-24802623D01*
X-4404500Y-24347376D01*
X-4404500Y-24347363D01*
X-4404501Y-24343482D01*
X-4405110Y-24339634D01*
X-4405110Y-24339633D01*
X-4418135Y-24257389D01*
X-4418136Y-24257385D01*
X-4419354Y-24249696D01*
X-4422887Y-24242760D01*
X-4422889Y-24242757D01*
X-4473414Y-24143597D01*
X-4473415Y-24143595D01*
X-4476950Y-24136658D01*
X-4482453Y-24131154D01*
X-4482456Y-24131151D01*
X-4550504Y-24063104D01*
X-4571964Y-24030986D01*
X-4579500Y-23993100D01*
X-4579500Y-23659887D01*
X-4568710Y-23614942D01*
X-4538690Y-23579794D01*
X-4538501Y-23579657D01*
X-4474129Y-23532888D01*
X-4470654Y-23529029D01*
X-4470652Y-23529027D01*
X-4350938Y-23396071D01*
X-4350937Y-23396070D01*
X-4347467Y-23392216D01*
X-4252821Y-23228284D01*
X-4194326Y-23048256D01*
X-4193784Y-23043106D01*
X-4193783Y-23043098D01*
X-4175082Y-22865157D01*
X-4174540Y-22860000D01*
X-4175082Y-22854843D01*
X-4193783Y-22676901D01*
X-4193784Y-22676891D01*
X-4194326Y-22671744D01*
X-4195927Y-22666816D01*
X-4195928Y-22666812D01*
X-4251219Y-22496646D01*
X-4251219Y-22496644D01*
X-4252821Y-22491716D01*
X-4261559Y-22476582D01*
X-4344874Y-22332275D01*
X-4344874Y-22332274D01*
X-4347467Y-22327784D01*
X-4350933Y-22323933D01*
X-4350938Y-22323928D01*
X-4470659Y-22190965D01*
X-4470662Y-22190961D01*
X-4474129Y-22187112D01*
X-4478313Y-22184071D01*
X-4478321Y-22184065D01*
X-4623079Y-22078893D01*
X-4623085Y-22078889D01*
X-4627270Y-22075849D01*
X-4631997Y-22073744D01*
X-4632003Y-22073741D01*
X-4795459Y-22000965D01*
X-4795463Y-22000963D01*
X-4800197Y-21998856D01*
X-4805266Y-21997778D01*
X-4805268Y-21997778D01*
X-4980279Y-21960578D01*
X-4980285Y-21960577D01*
X-4985354Y-21959500D01*
X-5174646Y-21959500D01*
X-5179715Y-21960577D01*
X-5179720Y-21960578D01*
X-5331306Y-21992799D01*
X-5359803Y-21998856D01*
X-5364539Y-22000964D01*
X-5364540Y-22000965D01*
X-5527996Y-22073741D01*
X-5527997Y-22073742D01*
X-5532730Y-22075849D01*
X-5536918Y-22078892D01*
X-5536920Y-22078893D01*
X-5681678Y-22184065D01*
X-5681681Y-22184068D01*
X-5685871Y-22187112D01*
X-5812533Y-22327784D01*
X-5907179Y-22491716D01*
X-5965674Y-22671744D01*
X-5985460Y-22860000D01*
X-6714540Y-22860000D01*
X-6715082Y-22854843D01*
X-6733783Y-22676901D01*
X-6733784Y-22676891D01*
X-6734326Y-22671744D01*
X-6735927Y-22666816D01*
X-6735928Y-22666812D01*
X-6791219Y-22496646D01*
X-6791219Y-22496644D01*
X-6792821Y-22491716D01*
X-6801559Y-22476582D01*
X-6884874Y-22332275D01*
X-6884874Y-22332274D01*
X-6887467Y-22327784D01*
X-6890933Y-22323933D01*
X-6890938Y-22323928D01*
X-7010659Y-22190965D01*
X-7010662Y-22190961D01*
X-7014129Y-22187112D01*
X-7018313Y-22184071D01*
X-7018321Y-22184065D01*
X-7163079Y-22078893D01*
X-7163085Y-22078889D01*
X-7167270Y-22075849D01*
X-7171997Y-22073744D01*
X-7172003Y-22073741D01*
X-7335459Y-22000965D01*
X-7335463Y-22000963D01*
X-7340197Y-21998856D01*
X-7345266Y-21997778D01*
X-7345268Y-21997778D01*
X-7520279Y-21960578D01*
X-7520285Y-21960577D01*
X-7525354Y-21959500D01*
X-7714646Y-21959500D01*
X-7719715Y-21960577D01*
X-7719720Y-21960578D01*
X-7871306Y-21992799D01*
X-7899803Y-21998856D01*
X-7904539Y-22000964D01*
X-7904540Y-22000965D01*
X-8067996Y-22073741D01*
X-8067997Y-22073742D01*
X-8072730Y-22075849D01*
X-8076918Y-22078892D01*
X-8076920Y-22078893D01*
X-8221678Y-22184065D01*
X-8221681Y-22184068D01*
X-8225871Y-22187112D01*
X-8352533Y-22327784D01*
X-8447179Y-22491716D01*
X-8505674Y-22671744D01*
X-8525460Y-22860000D01*
X-9254540Y-22860000D01*
X-9255082Y-22854843D01*
X-9273783Y-22676901D01*
X-9273784Y-22676891D01*
X-9274326Y-22671744D01*
X-9275928Y-22666812D01*
X-9275929Y-22666808D01*
X-9305051Y-22577178D01*
X-9307161Y-22523474D01*
X-9280900Y-22476582D01*
X-6976346Y-20172028D01*
X-6938164Y-20148286D01*
X-6893422Y-20143879D01*
X-6844622Y-20150304D01*
X-6829293Y-20148286D01*
X-6747419Y-20137507D01*
X-6687860Y-20129666D01*
X-6541781Y-20069158D01*
X-6416340Y-19972904D01*
X-6320086Y-19847463D01*
X-6297157Y-19792108D01*
X-6268497Y-19753467D01*
X-6225006Y-19732897D01*
X-6176955Y-19735258D01*
X-6135691Y-19759989D01*
X-3419095Y-22476585D01*
X-3392836Y-22523477D01*
X-3394946Y-22577176D01*
X-3425674Y-22671744D01*
X-3445460Y-22860000D01*
X-3425674Y-23048256D01*
X-3367179Y-23228284D01*
X-3272533Y-23392216D01*
X-3145871Y-23532888D01*
X-3081398Y-23579730D01*
X-3081310Y-23579794D01*
X-3051290Y-23614942D01*
X-3040500Y-23659887D01*
X-3040500Y-23993100D01*
X-3048036Y-24030986D01*
X-3069496Y-24063104D01*
X-3143050Y-24136658D01*
X-3200646Y-24249696D01*
X-3215500Y-24343481D01*
X-3215499Y-24806518D01*
X-3200646Y-24900304D01*
X-3143050Y-25013342D01*
X-3053342Y-25103050D01*
X-2940304Y-25160646D01*
X-2846519Y-25175500D01*
X-2233482Y-25175499D01*
X-2139696Y-25160646D01*
X-2026658Y-25103050D01*
X-1936950Y-25013342D01*
X-1879354Y-24900304D01*
X-1864500Y-24806519D01*
X-1864500Y-24802623D01*
X-1864500Y-24347376D01*
X-1864500Y-24347363D01*
X-1864501Y-24343482D01*
X-1865110Y-24339634D01*
X-1865110Y-24339633D01*
X-1878135Y-24257389D01*
X-1878136Y-24257385D01*
X-1879354Y-24249696D01*
X-1882887Y-24242760D01*
X-1882889Y-24242757D01*
X-1933414Y-24143597D01*
X-1933415Y-24143595D01*
X-1936950Y-24136658D01*
X-1942453Y-24131154D01*
X-1942456Y-24131151D01*
X-2010504Y-24063104D01*
X-2031964Y-24030986D01*
X-2039500Y-23993100D01*
X-2039500Y-23659887D01*
X-2028710Y-23614942D01*
X-1998690Y-23579794D01*
X-1998501Y-23579657D01*
X-1934129Y-23532888D01*
X-1930654Y-23529029D01*
X-1930652Y-23529027D01*
X-1810938Y-23396071D01*
X-1810937Y-23396070D01*
X-1807467Y-23392216D01*
X-1712821Y-23228284D01*
X-1654326Y-23048256D01*
X-1653784Y-23043106D01*
X-1653783Y-23043098D01*
X-1635082Y-22865157D01*
X-1634540Y-22860000D01*
X-1635082Y-22854843D01*
X-1653783Y-22676901D01*
X-1653784Y-22676891D01*
X-1654326Y-22671744D01*
X-1655927Y-22666816D01*
X-1655928Y-22666812D01*
X-1711219Y-22496646D01*
X-1711219Y-22496644D01*
X-1712821Y-22491716D01*
X-1721559Y-22476582D01*
X-1804874Y-22332275D01*
X-1804874Y-22332274D01*
X-1807467Y-22327784D01*
X-1810933Y-22323933D01*
X-1810938Y-22323928D01*
X-1930659Y-22190965D01*
X-1930662Y-22190961D01*
X-1934129Y-22187112D01*
X-1938313Y-22184071D01*
X-1938321Y-22184065D01*
X-2083079Y-22078893D01*
X-2083085Y-22078889D01*
X-2087270Y-22075849D01*
X-2091997Y-22073744D01*
X-2092003Y-22073741D01*
X-2255459Y-22000965D01*
X-2255463Y-22000963D01*
X-2260197Y-21998856D01*
X-2265266Y-21997778D01*
X-2265268Y-21997778D01*
X-2440279Y-21960578D01*
X-2440285Y-21960577D01*
X-2445354Y-21959500D01*
X-2634646Y-21959500D01*
X-2639715Y-21960577D01*
X-2639720Y-21960578D01*
X-2814727Y-21997777D01*
X-2819803Y-21998856D01*
X-2824539Y-22000965D01*
X-2826328Y-22001546D01*
X-2880031Y-22003654D01*
X-2926922Y-21977394D01*
X-7872690Y-17031627D01*
X-7872692Y-17031625D01*
X-9920504Y-14983814D01*
X-9941964Y-14951696D01*
X-9949500Y-14913810D01*
X-9949500Y-12436787D01*
X-9939290Y-12393000D01*
X-9910767Y-12358245D01*
X-9909032Y-12356914D01*
X-9871718Y-12328282D01*
X-9863398Y-12317440D01*
X-9779414Y-12207989D01*
X-9779413Y-12207988D01*
X-9775464Y-12202841D01*
X-9767459Y-12183517D01*
X-9717440Y-12062759D01*
X-9717439Y-12062758D01*
X-9714956Y-12056762D01*
X-9714109Y-12050331D01*
X-9714108Y-12050326D01*
X-9695165Y-11906434D01*
X-9694318Y-11900000D01*
X-9698776Y-11866138D01*
X-9714108Y-11749673D01*
X-9714109Y-11749666D01*
X-9714956Y-11743238D01*
X-9721674Y-11727019D01*
X-9772980Y-11603154D01*
X-9772982Y-11603149D01*
X-9775464Y-11597159D01*
X-9779411Y-11592015D01*
X-9779414Y-11592010D01*
X-9867763Y-11476871D01*
X-9867767Y-11476866D01*
X-9871718Y-11471718D01*
X-9876866Y-11467767D01*
X-9876871Y-11467763D01*
X-9992010Y-11379414D01*
X-9992015Y-11379411D01*
X-9997159Y-11375464D01*
X-10003149Y-11372982D01*
X-10003154Y-11372980D01*
X-10080449Y-11340964D01*
X-10122656Y-11307691D01*
X-10141258Y-11257267D01*
X-10130773Y-11204555D01*
X-10094290Y-11165089D01*
X-10042563Y-11150500D01*
X-5586190Y-11150500D01*
X-5548304Y-11158036D01*
X-5516186Y-11179496D01*
X-4189496Y-12506186D01*
X-4168036Y-12538304D01*
X-4160500Y-12576190D01*
X-4160500Y-13220110D01*
X-4172853Y-13267998D01*
X-4206829Y-13303936D01*
X-4269450Y-13343283D01*
X-4321925Y-13358457D01*
X-4374460Y-13343491D01*
X-4411060Y-13302940D01*
X-4416717Y-13291368D01*
X-4416721Y-13291361D01*
X-4420322Y-13283997D01*
X-4425569Y-13278749D01*
X-4429102Y-13272222D01*
X-4435129Y-13266672D01*
X-4435132Y-13266670D01*
X-4465296Y-13238901D01*
X-4468247Y-13236070D01*
X-5519199Y-12185117D01*
X-5532070Y-12169267D01*
X-5534074Y-12166199D01*
X-5534082Y-12166190D01*
X-5538563Y-12159331D01*
X-5562697Y-12140546D01*
X-5566614Y-12137088D01*
X-5566677Y-12137162D01*
X-5569804Y-12134512D01*
X-5572693Y-12131625D01*
X-5576009Y-12129256D01*
X-5576019Y-12129249D01*
X-5588787Y-12120133D01*
X-5592061Y-12117691D01*
X-5624401Y-12092520D01*
X-5624405Y-12092517D01*
X-5630874Y-12087483D01*
X-5637892Y-12085073D01*
X-5643934Y-12080760D01*
X-5691097Y-12066717D01*
X-5694973Y-12065475D01*
X-5731063Y-12053087D01*
X-5733757Y-12052162D01*
X-5733757Y-12052161D01*
X-5741512Y-12049500D01*
X-5748935Y-12049500D01*
X-5756046Y-12047383D01*
X-5764244Y-12047722D01*
X-5805176Y-12049415D01*
X-5809267Y-12049500D01*
X-8553380Y-12049500D01*
X-8573696Y-12047393D01*
X-8577287Y-12046639D01*
X-8577294Y-12046638D01*
X-8585315Y-12044957D01*
X-8593449Y-12045971D01*
X-8593451Y-12045971D01*
X-8615662Y-12048740D01*
X-8620873Y-12049063D01*
X-8620865Y-12049162D01*
X-8624947Y-12049500D01*
X-8629040Y-12049500D01*
X-8648546Y-12052754D01*
X-8652572Y-12053340D01*
X-8693253Y-12058412D01*
X-8701393Y-12059427D01*
X-8708060Y-12062686D01*
X-8715381Y-12063908D01*
X-8758646Y-12087322D01*
X-8762284Y-12089194D01*
X-8806484Y-12110802D01*
X-8811732Y-12116050D01*
X-8818258Y-12119582D01*
X-8850214Y-12154295D01*
X-8851566Y-12155764D01*
X-8854399Y-12158717D01*
X-9104881Y-12409199D01*
X-9120737Y-12422074D01*
X-9130669Y-12428563D01*
X-9135704Y-12435032D01*
X-9135706Y-12435034D01*
X-9149446Y-12452688D01*
X-9152904Y-12456604D01*
X-9152830Y-12456668D01*
X-9155484Y-12459802D01*
X-9158375Y-12462693D01*
X-9161994Y-12467763D01*
X-9169842Y-12478755D01*
X-9172291Y-12482039D01*
X-9197476Y-12514396D01*
X-9197478Y-12514400D01*
X-9202517Y-12520874D01*
X-9204926Y-12527892D01*
X-9209240Y-12533934D01*
X-9223291Y-12581132D01*
X-9224517Y-12584958D01*
X-9230766Y-12603157D01*
X-9236924Y-12621097D01*
X-9240500Y-12631512D01*
X-9240500Y-12638935D01*
X-9242617Y-12646046D01*
X-9240595Y-12694917D01*
X-9240585Y-12695176D01*
X-9240500Y-12699267D01*
X-9240500Y-13220110D01*
X-9252853Y-13267998D01*
X-9286829Y-13303936D01*
X-9373599Y-13358457D01*
X-9392262Y-13370184D01*
X-9519816Y-13497738D01*
X-9615789Y-13650478D01*
X-9675368Y-13820745D01*
X-9690500Y-13955046D01*
X-9690500Y-14444954D01*
X-9675368Y-14579255D01*
X-9615789Y-14749522D01*
X-9519816Y-14902262D01*
X-9392262Y-15029816D01*
X-9239522Y-15125789D01*
X-9069255Y-15185368D01*
X-8890000Y-15205565D01*
X-8710745Y-15185368D01*
X-8540478Y-15125789D01*
X-8387738Y-15029816D01*
X-8260184Y-14902262D01*
X-8164211Y-14749522D01*
X-8160839Y-14739886D01*
X-8106468Y-14584503D01*
X-8106467Y-14584500D01*
X-8104632Y-14579255D01*
X-8104010Y-14573738D01*
X-8104009Y-14573732D01*
X-8089809Y-14447699D01*
X-8089808Y-14447693D01*
X-8089500Y-14444954D01*
X-8089500Y-13955046D01*
X-8089809Y-13952300D01*
X-8104009Y-13826267D01*
X-8104010Y-13826259D01*
X-8104632Y-13820745D01*
X-8106466Y-13815501D01*
X-8106468Y-13815496D01*
X-8162373Y-13655729D01*
X-8162375Y-13655724D01*
X-8164211Y-13650478D01*
X-8167170Y-13645768D01*
X-8257225Y-13502446D01*
X-8257228Y-13502441D01*
X-8260184Y-13497738D01*
X-8264110Y-13493811D01*
X-8264114Y-13493807D01*
X-8383807Y-13374114D01*
X-8383811Y-13374110D01*
X-8387738Y-13370184D01*
X-8392441Y-13367228D01*
X-8392446Y-13367225D01*
X-8493171Y-13303936D01*
X-8527147Y-13267998D01*
X-8539500Y-13220110D01*
X-8539500Y-12876189D01*
X-8531964Y-12838304D01*
X-8510505Y-12806187D01*
X-8483817Y-12779498D01*
X-8451699Y-12758036D01*
X-8413812Y-12750500D01*
X-5986190Y-12750500D01*
X-5948304Y-12758036D01*
X-5916186Y-12779496D01*
X-5089016Y-13606666D01*
X-5067556Y-13638784D01*
X-5060020Y-13676670D01*
X-5060020Y-15040994D01*
X-5076705Y-15095996D01*
X-5121134Y-15132458D01*
X-5178334Y-15138092D01*
X-5229024Y-15110997D01*
X-5571485Y-14768534D01*
X-5597999Y-14720561D01*
X-5594926Y-14665835D01*
X-5566467Y-14584503D01*
X-5566464Y-14584492D01*
X-5564632Y-14579255D01*
X-5564010Y-14573740D01*
X-5564009Y-14573733D01*
X-5549809Y-14447699D01*
X-5549808Y-14447693D01*
X-5549500Y-14444954D01*
X-5549500Y-13955046D01*
X-5549809Y-13952300D01*
X-5564009Y-13826267D01*
X-5564010Y-13826259D01*
X-5564632Y-13820745D01*
X-5566466Y-13815501D01*
X-5566468Y-13815496D01*
X-5622373Y-13655729D01*
X-5622375Y-13655724D01*
X-5624211Y-13650478D01*
X-5627170Y-13645768D01*
X-5717225Y-13502446D01*
X-5717228Y-13502441D01*
X-5720184Y-13497738D01*
X-5724110Y-13493811D01*
X-5724114Y-13493807D01*
X-5843807Y-13374114D01*
X-5843811Y-13374110D01*
X-5847738Y-13370184D01*
X-5852441Y-13367228D01*
X-5852446Y-13367225D01*
X-5995768Y-13277170D01*
X-5995771Y-13277168D01*
X-6000478Y-13274211D01*
X-6005724Y-13272375D01*
X-6005729Y-13272373D01*
X-6165496Y-13216468D01*
X-6165501Y-13216466D01*
X-6170745Y-13214632D01*
X-6176259Y-13214010D01*
X-6176267Y-13214009D01*
X-6344480Y-13195057D01*
X-6350000Y-13194435D01*
X-6355520Y-13195057D01*
X-6523732Y-13214009D01*
X-6523738Y-13214010D01*
X-6529255Y-13214632D01*
X-6534500Y-13216467D01*
X-6534503Y-13216468D01*
X-6694270Y-13272373D01*
X-6694271Y-13272373D01*
X-6699522Y-13274211D01*
X-6852262Y-13370184D01*
X-6979816Y-13497738D01*
X-7075789Y-13650478D01*
X-7135368Y-13820745D01*
X-7150500Y-13955046D01*
X-7150500Y-14444954D01*
X-7135368Y-14579255D01*
X-7075789Y-14749522D01*
X-6979816Y-14902262D01*
X-6852262Y-15029816D01*
X-6699522Y-15125789D01*
X-6529255Y-15185368D01*
X-6350000Y-15205565D01*
X-6344480Y-15204943D01*
X-6344472Y-15204943D01*
X-6195898Y-15188202D01*
X-6152116Y-15193134D01*
X-6114811Y-15216573D01*
X63237Y-21394623D01*
X620015Y-21951401D01*
X641475Y-21983519D01*
X649011Y-22021405D01*
X649011Y-22024156D01*
X634422Y-22075883D01*
X594956Y-22112365D01*
X542244Y-22122851D01*
X491821Y-22104249D01*
X456925Y-22078896D01*
X456919Y-22078892D01*
X452730Y-22075849D01*
X447997Y-22073742D01*
X447996Y-22073741D01*
X284540Y-22000965D01*
X284539Y-22000964D01*
X279803Y-21998856D01*
X251306Y-21992799D01*
X99720Y-21960578D01*
X99715Y-21960577D01*
X94646Y-21959500D01*
X-94646Y-21959500D01*
X-99715Y-21960577D01*
X-99720Y-21960578D01*
X-251306Y-21992799D01*
X-279803Y-21998856D01*
X-284539Y-22000964D01*
X-284540Y-22000965D01*
X-447996Y-22073741D01*
X-447997Y-22073742D01*
X-452730Y-22075849D01*
X-456918Y-22078892D01*
X-456920Y-22078893D01*
X-601678Y-22184065D01*
X-601681Y-22184068D01*
X-605871Y-22187112D01*
X-732533Y-22327784D01*
X-827179Y-22491716D01*
X-885674Y-22671744D01*
X-905460Y-22860000D01*
X-885674Y-23048256D01*
X-827179Y-23228284D01*
X-732533Y-23392216D01*
X-605871Y-23532888D01*
X-541398Y-23579730D01*
X-541310Y-23579794D01*
X-511290Y-23614942D01*
X-500500Y-23659887D01*
X-500500Y-23993100D01*
X-508036Y-24030986D01*
X-529496Y-24063104D01*
X-603050Y-24136658D01*
X-660646Y-24249696D01*
X-675500Y-24343481D01*
X-675499Y-24806518D01*
X-660646Y-24900304D01*
X-603050Y-25013342D01*
X-513342Y-25103050D01*
X-400304Y-25160646D01*
X-306519Y-25175500D01*
X306518Y-25175499D01*
X400304Y-25160646D01*
X505065Y-25107267D01*
X553898Y-25096553D01*
X601738Y-25111066D01*
X636388Y-25147103D01*
X649011Y-25195477D01*
X649011Y-25604523D01*
X636388Y-25652897D01*
X601738Y-25688934D01*
X553898Y-25703447D01*
X505066Y-25692733D01*
X407244Y-25642890D01*
X407243Y-25642889D01*
X400304Y-25639354D01*
X392610Y-25638135D01*
X392609Y-25638135D01*
X310365Y-25625109D01*
X310363Y-25625108D01*
X306519Y-25624500D01*
X302626Y-25624500D01*
X-302623Y-25624500D01*
X-302635Y-25624500D01*
X-306518Y-25624501D01*
X-310360Y-25625109D01*
X-310366Y-25625110D01*
X-392610Y-25638135D01*
X-392612Y-25638135D01*
X-400304Y-25639354D01*
X-513342Y-25696950D01*
X-603050Y-25786658D01*
X-660646Y-25899696D01*
X-675500Y-25993481D01*
X-675499Y-26456518D01*
X-660646Y-26550304D01*
X-603050Y-26663342D01*
X-529496Y-26736895D01*
X-529496Y-26736896D01*
X-508036Y-26769014D01*
X-500500Y-26806900D01*
X-500500Y-27140113D01*
X-511290Y-27185058D01*
X-541310Y-27220206D01*
X-605871Y-27267112D01*
X-609344Y-27270969D01*
X-609347Y-27270972D01*
X-720759Y-27394707D01*
X-732533Y-27407784D01*
X-827179Y-27571716D01*
X-885674Y-27751744D01*
X-905460Y-27940000D01*
X-885674Y-28128256D01*
X-854946Y-28222822D01*
X-852836Y-28276521D01*
X-879097Y-28323415D01*
X-2576186Y-30020504D01*
X-2608304Y-30041964D01*
X-2646190Y-30049500D01*
X-3353380Y-30049500D01*
X-3373696Y-30047393D01*
X-3377287Y-30046639D01*
X-3377294Y-30046638D01*
X-3385315Y-30044957D01*
X-3393449Y-30045971D01*
X-3393451Y-30045971D01*
X-3415662Y-30048740D01*
X-3420873Y-30049063D01*
X-3420865Y-30049162D01*
X-3424947Y-30049500D01*
X-3429040Y-30049500D01*
X-3448546Y-30052754D01*
X-3452572Y-30053340D01*
X-3493253Y-30058412D01*
X-3501393Y-30059427D01*
X-3508060Y-30062686D01*
X-3515381Y-30063908D01*
X-3558646Y-30087322D01*
X-3562284Y-30089194D01*
X-3606484Y-30110802D01*
X-3611732Y-30116050D01*
X-3618258Y-30119582D01*
X-3651566Y-30155764D01*
X-3654399Y-30158717D01*
X-6444392Y-32948710D01*
X-6460248Y-32961585D01*
X-6470180Y-32968074D01*
X-6475215Y-32974543D01*
X-6475217Y-32974545D01*
X-6488957Y-32992199D01*
X-6492415Y-32996115D01*
X-6492341Y-32996179D01*
X-6494995Y-32999313D01*
X-6497886Y-33002204D01*
X-6500261Y-33005531D01*
X-6509353Y-33018266D01*
X-6511802Y-33021550D01*
X-6536987Y-33053907D01*
X-6536989Y-33053911D01*
X-6542028Y-33060385D01*
X-6544437Y-33067403D01*
X-6548751Y-33073445D01*
X-6562802Y-33120643D01*
X-6564028Y-33124469D01*
X-6580011Y-33171023D01*
X-6580011Y-33178446D01*
X-6582128Y-33185557D01*
X-6580106Y-33234428D01*
X-6580096Y-33234687D01*
X-6580011Y-33238778D01*
X-6580011Y-33919097D01*
X-6593600Y-33969157D01*
X-6630638Y-34005474D01*
X-6680955Y-34018078D01*
X-6730739Y-34003508D01*
X-6766321Y-33965765D01*
X-6782215Y-33936028D01*
X-6787590Y-33927984D01*
X-6906382Y-33783236D01*
X-6913236Y-33776382D01*
X-7057984Y-33657590D01*
X-7066028Y-33652215D01*
X-7231172Y-33563944D01*
X-7240121Y-33560237D01*
X-7419309Y-33505881D01*
X-7428809Y-33503991D01*
X-7506208Y-33496368D01*
X-7516990Y-33498330D01*
X-7520000Y-33508869D01*
X-7520000Y-34491000D01*
X-7533263Y-34540500D01*
X-7569500Y-34576737D01*
X-7619000Y-34590000D01*
X-8601131Y-34590000D01*
X-8611669Y-34593009D01*
X-8613631Y-34603791D01*
X-8606008Y-34681190D01*
X-8604118Y-34690690D01*
X-8549762Y-34869878D01*
X-8546055Y-34878827D01*
X-8457784Y-35043971D01*
X-8452409Y-35052016D01*
X-8341060Y-35187695D01*
X-8319333Y-35238381D01*
X-8328093Y-35292828D01*
X-8364623Y-35334140D01*
X-8417588Y-35349500D01*
X-8783380Y-35349500D01*
X-8803696Y-35347393D01*
X-8807287Y-35346639D01*
X-8807294Y-35346638D01*
X-8815315Y-35344957D01*
X-8823449Y-35345971D01*
X-8823451Y-35345971D01*
X-8845662Y-35348740D01*
X-8850873Y-35349063D01*
X-8850865Y-35349162D01*
X-8854947Y-35349500D01*
X-8859040Y-35349500D01*
X-8878546Y-35352754D01*
X-8882572Y-35353340D01*
X-8923253Y-35358412D01*
X-8931393Y-35359427D01*
X-8938060Y-35362686D01*
X-8945381Y-35363908D01*
X-8968353Y-35376340D01*
X-8988646Y-35387322D01*
X-8992284Y-35389194D01*
X-9036484Y-35410802D01*
X-9041732Y-35416050D01*
X-9048258Y-35419582D01*
X-9067027Y-35439971D01*
X-9081566Y-35455764D01*
X-9084399Y-35458717D01*
X-9696175Y-36070493D01*
X-9742124Y-36096522D01*
X-9794917Y-36095226D01*
X-9959211Y-36045388D01*
X-9959217Y-36045386D01*
X-9963868Y-36043976D01*
X-9968708Y-36043499D01*
X-9968710Y-36043499D01*
X-10155157Y-36025136D01*
X-10160000Y-36024659D01*
X-10164843Y-36025136D01*
X-10342120Y-36042596D01*
X-10356132Y-36043976D01*
X-10360784Y-36045387D01*
X-10360788Y-36045388D01*
X-10540070Y-36099773D01*
X-10540072Y-36099774D01*
X-10544727Y-36101186D01*
X-10549017Y-36103479D01*
X-10549019Y-36103480D01*
X-10566728Y-36112946D01*
X-10718538Y-36194090D01*
X-10722292Y-36197171D01*
X-10722295Y-36197173D01*
X-10867118Y-36316027D01*
X-10870883Y-36319117D01*
X-10995910Y-36471462D01*
X-11088814Y-36645273D01*
X-11146024Y-36833868D01*
X-11165341Y-37030000D01*
X-11146024Y-37226132D01*
X-11088814Y-37414727D01*
X-10995910Y-37588538D01*
X-10870883Y-37740883D01*
X-10718538Y-37865910D01*
X-10544727Y-37958814D01*
X-10356132Y-38016024D01*
X-10160000Y-38035341D01*
X-9963868Y-38016024D01*
X-9775273Y-37958814D01*
X-9601462Y-37865910D01*
X-9449117Y-37740883D01*
X-9430249Y-37717892D01*
X-9327173Y-37592295D01*
X-9327171Y-37592292D01*
X-9324090Y-37588538D01*
X-9231186Y-37414727D01*
X-9229715Y-37409878D01*
X-9175388Y-37230788D01*
X-9175387Y-37230784D01*
X-9173976Y-37226132D01*
X-9165866Y-37143791D01*
X-8613631Y-37143791D01*
X-8606008Y-37221190D01*
X-8604118Y-37230690D01*
X-8549762Y-37409878D01*
X-8546055Y-37418827D01*
X-8457784Y-37583971D01*
X-8452409Y-37592015D01*
X-8333617Y-37736763D01*
X-8326763Y-37743617D01*
X-8182015Y-37862409D01*
X-8173971Y-37867784D01*
X-8008827Y-37956055D01*
X-7999878Y-37959762D01*
X-7820690Y-38014118D01*
X-7811190Y-38016008D01*
X-7733791Y-38023631D01*
X-7723009Y-38021669D01*
X-7720000Y-38011131D01*
X-7520000Y-38011131D01*
X-7516990Y-38021669D01*
X-7506208Y-38023631D01*
X-7428809Y-38016008D01*
X-7419309Y-38014118D01*
X-7240121Y-37959762D01*
X-7231172Y-37956055D01*
X-7066028Y-37867784D01*
X-7057984Y-37862409D01*
X-6913236Y-37743617D01*
X-6906382Y-37736763D01*
X-6787590Y-37592015D01*
X-6782215Y-37583971D01*
X-6693944Y-37418827D01*
X-6690237Y-37409878D01*
X-6635881Y-37230690D01*
X-6633991Y-37221190D01*
X-6626368Y-37143791D01*
X-6628330Y-37133009D01*
X-6638869Y-37130000D01*
X-7506967Y-37130000D01*
X-7517245Y-37132754D01*
X-7520000Y-37143033D01*
X-7520000Y-38011131D01*
X-7720000Y-38011131D01*
X-7720000Y-37143033D01*
X-7722754Y-37132754D01*
X-7733033Y-37130000D01*
X-8601131Y-37130000D01*
X-8611669Y-37133009D01*
X-8613631Y-37143791D01*
X-9165866Y-37143791D01*
X-9154659Y-37030000D01*
X-6085341Y-37030000D01*
X-6066024Y-37226132D01*
X-6008814Y-37414727D01*
X-5915910Y-37588538D01*
X-5790883Y-37740883D01*
X-5638538Y-37865910D01*
X-5464727Y-37958814D01*
X-5276132Y-38016024D01*
X-5080000Y-38035341D01*
X-4883868Y-38016024D01*
X-4695273Y-37958814D01*
X-4521462Y-37865910D01*
X-4369117Y-37740883D01*
X-4350249Y-37717892D01*
X-4247173Y-37592295D01*
X-4247171Y-37592292D01*
X-4244090Y-37588538D01*
X-4151186Y-37414727D01*
X-4149715Y-37409878D01*
X-4095388Y-37230788D01*
X-4095387Y-37230784D01*
X-4093976Y-37226132D01*
X-4074659Y-37030000D01*
X-4093976Y-36833868D01*
X-4095386Y-36829217D01*
X-4095388Y-36829211D01*
X-4149773Y-36649929D01*
X-4149775Y-36649923D01*
X-4151186Y-36645273D01*
X-4153477Y-36640985D01*
X-4153480Y-36640980D01*
X-4241798Y-36475750D01*
X-4241798Y-36475749D01*
X-4244090Y-36471462D01*
X-4247168Y-36467711D01*
X-4247173Y-36467704D01*
X-4366027Y-36322881D01*
X-4366032Y-36322875D01*
X-4369117Y-36319117D01*
X-4372875Y-36316032D01*
X-4372881Y-36316027D01*
X-4517704Y-36197173D01*
X-4517711Y-36197168D01*
X-4521462Y-36194090D01*
X-4528504Y-36190326D01*
X-4690980Y-36103480D01*
X-4690985Y-36103477D01*
X-4695273Y-36101186D01*
X-4699923Y-36099775D01*
X-4699929Y-36099773D01*
X-4879211Y-36045388D01*
X-4879217Y-36045386D01*
X-4883868Y-36043976D01*
X-4888708Y-36043499D01*
X-4888710Y-36043499D01*
X-5075157Y-36025136D01*
X-5080000Y-36024659D01*
X-5084843Y-36025136D01*
X-5262120Y-36042596D01*
X-5276132Y-36043976D01*
X-5280784Y-36045387D01*
X-5280788Y-36045388D01*
X-5460070Y-36099773D01*
X-5460072Y-36099774D01*
X-5464727Y-36101186D01*
X-5469017Y-36103479D01*
X-5469019Y-36103480D01*
X-5486728Y-36112946D01*
X-5638538Y-36194090D01*
X-5642292Y-36197171D01*
X-5642295Y-36197173D01*
X-5787118Y-36316027D01*
X-5790883Y-36319117D01*
X-5915910Y-36471462D01*
X-6008814Y-36645273D01*
X-6066024Y-36833868D01*
X-6085341Y-37030000D01*
X-9154659Y-37030000D01*
X-9173976Y-36833868D01*
X-9175386Y-36829217D01*
X-9175388Y-36829211D01*
X-9225226Y-36664917D01*
X-9226522Y-36612124D01*
X-9200493Y-36566175D01*
X-8713814Y-36079496D01*
X-8681696Y-36058036D01*
X-8643810Y-36050500D01*
X-8279472Y-36050500D01*
X-8222467Y-36068559D01*
X-8186259Y-36116148D01*
X-8184058Y-36175904D01*
X-8216667Y-36226028D01*
X-8326763Y-36316382D01*
X-8333617Y-36323236D01*
X-8452409Y-36467984D01*
X-8457784Y-36476028D01*
X-8546055Y-36641172D01*
X-8549762Y-36650121D01*
X-8604118Y-36829309D01*
X-8606008Y-36838809D01*
X-8613631Y-36916208D01*
X-8611669Y-36926990D01*
X-8601131Y-36930000D01*
X-6638869Y-36930000D01*
X-6628330Y-36926990D01*
X-6626368Y-36916208D01*
X-6633991Y-36838809D01*
X-6635881Y-36829309D01*
X-6690237Y-36650121D01*
X-6693944Y-36641172D01*
X-6782215Y-36476028D01*
X-6787590Y-36467984D01*
X-6906382Y-36323236D01*
X-6913236Y-36316382D01*
X-7057982Y-36197591D01*
X-7068856Y-36190326D01*
X-7102226Y-36152637D01*
X-7112747Y-36103409D01*
X-7097700Y-36055372D01*
X-7060974Y-36020944D01*
X-7045704Y-36012680D01*
X-7042075Y-36010812D01*
X-7005229Y-35992800D01*
X-7005228Y-35992799D01*
X-6997861Y-35989198D01*
X-6992612Y-35983949D01*
X-6986087Y-35980418D01*
X-6980530Y-35974382D01*
X-6980529Y-35974381D01*
X-6952789Y-35944247D01*
X-6949957Y-35941294D01*
X-6056834Y-35048171D01*
X-6009310Y-35021761D01*
X-5955007Y-35024429D01*
X-5910304Y-35055368D01*
X-5790883Y-35200883D01*
X-5638538Y-35325910D01*
X-5464727Y-35418814D01*
X-5276132Y-35476024D01*
X-5080000Y-35495341D01*
X-4883868Y-35476024D01*
X-4695273Y-35418814D01*
X-4521462Y-35325910D01*
X-4369117Y-35200883D01*
X-4313272Y-35132836D01*
X-4247173Y-35052295D01*
X-4247171Y-35052292D01*
X-4244090Y-35048538D01*
X-4151186Y-34874727D01*
X-4093976Y-34686132D01*
X-4074659Y-34490000D01*
X-4093976Y-34293868D01*
X-4095386Y-34289217D01*
X-4095388Y-34289211D01*
X-4149773Y-34109929D01*
X-4149775Y-34109923D01*
X-4151186Y-34105273D01*
X-4153477Y-34100985D01*
X-4153480Y-34100980D01*
X-4241798Y-33935750D01*
X-4241798Y-33935749D01*
X-4244090Y-33931462D01*
X-4247168Y-33927711D01*
X-4247173Y-33927704D01*
X-4366027Y-33782881D01*
X-4366032Y-33782875D01*
X-4369117Y-33779117D01*
X-4372875Y-33776032D01*
X-4372881Y-33776027D01*
X-4517704Y-33657173D01*
X-4517711Y-33657168D01*
X-4521462Y-33654090D01*
X-4594753Y-33614915D01*
X-4690980Y-33563480D01*
X-4690985Y-33563477D01*
X-4695273Y-33561186D01*
X-4699923Y-33559775D01*
X-4699929Y-33559773D01*
X-4879211Y-33505388D01*
X-4879217Y-33505386D01*
X-4883868Y-33503976D01*
X-4888708Y-33503499D01*
X-4888710Y-33503499D01*
X-5075157Y-33485136D01*
X-5080000Y-33484659D01*
X-5276132Y-33503976D01*
X-5280784Y-33505387D01*
X-5280788Y-33505388D01*
X-5460070Y-33559773D01*
X-5460072Y-33559774D01*
X-5464727Y-33561186D01*
X-5469017Y-33563479D01*
X-5469019Y-33563480D01*
X-5490356Y-33574885D01*
X-5638538Y-33654090D01*
X-5717207Y-33718652D01*
X-5767892Y-33740379D01*
X-5822339Y-33731619D01*
X-5863651Y-33695089D01*
X-5879011Y-33642124D01*
X-5879011Y-33415701D01*
X-5871475Y-33377815D01*
X-5850015Y-33345697D01*
X-3283815Y-30779496D01*
X-3251697Y-30758036D01*
X-3213811Y-30750500D01*
X-2506620Y-30750500D01*
X-2486304Y-30752607D01*
X-2482712Y-30753360D01*
X-2482711Y-30753360D01*
X-2474685Y-30755043D01*
X-2444337Y-30751259D01*
X-2439125Y-30750936D01*
X-2439134Y-30750838D01*
X-2435056Y-30750500D01*
X-2430960Y-30750500D01*
X-2411481Y-30747249D01*
X-2407429Y-30746659D01*
X-2401869Y-30745965D01*
X-2358607Y-30740573D01*
X-2351939Y-30737313D01*
X-2344619Y-30736092D01*
X-2301359Y-30712680D01*
X-2297730Y-30710812D01*
X-2260884Y-30692800D01*
X-2260883Y-30692799D01*
X-2253516Y-30689198D01*
X-2248267Y-30683949D01*
X-2241742Y-30680418D01*
X-2236185Y-30674382D01*
X-2236184Y-30674381D01*
X-2208444Y-30644247D01*
X-2205612Y-30641294D01*
X-386922Y-28822604D01*
X-340025Y-28796342D01*
X-286318Y-28798456D01*
X-284548Y-28799030D01*
X-279803Y-28801144D01*
X-94646Y-28840500D01*
X89457Y-28840500D01*
X94646Y-28840500D01*
X279803Y-28801144D01*
X452730Y-28724151D01*
X461305Y-28717920D01*
X491821Y-28695751D01*
X542244Y-28677149D01*
X594956Y-28687635D01*
X634422Y-28724117D01*
X649011Y-28775844D01*
X649011Y-35552891D01*
X646904Y-35573207D01*
X646150Y-35576798D01*
X646149Y-35576805D01*
X644468Y-35584826D01*
X645482Y-35592960D01*
X645482Y-35592962D01*
X648251Y-35615173D01*
X648574Y-35620384D01*
X648673Y-35620376D01*
X649011Y-35624458D01*
X649011Y-35628551D01*
X651557Y-35643814D01*
X652263Y-35648041D01*
X652851Y-35652083D01*
X658938Y-35700904D01*
X662197Y-35707571D01*
X663419Y-35714892D01*
X667323Y-35722105D01*
X686833Y-35758157D01*
X688706Y-35761796D01*
X705306Y-35795754D01*
X710313Y-35805995D01*
X715561Y-35811243D01*
X719093Y-35817769D01*
X755275Y-35851077D01*
X758228Y-35853910D01*
X3748220Y-38843902D01*
X3761095Y-38859758D01*
X3767584Y-38869690D01*
X3774053Y-38874725D01*
X3774055Y-38874727D01*
X3791709Y-38888467D01*
X3795625Y-38891925D01*
X3795689Y-38891851D01*
X3798823Y-38894505D01*
X3801714Y-38897396D01*
X3817789Y-38908872D01*
X3821060Y-38911312D01*
X3853417Y-38936497D01*
X3853421Y-38936499D01*
X3859895Y-38941538D01*
X3866913Y-38943947D01*
X3872955Y-38948261D01*
X3920153Y-38962312D01*
X3923979Y-38963538D01*
X3970533Y-38979521D01*
X3977956Y-38979521D01*
X3985067Y-38981638D01*
X4034196Y-38979606D01*
X4038288Y-38979521D01*
X11054359Y-38979521D01*
X11074675Y-38981628D01*
X11078266Y-38982381D01*
X11078268Y-38982381D01*
X11086294Y-38984064D01*
X11116641Y-38980280D01*
X11121854Y-38979957D01*
X11121846Y-38979859D01*
X11125925Y-38979521D01*
X11130019Y-38979521D01*
X11149503Y-38976269D01*
X11153531Y-38975682D01*
X11202372Y-38969594D01*
X11209039Y-38966334D01*
X11216360Y-38965113D01*
X11259652Y-38941683D01*
X11263258Y-38939828D01*
X11270072Y-38936497D01*
X11307463Y-38918219D01*
X11312711Y-38912970D01*
X11319237Y-38909439D01*
X11352558Y-38873241D01*
X11355343Y-38870337D01*
X12236177Y-37989503D01*
X12282124Y-37963476D01*
X12334913Y-37964771D01*
X12503868Y-38016024D01*
X12700000Y-38035341D01*
X12896132Y-38016024D01*
X13084727Y-37958814D01*
X13258538Y-37865910D01*
X13410883Y-37740883D01*
X13535910Y-37588538D01*
X13628814Y-37414727D01*
X13686024Y-37226132D01*
X13694134Y-37143791D01*
X14246368Y-37143791D01*
X14253991Y-37221190D01*
X14255881Y-37230690D01*
X14310237Y-37409878D01*
X14313944Y-37418827D01*
X14402215Y-37583971D01*
X14407590Y-37592015D01*
X14526382Y-37736763D01*
X14533236Y-37743617D01*
X14677984Y-37862409D01*
X14686028Y-37867784D01*
X14851172Y-37956055D01*
X14860121Y-37959762D01*
X15039309Y-38014118D01*
X15048809Y-38016008D01*
X15126208Y-38023631D01*
X15136990Y-38021669D01*
X15140000Y-38011131D01*
X15340000Y-38011131D01*
X15343009Y-38021669D01*
X15353791Y-38023631D01*
X15431190Y-38016008D01*
X15440690Y-38014118D01*
X15619878Y-37959762D01*
X15628827Y-37956055D01*
X15793971Y-37867784D01*
X15802015Y-37862409D01*
X15946763Y-37743617D01*
X15953617Y-37736763D01*
X16072409Y-37592015D01*
X16077784Y-37583971D01*
X16166055Y-37418827D01*
X16169762Y-37409878D01*
X16224118Y-37230690D01*
X16226008Y-37221190D01*
X16233631Y-37143791D01*
X16231669Y-37133009D01*
X16221131Y-37130000D01*
X15353033Y-37130000D01*
X15342754Y-37132754D01*
X15340000Y-37143033D01*
X15340000Y-38011131D01*
X15140000Y-38011131D01*
X15140000Y-37143033D01*
X15137245Y-37132754D01*
X15126967Y-37130000D01*
X14258869Y-37130000D01*
X14248330Y-37133009D01*
X14246368Y-37143791D01*
X13694134Y-37143791D01*
X13705341Y-37030000D01*
X16774659Y-37030000D01*
X16793976Y-37226132D01*
X16795387Y-37230784D01*
X16795388Y-37230788D01*
X16849715Y-37409878D01*
X16851186Y-37414727D01*
X16944090Y-37588538D01*
X16947171Y-37592292D01*
X16947173Y-37592295D01*
X17050249Y-37717892D01*
X17069117Y-37740883D01*
X17221462Y-37865910D01*
X17395273Y-37958814D01*
X17583868Y-38016024D01*
X17780000Y-38035341D01*
X17976132Y-38016024D01*
X18164727Y-37958814D01*
X18338538Y-37865910D01*
X18490883Y-37740883D01*
X18615910Y-37588538D01*
X18708814Y-37414727D01*
X18766024Y-37226132D01*
X18785341Y-37030000D01*
X18766024Y-36833868D01*
X18708814Y-36645273D01*
X18615910Y-36471462D01*
X18490883Y-36319117D01*
X18487118Y-36316027D01*
X18342295Y-36197173D01*
X18342292Y-36197171D01*
X18338538Y-36194090D01*
X18186728Y-36112946D01*
X18169019Y-36103480D01*
X18169017Y-36103479D01*
X18164727Y-36101186D01*
X18160072Y-36099774D01*
X18160070Y-36099773D01*
X17980788Y-36045388D01*
X17980784Y-36045387D01*
X17976132Y-36043976D01*
X17962120Y-36042596D01*
X17784843Y-36025136D01*
X17780000Y-36024659D01*
X17775157Y-36025136D01*
X17588710Y-36043499D01*
X17588708Y-36043499D01*
X17583868Y-36043976D01*
X17579217Y-36045386D01*
X17579211Y-36045388D01*
X17399929Y-36099773D01*
X17399923Y-36099775D01*
X17395273Y-36101186D01*
X17390985Y-36103477D01*
X17390980Y-36103480D01*
X17228504Y-36190326D01*
X17221462Y-36194090D01*
X17217711Y-36197168D01*
X17217704Y-36197173D01*
X17072881Y-36316027D01*
X17072875Y-36316032D01*
X17069117Y-36319117D01*
X17066032Y-36322875D01*
X17066027Y-36322881D01*
X16947173Y-36467704D01*
X16947168Y-36467711D01*
X16944090Y-36471462D01*
X16941798Y-36475749D01*
X16941798Y-36475750D01*
X16853480Y-36640980D01*
X16853477Y-36640985D01*
X16851186Y-36645273D01*
X16849775Y-36649923D01*
X16849773Y-36649929D01*
X16795388Y-36829211D01*
X16795386Y-36829217D01*
X16793976Y-36833868D01*
X16774659Y-37030000D01*
X13705341Y-37030000D01*
X13694134Y-36916208D01*
X14246368Y-36916208D01*
X14248330Y-36926990D01*
X14258869Y-36930000D01*
X15126967Y-36930000D01*
X15137245Y-36927245D01*
X15140000Y-36916967D01*
X15340000Y-36916967D01*
X15342754Y-36927245D01*
X15353033Y-36930000D01*
X16221131Y-36930000D01*
X16231669Y-36926990D01*
X16233631Y-36916208D01*
X16226008Y-36838809D01*
X16224118Y-36829309D01*
X16169762Y-36650121D01*
X16166055Y-36641172D01*
X16077784Y-36476028D01*
X16072409Y-36467984D01*
X15953617Y-36323236D01*
X15946763Y-36316382D01*
X15802015Y-36197590D01*
X15793971Y-36192215D01*
X15628827Y-36103944D01*
X15619878Y-36100237D01*
X15440690Y-36045881D01*
X15431190Y-36043991D01*
X15353791Y-36036368D01*
X15343009Y-36038330D01*
X15340000Y-36048869D01*
X15340000Y-36916967D01*
X15140000Y-36916967D01*
X15140000Y-36048869D01*
X15136990Y-36038330D01*
X15126208Y-36036368D01*
X15048809Y-36043991D01*
X15039309Y-36045881D01*
X14860121Y-36100237D01*
X14851172Y-36103944D01*
X14686028Y-36192215D01*
X14677984Y-36197590D01*
X14533236Y-36316382D01*
X14526382Y-36323236D01*
X14407590Y-36467984D01*
X14402215Y-36476028D01*
X14313944Y-36641172D01*
X14310237Y-36650121D01*
X14255881Y-36829309D01*
X14253991Y-36838809D01*
X14246368Y-36916208D01*
X13694134Y-36916208D01*
X13686024Y-36833868D01*
X13628814Y-36645273D01*
X13535910Y-36471462D01*
X13410883Y-36319117D01*
X13407118Y-36316027D01*
X13262295Y-36197173D01*
X13262292Y-36197171D01*
X13258538Y-36194090D01*
X13106728Y-36112946D01*
X13089019Y-36103480D01*
X13089017Y-36103479D01*
X13084727Y-36101186D01*
X13080072Y-36099774D01*
X13080070Y-36099773D01*
X12900788Y-36045388D01*
X12900784Y-36045387D01*
X12896132Y-36043976D01*
X12882120Y-36042596D01*
X12704843Y-36025136D01*
X12700000Y-36024659D01*
X12695157Y-36025136D01*
X12508710Y-36043499D01*
X12508708Y-36043499D01*
X12503868Y-36043976D01*
X12499217Y-36045386D01*
X12499211Y-36045388D01*
X12319929Y-36099773D01*
X12319923Y-36099775D01*
X12315273Y-36101186D01*
X12310985Y-36103477D01*
X12310980Y-36103480D01*
X12148504Y-36190326D01*
X12141462Y-36194090D01*
X12137711Y-36197168D01*
X12137704Y-36197173D01*
X11992881Y-36316027D01*
X11992875Y-36316032D01*
X11989117Y-36319117D01*
X11986032Y-36322875D01*
X11986027Y-36322881D01*
X11867173Y-36467704D01*
X11867168Y-36467711D01*
X11864090Y-36471462D01*
X11861798Y-36475749D01*
X11861798Y-36475750D01*
X11773480Y-36640980D01*
X11773477Y-36640985D01*
X11771186Y-36645273D01*
X11769775Y-36649923D01*
X11769773Y-36649929D01*
X11715388Y-36829211D01*
X11715386Y-36829217D01*
X11713976Y-36833868D01*
X11694659Y-37030000D01*
X11713976Y-37226132D01*
X11715387Y-37230784D01*
X11715388Y-37230788D01*
X11765226Y-37395081D01*
X11766522Y-37447874D01*
X11740493Y-37493822D01*
X10984793Y-38249524D01*
X10952675Y-38270985D01*
X10914789Y-38278521D01*
X9646167Y-38278521D01*
X9591166Y-38261837D01*
X9554703Y-38217407D01*
X9549069Y-38160207D01*
X9576163Y-38109518D01*
X9696176Y-37989504D01*
X9742123Y-37963476D01*
X9794913Y-37964771D01*
X9963868Y-38016024D01*
X10160000Y-38035341D01*
X10356132Y-38016024D01*
X10544727Y-37958814D01*
X10718538Y-37865910D01*
X10870883Y-37740883D01*
X10995910Y-37588538D01*
X11088814Y-37414727D01*
X11146024Y-37226132D01*
X11165341Y-37030000D01*
X11146024Y-36833868D01*
X11088814Y-36645273D01*
X10995910Y-36471462D01*
X10870883Y-36319117D01*
X10867118Y-36316027D01*
X10722295Y-36197173D01*
X10722292Y-36197171D01*
X10718538Y-36194090D01*
X10566728Y-36112946D01*
X10549019Y-36103480D01*
X10549017Y-36103479D01*
X10544727Y-36101186D01*
X10540072Y-36099774D01*
X10540070Y-36099773D01*
X10360788Y-36045388D01*
X10360784Y-36045387D01*
X10356132Y-36043976D01*
X10342120Y-36042596D01*
X10164843Y-36025136D01*
X10160000Y-36024659D01*
X10155157Y-36025136D01*
X9968710Y-36043499D01*
X9968708Y-36043499D01*
X9963868Y-36043976D01*
X9959217Y-36045386D01*
X9959211Y-36045388D01*
X9779929Y-36099773D01*
X9779923Y-36099775D01*
X9775273Y-36101186D01*
X9770985Y-36103477D01*
X9770980Y-36103480D01*
X9608504Y-36190326D01*
X9601462Y-36194090D01*
X9597711Y-36197168D01*
X9597704Y-36197173D01*
X9452881Y-36316027D01*
X9452875Y-36316032D01*
X9449117Y-36319117D01*
X9446032Y-36322875D01*
X9446027Y-36322881D01*
X9327173Y-36467704D01*
X9327168Y-36467711D01*
X9324090Y-36471462D01*
X9321798Y-36475749D01*
X9321798Y-36475750D01*
X9233480Y-36640980D01*
X9233477Y-36640985D01*
X9231186Y-36645273D01*
X9229775Y-36649923D01*
X9229773Y-36649929D01*
X9175388Y-36829211D01*
X9175386Y-36829217D01*
X9173976Y-36833868D01*
X9154659Y-37030000D01*
X9173976Y-37226132D01*
X9175387Y-37230784D01*
X9175388Y-37230788D01*
X9225226Y-37395082D01*
X9226522Y-37447875D01*
X9200493Y-37493823D01*
X8894304Y-37800014D01*
X8862186Y-37821475D01*
X8824300Y-37829011D01*
X8467876Y-37829011D01*
X8414911Y-37813651D01*
X8378381Y-37772339D01*
X8369621Y-37717892D01*
X8391348Y-37667206D01*
X8455910Y-37588538D01*
X8548814Y-37414727D01*
X8606024Y-37226132D01*
X8625341Y-37030000D01*
X8606024Y-36833868D01*
X8554771Y-36664913D01*
X8553476Y-36612124D01*
X8579503Y-36566177D01*
X9104884Y-36040796D01*
X9120734Y-36027926D01*
X9130669Y-36021437D01*
X9149458Y-35997295D01*
X9152902Y-35993397D01*
X9152827Y-35993333D01*
X9155473Y-35990207D01*
X9158375Y-35987307D01*
X9169861Y-35971217D01*
X9172285Y-35967966D01*
X9202517Y-35929126D01*
X9204927Y-35922104D01*
X9209239Y-35916066D01*
X9223274Y-35868919D01*
X9224512Y-35865054D01*
X9240500Y-35818488D01*
X9240500Y-35811065D01*
X9242617Y-35803954D01*
X9240585Y-35754824D01*
X9240500Y-35750733D01*
X9240500Y-35223369D01*
X9258559Y-35166364D01*
X9306148Y-35130156D01*
X9365905Y-35127955D01*
X9416027Y-35160563D01*
X9449117Y-35200883D01*
X9601462Y-35325910D01*
X9775273Y-35418814D01*
X9963868Y-35476024D01*
X10160000Y-35495341D01*
X10356132Y-35476024D01*
X10544727Y-35418814D01*
X10718538Y-35325910D01*
X10870883Y-35200883D01*
X10995910Y-35048538D01*
X11088814Y-34874727D01*
X11146024Y-34686132D01*
X11165341Y-34490000D01*
X11146024Y-34293868D01*
X11088814Y-34105273D01*
X10995910Y-33931462D01*
X10928927Y-33849844D01*
X10873972Y-33782881D01*
X10870883Y-33779117D01*
X10813007Y-33731619D01*
X10722295Y-33657173D01*
X10722292Y-33657171D01*
X10718538Y-33654090D01*
X10714250Y-33651798D01*
X10714249Y-33651797D01*
X10562832Y-33570863D01*
X10524585Y-33534449D01*
X10510500Y-33483553D01*
X10510500Y-13286620D01*
X10512607Y-13266304D01*
X10513360Y-13262712D01*
X10513360Y-13262711D01*
X10515043Y-13254685D01*
X10511259Y-13224337D01*
X10510936Y-13219125D01*
X10510838Y-13219134D01*
X10510500Y-13215056D01*
X10510500Y-13210960D01*
X10507249Y-13191478D01*
X10506659Y-13187429D01*
X10502995Y-13158036D01*
X10500573Y-13138607D01*
X10497313Y-13131939D01*
X10496092Y-13124619D01*
X10472680Y-13081359D01*
X10470812Y-13077730D01*
X10452800Y-13040884D01*
X10452799Y-13040883D01*
X10449198Y-13033516D01*
X10443949Y-13028267D01*
X10440418Y-13021742D01*
X10434382Y-13016185D01*
X10434381Y-13016184D01*
X10404247Y-12988444D01*
X10401294Y-12985612D01*
X10135186Y-12719504D01*
X10108092Y-12668814D01*
X10113726Y-12611614D01*
X10150189Y-12567185D01*
X10205190Y-12550500D01*
X10213810Y-12550500D01*
X10251696Y-12558036D01*
X10283814Y-12579496D01*
X12320504Y-14616186D01*
X12341964Y-14648304D01*
X12349500Y-14686190D01*
X12349500Y-33483553D01*
X12335415Y-33534449D01*
X12297168Y-33570863D01*
X12145750Y-33651797D01*
X12145742Y-33651802D01*
X12141462Y-33654090D01*
X12137711Y-33657168D01*
X12137704Y-33657173D01*
X11992881Y-33776027D01*
X11992875Y-33776032D01*
X11989117Y-33779117D01*
X11986032Y-33782875D01*
X11986027Y-33782881D01*
X11867173Y-33927704D01*
X11867168Y-33927711D01*
X11864090Y-33931462D01*
X11861798Y-33935749D01*
X11861798Y-33935750D01*
X11773480Y-34100980D01*
X11773477Y-34100985D01*
X11771186Y-34105273D01*
X11769775Y-34109923D01*
X11769773Y-34109929D01*
X11715388Y-34289211D01*
X11715386Y-34289217D01*
X11713976Y-34293868D01*
X11694659Y-34490000D01*
X11713976Y-34686132D01*
X11771186Y-34874727D01*
X11864090Y-35048538D01*
X11867171Y-35052292D01*
X11867173Y-35052295D01*
X11933272Y-35132836D01*
X11989117Y-35200883D01*
X12141462Y-35325910D01*
X12315273Y-35418814D01*
X12503868Y-35476024D01*
X12700000Y-35495341D01*
X12896132Y-35476024D01*
X13084727Y-35418814D01*
X13258538Y-35325910D01*
X13410883Y-35200883D01*
X13535910Y-35048538D01*
X13628814Y-34874727D01*
X13686024Y-34686132D01*
X13694134Y-34603791D01*
X14246368Y-34603791D01*
X14253991Y-34681190D01*
X14255881Y-34690690D01*
X14310237Y-34869878D01*
X14313944Y-34878827D01*
X14402215Y-35043971D01*
X14407590Y-35052015D01*
X14526382Y-35196763D01*
X14533236Y-35203617D01*
X14677984Y-35322409D01*
X14686028Y-35327784D01*
X14851172Y-35416055D01*
X14860121Y-35419762D01*
X15039309Y-35474118D01*
X15048809Y-35476008D01*
X15126208Y-35483631D01*
X15136990Y-35481669D01*
X15140000Y-35471131D01*
X15340000Y-35471131D01*
X15343009Y-35481669D01*
X15353791Y-35483631D01*
X15431190Y-35476008D01*
X15440690Y-35474118D01*
X15619878Y-35419762D01*
X15628827Y-35416055D01*
X15793971Y-35327784D01*
X15802015Y-35322409D01*
X15946763Y-35203617D01*
X15953617Y-35196763D01*
X16072409Y-35052015D01*
X16077784Y-35043971D01*
X16166055Y-34878827D01*
X16169762Y-34869878D01*
X16224118Y-34690690D01*
X16226008Y-34681190D01*
X16233631Y-34603791D01*
X16231669Y-34593009D01*
X16221131Y-34590000D01*
X15353033Y-34590000D01*
X15342754Y-34592754D01*
X15340000Y-34603033D01*
X15340000Y-35471131D01*
X15140000Y-35471131D01*
X15140000Y-34603033D01*
X15137245Y-34592754D01*
X15126967Y-34590000D01*
X14258869Y-34590000D01*
X14248330Y-34593009D01*
X14246368Y-34603791D01*
X13694134Y-34603791D01*
X13705341Y-34490000D01*
X16774659Y-34490000D01*
X16793976Y-34686132D01*
X16851186Y-34874727D01*
X16944090Y-35048538D01*
X16947171Y-35052292D01*
X16947173Y-35052295D01*
X17013272Y-35132836D01*
X17069117Y-35200883D01*
X17221462Y-35325910D01*
X17395273Y-35418814D01*
X17583868Y-35476024D01*
X17780000Y-35495341D01*
X17976132Y-35476024D01*
X18164727Y-35418814D01*
X18338538Y-35325910D01*
X18490883Y-35200883D01*
X18615910Y-35048538D01*
X18708814Y-34874727D01*
X18766024Y-34686132D01*
X18785341Y-34490000D01*
X18766024Y-34293868D01*
X18708814Y-34105273D01*
X18615910Y-33931462D01*
X18548927Y-33849844D01*
X18493972Y-33782881D01*
X18490883Y-33779117D01*
X18433007Y-33731619D01*
X18342295Y-33657173D01*
X18342292Y-33657171D01*
X18338538Y-33654090D01*
X18190356Y-33574885D01*
X18169019Y-33563480D01*
X18169017Y-33563479D01*
X18164727Y-33561186D01*
X18160072Y-33559774D01*
X18160070Y-33559773D01*
X17980788Y-33505388D01*
X17980784Y-33505387D01*
X17976132Y-33503976D01*
X17780000Y-33484659D01*
X17775157Y-33485136D01*
X17588710Y-33503499D01*
X17588708Y-33503499D01*
X17583868Y-33503976D01*
X17579217Y-33505386D01*
X17579211Y-33505388D01*
X17399929Y-33559773D01*
X17399923Y-33559775D01*
X17395273Y-33561186D01*
X17390985Y-33563477D01*
X17390980Y-33563480D01*
X17294753Y-33614915D01*
X17221462Y-33654090D01*
X17217711Y-33657168D01*
X17217704Y-33657173D01*
X17072881Y-33776027D01*
X17072875Y-33776032D01*
X17069117Y-33779117D01*
X17066032Y-33782875D01*
X17066027Y-33782881D01*
X16947173Y-33927704D01*
X16947168Y-33927711D01*
X16944090Y-33931462D01*
X16941798Y-33935749D01*
X16941798Y-33935750D01*
X16853480Y-34100980D01*
X16853477Y-34100985D01*
X16851186Y-34105273D01*
X16849775Y-34109923D01*
X16849773Y-34109929D01*
X16795388Y-34289211D01*
X16795386Y-34289217D01*
X16793976Y-34293868D01*
X16774659Y-34490000D01*
X13705341Y-34490000D01*
X13694134Y-34376208D01*
X14246368Y-34376208D01*
X14248330Y-34386990D01*
X14258869Y-34390000D01*
X15126967Y-34390000D01*
X15137245Y-34387245D01*
X15140000Y-34376967D01*
X15340000Y-34376967D01*
X15342754Y-34387245D01*
X15353033Y-34390000D01*
X16221131Y-34390000D01*
X16231669Y-34386990D01*
X16233631Y-34376208D01*
X16226008Y-34298809D01*
X16224118Y-34289309D01*
X16169762Y-34110121D01*
X16166055Y-34101172D01*
X16077784Y-33936028D01*
X16072409Y-33927984D01*
X15953617Y-33783236D01*
X15946763Y-33776382D01*
X15802015Y-33657590D01*
X15793971Y-33652215D01*
X15628827Y-33563944D01*
X15619878Y-33560237D01*
X15440690Y-33505881D01*
X15431190Y-33503991D01*
X15353791Y-33496368D01*
X15343009Y-33498330D01*
X15340000Y-33508869D01*
X15340000Y-34376967D01*
X15140000Y-34376967D01*
X15140000Y-33508869D01*
X15136990Y-33498330D01*
X15126208Y-33496368D01*
X15048809Y-33503991D01*
X15039309Y-33505881D01*
X14860121Y-33560237D01*
X14851172Y-33563944D01*
X14686028Y-33652215D01*
X14677984Y-33657590D01*
X14533236Y-33776382D01*
X14526382Y-33783236D01*
X14407590Y-33927984D01*
X14402215Y-33936028D01*
X14313944Y-34101172D01*
X14310237Y-34110121D01*
X14255881Y-34289309D01*
X14253991Y-34298809D01*
X14246368Y-34376208D01*
X13694134Y-34376208D01*
X13686024Y-34293868D01*
X13628814Y-34105273D01*
X13535910Y-33931462D01*
X13468927Y-33849844D01*
X13413972Y-33782881D01*
X13410883Y-33779117D01*
X13353007Y-33731619D01*
X13262295Y-33657173D01*
X13262292Y-33657171D01*
X13258538Y-33654090D01*
X13254250Y-33651798D01*
X13254249Y-33651797D01*
X13102832Y-33570863D01*
X13064585Y-33534449D01*
X13050500Y-33483553D01*
X13050500Y-14546614D01*
X13052607Y-14526298D01*
X13053359Y-14522710D01*
X13055042Y-14514685D01*
X13051260Y-14484344D01*
X13050936Y-14479130D01*
X13050838Y-14479139D01*
X13050500Y-14475065D01*
X13050500Y-14470960D01*
X13047243Y-14451447D01*
X13046658Y-14447430D01*
X13040573Y-14398607D01*
X13037313Y-14391939D01*
X13036092Y-14384619D01*
X13012680Y-14341359D01*
X13010812Y-14337730D01*
X12992800Y-14300884D01*
X12992799Y-14300883D01*
X12989198Y-14293516D01*
X12983949Y-14288267D01*
X12980418Y-14281742D01*
X12974382Y-14276185D01*
X12974381Y-14276184D01*
X12944247Y-14248444D01*
X12941294Y-14245612D01*
X10680801Y-11985119D01*
X10667925Y-11969261D01*
X10665924Y-11966199D01*
X10665923Y-11966198D01*
X10661437Y-11959331D01*
X10637311Y-11940553D01*
X10633395Y-11937095D01*
X10633332Y-11937170D01*
X10630196Y-11934514D01*
X10627307Y-11931625D01*
X10611209Y-11920132D01*
X10607947Y-11917699D01*
X10605828Y-11916050D01*
X10585208Y-11900000D01*
X10575598Y-11892520D01*
X10575596Y-11892519D01*
X10569126Y-11887483D01*
X10562107Y-11885073D01*
X10556066Y-11880760D01*
X10548207Y-11878420D01*
X10548205Y-11878419D01*
X10508909Y-11866720D01*
X10505014Y-11865472D01*
X10466244Y-11852162D01*
X10466240Y-11852161D01*
X10458488Y-11849500D01*
X10451065Y-11849500D01*
X10443954Y-11847383D01*
X10435754Y-11847722D01*
X10394824Y-11849415D01*
X10390733Y-11849500D01*
X1846614Y-11849500D01*
X1826298Y-11847393D01*
X1822710Y-11846640D01*
X1822706Y-11846639D01*
X1814685Y-11844958D01*
X1806549Y-11845972D01*
X1784344Y-11848740D01*
X1779126Y-11849063D01*
X1779135Y-11849162D01*
X1775055Y-11849500D01*
X1770960Y-11849500D01*
X1766920Y-11850173D01*
X1766920Y-11850174D01*
X1751477Y-11852750D01*
X1747437Y-11853338D01*
X1706748Y-11858410D01*
X1706735Y-11858413D01*
X1698607Y-11859427D01*
X1691939Y-11862686D01*
X1684619Y-11863908D01*
X1677409Y-11867809D01*
X1677408Y-11867810D01*
X1641360Y-11887318D01*
X1637724Y-11889189D01*
X1600887Y-11907197D01*
X1600880Y-11907201D01*
X1593516Y-11910802D01*
X1588267Y-11916050D01*
X1581742Y-11919582D01*
X1576189Y-11925612D01*
X1576186Y-11925616D01*
X1548432Y-11955764D01*
X1545601Y-11958715D01*
X1055117Y-12449199D01*
X1039267Y-12462070D01*
X1036199Y-12464074D01*
X1036192Y-12464079D01*
X1029331Y-12468563D01*
X1024295Y-12475032D01*
X1024295Y-12475033D01*
X1010546Y-12492697D01*
X1007088Y-12496614D01*
X1007162Y-12496677D01*
X1004512Y-12499804D01*
X1001625Y-12502693D01*
X999256Y-12506009D01*
X999249Y-12506019D01*
X990133Y-12518787D01*
X987691Y-12522061D01*
X962520Y-12554401D01*
X962517Y-12554405D01*
X957483Y-12560874D01*
X955073Y-12567892D01*
X950760Y-12573934D01*
X945378Y-12592010D01*
X936718Y-12621097D01*
X935475Y-12624973D01*
X931384Y-12636893D01*
X925428Y-12654245D01*
X919500Y-12671512D01*
X919500Y-12678935D01*
X917383Y-12686046D01*
X917722Y-12694244D01*
X917722Y-12694245D01*
X919415Y-12735176D01*
X919500Y-12739267D01*
X919500Y-13220110D01*
X907147Y-13267998D01*
X873171Y-13303936D01*
X772446Y-13367225D01*
X772441Y-13367228D01*
X767738Y-13370184D01*
X763811Y-13374110D01*
X763807Y-13374114D01*
X644114Y-13493807D01*
X644110Y-13493811D01*
X640184Y-13497738D01*
X637228Y-13502441D01*
X637225Y-13502446D01*
X547170Y-13645768D01*
X544211Y-13650478D01*
X542375Y-13655724D01*
X542373Y-13655729D01*
X486468Y-13815496D01*
X486466Y-13815501D01*
X484632Y-13820745D01*
X484010Y-13826259D01*
X484009Y-13826267D01*
X469809Y-13952300D01*
X469500Y-13955046D01*
X469500Y-14444954D01*
X469808Y-14447693D01*
X469809Y-14447699D01*
X484009Y-14573732D01*
X484010Y-14573738D01*
X484632Y-14579255D01*
X486467Y-14584500D01*
X486468Y-14584503D01*
X540839Y-14739886D01*
X544211Y-14749522D01*
X640184Y-14902262D01*
X767738Y-15029816D01*
X920478Y-15125789D01*
X1090745Y-15185368D01*
X1270000Y-15205565D01*
X1449255Y-15185368D01*
X1619522Y-15125789D01*
X1772262Y-15029816D01*
X1899816Y-14902262D01*
X1995789Y-14749522D01*
X2055368Y-14579255D01*
X2070500Y-14444954D01*
X3009500Y-14444954D01*
X3009808Y-14447693D01*
X3009809Y-14447699D01*
X3024009Y-14573732D01*
X3024010Y-14573738D01*
X3024632Y-14579255D01*
X3026467Y-14584500D01*
X3026468Y-14584503D01*
X3080839Y-14739886D01*
X3084211Y-14749522D01*
X3180184Y-14902262D01*
X3307738Y-15029816D01*
X3460478Y-15125789D01*
X3630745Y-15185368D01*
X3810000Y-15205565D01*
X3989255Y-15185368D01*
X4159522Y-15125789D01*
X4312262Y-15029816D01*
X4439816Y-14902262D01*
X4535789Y-14749522D01*
X4595368Y-14579255D01*
X4610500Y-14444954D01*
X4610500Y-13955046D01*
X4595368Y-13820745D01*
X4535789Y-13650478D01*
X4439816Y-13497738D01*
X4312262Y-13370184D01*
X4159522Y-13274211D01*
X4154271Y-13272373D01*
X4154270Y-13272373D01*
X3994503Y-13216468D01*
X3994500Y-13216467D01*
X3989255Y-13214632D01*
X3983738Y-13214010D01*
X3983732Y-13214009D01*
X3815520Y-13195057D01*
X3810000Y-13194435D01*
X3804480Y-13195057D01*
X3636267Y-13214009D01*
X3636259Y-13214010D01*
X3630745Y-13214632D01*
X3625501Y-13216466D01*
X3625496Y-13216468D01*
X3465729Y-13272373D01*
X3465724Y-13272375D01*
X3460478Y-13274211D01*
X3455771Y-13277168D01*
X3455768Y-13277170D01*
X3312446Y-13367225D01*
X3312441Y-13367228D01*
X3307738Y-13370184D01*
X3303811Y-13374110D01*
X3303807Y-13374114D01*
X3184114Y-13493807D01*
X3184110Y-13493811D01*
X3180184Y-13497738D01*
X3177228Y-13502441D01*
X3177225Y-13502446D01*
X3087170Y-13645768D01*
X3084211Y-13650478D01*
X3082375Y-13655724D01*
X3082373Y-13655729D01*
X3026468Y-13815496D01*
X3026466Y-13815501D01*
X3024632Y-13820745D01*
X3024010Y-13826259D01*
X3024009Y-13826267D01*
X3009809Y-13952300D01*
X3009500Y-13955046D01*
X3009500Y-14444954D01*
X2070500Y-14444954D01*
X2070500Y-13955046D01*
X2055368Y-13820745D01*
X1995789Y-13650478D01*
X1899816Y-13497738D01*
X1772262Y-13370184D01*
X1753599Y-13358457D01*
X1666829Y-13303936D01*
X1632853Y-13267998D01*
X1620500Y-13220110D01*
X1620500Y-12916190D01*
X1628036Y-12878304D01*
X1649496Y-12846186D01*
X1916186Y-12579496D01*
X1948304Y-12558036D01*
X1986190Y-12550500D01*
X6014282Y-12550500D01*
X6066712Y-12565523D01*
X6103229Y-12606033D01*
X6112752Y-12659734D01*
X6092389Y-12710330D01*
X6090530Y-12712717D01*
X6087088Y-12716615D01*
X6087162Y-12716677D01*
X6084512Y-12719804D01*
X6081625Y-12722693D01*
X6079256Y-12726009D01*
X6079249Y-12726019D01*
X6070133Y-12738787D01*
X6067691Y-12742061D01*
X6042520Y-12774401D01*
X6042517Y-12774405D01*
X6037483Y-12780874D01*
X6035073Y-12787892D01*
X6030760Y-12793934D01*
X6028421Y-12801787D01*
X6028422Y-12801787D01*
X6016718Y-12841097D01*
X6015475Y-12844973D01*
X5999500Y-12891512D01*
X5999500Y-12898935D01*
X5997383Y-12906046D01*
X5997722Y-12914244D01*
X5997722Y-12914245D01*
X5999415Y-12955176D01*
X5999500Y-12959267D01*
X5999500Y-13220110D01*
X5987147Y-13267998D01*
X5953171Y-13303936D01*
X5852446Y-13367225D01*
X5852441Y-13367228D01*
X5847738Y-13370184D01*
X5843811Y-13374110D01*
X5843807Y-13374114D01*
X5724114Y-13493807D01*
X5724110Y-13493811D01*
X5720184Y-13497738D01*
X5717228Y-13502441D01*
X5717225Y-13502446D01*
X5627170Y-13645768D01*
X5624211Y-13650478D01*
X5622375Y-13655724D01*
X5622373Y-13655729D01*
X5566468Y-13815496D01*
X5566466Y-13815501D01*
X5564632Y-13820745D01*
X5564010Y-13826259D01*
X5564009Y-13826267D01*
X5549809Y-13952300D01*
X5549500Y-13955046D01*
X5549500Y-14444954D01*
X5549808Y-14447693D01*
X5549809Y-14447699D01*
X5564009Y-14573732D01*
X5564010Y-14573738D01*
X5564632Y-14579255D01*
X5566467Y-14584500D01*
X5566468Y-14584503D01*
X5620839Y-14739886D01*
X5624211Y-14749522D01*
X5720184Y-14902262D01*
X5847738Y-15029816D01*
X6000478Y-15125789D01*
X6170745Y-15185368D01*
X6350000Y-15205565D01*
X6529255Y-15185368D01*
X6699522Y-15125789D01*
X6852262Y-15029816D01*
X6979816Y-14902262D01*
X7075789Y-14749522D01*
X7135368Y-14579255D01*
X7150500Y-14444954D01*
X7150500Y-13955046D01*
X7135368Y-13820745D01*
X7075789Y-13650478D01*
X6979816Y-13497738D01*
X6852262Y-13370184D01*
X6833599Y-13358457D01*
X6793603Y-13333326D01*
X6759095Y-13296413D01*
X6747299Y-13247279D01*
X6761288Y-13198723D01*
X6797417Y-13163396D01*
X6846274Y-13150500D01*
X8393726Y-13150500D01*
X8442583Y-13163396D01*
X8478712Y-13198723D01*
X8492701Y-13247279D01*
X8480905Y-13296413D01*
X8446397Y-13333326D01*
X8392446Y-13367225D01*
X8392441Y-13367228D01*
X8387738Y-13370184D01*
X8383811Y-13374110D01*
X8383807Y-13374114D01*
X8264114Y-13493807D01*
X8264110Y-13493811D01*
X8260184Y-13497738D01*
X8257228Y-13502441D01*
X8257225Y-13502446D01*
X8167170Y-13645768D01*
X8164211Y-13650478D01*
X8162375Y-13655724D01*
X8162373Y-13655729D01*
X8106468Y-13815496D01*
X8106466Y-13815501D01*
X8104632Y-13820745D01*
X8104010Y-13826259D01*
X8104009Y-13826267D01*
X8089809Y-13952300D01*
X8089500Y-13955046D01*
X8089500Y-14444954D01*
X8089808Y-14447693D01*
X8089809Y-14447699D01*
X8104009Y-14573732D01*
X8104010Y-14573738D01*
X8104632Y-14579255D01*
X8106467Y-14584500D01*
X8106468Y-14584503D01*
X8160839Y-14739886D01*
X8164211Y-14749522D01*
X8260184Y-14902262D01*
X8387738Y-15029816D01*
X8392446Y-15032774D01*
X8493171Y-15096064D01*
X8527147Y-15132002D01*
X8539500Y-15179890D01*
X8539500Y-33756631D01*
X8521441Y-33813636D01*
X8473852Y-33849844D01*
X8414095Y-33852045D01*
X8363972Y-33819436D01*
X8333972Y-33782881D01*
X8330883Y-33779117D01*
X8273007Y-33731619D01*
X8182295Y-33657173D01*
X8182292Y-33657171D01*
X8178538Y-33654090D01*
X8030356Y-33574885D01*
X8009019Y-33563480D01*
X8009017Y-33563479D01*
X8004727Y-33561186D01*
X8000072Y-33559774D01*
X8000070Y-33559773D01*
X7820788Y-33505388D01*
X7820784Y-33505387D01*
X7816132Y-33503976D01*
X7620000Y-33484659D01*
X7615157Y-33485136D01*
X7428710Y-33503499D01*
X7428708Y-33503499D01*
X7423868Y-33503976D01*
X7419217Y-33505386D01*
X7419211Y-33505388D01*
X7239929Y-33559773D01*
X7239923Y-33559775D01*
X7235273Y-33561186D01*
X7230985Y-33563477D01*
X7230980Y-33563480D01*
X7134753Y-33614915D01*
X7061462Y-33654090D01*
X7057711Y-33657168D01*
X7057704Y-33657173D01*
X6912881Y-33776027D01*
X6912875Y-33776032D01*
X6909117Y-33779117D01*
X6906032Y-33782875D01*
X6906027Y-33782881D01*
X6787173Y-33927704D01*
X6787168Y-33927711D01*
X6784090Y-33931462D01*
X6781798Y-33935749D01*
X6781798Y-33935750D01*
X6693480Y-34100980D01*
X6693477Y-34100985D01*
X6691186Y-34105273D01*
X6689775Y-34109923D01*
X6689773Y-34109929D01*
X6635388Y-34289211D01*
X6635386Y-34289217D01*
X6633976Y-34293868D01*
X6614659Y-34490000D01*
X6633976Y-34686132D01*
X6691186Y-34874727D01*
X6784090Y-35048538D01*
X6787171Y-35052292D01*
X6787173Y-35052295D01*
X6853272Y-35132836D01*
X6909117Y-35200883D01*
X7061462Y-35325910D01*
X7235273Y-35418814D01*
X7423868Y-35476024D01*
X7620000Y-35495341D01*
X7816132Y-35476024D01*
X8004727Y-35418814D01*
X8178538Y-35325910D01*
X8330883Y-35200883D01*
X8363972Y-35160563D01*
X8414095Y-35127955D01*
X8473852Y-35130156D01*
X8521441Y-35166364D01*
X8539500Y-35223369D01*
X8539500Y-35573810D01*
X8531964Y-35611696D01*
X8510503Y-35643814D01*
X8083822Y-36070493D01*
X8037874Y-36096522D01*
X7985081Y-36095226D01*
X7820788Y-36045388D01*
X7820784Y-36045387D01*
X7816132Y-36043976D01*
X7802120Y-36042596D01*
X7624843Y-36025136D01*
X7620000Y-36024659D01*
X7615157Y-36025136D01*
X7428710Y-36043499D01*
X7428708Y-36043499D01*
X7423868Y-36043976D01*
X7419217Y-36045386D01*
X7419211Y-36045388D01*
X7239929Y-36099773D01*
X7239923Y-36099775D01*
X7235273Y-36101186D01*
X7230985Y-36103477D01*
X7230980Y-36103480D01*
X7068504Y-36190326D01*
X7061462Y-36194090D01*
X7057711Y-36197168D01*
X7057704Y-36197173D01*
X6912881Y-36316027D01*
X6912875Y-36316032D01*
X6909117Y-36319117D01*
X6906032Y-36322875D01*
X6906027Y-36322881D01*
X6787173Y-36467704D01*
X6787168Y-36467711D01*
X6784090Y-36471462D01*
X6781798Y-36475749D01*
X6781798Y-36475750D01*
X6693480Y-36640980D01*
X6693477Y-36640985D01*
X6691186Y-36645273D01*
X6689775Y-36649923D01*
X6689773Y-36649929D01*
X6635388Y-36829211D01*
X6635386Y-36829217D01*
X6633976Y-36833868D01*
X6614659Y-37030000D01*
X6633976Y-37226132D01*
X6635387Y-37230784D01*
X6635388Y-37230788D01*
X6689715Y-37409878D01*
X6691186Y-37414727D01*
X6784090Y-37588538D01*
X6848652Y-37667206D01*
X6870379Y-37717892D01*
X6861619Y-37772339D01*
X6825089Y-37813651D01*
X6772124Y-37829011D01*
X5927876Y-37829011D01*
X5874911Y-37813651D01*
X5838381Y-37772339D01*
X5829621Y-37717892D01*
X5851348Y-37667206D01*
X5915910Y-37588538D01*
X6008814Y-37414727D01*
X6066024Y-37226132D01*
X6085341Y-37030000D01*
X6066024Y-36833868D01*
X6008814Y-36645273D01*
X5915910Y-36471462D01*
X5790883Y-36319117D01*
X5787118Y-36316027D01*
X5642295Y-36197173D01*
X5642292Y-36197171D01*
X5638538Y-36194090D01*
X5486728Y-36112946D01*
X5469019Y-36103480D01*
X5469017Y-36103479D01*
X5464727Y-36101186D01*
X5460072Y-36099774D01*
X5460070Y-36099773D01*
X5280788Y-36045388D01*
X5280784Y-36045387D01*
X5276132Y-36043976D01*
X5262120Y-36042596D01*
X5084843Y-36025136D01*
X5080000Y-36024659D01*
X5075157Y-36025136D01*
X4888710Y-36043499D01*
X4888708Y-36043499D01*
X4883868Y-36043976D01*
X4879217Y-36045386D01*
X4879211Y-36045388D01*
X4699929Y-36099773D01*
X4699923Y-36099775D01*
X4695273Y-36101186D01*
X4690985Y-36103477D01*
X4690980Y-36103480D01*
X4528504Y-36190326D01*
X4521462Y-36194090D01*
X4517711Y-36197168D01*
X4517704Y-36197173D01*
X4372881Y-36316027D01*
X4372875Y-36316032D01*
X4369117Y-36319117D01*
X4366032Y-36322875D01*
X4366027Y-36322881D01*
X4247173Y-36467704D01*
X4247168Y-36467711D01*
X4244090Y-36471462D01*
X4241798Y-36475749D01*
X4241798Y-36475750D01*
X4153480Y-36640980D01*
X4153477Y-36640985D01*
X4151186Y-36645273D01*
X4149775Y-36649923D01*
X4149773Y-36649929D01*
X4095388Y-36829211D01*
X4095386Y-36829217D01*
X4093976Y-36833868D01*
X4074659Y-37030000D01*
X4075136Y-37034843D01*
X4085665Y-37141748D01*
X4073281Y-37200249D01*
X4029470Y-37240947D01*
X3970217Y-37248994D01*
X3917138Y-37221456D01*
X2005430Y-35309748D01*
X4079500Y-35309748D01*
X4080446Y-35314506D01*
X4080447Y-35314511D01*
X4089230Y-35358666D01*
X4091133Y-35368231D01*
X4096550Y-35376338D01*
X4096551Y-35376340D01*
X4129476Y-35425615D01*
X4135448Y-35434552D01*
X4201769Y-35478867D01*
X4260252Y-35490500D01*
X5894890Y-35490500D01*
X5899748Y-35490500D01*
X5958231Y-35478867D01*
X6024552Y-35434552D01*
X6068867Y-35368231D01*
X6080500Y-35309748D01*
X6080500Y-33670252D01*
X6068867Y-33611769D01*
X6024552Y-33545448D01*
X6016441Y-33540028D01*
X5966340Y-33506551D01*
X5966338Y-33506550D01*
X5958231Y-33501133D01*
X5948667Y-33499230D01*
X5948666Y-33499230D01*
X5904511Y-33490447D01*
X5904506Y-33490446D01*
X5899748Y-33489500D01*
X4260252Y-33489500D01*
X4255494Y-33490446D01*
X4255488Y-33490447D01*
X4211333Y-33499230D01*
X4211330Y-33499231D01*
X4201769Y-33501133D01*
X4193663Y-33506549D01*
X4193659Y-33506551D01*
X4143558Y-33540028D01*
X4143555Y-33540030D01*
X4135448Y-33545448D01*
X4130030Y-33553555D01*
X4130028Y-33553558D01*
X4096551Y-33603659D01*
X4096549Y-33603663D01*
X4091133Y-33611769D01*
X4089231Y-33621330D01*
X4089230Y-33621333D01*
X4080447Y-33665488D01*
X4080446Y-33665494D01*
X4079500Y-33670252D01*
X4079500Y-35309748D01*
X2005430Y-35309748D01*
X1828518Y-35132836D01*
X1807058Y-35100718D01*
X1799522Y-35062832D01*
X1799522Y-21695642D01*
X1801629Y-21675326D01*
X1802382Y-21671734D01*
X1802382Y-21671733D01*
X1804065Y-21663707D01*
X1800281Y-21633359D01*
X1799958Y-21628151D01*
X1799860Y-21628160D01*
X1799522Y-21624085D01*
X1799522Y-21619982D01*
X1796260Y-21600443D01*
X1795684Y-21596482D01*
X1789595Y-21547630D01*
X1786335Y-21540963D01*
X1785114Y-21533641D01*
X1761697Y-21490372D01*
X1759829Y-21486743D01*
X1741823Y-21449909D01*
X1741822Y-21449908D01*
X1738220Y-21442539D01*
X1732972Y-21437291D01*
X1729440Y-21430764D01*
X1693257Y-21397455D01*
X1690304Y-21394623D01*
X-4330024Y-15374294D01*
X-4351484Y-15342176D01*
X-4359020Y-15304290D01*
X-4359020Y-15179563D01*
X-4345290Y-15129263D01*
X-4307908Y-15092916D01*
X-4257243Y-15080602D01*
X-4207347Y-15095738D01*
X-4159522Y-15125789D01*
X-3989255Y-15185368D01*
X-3810000Y-15205565D01*
X-3630745Y-15185368D01*
X-3460478Y-15125789D01*
X-3307738Y-15029816D01*
X-3180184Y-14902262D01*
X-3084211Y-14749522D01*
X-3080839Y-14739886D01*
X-3026468Y-14584503D01*
X-3026467Y-14584500D01*
X-3024632Y-14579255D01*
X-3024010Y-14573738D01*
X-3024009Y-14573732D01*
X-3009809Y-14447699D01*
X-3009808Y-14447693D01*
X-3009500Y-14444954D01*
X-2070500Y-14444954D01*
X-2055368Y-14579255D01*
X-1995789Y-14749522D01*
X-1899816Y-14902262D01*
X-1772262Y-15029816D01*
X-1619522Y-15125789D01*
X-1449255Y-15185368D01*
X-1270000Y-15205565D01*
X-1090745Y-15185368D01*
X-920478Y-15125789D01*
X-767738Y-15029816D01*
X-640184Y-14902262D01*
X-544211Y-14749522D01*
X-540839Y-14739886D01*
X-486468Y-14584503D01*
X-486467Y-14584500D01*
X-484632Y-14579255D01*
X-484010Y-14573738D01*
X-484009Y-14573732D01*
X-469809Y-14447699D01*
X-469808Y-14447693D01*
X-469500Y-14444954D01*
X-469500Y-13955046D01*
X-469809Y-13952300D01*
X-484009Y-13826267D01*
X-484010Y-13826259D01*
X-484632Y-13820745D01*
X-486466Y-13815501D01*
X-486468Y-13815496D01*
X-542373Y-13655729D01*
X-542375Y-13655724D01*
X-544211Y-13650478D01*
X-547170Y-13645768D01*
X-637225Y-13502446D01*
X-637228Y-13502441D01*
X-640184Y-13497738D01*
X-644110Y-13493811D01*
X-644114Y-13493807D01*
X-763807Y-13374114D01*
X-763811Y-13374110D01*
X-767738Y-13370184D01*
X-772441Y-13367228D01*
X-772446Y-13367225D01*
X-915768Y-13277170D01*
X-915771Y-13277168D01*
X-920478Y-13274211D01*
X-925724Y-13272375D01*
X-925729Y-13272373D01*
X-1085496Y-13216468D01*
X-1085501Y-13216466D01*
X-1090745Y-13214632D01*
X-1096259Y-13214010D01*
X-1096267Y-13214009D01*
X-1264480Y-13195057D01*
X-1270000Y-13194435D01*
X-1275520Y-13195057D01*
X-1443732Y-13214009D01*
X-1443738Y-13214010D01*
X-1449255Y-13214632D01*
X-1454500Y-13216467D01*
X-1454503Y-13216468D01*
X-1614270Y-13272373D01*
X-1614271Y-13272373D01*
X-1619522Y-13274211D01*
X-1772262Y-13370184D01*
X-1899816Y-13497738D01*
X-1995789Y-13650478D01*
X-2055368Y-13820745D01*
X-2070500Y-13955046D01*
X-2070500Y-14444954D01*
X-3009500Y-14444954D01*
X-3009500Y-13955046D01*
X-3009809Y-13952300D01*
X-3024009Y-13826267D01*
X-3024010Y-13826259D01*
X-3024632Y-13820745D01*
X-3026466Y-13815501D01*
X-3026468Y-13815496D01*
X-3082373Y-13655729D01*
X-3082375Y-13655724D01*
X-3084211Y-13650478D01*
X-3087170Y-13645768D01*
X-3177225Y-13502446D01*
X-3177228Y-13502441D01*
X-3180184Y-13497738D01*
X-3184110Y-13493811D01*
X-3184114Y-13493807D01*
X-3303807Y-13374114D01*
X-3303811Y-13374110D01*
X-3307738Y-13370184D01*
X-3312441Y-13367228D01*
X-3312446Y-13367225D01*
X-3413171Y-13303936D01*
X-3447147Y-13267998D01*
X-3459500Y-13220110D01*
X-3459500Y-12436621D01*
X-3457393Y-12416305D01*
X-3456639Y-12412713D01*
X-3456638Y-12412706D01*
X-3454957Y-12404686D01*
X-3456414Y-12393000D01*
X-3458740Y-12374339D01*
X-3459063Y-12369126D01*
X-3459162Y-12369135D01*
X-3459500Y-12365053D01*
X-3459500Y-12360960D01*
X-3460172Y-12356926D01*
X-3460174Y-12356914D01*
X-3462749Y-12341483D01*
X-3463338Y-12337440D01*
X-3468411Y-12296746D01*
X-3468413Y-12296737D01*
X-3469427Y-12288608D01*
X-3472686Y-12281941D01*
X-3473908Y-12274619D01*
X-3497323Y-12231351D01*
X-3499194Y-12227715D01*
X-3517198Y-12190887D01*
X-3517201Y-12190882D01*
X-3520802Y-12183517D01*
X-3526049Y-12178269D01*
X-3529582Y-12171742D01*
X-3535609Y-12166192D01*
X-3535612Y-12166190D01*
X-3565776Y-12138421D01*
X-3568727Y-12135590D01*
X-5119199Y-10585117D01*
X-5132070Y-10569267D01*
X-5134074Y-10566199D01*
X-5134079Y-10566192D01*
X-5138563Y-10559331D01*
X-5162697Y-10540546D01*
X-5166614Y-10537088D01*
X-5166677Y-10537162D01*
X-5169804Y-10534512D01*
X-5172693Y-10531625D01*
X-5176009Y-10529256D01*
X-5176019Y-10529249D01*
X-5188787Y-10520133D01*
X-5192061Y-10517691D01*
X-5224401Y-10492520D01*
X-5224405Y-10492517D01*
X-5230874Y-10487483D01*
X-5237892Y-10485073D01*
X-5243934Y-10480760D01*
X-5291097Y-10466717D01*
X-5294973Y-10465475D01*
X-5331063Y-10453087D01*
X-5333757Y-10452162D01*
X-5333757Y-10452161D01*
X-5341512Y-10449500D01*
X-5348935Y-10449500D01*
X-5356046Y-10447383D01*
X-5364244Y-10447722D01*
X-5405176Y-10449415D01*
X-5409267Y-10449500D01*
X-11253380Y-10449500D01*
X-11273696Y-10447393D01*
X-11277287Y-10446639D01*
X-11277294Y-10446638D01*
X-11285315Y-10444957D01*
X-11293449Y-10445971D01*
X-11293451Y-10445971D01*
X-11315662Y-10448740D01*
X-11320873Y-10449063D01*
X-11320865Y-10449162D01*
X-11324947Y-10449500D01*
X-11329040Y-10449500D01*
X-11348546Y-10452754D01*
X-11352572Y-10453340D01*
X-11393253Y-10458412D01*
X-11401393Y-10459427D01*
X-11408060Y-10462686D01*
X-11415381Y-10463908D01*
X-11458646Y-10487322D01*
X-11462284Y-10489194D01*
X-11506484Y-10510802D01*
X-11511732Y-10516050D01*
X-11518258Y-10519582D01*
X-11550214Y-10554295D01*
X-11551566Y-10555764D01*
X-11554399Y-10558717D01*
X-12229255Y-11233573D01*
X-12276778Y-11259983D01*
X-12331081Y-11257315D01*
X-12375787Y-11226374D01*
X-12397412Y-11176492D01*
X-12414108Y-11049673D01*
X-12414109Y-11049666D01*
X-12414956Y-11043238D01*
X-12417440Y-11037240D01*
X-12472980Y-10903154D01*
X-12472982Y-10903149D01*
X-12475464Y-10897159D01*
X-12479411Y-10892015D01*
X-12479414Y-10892010D01*
X-12567763Y-10776871D01*
X-12567767Y-10776866D01*
X-12571718Y-10771718D01*
X-12576866Y-10767767D01*
X-12576870Y-10767764D01*
X-12610767Y-10741755D01*
X-12639290Y-10707000D01*
X-12649500Y-10663213D01*
X-12649500Y-3586190D01*
X-12641964Y-3548304D01*
X-12620504Y-3516186D01*
X2814881Y11919199D01*
X2830737Y11932074D01*
X2833801Y11934076D01*
X2840669Y11938563D01*
X2859446Y11962688D01*
X2862905Y11966605D01*
X2862831Y11966669D01*
X2865485Y11969803D01*
X2868376Y11972694D01*
X2879863Y11988784D01*
X2882298Y11992047D01*
X2907474Y12024394D01*
X2907475Y12024396D01*
X2912517Y12030874D01*
X2914926Y12037892D01*
X2919240Y12043934D01*
X2933278Y12091089D01*
X2934527Y12094985D01*
X2947834Y12133747D01*
X2950500Y12141512D01*
X2950500Y12148936D01*
X2952617Y12156047D01*
X2950584Y12205186D01*
X2950500Y12209276D01*
X2950500Y13519641D01*
X2963396Y13568498D01*
X2998723Y13604627D01*
X3047279Y13618616D01*
X3096413Y13606820D01*
X3133326Y13572312D01*
X3177225Y13502446D01*
X3177228Y13502441D01*
X3180184Y13497738D01*
X3184110Y13493811D01*
X3184114Y13493807D01*
X3303807Y13374114D01*
X3303811Y13374110D01*
X3307738Y13370184D01*
X3312441Y13367228D01*
X3312446Y13367225D01*
X3413171Y13303936D01*
X3447147Y13267998D01*
X3459500Y13220110D01*
X3459500Y9696190D01*
X3451964Y9658304D01*
X3430504Y9626186D01*
X331724Y6527406D01*
X293542Y6503664D01*
X248800Y6499257D01*
X200000Y6505682D01*
X193566Y6504835D01*
X163335Y6500855D01*
X43238Y6485044D01*
X-102841Y6424536D01*
X-228282Y6328282D01*
X-324536Y6202841D01*
X-385044Y6056762D01*
X-405682Y5900000D01*
X-385044Y5743238D01*
X-324536Y5597159D01*
X-228282Y5471718D01*
X-102841Y5375464D01*
X-96847Y5372981D01*
X-96845Y5372980D01*
X37240Y5317440D01*
X37243Y5317439D01*
X43238Y5314956D01*
X49666Y5314109D01*
X49673Y5314108D01*
X193566Y5295165D01*
X200000Y5294318D01*
X206434Y5295165D01*
X350326Y5314108D01*
X350331Y5314109D01*
X356762Y5314956D01*
X362759Y5317440D01*
X496845Y5372980D01*
X496847Y5372981D01*
X502841Y5375464D01*
X628282Y5471718D01*
X724536Y5597159D01*
X785044Y5743238D01*
X805682Y5900000D01*
X799257Y5948800D01*
X803664Y5993542D01*
X827406Y6031724D01*
X2595682Y7800000D01*
X5394318Y7800000D01*
X5395165Y7793566D01*
X5414108Y7649673D01*
X5414109Y7649666D01*
X5414956Y7643238D01*
X5417439Y7637243D01*
X5417440Y7637240D01*
X5472980Y7503154D01*
X5472982Y7503149D01*
X5475464Y7497159D01*
X5479411Y7492015D01*
X5479414Y7492010D01*
X5567763Y7376871D01*
X5567767Y7376866D01*
X5571718Y7371718D01*
X5576866Y7367767D01*
X5576871Y7367763D01*
X5692010Y7279414D01*
X5692015Y7279411D01*
X5697159Y7275464D01*
X5703149Y7272982D01*
X5703154Y7272980D01*
X5837240Y7217440D01*
X5837243Y7217439D01*
X5843238Y7214956D01*
X5849666Y7214109D01*
X5849673Y7214108D01*
X5993566Y7195165D01*
X6000000Y7194318D01*
X6006434Y7195165D01*
X6150326Y7214108D01*
X6150331Y7214109D01*
X6156762Y7214956D01*
X6162759Y7217440D01*
X6296845Y7272980D01*
X6296847Y7272981D01*
X6302841Y7275464D01*
X6428282Y7371718D01*
X6524536Y7497159D01*
X6585044Y7643238D01*
X6605682Y7800000D01*
X6599257Y7848800D01*
X6603664Y7893542D01*
X6627406Y7931724D01*
X9104881Y10409199D01*
X9120737Y10422074D01*
X9123801Y10424076D01*
X9130669Y10428563D01*
X9149446Y10452688D01*
X9152905Y10456605D01*
X9152831Y10456669D01*
X9155486Y10459804D01*
X9158375Y10462693D01*
X9160749Y10466018D01*
X9160753Y10466023D01*
X9169850Y10478766D01*
X9172300Y10482052D01*
X9197478Y10514400D01*
X9202517Y10520874D01*
X9204927Y10527895D01*
X9209239Y10533934D01*
X9223280Y10581100D01*
X9224514Y10584951D01*
X9240500Y10631512D01*
X9240500Y10638935D01*
X9242617Y10646046D01*
X9240585Y10695176D01*
X9240500Y10699267D01*
X9240500Y13220110D01*
X9252853Y13267998D01*
X9286829Y13303936D01*
X9387553Y13367225D01*
X9392262Y13370184D01*
X9519816Y13497738D01*
X9615789Y13650478D01*
X9675368Y13820745D01*
X9690500Y13955046D01*
X9690500Y14444954D01*
X9675368Y14579255D01*
X9615789Y14749522D01*
X9519816Y14902262D01*
X9392262Y15029816D01*
X9239522Y15125789D01*
X9069255Y15185368D01*
X8890000Y15205565D01*
X8710745Y15185368D01*
X8540478Y15125789D01*
X8387738Y15029816D01*
X8260184Y14902262D01*
X8257225Y14897553D01*
X8213326Y14827688D01*
X8164211Y14749522D01*
X8162373Y14744271D01*
X8162373Y14744270D01*
X8106469Y14584504D01*
X8104632Y14579255D01*
X8104010Y14573738D01*
X8104009Y14573732D01*
X8089809Y14447699D01*
X8089500Y14444954D01*
X8089500Y13955046D01*
X8089808Y13952307D01*
X8089809Y13952300D01*
X8104009Y13826267D01*
X8104010Y13826259D01*
X8104632Y13820745D01*
X8106466Y13815501D01*
X8106468Y13815496D01*
X8162373Y13655729D01*
X8162375Y13655724D01*
X8164211Y13650478D01*
X8167168Y13645771D01*
X8167170Y13645768D01*
X8257225Y13502446D01*
X8257228Y13502441D01*
X8260184Y13497738D01*
X8264110Y13493811D01*
X8264114Y13493807D01*
X8383807Y13374114D01*
X8383811Y13374110D01*
X8387738Y13370184D01*
X8392441Y13367228D01*
X8392446Y13367225D01*
X8493171Y13303936D01*
X8527147Y13267998D01*
X8539500Y13220110D01*
X8539500Y10876190D01*
X8531964Y10838304D01*
X8510504Y10806186D01*
X6131724Y8427406D01*
X6093542Y8403664D01*
X6048800Y8399257D01*
X6000000Y8405682D01*
X5993566Y8404835D01*
X5963335Y8400855D01*
X5843238Y8385044D01*
X5697159Y8324536D01*
X5571718Y8228282D01*
X5475464Y8102841D01*
X5414956Y7956762D01*
X5414109Y7950331D01*
X5414108Y7950326D01*
X5406633Y7893542D01*
X5394318Y7800000D01*
X2595682Y7800000D01*
X4024881Y9229199D01*
X4040737Y9242074D01*
X4043801Y9244076D01*
X4050669Y9248563D01*
X4069446Y9272688D01*
X4072904Y9276604D01*
X4072830Y9276668D01*
X4075484Y9279802D01*
X4078375Y9282693D01*
X4089851Y9298768D01*
X4092291Y9302039D01*
X4117476Y9334396D01*
X4117478Y9334400D01*
X4122517Y9340874D01*
X4124926Y9347892D01*
X4129240Y9353934D01*
X4143291Y9401132D01*
X4144520Y9404965D01*
X4157836Y9443752D01*
X4160500Y9451512D01*
X4160500Y9458935D01*
X4162617Y9466046D01*
X4160585Y9515176D01*
X4160500Y9519267D01*
X4160500Y13220110D01*
X4172853Y13267998D01*
X4206829Y13303936D01*
X4307553Y13367225D01*
X4312262Y13370184D01*
X4439816Y13497738D01*
X4535789Y13650478D01*
X4595368Y13820745D01*
X4610500Y13955046D01*
X4610500Y14444954D01*
X4595368Y14579255D01*
X4535789Y14749522D01*
X4439816Y14902262D01*
X4312262Y15029816D01*
X4159522Y15125789D01*
X3989255Y15185368D01*
X3810000Y15205565D01*
X3630745Y15185368D01*
X3460478Y15125789D01*
X3307738Y15029816D01*
X3180184Y14902262D01*
X3177225Y14897553D01*
X3133326Y14827688D01*
X3096413Y14793180D01*
X3047279Y14781384D01*
X2998723Y14795373D01*
X2963396Y14831502D01*
X2950500Y14880359D01*
X2950500Y15413810D01*
X2958036Y15451696D01*
X2979496Y15483814D01*
X3816185Y16320504D01*
X3848303Y16341964D01*
X3886189Y16349500D01*
X5013810Y16349500D01*
X5051696Y16341964D01*
X5083814Y16320504D01*
X5970504Y15433814D01*
X5991964Y15401696D01*
X5999500Y15363810D01*
X5999500Y15179890D01*
X5987147Y15132002D01*
X5953171Y15096064D01*
X5893342Y15058470D01*
X5847738Y15029816D01*
X5720184Y14902262D01*
X5717225Y14897553D01*
X5673326Y14827688D01*
X5624211Y14749522D01*
X5622373Y14744271D01*
X5622373Y14744270D01*
X5566469Y14584504D01*
X5564632Y14579255D01*
X5564010Y14573738D01*
X5564009Y14573732D01*
X5549809Y14447699D01*
X5549500Y14444954D01*
X5549500Y13955046D01*
X5549808Y13952307D01*
X5549809Y13952300D01*
X5564009Y13826267D01*
X5564010Y13826259D01*
X5564632Y13820745D01*
X5566466Y13815501D01*
X5566468Y13815496D01*
X5622373Y13655729D01*
X5622375Y13655724D01*
X5624211Y13650478D01*
X5627168Y13645771D01*
X5627170Y13645768D01*
X5717225Y13502446D01*
X5717228Y13502441D01*
X5720184Y13497738D01*
X5724110Y13493811D01*
X5724114Y13493807D01*
X5843807Y13374114D01*
X5843811Y13374110D01*
X5847738Y13370184D01*
X5852441Y13367228D01*
X5852446Y13367225D01*
X5995768Y13277170D01*
X5995771Y13277168D01*
X6000478Y13274211D01*
X6005724Y13272375D01*
X6005729Y13272373D01*
X6165496Y13216468D01*
X6165501Y13216466D01*
X6170745Y13214632D01*
X6176259Y13214010D01*
X6176267Y13214009D01*
X6344480Y13195057D01*
X6350000Y13194435D01*
X6355520Y13195057D01*
X6523732Y13214009D01*
X6523738Y13214010D01*
X6529255Y13214632D01*
X6534500Y13216467D01*
X6534503Y13216468D01*
X6694270Y13272373D01*
X6694271Y13272373D01*
X6699522Y13274211D01*
X6852262Y13370184D01*
X6979816Y13497738D01*
X7075789Y13650478D01*
X7135368Y13820745D01*
X7150500Y13955046D01*
X7150500Y14444954D01*
X7135368Y14579255D01*
X7075789Y14749522D01*
X6979816Y14902262D01*
X6852262Y15029816D01*
X6774567Y15078634D01*
X6746829Y15096064D01*
X6712853Y15132002D01*
X6700500Y15179890D01*
X6700500Y15503380D01*
X6702607Y15523696D01*
X6703360Y15527287D01*
X6703360Y15527289D01*
X6705043Y15535315D01*
X6701259Y15565662D01*
X6700936Y15570870D01*
X6700838Y15570862D01*
X6700500Y15574938D01*
X6700500Y15579040D01*
X6697242Y15598558D01*
X6696658Y15602569D01*
X6691588Y15643246D01*
X6690573Y15651392D01*
X6687313Y15658058D01*
X6686092Y15665381D01*
X6662669Y15708659D01*
X6660797Y15712298D01*
X6639198Y15756483D01*
X6633950Y15761730D01*
X6630418Y15768258D01*
X6594208Y15801590D01*
X6591304Y15804375D01*
X5480796Y16914884D01*
X5467926Y16930734D01*
X5461437Y16940669D01*
X5437295Y16959458D01*
X5433397Y16962902D01*
X5433333Y16962827D01*
X5430207Y16965473D01*
X5427307Y16968375D01*
X5411190Y16979880D01*
X5407985Y16982270D01*
X5369126Y17012517D01*
X5362107Y17014926D01*
X5356066Y17019240D01*
X5308866Y17033291D01*
X5305068Y17034508D01*
X5258488Y17050500D01*
X5251065Y17050500D01*
X5243954Y17052617D01*
X5195095Y17050596D01*
X5194824Y17050585D01*
X5190733Y17050500D01*
X3746620Y17050500D01*
X3726304Y17052607D01*
X3722712Y17053360D01*
X3722711Y17053360D01*
X3714685Y17055043D01*
X3684338Y17051260D01*
X3679125Y17050936D01*
X3679134Y17050838D01*
X3675056Y17050500D01*
X3670960Y17050500D01*
X3654990Y17047835D01*
X3651478Y17047249D01*
X3647429Y17046659D01*
X3598607Y17040573D01*
X3591939Y17037313D01*
X3584619Y17036092D01*
X3541359Y17012680D01*
X3537730Y17010812D01*
X3493516Y16989198D01*
X3488267Y16983949D01*
X3481742Y16980418D01*
X3476185Y16974382D01*
X3476184Y16974381D01*
X3448444Y16944247D01*
X3445612Y16941294D01*
X2385119Y15880801D01*
X2369261Y15867925D01*
X2366199Y15865924D01*
X2359331Y15861437D01*
X2354293Y15854964D01*
X2340553Y15837311D01*
X2337095Y15833395D01*
X2337170Y15833332D01*
X2334514Y15830196D01*
X2331625Y15827307D01*
X2320132Y15811209D01*
X2317704Y15807954D01*
X2287483Y15769126D01*
X2285073Y15762107D01*
X2280760Y15756066D01*
X2278420Y15748207D01*
X2278419Y15748205D01*
X2266720Y15708909D01*
X2265472Y15705014D01*
X2252162Y15666244D01*
X2252161Y15666240D01*
X2249500Y15658488D01*
X2249500Y15651065D01*
X2247383Y15643954D01*
X2247722Y15635754D01*
X2249415Y15594824D01*
X2249500Y15590733D01*
X2249500Y14604559D01*
X2233123Y14550021D01*
X2189411Y14513526D01*
X2132826Y14507149D01*
X2082088Y14533000D01*
X2055760Y14579392D01*
X2055368Y14579255D01*
X1995789Y14749522D01*
X1899816Y14902262D01*
X1772262Y15029816D01*
X1619522Y15125789D01*
X1449255Y15185368D01*
X1270000Y15205565D01*
X1090745Y15185368D01*
X920478Y15125789D01*
X767738Y15029816D01*
X640184Y14902262D01*
X637225Y14897553D01*
X593326Y14827688D01*
X544211Y14749522D01*
X542373Y14744271D01*
X542373Y14744270D01*
X486469Y14584504D01*
X484632Y14579255D01*
X484010Y14573738D01*
X484009Y14573732D01*
X469809Y14447699D01*
X469500Y14444954D01*
X469500Y13955046D01*
X469808Y13952307D01*
X469809Y13952300D01*
X484009Y13826267D01*
X484010Y13826259D01*
X484632Y13820745D01*
X486466Y13815501D01*
X486468Y13815496D01*
X542373Y13655729D01*
X542375Y13655724D01*
X544211Y13650478D01*
X547168Y13645771D01*
X547170Y13645768D01*
X637225Y13502446D01*
X637228Y13502441D01*
X640184Y13497738D01*
X644110Y13493811D01*
X644114Y13493807D01*
X763807Y13374114D01*
X763811Y13374110D01*
X767738Y13370184D01*
X772441Y13367228D01*
X772446Y13367225D01*
X915768Y13277170D01*
X915771Y13277168D01*
X920478Y13274211D01*
X925724Y13272375D01*
X925729Y13272373D01*
X1085496Y13216468D01*
X1085501Y13216466D01*
X1090745Y13214632D01*
X1096259Y13214010D01*
X1096267Y13214009D01*
X1264480Y13195057D01*
X1270000Y13194435D01*
X1275520Y13195057D01*
X1443732Y13214009D01*
X1443738Y13214010D01*
X1449255Y13214632D01*
X1454500Y13216467D01*
X1454503Y13216468D01*
X1614270Y13272373D01*
X1614271Y13272373D01*
X1619522Y13274211D01*
X1772262Y13370184D01*
X1899816Y13497738D01*
X1995789Y13650478D01*
X2055368Y13820745D01*
X2055760Y13820607D01*
X2082088Y13867000D01*
X2132826Y13892851D01*
X2189411Y13886474D01*
X2233123Y13849979D01*
X2249500Y13795441D01*
X2249500Y12386189D01*
X2241964Y12348303D01*
X2220504Y12316185D01*
X-13214881Y-3119199D01*
X-13230737Y-3132074D01*
X-13240669Y-3138563D01*
X-13245704Y-3145032D01*
X-13245706Y-3145034D01*
X-13259446Y-3162688D01*
X-13262904Y-3166604D01*
X-13262830Y-3166668D01*
X-13265484Y-3169802D01*
X-13268375Y-3172693D01*
X-13270750Y-3176020D01*
X-13279842Y-3188755D01*
X-13282291Y-3192039D01*
X-13307476Y-3224396D01*
X-13307478Y-3224400D01*
X-13312517Y-3230874D01*
X-13314926Y-3237892D01*
X-13319240Y-3243934D01*
X-13333291Y-3291132D01*
X-13334517Y-3294958D01*
X-13350500Y-3341512D01*
X-13350500Y-3348935D01*
X-13352617Y-3356046D01*
X-13350595Y-3404917D01*
X-13350585Y-3405176D01*
X-13350500Y-3409267D01*
X-13350500Y-10663213D01*
X-13360710Y-10707000D01*
X-13389232Y-10741754D01*
X-13428282Y-10771718D01*
X-13524536Y-10897159D01*
X-13585044Y-11043238D01*
X-13605682Y-11200000D01*
X-13585044Y-11356762D01*
X-13524536Y-11502841D01*
X-13428282Y-11628282D01*
X-13302841Y-11724536D01*
X-13156762Y-11785044D01*
X-13023507Y-11802587D01*
X-12973625Y-11824212D01*
X-12942684Y-11868917D01*
X-12940016Y-11923221D01*
X-12966426Y-11970744D01*
X-17994881Y-16999199D01*
X-18010737Y-17012074D01*
X-18020669Y-17018563D01*
X-18025704Y-17025032D01*
X-18025706Y-17025034D01*
X-18039446Y-17042688D01*
X-18042904Y-17046604D01*
X-18042830Y-17046668D01*
X-18045484Y-17049802D01*
X-18048375Y-17052693D01*
X-18050750Y-17056020D01*
X-18059842Y-17068755D01*
X-18062291Y-17072039D01*
X-18087476Y-17104396D01*
X-18087478Y-17104400D01*
X-18092517Y-17110874D01*
X-18094926Y-17117892D01*
X-18099240Y-17123934D01*
X-18113291Y-17171132D01*
X-18114517Y-17174958D01*
X-18130500Y-17221512D01*
X-18130500Y-17228935D01*
X-18132617Y-17236046D01*
X-18130595Y-17284917D01*
X-18130585Y-17285176D01*
X-18130500Y-17289267D01*
X-18130500Y-21966042D01*
X-18146472Y-22019961D01*
X-18189232Y-22056482D01*
X-18206794Y-22064301D01*
X-18227996Y-22073741D01*
X-18227998Y-22073742D01*
X-18232730Y-22075849D01*
X-18236918Y-22078892D01*
X-18236920Y-22078893D01*
X-18381678Y-22184065D01*
X-18381681Y-22184068D01*
X-18385871Y-22187112D01*
X-18512533Y-22327784D01*
X-18607179Y-22491716D01*
X-18665674Y-22671744D01*
X-18685460Y-22860000D01*
X-19924500Y-22860000D01*
X-19924500Y-12800000D01*
X-15805682Y-12800000D01*
X-15785044Y-12956762D01*
X-15724536Y-13102841D01*
X-15628282Y-13228282D01*
X-15502841Y-13324536D01*
X-15356762Y-13385044D01*
X-15200000Y-13405682D01*
X-15043238Y-13385044D01*
X-14897159Y-13324536D01*
X-14771718Y-13228282D01*
X-14764698Y-13219134D01*
X-14679414Y-13107989D01*
X-14679413Y-13107988D01*
X-14675464Y-13102841D01*
X-14665818Y-13079555D01*
X-14617440Y-12962759D01*
X-14617439Y-12962758D01*
X-14614956Y-12956762D01*
X-14614109Y-12950331D01*
X-14614108Y-12950326D01*
X-14595165Y-12806434D01*
X-14594318Y-12800000D01*
X-14597688Y-12774401D01*
X-14614108Y-12649673D01*
X-14614109Y-12649666D01*
X-14614956Y-12643238D01*
X-14618506Y-12634667D01*
X-14672980Y-12503154D01*
X-14672982Y-12503149D01*
X-14675464Y-12497159D01*
X-14679411Y-12492015D01*
X-14679414Y-12492010D01*
X-14767763Y-12376871D01*
X-14767767Y-12376866D01*
X-14771718Y-12371718D01*
X-14776866Y-12367767D01*
X-14776870Y-12367764D01*
X-14810767Y-12341755D01*
X-14839290Y-12307000D01*
X-14849500Y-12263213D01*
X-14849500Y12513810D01*
X-14841964Y12551696D01*
X-14820504Y12583814D01*
X-13449272Y13955046D01*
X-9690500Y13955046D01*
X-9675368Y13820745D01*
X-9615789Y13650478D01*
X-9519816Y13497738D01*
X-9392262Y13370184D01*
X-9239522Y13274211D01*
X-9234271Y13272373D01*
X-9234270Y13272373D01*
X-9074503Y13216468D01*
X-9074500Y13216467D01*
X-9069255Y13214632D01*
X-9063738Y13214010D01*
X-9063732Y13214009D01*
X-8895520Y13195057D01*
X-8890000Y13194435D01*
X-8884480Y13195057D01*
X-8716267Y13214009D01*
X-8716259Y13214010D01*
X-8710745Y13214632D01*
X-8705501Y13216466D01*
X-8705496Y13216468D01*
X-8545729Y13272373D01*
X-8545724Y13272375D01*
X-8540478Y13274211D01*
X-8535771Y13277168D01*
X-8535768Y13277170D01*
X-8392446Y13367225D01*
X-8392441Y13367228D01*
X-8387738Y13370184D01*
X-8383811Y13374110D01*
X-8383807Y13374114D01*
X-8264114Y13493807D01*
X-8264110Y13493811D01*
X-8260184Y13497738D01*
X-8257228Y13502441D01*
X-8257225Y13502446D01*
X-8167170Y13645768D01*
X-8167168Y13645771D01*
X-8164211Y13650478D01*
X-8162375Y13655724D01*
X-8162373Y13655729D01*
X-8106468Y13815496D01*
X-8106466Y13815501D01*
X-8104632Y13820745D01*
X-8104010Y13826259D01*
X-8104009Y13826267D01*
X-8089809Y13952300D01*
X-8089808Y13952307D01*
X-8089500Y13955046D01*
X-7150500Y13955046D01*
X-7135368Y13820745D01*
X-7075789Y13650478D01*
X-6979816Y13497738D01*
X-6852262Y13370184D01*
X-6699522Y13274211D01*
X-6694271Y13272373D01*
X-6694270Y13272373D01*
X-6534503Y13216468D01*
X-6534500Y13216467D01*
X-6529255Y13214632D01*
X-6523738Y13214010D01*
X-6523732Y13214009D01*
X-6355520Y13195057D01*
X-6350000Y13194435D01*
X-6344480Y13195057D01*
X-6176267Y13214009D01*
X-6176259Y13214010D01*
X-6170745Y13214632D01*
X-6165501Y13216466D01*
X-6165496Y13216468D01*
X-6005729Y13272373D01*
X-6005724Y13272375D01*
X-6000478Y13274211D01*
X-5995771Y13277168D01*
X-5995768Y13277170D01*
X-5852446Y13367225D01*
X-5852441Y13367228D01*
X-5847738Y13370184D01*
X-5843811Y13374110D01*
X-5843807Y13374114D01*
X-5724114Y13493807D01*
X-5724110Y13493811D01*
X-5720184Y13497738D01*
X-5717228Y13502441D01*
X-5717225Y13502446D01*
X-5627170Y13645768D01*
X-5627168Y13645771D01*
X-5624211Y13650478D01*
X-5622375Y13655724D01*
X-5622373Y13655729D01*
X-5566468Y13815496D01*
X-5566466Y13815501D01*
X-5564632Y13820745D01*
X-5564010Y13826259D01*
X-5564009Y13826267D01*
X-5549809Y13952300D01*
X-5549808Y13952307D01*
X-5549500Y13955046D01*
X-4610500Y13955046D01*
X-4595368Y13820745D01*
X-4535789Y13650478D01*
X-4439816Y13497738D01*
X-4312262Y13370184D01*
X-4159522Y13274211D01*
X-4154271Y13272373D01*
X-4154270Y13272373D01*
X-3994503Y13216468D01*
X-3994500Y13216467D01*
X-3989255Y13214632D01*
X-3983738Y13214010D01*
X-3983732Y13214009D01*
X-3815520Y13195057D01*
X-3810000Y13194435D01*
X-3804480Y13195057D01*
X-3636267Y13214009D01*
X-3636259Y13214010D01*
X-3630745Y13214632D01*
X-3625501Y13216466D01*
X-3625496Y13216468D01*
X-3465729Y13272373D01*
X-3465724Y13272375D01*
X-3460478Y13274211D01*
X-3455771Y13277168D01*
X-3455768Y13277170D01*
X-3312446Y13367225D01*
X-3312441Y13367228D01*
X-3307738Y13370184D01*
X-3303811Y13374110D01*
X-3303807Y13374114D01*
X-3184114Y13493807D01*
X-3184110Y13493811D01*
X-3180184Y13497738D01*
X-3177228Y13502441D01*
X-3177225Y13502446D01*
X-3087170Y13645768D01*
X-3087168Y13645771D01*
X-3084211Y13650478D01*
X-3082375Y13655724D01*
X-3082373Y13655729D01*
X-3026468Y13815496D01*
X-3026466Y13815501D01*
X-3024632Y13820745D01*
X-3024010Y13826259D01*
X-3024009Y13826267D01*
X-3009809Y13952300D01*
X-3009808Y13952307D01*
X-3009500Y13955046D01*
X-3009500Y14444954D01*
X-3009809Y14447699D01*
X-3024009Y14573732D01*
X-3024010Y14573738D01*
X-3024632Y14579255D01*
X-3026469Y14584504D01*
X-3082373Y14744270D01*
X-3082373Y14744271D01*
X-3084211Y14749522D01*
X-3133326Y14827688D01*
X-3177225Y14897553D01*
X-3180184Y14902262D01*
X-3307738Y15029816D01*
X-3460478Y15125789D01*
X-3630745Y15185368D01*
X-3810000Y15205565D01*
X-3989255Y15185368D01*
X-4159522Y15125789D01*
X-4312262Y15029816D01*
X-4439816Y14902262D01*
X-4535789Y14749522D01*
X-4595368Y14579255D01*
X-4610500Y14444954D01*
X-4610500Y13955046D01*
X-5549500Y13955046D01*
X-5549500Y14444954D01*
X-5549809Y14447699D01*
X-5564009Y14573732D01*
X-5564010Y14573738D01*
X-5564632Y14579255D01*
X-5566469Y14584504D01*
X-5622373Y14744270D01*
X-5622373Y14744271D01*
X-5624211Y14749522D01*
X-5673326Y14827688D01*
X-5717225Y14897553D01*
X-5720184Y14902262D01*
X-5847738Y15029816D01*
X-6000478Y15125789D01*
X-6170745Y15185368D01*
X-6350000Y15205565D01*
X-6529255Y15185368D01*
X-6699522Y15125789D01*
X-6852262Y15029816D01*
X-6979816Y14902262D01*
X-7075789Y14749522D01*
X-7135368Y14579255D01*
X-7150500Y14444954D01*
X-7150500Y13955046D01*
X-8089500Y13955046D01*
X-8089500Y14444954D01*
X-8089809Y14447699D01*
X-8104009Y14573732D01*
X-8104010Y14573738D01*
X-8104632Y14579255D01*
X-8106469Y14584504D01*
X-8162373Y14744270D01*
X-8162373Y14744271D01*
X-8164211Y14749522D01*
X-8213326Y14827688D01*
X-8257225Y14897553D01*
X-8260184Y14902262D01*
X-8387738Y15029816D01*
X-8540478Y15125789D01*
X-8710745Y15185368D01*
X-8890000Y15205565D01*
X-9069255Y15185368D01*
X-9239522Y15125789D01*
X-9392262Y15029816D01*
X-9519816Y14902262D01*
X-9615789Y14749522D01*
X-9675368Y14579255D01*
X-9690500Y14444954D01*
X-9690500Y13955046D01*
X-13449272Y13955046D01*
X-10583814Y16820504D01*
X-10551696Y16841964D01*
X-10513810Y16849500D01*
X-2486190Y16849500D01*
X-2448304Y16841964D01*
X-2416186Y16820504D01*
X-1649496Y16053814D01*
X-1628036Y16021696D01*
X-1620500Y15983810D01*
X-1620500Y15179890D01*
X-1632853Y15132002D01*
X-1666829Y15096064D01*
X-1694567Y15078634D01*
X-1772262Y15029816D01*
X-1899816Y14902262D01*
X-1995789Y14749522D01*
X-2055368Y14579255D01*
X-2070500Y14444954D01*
X-2070500Y13955046D01*
X-2055368Y13820745D01*
X-1995789Y13650478D01*
X-1899816Y13497738D01*
X-1772262Y13370184D01*
X-1619522Y13274211D01*
X-1614271Y13272373D01*
X-1614270Y13272373D01*
X-1454503Y13216468D01*
X-1454500Y13216467D01*
X-1449255Y13214632D01*
X-1443738Y13214010D01*
X-1443732Y13214009D01*
X-1275520Y13195057D01*
X-1270000Y13194435D01*
X-1264480Y13195057D01*
X-1096267Y13214009D01*
X-1096259Y13214010D01*
X-1090745Y13214632D01*
X-1085501Y13216466D01*
X-1085496Y13216468D01*
X-925729Y13272373D01*
X-925724Y13272375D01*
X-920478Y13274211D01*
X-915771Y13277168D01*
X-915768Y13277170D01*
X-772446Y13367225D01*
X-772441Y13367228D01*
X-767738Y13370184D01*
X-763811Y13374110D01*
X-763807Y13374114D01*
X-644114Y13493807D01*
X-644110Y13493811D01*
X-640184Y13497738D01*
X-637228Y13502441D01*
X-637225Y13502446D01*
X-547170Y13645768D01*
X-547168Y13645771D01*
X-544211Y13650478D01*
X-542375Y13655724D01*
X-542373Y13655729D01*
X-486468Y13815496D01*
X-486466Y13815501D01*
X-484632Y13820745D01*
X-484010Y13826259D01*
X-484009Y13826267D01*
X-469809Y13952300D01*
X-469808Y13952307D01*
X-469500Y13955046D01*
X-469500Y14444954D01*
X-469809Y14447699D01*
X-484009Y14573732D01*
X-484010Y14573738D01*
X-484632Y14579255D01*
X-486469Y14584504D01*
X-542373Y14744270D01*
X-542373Y14744271D01*
X-544211Y14749522D01*
X-593326Y14827688D01*
X-637225Y14897553D01*
X-640184Y14902262D01*
X-767738Y15029816D01*
X-813342Y15058470D01*
X-873171Y15096064D01*
X-907147Y15132002D01*
X-919500Y15179890D01*
X-919500Y16123380D01*
X-917393Y16143696D01*
X-916639Y16147287D01*
X-916638Y16147294D01*
X-914957Y16155315D01*
X-918740Y16185662D01*
X-919063Y16190873D01*
X-919162Y16190865D01*
X-919500Y16194947D01*
X-919500Y16199040D01*
X-922754Y16218546D01*
X-923340Y16222572D01*
X-928412Y16263253D01*
X-929427Y16271393D01*
X-932686Y16278060D01*
X-933908Y16285381D01*
X-957322Y16328647D01*
X-959195Y16332285D01*
X-977198Y16369112D01*
X-980802Y16376484D01*
X-986050Y16381732D01*
X-989582Y16388258D01*
X-1025764Y16421566D01*
X-1028717Y16424399D01*
X-2019199Y17414881D01*
X-2032074Y17430737D01*
X-2034076Y17433801D01*
X-2038563Y17440669D01*
X-2045032Y17445704D01*
X-2045034Y17445706D01*
X-2062688Y17459446D01*
X-2066604Y17462904D01*
X-2066668Y17462830D01*
X-2069802Y17465484D01*
X-2072693Y17468375D01*
X-2088768Y17479851D01*
X-2092039Y17482291D01*
X-2124396Y17507476D01*
X-2124400Y17507478D01*
X-2130874Y17512517D01*
X-2137892Y17514926D01*
X-2143934Y17519240D01*
X-2191132Y17533291D01*
X-2194965Y17534520D01*
X-2195938Y17534854D01*
X-2241512Y17550500D01*
X-2248935Y17550500D01*
X-2256046Y17552617D01*
X-2304917Y17550595D01*
X-2305176Y17550585D01*
X-2309267Y17550500D01*
X-10653380Y17550500D01*
X-10673696Y17552607D01*
X-10677287Y17553360D01*
X-10677289Y17553360D01*
X-10685315Y17555043D01*
X-10715662Y17551260D01*
X-10720875Y17550936D01*
X-10720867Y17550838D01*
X-10724946Y17550500D01*
X-10729040Y17550500D01*
X-10748524Y17547248D01*
X-10752552Y17546661D01*
X-10801393Y17540573D01*
X-10808060Y17537313D01*
X-10815381Y17536092D01*
X-10858673Y17512662D01*
X-10862279Y17510807D01*
X-10906484Y17489198D01*
X-10911732Y17483949D01*
X-10918258Y17480418D01*
X-10951579Y17444220D01*
X-10954364Y17441316D01*
X-15414884Y12980796D01*
X-15430734Y12967926D01*
X-15440669Y12961437D01*
X-15459458Y12937295D01*
X-15462902Y12933397D01*
X-15462827Y12933333D01*
X-15465473Y12930207D01*
X-15468375Y12927307D01*
X-15479880Y12911190D01*
X-15482270Y12907985D01*
X-15512517Y12869126D01*
X-15514926Y12862107D01*
X-15519240Y12856066D01*
X-15533291Y12808866D01*
X-15534508Y12805068D01*
X-15550500Y12758488D01*
X-15550500Y12751065D01*
X-15552617Y12743954D01*
X-15550596Y12695095D01*
X-15550585Y12694824D01*
X-15550500Y12690733D01*
X-15550500Y-12263213D01*
X-15560710Y-12307000D01*
X-15589232Y-12341754D01*
X-15628282Y-12371718D01*
X-15724536Y-12497159D01*
X-15785044Y-12643238D01*
X-15805682Y-12800000D01*
X-19924500Y-12800000D01*
X-19924500Y19901000D01*
X-19911237Y19950500D01*
X-19875000Y19986737D01*
X-19825500Y20000000D01*
X-11013033Y20000000D01*
X-11000000Y20000000D01*
X-11000000Y28825500D01*
X-10986737Y28875000D01*
X-10950500Y28911237D01*
X-10901000Y28924500D01*
X10901000Y28924500D01*
X10950500Y28911237D01*
G37*
G04 #@! TD.AperFunction*
G04 #@! TD*
M02*
