G04 #@! TF.GenerationSoftware,KiCad,Pcbnew,(7.0.0)*
G04 #@! TF.CreationDate,2023-03-12T18:52:53+09:00*
G04 #@! TF.ProjectId,Pmod_MatrixLED,506d6f64-5f4d-4617-9472-69784c45442e,rev?*
G04 #@! TF.SameCoordinates,Original*
G04 #@! TF.FileFunction,Legend,Top*
G04 #@! TF.FilePolarity,Positive*
%FSLAX46Y46*%
G04 Gerber Fmt 4.6, Leading zero omitted, Abs format (unit mm)*
G04 Created by KiCad (PCBNEW (7.0.0)) date 2023-03-12 18:52:53*
%MOMM*%
%LPD*%
G01*
G04 APERTURE LIST*
%ADD10C,0.150000*%
%ADD11C,0.010000*%
%ADD12C,0.200000*%
G04 APERTURE END LIST*
D10*
X-4061904Y24852619D02*
X-4061904Y25852619D01*
X-4061904Y25852619D02*
X-3680952Y25852619D01*
X-3680952Y25852619D02*
X-3585714Y25805000D01*
X-3585714Y25805000D02*
X-3538095Y25757380D01*
X-3538095Y25757380D02*
X-3490476Y25662142D01*
X-3490476Y25662142D02*
X-3490476Y25519285D01*
X-3490476Y25519285D02*
X-3538095Y25424047D01*
X-3538095Y25424047D02*
X-3585714Y25376428D01*
X-3585714Y25376428D02*
X-3680952Y25328809D01*
X-3680952Y25328809D02*
X-4061904Y25328809D01*
X-3061904Y24852619D02*
X-3061904Y25519285D01*
X-3061904Y25424047D02*
X-3014285Y25471666D01*
X-3014285Y25471666D02*
X-2919047Y25519285D01*
X-2919047Y25519285D02*
X-2776190Y25519285D01*
X-2776190Y25519285D02*
X-2680952Y25471666D01*
X-2680952Y25471666D02*
X-2633333Y25376428D01*
X-2633333Y25376428D02*
X-2633333Y24852619D01*
X-2633333Y25376428D02*
X-2585714Y25471666D01*
X-2585714Y25471666D02*
X-2490476Y25519285D01*
X-2490476Y25519285D02*
X-2347619Y25519285D01*
X-2347619Y25519285D02*
X-2252380Y25471666D01*
X-2252380Y25471666D02*
X-2204761Y25376428D01*
X-2204761Y25376428D02*
X-2204761Y24852619D01*
X-1585714Y24852619D02*
X-1680952Y24900238D01*
X-1680952Y24900238D02*
X-1728571Y24947857D01*
X-1728571Y24947857D02*
X-1776190Y25043095D01*
X-1776190Y25043095D02*
X-1776190Y25328809D01*
X-1776190Y25328809D02*
X-1728571Y25424047D01*
X-1728571Y25424047D02*
X-1680952Y25471666D01*
X-1680952Y25471666D02*
X-1585714Y25519285D01*
X-1585714Y25519285D02*
X-1442857Y25519285D01*
X-1442857Y25519285D02*
X-1347619Y25471666D01*
X-1347619Y25471666D02*
X-1300000Y25424047D01*
X-1300000Y25424047D02*
X-1252381Y25328809D01*
X-1252381Y25328809D02*
X-1252381Y25043095D01*
X-1252381Y25043095D02*
X-1300000Y24947857D01*
X-1300000Y24947857D02*
X-1347619Y24900238D01*
X-1347619Y24900238D02*
X-1442857Y24852619D01*
X-1442857Y24852619D02*
X-1585714Y24852619D01*
X-395238Y24852619D02*
X-395238Y25852619D01*
X-395238Y24900238D02*
X-490476Y24852619D01*
X-490476Y24852619D02*
X-680952Y24852619D01*
X-680952Y24852619D02*
X-776190Y24900238D01*
X-776190Y24900238D02*
X-823809Y24947857D01*
X-823809Y24947857D02*
X-871428Y25043095D01*
X-871428Y25043095D02*
X-871428Y25328809D01*
X-871428Y25328809D02*
X-823809Y25424047D01*
X-823809Y25424047D02*
X-776190Y25471666D01*
X-776190Y25471666D02*
X-680952Y25519285D01*
X-680952Y25519285D02*
X-490476Y25519285D01*
X-490476Y25519285D02*
X-395238Y25471666D01*
X1157142Y24852619D02*
X680952Y24852619D01*
X680952Y24852619D02*
X680952Y25852619D01*
X1490476Y25376428D02*
X1823809Y25376428D01*
X1966666Y24852619D02*
X1490476Y24852619D01*
X1490476Y24852619D02*
X1490476Y25852619D01*
X1490476Y25852619D02*
X1966666Y25852619D01*
X2395238Y24852619D02*
X2395238Y25852619D01*
X2395238Y25852619D02*
X2633333Y25852619D01*
X2633333Y25852619D02*
X2776190Y25805000D01*
X2776190Y25805000D02*
X2871428Y25709761D01*
X2871428Y25709761D02*
X2919047Y25614523D01*
X2919047Y25614523D02*
X2966666Y25424047D01*
X2966666Y25424047D02*
X2966666Y25281190D01*
X2966666Y25281190D02*
X2919047Y25090714D01*
X2919047Y25090714D02*
X2871428Y24995476D01*
X2871428Y24995476D02*
X2776190Y24900238D01*
X2776190Y24900238D02*
X2633333Y24852619D01*
X2633333Y24852619D02*
X2395238Y24852619D01*
X3995238Y24852619D02*
X3995238Y25852619D01*
X3995238Y25852619D02*
X4328571Y25138333D01*
X4328571Y25138333D02*
X4661904Y25852619D01*
X4661904Y25852619D02*
X4661904Y24852619D01*
X5566666Y24852619D02*
X5566666Y25376428D01*
X5566666Y25376428D02*
X5519047Y25471666D01*
X5519047Y25471666D02*
X5423809Y25519285D01*
X5423809Y25519285D02*
X5233333Y25519285D01*
X5233333Y25519285D02*
X5138095Y25471666D01*
X5566666Y24900238D02*
X5471428Y24852619D01*
X5471428Y24852619D02*
X5233333Y24852619D01*
X5233333Y24852619D02*
X5138095Y24900238D01*
X5138095Y24900238D02*
X5090476Y24995476D01*
X5090476Y24995476D02*
X5090476Y25090714D01*
X5090476Y25090714D02*
X5138095Y25185952D01*
X5138095Y25185952D02*
X5233333Y25233571D01*
X5233333Y25233571D02*
X5471428Y25233571D01*
X5471428Y25233571D02*
X5566666Y25281190D01*
X5900000Y25519285D02*
X6280952Y25519285D01*
X6042857Y25852619D02*
X6042857Y24995476D01*
X6042857Y24995476D02*
X6090476Y24900238D01*
X6090476Y24900238D02*
X6185714Y24852619D01*
X6185714Y24852619D02*
X6280952Y24852619D01*
X6614286Y24852619D02*
X6614286Y25519285D01*
X6614286Y25328809D02*
X6661905Y25424047D01*
X6661905Y25424047D02*
X6709524Y25471666D01*
X6709524Y25471666D02*
X6804762Y25519285D01*
X6804762Y25519285D02*
X6900000Y25519285D01*
X7233334Y24852619D02*
X7233334Y25519285D01*
X7233334Y25852619D02*
X7185715Y25805000D01*
X7185715Y25805000D02*
X7233334Y25757380D01*
X7233334Y25757380D02*
X7280953Y25805000D01*
X7280953Y25805000D02*
X7233334Y25852619D01*
X7233334Y25852619D02*
X7233334Y25757380D01*
X7614286Y24852619D02*
X8138095Y25519285D01*
X7614286Y25519285D02*
X8138095Y24852619D01*
X-3490476Y23232619D02*
X-3823809Y23708809D01*
X-4061904Y23232619D02*
X-4061904Y24232619D01*
X-4061904Y24232619D02*
X-3680952Y24232619D01*
X-3680952Y24232619D02*
X-3585714Y24185000D01*
X-3585714Y24185000D02*
X-3538095Y24137380D01*
X-3538095Y24137380D02*
X-3490476Y24042142D01*
X-3490476Y24042142D02*
X-3490476Y23899285D01*
X-3490476Y23899285D02*
X-3538095Y23804047D01*
X-3538095Y23804047D02*
X-3585714Y23756428D01*
X-3585714Y23756428D02*
X-3680952Y23708809D01*
X-3680952Y23708809D02*
X-4061904Y23708809D01*
X-2680952Y23280238D02*
X-2776190Y23232619D01*
X-2776190Y23232619D02*
X-2966666Y23232619D01*
X-2966666Y23232619D02*
X-3061904Y23280238D01*
X-3061904Y23280238D02*
X-3109523Y23375476D01*
X-3109523Y23375476D02*
X-3109523Y23756428D01*
X-3109523Y23756428D02*
X-3061904Y23851666D01*
X-3061904Y23851666D02*
X-2966666Y23899285D01*
X-2966666Y23899285D02*
X-2776190Y23899285D01*
X-2776190Y23899285D02*
X-2680952Y23851666D01*
X-2680952Y23851666D02*
X-2633333Y23756428D01*
X-2633333Y23756428D02*
X-2633333Y23661190D01*
X-2633333Y23661190D02*
X-3109523Y23565952D01*
X-2299999Y23899285D02*
X-2061904Y23232619D01*
X-2061904Y23232619D02*
X-1823809Y23899285D01*
X-1442856Y23327857D02*
X-1395237Y23280238D01*
X-1395237Y23280238D02*
X-1442856Y23232619D01*
X-1442856Y23232619D02*
X-1490475Y23280238D01*
X-1490475Y23280238D02*
X-1442856Y23327857D01*
X-1442856Y23327857D02*
X-1442856Y23232619D01*
X-633333Y23756428D02*
X-490476Y23708809D01*
X-490476Y23708809D02*
X-442857Y23661190D01*
X-442857Y23661190D02*
X-395238Y23565952D01*
X-395238Y23565952D02*
X-395238Y23423095D01*
X-395238Y23423095D02*
X-442857Y23327857D01*
X-442857Y23327857D02*
X-490476Y23280238D01*
X-490476Y23280238D02*
X-585714Y23232619D01*
X-585714Y23232619D02*
X-966666Y23232619D01*
X-966666Y23232619D02*
X-966666Y24232619D01*
X-966666Y24232619D02*
X-633333Y24232619D01*
X-633333Y24232619D02*
X-538095Y24185000D01*
X-538095Y24185000D02*
X-490476Y24137380D01*
X-490476Y24137380D02*
X-442857Y24042142D01*
X-442857Y24042142D02*
X-442857Y23946904D01*
X-442857Y23946904D02*
X-490476Y23851666D01*
X-490476Y23851666D02*
X-538095Y23804047D01*
X-538095Y23804047D02*
X-633333Y23756428D01*
X-633333Y23756428D02*
X-966666Y23756428D01*
X585714Y24137380D02*
X633333Y24185000D01*
X633333Y24185000D02*
X728571Y24232619D01*
X728571Y24232619D02*
X966666Y24232619D01*
X966666Y24232619D02*
X1061904Y24185000D01*
X1061904Y24185000D02*
X1109523Y24137380D01*
X1109523Y24137380D02*
X1157142Y24042142D01*
X1157142Y24042142D02*
X1157142Y23946904D01*
X1157142Y23946904D02*
X1109523Y23804047D01*
X1109523Y23804047D02*
X538095Y23232619D01*
X538095Y23232619D02*
X1157142Y23232619D01*
X1776190Y24232619D02*
X1871428Y24232619D01*
X1871428Y24232619D02*
X1966666Y24185000D01*
X1966666Y24185000D02*
X2014285Y24137380D01*
X2014285Y24137380D02*
X2061904Y24042142D01*
X2061904Y24042142D02*
X2109523Y23851666D01*
X2109523Y23851666D02*
X2109523Y23613571D01*
X2109523Y23613571D02*
X2061904Y23423095D01*
X2061904Y23423095D02*
X2014285Y23327857D01*
X2014285Y23327857D02*
X1966666Y23280238D01*
X1966666Y23280238D02*
X1871428Y23232619D01*
X1871428Y23232619D02*
X1776190Y23232619D01*
X1776190Y23232619D02*
X1680952Y23280238D01*
X1680952Y23280238D02*
X1633333Y23327857D01*
X1633333Y23327857D02*
X1585714Y23423095D01*
X1585714Y23423095D02*
X1538095Y23613571D01*
X1538095Y23613571D02*
X1538095Y23851666D01*
X1538095Y23851666D02*
X1585714Y24042142D01*
X1585714Y24042142D02*
X1633333Y24137380D01*
X1633333Y24137380D02*
X1680952Y24185000D01*
X1680952Y24185000D02*
X1776190Y24232619D01*
X2490476Y24137380D02*
X2538095Y24185000D01*
X2538095Y24185000D02*
X2633333Y24232619D01*
X2633333Y24232619D02*
X2871428Y24232619D01*
X2871428Y24232619D02*
X2966666Y24185000D01*
X2966666Y24185000D02*
X3014285Y24137380D01*
X3014285Y24137380D02*
X3061904Y24042142D01*
X3061904Y24042142D02*
X3061904Y23946904D01*
X3061904Y23946904D02*
X3014285Y23804047D01*
X3014285Y23804047D02*
X2442857Y23232619D01*
X2442857Y23232619D02*
X3061904Y23232619D01*
X3395238Y24232619D02*
X4014285Y24232619D01*
X4014285Y24232619D02*
X3680952Y23851666D01*
X3680952Y23851666D02*
X3823809Y23851666D01*
X3823809Y23851666D02*
X3919047Y23804047D01*
X3919047Y23804047D02*
X3966666Y23756428D01*
X3966666Y23756428D02*
X4014285Y23661190D01*
X4014285Y23661190D02*
X4014285Y23423095D01*
X4014285Y23423095D02*
X3966666Y23327857D01*
X3966666Y23327857D02*
X3919047Y23280238D01*
X3919047Y23280238D02*
X3823809Y23232619D01*
X3823809Y23232619D02*
X3538095Y23232619D01*
X3538095Y23232619D02*
X3442857Y23280238D01*
X3442857Y23280238D02*
X3395238Y23327857D01*
X4442857Y23613571D02*
X5204762Y23613571D01*
X5871428Y24232619D02*
X5966666Y24232619D01*
X5966666Y24232619D02*
X6061904Y24185000D01*
X6061904Y24185000D02*
X6109523Y24137380D01*
X6109523Y24137380D02*
X6157142Y24042142D01*
X6157142Y24042142D02*
X6204761Y23851666D01*
X6204761Y23851666D02*
X6204761Y23613571D01*
X6204761Y23613571D02*
X6157142Y23423095D01*
X6157142Y23423095D02*
X6109523Y23327857D01*
X6109523Y23327857D02*
X6061904Y23280238D01*
X6061904Y23280238D02*
X5966666Y23232619D01*
X5966666Y23232619D02*
X5871428Y23232619D01*
X5871428Y23232619D02*
X5776190Y23280238D01*
X5776190Y23280238D02*
X5728571Y23327857D01*
X5728571Y23327857D02*
X5680952Y23423095D01*
X5680952Y23423095D02*
X5633333Y23613571D01*
X5633333Y23613571D02*
X5633333Y23851666D01*
X5633333Y23851666D02*
X5680952Y24042142D01*
X5680952Y24042142D02*
X5728571Y24137380D01*
X5728571Y24137380D02*
X5776190Y24185000D01*
X5776190Y24185000D02*
X5871428Y24232619D01*
X6538095Y24232619D02*
X7157142Y24232619D01*
X7157142Y24232619D02*
X6823809Y23851666D01*
X6823809Y23851666D02*
X6966666Y23851666D01*
X6966666Y23851666D02*
X7061904Y23804047D01*
X7061904Y23804047D02*
X7109523Y23756428D01*
X7109523Y23756428D02*
X7157142Y23661190D01*
X7157142Y23661190D02*
X7157142Y23423095D01*
X7157142Y23423095D02*
X7109523Y23327857D01*
X7109523Y23327857D02*
X7061904Y23280238D01*
X7061904Y23280238D02*
X6966666Y23232619D01*
X6966666Y23232619D02*
X6680952Y23232619D01*
X6680952Y23232619D02*
X6585714Y23280238D01*
X6585714Y23280238D02*
X6538095Y23327857D01*
X7585714Y23613571D02*
X8347619Y23613571D01*
X9347618Y23232619D02*
X8776190Y23232619D01*
X9061904Y23232619D02*
X9061904Y24232619D01*
X9061904Y24232619D02*
X8966666Y24089761D01*
X8966666Y24089761D02*
X8871428Y23994523D01*
X8871428Y23994523D02*
X8776190Y23946904D01*
X9728571Y24137380D02*
X9776190Y24185000D01*
X9776190Y24185000D02*
X9871428Y24232619D01*
X9871428Y24232619D02*
X10109523Y24232619D01*
X10109523Y24232619D02*
X10204761Y24185000D01*
X10204761Y24185000D02*
X10252380Y24137380D01*
X10252380Y24137380D02*
X10299999Y24042142D01*
X10299999Y24042142D02*
X10299999Y23946904D01*
X10299999Y23946904D02*
X10252380Y23804047D01*
X10252380Y23804047D02*
X9680952Y23232619D01*
X9680952Y23232619D02*
X10299999Y23232619D01*
X-3442857Y22088809D02*
X-3490476Y22136428D01*
X-3490476Y22136428D02*
X-3585714Y22184047D01*
X-3585714Y22184047D02*
X-3680952Y22184047D01*
X-3680952Y22184047D02*
X-3776190Y22136428D01*
X-3776190Y22136428D02*
X-3823809Y22088809D01*
X-3823809Y22088809D02*
X-3871428Y21993571D01*
X-3871428Y21993571D02*
X-3871428Y21898333D01*
X-3871428Y21898333D02*
X-3823809Y21803095D01*
X-3823809Y21803095D02*
X-3776190Y21755476D01*
X-3776190Y21755476D02*
X-3680952Y21707857D01*
X-3680952Y21707857D02*
X-3585714Y21707857D01*
X-3585714Y21707857D02*
X-3490476Y21755476D01*
X-3490476Y21755476D02*
X-3442857Y21803095D01*
X-3442857Y22184047D02*
X-3442857Y21803095D01*
X-3442857Y21803095D02*
X-3395238Y21755476D01*
X-3395238Y21755476D02*
X-3347619Y21755476D01*
X-3347619Y21755476D02*
X-3252380Y21803095D01*
X-3252380Y21803095D02*
X-3204761Y21898333D01*
X-3204761Y21898333D02*
X-3204761Y22136428D01*
X-3204761Y22136428D02*
X-3300000Y22279285D01*
X-3300000Y22279285D02*
X-3442857Y22374523D01*
X-3442857Y22374523D02*
X-3633333Y22422142D01*
X-3633333Y22422142D02*
X-3823809Y22374523D01*
X-3823809Y22374523D02*
X-3966666Y22279285D01*
X-3966666Y22279285D02*
X-4061904Y22136428D01*
X-4061904Y22136428D02*
X-4109523Y21945952D01*
X-4109523Y21945952D02*
X-4061904Y21755476D01*
X-4061904Y21755476D02*
X-3966666Y21612619D01*
X-3966666Y21612619D02*
X-3823809Y21517380D01*
X-3823809Y21517380D02*
X-3633333Y21469761D01*
X-3633333Y21469761D02*
X-3442857Y21517380D01*
X-3442857Y21517380D02*
X-3300000Y21612619D01*
X-2347619Y21660238D02*
X-2442857Y21612619D01*
X-2442857Y21612619D02*
X-2633333Y21612619D01*
X-2633333Y21612619D02*
X-2728571Y21660238D01*
X-2728571Y21660238D02*
X-2776190Y21707857D01*
X-2776190Y21707857D02*
X-2823809Y21803095D01*
X-2823809Y21803095D02*
X-2823809Y22088809D01*
X-2823809Y22088809D02*
X-2776190Y22184047D01*
X-2776190Y22184047D02*
X-2728571Y22231666D01*
X-2728571Y22231666D02*
X-2633333Y22279285D01*
X-2633333Y22279285D02*
X-2442857Y22279285D01*
X-2442857Y22279285D02*
X-2347619Y22231666D01*
X-1919047Y21612619D02*
X-1919047Y22279285D01*
X-1919047Y22612619D02*
X-1966666Y22565000D01*
X-1966666Y22565000D02*
X-1919047Y22517380D01*
X-1919047Y22517380D02*
X-1871428Y22565000D01*
X-1871428Y22565000D02*
X-1919047Y22612619D01*
X-1919047Y22612619D02*
X-1919047Y22517380D01*
X-1442857Y22279285D02*
X-1442857Y21612619D01*
X-1442857Y22184047D02*
X-1395238Y22231666D01*
X-1395238Y22231666D02*
X-1300000Y22279285D01*
X-1300000Y22279285D02*
X-1157143Y22279285D01*
X-1157143Y22279285D02*
X-1061905Y22231666D01*
X-1061905Y22231666D02*
X-1014286Y22136428D01*
X-1014286Y22136428D02*
X-1014286Y21612619D01*
X-538095Y21612619D02*
X-538095Y22279285D01*
X-538095Y22612619D02*
X-585714Y22565000D01*
X-585714Y22565000D02*
X-538095Y22517380D01*
X-538095Y22517380D02*
X-490476Y22565000D01*
X-490476Y22565000D02*
X-538095Y22612619D01*
X-538095Y22612619D02*
X-538095Y22517380D01*
X-61905Y21612619D02*
X-61905Y22279285D01*
X-61905Y22184047D02*
X-14286Y22231666D01*
X-14286Y22231666D02*
X80951Y22279285D01*
X80951Y22279285D02*
X223808Y22279285D01*
X223808Y22279285D02*
X319046Y22231666D01*
X319046Y22231666D02*
X366665Y22136428D01*
X366665Y22136428D02*
X366665Y21612619D01*
X366665Y22136428D02*
X414284Y22231666D01*
X414284Y22231666D02*
X509522Y22279285D01*
X509522Y22279285D02*
X652379Y22279285D01*
X652379Y22279285D02*
X747618Y22231666D01*
X747618Y22231666D02*
X795237Y22136428D01*
X795237Y22136428D02*
X795237Y21612619D01*
X1414284Y21612619D02*
X1319046Y21660238D01*
X1319046Y21660238D02*
X1271427Y21755476D01*
X1271427Y21755476D02*
X1271427Y22612619D01*
G04 #@! TO.C,J1*
X17466666Y-31667380D02*
X17466666Y-32381666D01*
X17466666Y-32381666D02*
X17419047Y-32524523D01*
X17419047Y-32524523D02*
X17323809Y-32619761D01*
X17323809Y-32619761D02*
X17180952Y-32667380D01*
X17180952Y-32667380D02*
X17085714Y-32667380D01*
X18466666Y-32667380D02*
X17895238Y-32667380D01*
X18180952Y-32667380D02*
X18180952Y-31667380D01*
X18180952Y-31667380D02*
X18085714Y-31810238D01*
X18085714Y-31810238D02*
X17990476Y-31905476D01*
X17990476Y-31905476D02*
X17895238Y-31953095D01*
X3849904Y-32737428D02*
X3849904Y-33194571D01*
X3849904Y-32965999D02*
X3049904Y-32965999D01*
X3049904Y-32965999D02*
X3164190Y-33042190D01*
X3164190Y-33042190D02*
X3240380Y-33118380D01*
X3240380Y-33118380D02*
X3278476Y-33194571D01*
G04 #@! TO.C,R8*
X-2172619Y-30646666D02*
X-2648809Y-30979999D01*
X-2172619Y-31218094D02*
X-3172619Y-31218094D01*
X-3172619Y-31218094D02*
X-3172619Y-30837142D01*
X-3172619Y-30837142D02*
X-3125000Y-30741904D01*
X-3125000Y-30741904D02*
X-3077380Y-30694285D01*
X-3077380Y-30694285D02*
X-2982142Y-30646666D01*
X-2982142Y-30646666D02*
X-2839285Y-30646666D01*
X-2839285Y-30646666D02*
X-2744047Y-30694285D01*
X-2744047Y-30694285D02*
X-2696428Y-30741904D01*
X-2696428Y-30741904D02*
X-2648809Y-30837142D01*
X-2648809Y-30837142D02*
X-2648809Y-31218094D01*
X-2744047Y-30075237D02*
X-2791666Y-30170475D01*
X-2791666Y-30170475D02*
X-2839285Y-30218094D01*
X-2839285Y-30218094D02*
X-2934523Y-30265713D01*
X-2934523Y-30265713D02*
X-2982142Y-30265713D01*
X-2982142Y-30265713D02*
X-3077380Y-30218094D01*
X-3077380Y-30218094D02*
X-3125000Y-30170475D01*
X-3125000Y-30170475D02*
X-3172619Y-30075237D01*
X-3172619Y-30075237D02*
X-3172619Y-29884761D01*
X-3172619Y-29884761D02*
X-3125000Y-29789523D01*
X-3125000Y-29789523D02*
X-3077380Y-29741904D01*
X-3077380Y-29741904D02*
X-2982142Y-29694285D01*
X-2982142Y-29694285D02*
X-2934523Y-29694285D01*
X-2934523Y-29694285D02*
X-2839285Y-29741904D01*
X-2839285Y-29741904D02*
X-2791666Y-29789523D01*
X-2791666Y-29789523D02*
X-2744047Y-29884761D01*
X-2744047Y-29884761D02*
X-2744047Y-30075237D01*
X-2744047Y-30075237D02*
X-2696428Y-30170475D01*
X-2696428Y-30170475D02*
X-2648809Y-30218094D01*
X-2648809Y-30218094D02*
X-2553571Y-30265713D01*
X-2553571Y-30265713D02*
X-2363095Y-30265713D01*
X-2363095Y-30265713D02*
X-2267857Y-30218094D01*
X-2267857Y-30218094D02*
X-2220238Y-30170475D01*
X-2220238Y-30170475D02*
X-2172619Y-30075237D01*
X-2172619Y-30075237D02*
X-2172619Y-29884761D01*
X-2172619Y-29884761D02*
X-2220238Y-29789523D01*
X-2220238Y-29789523D02*
X-2267857Y-29741904D01*
X-2267857Y-29741904D02*
X-2363095Y-29694285D01*
X-2363095Y-29694285D02*
X-2553571Y-29694285D01*
X-2553571Y-29694285D02*
X-2648809Y-29741904D01*
X-2648809Y-29741904D02*
X-2696428Y-29789523D01*
X-2696428Y-29789523D02*
X-2744047Y-29884761D01*
G04 #@! TO.C,R4*
X-12332619Y-30646666D02*
X-12808809Y-30979999D01*
X-12332619Y-31218094D02*
X-13332619Y-31218094D01*
X-13332619Y-31218094D02*
X-13332619Y-30837142D01*
X-13332619Y-30837142D02*
X-13285000Y-30741904D01*
X-13285000Y-30741904D02*
X-13237380Y-30694285D01*
X-13237380Y-30694285D02*
X-13142142Y-30646666D01*
X-13142142Y-30646666D02*
X-12999285Y-30646666D01*
X-12999285Y-30646666D02*
X-12904047Y-30694285D01*
X-12904047Y-30694285D02*
X-12856428Y-30741904D01*
X-12856428Y-30741904D02*
X-12808809Y-30837142D01*
X-12808809Y-30837142D02*
X-12808809Y-31218094D01*
X-12999285Y-29789523D02*
X-12332619Y-29789523D01*
X-13380238Y-30027618D02*
X-12665952Y-30265713D01*
X-12665952Y-30265713D02*
X-12665952Y-29646666D01*
G04 #@! TO.C,R2*
X-17412619Y-30646666D02*
X-17888809Y-30979999D01*
X-17412619Y-31218094D02*
X-18412619Y-31218094D01*
X-18412619Y-31218094D02*
X-18412619Y-30837142D01*
X-18412619Y-30837142D02*
X-18365000Y-30741904D01*
X-18365000Y-30741904D02*
X-18317380Y-30694285D01*
X-18317380Y-30694285D02*
X-18222142Y-30646666D01*
X-18222142Y-30646666D02*
X-18079285Y-30646666D01*
X-18079285Y-30646666D02*
X-17984047Y-30694285D01*
X-17984047Y-30694285D02*
X-17936428Y-30741904D01*
X-17936428Y-30741904D02*
X-17888809Y-30837142D01*
X-17888809Y-30837142D02*
X-17888809Y-31218094D01*
X-18317380Y-30265713D02*
X-18365000Y-30218094D01*
X-18365000Y-30218094D02*
X-18412619Y-30122856D01*
X-18412619Y-30122856D02*
X-18412619Y-29884761D01*
X-18412619Y-29884761D02*
X-18365000Y-29789523D01*
X-18365000Y-29789523D02*
X-18317380Y-29741904D01*
X-18317380Y-29741904D02*
X-18222142Y-29694285D01*
X-18222142Y-29694285D02*
X-18126904Y-29694285D01*
X-18126904Y-29694285D02*
X-17984047Y-29741904D01*
X-17984047Y-29741904D02*
X-17412619Y-30313332D01*
X-17412619Y-30313332D02*
X-17412619Y-29694285D01*
G04 #@! TO.C,R3*
X-9792619Y-30646666D02*
X-10268809Y-30979999D01*
X-9792619Y-31218094D02*
X-10792619Y-31218094D01*
X-10792619Y-31218094D02*
X-10792619Y-30837142D01*
X-10792619Y-30837142D02*
X-10745000Y-30741904D01*
X-10745000Y-30741904D02*
X-10697380Y-30694285D01*
X-10697380Y-30694285D02*
X-10602142Y-30646666D01*
X-10602142Y-30646666D02*
X-10459285Y-30646666D01*
X-10459285Y-30646666D02*
X-10364047Y-30694285D01*
X-10364047Y-30694285D02*
X-10316428Y-30741904D01*
X-10316428Y-30741904D02*
X-10268809Y-30837142D01*
X-10268809Y-30837142D02*
X-10268809Y-31218094D01*
X-10792619Y-30313332D02*
X-10792619Y-29694285D01*
X-10792619Y-29694285D02*
X-10411666Y-30027618D01*
X-10411666Y-30027618D02*
X-10411666Y-29884761D01*
X-10411666Y-29884761D02*
X-10364047Y-29789523D01*
X-10364047Y-29789523D02*
X-10316428Y-29741904D01*
X-10316428Y-29741904D02*
X-10221190Y-29694285D01*
X-10221190Y-29694285D02*
X-9983095Y-29694285D01*
X-9983095Y-29694285D02*
X-9887857Y-29741904D01*
X-9887857Y-29741904D02*
X-9840238Y-29789523D01*
X-9840238Y-29789523D02*
X-9792619Y-29884761D01*
X-9792619Y-29884761D02*
X-9792619Y-30170475D01*
X-9792619Y-30170475D02*
X-9840238Y-30265713D01*
X-9840238Y-30265713D02*
X-9887857Y-30313332D01*
G04 #@! TO.C,R1*
X-14872619Y-30646666D02*
X-15348809Y-30979999D01*
X-14872619Y-31218094D02*
X-15872619Y-31218094D01*
X-15872619Y-31218094D02*
X-15872619Y-30837142D01*
X-15872619Y-30837142D02*
X-15825000Y-30741904D01*
X-15825000Y-30741904D02*
X-15777380Y-30694285D01*
X-15777380Y-30694285D02*
X-15682142Y-30646666D01*
X-15682142Y-30646666D02*
X-15539285Y-30646666D01*
X-15539285Y-30646666D02*
X-15444047Y-30694285D01*
X-15444047Y-30694285D02*
X-15396428Y-30741904D01*
X-15396428Y-30741904D02*
X-15348809Y-30837142D01*
X-15348809Y-30837142D02*
X-15348809Y-31218094D01*
X-14872619Y-29694285D02*
X-14872619Y-30265713D01*
X-14872619Y-29979999D02*
X-15872619Y-29979999D01*
X-15872619Y-29979999D02*
X-15729761Y-30075237D01*
X-15729761Y-30075237D02*
X-15634523Y-30170475D01*
X-15634523Y-30170475D02*
X-15586904Y-30265713D01*
G04 #@! TO.C,R6*
X-7252619Y-30646666D02*
X-7728809Y-30979999D01*
X-7252619Y-31218094D02*
X-8252619Y-31218094D01*
X-8252619Y-31218094D02*
X-8252619Y-30837142D01*
X-8252619Y-30837142D02*
X-8205000Y-30741904D01*
X-8205000Y-30741904D02*
X-8157380Y-30694285D01*
X-8157380Y-30694285D02*
X-8062142Y-30646666D01*
X-8062142Y-30646666D02*
X-7919285Y-30646666D01*
X-7919285Y-30646666D02*
X-7824047Y-30694285D01*
X-7824047Y-30694285D02*
X-7776428Y-30741904D01*
X-7776428Y-30741904D02*
X-7728809Y-30837142D01*
X-7728809Y-30837142D02*
X-7728809Y-31218094D01*
X-8252619Y-29789523D02*
X-8252619Y-29979999D01*
X-8252619Y-29979999D02*
X-8205000Y-30075237D01*
X-8205000Y-30075237D02*
X-8157380Y-30122856D01*
X-8157380Y-30122856D02*
X-8014523Y-30218094D01*
X-8014523Y-30218094D02*
X-7824047Y-30265713D01*
X-7824047Y-30265713D02*
X-7443095Y-30265713D01*
X-7443095Y-30265713D02*
X-7347857Y-30218094D01*
X-7347857Y-30218094D02*
X-7300238Y-30170475D01*
X-7300238Y-30170475D02*
X-7252619Y-30075237D01*
X-7252619Y-30075237D02*
X-7252619Y-29884761D01*
X-7252619Y-29884761D02*
X-7300238Y-29789523D01*
X-7300238Y-29789523D02*
X-7347857Y-29741904D01*
X-7347857Y-29741904D02*
X-7443095Y-29694285D01*
X-7443095Y-29694285D02*
X-7681190Y-29694285D01*
X-7681190Y-29694285D02*
X-7776428Y-29741904D01*
X-7776428Y-29741904D02*
X-7824047Y-29789523D01*
X-7824047Y-29789523D02*
X-7871666Y-29884761D01*
X-7871666Y-29884761D02*
X-7871666Y-30075237D01*
X-7871666Y-30075237D02*
X-7824047Y-30170475D01*
X-7824047Y-30170475D02*
X-7776428Y-30218094D01*
X-7776428Y-30218094D02*
X-7681190Y-30265713D01*
G04 #@! TO.C,J2*
X-5333333Y-31567380D02*
X-5333333Y-32281666D01*
X-5333333Y-32281666D02*
X-5380952Y-32424523D01*
X-5380952Y-32424523D02*
X-5476190Y-32519761D01*
X-5476190Y-32519761D02*
X-5619047Y-32567380D01*
X-5619047Y-32567380D02*
X-5714285Y-32567380D01*
X-4904761Y-31662619D02*
X-4857142Y-31615000D01*
X-4857142Y-31615000D02*
X-4761904Y-31567380D01*
X-4761904Y-31567380D02*
X-4523809Y-31567380D01*
X-4523809Y-31567380D02*
X-4428571Y-31615000D01*
X-4428571Y-31615000D02*
X-4380952Y-31662619D01*
X-4380952Y-31662619D02*
X-4333333Y-31757857D01*
X-4333333Y-31757857D02*
X-4333333Y-31853095D01*
X-4333333Y-31853095D02*
X-4380952Y-31995952D01*
X-4380952Y-31995952D02*
X-4952380Y-32567380D01*
X-4952380Y-32567380D02*
X-4333333Y-32567380D01*
X-19010095Y-32737428D02*
X-19010095Y-33194571D01*
X-19010095Y-32965999D02*
X-19810095Y-32965999D01*
X-19810095Y-32965999D02*
X-19695809Y-33042190D01*
X-19695809Y-33042190D02*
X-19619619Y-33118380D01*
X-19619619Y-33118380D02*
X-19581523Y-33194571D01*
G04 #@! TO.C,R5*
X-4712619Y-30646666D02*
X-5188809Y-30979999D01*
X-4712619Y-31218094D02*
X-5712619Y-31218094D01*
X-5712619Y-31218094D02*
X-5712619Y-30837142D01*
X-5712619Y-30837142D02*
X-5665000Y-30741904D01*
X-5665000Y-30741904D02*
X-5617380Y-30694285D01*
X-5617380Y-30694285D02*
X-5522142Y-30646666D01*
X-5522142Y-30646666D02*
X-5379285Y-30646666D01*
X-5379285Y-30646666D02*
X-5284047Y-30694285D01*
X-5284047Y-30694285D02*
X-5236428Y-30741904D01*
X-5236428Y-30741904D02*
X-5188809Y-30837142D01*
X-5188809Y-30837142D02*
X-5188809Y-31218094D01*
X-5712619Y-29741904D02*
X-5712619Y-30218094D01*
X-5712619Y-30218094D02*
X-5236428Y-30265713D01*
X-5236428Y-30265713D02*
X-5284047Y-30218094D01*
X-5284047Y-30218094D02*
X-5331666Y-30122856D01*
X-5331666Y-30122856D02*
X-5331666Y-29884761D01*
X-5331666Y-29884761D02*
X-5284047Y-29789523D01*
X-5284047Y-29789523D02*
X-5236428Y-29741904D01*
X-5236428Y-29741904D02*
X-5141190Y-29694285D01*
X-5141190Y-29694285D02*
X-4903095Y-29694285D01*
X-4903095Y-29694285D02*
X-4807857Y-29741904D01*
X-4807857Y-29741904D02*
X-4760238Y-29789523D01*
X-4760238Y-29789523D02*
X-4712619Y-29884761D01*
X-4712619Y-29884761D02*
X-4712619Y-30122856D01*
X-4712619Y-30122856D02*
X-4760238Y-30218094D01*
X-4760238Y-30218094D02*
X-4807857Y-30265713D01*
G04 #@! TO.C,U1*
X16538095Y-19467380D02*
X16538095Y-20276904D01*
X16538095Y-20276904D02*
X16585714Y-20372142D01*
X16585714Y-20372142D02*
X16633333Y-20419761D01*
X16633333Y-20419761D02*
X16728571Y-20467380D01*
X16728571Y-20467380D02*
X16919047Y-20467380D01*
X16919047Y-20467380D02*
X17014285Y-20419761D01*
X17014285Y-20419761D02*
X17061904Y-20372142D01*
X17061904Y-20372142D02*
X17109523Y-20276904D01*
X17109523Y-20276904D02*
X17109523Y-19467380D01*
X18109523Y-20467380D02*
X17538095Y-20467380D01*
X17823809Y-20467380D02*
X17823809Y-19467380D01*
X17823809Y-19467380D02*
X17728571Y-19610238D01*
X17728571Y-19610238D02*
X17633333Y-19705476D01*
X17633333Y-19705476D02*
X17538095Y-19753095D01*
G04 #@! TO.C,R7*
X367380Y-30646666D02*
X-108809Y-30979999D01*
X367380Y-31218094D02*
X-632619Y-31218094D01*
X-632619Y-31218094D02*
X-632619Y-30837142D01*
X-632619Y-30837142D02*
X-585000Y-30741904D01*
X-585000Y-30741904D02*
X-537380Y-30694285D01*
X-537380Y-30694285D02*
X-442142Y-30646666D01*
X-442142Y-30646666D02*
X-299285Y-30646666D01*
X-299285Y-30646666D02*
X-204047Y-30694285D01*
X-204047Y-30694285D02*
X-156428Y-30741904D01*
X-156428Y-30741904D02*
X-108809Y-30837142D01*
X-108809Y-30837142D02*
X-108809Y-31218094D01*
X-632619Y-30313332D02*
X-632619Y-29646666D01*
X-632619Y-29646666D02*
X367380Y-30075237D01*
G04 #@! TO.C,LOGO1*
G36*
X-5533466Y23568148D02*
G01*
X-5494407Y23536777D01*
X-5444738Y23484479D01*
X-5421342Y23424998D01*
X-5415235Y23334647D01*
X-5415222Y23328073D01*
X-5432055Y23198267D01*
X-5482839Y23113316D01*
X-5568002Y23072665D01*
X-5615103Y23068666D01*
X-5705464Y23088912D01*
X-5765951Y23143028D01*
X-5815175Y23250279D01*
X-5824444Y23338075D01*
X-5816216Y23426449D01*
X-5782931Y23488485D01*
X-5737612Y23531824D01*
X-5659841Y23587463D01*
X-5598185Y23599440D01*
X-5533466Y23568148D01*
G37*
D11*
X-5533466Y23568148D02*
X-5494407Y23536777D01*
X-5444738Y23484479D01*
X-5421342Y23424998D01*
X-5415235Y23334647D01*
X-5415222Y23328073D01*
X-5432055Y23198267D01*
X-5482839Y23113316D01*
X-5568002Y23072665D01*
X-5615103Y23068666D01*
X-5705464Y23088912D01*
X-5765951Y23143028D01*
X-5815175Y23250279D01*
X-5824444Y23338075D01*
X-5816216Y23426449D01*
X-5782931Y23488485D01*
X-5737612Y23531824D01*
X-5659841Y23587463D01*
X-5598185Y23599440D01*
X-5533466Y23568148D01*
G36*
X-4899286Y23736572D02*
G01*
X-4848856Y23713795D01*
X-4723778Y23651328D01*
X-4723778Y23449368D01*
X-4727766Y23330653D01*
X-4740240Y23263386D01*
X-4759055Y23243175D01*
X-4810413Y23235029D01*
X-4883602Y23221517D01*
X-4939587Y23216896D01*
X-4990198Y23233326D01*
X-5052165Y23278618D01*
X-5102798Y23323855D01*
X-5197671Y23422051D01*
X-5244982Y23502276D01*
X-5246958Y23573150D01*
X-5205827Y23643291D01*
X-5189872Y23660887D01*
X-5097960Y23735682D01*
X-5005770Y23760186D01*
X-4899286Y23736572D01*
G37*
X-4899286Y23736572D02*
X-4848856Y23713795D01*
X-4723778Y23651328D01*
X-4723778Y23449368D01*
X-4727766Y23330653D01*
X-4740240Y23263386D01*
X-4759055Y23243175D01*
X-4810413Y23235029D01*
X-4883602Y23221517D01*
X-4939587Y23216896D01*
X-4990198Y23233326D01*
X-5052165Y23278618D01*
X-5102798Y23323855D01*
X-5197671Y23422051D01*
X-5244982Y23502276D01*
X-5246958Y23573150D01*
X-5205827Y23643291D01*
X-5189872Y23660887D01*
X-5097960Y23735682D01*
X-5005770Y23760186D01*
X-4899286Y23736572D01*
G36*
X-10621762Y24697439D02*
G01*
X-10566030Y24649347D01*
X-10475646Y24564916D01*
X-10485434Y24299476D01*
X-10492719Y24164645D01*
X-10504341Y24073676D01*
X-10522756Y24014017D01*
X-10548985Y23974684D01*
X-10629438Y23923169D01*
X-10723103Y23916948D01*
X-10810850Y23955055D01*
X-10845951Y23989695D01*
X-10874530Y24034395D01*
X-10892145Y24089239D01*
X-10901259Y24168370D01*
X-10904331Y24285931D01*
X-10904444Y24325853D01*
X-10903697Y24449162D01*
X-10899073Y24529802D01*
X-10887001Y24581546D01*
X-10863910Y24618166D01*
X-10826228Y24653438D01*
X-10817612Y24660713D01*
X-10742438Y24715306D01*
X-10683435Y24727832D01*
X-10621762Y24697439D01*
G37*
X-10621762Y24697439D02*
X-10566030Y24649347D01*
X-10475646Y24564916D01*
X-10485434Y24299476D01*
X-10492719Y24164645D01*
X-10504341Y24073676D01*
X-10522756Y24014017D01*
X-10548985Y23974684D01*
X-10629438Y23923169D01*
X-10723103Y23916948D01*
X-10810850Y23955055D01*
X-10845951Y23989695D01*
X-10874530Y24034395D01*
X-10892145Y24089239D01*
X-10901259Y24168370D01*
X-10904331Y24285931D01*
X-10904444Y24325853D01*
X-10903697Y24449162D01*
X-10899073Y24529802D01*
X-10887001Y24581546D01*
X-10863910Y24618166D01*
X-10826228Y24653438D01*
X-10817612Y24660713D01*
X-10742438Y24715306D01*
X-10683435Y24727832D01*
X-10621762Y24697439D01*
G36*
X-9936828Y26967847D02*
G01*
X-9851213Y26903292D01*
X-9792390Y26823171D01*
X-9775555Y26755169D01*
X-9757022Y26708960D01*
X-9708170Y26637898D01*
X-9639127Y26556509D01*
X-9630995Y26547824D01*
X-9556918Y26467201D01*
X-9514966Y26410472D01*
X-9497559Y26361412D01*
X-9497118Y26303796D01*
X-9500657Y26268785D01*
X-9532754Y26142515D01*
X-9595162Y26063728D01*
X-9687765Y26032560D01*
X-9704604Y26032000D01*
X-9753741Y26038825D01*
X-9805189Y26064185D01*
X-9869240Y26115406D01*
X-9956184Y26199812D01*
X-9992054Y26236611D01*
X-10079064Y26332599D01*
X-10151105Y26423213D01*
X-10198229Y26495367D01*
X-10210240Y26523661D01*
X-10244002Y26608900D01*
X-10285305Y26675634D01*
X-10324508Y26739889D01*
X-10340000Y26792526D01*
X-10317976Y26846273D01*
X-10263148Y26910392D01*
X-10192381Y26968442D01*
X-10123349Y27003740D01*
X-10032964Y27005207D01*
X-9936828Y26967847D01*
G37*
X-9936828Y26967847D02*
X-9851213Y26903292D01*
X-9792390Y26823171D01*
X-9775555Y26755169D01*
X-9757022Y26708960D01*
X-9708170Y26637898D01*
X-9639127Y26556509D01*
X-9630995Y26547824D01*
X-9556918Y26467201D01*
X-9514966Y26410472D01*
X-9497559Y26361412D01*
X-9497118Y26303796D01*
X-9500657Y26268785D01*
X-9532754Y26142515D01*
X-9595162Y26063728D01*
X-9687765Y26032560D01*
X-9704604Y26032000D01*
X-9753741Y26038825D01*
X-9805189Y26064185D01*
X-9869240Y26115406D01*
X-9956184Y26199812D01*
X-9992054Y26236611D01*
X-10079064Y26332599D01*
X-10151105Y26423213D01*
X-10198229Y26495367D01*
X-10210240Y26523661D01*
X-10244002Y26608900D01*
X-10285305Y26675634D01*
X-10324508Y26739889D01*
X-10340000Y26792526D01*
X-10317976Y26846273D01*
X-10263148Y26910392D01*
X-10192381Y26968442D01*
X-10123349Y27003740D01*
X-10032964Y27005207D01*
X-9936828Y26967847D01*
G36*
X-8665785Y25418897D02*
G01*
X-8595105Y25364712D01*
X-8510403Y25287463D01*
X-8422071Y25197835D01*
X-8340502Y25106512D01*
X-8276090Y25024179D01*
X-8239226Y24961521D01*
X-8235309Y24949202D01*
X-8202903Y24865014D01*
X-8151172Y24783474D01*
X-8149124Y24781001D01*
X-8096770Y24706358D01*
X-8087938Y24645977D01*
X-8121861Y24579131D01*
X-8140715Y24554139D01*
X-8185496Y24508646D01*
X-8240053Y24486458D01*
X-8325606Y24479893D01*
X-8346102Y24479778D01*
X-8450975Y24488496D01*
X-8533647Y24511284D01*
X-8553560Y24522198D01*
X-8602299Y24576958D01*
X-8643485Y24656487D01*
X-8648363Y24670365D01*
X-8686715Y24749038D01*
X-8750318Y24842641D01*
X-8805745Y24908957D01*
X-8875428Y24989550D01*
X-8912708Y25052551D01*
X-8927173Y25118088D01*
X-8928889Y25167504D01*
X-8921719Y25256372D01*
X-8892204Y25317245D01*
X-8842057Y25366269D01*
X-8776154Y25413187D01*
X-8721379Y25438107D01*
X-8712049Y25439333D01*
X-8665785Y25418897D01*
G37*
X-8665785Y25418897D02*
X-8595105Y25364712D01*
X-8510403Y25287463D01*
X-8422071Y25197835D01*
X-8340502Y25106512D01*
X-8276090Y25024179D01*
X-8239226Y24961521D01*
X-8235309Y24949202D01*
X-8202903Y24865014D01*
X-8151172Y24783474D01*
X-8149124Y24781001D01*
X-8096770Y24706358D01*
X-8087938Y24645977D01*
X-8121861Y24579131D01*
X-8140715Y24554139D01*
X-8185496Y24508646D01*
X-8240053Y24486458D01*
X-8325606Y24479893D01*
X-8346102Y24479778D01*
X-8450975Y24488496D01*
X-8533647Y24511284D01*
X-8553560Y24522198D01*
X-8602299Y24576958D01*
X-8643485Y24656487D01*
X-8648363Y24670365D01*
X-8686715Y24749038D01*
X-8750318Y24842641D01*
X-8805745Y24908957D01*
X-8875428Y24989550D01*
X-8912708Y25052551D01*
X-8927173Y25118088D01*
X-8928889Y25167504D01*
X-8921719Y25256372D01*
X-8892204Y25317245D01*
X-8842057Y25366269D01*
X-8776154Y25413187D01*
X-8721379Y25438107D01*
X-8712049Y25439333D01*
X-8665785Y25418897D01*
G36*
X-6224010Y22993907D02*
G01*
X-6152709Y22930304D01*
X-6078941Y22851072D01*
X-6015251Y22770396D01*
X-5974180Y22702457D01*
X-5965555Y22671783D01*
X-5947947Y22610888D01*
X-5904611Y22539284D01*
X-5895000Y22527297D01*
X-5848930Y22461386D01*
X-5825277Y22405733D01*
X-5824444Y22397740D01*
X-5809128Y22347859D01*
X-5770562Y22275995D01*
X-5750555Y22245411D01*
X-5709561Y22178666D01*
X-5689173Y22116245D01*
X-5684598Y22035885D01*
X-5688290Y21956214D01*
X-5707988Y21814912D01*
X-5748419Y21721837D01*
X-5813553Y21671320D01*
X-5897326Y21657555D01*
X-5989421Y21678664D01*
X-6046222Y21729436D01*
X-6093583Y21808650D01*
X-6120640Y21882708D01*
X-6146544Y21953251D01*
X-6177593Y21996530D01*
X-6211682Y22043824D01*
X-6245070Y22118288D01*
X-6249902Y22132535D01*
X-6281885Y22212869D01*
X-6316867Y22274454D01*
X-6321549Y22280277D01*
X-6356885Y22336980D01*
X-6390868Y22415125D01*
X-6393053Y22421388D01*
X-6431363Y22509017D01*
X-6477487Y22584877D01*
X-6478072Y22585639D01*
X-6517665Y22673740D01*
X-6530000Y22774703D01*
X-6523226Y22859463D01*
X-6493663Y22916818D01*
X-6432562Y22970780D01*
X-6343993Y23022385D01*
X-6280303Y23027699D01*
X-6224010Y22993907D01*
G37*
X-6224010Y22993907D02*
X-6152709Y22930304D01*
X-6078941Y22851072D01*
X-6015251Y22770396D01*
X-5974180Y22702457D01*
X-5965555Y22671783D01*
X-5947947Y22610888D01*
X-5904611Y22539284D01*
X-5895000Y22527297D01*
X-5848930Y22461386D01*
X-5825277Y22405733D01*
X-5824444Y22397740D01*
X-5809128Y22347859D01*
X-5770562Y22275995D01*
X-5750555Y22245411D01*
X-5709561Y22178666D01*
X-5689173Y22116245D01*
X-5684598Y22035885D01*
X-5688290Y21956214D01*
X-5707988Y21814912D01*
X-5748419Y21721837D01*
X-5813553Y21671320D01*
X-5897326Y21657555D01*
X-5989421Y21678664D01*
X-6046222Y21729436D01*
X-6093583Y21808650D01*
X-6120640Y21882708D01*
X-6146544Y21953251D01*
X-6177593Y21996530D01*
X-6211682Y22043824D01*
X-6245070Y22118288D01*
X-6249902Y22132535D01*
X-6281885Y22212869D01*
X-6316867Y22274454D01*
X-6321549Y22280277D01*
X-6356885Y22336980D01*
X-6390868Y22415125D01*
X-6393053Y22421388D01*
X-6431363Y22509017D01*
X-6477487Y22584877D01*
X-6478072Y22585639D01*
X-6517665Y22673740D01*
X-6530000Y22774703D01*
X-6523226Y22859463D01*
X-6493663Y22916818D01*
X-6432562Y22970780D01*
X-6343993Y23022385D01*
X-6280303Y23027699D01*
X-6224010Y22993907D01*
G36*
X-9935785Y25842230D02*
G01*
X-9865105Y25788045D01*
X-9780403Y25710796D01*
X-9692071Y25621168D01*
X-9610502Y25529845D01*
X-9546090Y25447512D01*
X-9509226Y25384854D01*
X-9505309Y25372536D01*
X-9472903Y25288348D01*
X-9421172Y25206807D01*
X-9419124Y25204334D01*
X-9362092Y25095628D01*
X-9352222Y25015088D01*
X-9325290Y24883790D01*
X-9279499Y24798531D01*
X-9248410Y24749647D01*
X-9228137Y24703751D01*
X-9216815Y24647992D01*
X-9212582Y24569523D01*
X-9213571Y24455494D01*
X-9215999Y24360955D01*
X-9225222Y24030467D01*
X-9348381Y23905057D01*
X-9460250Y23811808D01*
X-9570363Y23768285D01*
X-9692816Y23770041D01*
X-9742283Y23780810D01*
X-9826662Y23823146D01*
X-9890482Y23891678D01*
X-9916642Y23967851D01*
X-9916666Y23970032D01*
X-9897956Y24010730D01*
X-9849104Y24075541D01*
X-9786526Y24144299D01*
X-9709720Y24229413D01*
X-9666447Y24300756D01*
X-9645389Y24378824D01*
X-9641721Y24406532D01*
X-9638596Y24503404D01*
X-9661207Y24579968D01*
X-9698650Y24642264D01*
X-9748414Y24729990D01*
X-9783666Y24817590D01*
X-9788825Y24837661D01*
X-9813514Y24910774D01*
X-9846481Y24959863D01*
X-9880629Y25007134D01*
X-9914187Y25081564D01*
X-9919079Y25095868D01*
X-9956969Y25173240D01*
X-10020187Y25265920D01*
X-10075745Y25332291D01*
X-10145428Y25412884D01*
X-10182708Y25475884D01*
X-10197173Y25541421D01*
X-10198889Y25590838D01*
X-10191719Y25679705D01*
X-10162204Y25740579D01*
X-10112057Y25789602D01*
X-10046154Y25836520D01*
X-9991379Y25861441D01*
X-9982049Y25862666D01*
X-9935785Y25842230D01*
G37*
X-9935785Y25842230D02*
X-9865105Y25788045D01*
X-9780403Y25710796D01*
X-9692071Y25621168D01*
X-9610502Y25529845D01*
X-9546090Y25447512D01*
X-9509226Y25384854D01*
X-9505309Y25372536D01*
X-9472903Y25288348D01*
X-9421172Y25206807D01*
X-9419124Y25204334D01*
X-9362092Y25095628D01*
X-9352222Y25015088D01*
X-9325290Y24883790D01*
X-9279499Y24798531D01*
X-9248410Y24749647D01*
X-9228137Y24703751D01*
X-9216815Y24647992D01*
X-9212582Y24569523D01*
X-9213571Y24455494D01*
X-9215999Y24360955D01*
X-9225222Y24030467D01*
X-9348381Y23905057D01*
X-9460250Y23811808D01*
X-9570363Y23768285D01*
X-9692816Y23770041D01*
X-9742283Y23780810D01*
X-9826662Y23823146D01*
X-9890482Y23891678D01*
X-9916642Y23967851D01*
X-9916666Y23970032D01*
X-9897956Y24010730D01*
X-9849104Y24075541D01*
X-9786526Y24144299D01*
X-9709720Y24229413D01*
X-9666447Y24300756D01*
X-9645389Y24378824D01*
X-9641721Y24406532D01*
X-9638596Y24503404D01*
X-9661207Y24579968D01*
X-9698650Y24642264D01*
X-9748414Y24729990D01*
X-9783666Y24817590D01*
X-9788825Y24837661D01*
X-9813514Y24910774D01*
X-9846481Y24959863D01*
X-9880629Y25007134D01*
X-9914187Y25081564D01*
X-9919079Y25095868D01*
X-9956969Y25173240D01*
X-10020187Y25265920D01*
X-10075745Y25332291D01*
X-10145428Y25412884D01*
X-10182708Y25475884D01*
X-10197173Y25541421D01*
X-10198889Y25590838D01*
X-10191719Y25679705D01*
X-10162204Y25740579D01*
X-10112057Y25789602D01*
X-10046154Y25836520D01*
X-9991379Y25861441D01*
X-9982049Y25862666D01*
X-9935785Y25842230D01*
G36*
X-7352792Y23479989D02*
G01*
X-7256059Y23442796D01*
X-7170990Y23381669D01*
X-7137409Y23341702D01*
X-7111205Y23278717D01*
X-7119193Y23212382D01*
X-7165163Y23134156D01*
X-7252905Y23035501D01*
X-7289449Y22999172D01*
X-7360457Y22926292D01*
X-7411808Y22866613D01*
X-7433025Y22832376D01*
X-7433111Y22831325D01*
X-7414223Y22802685D01*
X-7362084Y22741738D01*
X-7283479Y22655965D01*
X-7185192Y22552847D01*
X-7120778Y22486962D01*
X-6808446Y22170395D01*
X-6817389Y21689323D01*
X-6826333Y21208252D01*
X-6952154Y21080126D01*
X-7077974Y20952000D01*
X-7309939Y20952000D01*
X-7425933Y20953303D01*
X-7500021Y20959691D01*
X-7546722Y20974882D01*
X-7580556Y21002593D01*
X-7600396Y21026361D01*
X-7641154Y21091647D01*
X-7658865Y21146708D01*
X-7658889Y21148081D01*
X-7635417Y21207165D01*
X-7575865Y21273151D01*
X-7496525Y21331897D01*
X-7413690Y21369260D01*
X-7400396Y21372475D01*
X-7322990Y21402435D01*
X-7272920Y21459990D01*
X-7246664Y21553258D01*
X-7240699Y21690354D01*
X-7242162Y21737125D01*
X-7250961Y21943695D01*
X-7465477Y22153403D01*
X-7557984Y22239940D01*
X-7639509Y22309108D01*
X-7699687Y22352512D01*
X-7724455Y22363111D01*
X-7776710Y22340819D01*
X-7840673Y22284743D01*
X-7901829Y22211079D01*
X-7945662Y22136028D01*
X-7956246Y22104450D01*
X-7982544Y22035484D01*
X-8012037Y21995915D01*
X-8046126Y21948620D01*
X-8079514Y21874156D01*
X-8084346Y21859909D01*
X-8117948Y21777501D01*
X-8156407Y21712253D01*
X-8161131Y21706490D01*
X-8189282Y21651209D01*
X-8214590Y21563068D01*
X-8226026Y21499357D01*
X-8256510Y21365745D01*
X-8307342Y21281022D01*
X-8382645Y21240017D01*
X-8437326Y21234222D01*
X-8522908Y21248047D01*
X-8583489Y21293582D01*
X-8622188Y21376920D01*
X-8642126Y21504152D01*
X-8646666Y21642876D01*
X-8644991Y21770463D01*
X-8638456Y21854449D01*
X-8624795Y21907615D01*
X-8601745Y21942745D01*
X-8591822Y21952441D01*
X-8546242Y22016241D01*
X-8518429Y22090871D01*
X-8488433Y22160606D01*
X-8431086Y22245213D01*
X-8384068Y22299494D01*
X-8317268Y22374632D01*
X-8296073Y22423971D01*
X-8323457Y22458438D01*
X-8402397Y22488963D01*
X-8438532Y22499542D01*
X-8522070Y22538680D01*
X-8612070Y22604348D01*
X-8695162Y22683535D01*
X-8757972Y22763230D01*
X-8787129Y22830425D01*
X-8787778Y22839335D01*
X-8765085Y22895449D01*
X-8708373Y22960862D01*
X-8634689Y23020831D01*
X-8561081Y23060609D01*
X-8522623Y23068666D01*
X-8459841Y23053102D01*
X-8379113Y23013927D01*
X-8347216Y22993830D01*
X-8244067Y22941266D01*
X-8137517Y22915680D01*
X-8042631Y22918012D01*
X-7974474Y22949204D01*
X-7958311Y22969536D01*
X-7915785Y23029049D01*
X-7845734Y23110104D01*
X-7758543Y23202453D01*
X-7664597Y23295844D01*
X-7574281Y23380029D01*
X-7497981Y23444756D01*
X-7446082Y23479776D01*
X-7438461Y23482610D01*
X-7352792Y23479989D01*
G37*
X-7352792Y23479989D02*
X-7256059Y23442796D01*
X-7170990Y23381669D01*
X-7137409Y23341702D01*
X-7111205Y23278717D01*
X-7119193Y23212382D01*
X-7165163Y23134156D01*
X-7252905Y23035501D01*
X-7289449Y22999172D01*
X-7360457Y22926292D01*
X-7411808Y22866613D01*
X-7433025Y22832376D01*
X-7433111Y22831325D01*
X-7414223Y22802685D01*
X-7362084Y22741738D01*
X-7283479Y22655965D01*
X-7185192Y22552847D01*
X-7120778Y22486962D01*
X-6808446Y22170395D01*
X-6817389Y21689323D01*
X-6826333Y21208252D01*
X-6952154Y21080126D01*
X-7077974Y20952000D01*
X-7309939Y20952000D01*
X-7425933Y20953303D01*
X-7500021Y20959691D01*
X-7546722Y20974882D01*
X-7580556Y21002593D01*
X-7600396Y21026361D01*
X-7641154Y21091647D01*
X-7658865Y21146708D01*
X-7658889Y21148081D01*
X-7635417Y21207165D01*
X-7575865Y21273151D01*
X-7496525Y21331897D01*
X-7413690Y21369260D01*
X-7400396Y21372475D01*
X-7322990Y21402435D01*
X-7272920Y21459990D01*
X-7246664Y21553258D01*
X-7240699Y21690354D01*
X-7242162Y21737125D01*
X-7250961Y21943695D01*
X-7465477Y22153403D01*
X-7557984Y22239940D01*
X-7639509Y22309108D01*
X-7699687Y22352512D01*
X-7724455Y22363111D01*
X-7776710Y22340819D01*
X-7840673Y22284743D01*
X-7901829Y22211079D01*
X-7945662Y22136028D01*
X-7956246Y22104450D01*
X-7982544Y22035484D01*
X-8012037Y21995915D01*
X-8046126Y21948620D01*
X-8079514Y21874156D01*
X-8084346Y21859909D01*
X-8117948Y21777501D01*
X-8156407Y21712253D01*
X-8161131Y21706490D01*
X-8189282Y21651209D01*
X-8214590Y21563068D01*
X-8226026Y21499357D01*
X-8256510Y21365745D01*
X-8307342Y21281022D01*
X-8382645Y21240017D01*
X-8437326Y21234222D01*
X-8522908Y21248047D01*
X-8583489Y21293582D01*
X-8622188Y21376920D01*
X-8642126Y21504152D01*
X-8646666Y21642876D01*
X-8644991Y21770463D01*
X-8638456Y21854449D01*
X-8624795Y21907615D01*
X-8601745Y21942745D01*
X-8591822Y21952441D01*
X-8546242Y22016241D01*
X-8518429Y22090871D01*
X-8488433Y22160606D01*
X-8431086Y22245213D01*
X-8384068Y22299494D01*
X-8317268Y22374632D01*
X-8296073Y22423971D01*
X-8323457Y22458438D01*
X-8402397Y22488963D01*
X-8438532Y22499542D01*
X-8522070Y22538680D01*
X-8612070Y22604348D01*
X-8695162Y22683535D01*
X-8757972Y22763230D01*
X-8787129Y22830425D01*
X-8787778Y22839335D01*
X-8765085Y22895449D01*
X-8708373Y22960862D01*
X-8634689Y23020831D01*
X-8561081Y23060609D01*
X-8522623Y23068666D01*
X-8459841Y23053102D01*
X-8379113Y23013927D01*
X-8347216Y22993830D01*
X-8244067Y22941266D01*
X-8137517Y22915680D01*
X-8042631Y22918012D01*
X-7974474Y22949204D01*
X-7958311Y22969536D01*
X-7915785Y23029049D01*
X-7845734Y23110104D01*
X-7758543Y23202453D01*
X-7664597Y23295844D01*
X-7574281Y23380029D01*
X-7497981Y23444756D01*
X-7446082Y23479776D01*
X-7438461Y23482610D01*
X-7352792Y23479989D01*
D10*
G04 #@! TO.C,J1*
X4445000Y-38300000D02*
X3810000Y-37665000D01*
X5715000Y-38300000D02*
X4445000Y-38300000D01*
X6985000Y-38300000D02*
X6350000Y-37665000D01*
X8255000Y-38300000D02*
X6985000Y-38300000D01*
X9525000Y-38300000D02*
X8890000Y-37665000D01*
X10795000Y-38300000D02*
X9525000Y-38300000D01*
X12065000Y-38300000D02*
X11430000Y-37665000D01*
X13335000Y-38300000D02*
X12065000Y-38300000D01*
X14605000Y-38300000D02*
X13970000Y-37665000D01*
X15875000Y-38300000D02*
X14605000Y-38300000D01*
X17145000Y-38300000D02*
X16510000Y-37665000D01*
X18415000Y-38300000D02*
X17145000Y-38300000D01*
X3810000Y-37665000D02*
X3810000Y-33855000D01*
X6350000Y-37665000D02*
X5715000Y-38300000D01*
X8890000Y-37665000D02*
X8255000Y-38300000D01*
X11430000Y-37665000D02*
X10795000Y-38300000D01*
X13970000Y-37665000D02*
X13335000Y-38300000D01*
X16510000Y-37665000D02*
X15875000Y-38300000D01*
X19050000Y-37665000D02*
X18415000Y-38300000D01*
X3810000Y-33855000D02*
X4445000Y-33220000D01*
X6350000Y-33855000D02*
X6985000Y-33220000D01*
X8890000Y-33855000D02*
X9525000Y-33220000D01*
X11430000Y-33855000D02*
X12065000Y-33220000D01*
X13970000Y-33855000D02*
X14605000Y-33220000D01*
X16510000Y-33855000D02*
X17145000Y-33220000D01*
X19050000Y-33855000D02*
X19050000Y-37665000D01*
X4445000Y-33220000D02*
X5715000Y-33220000D01*
X5715000Y-33220000D02*
X6350000Y-33855000D01*
X6985000Y-33220000D02*
X8255000Y-33220000D01*
X8255000Y-33220000D02*
X8890000Y-33855000D01*
X9525000Y-33220000D02*
X10795000Y-33220000D01*
X10795000Y-33220000D02*
X11430000Y-33855000D01*
X12065000Y-33220000D02*
X13335000Y-33220000D01*
X13335000Y-33220000D02*
X13970000Y-33855000D01*
X14605000Y-33220000D02*
X15875000Y-33220000D01*
X15875000Y-33220000D02*
X16510000Y-33855000D01*
X17145000Y-33220000D02*
X18415000Y-33220000D01*
X18415000Y-33220000D02*
X19050000Y-33855000D01*
G04 #@! TO.C,J2*
X-18415000Y-38300000D02*
X-19050000Y-37665000D01*
X-17145000Y-38300000D02*
X-18415000Y-38300000D01*
X-15875000Y-38300000D02*
X-16510000Y-37665000D01*
X-14605000Y-38300000D02*
X-15875000Y-38300000D01*
X-13335000Y-38300000D02*
X-13970000Y-37665000D01*
X-12065000Y-38300000D02*
X-13335000Y-38300000D01*
X-10795000Y-38300000D02*
X-11430000Y-37665000D01*
X-9525000Y-38300000D02*
X-10795000Y-38300000D01*
X-8255000Y-38300000D02*
X-8890000Y-37665000D01*
X-6985000Y-38300000D02*
X-8255000Y-38300000D01*
X-5715000Y-38300000D02*
X-6350000Y-37665000D01*
X-4445000Y-38300000D02*
X-5715000Y-38300000D01*
X-19050000Y-37665000D02*
X-19050000Y-33855000D01*
X-16510000Y-37665000D02*
X-17145000Y-38300000D01*
X-13970000Y-37665000D02*
X-14605000Y-38300000D01*
X-11430000Y-37665000D02*
X-12065000Y-38300000D01*
X-8890000Y-37665000D02*
X-9525000Y-38300000D01*
X-6350000Y-37665000D02*
X-6985000Y-38300000D01*
X-3810000Y-37665000D02*
X-4445000Y-38300000D01*
X-19050000Y-33855000D02*
X-18415000Y-33220000D01*
X-16510000Y-33855000D02*
X-15875000Y-33220000D01*
X-13970000Y-33855000D02*
X-13335000Y-33220000D01*
X-11430000Y-33855000D02*
X-10795000Y-33220000D01*
X-8890000Y-33855000D02*
X-8255000Y-33220000D01*
X-6350000Y-33855000D02*
X-5715000Y-33220000D01*
X-3810000Y-33855000D02*
X-3810000Y-37665000D01*
X-18415000Y-33220000D02*
X-17145000Y-33220000D01*
X-17145000Y-33220000D02*
X-16510000Y-33855000D01*
X-15875000Y-33220000D02*
X-14605000Y-33220000D01*
X-14605000Y-33220000D02*
X-13970000Y-33855000D01*
X-13335000Y-33220000D02*
X-12065000Y-33220000D01*
X-12065000Y-33220000D02*
X-11430000Y-33855000D01*
X-10795000Y-33220000D02*
X-9525000Y-33220000D01*
X-9525000Y-33220000D02*
X-8890000Y-33855000D01*
X-8255000Y-33220000D02*
X-6985000Y-33220000D01*
X-6985000Y-33220000D02*
X-6350000Y-33855000D01*
X-5715000Y-33220000D02*
X-4445000Y-33220000D01*
X-4445000Y-33220000D02*
X-3810000Y-33855000D01*
D12*
G04 #@! TO.C,U1*
X-19250000Y1100000D02*
X-18950000Y1100000D01*
X-19250000Y-1100000D02*
X-19250000Y1100000D01*
X-18950000Y1100000D02*
X-18950000Y18950000D01*
X-18950000Y-1100000D02*
X-19250000Y-1100000D01*
X-18950000Y-1100000D02*
X-18950000Y-18950000D01*
X-18950000Y-18950000D02*
X-1100000Y-18950000D01*
X-1100000Y18950000D02*
X-18950000Y18950000D01*
X-1100000Y18950000D02*
X-1100000Y18650000D01*
X-1100000Y-19250000D02*
X-1100000Y-18950000D01*
X1100000Y18950000D02*
X1100000Y18650000D01*
X1100000Y18950000D02*
X18950000Y18950000D01*
X1100000Y18650000D02*
X-1100000Y18650000D01*
X1100000Y-18950000D02*
X1100000Y-19250000D01*
X1100000Y-18950000D02*
X18950000Y-18950000D01*
X1100000Y-19250000D02*
X-1100000Y-19250000D01*
X18650000Y-1100000D02*
X18650000Y1100000D01*
X18650000Y-1100000D02*
X18950000Y-1100000D01*
X18950000Y18950000D02*
X18950000Y1100000D01*
X18950000Y1100000D02*
X18650000Y1100000D01*
X18950000Y-1100000D02*
X18950000Y-18950000D01*
G04 #@! TD*
M02*
