G04 #@! TF.GenerationSoftware,KiCad,Pcbnew,7.0.1*
G04 #@! TF.CreationDate,2023-03-21T03:45:51+09:00*
G04 #@! TF.ProjectId,Pmod_Debug,506d6f64-5f44-4656-9275-672e6b696361,rev?*
G04 #@! TF.SameCoordinates,Original*
G04 #@! TF.FileFunction,Copper,L1,Top*
G04 #@! TF.FilePolarity,Positive*
%FSLAX46Y46*%
G04 Gerber Fmt 4.6, Leading zero omitted, Abs format (unit mm)*
G04 Created by KiCad (PCBNEW 7.0.1) date 2023-03-21 03:45:51*
%MOMM*%
%LPD*%
G01*
G04 APERTURE LIST*
G04 #@! TA.AperFunction,ComponentPad*
%ADD10R,1.600000X1.600000*%
G04 #@! TD*
G04 #@! TA.AperFunction,ComponentPad*
%ADD11O,1.600000X1.600000*%
G04 #@! TD*
G04 #@! TA.AperFunction,ViaPad*
%ADD12C,0.800000*%
G04 #@! TD*
G04 #@! TA.AperFunction,Conductor*
%ADD13C,0.400000*%
G04 #@! TD*
G04 #@! TA.AperFunction,Conductor*
%ADD14C,0.800000*%
G04 #@! TD*
G04 APERTURE END LIST*
D10*
G04 #@! TO.P,J1,1,Pin_1*
G04 #@! TO.N,/PMOD_P1*
X5080000Y-34490000D03*
D11*
G04 #@! TO.P,J1,2,Pin_2*
G04 #@! TO.N,/PMOD_P2*
X7620000Y-34490000D03*
G04 #@! TO.P,J1,3,Pin_3*
G04 #@! TO.N,/PMOD_P3*
X10160000Y-34490000D03*
G04 #@! TO.P,J1,4,Pin_4*
G04 #@! TO.N,/PMOD_P4*
X12700000Y-34490000D03*
G04 #@! TO.P,J1,5,Pin_5*
G04 #@! TO.N,GND*
X15240000Y-34490000D03*
G04 #@! TO.P,J1,6,Pin_6*
G04 #@! TO.N,+3V3*
X17780000Y-34490000D03*
G04 #@! TO.P,J1,7,Pin_7*
G04 #@! TO.N,/PMOD_P7*
X5080000Y-37030000D03*
G04 #@! TO.P,J1,8,Pin_8*
G04 #@! TO.N,/PMOD_P8*
X7620000Y-37030000D03*
G04 #@! TO.P,J1,9,Pin_9*
G04 #@! TO.N,/PMOD_P9*
X10160000Y-37030000D03*
G04 #@! TO.P,J1,10,Pin_10*
G04 #@! TO.N,/PMOD_P10*
X12700000Y-37030000D03*
G04 #@! TO.P,J1,11,Pin_11*
G04 #@! TO.N,GND*
X15240000Y-37030000D03*
G04 #@! TO.P,J1,12,Pin_12*
G04 #@! TO.N,+3V3*
X17780000Y-37030000D03*
G04 #@! TD*
D10*
G04 #@! TO.P,J2,1,Pin_1*
G04 #@! TO.N,/PMOD_P1*
X5080000Y-29210000D03*
D11*
G04 #@! TO.P,J2,2,Pin_2*
G04 #@! TO.N,/PMOD_P2*
X7620000Y-29210000D03*
G04 #@! TO.P,J2,3,Pin_3*
G04 #@! TO.N,/PMOD_P3*
X10160000Y-29210000D03*
G04 #@! TO.P,J2,4,Pin_4*
G04 #@! TO.N,/PMOD_P4*
X12700000Y-29210000D03*
G04 #@! TO.P,J2,5,Pin_5*
G04 #@! TO.N,GND*
X15240000Y-29210000D03*
G04 #@! TO.P,J2,6,Pin_6*
G04 #@! TO.N,+3V3*
X17780000Y-29210000D03*
G04 #@! TO.P,J2,7,Pin_7*
G04 #@! TO.N,/PMOD_P7*
X5080000Y-26670000D03*
G04 #@! TO.P,J2,8,Pin_8*
G04 #@! TO.N,/PMOD_P8*
X7620000Y-26670000D03*
G04 #@! TO.P,J2,9,Pin_9*
G04 #@! TO.N,/PMOD_P9*
X10160000Y-26670000D03*
G04 #@! TO.P,J2,10,Pin_10*
G04 #@! TO.N,/PMOD_P10*
X12700000Y-26670000D03*
G04 #@! TO.P,J2,11,Pin_11*
G04 #@! TO.N,GND*
X15240000Y-26670000D03*
G04 #@! TO.P,J2,12,Pin_12*
G04 #@! TO.N,+3V3*
X17780000Y-26670000D03*
G04 #@! TD*
D10*
G04 #@! TO.P,J3,1,Pin_1*
G04 #@! TO.N,/PMOD_P1*
X5080000Y-21590000D03*
D11*
G04 #@! TO.P,J3,2,Pin_2*
G04 #@! TO.N,/PMOD_P2*
X7620000Y-21590000D03*
G04 #@! TO.P,J3,3,Pin_3*
G04 #@! TO.N,/PMOD_P3*
X10160000Y-21590000D03*
G04 #@! TO.P,J3,4,Pin_4*
G04 #@! TO.N,/PMOD_P4*
X12700000Y-21590000D03*
G04 #@! TO.P,J3,5,Pin_5*
G04 #@! TO.N,GND*
X15240000Y-21590000D03*
G04 #@! TO.P,J3,6,Pin_6*
G04 #@! TO.N,+3V3*
X17780000Y-21590000D03*
G04 #@! TO.P,J3,7,Pin_7*
G04 #@! TO.N,/PMOD_P7*
X5080000Y-19050000D03*
G04 #@! TO.P,J3,8,Pin_8*
G04 #@! TO.N,/PMOD_P8*
X7620000Y-19050000D03*
G04 #@! TO.P,J3,9,Pin_9*
G04 #@! TO.N,/PMOD_P9*
X10160000Y-19050000D03*
G04 #@! TO.P,J3,10,Pin_10*
G04 #@! TO.N,/PMOD_P10*
X12700000Y-19050000D03*
G04 #@! TO.P,J3,11,Pin_11*
G04 #@! TO.N,GND*
X15240000Y-19050000D03*
G04 #@! TO.P,J3,12,Pin_12*
G04 #@! TO.N,+3V3*
X17780000Y-19050000D03*
G04 #@! TD*
D12*
G04 #@! TO.N,GND*
X5100000Y-25000000D03*
X7700000Y-24900000D03*
X10300000Y-24900000D03*
X7700000Y-23400000D03*
X12800000Y-24900000D03*
X12800000Y-23400000D03*
X5100000Y-23000000D03*
X10300000Y-23400000D03*
G04 #@! TD*
D13*
G04 #@! TO.N,/PMOD_P1*
X5080000Y-34490000D02*
X5080000Y-29210000D01*
D14*
G04 #@! TO.N,+3V3*
X17780000Y-37030000D02*
X17780000Y-19050000D01*
D13*
G04 #@! TO.N,/PMOD_P2*
X7620000Y-34490000D02*
X7620000Y-29210000D01*
G04 #@! TO.N,/PMOD_P3*
X10160000Y-34490000D02*
X10160000Y-29210000D01*
G04 #@! TO.N,/PMOD_P4*
X12700000Y-34490000D02*
X12700000Y-29210000D01*
G04 #@! TO.N,/PMOD_P7*
X6230000Y-35880000D02*
X6230000Y-27820000D01*
X6230000Y-25520000D02*
X6230000Y-20200000D01*
X6230000Y-20200000D02*
X5080000Y-19050000D01*
X5080000Y-37030000D02*
X6230000Y-35880000D01*
X5080000Y-26670000D02*
X6230000Y-25520000D01*
X6230000Y-27820000D02*
X5080000Y-26670000D01*
G04 #@! TO.N,/PMOD_P8*
X8770000Y-25520000D02*
X8770000Y-20200000D01*
X8770000Y-20200000D02*
X7620000Y-19050000D01*
X7620000Y-37030000D02*
X8770000Y-35880000D01*
X7620000Y-26670000D02*
X8770000Y-25520000D01*
X8770000Y-27820000D02*
X7620000Y-26670000D01*
X8770000Y-35880000D02*
X8770000Y-27820000D01*
G04 #@! TO.N,/PMOD_P9*
X10160000Y-26670000D02*
X11310000Y-25520000D01*
X11310000Y-25520000D02*
X11310000Y-20200000D01*
X11310000Y-27820000D02*
X10160000Y-26670000D01*
X11310000Y-20200000D02*
X10160000Y-19050000D01*
X10160000Y-37030000D02*
X11310000Y-35880000D01*
X11310000Y-35880000D02*
X11310000Y-27820000D01*
G04 #@! TO.N,/PMOD_P10*
X13850000Y-25520000D02*
X13850000Y-20200000D01*
X12700000Y-37030000D02*
X13850000Y-35880000D01*
X13850000Y-27820000D02*
X12700000Y-26670000D01*
X12700000Y-26670000D02*
X13850000Y-25520000D01*
X13850000Y-35880000D02*
X13850000Y-27820000D01*
X13850000Y-20200000D02*
X12700000Y-19050000D01*
G04 #@! TD*
G04 #@! TA.AperFunction,Conductor*
G04 #@! TO.N,GND*
G36*
X11886028Y-22175270D02*
G01*
X11890788Y-22181070D01*
X11989117Y-22300883D01*
X12104977Y-22395967D01*
X12141463Y-22425911D01*
X12315272Y-22518814D01*
X12409570Y-22547418D01*
X12503868Y-22576024D01*
X12700000Y-22595341D01*
X12896132Y-22576024D01*
X13084727Y-22518814D01*
X13085595Y-22518350D01*
X13258537Y-22425911D01*
X13287695Y-22401982D01*
X13338381Y-22380255D01*
X13392828Y-22389015D01*
X13434141Y-22425545D01*
X13449500Y-22478510D01*
X13449500Y-25313100D01*
X13441964Y-25350986D01*
X13420503Y-25383104D01*
X13109570Y-25694035D01*
X13063622Y-25720064D01*
X13010829Y-25718768D01*
X12896130Y-25683975D01*
X12700000Y-25664658D01*
X12503869Y-25683975D01*
X12315272Y-25741185D01*
X12141463Y-25834088D01*
X11989117Y-25959117D01*
X11864088Y-26111463D01*
X11771185Y-26285272D01*
X11713975Y-26473869D01*
X11694658Y-26670000D01*
X11713975Y-26866130D01*
X11771185Y-27054727D01*
X11864088Y-27228536D01*
X11864090Y-27228538D01*
X11989117Y-27380883D01*
X12104977Y-27475967D01*
X12141463Y-27505911D01*
X12315272Y-27598814D01*
X12332385Y-27604005D01*
X12503868Y-27656024D01*
X12700000Y-27675341D01*
X12896128Y-27656025D01*
X12896130Y-27656024D01*
X12896132Y-27656024D01*
X13010830Y-27621229D01*
X13063620Y-27619934D01*
X13109570Y-27645963D01*
X13420504Y-27956897D01*
X13441964Y-27989015D01*
X13449500Y-28026901D01*
X13449500Y-28321490D01*
X13434141Y-28374455D01*
X13392828Y-28410985D01*
X13338381Y-28419745D01*
X13287695Y-28398018D01*
X13258537Y-28374088D01*
X13084727Y-28281185D01*
X12896130Y-28223975D01*
X12700000Y-28204658D01*
X12503869Y-28223975D01*
X12315272Y-28281185D01*
X12141463Y-28374088D01*
X11989117Y-28499117D01*
X11886028Y-28624730D01*
X11835904Y-28657339D01*
X11776148Y-28655138D01*
X11728559Y-28618930D01*
X11710500Y-28561925D01*
X11710500Y-27756569D01*
X11710500Y-27756567D01*
X11703041Y-27733611D01*
X11699421Y-27718534D01*
X11695646Y-27694696D01*
X11684693Y-27673201D01*
X11678752Y-27658861D01*
X11671296Y-27635911D01*
X11671295Y-27635909D01*
X11657112Y-27616387D01*
X11649001Y-27603151D01*
X11638050Y-27581658D01*
X11615486Y-27559094D01*
X11615485Y-27559093D01*
X11615486Y-27559093D01*
X11135963Y-27079569D01*
X11109934Y-27033620D01*
X11111229Y-26980830D01*
X11146024Y-26866132D01*
X11146024Y-26866130D01*
X11146025Y-26866128D01*
X11165341Y-26670000D01*
X11146025Y-26473870D01*
X11130798Y-26423675D01*
X11111229Y-26359169D01*
X11109934Y-26306377D01*
X11135964Y-26260428D01*
X11626845Y-25769549D01*
X11626849Y-25769542D01*
X11638050Y-25758342D01*
X11649002Y-25736845D01*
X11657111Y-25723611D01*
X11671296Y-25704089D01*
X11678751Y-25681142D01*
X11684695Y-25666795D01*
X11695646Y-25645304D01*
X11699421Y-25621467D01*
X11703041Y-25606385D01*
X11710500Y-25583433D01*
X11710500Y-25456567D01*
X11710500Y-22238075D01*
X11728559Y-22181070D01*
X11776148Y-22144862D01*
X11835904Y-22142661D01*
X11886028Y-22175270D01*
G37*
G04 #@! TD.AperFunction*
G04 #@! TA.AperFunction,Conductor*
G36*
X9346028Y-22175270D02*
G01*
X9350788Y-22181070D01*
X9449117Y-22300883D01*
X9564977Y-22395967D01*
X9601463Y-22425911D01*
X9775272Y-22518814D01*
X9869570Y-22547418D01*
X9963868Y-22576024D01*
X10160000Y-22595341D01*
X10356132Y-22576024D01*
X10544727Y-22518814D01*
X10545595Y-22518350D01*
X10718537Y-22425911D01*
X10747695Y-22401982D01*
X10798381Y-22380255D01*
X10852828Y-22389015D01*
X10894141Y-22425545D01*
X10909500Y-22478510D01*
X10909500Y-25313100D01*
X10901964Y-25350986D01*
X10880503Y-25383104D01*
X10569570Y-25694035D01*
X10523622Y-25720064D01*
X10470829Y-25718768D01*
X10356130Y-25683975D01*
X10160000Y-25664658D01*
X9963869Y-25683975D01*
X9775272Y-25741185D01*
X9601463Y-25834088D01*
X9449117Y-25959117D01*
X9324088Y-26111463D01*
X9231185Y-26285272D01*
X9173975Y-26473869D01*
X9154658Y-26670000D01*
X9173975Y-26866130D01*
X9231185Y-27054727D01*
X9324088Y-27228536D01*
X9324090Y-27228538D01*
X9449117Y-27380883D01*
X9564977Y-27475967D01*
X9601463Y-27505911D01*
X9775272Y-27598814D01*
X9792385Y-27604005D01*
X9963868Y-27656024D01*
X10160000Y-27675341D01*
X10356128Y-27656025D01*
X10356130Y-27656024D01*
X10356132Y-27656024D01*
X10470830Y-27621229D01*
X10523620Y-27619934D01*
X10569570Y-27645963D01*
X10880504Y-27956897D01*
X10901964Y-27989015D01*
X10909500Y-28026901D01*
X10909500Y-28321490D01*
X10894141Y-28374455D01*
X10852828Y-28410985D01*
X10798381Y-28419745D01*
X10747695Y-28398018D01*
X10718537Y-28374088D01*
X10544727Y-28281185D01*
X10356130Y-28223975D01*
X10160000Y-28204658D01*
X9963869Y-28223975D01*
X9775272Y-28281185D01*
X9601463Y-28374088D01*
X9449117Y-28499117D01*
X9346028Y-28624730D01*
X9295904Y-28657339D01*
X9236148Y-28655138D01*
X9188559Y-28618930D01*
X9170500Y-28561925D01*
X9170500Y-27756569D01*
X9170500Y-27756567D01*
X9163041Y-27733611D01*
X9159421Y-27718534D01*
X9155646Y-27694696D01*
X9144693Y-27673201D01*
X9138752Y-27658861D01*
X9131296Y-27635911D01*
X9131295Y-27635909D01*
X9117112Y-27616387D01*
X9109001Y-27603151D01*
X9098050Y-27581658D01*
X9075486Y-27559094D01*
X9075485Y-27559093D01*
X9075486Y-27559093D01*
X8595963Y-27079569D01*
X8569934Y-27033620D01*
X8571229Y-26980830D01*
X8606024Y-26866132D01*
X8606024Y-26866130D01*
X8606025Y-26866128D01*
X8625341Y-26670000D01*
X8606025Y-26473870D01*
X8590798Y-26423675D01*
X8571229Y-26359169D01*
X8569934Y-26306377D01*
X8595964Y-26260428D01*
X9086845Y-25769549D01*
X9086849Y-25769542D01*
X9098050Y-25758342D01*
X9109002Y-25736845D01*
X9117111Y-25723611D01*
X9131296Y-25704089D01*
X9138751Y-25681142D01*
X9144695Y-25666795D01*
X9155646Y-25645304D01*
X9159421Y-25621467D01*
X9163041Y-25606385D01*
X9170500Y-25583433D01*
X9170500Y-25456567D01*
X9170500Y-22238075D01*
X9188559Y-22181070D01*
X9236148Y-22144862D01*
X9295904Y-22142661D01*
X9346028Y-22175270D01*
G37*
G04 #@! TD.AperFunction*
G04 #@! TA.AperFunction,Conductor*
G36*
X6806028Y-22175270D02*
G01*
X6810788Y-22181070D01*
X6909117Y-22300883D01*
X7024977Y-22395967D01*
X7061463Y-22425911D01*
X7235272Y-22518814D01*
X7329570Y-22547418D01*
X7423868Y-22576024D01*
X7620000Y-22595341D01*
X7816132Y-22576024D01*
X8004727Y-22518814D01*
X8005595Y-22518350D01*
X8178537Y-22425911D01*
X8207695Y-22401982D01*
X8258381Y-22380255D01*
X8312828Y-22389015D01*
X8354141Y-22425545D01*
X8369500Y-22478510D01*
X8369500Y-25313100D01*
X8361964Y-25350986D01*
X8340503Y-25383104D01*
X8029570Y-25694035D01*
X7983622Y-25720064D01*
X7930829Y-25718768D01*
X7816130Y-25683975D01*
X7620000Y-25664658D01*
X7423869Y-25683975D01*
X7235272Y-25741185D01*
X7061463Y-25834088D01*
X6909117Y-25959117D01*
X6784088Y-26111463D01*
X6691185Y-26285272D01*
X6633975Y-26473869D01*
X6614658Y-26670000D01*
X6633975Y-26866130D01*
X6691185Y-27054727D01*
X6784088Y-27228536D01*
X6784090Y-27228538D01*
X6909117Y-27380883D01*
X7024977Y-27475967D01*
X7061463Y-27505911D01*
X7235272Y-27598814D01*
X7252385Y-27604005D01*
X7423868Y-27656024D01*
X7620000Y-27675341D01*
X7816128Y-27656025D01*
X7816130Y-27656024D01*
X7816132Y-27656024D01*
X7930830Y-27621229D01*
X7983620Y-27619934D01*
X8029570Y-27645963D01*
X8340504Y-27956897D01*
X8361964Y-27989015D01*
X8369500Y-28026901D01*
X8369500Y-28321490D01*
X8354141Y-28374455D01*
X8312828Y-28410985D01*
X8258381Y-28419745D01*
X8207695Y-28398018D01*
X8178537Y-28374088D01*
X8004727Y-28281185D01*
X7816130Y-28223975D01*
X7620000Y-28204658D01*
X7423869Y-28223975D01*
X7235272Y-28281185D01*
X7061463Y-28374088D01*
X6909117Y-28499117D01*
X6806028Y-28624730D01*
X6755904Y-28657339D01*
X6696148Y-28655138D01*
X6648559Y-28618930D01*
X6630500Y-28561925D01*
X6630500Y-27756569D01*
X6630500Y-27756567D01*
X6623041Y-27733611D01*
X6619421Y-27718534D01*
X6615646Y-27694696D01*
X6604693Y-27673201D01*
X6598752Y-27658861D01*
X6591296Y-27635911D01*
X6591295Y-27635909D01*
X6577112Y-27616387D01*
X6569001Y-27603151D01*
X6558050Y-27581658D01*
X6535486Y-27559094D01*
X6535485Y-27559093D01*
X6535486Y-27559093D01*
X6055963Y-27079569D01*
X6029934Y-27033620D01*
X6031229Y-26980830D01*
X6066024Y-26866132D01*
X6066024Y-26866130D01*
X6066025Y-26866128D01*
X6085341Y-26670000D01*
X6066025Y-26473870D01*
X6050798Y-26423675D01*
X6031229Y-26359169D01*
X6029934Y-26306377D01*
X6055964Y-26260428D01*
X6546845Y-25769549D01*
X6546849Y-25769542D01*
X6558050Y-25758342D01*
X6569002Y-25736845D01*
X6577111Y-25723611D01*
X6591296Y-25704089D01*
X6598751Y-25681142D01*
X6604695Y-25666795D01*
X6615646Y-25645304D01*
X6619421Y-25621467D01*
X6623041Y-25606385D01*
X6630500Y-25583433D01*
X6630500Y-25456567D01*
X6630500Y-22238075D01*
X6648559Y-22181070D01*
X6696148Y-22144862D01*
X6755904Y-22142661D01*
X6806028Y-22175270D01*
G37*
G04 #@! TD.AperFunction*
G04 #@! TA.AperFunction,Conductor*
G36*
X19015605Y-8973036D02*
G01*
X19047723Y-8994496D01*
X20215504Y-10162277D01*
X20236964Y-10194395D01*
X20244500Y-10232281D01*
X20244500Y-39657719D01*
X20236964Y-39695605D01*
X20215504Y-39727723D01*
X19047722Y-40895504D01*
X19015604Y-40916964D01*
X18977718Y-40924500D01*
X3882281Y-40924500D01*
X3844395Y-40916964D01*
X3812277Y-40895504D01*
X2644496Y-39727722D01*
X2623036Y-39695604D01*
X2615500Y-39657718D01*
X2615500Y-37029999D01*
X4074658Y-37029999D01*
X4093975Y-37226130D01*
X4151185Y-37414727D01*
X4244088Y-37588536D01*
X4244090Y-37588538D01*
X4369117Y-37740883D01*
X4498298Y-37846900D01*
X4521463Y-37865911D01*
X4695272Y-37958814D01*
X4789570Y-37987419D01*
X4883868Y-38016024D01*
X5080000Y-38035341D01*
X5276132Y-38016024D01*
X5464727Y-37958814D01*
X5638538Y-37865910D01*
X5790883Y-37740883D01*
X5915910Y-37588538D01*
X6008814Y-37414727D01*
X6066024Y-37226132D01*
X6085341Y-37030000D01*
X6066034Y-36833965D01*
X6066025Y-36833870D01*
X6050798Y-36783675D01*
X6031229Y-36719169D01*
X6029934Y-36666377D01*
X6055964Y-36620428D01*
X6546845Y-36129549D01*
X6546849Y-36129542D01*
X6558050Y-36118342D01*
X6569002Y-36096845D01*
X6577111Y-36083611D01*
X6591296Y-36064089D01*
X6598751Y-36041142D01*
X6604695Y-36026795D01*
X6615646Y-36005304D01*
X6619421Y-35981467D01*
X6623041Y-35966385D01*
X6630500Y-35943433D01*
X6630500Y-35816567D01*
X6630500Y-35138075D01*
X6648559Y-35081070D01*
X6696148Y-35044862D01*
X6755904Y-35042661D01*
X6806028Y-35075270D01*
X6810788Y-35081070D01*
X6909117Y-35200883D01*
X7024977Y-35295967D01*
X7061463Y-35325911D01*
X7235272Y-35418814D01*
X7329570Y-35447419D01*
X7423868Y-35476024D01*
X7620000Y-35495341D01*
X7816132Y-35476024D01*
X8004727Y-35418814D01*
X8005595Y-35418350D01*
X8178537Y-35325911D01*
X8207695Y-35301982D01*
X8258381Y-35280255D01*
X8312828Y-35289015D01*
X8354141Y-35325545D01*
X8369500Y-35378510D01*
X8369500Y-35673100D01*
X8361964Y-35710986D01*
X8340503Y-35743104D01*
X8029570Y-36054035D01*
X7983622Y-36080064D01*
X7930829Y-36078768D01*
X7816130Y-36043975D01*
X7620000Y-36024658D01*
X7423869Y-36043975D01*
X7235272Y-36101185D01*
X7061463Y-36194088D01*
X6909117Y-36319117D01*
X6784088Y-36471463D01*
X6691185Y-36645272D01*
X6633975Y-36833869D01*
X6614658Y-37029999D01*
X6633975Y-37226130D01*
X6691185Y-37414727D01*
X6784088Y-37588536D01*
X6784090Y-37588538D01*
X6909117Y-37740883D01*
X7038298Y-37846900D01*
X7061463Y-37865911D01*
X7235272Y-37958814D01*
X7329570Y-37987419D01*
X7423868Y-38016024D01*
X7620000Y-38035341D01*
X7816132Y-38016024D01*
X8004727Y-37958814D01*
X8178538Y-37865910D01*
X8330883Y-37740883D01*
X8455910Y-37588538D01*
X8548814Y-37414727D01*
X8606024Y-37226132D01*
X8625341Y-37030000D01*
X8606034Y-36833965D01*
X8606025Y-36833870D01*
X8590798Y-36783675D01*
X8571229Y-36719169D01*
X8569934Y-36666377D01*
X8595964Y-36620428D01*
X9086845Y-36129549D01*
X9086849Y-36129542D01*
X9098050Y-36118342D01*
X9109002Y-36096845D01*
X9117111Y-36083611D01*
X9131296Y-36064089D01*
X9138751Y-36041142D01*
X9144695Y-36026795D01*
X9155646Y-36005304D01*
X9159421Y-35981467D01*
X9163041Y-35966385D01*
X9170500Y-35943433D01*
X9170500Y-35816567D01*
X9170500Y-35138075D01*
X9188559Y-35081070D01*
X9236148Y-35044862D01*
X9295904Y-35042661D01*
X9346028Y-35075270D01*
X9350788Y-35081070D01*
X9449117Y-35200883D01*
X9564977Y-35295967D01*
X9601463Y-35325911D01*
X9775272Y-35418814D01*
X9869570Y-35447419D01*
X9963868Y-35476024D01*
X10160000Y-35495341D01*
X10356132Y-35476024D01*
X10544727Y-35418814D01*
X10545595Y-35418350D01*
X10718537Y-35325911D01*
X10747695Y-35301982D01*
X10798381Y-35280255D01*
X10852828Y-35289015D01*
X10894141Y-35325545D01*
X10909500Y-35378510D01*
X10909500Y-35673100D01*
X10901964Y-35710986D01*
X10880503Y-35743104D01*
X10569570Y-36054035D01*
X10523622Y-36080064D01*
X10470829Y-36078768D01*
X10356130Y-36043975D01*
X10160000Y-36024658D01*
X9963869Y-36043975D01*
X9775272Y-36101185D01*
X9601463Y-36194088D01*
X9449117Y-36319117D01*
X9324088Y-36471463D01*
X9231185Y-36645272D01*
X9173975Y-36833869D01*
X9154658Y-37029999D01*
X9173975Y-37226130D01*
X9231185Y-37414727D01*
X9324088Y-37588536D01*
X9324090Y-37588538D01*
X9449117Y-37740883D01*
X9578298Y-37846900D01*
X9601463Y-37865911D01*
X9775272Y-37958814D01*
X9869570Y-37987419D01*
X9963868Y-38016024D01*
X10160000Y-38035341D01*
X10356132Y-38016024D01*
X10544727Y-37958814D01*
X10718538Y-37865910D01*
X10870883Y-37740883D01*
X10995910Y-37588538D01*
X11088814Y-37414727D01*
X11146024Y-37226132D01*
X11165341Y-37030000D01*
X11146034Y-36833965D01*
X11146025Y-36833870D01*
X11130798Y-36783675D01*
X11111229Y-36719169D01*
X11109934Y-36666377D01*
X11135964Y-36620428D01*
X11626845Y-36129549D01*
X11626849Y-36129542D01*
X11638050Y-36118342D01*
X11649002Y-36096845D01*
X11657111Y-36083611D01*
X11671296Y-36064089D01*
X11678751Y-36041142D01*
X11684695Y-36026795D01*
X11695646Y-36005304D01*
X11699421Y-35981467D01*
X11703041Y-35966385D01*
X11710500Y-35943433D01*
X11710500Y-35816567D01*
X11710500Y-35138075D01*
X11728559Y-35081070D01*
X11776148Y-35044862D01*
X11835904Y-35042661D01*
X11886028Y-35075270D01*
X11890788Y-35081070D01*
X11989117Y-35200883D01*
X12104977Y-35295967D01*
X12141463Y-35325911D01*
X12315272Y-35418814D01*
X12409570Y-35447419D01*
X12503868Y-35476024D01*
X12700000Y-35495341D01*
X12896132Y-35476024D01*
X13084727Y-35418814D01*
X13085595Y-35418350D01*
X13258537Y-35325911D01*
X13287695Y-35301982D01*
X13338381Y-35280255D01*
X13392828Y-35289015D01*
X13434141Y-35325545D01*
X13449500Y-35378510D01*
X13449500Y-35673100D01*
X13441964Y-35710986D01*
X13420503Y-35743104D01*
X13109570Y-36054035D01*
X13063622Y-36080064D01*
X13010829Y-36078768D01*
X12896130Y-36043975D01*
X12700000Y-36024658D01*
X12503869Y-36043975D01*
X12315272Y-36101185D01*
X12141463Y-36194088D01*
X11989117Y-36319117D01*
X11864088Y-36471463D01*
X11771185Y-36645272D01*
X11713975Y-36833869D01*
X11694658Y-37029999D01*
X11713975Y-37226130D01*
X11771185Y-37414727D01*
X11864088Y-37588536D01*
X11864090Y-37588538D01*
X11989117Y-37740883D01*
X12118298Y-37846900D01*
X12141463Y-37865911D01*
X12315272Y-37958814D01*
X12409570Y-37987419D01*
X12503868Y-38016024D01*
X12700000Y-38035341D01*
X12896132Y-38016024D01*
X13084727Y-37958814D01*
X13258538Y-37865910D01*
X13410883Y-37740883D01*
X13535910Y-37588538D01*
X13628814Y-37414727D01*
X13686024Y-37226132D01*
X13695492Y-37130000D01*
X14245010Y-37130000D01*
X14254469Y-37226034D01*
X14311649Y-37414536D01*
X14404504Y-37588254D01*
X14529472Y-37740527D01*
X14681745Y-37865495D01*
X14855463Y-37958350D01*
X15043965Y-38015530D01*
X15140000Y-38024990D01*
X15340000Y-38024990D01*
X15436034Y-38015530D01*
X15624536Y-37958350D01*
X15798254Y-37865495D01*
X15950527Y-37740527D01*
X16075495Y-37588254D01*
X16168350Y-37414536D01*
X16225530Y-37226034D01*
X16234990Y-37130000D01*
X15340001Y-37130000D01*
X15340000Y-37130001D01*
X15340000Y-38024990D01*
X15140000Y-38024990D01*
X15140000Y-37130001D01*
X15139999Y-37130000D01*
X14245010Y-37130000D01*
X13695492Y-37130000D01*
X13705341Y-37030000D01*
X16774658Y-37030000D01*
X16793975Y-37226130D01*
X16851185Y-37414727D01*
X16944088Y-37588536D01*
X16944090Y-37588538D01*
X17069117Y-37740883D01*
X17198298Y-37846900D01*
X17221463Y-37865911D01*
X17395272Y-37958814D01*
X17489570Y-37987419D01*
X17583868Y-38016024D01*
X17780000Y-38035341D01*
X17976132Y-38016024D01*
X18164727Y-37958814D01*
X18338538Y-37865910D01*
X18490883Y-37740883D01*
X18615910Y-37588538D01*
X18708814Y-37414727D01*
X18766024Y-37226132D01*
X18785341Y-37030000D01*
X18766024Y-36833868D01*
X18708814Y-36645273D01*
X18708814Y-36645272D01*
X18615911Y-36471463D01*
X18596900Y-36448298D01*
X18490883Y-36319117D01*
X18416693Y-36258231D01*
X18390005Y-36224033D01*
X18380500Y-36181705D01*
X18380500Y-35338295D01*
X18390005Y-35295967D01*
X18416693Y-35261768D01*
X18490883Y-35200883D01*
X18615910Y-35048538D01*
X18708814Y-34874727D01*
X18766024Y-34686132D01*
X18785341Y-34490000D01*
X18766024Y-34293868D01*
X18708814Y-34105273D01*
X18708814Y-34105272D01*
X18615911Y-33931463D01*
X18589857Y-33899717D01*
X18490883Y-33779117D01*
X18416693Y-33718231D01*
X18390005Y-33684033D01*
X18380500Y-33641705D01*
X18380500Y-30058295D01*
X18390005Y-30015967D01*
X18416693Y-29981768D01*
X18490883Y-29920883D01*
X18615910Y-29768538D01*
X18708814Y-29594727D01*
X18766024Y-29406132D01*
X18785341Y-29210000D01*
X18766024Y-29013868D01*
X18708814Y-28825273D01*
X18708814Y-28825272D01*
X18615911Y-28651463D01*
X18589857Y-28619717D01*
X18490883Y-28499117D01*
X18416693Y-28438231D01*
X18390005Y-28404033D01*
X18380500Y-28361705D01*
X18380500Y-27518295D01*
X18390005Y-27475967D01*
X18416693Y-27441768D01*
X18490883Y-27380883D01*
X18615910Y-27228538D01*
X18708814Y-27054727D01*
X18766024Y-26866132D01*
X18785341Y-26670000D01*
X18766024Y-26473868D01*
X18708814Y-26285273D01*
X18708814Y-26285272D01*
X18615911Y-26111463D01*
X18596900Y-26088298D01*
X18490883Y-25959117D01*
X18416693Y-25898231D01*
X18390005Y-25864033D01*
X18380500Y-25821705D01*
X18380500Y-22438295D01*
X18390005Y-22395967D01*
X18416693Y-22361768D01*
X18490883Y-22300883D01*
X18615910Y-22148538D01*
X18708814Y-21974727D01*
X18766024Y-21786132D01*
X18785341Y-21590000D01*
X18766024Y-21393868D01*
X18708814Y-21205273D01*
X18708814Y-21205272D01*
X18615911Y-21031463D01*
X18589857Y-20999717D01*
X18490883Y-20879117D01*
X18416693Y-20818231D01*
X18390005Y-20784033D01*
X18380500Y-20741705D01*
X18380500Y-19898295D01*
X18390005Y-19855967D01*
X18416693Y-19821768D01*
X18490883Y-19760883D01*
X18615910Y-19608538D01*
X18708814Y-19434727D01*
X18766024Y-19246132D01*
X18785341Y-19050000D01*
X18766024Y-18853868D01*
X18708814Y-18665273D01*
X18708814Y-18665272D01*
X18615911Y-18491463D01*
X18596900Y-18468298D01*
X18490883Y-18339117D01*
X18384864Y-18252109D01*
X18338536Y-18214088D01*
X18164727Y-18121185D01*
X17976130Y-18063975D01*
X17780000Y-18044658D01*
X17583869Y-18063975D01*
X17395272Y-18121185D01*
X17221463Y-18214088D01*
X17069117Y-18339117D01*
X16944088Y-18491463D01*
X16851185Y-18665272D01*
X16793975Y-18853869D01*
X16774658Y-19050000D01*
X16793975Y-19246130D01*
X16851185Y-19434727D01*
X16944088Y-19608536D01*
X16944090Y-19608538D01*
X17069117Y-19760883D01*
X17143306Y-19821768D01*
X17169995Y-19855967D01*
X17179500Y-19898295D01*
X17179500Y-20741705D01*
X17169995Y-20784033D01*
X17143306Y-20818231D01*
X17069116Y-20879117D01*
X17069117Y-20879117D01*
X16944088Y-21031463D01*
X16851185Y-21205272D01*
X16793975Y-21393869D01*
X16774658Y-21590000D01*
X16793975Y-21786130D01*
X16851185Y-21974727D01*
X16944088Y-22148536D01*
X16970788Y-22181070D01*
X17069117Y-22300883D01*
X17143306Y-22361768D01*
X17169995Y-22395967D01*
X17179500Y-22438295D01*
X17179500Y-25821705D01*
X17169995Y-25864033D01*
X17143306Y-25898231D01*
X17069116Y-25959117D01*
X17069117Y-25959117D01*
X16944088Y-26111463D01*
X16851185Y-26285272D01*
X16793975Y-26473869D01*
X16774658Y-26670000D01*
X16793975Y-26866130D01*
X16851185Y-27054727D01*
X16944088Y-27228536D01*
X16944090Y-27228538D01*
X17069117Y-27380883D01*
X17143306Y-27441768D01*
X17169995Y-27475967D01*
X17179500Y-27518295D01*
X17179500Y-28361705D01*
X17169995Y-28404033D01*
X17143306Y-28438231D01*
X17069117Y-28499116D01*
X17069117Y-28499117D01*
X16944088Y-28651463D01*
X16851185Y-28825272D01*
X16793975Y-29013869D01*
X16774658Y-29209999D01*
X16793975Y-29406130D01*
X16851185Y-29594727D01*
X16944088Y-29768536D01*
X16970788Y-29801070D01*
X17069117Y-29920883D01*
X17143306Y-29981768D01*
X17169995Y-30015967D01*
X17179500Y-30058295D01*
X17179500Y-33641705D01*
X17169995Y-33684033D01*
X17143306Y-33718231D01*
X17069117Y-33779116D01*
X17069117Y-33779117D01*
X16944088Y-33931463D01*
X16851185Y-34105272D01*
X16793975Y-34293869D01*
X16774658Y-34489999D01*
X16793975Y-34686130D01*
X16851185Y-34874727D01*
X16944088Y-35048536D01*
X16970788Y-35081070D01*
X17069117Y-35200883D01*
X17143306Y-35261768D01*
X17169995Y-35295967D01*
X17179500Y-35338295D01*
X17179500Y-36181705D01*
X17169995Y-36224033D01*
X17143306Y-36258231D01*
X17069117Y-36319116D01*
X17069117Y-36319117D01*
X16944088Y-36471463D01*
X16851185Y-36645272D01*
X16793975Y-36833869D01*
X16774658Y-37030000D01*
X13705341Y-37030000D01*
X13695492Y-36930000D01*
X14245009Y-36930000D01*
X15139999Y-36930000D01*
X15140000Y-36929999D01*
X15140000Y-36035009D01*
X15339999Y-36035009D01*
X15340000Y-36035010D01*
X15340000Y-36929999D01*
X15340001Y-36930000D01*
X16234990Y-36930000D01*
X16225530Y-36833965D01*
X16168350Y-36645463D01*
X16075495Y-36471745D01*
X15950527Y-36319472D01*
X15798254Y-36194504D01*
X15624536Y-36101649D01*
X15436034Y-36044469D01*
X15339999Y-36035009D01*
X15140000Y-36035009D01*
X15043965Y-36044469D01*
X14855463Y-36101649D01*
X14681745Y-36194504D01*
X14529472Y-36319472D01*
X14404504Y-36471745D01*
X14311649Y-36645463D01*
X14254469Y-36833965D01*
X14245009Y-36930000D01*
X13695492Y-36930000D01*
X13686034Y-36833965D01*
X13686025Y-36833870D01*
X13670798Y-36783675D01*
X13651229Y-36719169D01*
X13649934Y-36666377D01*
X13675964Y-36620428D01*
X14166845Y-36129549D01*
X14166849Y-36129542D01*
X14178050Y-36118342D01*
X14189002Y-36096845D01*
X14197111Y-36083611D01*
X14211296Y-36064089D01*
X14218751Y-36041142D01*
X14224695Y-36026795D01*
X14235646Y-36005304D01*
X14239421Y-35981467D01*
X14243041Y-35966385D01*
X14250500Y-35943433D01*
X14250500Y-35816567D01*
X14250500Y-35137288D01*
X14268559Y-35080283D01*
X14316147Y-35044075D01*
X14375904Y-35041874D01*
X14426027Y-35074482D01*
X14529469Y-35200524D01*
X14681745Y-35325495D01*
X14855463Y-35418350D01*
X15043965Y-35475530D01*
X15140000Y-35484990D01*
X15340000Y-35484990D01*
X15436034Y-35475530D01*
X15624536Y-35418350D01*
X15798254Y-35325495D01*
X15950527Y-35200527D01*
X16075495Y-35048254D01*
X16168350Y-34874536D01*
X16225530Y-34686034D01*
X16234990Y-34590000D01*
X15340001Y-34590000D01*
X15340000Y-34590001D01*
X15340000Y-35484990D01*
X15140000Y-35484990D01*
X15140000Y-33495009D01*
X15339999Y-33495009D01*
X15340000Y-33495010D01*
X15340000Y-34389999D01*
X15340001Y-34390000D01*
X16234990Y-34390000D01*
X16225530Y-34293965D01*
X16168350Y-34105463D01*
X16075495Y-33931745D01*
X15950527Y-33779472D01*
X15798254Y-33654504D01*
X15624536Y-33561649D01*
X15436034Y-33504469D01*
X15339999Y-33495009D01*
X15140000Y-33495009D01*
X15043965Y-33504469D01*
X14855463Y-33561649D01*
X14681745Y-33654504D01*
X14529469Y-33779475D01*
X14426027Y-33905518D01*
X14375904Y-33938126D01*
X14316147Y-33935925D01*
X14268559Y-33899717D01*
X14250500Y-33842712D01*
X14250500Y-29857288D01*
X14268559Y-29800283D01*
X14316147Y-29764075D01*
X14375904Y-29761874D01*
X14426027Y-29794482D01*
X14529469Y-29920524D01*
X14681745Y-30045495D01*
X14855463Y-30138350D01*
X15043965Y-30195530D01*
X15140000Y-30204990D01*
X15340000Y-30204990D01*
X15436034Y-30195530D01*
X15624536Y-30138350D01*
X15798254Y-30045495D01*
X15950527Y-29920527D01*
X16075495Y-29768254D01*
X16168350Y-29594536D01*
X16225530Y-29406034D01*
X16234990Y-29310000D01*
X15340001Y-29310000D01*
X15340000Y-29310001D01*
X15340000Y-30204990D01*
X15140000Y-30204990D01*
X15140000Y-28215009D01*
X15339999Y-28215009D01*
X15340000Y-28215010D01*
X15340000Y-29109999D01*
X15340001Y-29110000D01*
X16234990Y-29110000D01*
X16225530Y-29013965D01*
X16168350Y-28825463D01*
X16075495Y-28651745D01*
X15950527Y-28499472D01*
X15798254Y-28374504D01*
X15624536Y-28281649D01*
X15436034Y-28224469D01*
X15339999Y-28215009D01*
X15140000Y-28215009D01*
X15043965Y-28224469D01*
X14855463Y-28281649D01*
X14681745Y-28374504D01*
X14529469Y-28499475D01*
X14426027Y-28625518D01*
X14375904Y-28658126D01*
X14316147Y-28655925D01*
X14268559Y-28619717D01*
X14250500Y-28562712D01*
X14250500Y-27756569D01*
X14250500Y-27756567D01*
X14243041Y-27733611D01*
X14239421Y-27718534D01*
X14235646Y-27694696D01*
X14224693Y-27673201D01*
X14218752Y-27658861D01*
X14211296Y-27635911D01*
X14211295Y-27635909D01*
X14197112Y-27616387D01*
X14189001Y-27603151D01*
X14178050Y-27581658D01*
X14155486Y-27559094D01*
X14155485Y-27559093D01*
X14155486Y-27559093D01*
X13675963Y-27079569D01*
X13649934Y-27033620D01*
X13651229Y-26980830D01*
X13686024Y-26866132D01*
X13686024Y-26866130D01*
X13686025Y-26866128D01*
X13695492Y-26770000D01*
X14245010Y-26770000D01*
X14254469Y-26866034D01*
X14311649Y-27054536D01*
X14404504Y-27228254D01*
X14529472Y-27380527D01*
X14681745Y-27505495D01*
X14855463Y-27598350D01*
X15043965Y-27655530D01*
X15140000Y-27664990D01*
X15340000Y-27664990D01*
X15436034Y-27655530D01*
X15624536Y-27598350D01*
X15798254Y-27505495D01*
X15950527Y-27380527D01*
X16075495Y-27228254D01*
X16168350Y-27054536D01*
X16225530Y-26866034D01*
X16234990Y-26770000D01*
X15340001Y-26770000D01*
X15340000Y-26770001D01*
X15340000Y-27664990D01*
X15140000Y-27664990D01*
X15140000Y-26770001D01*
X15139999Y-26770000D01*
X14245010Y-26770000D01*
X13695492Y-26770000D01*
X13705341Y-26670000D01*
X13695492Y-26570000D01*
X14245009Y-26570000D01*
X15139999Y-26570000D01*
X15140000Y-26569999D01*
X15140000Y-25675009D01*
X15339999Y-25675009D01*
X15340000Y-25675010D01*
X15340000Y-26569999D01*
X15340001Y-26570000D01*
X16234990Y-26570000D01*
X16225530Y-26473965D01*
X16168350Y-26285463D01*
X16075495Y-26111745D01*
X15950527Y-25959472D01*
X15798254Y-25834504D01*
X15624536Y-25741649D01*
X15436034Y-25684469D01*
X15339999Y-25675009D01*
X15140000Y-25675009D01*
X15043965Y-25684469D01*
X14855463Y-25741649D01*
X14681745Y-25834504D01*
X14529472Y-25959472D01*
X14404504Y-26111745D01*
X14311649Y-26285463D01*
X14254469Y-26473965D01*
X14245009Y-26570000D01*
X13695492Y-26570000D01*
X13686025Y-26473870D01*
X13670798Y-26423675D01*
X13651229Y-26359169D01*
X13649934Y-26306377D01*
X13675964Y-26260428D01*
X14166845Y-25769549D01*
X14166849Y-25769542D01*
X14178050Y-25758342D01*
X14189002Y-25736845D01*
X14197111Y-25723611D01*
X14211296Y-25704089D01*
X14218751Y-25681142D01*
X14224695Y-25666795D01*
X14235646Y-25645304D01*
X14239421Y-25621467D01*
X14243041Y-25606385D01*
X14250500Y-25583433D01*
X14250500Y-25456567D01*
X14250500Y-22237288D01*
X14268559Y-22180283D01*
X14316147Y-22144075D01*
X14375904Y-22141874D01*
X14426027Y-22174482D01*
X14529469Y-22300524D01*
X14681745Y-22425495D01*
X14855463Y-22518350D01*
X15043965Y-22575530D01*
X15140000Y-22584990D01*
X15340000Y-22584990D01*
X15436034Y-22575530D01*
X15624536Y-22518350D01*
X15798254Y-22425495D01*
X15950527Y-22300527D01*
X16075495Y-22148254D01*
X16168350Y-21974536D01*
X16225530Y-21786034D01*
X16234990Y-21690000D01*
X15340001Y-21690000D01*
X15340000Y-21690001D01*
X15340000Y-22584990D01*
X15140000Y-22584990D01*
X15140000Y-20595009D01*
X15339999Y-20595009D01*
X15340000Y-20595010D01*
X15340000Y-21489999D01*
X15340001Y-21490000D01*
X16234990Y-21490000D01*
X16225530Y-21393965D01*
X16168350Y-21205463D01*
X16075495Y-21031745D01*
X15950527Y-20879472D01*
X15798254Y-20754504D01*
X15624536Y-20661649D01*
X15436034Y-20604469D01*
X15339999Y-20595009D01*
X15140000Y-20595009D01*
X15043965Y-20604469D01*
X14855463Y-20661649D01*
X14681745Y-20754504D01*
X14529469Y-20879475D01*
X14426027Y-21005518D01*
X14375904Y-21038126D01*
X14316147Y-21035925D01*
X14268559Y-20999717D01*
X14250500Y-20942712D01*
X14250500Y-20136569D01*
X14250500Y-20136567D01*
X14243041Y-20113611D01*
X14239421Y-20098534D01*
X14235646Y-20074696D01*
X14224693Y-20053201D01*
X14218752Y-20038861D01*
X14211296Y-20015911D01*
X14211295Y-20015909D01*
X14197112Y-19996387D01*
X14189001Y-19983151D01*
X14178050Y-19961658D01*
X14155486Y-19939094D01*
X14155485Y-19939093D01*
X14155486Y-19939093D01*
X13675963Y-19459569D01*
X13649934Y-19413620D01*
X13651229Y-19360830D01*
X13686024Y-19246132D01*
X13686024Y-19246130D01*
X13686025Y-19246128D01*
X13695492Y-19150000D01*
X14245010Y-19150000D01*
X14254469Y-19246034D01*
X14311649Y-19434536D01*
X14404504Y-19608254D01*
X14529472Y-19760527D01*
X14681745Y-19885495D01*
X14855463Y-19978350D01*
X15043965Y-20035530D01*
X15140000Y-20044990D01*
X15340000Y-20044990D01*
X15436034Y-20035530D01*
X15624536Y-19978350D01*
X15798254Y-19885495D01*
X15950527Y-19760527D01*
X16075495Y-19608254D01*
X16168350Y-19434536D01*
X16225530Y-19246034D01*
X16234990Y-19150000D01*
X15340001Y-19150000D01*
X15340000Y-19150001D01*
X15340000Y-20044990D01*
X15140000Y-20044990D01*
X15140000Y-19150001D01*
X15139999Y-19150000D01*
X14245010Y-19150000D01*
X13695492Y-19150000D01*
X13705341Y-19050000D01*
X13695492Y-18950000D01*
X14245009Y-18950000D01*
X15139999Y-18950000D01*
X15140000Y-18949999D01*
X15140000Y-18055009D01*
X15339999Y-18055009D01*
X15340000Y-18055010D01*
X15340000Y-18949999D01*
X15340001Y-18950000D01*
X16234990Y-18950000D01*
X16225530Y-18853965D01*
X16168350Y-18665463D01*
X16075495Y-18491745D01*
X15950527Y-18339472D01*
X15798254Y-18214504D01*
X15624536Y-18121649D01*
X15436034Y-18064469D01*
X15339999Y-18055009D01*
X15140000Y-18055009D01*
X15043965Y-18064469D01*
X14855463Y-18121649D01*
X14681745Y-18214504D01*
X14529472Y-18339472D01*
X14404504Y-18491745D01*
X14311649Y-18665463D01*
X14254469Y-18853965D01*
X14245009Y-18950000D01*
X13695492Y-18950000D01*
X13695492Y-18949999D01*
X13686024Y-18853868D01*
X13628814Y-18665273D01*
X13628814Y-18665272D01*
X13535911Y-18491463D01*
X13516900Y-18468298D01*
X13410883Y-18339117D01*
X13304864Y-18252109D01*
X13258536Y-18214088D01*
X13084727Y-18121185D01*
X12896130Y-18063975D01*
X12700000Y-18044658D01*
X12503869Y-18063975D01*
X12315272Y-18121185D01*
X12141463Y-18214088D01*
X11989117Y-18339117D01*
X11864088Y-18491463D01*
X11771185Y-18665272D01*
X11713975Y-18853869D01*
X11694658Y-19049999D01*
X11713975Y-19246130D01*
X11771185Y-19434727D01*
X11864088Y-19608536D01*
X11864090Y-19608538D01*
X11989117Y-19760883D01*
X12104977Y-19855967D01*
X12141463Y-19885911D01*
X12315272Y-19978814D01*
X12332385Y-19984005D01*
X12503868Y-20036024D01*
X12700000Y-20055341D01*
X12896128Y-20036025D01*
X12896130Y-20036024D01*
X12896132Y-20036024D01*
X13010830Y-20001229D01*
X13063620Y-19999934D01*
X13109570Y-20025963D01*
X13420504Y-20336897D01*
X13441964Y-20369015D01*
X13449500Y-20406901D01*
X13449500Y-20701490D01*
X13434141Y-20754455D01*
X13392828Y-20790985D01*
X13338381Y-20799745D01*
X13287695Y-20778018D01*
X13258537Y-20754088D01*
X13084727Y-20661185D01*
X12896130Y-20603975D01*
X12700000Y-20584658D01*
X12503869Y-20603975D01*
X12315272Y-20661185D01*
X12141463Y-20754088D01*
X11989117Y-20879117D01*
X11886028Y-21004730D01*
X11835904Y-21037339D01*
X11776148Y-21035138D01*
X11728559Y-20998930D01*
X11710500Y-20941925D01*
X11710500Y-20136569D01*
X11710500Y-20136567D01*
X11703041Y-20113611D01*
X11699421Y-20098534D01*
X11695646Y-20074696D01*
X11684693Y-20053201D01*
X11678752Y-20038861D01*
X11671296Y-20015911D01*
X11671295Y-20015909D01*
X11657112Y-19996387D01*
X11649001Y-19983151D01*
X11638050Y-19961658D01*
X11615486Y-19939094D01*
X11615485Y-19939093D01*
X11615486Y-19939093D01*
X11135963Y-19459569D01*
X11109934Y-19413620D01*
X11111229Y-19360830D01*
X11146024Y-19246132D01*
X11146024Y-19246130D01*
X11146025Y-19246128D01*
X11165341Y-19050000D01*
X11155492Y-18949999D01*
X11146024Y-18853868D01*
X11088814Y-18665273D01*
X11088814Y-18665272D01*
X10995911Y-18491463D01*
X10976900Y-18468298D01*
X10870883Y-18339117D01*
X10764864Y-18252109D01*
X10718536Y-18214088D01*
X10544727Y-18121185D01*
X10356130Y-18063975D01*
X10160000Y-18044658D01*
X9963869Y-18063975D01*
X9775272Y-18121185D01*
X9601463Y-18214088D01*
X9449117Y-18339117D01*
X9324088Y-18491463D01*
X9231185Y-18665272D01*
X9173975Y-18853869D01*
X9154658Y-19050000D01*
X9173975Y-19246130D01*
X9231185Y-19434727D01*
X9324088Y-19608536D01*
X9324090Y-19608538D01*
X9449117Y-19760883D01*
X9564977Y-19855967D01*
X9601463Y-19885911D01*
X9775272Y-19978814D01*
X9792385Y-19984005D01*
X9963868Y-20036024D01*
X10160000Y-20055341D01*
X10356128Y-20036025D01*
X10356130Y-20036024D01*
X10356132Y-20036024D01*
X10470830Y-20001229D01*
X10523620Y-19999934D01*
X10569570Y-20025963D01*
X10880504Y-20336897D01*
X10901964Y-20369015D01*
X10909500Y-20406901D01*
X10909500Y-20701490D01*
X10894141Y-20754455D01*
X10852828Y-20790985D01*
X10798381Y-20799745D01*
X10747695Y-20778018D01*
X10718537Y-20754088D01*
X10544727Y-20661185D01*
X10356130Y-20603975D01*
X10160000Y-20584658D01*
X9963869Y-20603975D01*
X9775272Y-20661185D01*
X9601463Y-20754088D01*
X9449117Y-20879117D01*
X9346028Y-21004730D01*
X9295904Y-21037339D01*
X9236148Y-21035138D01*
X9188559Y-20998930D01*
X9170500Y-20941925D01*
X9170500Y-20136569D01*
X9170500Y-20136567D01*
X9163041Y-20113611D01*
X9159421Y-20098534D01*
X9155646Y-20074696D01*
X9144693Y-20053201D01*
X9138752Y-20038861D01*
X9131296Y-20015911D01*
X9131295Y-20015909D01*
X9117112Y-19996387D01*
X9109001Y-19983151D01*
X9098050Y-19961658D01*
X9075486Y-19939094D01*
X9075485Y-19939093D01*
X9075486Y-19939093D01*
X8595963Y-19459569D01*
X8569934Y-19413620D01*
X8571229Y-19360830D01*
X8606024Y-19246132D01*
X8606024Y-19246130D01*
X8606025Y-19246128D01*
X8625341Y-19050000D01*
X8615492Y-18949999D01*
X8606024Y-18853868D01*
X8548814Y-18665273D01*
X8548814Y-18665272D01*
X8455911Y-18491463D01*
X8436900Y-18468298D01*
X8330883Y-18339117D01*
X8224864Y-18252109D01*
X8178536Y-18214088D01*
X8004727Y-18121185D01*
X7816130Y-18063975D01*
X7620000Y-18044658D01*
X7423869Y-18063975D01*
X7235272Y-18121185D01*
X7061463Y-18214088D01*
X6909117Y-18339117D01*
X6784088Y-18491463D01*
X6691185Y-18665272D01*
X6633975Y-18853869D01*
X6614658Y-19050000D01*
X6633975Y-19246130D01*
X6691185Y-19434727D01*
X6784088Y-19608536D01*
X6784090Y-19608538D01*
X6909117Y-19760883D01*
X7024977Y-19855967D01*
X7061463Y-19885911D01*
X7235272Y-19978814D01*
X7252385Y-19984005D01*
X7423868Y-20036024D01*
X7620000Y-20055341D01*
X7816128Y-20036025D01*
X7816130Y-20036024D01*
X7816132Y-20036024D01*
X7930830Y-20001229D01*
X7983620Y-19999934D01*
X8029570Y-20025963D01*
X8340504Y-20336897D01*
X8361964Y-20369015D01*
X8369500Y-20406901D01*
X8369500Y-20701490D01*
X8354141Y-20754455D01*
X8312828Y-20790985D01*
X8258381Y-20799745D01*
X8207695Y-20778018D01*
X8178537Y-20754088D01*
X8004727Y-20661185D01*
X7816130Y-20603975D01*
X7620000Y-20584658D01*
X7423869Y-20603975D01*
X7235272Y-20661185D01*
X7061463Y-20754088D01*
X6909117Y-20879117D01*
X6806028Y-21004730D01*
X6755904Y-21037339D01*
X6696148Y-21035138D01*
X6648559Y-20998930D01*
X6630500Y-20941925D01*
X6630500Y-20136569D01*
X6630500Y-20136567D01*
X6623041Y-20113611D01*
X6619421Y-20098534D01*
X6615646Y-20074696D01*
X6604693Y-20053201D01*
X6598752Y-20038861D01*
X6591296Y-20015911D01*
X6591295Y-20015909D01*
X6577112Y-19996387D01*
X6569001Y-19983151D01*
X6558050Y-19961658D01*
X6535486Y-19939094D01*
X6535485Y-19939093D01*
X6535486Y-19939093D01*
X6055963Y-19459569D01*
X6029934Y-19413620D01*
X6031229Y-19360830D01*
X6066024Y-19246132D01*
X6066024Y-19246130D01*
X6066025Y-19246128D01*
X6085341Y-19050000D01*
X6075492Y-18949999D01*
X6066024Y-18853868D01*
X6008814Y-18665273D01*
X6008814Y-18665272D01*
X5915911Y-18491463D01*
X5896900Y-18468298D01*
X5790883Y-18339117D01*
X5684864Y-18252109D01*
X5638536Y-18214088D01*
X5464727Y-18121185D01*
X5276130Y-18063975D01*
X5080000Y-18044658D01*
X4883869Y-18063975D01*
X4695272Y-18121185D01*
X4521463Y-18214088D01*
X4369117Y-18339117D01*
X4244088Y-18491463D01*
X4151185Y-18665272D01*
X4093975Y-18853869D01*
X4074658Y-19050000D01*
X4093975Y-19246130D01*
X4151185Y-19434727D01*
X4244088Y-19608536D01*
X4244090Y-19608538D01*
X4369117Y-19760883D01*
X4484977Y-19855967D01*
X4521463Y-19885911D01*
X4695272Y-19978814D01*
X4712385Y-19984005D01*
X4883868Y-20036024D01*
X5080000Y-20055341D01*
X5276128Y-20036025D01*
X5276130Y-20036024D01*
X5276132Y-20036024D01*
X5390830Y-20001229D01*
X5443620Y-19999934D01*
X5489570Y-20025963D01*
X5800504Y-20336897D01*
X5821964Y-20369015D01*
X5829500Y-20406901D01*
X5829500Y-20490500D01*
X5816237Y-20540000D01*
X5780000Y-20576237D01*
X5730500Y-20589500D01*
X4260252Y-20589500D01*
X4232556Y-20595009D01*
X4201768Y-20601133D01*
X4135447Y-20645447D01*
X4091133Y-20711768D01*
X4091132Y-20711769D01*
X4091133Y-20711769D01*
X4082633Y-20754504D01*
X4079500Y-20770253D01*
X4079500Y-22409747D01*
X4091133Y-22468231D01*
X4135447Y-22534552D01*
X4179762Y-22564162D01*
X4201769Y-22578867D01*
X4260252Y-22590500D01*
X5730500Y-22590500D01*
X5780000Y-22603763D01*
X5816237Y-22640000D01*
X5829500Y-22689500D01*
X5829500Y-25313100D01*
X5821964Y-25350986D01*
X5800503Y-25383104D01*
X5489570Y-25694035D01*
X5443622Y-25720064D01*
X5390829Y-25718768D01*
X5276130Y-25683975D01*
X5080000Y-25664658D01*
X4883869Y-25683975D01*
X4695272Y-25741185D01*
X4521463Y-25834088D01*
X4369117Y-25959117D01*
X4244088Y-26111463D01*
X4151185Y-26285272D01*
X4093975Y-26473869D01*
X4074658Y-26670000D01*
X4093975Y-26866130D01*
X4151185Y-27054727D01*
X4244088Y-27228536D01*
X4244090Y-27228538D01*
X4369117Y-27380883D01*
X4484977Y-27475967D01*
X4521463Y-27505911D01*
X4695272Y-27598814D01*
X4712385Y-27604005D01*
X4883868Y-27656024D01*
X5080000Y-27675341D01*
X5276128Y-27656025D01*
X5276130Y-27656024D01*
X5276132Y-27656024D01*
X5390830Y-27621229D01*
X5443620Y-27619934D01*
X5489570Y-27645963D01*
X5800504Y-27956897D01*
X5821964Y-27989015D01*
X5829500Y-28026901D01*
X5829500Y-28110500D01*
X5816237Y-28160000D01*
X5780000Y-28196237D01*
X5730500Y-28209500D01*
X4260252Y-28209500D01*
X4232556Y-28215009D01*
X4201768Y-28221133D01*
X4135447Y-28265447D01*
X4091133Y-28331768D01*
X4091132Y-28331769D01*
X4091133Y-28331769D01*
X4082633Y-28374504D01*
X4079500Y-28390253D01*
X4079500Y-30029747D01*
X4091133Y-30088231D01*
X4135447Y-30154552D01*
X4179762Y-30184162D01*
X4201769Y-30198867D01*
X4260252Y-30210500D01*
X4580500Y-30210500D01*
X4630000Y-30223763D01*
X4666237Y-30260000D01*
X4679500Y-30309500D01*
X4679500Y-33390500D01*
X4666237Y-33440000D01*
X4630000Y-33476237D01*
X4580500Y-33489500D01*
X4260252Y-33489500D01*
X4232556Y-33495009D01*
X4201768Y-33501133D01*
X4135447Y-33545447D01*
X4091133Y-33611768D01*
X4091132Y-33611769D01*
X4091133Y-33611769D01*
X4082633Y-33654504D01*
X4079500Y-33670253D01*
X4079500Y-35309747D01*
X4091133Y-35368231D01*
X4135447Y-35434552D01*
X4179762Y-35464162D01*
X4201769Y-35478867D01*
X4260252Y-35490500D01*
X5730500Y-35490500D01*
X5780000Y-35503763D01*
X5816237Y-35540000D01*
X5829500Y-35589500D01*
X5829500Y-35673100D01*
X5821964Y-35710986D01*
X5800503Y-35743104D01*
X5489570Y-36054035D01*
X5443622Y-36080064D01*
X5390829Y-36078768D01*
X5276130Y-36043975D01*
X5080000Y-36024658D01*
X4883869Y-36043975D01*
X4695272Y-36101185D01*
X4521463Y-36194088D01*
X4369117Y-36319117D01*
X4244088Y-36471463D01*
X4151185Y-36645272D01*
X4093975Y-36833869D01*
X4074658Y-37029999D01*
X2615500Y-37029999D01*
X2615500Y-10232281D01*
X2623036Y-10194395D01*
X2644496Y-10162277D01*
X3812277Y-8994496D01*
X3844395Y-8973036D01*
X3882281Y-8965500D01*
X18977719Y-8965500D01*
X19015605Y-8973036D01*
G37*
G04 #@! TD.AperFunction*
G04 #@! TD*
M02*
