G04 #@! TF.GenerationSoftware,KiCad,Pcbnew,7.0.1*
G04 #@! TF.CreationDate,2023-03-21T03:45:51+09:00*
G04 #@! TF.ProjectId,Pmod_Debug,506d6f64-5f44-4656-9275-672e6b696361,rev?*
G04 #@! TF.SameCoordinates,Original*
G04 #@! TF.FileFunction,Legend,Top*
G04 #@! TF.FilePolarity,Positive*
%FSLAX46Y46*%
G04 Gerber Fmt 4.6, Leading zero omitted, Abs format (unit mm)*
G04 Created by KiCad (PCBNEW 7.0.1) date 2023-03-21 03:45:51*
%MOMM*%
%LPD*%
G01*
G04 APERTURE LIST*
%ADD10C,0.150000*%
G04 APERTURE END LIST*
D10*
G04 #@! TO.C,J1*
X17466666Y-31762619D02*
X17466666Y-32476904D01*
X17466666Y-32476904D02*
X17419047Y-32619761D01*
X17419047Y-32619761D02*
X17323809Y-32715000D01*
X17323809Y-32715000D02*
X17180952Y-32762619D01*
X17180952Y-32762619D02*
X17085714Y-32762619D01*
X18466666Y-32762619D02*
X17895238Y-32762619D01*
X18180952Y-32762619D02*
X18180952Y-31762619D01*
X18180952Y-31762619D02*
X18085714Y-31905476D01*
X18085714Y-31905476D02*
X17990476Y-32000714D01*
X17990476Y-32000714D02*
X17895238Y-32048333D01*
X3926095Y-32737428D02*
X3926095Y-33194571D01*
X3926095Y-32965999D02*
X3126095Y-32965999D01*
X3126095Y-32965999D02*
X3240380Y-33042190D01*
X3240380Y-33042190D02*
X3316571Y-33118380D01*
X3316571Y-33118380D02*
X3354666Y-33194571D01*
G04 #@! TO.C,J2*
X17466666Y-24162619D02*
X17466666Y-24876904D01*
X17466666Y-24876904D02*
X17419047Y-25019761D01*
X17419047Y-25019761D02*
X17323809Y-25115000D01*
X17323809Y-25115000D02*
X17180952Y-25162619D01*
X17180952Y-25162619D02*
X17085714Y-25162619D01*
X17895238Y-24257857D02*
X17942857Y-24210238D01*
X17942857Y-24210238D02*
X18038095Y-24162619D01*
X18038095Y-24162619D02*
X18276190Y-24162619D01*
X18276190Y-24162619D02*
X18371428Y-24210238D01*
X18371428Y-24210238D02*
X18419047Y-24257857D01*
X18419047Y-24257857D02*
X18466666Y-24353095D01*
X18466666Y-24353095D02*
X18466666Y-24448333D01*
X18466666Y-24448333D02*
X18419047Y-24591190D01*
X18419047Y-24591190D02*
X17847619Y-25162619D01*
X17847619Y-25162619D02*
X18466666Y-25162619D01*
X5450095Y-30886428D02*
X5450095Y-31343571D01*
X5450095Y-31114999D02*
X4650095Y-31114999D01*
X4650095Y-31114999D02*
X4764380Y-31191190D01*
X4764380Y-31191190D02*
X4840571Y-31267380D01*
X4840571Y-31267380D02*
X4878666Y-31343571D01*
G04 #@! TO.C,J3*
X4766666Y-23162619D02*
X4766666Y-23876904D01*
X4766666Y-23876904D02*
X4719047Y-24019761D01*
X4719047Y-24019761D02*
X4623809Y-24115000D01*
X4623809Y-24115000D02*
X4480952Y-24162619D01*
X4480952Y-24162619D02*
X4385714Y-24162619D01*
X5147619Y-23162619D02*
X5766666Y-23162619D01*
X5766666Y-23162619D02*
X5433333Y-23543571D01*
X5433333Y-23543571D02*
X5576190Y-23543571D01*
X5576190Y-23543571D02*
X5671428Y-23591190D01*
X5671428Y-23591190D02*
X5719047Y-23638809D01*
X5719047Y-23638809D02*
X5766666Y-23734047D01*
X5766666Y-23734047D02*
X5766666Y-23972142D01*
X5766666Y-23972142D02*
X5719047Y-24067380D01*
X5719047Y-24067380D02*
X5671428Y-24115000D01*
X5671428Y-24115000D02*
X5576190Y-24162619D01*
X5576190Y-24162619D02*
X5290476Y-24162619D01*
X5290476Y-24162619D02*
X5195238Y-24115000D01*
X5195238Y-24115000D02*
X5147619Y-24067380D01*
X3926095Y-22631428D02*
X3926095Y-23088571D01*
X3926095Y-22859999D02*
X3126095Y-22859999D01*
X3126095Y-22859999D02*
X3240380Y-22936190D01*
X3240380Y-22936190D02*
X3316571Y-23012380D01*
X3316571Y-23012380D02*
X3354666Y-23088571D01*
G04 #@! TO.C,J1*
X4445000Y-38300000D02*
X3810000Y-37665000D01*
X5715000Y-38300000D02*
X4445000Y-38300000D01*
X6985000Y-38300000D02*
X6350000Y-37665000D01*
X8255000Y-38300000D02*
X6985000Y-38300000D01*
X9525000Y-38300000D02*
X8890000Y-37665000D01*
X10795000Y-38300000D02*
X9525000Y-38300000D01*
X12065000Y-38300000D02*
X11430000Y-37665000D01*
X13335000Y-38300000D02*
X12065000Y-38300000D01*
X14605000Y-38300000D02*
X13970000Y-37665000D01*
X15875000Y-38300000D02*
X14605000Y-38300000D01*
X17145000Y-38300000D02*
X16510000Y-37665000D01*
X18415000Y-38300000D02*
X17145000Y-38300000D01*
X3810000Y-37665000D02*
X3810000Y-33855000D01*
X6350000Y-37665000D02*
X5715000Y-38300000D01*
X8890000Y-37665000D02*
X8255000Y-38300000D01*
X11430000Y-37665000D02*
X10795000Y-38300000D01*
X13970000Y-37665000D02*
X13335000Y-38300000D01*
X16510000Y-37665000D02*
X15875000Y-38300000D01*
X19050000Y-37665000D02*
X18415000Y-38300000D01*
X3810000Y-33855000D02*
X4445000Y-33220000D01*
X6350000Y-33855000D02*
X6985000Y-33220000D01*
X8890000Y-33855000D02*
X9525000Y-33220000D01*
X11430000Y-33855000D02*
X12065000Y-33220000D01*
X13970000Y-33855000D02*
X14605000Y-33220000D01*
X16510000Y-33855000D02*
X17145000Y-33220000D01*
X19050000Y-33855000D02*
X19050000Y-37665000D01*
X4445000Y-33220000D02*
X5715000Y-33220000D01*
X5715000Y-33220000D02*
X6350000Y-33855000D01*
X6985000Y-33220000D02*
X8255000Y-33220000D01*
X8255000Y-33220000D02*
X8890000Y-33855000D01*
X9525000Y-33220000D02*
X10795000Y-33220000D01*
X10795000Y-33220000D02*
X11430000Y-33855000D01*
X12065000Y-33220000D02*
X13335000Y-33220000D01*
X13335000Y-33220000D02*
X13970000Y-33855000D01*
X14605000Y-33220000D02*
X15875000Y-33220000D01*
X15875000Y-33220000D02*
X16510000Y-33855000D01*
X17145000Y-33220000D02*
X18415000Y-33220000D01*
X18415000Y-33220000D02*
X19050000Y-33855000D01*
G04 #@! TO.C,J2*
X3810000Y-30480000D02*
X3810000Y-25400000D01*
X19050000Y-30480000D02*
X3810000Y-30480000D01*
X3810000Y-25400000D02*
X19050000Y-25400000D01*
X19050000Y-25400000D02*
X19050000Y-30480000D01*
G04 #@! TO.C,J3*
X4445000Y-22860000D02*
X3810000Y-22225000D01*
X5715000Y-22860000D02*
X4445000Y-22860000D01*
X6985000Y-22860000D02*
X6350000Y-22225000D01*
X8255000Y-22860000D02*
X6985000Y-22860000D01*
X9525000Y-22860000D02*
X8890000Y-22225000D01*
X10795000Y-22860000D02*
X9525000Y-22860000D01*
X12065000Y-22860000D02*
X11430000Y-22225000D01*
X13335000Y-22860000D02*
X12065000Y-22860000D01*
X14605000Y-22860000D02*
X13970000Y-22225000D01*
X15875000Y-22860000D02*
X14605000Y-22860000D01*
X17145000Y-22860000D02*
X16510000Y-22225000D01*
X18415000Y-22860000D02*
X17145000Y-22860000D01*
X3810000Y-22225000D02*
X3810000Y-18415000D01*
X6350000Y-22225000D02*
X5715000Y-22860000D01*
X8890000Y-22225000D02*
X8255000Y-22860000D01*
X11430000Y-22225000D02*
X10795000Y-22860000D01*
X13970000Y-22225000D02*
X13335000Y-22860000D01*
X16510000Y-22225000D02*
X15875000Y-22860000D01*
X19050000Y-22225000D02*
X18415000Y-22860000D01*
X3810000Y-18415000D02*
X4445000Y-17780000D01*
X6350000Y-18415000D02*
X6985000Y-17780000D01*
X8890000Y-18415000D02*
X9525000Y-17780000D01*
X11430000Y-18415000D02*
X12065000Y-17780000D01*
X13970000Y-18415000D02*
X14605000Y-17780000D01*
X16510000Y-18415000D02*
X17145000Y-17780000D01*
X19050000Y-18415000D02*
X19050000Y-22225000D01*
X4445000Y-17780000D02*
X5715000Y-17780000D01*
X5715000Y-17780000D02*
X6350000Y-18415000D01*
X6985000Y-17780000D02*
X8255000Y-17780000D01*
X8255000Y-17780000D02*
X8890000Y-18415000D01*
X9525000Y-17780000D02*
X10795000Y-17780000D01*
X10795000Y-17780000D02*
X11430000Y-18415000D01*
X12065000Y-17780000D02*
X13335000Y-17780000D01*
X13335000Y-17780000D02*
X13970000Y-18415000D01*
X14605000Y-17780000D02*
X15875000Y-17780000D01*
X15875000Y-17780000D02*
X16510000Y-18415000D01*
X17145000Y-17780000D02*
X18415000Y-17780000D01*
X18415000Y-17780000D02*
X19050000Y-18415000D01*
G04 #@! TD*
M02*
