G04 #@! TF.GenerationSoftware,KiCad,Pcbnew,7.0.1*
G04 #@! TF.CreationDate,2023-03-21T03:45:51+09:00*
G04 #@! TF.ProjectId,Pmod_Debug,506d6f64-5f44-4656-9275-672e6b696361,rev?*
G04 #@! TF.SameCoordinates,Original*
G04 #@! TF.FileFunction,Copper,L2,Bot*
G04 #@! TF.FilePolarity,Positive*
%FSLAX46Y46*%
G04 Gerber Fmt 4.6, Leading zero omitted, Abs format (unit mm)*
G04 Created by KiCad (PCBNEW 7.0.1) date 2023-03-21 03:45:51*
%MOMM*%
%LPD*%
G01*
G04 APERTURE LIST*
G04 #@! TA.AperFunction,ComponentPad*
%ADD10R,1.600000X1.600000*%
G04 #@! TD*
G04 #@! TA.AperFunction,ComponentPad*
%ADD11O,1.600000X1.600000*%
G04 #@! TD*
G04 #@! TA.AperFunction,ViaPad*
%ADD12C,0.800000*%
G04 #@! TD*
G04 #@! TA.AperFunction,Conductor*
%ADD13C,0.400000*%
G04 #@! TD*
G04 APERTURE END LIST*
D10*
G04 #@! TO.P,J1,1,Pin_1*
G04 #@! TO.N,/PMOD_P1*
X5080000Y-34490000D03*
D11*
G04 #@! TO.P,J1,2,Pin_2*
G04 #@! TO.N,/PMOD_P2*
X7620000Y-34490000D03*
G04 #@! TO.P,J1,3,Pin_3*
G04 #@! TO.N,/PMOD_P3*
X10160000Y-34490000D03*
G04 #@! TO.P,J1,4,Pin_4*
G04 #@! TO.N,/PMOD_P4*
X12700000Y-34490000D03*
G04 #@! TO.P,J1,5,Pin_5*
G04 #@! TO.N,GND*
X15240000Y-34490000D03*
G04 #@! TO.P,J1,6,Pin_6*
G04 #@! TO.N,+3V3*
X17780000Y-34490000D03*
G04 #@! TO.P,J1,7,Pin_7*
G04 #@! TO.N,/PMOD_P7*
X5080000Y-37030000D03*
G04 #@! TO.P,J1,8,Pin_8*
G04 #@! TO.N,/PMOD_P8*
X7620000Y-37030000D03*
G04 #@! TO.P,J1,9,Pin_9*
G04 #@! TO.N,/PMOD_P9*
X10160000Y-37030000D03*
G04 #@! TO.P,J1,10,Pin_10*
G04 #@! TO.N,/PMOD_P10*
X12700000Y-37030000D03*
G04 #@! TO.P,J1,11,Pin_11*
G04 #@! TO.N,GND*
X15240000Y-37030000D03*
G04 #@! TO.P,J1,12,Pin_12*
G04 #@! TO.N,+3V3*
X17780000Y-37030000D03*
G04 #@! TD*
D10*
G04 #@! TO.P,J2,1,Pin_1*
G04 #@! TO.N,/PMOD_P1*
X5080000Y-29210000D03*
D11*
G04 #@! TO.P,J2,2,Pin_2*
G04 #@! TO.N,/PMOD_P2*
X7620000Y-29210000D03*
G04 #@! TO.P,J2,3,Pin_3*
G04 #@! TO.N,/PMOD_P3*
X10160000Y-29210000D03*
G04 #@! TO.P,J2,4,Pin_4*
G04 #@! TO.N,/PMOD_P4*
X12700000Y-29210000D03*
G04 #@! TO.P,J2,5,Pin_5*
G04 #@! TO.N,GND*
X15240000Y-29210000D03*
G04 #@! TO.P,J2,6,Pin_6*
G04 #@! TO.N,+3V3*
X17780000Y-29210000D03*
G04 #@! TO.P,J2,7,Pin_7*
G04 #@! TO.N,/PMOD_P7*
X5080000Y-26670000D03*
G04 #@! TO.P,J2,8,Pin_8*
G04 #@! TO.N,/PMOD_P8*
X7620000Y-26670000D03*
G04 #@! TO.P,J2,9,Pin_9*
G04 #@! TO.N,/PMOD_P9*
X10160000Y-26670000D03*
G04 #@! TO.P,J2,10,Pin_10*
G04 #@! TO.N,/PMOD_P10*
X12700000Y-26670000D03*
G04 #@! TO.P,J2,11,Pin_11*
G04 #@! TO.N,GND*
X15240000Y-26670000D03*
G04 #@! TO.P,J2,12,Pin_12*
G04 #@! TO.N,+3V3*
X17780000Y-26670000D03*
G04 #@! TD*
D10*
G04 #@! TO.P,J3,1,Pin_1*
G04 #@! TO.N,/PMOD_P1*
X5080000Y-21590000D03*
D11*
G04 #@! TO.P,J3,2,Pin_2*
G04 #@! TO.N,/PMOD_P2*
X7620000Y-21590000D03*
G04 #@! TO.P,J3,3,Pin_3*
G04 #@! TO.N,/PMOD_P3*
X10160000Y-21590000D03*
G04 #@! TO.P,J3,4,Pin_4*
G04 #@! TO.N,/PMOD_P4*
X12700000Y-21590000D03*
G04 #@! TO.P,J3,5,Pin_5*
G04 #@! TO.N,GND*
X15240000Y-21590000D03*
G04 #@! TO.P,J3,6,Pin_6*
G04 #@! TO.N,+3V3*
X17780000Y-21590000D03*
G04 #@! TO.P,J3,7,Pin_7*
G04 #@! TO.N,/PMOD_P7*
X5080000Y-19050000D03*
G04 #@! TO.P,J3,8,Pin_8*
G04 #@! TO.N,/PMOD_P8*
X7620000Y-19050000D03*
G04 #@! TO.P,J3,9,Pin_9*
G04 #@! TO.N,/PMOD_P9*
X10160000Y-19050000D03*
G04 #@! TO.P,J3,10,Pin_10*
G04 #@! TO.N,/PMOD_P10*
X12700000Y-19050000D03*
G04 #@! TO.P,J3,11,Pin_11*
G04 #@! TO.N,GND*
X15240000Y-19050000D03*
G04 #@! TO.P,J3,12,Pin_12*
G04 #@! TO.N,+3V3*
X17780000Y-19050000D03*
G04 #@! TD*
D12*
G04 #@! TO.N,GND*
X5100000Y-25000000D03*
X7700000Y-24900000D03*
X10300000Y-24900000D03*
X7700000Y-23400000D03*
X12800000Y-24900000D03*
X12800000Y-23400000D03*
X5100000Y-23000000D03*
X10300000Y-23400000D03*
G04 #@! TD*
D13*
G04 #@! TO.N,/PMOD_P1*
X3930000Y-22740000D02*
X5080000Y-21590000D01*
X5080000Y-29210000D02*
X3930000Y-28060000D01*
X3930000Y-28060000D02*
X3930000Y-22740000D01*
G04 #@! TO.N,/PMOD_P2*
X6470000Y-28060000D02*
X6470000Y-22740000D01*
X6470000Y-22740000D02*
X7620000Y-21590000D01*
X7620000Y-29210000D02*
X6470000Y-28060000D01*
G04 #@! TO.N,/PMOD_P3*
X9010000Y-28060000D02*
X9010000Y-22740000D01*
X10160000Y-29210000D02*
X9010000Y-28060000D01*
X9010000Y-22740000D02*
X10160000Y-21590000D01*
G04 #@! TO.N,/PMOD_P4*
X11550000Y-28060000D02*
X11550000Y-22740000D01*
X11550000Y-22740000D02*
X12700000Y-21590000D01*
X12700000Y-29210000D02*
X11550000Y-28060000D01*
G04 #@! TD*
G04 #@! TA.AperFunction,Conductor*
G04 #@! TO.N,GND*
G36*
X6008386Y-22585902D02*
G01*
X6052815Y-22622364D01*
X6069500Y-22677366D01*
X6069500Y-26021925D01*
X6051441Y-26078930D01*
X6003852Y-26115138D01*
X5944096Y-26117339D01*
X5893972Y-26084730D01*
X5829500Y-26006172D01*
X5790883Y-25959117D01*
X5667694Y-25858018D01*
X5638536Y-25834088D01*
X5464727Y-25741185D01*
X5276130Y-25683975D01*
X5080000Y-25664658D01*
X4883869Y-25683975D01*
X4695272Y-25741185D01*
X4521462Y-25834088D01*
X4492305Y-25858018D01*
X4441619Y-25879745D01*
X4387172Y-25870985D01*
X4345859Y-25834455D01*
X4330500Y-25781490D01*
X4330500Y-22946901D01*
X4338036Y-22909015D01*
X4359496Y-22876897D01*
X4616897Y-22619496D01*
X4649015Y-22598036D01*
X4686901Y-22590500D01*
X5899747Y-22590500D01*
X5899748Y-22590500D01*
X5951187Y-22580268D01*
X6008386Y-22585902D01*
G37*
G04 #@! TD.AperFunction*
G04 #@! TA.AperFunction,Conductor*
G36*
X19015605Y-8973036D02*
G01*
X19047723Y-8994496D01*
X20215504Y-10162277D01*
X20236964Y-10194395D01*
X20244500Y-10232281D01*
X20244500Y-39657719D01*
X20236964Y-39695605D01*
X20215504Y-39727723D01*
X19047722Y-40895504D01*
X19015604Y-40916964D01*
X18977718Y-40924500D01*
X3882281Y-40924500D01*
X3844395Y-40916964D01*
X3812277Y-40895504D01*
X2644496Y-39727722D01*
X2623036Y-39695604D01*
X2615500Y-39657718D01*
X2615500Y-37029999D01*
X4074658Y-37029999D01*
X4093975Y-37226130D01*
X4151185Y-37414727D01*
X4244088Y-37588536D01*
X4244090Y-37588538D01*
X4369117Y-37740883D01*
X4498298Y-37846900D01*
X4521463Y-37865911D01*
X4695272Y-37958814D01*
X4789570Y-37987419D01*
X4883868Y-38016024D01*
X5080000Y-38035341D01*
X5276132Y-38016024D01*
X5464727Y-37958814D01*
X5638538Y-37865910D01*
X5790883Y-37740883D01*
X5915910Y-37588538D01*
X6008814Y-37414727D01*
X6066024Y-37226132D01*
X6085341Y-37030000D01*
X6085341Y-37029999D01*
X6614658Y-37029999D01*
X6633975Y-37226130D01*
X6691185Y-37414727D01*
X6784088Y-37588536D01*
X6784090Y-37588538D01*
X6909117Y-37740883D01*
X7038298Y-37846900D01*
X7061463Y-37865911D01*
X7235272Y-37958814D01*
X7329570Y-37987419D01*
X7423868Y-38016024D01*
X7620000Y-38035341D01*
X7816132Y-38016024D01*
X8004727Y-37958814D01*
X8178538Y-37865910D01*
X8330883Y-37740883D01*
X8455910Y-37588538D01*
X8548814Y-37414727D01*
X8606024Y-37226132D01*
X8625341Y-37030000D01*
X8625341Y-37029999D01*
X9154658Y-37029999D01*
X9173975Y-37226130D01*
X9231185Y-37414727D01*
X9324088Y-37588536D01*
X9324090Y-37588538D01*
X9449117Y-37740883D01*
X9578298Y-37846900D01*
X9601463Y-37865911D01*
X9775272Y-37958814D01*
X9869570Y-37987419D01*
X9963868Y-38016024D01*
X10160000Y-38035341D01*
X10356132Y-38016024D01*
X10544727Y-37958814D01*
X10718538Y-37865910D01*
X10870883Y-37740883D01*
X10995910Y-37588538D01*
X11088814Y-37414727D01*
X11146024Y-37226132D01*
X11165341Y-37030000D01*
X11165341Y-37029999D01*
X11694658Y-37029999D01*
X11713975Y-37226130D01*
X11771185Y-37414727D01*
X11864088Y-37588536D01*
X11864090Y-37588538D01*
X11989117Y-37740883D01*
X12118298Y-37846900D01*
X12141463Y-37865911D01*
X12315272Y-37958814D01*
X12409570Y-37987419D01*
X12503868Y-38016024D01*
X12700000Y-38035341D01*
X12896132Y-38016024D01*
X13084727Y-37958814D01*
X13258538Y-37865910D01*
X13410883Y-37740883D01*
X13535910Y-37588538D01*
X13628814Y-37414727D01*
X13686024Y-37226132D01*
X13695492Y-37130000D01*
X14245010Y-37130000D01*
X14254469Y-37226034D01*
X14311649Y-37414536D01*
X14404504Y-37588254D01*
X14529472Y-37740527D01*
X14681745Y-37865495D01*
X14855463Y-37958350D01*
X15043965Y-38015530D01*
X15140000Y-38024990D01*
X15340000Y-38024990D01*
X15436034Y-38015530D01*
X15624536Y-37958350D01*
X15798254Y-37865495D01*
X15950527Y-37740527D01*
X16075495Y-37588254D01*
X16168350Y-37414536D01*
X16225530Y-37226034D01*
X16234990Y-37130000D01*
X15340001Y-37130000D01*
X15340000Y-37130001D01*
X15340000Y-38024990D01*
X15140000Y-38024990D01*
X15140000Y-37130001D01*
X15139999Y-37130000D01*
X14245010Y-37130000D01*
X13695492Y-37130000D01*
X13705341Y-37030000D01*
X16774658Y-37030000D01*
X16793975Y-37226130D01*
X16851185Y-37414727D01*
X16944088Y-37588536D01*
X16944090Y-37588538D01*
X17069117Y-37740883D01*
X17198298Y-37846900D01*
X17221463Y-37865911D01*
X17395272Y-37958814D01*
X17489570Y-37987419D01*
X17583868Y-38016024D01*
X17780000Y-38035341D01*
X17976132Y-38016024D01*
X18164727Y-37958814D01*
X18338538Y-37865910D01*
X18490883Y-37740883D01*
X18615910Y-37588538D01*
X18708814Y-37414727D01*
X18766024Y-37226132D01*
X18785341Y-37030000D01*
X18766024Y-36833868D01*
X18708814Y-36645273D01*
X18708814Y-36645272D01*
X18615911Y-36471463D01*
X18596900Y-36448298D01*
X18490883Y-36319117D01*
X18384864Y-36232109D01*
X18338536Y-36194088D01*
X18164727Y-36101185D01*
X17976130Y-36043975D01*
X17780000Y-36024658D01*
X17583869Y-36043975D01*
X17395272Y-36101185D01*
X17221463Y-36194088D01*
X17069117Y-36319117D01*
X16944088Y-36471463D01*
X16851185Y-36645272D01*
X16793975Y-36833869D01*
X16774658Y-37030000D01*
X13705341Y-37030000D01*
X13695492Y-36930000D01*
X14245009Y-36930000D01*
X15139999Y-36930000D01*
X15140000Y-36929999D01*
X15140000Y-36035009D01*
X15339999Y-36035009D01*
X15340000Y-36035010D01*
X15340000Y-36929999D01*
X15340001Y-36930000D01*
X16234990Y-36930000D01*
X16225530Y-36833965D01*
X16168350Y-36645463D01*
X16075495Y-36471745D01*
X15950527Y-36319472D01*
X15798254Y-36194504D01*
X15624536Y-36101649D01*
X15436034Y-36044469D01*
X15339999Y-36035009D01*
X15140000Y-36035009D01*
X15043965Y-36044469D01*
X14855463Y-36101649D01*
X14681745Y-36194504D01*
X14529472Y-36319472D01*
X14404504Y-36471745D01*
X14311649Y-36645463D01*
X14254469Y-36833965D01*
X14245009Y-36930000D01*
X13695492Y-36930000D01*
X13686024Y-36833868D01*
X13628814Y-36645273D01*
X13628814Y-36645272D01*
X13535911Y-36471463D01*
X13516900Y-36448298D01*
X13410883Y-36319117D01*
X13304864Y-36232109D01*
X13258536Y-36194088D01*
X13084727Y-36101185D01*
X12896130Y-36043975D01*
X12700000Y-36024658D01*
X12503869Y-36043975D01*
X12315272Y-36101185D01*
X12141463Y-36194088D01*
X11989117Y-36319117D01*
X11864088Y-36471463D01*
X11771185Y-36645272D01*
X11713975Y-36833869D01*
X11694658Y-37029999D01*
X11165341Y-37029999D01*
X11146024Y-36833868D01*
X11088814Y-36645273D01*
X11088814Y-36645272D01*
X10995911Y-36471463D01*
X10976900Y-36448298D01*
X10870883Y-36319117D01*
X10764864Y-36232109D01*
X10718536Y-36194088D01*
X10544727Y-36101185D01*
X10356130Y-36043975D01*
X10160000Y-36024658D01*
X9963869Y-36043975D01*
X9775272Y-36101185D01*
X9601463Y-36194088D01*
X9449117Y-36319117D01*
X9324088Y-36471463D01*
X9231185Y-36645272D01*
X9173975Y-36833869D01*
X9154658Y-37029999D01*
X8625341Y-37029999D01*
X8606024Y-36833868D01*
X8548814Y-36645273D01*
X8548814Y-36645272D01*
X8455911Y-36471463D01*
X8436900Y-36448298D01*
X8330883Y-36319117D01*
X8224864Y-36232109D01*
X8178536Y-36194088D01*
X8004727Y-36101185D01*
X7816130Y-36043975D01*
X7620000Y-36024658D01*
X7423869Y-36043975D01*
X7235272Y-36101185D01*
X7061463Y-36194088D01*
X6909117Y-36319117D01*
X6784088Y-36471463D01*
X6691185Y-36645272D01*
X6633975Y-36833869D01*
X6614658Y-37029999D01*
X6085341Y-37029999D01*
X6066024Y-36833868D01*
X6008814Y-36645273D01*
X6008814Y-36645272D01*
X5915911Y-36471463D01*
X5896900Y-36448298D01*
X5790883Y-36319117D01*
X5684864Y-36232109D01*
X5638536Y-36194088D01*
X5464727Y-36101185D01*
X5276130Y-36043975D01*
X5080000Y-36024658D01*
X4883869Y-36043975D01*
X4695272Y-36101185D01*
X4521463Y-36194088D01*
X4369117Y-36319117D01*
X4244088Y-36471463D01*
X4151185Y-36645272D01*
X4093975Y-36833869D01*
X4074658Y-37029999D01*
X2615500Y-37029999D01*
X2615500Y-35309747D01*
X4079500Y-35309747D01*
X4091133Y-35368231D01*
X4135447Y-35434552D01*
X4179762Y-35464162D01*
X4201769Y-35478867D01*
X4260252Y-35490500D01*
X5899747Y-35490500D01*
X5899748Y-35490500D01*
X5958231Y-35478867D01*
X6024552Y-35434552D01*
X6068867Y-35368231D01*
X6080500Y-35309748D01*
X6080500Y-34490000D01*
X6614658Y-34490000D01*
X6633975Y-34686130D01*
X6691185Y-34874727D01*
X6784088Y-35048536D01*
X6784090Y-35048538D01*
X6909117Y-35200883D01*
X7038298Y-35306900D01*
X7061463Y-35325911D01*
X7235272Y-35418814D01*
X7329570Y-35447419D01*
X7423868Y-35476024D01*
X7620000Y-35495341D01*
X7816132Y-35476024D01*
X8004727Y-35418814D01*
X8178538Y-35325910D01*
X8330883Y-35200883D01*
X8455910Y-35048538D01*
X8548814Y-34874727D01*
X8606024Y-34686132D01*
X8625341Y-34490000D01*
X9154658Y-34490000D01*
X9173975Y-34686130D01*
X9231185Y-34874727D01*
X9324088Y-35048536D01*
X9324090Y-35048538D01*
X9449117Y-35200883D01*
X9578298Y-35306900D01*
X9601463Y-35325911D01*
X9775272Y-35418814D01*
X9869570Y-35447419D01*
X9963868Y-35476024D01*
X10160000Y-35495341D01*
X10356132Y-35476024D01*
X10544727Y-35418814D01*
X10718538Y-35325910D01*
X10870883Y-35200883D01*
X10995910Y-35048538D01*
X11088814Y-34874727D01*
X11146024Y-34686132D01*
X11165341Y-34490000D01*
X11694658Y-34490000D01*
X11713975Y-34686130D01*
X11771185Y-34874727D01*
X11864088Y-35048536D01*
X11864090Y-35048538D01*
X11989117Y-35200883D01*
X12118298Y-35306900D01*
X12141463Y-35325911D01*
X12315272Y-35418814D01*
X12409570Y-35447419D01*
X12503868Y-35476024D01*
X12700000Y-35495341D01*
X12896132Y-35476024D01*
X13084727Y-35418814D01*
X13258538Y-35325910D01*
X13410883Y-35200883D01*
X13535910Y-35048538D01*
X13628814Y-34874727D01*
X13686024Y-34686132D01*
X13695492Y-34590000D01*
X14245010Y-34590000D01*
X14254469Y-34686034D01*
X14311649Y-34874536D01*
X14404504Y-35048254D01*
X14529472Y-35200527D01*
X14681745Y-35325495D01*
X14855463Y-35418350D01*
X15043965Y-35475530D01*
X15140000Y-35484990D01*
X15340000Y-35484990D01*
X15436034Y-35475530D01*
X15624536Y-35418350D01*
X15798254Y-35325495D01*
X15950527Y-35200527D01*
X16075495Y-35048254D01*
X16168350Y-34874536D01*
X16225530Y-34686034D01*
X16234990Y-34590000D01*
X15340001Y-34590000D01*
X15340000Y-34590001D01*
X15340000Y-35484990D01*
X15140000Y-35484990D01*
X15140000Y-34590001D01*
X15139999Y-34590000D01*
X14245010Y-34590000D01*
X13695492Y-34590000D01*
X13705341Y-34490000D01*
X13705341Y-34489999D01*
X16774658Y-34489999D01*
X16793975Y-34686130D01*
X16851185Y-34874727D01*
X16944088Y-35048536D01*
X16944090Y-35048538D01*
X17069117Y-35200883D01*
X17198298Y-35306900D01*
X17221463Y-35325911D01*
X17395272Y-35418814D01*
X17489570Y-35447419D01*
X17583868Y-35476024D01*
X17780000Y-35495341D01*
X17976132Y-35476024D01*
X18164727Y-35418814D01*
X18338538Y-35325910D01*
X18490883Y-35200883D01*
X18615910Y-35048538D01*
X18708814Y-34874727D01*
X18766024Y-34686132D01*
X18785341Y-34490000D01*
X18766024Y-34293868D01*
X18708814Y-34105273D01*
X18708814Y-34105272D01*
X18615911Y-33931463D01*
X18596900Y-33908298D01*
X18490883Y-33779117D01*
X18358233Y-33670253D01*
X18338536Y-33654088D01*
X18164727Y-33561185D01*
X17976130Y-33503975D01*
X17780000Y-33484658D01*
X17583869Y-33503975D01*
X17395272Y-33561185D01*
X17221463Y-33654088D01*
X17069117Y-33779117D01*
X16944088Y-33931463D01*
X16851185Y-34105272D01*
X16793975Y-34293869D01*
X16774658Y-34489999D01*
X13705341Y-34489999D01*
X13695492Y-34390000D01*
X14245009Y-34390000D01*
X15139999Y-34390000D01*
X15140000Y-34389999D01*
X15140000Y-33495009D01*
X15339999Y-33495009D01*
X15340000Y-33495010D01*
X15340000Y-34389999D01*
X15340001Y-34390000D01*
X16234990Y-34390000D01*
X16225530Y-34293965D01*
X16168350Y-34105463D01*
X16075495Y-33931745D01*
X15950527Y-33779472D01*
X15798254Y-33654504D01*
X15624536Y-33561649D01*
X15436034Y-33504469D01*
X15339999Y-33495009D01*
X15140000Y-33495009D01*
X15043965Y-33504469D01*
X14855463Y-33561649D01*
X14681745Y-33654504D01*
X14529472Y-33779472D01*
X14404504Y-33931745D01*
X14311649Y-34105463D01*
X14254469Y-34293965D01*
X14245009Y-34390000D01*
X13695492Y-34390000D01*
X13686024Y-34293868D01*
X13628814Y-34105273D01*
X13628814Y-34105272D01*
X13535911Y-33931463D01*
X13516900Y-33908298D01*
X13410883Y-33779117D01*
X13278233Y-33670253D01*
X13258536Y-33654088D01*
X13084727Y-33561185D01*
X12896130Y-33503975D01*
X12700000Y-33484658D01*
X12503869Y-33503975D01*
X12315272Y-33561185D01*
X12141463Y-33654088D01*
X11989117Y-33779117D01*
X11864088Y-33931463D01*
X11771185Y-34105272D01*
X11713975Y-34293869D01*
X11694658Y-34490000D01*
X11165341Y-34490000D01*
X11146024Y-34293868D01*
X11088814Y-34105273D01*
X11088814Y-34105272D01*
X10995911Y-33931463D01*
X10976900Y-33908298D01*
X10870883Y-33779117D01*
X10738233Y-33670253D01*
X10718536Y-33654088D01*
X10544727Y-33561185D01*
X10356130Y-33503975D01*
X10160000Y-33484658D01*
X9963869Y-33503975D01*
X9775272Y-33561185D01*
X9601463Y-33654088D01*
X9449117Y-33779117D01*
X9324088Y-33931463D01*
X9231185Y-34105272D01*
X9173975Y-34293869D01*
X9154658Y-34490000D01*
X8625341Y-34490000D01*
X8606024Y-34293868D01*
X8548814Y-34105273D01*
X8548814Y-34105272D01*
X8455911Y-33931463D01*
X8436900Y-33908298D01*
X8330883Y-33779117D01*
X8198233Y-33670253D01*
X8178536Y-33654088D01*
X8004727Y-33561185D01*
X7816130Y-33503975D01*
X7620000Y-33484658D01*
X7423869Y-33503975D01*
X7235272Y-33561185D01*
X7061463Y-33654088D01*
X6909117Y-33779117D01*
X6784088Y-33931463D01*
X6691185Y-34105272D01*
X6633975Y-34293869D01*
X6614658Y-34490000D01*
X6080500Y-34490000D01*
X6080500Y-33670252D01*
X6068867Y-33611769D01*
X6054162Y-33589761D01*
X6024552Y-33545447D01*
X5958231Y-33501133D01*
X5899748Y-33489500D01*
X4260252Y-33489500D01*
X4232556Y-33495009D01*
X4201768Y-33501133D01*
X4135447Y-33545447D01*
X4091133Y-33611768D01*
X4091132Y-33611769D01*
X4091133Y-33611769D01*
X4082633Y-33654504D01*
X4079500Y-33670253D01*
X4079500Y-35309747D01*
X2615500Y-35309747D01*
X2615500Y-28123433D01*
X3529500Y-28123433D01*
X3536953Y-28146373D01*
X3540579Y-28161474D01*
X3544353Y-28185302D01*
X3544353Y-28185303D01*
X3544354Y-28185304D01*
X3555305Y-28206796D01*
X3561247Y-28221141D01*
X3568704Y-28244090D01*
X3582885Y-28263610D01*
X3590998Y-28276850D01*
X3601949Y-28298342D01*
X4050504Y-28746897D01*
X4071964Y-28779015D01*
X4079500Y-28816901D01*
X4079500Y-30029747D01*
X4091133Y-30088231D01*
X4135447Y-30154552D01*
X4179762Y-30184162D01*
X4201769Y-30198867D01*
X4260252Y-30210500D01*
X5899747Y-30210500D01*
X5899748Y-30210500D01*
X5958231Y-30198867D01*
X6024552Y-30154552D01*
X6068867Y-30088231D01*
X6080500Y-30029748D01*
X6080500Y-28475901D01*
X6097185Y-28420900D01*
X6141614Y-28384437D01*
X6198814Y-28378803D01*
X6249504Y-28405897D01*
X6644035Y-28800428D01*
X6670064Y-28846377D01*
X6668768Y-28899170D01*
X6633975Y-29013868D01*
X6614658Y-29209999D01*
X6633975Y-29406130D01*
X6691185Y-29594727D01*
X6784088Y-29768536D01*
X6784090Y-29768538D01*
X6909117Y-29920883D01*
X7038298Y-30026900D01*
X7061463Y-30045911D01*
X7235272Y-30138814D01*
X7329570Y-30167418D01*
X7423868Y-30196024D01*
X7620000Y-30215341D01*
X7816132Y-30196024D01*
X8004727Y-30138814D01*
X8178538Y-30045910D01*
X8330883Y-29920883D01*
X8455910Y-29768538D01*
X8548814Y-29594727D01*
X8606024Y-29406132D01*
X8625341Y-29210000D01*
X8606024Y-29013868D01*
X8548814Y-28825273D01*
X8548814Y-28825272D01*
X8455911Y-28651463D01*
X8436900Y-28628298D01*
X8330883Y-28499117D01*
X8217295Y-28405897D01*
X8178536Y-28374088D01*
X8004727Y-28281185D01*
X7816130Y-28223975D01*
X7620000Y-28204658D01*
X7423868Y-28223975D01*
X7309170Y-28258768D01*
X7256377Y-28260064D01*
X7210428Y-28234035D01*
X6899496Y-27923103D01*
X6878036Y-27890985D01*
X6870500Y-27853099D01*
X6870500Y-27558510D01*
X6885859Y-27505545D01*
X6927172Y-27469015D01*
X6981619Y-27460255D01*
X7032305Y-27481982D01*
X7061462Y-27505911D01*
X7235272Y-27598814D01*
X7329570Y-27627418D01*
X7423868Y-27656024D01*
X7620000Y-27675341D01*
X7816132Y-27656024D01*
X8004727Y-27598814D01*
X8178538Y-27505910D01*
X8330883Y-27380883D01*
X8429212Y-27261070D01*
X8433972Y-27255270D01*
X8484096Y-27222661D01*
X8543852Y-27224862D01*
X8591441Y-27261070D01*
X8609500Y-27318075D01*
X8609500Y-28123433D01*
X8616953Y-28146373D01*
X8620579Y-28161474D01*
X8624353Y-28185302D01*
X8624353Y-28185303D01*
X8624354Y-28185304D01*
X8635305Y-28206796D01*
X8641247Y-28221141D01*
X8648704Y-28244090D01*
X8662885Y-28263610D01*
X8670998Y-28276850D01*
X8681949Y-28298342D01*
X9184035Y-28800428D01*
X9210064Y-28846377D01*
X9208768Y-28899170D01*
X9173975Y-29013868D01*
X9154658Y-29209999D01*
X9173975Y-29406130D01*
X9231185Y-29594727D01*
X9324088Y-29768536D01*
X9324090Y-29768538D01*
X9449117Y-29920883D01*
X9578298Y-30026900D01*
X9601463Y-30045911D01*
X9775272Y-30138814D01*
X9869570Y-30167418D01*
X9963868Y-30196024D01*
X10160000Y-30215341D01*
X10356132Y-30196024D01*
X10544727Y-30138814D01*
X10718538Y-30045910D01*
X10870883Y-29920883D01*
X10995910Y-29768538D01*
X11088814Y-29594727D01*
X11146024Y-29406132D01*
X11165341Y-29210000D01*
X11146024Y-29013868D01*
X11088814Y-28825273D01*
X11088814Y-28825272D01*
X10995911Y-28651463D01*
X10976900Y-28628298D01*
X10870883Y-28499117D01*
X10757295Y-28405897D01*
X10718536Y-28374088D01*
X10544727Y-28281185D01*
X10356130Y-28223975D01*
X10160000Y-28204658D01*
X9963868Y-28223975D01*
X9849170Y-28258768D01*
X9796377Y-28260064D01*
X9750428Y-28234035D01*
X9439496Y-27923103D01*
X9418036Y-27890985D01*
X9410500Y-27853099D01*
X9410500Y-27558510D01*
X9425859Y-27505545D01*
X9467172Y-27469015D01*
X9521619Y-27460255D01*
X9572305Y-27481982D01*
X9601462Y-27505911D01*
X9775272Y-27598814D01*
X9869570Y-27627418D01*
X9963868Y-27656024D01*
X10160000Y-27675341D01*
X10356132Y-27656024D01*
X10544727Y-27598814D01*
X10718538Y-27505910D01*
X10870883Y-27380883D01*
X10969212Y-27261070D01*
X10973972Y-27255270D01*
X11024096Y-27222661D01*
X11083852Y-27224862D01*
X11131441Y-27261070D01*
X11149500Y-27318075D01*
X11149500Y-28123433D01*
X11156953Y-28146373D01*
X11160579Y-28161474D01*
X11164353Y-28185302D01*
X11164353Y-28185303D01*
X11164354Y-28185304D01*
X11175305Y-28206796D01*
X11181247Y-28221141D01*
X11188704Y-28244090D01*
X11202885Y-28263610D01*
X11210998Y-28276850D01*
X11221949Y-28298342D01*
X11724035Y-28800428D01*
X11750064Y-28846377D01*
X11748768Y-28899170D01*
X11713975Y-29013868D01*
X11694658Y-29209999D01*
X11713975Y-29406130D01*
X11771185Y-29594727D01*
X11864088Y-29768536D01*
X11864090Y-29768538D01*
X11989117Y-29920883D01*
X12118298Y-30026900D01*
X12141463Y-30045911D01*
X12315272Y-30138814D01*
X12409570Y-30167418D01*
X12503868Y-30196024D01*
X12700000Y-30215341D01*
X12896132Y-30196024D01*
X13084727Y-30138814D01*
X13258538Y-30045910D01*
X13410883Y-29920883D01*
X13535910Y-29768538D01*
X13628814Y-29594727D01*
X13686024Y-29406132D01*
X13695492Y-29310000D01*
X14245010Y-29310000D01*
X14254469Y-29406034D01*
X14311649Y-29594536D01*
X14404504Y-29768254D01*
X14529472Y-29920527D01*
X14681745Y-30045495D01*
X14855463Y-30138350D01*
X15043965Y-30195530D01*
X15140000Y-30204990D01*
X15340000Y-30204990D01*
X15436034Y-30195530D01*
X15624536Y-30138350D01*
X15798254Y-30045495D01*
X15950527Y-29920527D01*
X16075495Y-29768254D01*
X16168350Y-29594536D01*
X16225530Y-29406034D01*
X16234990Y-29310000D01*
X15340001Y-29310000D01*
X15340000Y-29310001D01*
X15340000Y-30204990D01*
X15140000Y-30204990D01*
X15140000Y-29310001D01*
X15139999Y-29310000D01*
X14245010Y-29310000D01*
X13695492Y-29310000D01*
X13705341Y-29210000D01*
X13705341Y-29209999D01*
X16774658Y-29209999D01*
X16793975Y-29406130D01*
X16851185Y-29594727D01*
X16944088Y-29768536D01*
X16944090Y-29768538D01*
X17069117Y-29920883D01*
X17198298Y-30026900D01*
X17221463Y-30045911D01*
X17395272Y-30138814D01*
X17489570Y-30167418D01*
X17583868Y-30196024D01*
X17780000Y-30215341D01*
X17976132Y-30196024D01*
X18164727Y-30138814D01*
X18338538Y-30045910D01*
X18490883Y-29920883D01*
X18615910Y-29768538D01*
X18708814Y-29594727D01*
X18766024Y-29406132D01*
X18785341Y-29210000D01*
X18766024Y-29013868D01*
X18708814Y-28825273D01*
X18708814Y-28825272D01*
X18615911Y-28651463D01*
X18596900Y-28628298D01*
X18490883Y-28499117D01*
X18377295Y-28405897D01*
X18338536Y-28374088D01*
X18164727Y-28281185D01*
X17976130Y-28223975D01*
X17780000Y-28204658D01*
X17583869Y-28223975D01*
X17395272Y-28281185D01*
X17221463Y-28374088D01*
X17069117Y-28499117D01*
X16944088Y-28651463D01*
X16851185Y-28825272D01*
X16793975Y-29013869D01*
X16774658Y-29209999D01*
X13705341Y-29209999D01*
X13695492Y-29110000D01*
X14245009Y-29110000D01*
X15139999Y-29110000D01*
X15140000Y-29109999D01*
X15140000Y-28215009D01*
X15339999Y-28215009D01*
X15340000Y-28215010D01*
X15340000Y-29109999D01*
X15340001Y-29110000D01*
X16234990Y-29110000D01*
X16225530Y-29013965D01*
X16168350Y-28825463D01*
X16075495Y-28651745D01*
X15950527Y-28499472D01*
X15798254Y-28374504D01*
X15624536Y-28281649D01*
X15436034Y-28224469D01*
X15339999Y-28215009D01*
X15140000Y-28215009D01*
X15043965Y-28224469D01*
X14855463Y-28281649D01*
X14681745Y-28374504D01*
X14529472Y-28499472D01*
X14404504Y-28651745D01*
X14311649Y-28825463D01*
X14254469Y-29013965D01*
X14245009Y-29110000D01*
X13695492Y-29110000D01*
X13686024Y-29013868D01*
X13628814Y-28825273D01*
X13628814Y-28825272D01*
X13535911Y-28651463D01*
X13516900Y-28628298D01*
X13410883Y-28499117D01*
X13297295Y-28405897D01*
X13258536Y-28374088D01*
X13084727Y-28281185D01*
X12896130Y-28223975D01*
X12700000Y-28204658D01*
X12503868Y-28223975D01*
X12389170Y-28258768D01*
X12336377Y-28260064D01*
X12290428Y-28234035D01*
X11979496Y-27923103D01*
X11958036Y-27890985D01*
X11950500Y-27853099D01*
X11950500Y-27558510D01*
X11965859Y-27505545D01*
X12007172Y-27469015D01*
X12061619Y-27460255D01*
X12112305Y-27481982D01*
X12141462Y-27505911D01*
X12315272Y-27598814D01*
X12409570Y-27627418D01*
X12503868Y-27656024D01*
X12700000Y-27675341D01*
X12896132Y-27656024D01*
X13084727Y-27598814D01*
X13258538Y-27505910D01*
X13410883Y-27380883D01*
X13535910Y-27228538D01*
X13628814Y-27054727D01*
X13686024Y-26866132D01*
X13695492Y-26770000D01*
X14245010Y-26770000D01*
X14254469Y-26866034D01*
X14311649Y-27054536D01*
X14404504Y-27228254D01*
X14529472Y-27380527D01*
X14681745Y-27505495D01*
X14855463Y-27598350D01*
X15043965Y-27655530D01*
X15140000Y-27664990D01*
X15340000Y-27664990D01*
X15436034Y-27655530D01*
X15624536Y-27598350D01*
X15798254Y-27505495D01*
X15950527Y-27380527D01*
X16075495Y-27228254D01*
X16168350Y-27054536D01*
X16225530Y-26866034D01*
X16234990Y-26770000D01*
X15340001Y-26770000D01*
X15340000Y-26770001D01*
X15340000Y-27664990D01*
X15140000Y-27664990D01*
X15140000Y-26770001D01*
X15139999Y-26770000D01*
X14245010Y-26770000D01*
X13695492Y-26770000D01*
X13705341Y-26670000D01*
X16774658Y-26670000D01*
X16793975Y-26866130D01*
X16851185Y-27054727D01*
X16944088Y-27228536D01*
X16970788Y-27261070D01*
X17069117Y-27380883D01*
X17165832Y-27460255D01*
X17221463Y-27505911D01*
X17395272Y-27598814D01*
X17489570Y-27627418D01*
X17583868Y-27656024D01*
X17780000Y-27675341D01*
X17976132Y-27656024D01*
X18164727Y-27598814D01*
X18338538Y-27505910D01*
X18490883Y-27380883D01*
X18615910Y-27228538D01*
X18708814Y-27054727D01*
X18766024Y-26866132D01*
X18785341Y-26670000D01*
X18766024Y-26473868D01*
X18708814Y-26285273D01*
X18708814Y-26285272D01*
X18615911Y-26111463D01*
X18593971Y-26084730D01*
X18490883Y-25959117D01*
X18367694Y-25858018D01*
X18338536Y-25834088D01*
X18164727Y-25741185D01*
X17976130Y-25683975D01*
X17780000Y-25664658D01*
X17583869Y-25683975D01*
X17395272Y-25741185D01*
X17221463Y-25834088D01*
X17069117Y-25959117D01*
X16944088Y-26111463D01*
X16851185Y-26285272D01*
X16793975Y-26473869D01*
X16774658Y-26670000D01*
X13705341Y-26670000D01*
X13695492Y-26570000D01*
X14245009Y-26570000D01*
X15139999Y-26570000D01*
X15140000Y-26569999D01*
X15140000Y-25675009D01*
X15339999Y-25675009D01*
X15340000Y-25675010D01*
X15340000Y-26569999D01*
X15340001Y-26570000D01*
X16234990Y-26570000D01*
X16225530Y-26473965D01*
X16168350Y-26285463D01*
X16075495Y-26111745D01*
X15950527Y-25959472D01*
X15798254Y-25834504D01*
X15624536Y-25741649D01*
X15436034Y-25684469D01*
X15339999Y-25675009D01*
X15140000Y-25675009D01*
X15043965Y-25684469D01*
X14855463Y-25741649D01*
X14681745Y-25834504D01*
X14529472Y-25959472D01*
X14404504Y-26111745D01*
X14311649Y-26285463D01*
X14254469Y-26473965D01*
X14245009Y-26570000D01*
X13695492Y-26570000D01*
X13686024Y-26473868D01*
X13628814Y-26285273D01*
X13628814Y-26285272D01*
X13535911Y-26111463D01*
X13513971Y-26084730D01*
X13410883Y-25959117D01*
X13287694Y-25858018D01*
X13258536Y-25834088D01*
X13084727Y-25741185D01*
X12896130Y-25683975D01*
X12700000Y-25664658D01*
X12503869Y-25683975D01*
X12315272Y-25741185D01*
X12141462Y-25834088D01*
X12112305Y-25858018D01*
X12061619Y-25879745D01*
X12007172Y-25870985D01*
X11965859Y-25834455D01*
X11950500Y-25781490D01*
X11950500Y-22946900D01*
X11958036Y-22909014D01*
X11979496Y-22876897D01*
X12210177Y-22646215D01*
X12290429Y-22565962D01*
X12336376Y-22539934D01*
X12389169Y-22541229D01*
X12428100Y-22553039D01*
X12503870Y-22576025D01*
X12699999Y-22595341D01*
X12699999Y-22595340D01*
X12700000Y-22595341D01*
X12896132Y-22576024D01*
X13084727Y-22518814D01*
X13258538Y-22425910D01*
X13410883Y-22300883D01*
X13535910Y-22148538D01*
X13628814Y-21974727D01*
X13686024Y-21786132D01*
X13695492Y-21690000D01*
X14245010Y-21690000D01*
X14254469Y-21786034D01*
X14311649Y-21974536D01*
X14404504Y-22148254D01*
X14529472Y-22300527D01*
X14681745Y-22425495D01*
X14855463Y-22518350D01*
X15043965Y-22575530D01*
X15140000Y-22584990D01*
X15340000Y-22584990D01*
X15436034Y-22575530D01*
X15624536Y-22518350D01*
X15798254Y-22425495D01*
X15950527Y-22300527D01*
X16075495Y-22148254D01*
X16168350Y-21974536D01*
X16225530Y-21786034D01*
X16234990Y-21690000D01*
X15340001Y-21690000D01*
X15340000Y-21690001D01*
X15340000Y-22584990D01*
X15140000Y-22584990D01*
X15140000Y-21690001D01*
X15139999Y-21690000D01*
X14245010Y-21690000D01*
X13695492Y-21690000D01*
X13705341Y-21590000D01*
X16774658Y-21590000D01*
X16793975Y-21786130D01*
X16851185Y-21974727D01*
X16944088Y-22148536D01*
X16944090Y-22148538D01*
X17069117Y-22300883D01*
X17182704Y-22394102D01*
X17221463Y-22425911D01*
X17395272Y-22518814D01*
X17464896Y-22539934D01*
X17583868Y-22576024D01*
X17780000Y-22595341D01*
X17976132Y-22576024D01*
X18164727Y-22518814D01*
X18338538Y-22425910D01*
X18490883Y-22300883D01*
X18615910Y-22148538D01*
X18708814Y-21974727D01*
X18766024Y-21786132D01*
X18785341Y-21590000D01*
X18766024Y-21393868D01*
X18708814Y-21205273D01*
X18708814Y-21205272D01*
X18615911Y-21031463D01*
X18596900Y-21008298D01*
X18490883Y-20879117D01*
X18358233Y-20770253D01*
X18338536Y-20754088D01*
X18164727Y-20661185D01*
X17976130Y-20603975D01*
X17780000Y-20584658D01*
X17583869Y-20603975D01*
X17395272Y-20661185D01*
X17221463Y-20754088D01*
X17069117Y-20879117D01*
X16944088Y-21031463D01*
X16851185Y-21205272D01*
X16793975Y-21393869D01*
X16774658Y-21590000D01*
X13705341Y-21590000D01*
X13695492Y-21490000D01*
X14245009Y-21490000D01*
X15139999Y-21490000D01*
X15140000Y-21489999D01*
X15140000Y-20595009D01*
X15339999Y-20595009D01*
X15340000Y-20595010D01*
X15340000Y-21489999D01*
X15340001Y-21490000D01*
X16234990Y-21490000D01*
X16225530Y-21393965D01*
X16168350Y-21205463D01*
X16075495Y-21031745D01*
X15950527Y-20879472D01*
X15798254Y-20754504D01*
X15624536Y-20661649D01*
X15436034Y-20604469D01*
X15339999Y-20595009D01*
X15140000Y-20595009D01*
X15043965Y-20604469D01*
X14855463Y-20661649D01*
X14681745Y-20754504D01*
X14529472Y-20879472D01*
X14404504Y-21031745D01*
X14311649Y-21205463D01*
X14254469Y-21393965D01*
X14245009Y-21490000D01*
X13695492Y-21490000D01*
X13686024Y-21393868D01*
X13628814Y-21205273D01*
X13628814Y-21205272D01*
X13535911Y-21031463D01*
X13516900Y-21008298D01*
X13410883Y-20879117D01*
X13278233Y-20770253D01*
X13258536Y-20754088D01*
X13084727Y-20661185D01*
X12896130Y-20603975D01*
X12700000Y-20584658D01*
X12503869Y-20603975D01*
X12315272Y-20661185D01*
X12141463Y-20754088D01*
X11989117Y-20879117D01*
X11864088Y-21031463D01*
X11771185Y-21205272D01*
X11713975Y-21393869D01*
X11694658Y-21590000D01*
X11713975Y-21786130D01*
X11748768Y-21900828D01*
X11750064Y-21953621D01*
X11724035Y-21999569D01*
X11244516Y-22479090D01*
X11244516Y-22479091D01*
X11221949Y-22501658D01*
X11210997Y-22523151D01*
X11202887Y-22536386D01*
X11188704Y-22555908D01*
X11181249Y-22578853D01*
X11175305Y-22593200D01*
X11164352Y-22614695D01*
X11160577Y-22638528D01*
X11156953Y-22653624D01*
X11149500Y-22676565D01*
X11149500Y-26021925D01*
X11131441Y-26078930D01*
X11083852Y-26115138D01*
X11024096Y-26117339D01*
X10973972Y-26084730D01*
X10909500Y-26006172D01*
X10870883Y-25959117D01*
X10747694Y-25858018D01*
X10718536Y-25834088D01*
X10544727Y-25741185D01*
X10356130Y-25683975D01*
X10160000Y-25664658D01*
X9963869Y-25683975D01*
X9775272Y-25741185D01*
X9601462Y-25834088D01*
X9572305Y-25858018D01*
X9521619Y-25879745D01*
X9467172Y-25870985D01*
X9425859Y-25834455D01*
X9410500Y-25781490D01*
X9410500Y-22946900D01*
X9418036Y-22909014D01*
X9439496Y-22876897D01*
X9670177Y-22646215D01*
X9750429Y-22565962D01*
X9796376Y-22539934D01*
X9849169Y-22541229D01*
X9888100Y-22553039D01*
X9963870Y-22576025D01*
X10159999Y-22595341D01*
X10159999Y-22595340D01*
X10160000Y-22595341D01*
X10356132Y-22576024D01*
X10544727Y-22518814D01*
X10718538Y-22425910D01*
X10870883Y-22300883D01*
X10995910Y-22148538D01*
X11088814Y-21974727D01*
X11146024Y-21786132D01*
X11165341Y-21590000D01*
X11146024Y-21393868D01*
X11088814Y-21205273D01*
X11088814Y-21205272D01*
X10995911Y-21031463D01*
X10976900Y-21008298D01*
X10870883Y-20879117D01*
X10738233Y-20770253D01*
X10718536Y-20754088D01*
X10544727Y-20661185D01*
X10356130Y-20603975D01*
X10160000Y-20584658D01*
X9963869Y-20603975D01*
X9775272Y-20661185D01*
X9601463Y-20754088D01*
X9449117Y-20879117D01*
X9324088Y-21031463D01*
X9231185Y-21205272D01*
X9173975Y-21393869D01*
X9154658Y-21590000D01*
X9173975Y-21786130D01*
X9208768Y-21900828D01*
X9210064Y-21953621D01*
X9184035Y-21999569D01*
X8704516Y-22479090D01*
X8704516Y-22479091D01*
X8681949Y-22501658D01*
X8670997Y-22523151D01*
X8662887Y-22536386D01*
X8648704Y-22555908D01*
X8641249Y-22578853D01*
X8635305Y-22593200D01*
X8624352Y-22614695D01*
X8620577Y-22638528D01*
X8616953Y-22653624D01*
X8609500Y-22676565D01*
X8609500Y-26021925D01*
X8591441Y-26078930D01*
X8543852Y-26115138D01*
X8484096Y-26117339D01*
X8433972Y-26084730D01*
X8369500Y-26006172D01*
X8330883Y-25959117D01*
X8207694Y-25858018D01*
X8178536Y-25834088D01*
X8004727Y-25741185D01*
X7816130Y-25683975D01*
X7620000Y-25664658D01*
X7423869Y-25683975D01*
X7235272Y-25741185D01*
X7061462Y-25834088D01*
X7032305Y-25858018D01*
X6981619Y-25879745D01*
X6927172Y-25870985D01*
X6885859Y-25834455D01*
X6870500Y-25781490D01*
X6870500Y-22946900D01*
X6878036Y-22909014D01*
X6899496Y-22876897D01*
X7130177Y-22646215D01*
X7210429Y-22565962D01*
X7256376Y-22539934D01*
X7309169Y-22541229D01*
X7348100Y-22553039D01*
X7423870Y-22576025D01*
X7619999Y-22595341D01*
X7619999Y-22595340D01*
X7620000Y-22595341D01*
X7816132Y-22576024D01*
X8004727Y-22518814D01*
X8178538Y-22425910D01*
X8330883Y-22300883D01*
X8455910Y-22148538D01*
X8548814Y-21974727D01*
X8606024Y-21786132D01*
X8625341Y-21590000D01*
X8606024Y-21393868D01*
X8548814Y-21205273D01*
X8548814Y-21205272D01*
X8455911Y-21031463D01*
X8436900Y-21008298D01*
X8330883Y-20879117D01*
X8198233Y-20770253D01*
X8178536Y-20754088D01*
X8004727Y-20661185D01*
X7816130Y-20603975D01*
X7620000Y-20584658D01*
X7423869Y-20603975D01*
X7235272Y-20661185D01*
X7061463Y-20754088D01*
X6909117Y-20879117D01*
X6784088Y-21031463D01*
X6691185Y-21205272D01*
X6633975Y-21393869D01*
X6614658Y-21590000D01*
X6633975Y-21786130D01*
X6668768Y-21900828D01*
X6670064Y-21953621D01*
X6644035Y-21999569D01*
X6249504Y-22394102D01*
X6198814Y-22421197D01*
X6141614Y-22415563D01*
X6097185Y-22379101D01*
X6080500Y-22324099D01*
X6080500Y-20770253D01*
X6080500Y-20770252D01*
X6068867Y-20711769D01*
X6054162Y-20689761D01*
X6024552Y-20645447D01*
X5958231Y-20601133D01*
X5899748Y-20589500D01*
X4260252Y-20589500D01*
X4232556Y-20595009D01*
X4201768Y-20601133D01*
X4135447Y-20645447D01*
X4091133Y-20711768D01*
X4091132Y-20711769D01*
X4091133Y-20711769D01*
X4082633Y-20754504D01*
X4079500Y-20770253D01*
X4079500Y-21983099D01*
X4071964Y-22020985D01*
X4050504Y-22053103D01*
X3601949Y-22501658D01*
X3590997Y-22523151D01*
X3582887Y-22536386D01*
X3568704Y-22555908D01*
X3561249Y-22578853D01*
X3555305Y-22593200D01*
X3544352Y-22614695D01*
X3540577Y-22638528D01*
X3536953Y-22653624D01*
X3529500Y-22676565D01*
X3529500Y-28123433D01*
X2615500Y-28123433D01*
X2615500Y-19050000D01*
X4074658Y-19050000D01*
X4093975Y-19246130D01*
X4151185Y-19434727D01*
X4244088Y-19608536D01*
X4244090Y-19608538D01*
X4369117Y-19760883D01*
X4498298Y-19866900D01*
X4521463Y-19885911D01*
X4695272Y-19978814D01*
X4789570Y-20007418D01*
X4883868Y-20036024D01*
X5080000Y-20055341D01*
X5276132Y-20036024D01*
X5464727Y-19978814D01*
X5638538Y-19885910D01*
X5790883Y-19760883D01*
X5915910Y-19608538D01*
X6008814Y-19434727D01*
X6066024Y-19246132D01*
X6085341Y-19050000D01*
X6614658Y-19050000D01*
X6633975Y-19246130D01*
X6691185Y-19434727D01*
X6784088Y-19608536D01*
X6784090Y-19608538D01*
X6909117Y-19760883D01*
X7038298Y-19866900D01*
X7061463Y-19885911D01*
X7235272Y-19978814D01*
X7329570Y-20007418D01*
X7423868Y-20036024D01*
X7620000Y-20055341D01*
X7816132Y-20036024D01*
X8004727Y-19978814D01*
X8178538Y-19885910D01*
X8330883Y-19760883D01*
X8455910Y-19608538D01*
X8548814Y-19434727D01*
X8606024Y-19246132D01*
X8625341Y-19050000D01*
X9154658Y-19050000D01*
X9173975Y-19246130D01*
X9231185Y-19434727D01*
X9324088Y-19608536D01*
X9324090Y-19608538D01*
X9449117Y-19760883D01*
X9578298Y-19866900D01*
X9601463Y-19885911D01*
X9775272Y-19978814D01*
X9869570Y-20007418D01*
X9963868Y-20036024D01*
X10160000Y-20055341D01*
X10356132Y-20036024D01*
X10544727Y-19978814D01*
X10718538Y-19885910D01*
X10870883Y-19760883D01*
X10995910Y-19608538D01*
X11088814Y-19434727D01*
X11146024Y-19246132D01*
X11165341Y-19050000D01*
X11165341Y-19049999D01*
X11694658Y-19049999D01*
X11713975Y-19246130D01*
X11771185Y-19434727D01*
X11864088Y-19608536D01*
X11864090Y-19608538D01*
X11989117Y-19760883D01*
X12118298Y-19866900D01*
X12141463Y-19885911D01*
X12315272Y-19978814D01*
X12409570Y-20007418D01*
X12503868Y-20036024D01*
X12700000Y-20055341D01*
X12896132Y-20036024D01*
X13084727Y-19978814D01*
X13258538Y-19885910D01*
X13410883Y-19760883D01*
X13535910Y-19608538D01*
X13628814Y-19434727D01*
X13686024Y-19246132D01*
X13695492Y-19150000D01*
X14245010Y-19150000D01*
X14254469Y-19246034D01*
X14311649Y-19434536D01*
X14404504Y-19608254D01*
X14529472Y-19760527D01*
X14681745Y-19885495D01*
X14855463Y-19978350D01*
X15043965Y-20035530D01*
X15140000Y-20044990D01*
X15340000Y-20044990D01*
X15436034Y-20035530D01*
X15624536Y-19978350D01*
X15798254Y-19885495D01*
X15950527Y-19760527D01*
X16075495Y-19608254D01*
X16168350Y-19434536D01*
X16225530Y-19246034D01*
X16234990Y-19150000D01*
X15340001Y-19150000D01*
X15340000Y-19150001D01*
X15340000Y-20044990D01*
X15140000Y-20044990D01*
X15140000Y-19150001D01*
X15139999Y-19150000D01*
X14245010Y-19150000D01*
X13695492Y-19150000D01*
X13705341Y-19050000D01*
X16774658Y-19050000D01*
X16793975Y-19246130D01*
X16851185Y-19434727D01*
X16944088Y-19608536D01*
X16944090Y-19608538D01*
X17069117Y-19760883D01*
X17198298Y-19866900D01*
X17221463Y-19885911D01*
X17395272Y-19978814D01*
X17489570Y-20007418D01*
X17583868Y-20036024D01*
X17780000Y-20055341D01*
X17976132Y-20036024D01*
X18164727Y-19978814D01*
X18338538Y-19885910D01*
X18490883Y-19760883D01*
X18615910Y-19608538D01*
X18708814Y-19434727D01*
X18766024Y-19246132D01*
X18785341Y-19050000D01*
X18766024Y-18853868D01*
X18708814Y-18665273D01*
X18708814Y-18665272D01*
X18615911Y-18491463D01*
X18596900Y-18468298D01*
X18490883Y-18339117D01*
X18384864Y-18252109D01*
X18338536Y-18214088D01*
X18164727Y-18121185D01*
X17976130Y-18063975D01*
X17780000Y-18044658D01*
X17583869Y-18063975D01*
X17395272Y-18121185D01*
X17221463Y-18214088D01*
X17069117Y-18339117D01*
X16944088Y-18491463D01*
X16851185Y-18665272D01*
X16793975Y-18853869D01*
X16774658Y-19050000D01*
X13705341Y-19050000D01*
X13695492Y-18950000D01*
X14245009Y-18950000D01*
X15139999Y-18950000D01*
X15140000Y-18949999D01*
X15140000Y-18055009D01*
X15339999Y-18055009D01*
X15340000Y-18055010D01*
X15340000Y-18949999D01*
X15340001Y-18950000D01*
X16234990Y-18950000D01*
X16225530Y-18853965D01*
X16168350Y-18665463D01*
X16075495Y-18491745D01*
X15950527Y-18339472D01*
X15798254Y-18214504D01*
X15624536Y-18121649D01*
X15436034Y-18064469D01*
X15339999Y-18055009D01*
X15140000Y-18055009D01*
X15043965Y-18064469D01*
X14855463Y-18121649D01*
X14681745Y-18214504D01*
X14529472Y-18339472D01*
X14404504Y-18491745D01*
X14311649Y-18665463D01*
X14254469Y-18853965D01*
X14245009Y-18950000D01*
X13695492Y-18950000D01*
X13686024Y-18853868D01*
X13628814Y-18665273D01*
X13628814Y-18665272D01*
X13535911Y-18491463D01*
X13516900Y-18468298D01*
X13410883Y-18339117D01*
X13304864Y-18252109D01*
X13258536Y-18214088D01*
X13084727Y-18121185D01*
X12896130Y-18063975D01*
X12700000Y-18044658D01*
X12503869Y-18063975D01*
X12315272Y-18121185D01*
X12141463Y-18214088D01*
X11989117Y-18339117D01*
X11864088Y-18491463D01*
X11771185Y-18665272D01*
X11713975Y-18853869D01*
X11694658Y-19049999D01*
X11165341Y-19049999D01*
X11146024Y-18853868D01*
X11088814Y-18665273D01*
X11088814Y-18665272D01*
X10995911Y-18491463D01*
X10976900Y-18468298D01*
X10870883Y-18339117D01*
X10764864Y-18252109D01*
X10718536Y-18214088D01*
X10544727Y-18121185D01*
X10356130Y-18063975D01*
X10160000Y-18044658D01*
X9963869Y-18063975D01*
X9775272Y-18121185D01*
X9601463Y-18214088D01*
X9449117Y-18339117D01*
X9324088Y-18491463D01*
X9231185Y-18665272D01*
X9173975Y-18853869D01*
X9154658Y-19050000D01*
X8625341Y-19050000D01*
X8606024Y-18853868D01*
X8548814Y-18665273D01*
X8548814Y-18665272D01*
X8455911Y-18491463D01*
X8436900Y-18468298D01*
X8330883Y-18339117D01*
X8224864Y-18252109D01*
X8178536Y-18214088D01*
X8004727Y-18121185D01*
X7816130Y-18063975D01*
X7620000Y-18044658D01*
X7423869Y-18063975D01*
X7235272Y-18121185D01*
X7061463Y-18214088D01*
X6909117Y-18339117D01*
X6784088Y-18491463D01*
X6691185Y-18665272D01*
X6633975Y-18853869D01*
X6614658Y-19050000D01*
X6085341Y-19050000D01*
X6066024Y-18853868D01*
X6008814Y-18665273D01*
X6008814Y-18665272D01*
X5915911Y-18491463D01*
X5896900Y-18468298D01*
X5790883Y-18339117D01*
X5684864Y-18252109D01*
X5638536Y-18214088D01*
X5464727Y-18121185D01*
X5276130Y-18063975D01*
X5080000Y-18044658D01*
X4883869Y-18063975D01*
X4695272Y-18121185D01*
X4521463Y-18214088D01*
X4369117Y-18339117D01*
X4244088Y-18491463D01*
X4151185Y-18665272D01*
X4093975Y-18853869D01*
X4074658Y-19050000D01*
X2615500Y-19050000D01*
X2615500Y-10232281D01*
X2623036Y-10194395D01*
X2644496Y-10162277D01*
X3812277Y-8994496D01*
X3844395Y-8973036D01*
X3882281Y-8965500D01*
X18977719Y-8965500D01*
X19015605Y-8973036D01*
G37*
G04 #@! TD.AperFunction*
G04 #@! TD*
M02*
