M48
; DRILL file {KiCad 7.0.1} date Tue Mar 21 03:45:55 2023
; FORMAT={3:3/ absolute / metric / suppress leading zeros}
; #@! TF.CreationDate,2023-03-21T03:45:55+09:00
; #@! TF.GenerationSoftware,Kicad,Pcbnew,7.0.1
; #@! TF.FileFunction,Plated,1,2,PTH
FMAT,2
METRIC,TZ
; #@! TA.AperFunction,Plated,PTH,ViaDrill
T1C0.400
; #@! TA.AperFunction,Plated,PTH,ComponentDrill
T2C0.800
%
G90
G05
T1
X5100Y-23000
X5100Y-25000
X7700Y-23400
X7700Y-24900
X10300Y-23400
X10300Y-24900
X12800Y-23400
X12800Y-24900
T2
X5080Y-19050
X5080Y-21590
X5080Y-26670
X5080Y-29210
X5080Y-34490
X5080Y-37030
X7620Y-19050
X7620Y-21590
X7620Y-26670
X7620Y-29210
X7620Y-34490
X7620Y-37030
X10160Y-19050
X10160Y-21590
X10160Y-26670
X10160Y-29210
X10160Y-34490
X10160Y-37030
X12700Y-19050
X12700Y-21590
X12700Y-26670
X12700Y-29210
X12700Y-34490
X12700Y-37030
X15240Y-19050
X15240Y-21590
X15240Y-26670
X15240Y-29210
X15240Y-34490
X15240Y-37030
X17780Y-19050
X17780Y-21590
X17780Y-26670
X17780Y-29210
X17780Y-34490
X17780Y-37030
T0
M30
