G04 #@! TF.GenerationSoftware,KiCad,Pcbnew,7.0.1*
G04 #@! TF.CreationDate,2023-03-21T03:45:51+09:00*
G04 #@! TF.ProjectId,Pmod_Debug,506d6f64-5f44-4656-9275-672e6b696361,rev?*
G04 #@! TF.SameCoordinates,Original*
G04 #@! TF.FileFunction,Legend,Bot*
G04 #@! TF.FilePolarity,Positive*
%FSLAX46Y46*%
G04 Gerber Fmt 4.6, Leading zero omitted, Abs format (unit mm)*
G04 Created by KiCad (PCBNEW 7.0.1) date 2023-03-21 03:45:51*
%MOMM*%
%LPD*%
G01*
G04 APERTURE LIST*
%ADD10C,0.150000*%
%ADD11C,0.010000*%
G04 APERTURE END LIST*
D10*
X18861904Y-11632619D02*
X18861904Y-10632619D01*
X18861904Y-10632619D02*
X18480952Y-10632619D01*
X18480952Y-10632619D02*
X18385714Y-10680238D01*
X18385714Y-10680238D02*
X18338095Y-10727857D01*
X18338095Y-10727857D02*
X18290476Y-10823095D01*
X18290476Y-10823095D02*
X18290476Y-10965952D01*
X18290476Y-10965952D02*
X18338095Y-11061190D01*
X18338095Y-11061190D02*
X18385714Y-11108809D01*
X18385714Y-11108809D02*
X18480952Y-11156428D01*
X18480952Y-11156428D02*
X18861904Y-11156428D01*
X17861904Y-11632619D02*
X17861904Y-10965952D01*
X17861904Y-11061190D02*
X17814285Y-11013571D01*
X17814285Y-11013571D02*
X17719047Y-10965952D01*
X17719047Y-10965952D02*
X17576190Y-10965952D01*
X17576190Y-10965952D02*
X17480952Y-11013571D01*
X17480952Y-11013571D02*
X17433333Y-11108809D01*
X17433333Y-11108809D02*
X17433333Y-11632619D01*
X17433333Y-11108809D02*
X17385714Y-11013571D01*
X17385714Y-11013571D02*
X17290476Y-10965952D01*
X17290476Y-10965952D02*
X17147619Y-10965952D01*
X17147619Y-10965952D02*
X17052380Y-11013571D01*
X17052380Y-11013571D02*
X17004761Y-11108809D01*
X17004761Y-11108809D02*
X17004761Y-11632619D01*
X16385714Y-11632619D02*
X16480952Y-11585000D01*
X16480952Y-11585000D02*
X16528571Y-11537380D01*
X16528571Y-11537380D02*
X16576190Y-11442142D01*
X16576190Y-11442142D02*
X16576190Y-11156428D01*
X16576190Y-11156428D02*
X16528571Y-11061190D01*
X16528571Y-11061190D02*
X16480952Y-11013571D01*
X16480952Y-11013571D02*
X16385714Y-10965952D01*
X16385714Y-10965952D02*
X16242857Y-10965952D01*
X16242857Y-10965952D02*
X16147619Y-11013571D01*
X16147619Y-11013571D02*
X16100000Y-11061190D01*
X16100000Y-11061190D02*
X16052381Y-11156428D01*
X16052381Y-11156428D02*
X16052381Y-11442142D01*
X16052381Y-11442142D02*
X16100000Y-11537380D01*
X16100000Y-11537380D02*
X16147619Y-11585000D01*
X16147619Y-11585000D02*
X16242857Y-11632619D01*
X16242857Y-11632619D02*
X16385714Y-11632619D01*
X15195238Y-11632619D02*
X15195238Y-10632619D01*
X15195238Y-11585000D02*
X15290476Y-11632619D01*
X15290476Y-11632619D02*
X15480952Y-11632619D01*
X15480952Y-11632619D02*
X15576190Y-11585000D01*
X15576190Y-11585000D02*
X15623809Y-11537380D01*
X15623809Y-11537380D02*
X15671428Y-11442142D01*
X15671428Y-11442142D02*
X15671428Y-11156428D01*
X15671428Y-11156428D02*
X15623809Y-11061190D01*
X15623809Y-11061190D02*
X15576190Y-11013571D01*
X15576190Y-11013571D02*
X15480952Y-10965952D01*
X15480952Y-10965952D02*
X15290476Y-10965952D01*
X15290476Y-10965952D02*
X15195238Y-11013571D01*
X13957142Y-11632619D02*
X13957142Y-10632619D01*
X13957142Y-10632619D02*
X13719047Y-10632619D01*
X13719047Y-10632619D02*
X13576190Y-10680238D01*
X13576190Y-10680238D02*
X13480952Y-10775476D01*
X13480952Y-10775476D02*
X13433333Y-10870714D01*
X13433333Y-10870714D02*
X13385714Y-11061190D01*
X13385714Y-11061190D02*
X13385714Y-11204047D01*
X13385714Y-11204047D02*
X13433333Y-11394523D01*
X13433333Y-11394523D02*
X13480952Y-11489761D01*
X13480952Y-11489761D02*
X13576190Y-11585000D01*
X13576190Y-11585000D02*
X13719047Y-11632619D01*
X13719047Y-11632619D02*
X13957142Y-11632619D01*
X12576190Y-11585000D02*
X12671428Y-11632619D01*
X12671428Y-11632619D02*
X12861904Y-11632619D01*
X12861904Y-11632619D02*
X12957142Y-11585000D01*
X12957142Y-11585000D02*
X13004761Y-11489761D01*
X13004761Y-11489761D02*
X13004761Y-11108809D01*
X13004761Y-11108809D02*
X12957142Y-11013571D01*
X12957142Y-11013571D02*
X12861904Y-10965952D01*
X12861904Y-10965952D02*
X12671428Y-10965952D01*
X12671428Y-10965952D02*
X12576190Y-11013571D01*
X12576190Y-11013571D02*
X12528571Y-11108809D01*
X12528571Y-11108809D02*
X12528571Y-11204047D01*
X12528571Y-11204047D02*
X13004761Y-11299285D01*
X12099999Y-11632619D02*
X12099999Y-10632619D01*
X12099999Y-11013571D02*
X12004761Y-10965952D01*
X12004761Y-10965952D02*
X11814285Y-10965952D01*
X11814285Y-10965952D02*
X11719047Y-11013571D01*
X11719047Y-11013571D02*
X11671428Y-11061190D01*
X11671428Y-11061190D02*
X11623809Y-11156428D01*
X11623809Y-11156428D02*
X11623809Y-11442142D01*
X11623809Y-11442142D02*
X11671428Y-11537380D01*
X11671428Y-11537380D02*
X11719047Y-11585000D01*
X11719047Y-11585000D02*
X11814285Y-11632619D01*
X11814285Y-11632619D02*
X12004761Y-11632619D01*
X12004761Y-11632619D02*
X12099999Y-11585000D01*
X10766666Y-10965952D02*
X10766666Y-11632619D01*
X11195237Y-10965952D02*
X11195237Y-11489761D01*
X11195237Y-11489761D02*
X11147618Y-11585000D01*
X11147618Y-11585000D02*
X11052380Y-11632619D01*
X11052380Y-11632619D02*
X10909523Y-11632619D01*
X10909523Y-11632619D02*
X10814285Y-11585000D01*
X10814285Y-11585000D02*
X10766666Y-11537380D01*
X9861904Y-10965952D02*
X9861904Y-11775476D01*
X9861904Y-11775476D02*
X9909523Y-11870714D01*
X9909523Y-11870714D02*
X9957142Y-11918333D01*
X9957142Y-11918333D02*
X10052380Y-11965952D01*
X10052380Y-11965952D02*
X10195237Y-11965952D01*
X10195237Y-11965952D02*
X10290475Y-11918333D01*
X9861904Y-11585000D02*
X9957142Y-11632619D01*
X9957142Y-11632619D02*
X10147618Y-11632619D01*
X10147618Y-11632619D02*
X10242856Y-11585000D01*
X10242856Y-11585000D02*
X10290475Y-11537380D01*
X10290475Y-11537380D02*
X10338094Y-11442142D01*
X10338094Y-11442142D02*
X10338094Y-11156428D01*
X10338094Y-11156428D02*
X10290475Y-11061190D01*
X10290475Y-11061190D02*
X10242856Y-11013571D01*
X10242856Y-11013571D02*
X10147618Y-10965952D01*
X10147618Y-10965952D02*
X9957142Y-10965952D01*
X9957142Y-10965952D02*
X9861904Y-11013571D01*
X18290476Y-13252619D02*
X18623809Y-12776428D01*
X18861904Y-13252619D02*
X18861904Y-12252619D01*
X18861904Y-12252619D02*
X18480952Y-12252619D01*
X18480952Y-12252619D02*
X18385714Y-12300238D01*
X18385714Y-12300238D02*
X18338095Y-12347857D01*
X18338095Y-12347857D02*
X18290476Y-12443095D01*
X18290476Y-12443095D02*
X18290476Y-12585952D01*
X18290476Y-12585952D02*
X18338095Y-12681190D01*
X18338095Y-12681190D02*
X18385714Y-12728809D01*
X18385714Y-12728809D02*
X18480952Y-12776428D01*
X18480952Y-12776428D02*
X18861904Y-12776428D01*
X17480952Y-13205000D02*
X17576190Y-13252619D01*
X17576190Y-13252619D02*
X17766666Y-13252619D01*
X17766666Y-13252619D02*
X17861904Y-13205000D01*
X17861904Y-13205000D02*
X17909523Y-13109761D01*
X17909523Y-13109761D02*
X17909523Y-12728809D01*
X17909523Y-12728809D02*
X17861904Y-12633571D01*
X17861904Y-12633571D02*
X17766666Y-12585952D01*
X17766666Y-12585952D02*
X17576190Y-12585952D01*
X17576190Y-12585952D02*
X17480952Y-12633571D01*
X17480952Y-12633571D02*
X17433333Y-12728809D01*
X17433333Y-12728809D02*
X17433333Y-12824047D01*
X17433333Y-12824047D02*
X17909523Y-12919285D01*
X17099999Y-12585952D02*
X16861904Y-13252619D01*
X16861904Y-13252619D02*
X16623809Y-12585952D01*
X16242856Y-13157380D02*
X16195237Y-13205000D01*
X16195237Y-13205000D02*
X16242856Y-13252619D01*
X16242856Y-13252619D02*
X16290475Y-13205000D01*
X16290475Y-13205000D02*
X16242856Y-13157380D01*
X16242856Y-13157380D02*
X16242856Y-13252619D01*
X15814285Y-12966904D02*
X15338095Y-12966904D01*
X15909523Y-13252619D02*
X15576190Y-12252619D01*
X15576190Y-12252619D02*
X15242857Y-13252619D01*
X18909523Y-13967857D02*
X18861904Y-13920238D01*
X18861904Y-13920238D02*
X18766666Y-13872619D01*
X18766666Y-13872619D02*
X18528571Y-13872619D01*
X18528571Y-13872619D02*
X18433333Y-13920238D01*
X18433333Y-13920238D02*
X18385714Y-13967857D01*
X18385714Y-13967857D02*
X18338095Y-14063095D01*
X18338095Y-14063095D02*
X18338095Y-14158333D01*
X18338095Y-14158333D02*
X18385714Y-14301190D01*
X18385714Y-14301190D02*
X18957142Y-14872619D01*
X18957142Y-14872619D02*
X18338095Y-14872619D01*
X17719047Y-13872619D02*
X17623809Y-13872619D01*
X17623809Y-13872619D02*
X17528571Y-13920238D01*
X17528571Y-13920238D02*
X17480952Y-13967857D01*
X17480952Y-13967857D02*
X17433333Y-14063095D01*
X17433333Y-14063095D02*
X17385714Y-14253571D01*
X17385714Y-14253571D02*
X17385714Y-14491666D01*
X17385714Y-14491666D02*
X17433333Y-14682142D01*
X17433333Y-14682142D02*
X17480952Y-14777380D01*
X17480952Y-14777380D02*
X17528571Y-14825000D01*
X17528571Y-14825000D02*
X17623809Y-14872619D01*
X17623809Y-14872619D02*
X17719047Y-14872619D01*
X17719047Y-14872619D02*
X17814285Y-14825000D01*
X17814285Y-14825000D02*
X17861904Y-14777380D01*
X17861904Y-14777380D02*
X17909523Y-14682142D01*
X17909523Y-14682142D02*
X17957142Y-14491666D01*
X17957142Y-14491666D02*
X17957142Y-14253571D01*
X17957142Y-14253571D02*
X17909523Y-14063095D01*
X17909523Y-14063095D02*
X17861904Y-13967857D01*
X17861904Y-13967857D02*
X17814285Y-13920238D01*
X17814285Y-13920238D02*
X17719047Y-13872619D01*
X17004761Y-13967857D02*
X16957142Y-13920238D01*
X16957142Y-13920238D02*
X16861904Y-13872619D01*
X16861904Y-13872619D02*
X16623809Y-13872619D01*
X16623809Y-13872619D02*
X16528571Y-13920238D01*
X16528571Y-13920238D02*
X16480952Y-13967857D01*
X16480952Y-13967857D02*
X16433333Y-14063095D01*
X16433333Y-14063095D02*
X16433333Y-14158333D01*
X16433333Y-14158333D02*
X16480952Y-14301190D01*
X16480952Y-14301190D02*
X17052380Y-14872619D01*
X17052380Y-14872619D02*
X16433333Y-14872619D01*
X16099999Y-13872619D02*
X15480952Y-13872619D01*
X15480952Y-13872619D02*
X15814285Y-14253571D01*
X15814285Y-14253571D02*
X15671428Y-14253571D01*
X15671428Y-14253571D02*
X15576190Y-14301190D01*
X15576190Y-14301190D02*
X15528571Y-14348809D01*
X15528571Y-14348809D02*
X15480952Y-14444047D01*
X15480952Y-14444047D02*
X15480952Y-14682142D01*
X15480952Y-14682142D02*
X15528571Y-14777380D01*
X15528571Y-14777380D02*
X15576190Y-14825000D01*
X15576190Y-14825000D02*
X15671428Y-14872619D01*
X15671428Y-14872619D02*
X15957142Y-14872619D01*
X15957142Y-14872619D02*
X16052380Y-14825000D01*
X16052380Y-14825000D02*
X16099999Y-14777380D01*
X15052380Y-14491666D02*
X14290476Y-14491666D01*
X13623809Y-13872619D02*
X13528571Y-13872619D01*
X13528571Y-13872619D02*
X13433333Y-13920238D01*
X13433333Y-13920238D02*
X13385714Y-13967857D01*
X13385714Y-13967857D02*
X13338095Y-14063095D01*
X13338095Y-14063095D02*
X13290476Y-14253571D01*
X13290476Y-14253571D02*
X13290476Y-14491666D01*
X13290476Y-14491666D02*
X13338095Y-14682142D01*
X13338095Y-14682142D02*
X13385714Y-14777380D01*
X13385714Y-14777380D02*
X13433333Y-14825000D01*
X13433333Y-14825000D02*
X13528571Y-14872619D01*
X13528571Y-14872619D02*
X13623809Y-14872619D01*
X13623809Y-14872619D02*
X13719047Y-14825000D01*
X13719047Y-14825000D02*
X13766666Y-14777380D01*
X13766666Y-14777380D02*
X13814285Y-14682142D01*
X13814285Y-14682142D02*
X13861904Y-14491666D01*
X13861904Y-14491666D02*
X13861904Y-14253571D01*
X13861904Y-14253571D02*
X13814285Y-14063095D01*
X13814285Y-14063095D02*
X13766666Y-13967857D01*
X13766666Y-13967857D02*
X13719047Y-13920238D01*
X13719047Y-13920238D02*
X13623809Y-13872619D01*
X12957142Y-13872619D02*
X12338095Y-13872619D01*
X12338095Y-13872619D02*
X12671428Y-14253571D01*
X12671428Y-14253571D02*
X12528571Y-14253571D01*
X12528571Y-14253571D02*
X12433333Y-14301190D01*
X12433333Y-14301190D02*
X12385714Y-14348809D01*
X12385714Y-14348809D02*
X12338095Y-14444047D01*
X12338095Y-14444047D02*
X12338095Y-14682142D01*
X12338095Y-14682142D02*
X12385714Y-14777380D01*
X12385714Y-14777380D02*
X12433333Y-14825000D01*
X12433333Y-14825000D02*
X12528571Y-14872619D01*
X12528571Y-14872619D02*
X12814285Y-14872619D01*
X12814285Y-14872619D02*
X12909523Y-14825000D01*
X12909523Y-14825000D02*
X12957142Y-14777380D01*
X11909523Y-14491666D02*
X11147619Y-14491666D01*
X10147619Y-14872619D02*
X10719047Y-14872619D01*
X10433333Y-14872619D02*
X10433333Y-13872619D01*
X10433333Y-13872619D02*
X10528571Y-14015476D01*
X10528571Y-14015476D02*
X10623809Y-14110714D01*
X10623809Y-14110714D02*
X10719047Y-14158333D01*
X9242857Y-13872619D02*
X9719047Y-13872619D01*
X9719047Y-13872619D02*
X9766666Y-14348809D01*
X9766666Y-14348809D02*
X9719047Y-14301190D01*
X9719047Y-14301190D02*
X9623809Y-14253571D01*
X9623809Y-14253571D02*
X9385714Y-14253571D01*
X9385714Y-14253571D02*
X9290476Y-14301190D01*
X9290476Y-14301190D02*
X9242857Y-14348809D01*
X9242857Y-14348809D02*
X9195238Y-14444047D01*
X9195238Y-14444047D02*
X9195238Y-14682142D01*
X9195238Y-14682142D02*
X9242857Y-14777380D01*
X9242857Y-14777380D02*
X9290476Y-14825000D01*
X9290476Y-14825000D02*
X9385714Y-14872619D01*
X9385714Y-14872619D02*
X9623809Y-14872619D01*
X9623809Y-14872619D02*
X9719047Y-14825000D01*
X9719047Y-14825000D02*
X9766666Y-14777380D01*
X18242857Y-16016428D02*
X18290476Y-15968809D01*
X18290476Y-15968809D02*
X18385714Y-15921190D01*
X18385714Y-15921190D02*
X18480952Y-15921190D01*
X18480952Y-15921190D02*
X18576190Y-15968809D01*
X18576190Y-15968809D02*
X18623809Y-16016428D01*
X18623809Y-16016428D02*
X18671428Y-16111666D01*
X18671428Y-16111666D02*
X18671428Y-16206904D01*
X18671428Y-16206904D02*
X18623809Y-16302142D01*
X18623809Y-16302142D02*
X18576190Y-16349761D01*
X18576190Y-16349761D02*
X18480952Y-16397380D01*
X18480952Y-16397380D02*
X18385714Y-16397380D01*
X18385714Y-16397380D02*
X18290476Y-16349761D01*
X18290476Y-16349761D02*
X18242857Y-16302142D01*
X18242857Y-15921190D02*
X18242857Y-16302142D01*
X18242857Y-16302142D02*
X18195238Y-16349761D01*
X18195238Y-16349761D02*
X18147619Y-16349761D01*
X18147619Y-16349761D02*
X18052380Y-16302142D01*
X18052380Y-16302142D02*
X18004761Y-16206904D01*
X18004761Y-16206904D02*
X18004761Y-15968809D01*
X18004761Y-15968809D02*
X18100000Y-15825952D01*
X18100000Y-15825952D02*
X18242857Y-15730714D01*
X18242857Y-15730714D02*
X18433333Y-15683095D01*
X18433333Y-15683095D02*
X18623809Y-15730714D01*
X18623809Y-15730714D02*
X18766666Y-15825952D01*
X18766666Y-15825952D02*
X18861904Y-15968809D01*
X18861904Y-15968809D02*
X18909523Y-16159285D01*
X18909523Y-16159285D02*
X18861904Y-16349761D01*
X18861904Y-16349761D02*
X18766666Y-16492619D01*
X18766666Y-16492619D02*
X18623809Y-16587857D01*
X18623809Y-16587857D02*
X18433333Y-16635476D01*
X18433333Y-16635476D02*
X18242857Y-16587857D01*
X18242857Y-16587857D02*
X18100000Y-16492619D01*
X17147619Y-16445000D02*
X17242857Y-16492619D01*
X17242857Y-16492619D02*
X17433333Y-16492619D01*
X17433333Y-16492619D02*
X17528571Y-16445000D01*
X17528571Y-16445000D02*
X17576190Y-16397380D01*
X17576190Y-16397380D02*
X17623809Y-16302142D01*
X17623809Y-16302142D02*
X17623809Y-16016428D01*
X17623809Y-16016428D02*
X17576190Y-15921190D01*
X17576190Y-15921190D02*
X17528571Y-15873571D01*
X17528571Y-15873571D02*
X17433333Y-15825952D01*
X17433333Y-15825952D02*
X17242857Y-15825952D01*
X17242857Y-15825952D02*
X17147619Y-15873571D01*
X16719047Y-16492619D02*
X16719047Y-15825952D01*
X16719047Y-15492619D02*
X16766666Y-15540238D01*
X16766666Y-15540238D02*
X16719047Y-15587857D01*
X16719047Y-15587857D02*
X16671428Y-15540238D01*
X16671428Y-15540238D02*
X16719047Y-15492619D01*
X16719047Y-15492619D02*
X16719047Y-15587857D01*
X16242857Y-15825952D02*
X16242857Y-16492619D01*
X16242857Y-15921190D02*
X16195238Y-15873571D01*
X16195238Y-15873571D02*
X16100000Y-15825952D01*
X16100000Y-15825952D02*
X15957143Y-15825952D01*
X15957143Y-15825952D02*
X15861905Y-15873571D01*
X15861905Y-15873571D02*
X15814286Y-15968809D01*
X15814286Y-15968809D02*
X15814286Y-16492619D01*
X15338095Y-16492619D02*
X15338095Y-15825952D01*
X15338095Y-15492619D02*
X15385714Y-15540238D01*
X15385714Y-15540238D02*
X15338095Y-15587857D01*
X15338095Y-15587857D02*
X15290476Y-15540238D01*
X15290476Y-15540238D02*
X15338095Y-15492619D01*
X15338095Y-15492619D02*
X15338095Y-15587857D01*
X14861905Y-16492619D02*
X14861905Y-15825952D01*
X14861905Y-15921190D02*
X14814286Y-15873571D01*
X14814286Y-15873571D02*
X14719048Y-15825952D01*
X14719048Y-15825952D02*
X14576191Y-15825952D01*
X14576191Y-15825952D02*
X14480953Y-15873571D01*
X14480953Y-15873571D02*
X14433334Y-15968809D01*
X14433334Y-15968809D02*
X14433334Y-16492619D01*
X14433334Y-15968809D02*
X14385715Y-15873571D01*
X14385715Y-15873571D02*
X14290477Y-15825952D01*
X14290477Y-15825952D02*
X14147620Y-15825952D01*
X14147620Y-15825952D02*
X14052381Y-15873571D01*
X14052381Y-15873571D02*
X14004762Y-15968809D01*
X14004762Y-15968809D02*
X14004762Y-16492619D01*
X13385715Y-16492619D02*
X13480953Y-16445000D01*
X13480953Y-16445000D02*
X13528572Y-16349761D01*
X13528572Y-16349761D02*
X13528572Y-15492619D01*
G04 #@! TO.C,LOGO1*
D11*
X3859841Y-13812537D02*
X3937612Y-13868176D01*
X3982931Y-13911515D01*
X4016216Y-13973551D01*
X4024444Y-14061925D01*
X4015175Y-14149721D01*
X3965951Y-14256972D01*
X3905464Y-14311088D01*
X3815103Y-14331334D01*
X3768002Y-14327335D01*
X3682839Y-14286684D01*
X3632055Y-14201733D01*
X3615222Y-14071927D01*
X3615235Y-14065353D01*
X3621342Y-13975002D01*
X3644738Y-13915521D01*
X3694407Y-13863223D01*
X3733466Y-13831852D01*
X3798185Y-13800560D01*
X3859841Y-13812537D01*
G36*
X3859841Y-13812537D02*
G01*
X3937612Y-13868176D01*
X3982931Y-13911515D01*
X4016216Y-13973551D01*
X4024444Y-14061925D01*
X4015175Y-14149721D01*
X3965951Y-14256972D01*
X3905464Y-14311088D01*
X3815103Y-14331334D01*
X3768002Y-14327335D01*
X3682839Y-14286684D01*
X3632055Y-14201733D01*
X3615222Y-14071927D01*
X3615235Y-14065353D01*
X3621342Y-13975002D01*
X3644738Y-13915521D01*
X3694407Y-13863223D01*
X3733466Y-13831852D01*
X3798185Y-13800560D01*
X3859841Y-13812537D01*
G37*
X3297960Y-13664318D02*
X3389872Y-13739113D01*
X3405827Y-13756709D01*
X3446958Y-13826850D01*
X3444982Y-13897724D01*
X3397671Y-13977949D01*
X3302798Y-14076145D01*
X3252165Y-14121382D01*
X3190198Y-14166674D01*
X3139587Y-14183104D01*
X3083602Y-14178483D01*
X3010413Y-14164971D01*
X2959055Y-14156825D01*
X2940240Y-14136614D01*
X2927766Y-14069347D01*
X2923778Y-13950632D01*
X2923778Y-13748672D01*
X3048856Y-13686205D01*
X3099286Y-13663428D01*
X3205770Y-13639814D01*
X3297960Y-13664318D01*
G36*
X3297960Y-13664318D02*
G01*
X3389872Y-13739113D01*
X3405827Y-13756709D01*
X3446958Y-13826850D01*
X3444982Y-13897724D01*
X3397671Y-13977949D01*
X3302798Y-14076145D01*
X3252165Y-14121382D01*
X3190198Y-14166674D01*
X3139587Y-14183104D01*
X3083602Y-14178483D01*
X3010413Y-14164971D01*
X2959055Y-14156825D01*
X2940240Y-14136614D01*
X2927766Y-14069347D01*
X2923778Y-13950632D01*
X2923778Y-13748672D01*
X3048856Y-13686205D01*
X3099286Y-13663428D01*
X3205770Y-13639814D01*
X3297960Y-13664318D01*
G37*
X8942438Y-12684694D02*
X9017612Y-12739287D01*
X9026228Y-12746562D01*
X9063910Y-12781834D01*
X9087001Y-12818454D01*
X9099073Y-12870198D01*
X9103697Y-12950838D01*
X9104444Y-13074147D01*
X9104331Y-13114069D01*
X9101259Y-13231630D01*
X9092145Y-13310761D01*
X9074530Y-13365605D01*
X9045951Y-13410305D01*
X9010850Y-13444945D01*
X8923103Y-13483052D01*
X8829438Y-13476831D01*
X8748985Y-13425316D01*
X8722756Y-13385983D01*
X8704341Y-13326324D01*
X8692719Y-13235355D01*
X8685434Y-13100524D01*
X8675646Y-12835084D01*
X8766030Y-12750653D01*
X8821762Y-12702561D01*
X8883435Y-12672168D01*
X8942438Y-12684694D01*
G36*
X8942438Y-12684694D02*
G01*
X9017612Y-12739287D01*
X9026228Y-12746562D01*
X9063910Y-12781834D01*
X9087001Y-12818454D01*
X9099073Y-12870198D01*
X9103697Y-12950838D01*
X9104444Y-13074147D01*
X9104331Y-13114069D01*
X9101259Y-13231630D01*
X9092145Y-13310761D01*
X9074530Y-13365605D01*
X9045951Y-13410305D01*
X9010850Y-13444945D01*
X8923103Y-13483052D01*
X8829438Y-13476831D01*
X8748985Y-13425316D01*
X8722756Y-13385983D01*
X8704341Y-13326324D01*
X8692719Y-13235355D01*
X8685434Y-13100524D01*
X8675646Y-12835084D01*
X8766030Y-12750653D01*
X8821762Y-12702561D01*
X8883435Y-12672168D01*
X8942438Y-12684694D01*
G37*
X8323349Y-10396260D02*
X8392381Y-10431558D01*
X8463148Y-10489608D01*
X8517976Y-10553727D01*
X8540000Y-10607474D01*
X8524508Y-10660111D01*
X8485305Y-10724366D01*
X8444002Y-10791100D01*
X8410240Y-10876339D01*
X8398229Y-10904633D01*
X8351105Y-10976787D01*
X8279064Y-11067401D01*
X8192054Y-11163389D01*
X8156184Y-11200188D01*
X8069240Y-11284594D01*
X8005189Y-11335815D01*
X7953741Y-11361175D01*
X7904604Y-11368000D01*
X7887765Y-11367440D01*
X7795162Y-11336272D01*
X7732754Y-11257485D01*
X7700657Y-11131215D01*
X7697118Y-11096204D01*
X7697559Y-11038588D01*
X7714966Y-10989528D01*
X7756918Y-10932799D01*
X7830995Y-10852176D01*
X7839127Y-10843491D01*
X7908170Y-10762102D01*
X7957022Y-10691040D01*
X7975555Y-10644831D01*
X7992390Y-10576829D01*
X8051213Y-10496708D01*
X8136828Y-10432153D01*
X8232964Y-10394793D01*
X8323349Y-10396260D01*
G36*
X8323349Y-10396260D02*
G01*
X8392381Y-10431558D01*
X8463148Y-10489608D01*
X8517976Y-10553727D01*
X8540000Y-10607474D01*
X8524508Y-10660111D01*
X8485305Y-10724366D01*
X8444002Y-10791100D01*
X8410240Y-10876339D01*
X8398229Y-10904633D01*
X8351105Y-10976787D01*
X8279064Y-11067401D01*
X8192054Y-11163389D01*
X8156184Y-11200188D01*
X8069240Y-11284594D01*
X8005189Y-11335815D01*
X7953741Y-11361175D01*
X7904604Y-11368000D01*
X7887765Y-11367440D01*
X7795162Y-11336272D01*
X7732754Y-11257485D01*
X7700657Y-11131215D01*
X7697118Y-11096204D01*
X7697559Y-11038588D01*
X7714966Y-10989528D01*
X7756918Y-10932799D01*
X7830995Y-10852176D01*
X7839127Y-10843491D01*
X7908170Y-10762102D01*
X7957022Y-10691040D01*
X7975555Y-10644831D01*
X7992390Y-10576829D01*
X8051213Y-10496708D01*
X8136828Y-10432153D01*
X8232964Y-10394793D01*
X8323349Y-10396260D01*
G37*
X6921379Y-11961893D02*
X6976154Y-11986813D01*
X7042057Y-12033731D01*
X7092204Y-12082755D01*
X7121719Y-12143628D01*
X7128889Y-12232496D01*
X7127173Y-12281912D01*
X7112708Y-12347449D01*
X7075428Y-12410450D01*
X7005745Y-12491043D01*
X6950318Y-12557359D01*
X6886715Y-12650962D01*
X6848363Y-12729635D01*
X6843485Y-12743513D01*
X6802299Y-12823042D01*
X6753560Y-12877802D01*
X6733647Y-12888716D01*
X6650975Y-12911504D01*
X6546102Y-12920222D01*
X6525606Y-12920107D01*
X6440053Y-12913542D01*
X6385496Y-12891354D01*
X6340715Y-12845861D01*
X6321861Y-12820869D01*
X6287938Y-12754023D01*
X6296770Y-12693642D01*
X6349124Y-12618999D01*
X6351172Y-12616526D01*
X6402903Y-12534986D01*
X6435309Y-12450798D01*
X6439226Y-12438479D01*
X6476090Y-12375821D01*
X6540502Y-12293488D01*
X6622071Y-12202165D01*
X6710403Y-12112537D01*
X6795105Y-12035288D01*
X6865785Y-11981103D01*
X6912049Y-11960667D01*
X6921379Y-11961893D01*
G36*
X6921379Y-11961893D02*
G01*
X6976154Y-11986813D01*
X7042057Y-12033731D01*
X7092204Y-12082755D01*
X7121719Y-12143628D01*
X7128889Y-12232496D01*
X7127173Y-12281912D01*
X7112708Y-12347449D01*
X7075428Y-12410450D01*
X7005745Y-12491043D01*
X6950318Y-12557359D01*
X6886715Y-12650962D01*
X6848363Y-12729635D01*
X6843485Y-12743513D01*
X6802299Y-12823042D01*
X6753560Y-12877802D01*
X6733647Y-12888716D01*
X6650975Y-12911504D01*
X6546102Y-12920222D01*
X6525606Y-12920107D01*
X6440053Y-12913542D01*
X6385496Y-12891354D01*
X6340715Y-12845861D01*
X6321861Y-12820869D01*
X6287938Y-12754023D01*
X6296770Y-12693642D01*
X6349124Y-12618999D01*
X6351172Y-12616526D01*
X6402903Y-12534986D01*
X6435309Y-12450798D01*
X6439226Y-12438479D01*
X6476090Y-12375821D01*
X6540502Y-12293488D01*
X6622071Y-12202165D01*
X6710403Y-12112537D01*
X6795105Y-12035288D01*
X6865785Y-11981103D01*
X6912049Y-11960667D01*
X6921379Y-11961893D01*
G37*
X4543993Y-14377615D02*
X4632562Y-14429220D01*
X4693663Y-14483182D01*
X4723226Y-14540537D01*
X4730000Y-14625297D01*
X4717665Y-14726260D01*
X4678072Y-14814361D01*
X4677487Y-14815123D01*
X4631363Y-14890983D01*
X4593053Y-14978612D01*
X4590868Y-14984875D01*
X4556885Y-15063020D01*
X4521549Y-15119723D01*
X4516867Y-15125546D01*
X4481885Y-15187131D01*
X4449902Y-15267465D01*
X4445070Y-15281712D01*
X4411682Y-15356176D01*
X4377593Y-15403470D01*
X4346544Y-15446749D01*
X4320640Y-15517292D01*
X4293583Y-15591350D01*
X4246222Y-15670564D01*
X4189421Y-15721336D01*
X4097326Y-15742445D01*
X4013553Y-15728680D01*
X3948419Y-15678163D01*
X3907988Y-15585088D01*
X3888290Y-15443786D01*
X3884598Y-15364115D01*
X3889173Y-15283755D01*
X3909561Y-15221334D01*
X3950555Y-15154589D01*
X3970562Y-15124005D01*
X4009128Y-15052141D01*
X4024444Y-15002260D01*
X4025277Y-14994267D01*
X4048930Y-14938614D01*
X4095000Y-14872703D01*
X4104611Y-14860716D01*
X4147947Y-14789112D01*
X4165555Y-14728217D01*
X4174180Y-14697543D01*
X4215251Y-14629604D01*
X4278941Y-14548928D01*
X4352709Y-14469696D01*
X4424010Y-14406093D01*
X4480303Y-14372301D01*
X4543993Y-14377615D01*
G36*
X4543993Y-14377615D02*
G01*
X4632562Y-14429220D01*
X4693663Y-14483182D01*
X4723226Y-14540537D01*
X4730000Y-14625297D01*
X4717665Y-14726260D01*
X4678072Y-14814361D01*
X4677487Y-14815123D01*
X4631363Y-14890983D01*
X4593053Y-14978612D01*
X4590868Y-14984875D01*
X4556885Y-15063020D01*
X4521549Y-15119723D01*
X4516867Y-15125546D01*
X4481885Y-15187131D01*
X4449902Y-15267465D01*
X4445070Y-15281712D01*
X4411682Y-15356176D01*
X4377593Y-15403470D01*
X4346544Y-15446749D01*
X4320640Y-15517292D01*
X4293583Y-15591350D01*
X4246222Y-15670564D01*
X4189421Y-15721336D01*
X4097326Y-15742445D01*
X4013553Y-15728680D01*
X3948419Y-15678163D01*
X3907988Y-15585088D01*
X3888290Y-15443786D01*
X3884598Y-15364115D01*
X3889173Y-15283755D01*
X3909561Y-15221334D01*
X3950555Y-15154589D01*
X3970562Y-15124005D01*
X4009128Y-15052141D01*
X4024444Y-15002260D01*
X4025277Y-14994267D01*
X4048930Y-14938614D01*
X4095000Y-14872703D01*
X4104611Y-14860716D01*
X4147947Y-14789112D01*
X4165555Y-14728217D01*
X4174180Y-14697543D01*
X4215251Y-14629604D01*
X4278941Y-14548928D01*
X4352709Y-14469696D01*
X4424010Y-14406093D01*
X4480303Y-14372301D01*
X4543993Y-14377615D01*
G37*
X8191379Y-11538559D02*
X8246154Y-11563480D01*
X8312057Y-11610398D01*
X8362204Y-11659421D01*
X8391719Y-11720295D01*
X8398889Y-11809162D01*
X8397173Y-11858579D01*
X8382708Y-11924116D01*
X8345428Y-11987116D01*
X8275745Y-12067709D01*
X8220187Y-12134080D01*
X8156969Y-12226760D01*
X8119079Y-12304132D01*
X8114187Y-12318436D01*
X8080629Y-12392866D01*
X8046481Y-12440137D01*
X8013514Y-12489226D01*
X7988825Y-12562339D01*
X7983666Y-12582410D01*
X7948414Y-12670010D01*
X7898650Y-12757736D01*
X7861207Y-12820032D01*
X7838596Y-12896596D01*
X7841721Y-12993468D01*
X7845389Y-13021176D01*
X7866447Y-13099244D01*
X7909720Y-13170587D01*
X7986526Y-13255701D01*
X8049104Y-13324459D01*
X8097956Y-13389270D01*
X8116666Y-13429968D01*
X8116642Y-13432149D01*
X8090482Y-13508322D01*
X8026662Y-13576854D01*
X7942283Y-13619190D01*
X7892816Y-13629959D01*
X7770363Y-13631715D01*
X7660250Y-13588192D01*
X7548381Y-13494943D01*
X7425222Y-13369533D01*
X7415999Y-13039045D01*
X7413571Y-12944506D01*
X7412582Y-12830477D01*
X7416815Y-12752008D01*
X7428137Y-12696249D01*
X7448410Y-12650353D01*
X7479499Y-12601469D01*
X7525290Y-12516210D01*
X7552222Y-12384912D01*
X7562092Y-12304372D01*
X7619124Y-12195666D01*
X7621172Y-12193193D01*
X7672903Y-12111652D01*
X7705309Y-12027464D01*
X7709226Y-12015146D01*
X7746090Y-11952488D01*
X7810502Y-11870155D01*
X7892071Y-11778832D01*
X7980403Y-11689204D01*
X8065105Y-11611955D01*
X8135785Y-11557770D01*
X8182049Y-11537334D01*
X8191379Y-11538559D01*
G36*
X8191379Y-11538559D02*
G01*
X8246154Y-11563480D01*
X8312057Y-11610398D01*
X8362204Y-11659421D01*
X8391719Y-11720295D01*
X8398889Y-11809162D01*
X8397173Y-11858579D01*
X8382708Y-11924116D01*
X8345428Y-11987116D01*
X8275745Y-12067709D01*
X8220187Y-12134080D01*
X8156969Y-12226760D01*
X8119079Y-12304132D01*
X8114187Y-12318436D01*
X8080629Y-12392866D01*
X8046481Y-12440137D01*
X8013514Y-12489226D01*
X7988825Y-12562339D01*
X7983666Y-12582410D01*
X7948414Y-12670010D01*
X7898650Y-12757736D01*
X7861207Y-12820032D01*
X7838596Y-12896596D01*
X7841721Y-12993468D01*
X7845389Y-13021176D01*
X7866447Y-13099244D01*
X7909720Y-13170587D01*
X7986526Y-13255701D01*
X8049104Y-13324459D01*
X8097956Y-13389270D01*
X8116666Y-13429968D01*
X8116642Y-13432149D01*
X8090482Y-13508322D01*
X8026662Y-13576854D01*
X7942283Y-13619190D01*
X7892816Y-13629959D01*
X7770363Y-13631715D01*
X7660250Y-13588192D01*
X7548381Y-13494943D01*
X7425222Y-13369533D01*
X7415999Y-13039045D01*
X7413571Y-12944506D01*
X7412582Y-12830477D01*
X7416815Y-12752008D01*
X7428137Y-12696249D01*
X7448410Y-12650353D01*
X7479499Y-12601469D01*
X7525290Y-12516210D01*
X7552222Y-12384912D01*
X7562092Y-12304372D01*
X7619124Y-12195666D01*
X7621172Y-12193193D01*
X7672903Y-12111652D01*
X7705309Y-12027464D01*
X7709226Y-12015146D01*
X7746090Y-11952488D01*
X7810502Y-11870155D01*
X7892071Y-11778832D01*
X7980403Y-11689204D01*
X8065105Y-11611955D01*
X8135785Y-11557770D01*
X8182049Y-11537334D01*
X8191379Y-11538559D01*
G37*
X5646082Y-13920224D02*
X5697981Y-13955244D01*
X5774281Y-14019971D01*
X5864597Y-14104156D01*
X5958543Y-14197547D01*
X6045734Y-14289896D01*
X6115785Y-14370951D01*
X6158311Y-14430464D01*
X6174474Y-14450796D01*
X6242631Y-14481988D01*
X6337517Y-14484320D01*
X6444067Y-14458734D01*
X6547216Y-14406170D01*
X6579113Y-14386073D01*
X6659841Y-14346898D01*
X6722623Y-14331334D01*
X6761081Y-14339391D01*
X6834689Y-14379169D01*
X6908373Y-14439138D01*
X6965085Y-14504551D01*
X6987778Y-14560665D01*
X6987129Y-14569575D01*
X6957972Y-14636770D01*
X6895162Y-14716465D01*
X6812070Y-14795652D01*
X6722070Y-14861320D01*
X6638532Y-14900458D01*
X6602397Y-14911037D01*
X6523457Y-14941562D01*
X6496073Y-14976029D01*
X6517268Y-15025368D01*
X6584068Y-15100506D01*
X6631086Y-15154787D01*
X6688433Y-15239394D01*
X6718429Y-15309129D01*
X6746242Y-15383759D01*
X6791822Y-15447559D01*
X6801745Y-15457255D01*
X6824795Y-15492385D01*
X6838456Y-15545551D01*
X6844991Y-15629537D01*
X6846666Y-15757124D01*
X6842126Y-15895848D01*
X6822188Y-16023080D01*
X6783489Y-16106418D01*
X6722908Y-16151953D01*
X6637326Y-16165778D01*
X6582645Y-16159983D01*
X6507342Y-16118978D01*
X6456510Y-16034255D01*
X6426026Y-15900643D01*
X6414590Y-15836932D01*
X6389282Y-15748791D01*
X6361131Y-15693510D01*
X6356407Y-15687747D01*
X6317948Y-15622499D01*
X6284346Y-15540091D01*
X6279514Y-15525844D01*
X6246126Y-15451380D01*
X6212037Y-15404085D01*
X6182544Y-15364516D01*
X6156246Y-15295550D01*
X6145662Y-15263972D01*
X6101829Y-15188921D01*
X6040673Y-15115257D01*
X5976710Y-15059181D01*
X5924455Y-15036889D01*
X5899687Y-15047488D01*
X5839509Y-15090892D01*
X5757984Y-15160060D01*
X5665477Y-15246597D01*
X5450961Y-15456305D01*
X5442162Y-15662875D01*
X5440699Y-15709646D01*
X5446664Y-15846742D01*
X5472920Y-15940010D01*
X5522990Y-15997565D01*
X5600396Y-16027525D01*
X5613690Y-16030740D01*
X5696525Y-16068103D01*
X5775865Y-16126849D01*
X5835417Y-16192835D01*
X5858889Y-16251919D01*
X5858865Y-16253292D01*
X5841154Y-16308353D01*
X5800396Y-16373639D01*
X5780556Y-16397407D01*
X5746722Y-16425118D01*
X5700021Y-16440309D01*
X5625933Y-16446697D01*
X5509939Y-16448000D01*
X5277974Y-16448000D01*
X5152154Y-16319874D01*
X5026333Y-16191748D01*
X5017389Y-15710677D01*
X5008446Y-15229605D01*
X5320778Y-14913038D01*
X5385192Y-14847153D01*
X5483479Y-14744035D01*
X5562084Y-14658262D01*
X5614223Y-14597315D01*
X5633111Y-14568675D01*
X5633025Y-14567624D01*
X5611808Y-14533387D01*
X5560457Y-14473708D01*
X5489449Y-14400828D01*
X5452905Y-14364499D01*
X5365163Y-14265844D01*
X5319193Y-14187618D01*
X5311205Y-14121283D01*
X5337409Y-14058298D01*
X5370990Y-14018331D01*
X5456059Y-13957204D01*
X5552792Y-13920011D01*
X5638461Y-13917390D01*
X5646082Y-13920224D01*
G36*
X5646082Y-13920224D02*
G01*
X5697981Y-13955244D01*
X5774281Y-14019971D01*
X5864597Y-14104156D01*
X5958543Y-14197547D01*
X6045734Y-14289896D01*
X6115785Y-14370951D01*
X6158311Y-14430464D01*
X6174474Y-14450796D01*
X6242631Y-14481988D01*
X6337517Y-14484320D01*
X6444067Y-14458734D01*
X6547216Y-14406170D01*
X6579113Y-14386073D01*
X6659841Y-14346898D01*
X6722623Y-14331334D01*
X6761081Y-14339391D01*
X6834689Y-14379169D01*
X6908373Y-14439138D01*
X6965085Y-14504551D01*
X6987778Y-14560665D01*
X6987129Y-14569575D01*
X6957972Y-14636770D01*
X6895162Y-14716465D01*
X6812070Y-14795652D01*
X6722070Y-14861320D01*
X6638532Y-14900458D01*
X6602397Y-14911037D01*
X6523457Y-14941562D01*
X6496073Y-14976029D01*
X6517268Y-15025368D01*
X6584068Y-15100506D01*
X6631086Y-15154787D01*
X6688433Y-15239394D01*
X6718429Y-15309129D01*
X6746242Y-15383759D01*
X6791822Y-15447559D01*
X6801745Y-15457255D01*
X6824795Y-15492385D01*
X6838456Y-15545551D01*
X6844991Y-15629537D01*
X6846666Y-15757124D01*
X6842126Y-15895848D01*
X6822188Y-16023080D01*
X6783489Y-16106418D01*
X6722908Y-16151953D01*
X6637326Y-16165778D01*
X6582645Y-16159983D01*
X6507342Y-16118978D01*
X6456510Y-16034255D01*
X6426026Y-15900643D01*
X6414590Y-15836932D01*
X6389282Y-15748791D01*
X6361131Y-15693510D01*
X6356407Y-15687747D01*
X6317948Y-15622499D01*
X6284346Y-15540091D01*
X6279514Y-15525844D01*
X6246126Y-15451380D01*
X6212037Y-15404085D01*
X6182544Y-15364516D01*
X6156246Y-15295550D01*
X6145662Y-15263972D01*
X6101829Y-15188921D01*
X6040673Y-15115257D01*
X5976710Y-15059181D01*
X5924455Y-15036889D01*
X5899687Y-15047488D01*
X5839509Y-15090892D01*
X5757984Y-15160060D01*
X5665477Y-15246597D01*
X5450961Y-15456305D01*
X5442162Y-15662875D01*
X5440699Y-15709646D01*
X5446664Y-15846742D01*
X5472920Y-15940010D01*
X5522990Y-15997565D01*
X5600396Y-16027525D01*
X5613690Y-16030740D01*
X5696525Y-16068103D01*
X5775865Y-16126849D01*
X5835417Y-16192835D01*
X5858889Y-16251919D01*
X5858865Y-16253292D01*
X5841154Y-16308353D01*
X5800396Y-16373639D01*
X5780556Y-16397407D01*
X5746722Y-16425118D01*
X5700021Y-16440309D01*
X5625933Y-16446697D01*
X5509939Y-16448000D01*
X5277974Y-16448000D01*
X5152154Y-16319874D01*
X5026333Y-16191748D01*
X5017389Y-15710677D01*
X5008446Y-15229605D01*
X5320778Y-14913038D01*
X5385192Y-14847153D01*
X5483479Y-14744035D01*
X5562084Y-14658262D01*
X5614223Y-14597315D01*
X5633111Y-14568675D01*
X5633025Y-14567624D01*
X5611808Y-14533387D01*
X5560457Y-14473708D01*
X5489449Y-14400828D01*
X5452905Y-14364499D01*
X5365163Y-14265844D01*
X5319193Y-14187618D01*
X5311205Y-14121283D01*
X5337409Y-14058298D01*
X5370990Y-14018331D01*
X5456059Y-13957204D01*
X5552792Y-13920011D01*
X5638461Y-13917390D01*
X5646082Y-13920224D01*
G37*
G04 #@! TD*
M02*
