M48
; DRILL file {KiCad (7.0.0)} date Sun Mar 12 18:50:39 2023
; FORMAT={3:3/ absolute / metric / suppress leading zeros}
; #@! TF.CreationDate,2023-03-12T18:50:39+09:00
; #@! TF.GenerationSoftware,Kicad,Pcbnew,(7.0.0)
; #@! TF.FileFunction,Plated,1,2,PTH
FMAT,2
METRIC,TZ
; #@! TA.AperFunction,Plated,PTH,ViaDrill
T1C0.400
; #@! TA.AperFunction,Plated,PTH,ComponentDrill
T2C0.700
; #@! TA.AperFunction,Plated,PTH,ComponentDrill
T3C0.800
%
G90
G05
T1
X74900Y-45000
X74900Y-70600
X75700Y-43300
X75700Y-72200
X77100Y-45000
X77100Y-70600
X80200Y-50400
X80200Y-64500
X81500Y-45700
X81500Y-47900
X81700Y-37200
X82500Y-38000
X83500Y-71300
X83500Y-80100
X83600Y-38900
X83600Y-43600
X83600Y-45800
X83600Y-66700
X83600Y-69000
X83800Y-47900
X85100Y-78500
X85700Y-80100
X85900Y-48300
X86000Y-43400
X86500Y-33500
X86500Y-35600
X88400Y-48300
X88800Y-76600
X88900Y-42800
X90900Y-51000
X91400Y-76900
X91700Y-46500
X92400Y-75400
X93100Y-45500
X93100Y-76900
X94200Y-43900
X95600Y-42700
X96000Y-48600
X97500Y-33400
X97500Y-35600
X98600Y-48500
X99800Y-34600
X101100Y-48500
X102200Y-33400
X102200Y-35500
X108600Y-46000
X111500Y-45600
X112900Y-46700
X117100Y-46500
X118500Y-44500
X119800Y-43400
X120300Y-33300
X120300Y-35500
X121700Y-36900
X123700Y-36900
X124000Y-48300
X125300Y-33300
X125300Y-35400
X126500Y-48400
X129300Y-48500
X131400Y-39700
X132200Y-47800
X132600Y-42700
X134100Y-45900
X134384Y-47900
X135600Y-44400
X137200Y-48400
X138100Y-43200
X139200Y-48400
X139600Y-42700
X141400Y-42700
X142200Y-48200
X142800Y-33300
X142800Y-35300
X144500Y-36600
X146600Y-36600
T2
X122700Y-72915
X122700Y-77995
X125240Y-72915
X125240Y-77995
X127780Y-72915
X127780Y-77995
X130320Y-72915
X130320Y-77995
X132860Y-72915
X132860Y-77995
X135400Y-72915
X135400Y-77995
X137940Y-72915
X137940Y-77995
X140480Y-72920
X140480Y-78000
T3
X84600Y-49680
X84600Y-52220
X84600Y-54760
X84600Y-58570
X84600Y-81430
X84600Y-85240
X84600Y-87780
X84600Y-90320
X84600Y-92860
X84600Y-95400
X84600Y-97940
X87140Y-38490
X87140Y-41030
X87140Y-49680
X87140Y-52220
X87140Y-54760
X87140Y-58570
X87140Y-81430
X87140Y-85240
X87140Y-87780
X87140Y-90320
X87140Y-92860
X87140Y-95400
X87140Y-97940
X89680Y-38490
X89680Y-41030
X89680Y-49680
X89680Y-52220
X89680Y-54760
X89680Y-58570
X89680Y-81430
X89680Y-85240
X89680Y-87780
X89680Y-90320
X92220Y-38490
X92220Y-41030
X92220Y-49680
X92220Y-52220
X92220Y-54760
X92220Y-58570
X92220Y-81430
X92220Y-85240
X92220Y-87780
X92220Y-90320
X94760Y-38490
X94760Y-41030
X94760Y-49680
X94760Y-52220
X94760Y-54760
X94760Y-58570
X94760Y-81430
X94760Y-85240
X94760Y-87780
X94760Y-90320
X97300Y-38490
X97300Y-41030
X97300Y-49680
X97300Y-52220
X97300Y-54760
X97300Y-58570
X97300Y-81430
X97300Y-85240
X97300Y-87780
X97300Y-90320
X99840Y-38490
X99840Y-41030
X99840Y-49680
X99840Y-52220
X99840Y-54760
X99840Y-58570
X99840Y-81430
X99840Y-85240
X99840Y-87780
X99840Y-90320
X99840Y-92860
X99840Y-95400
X99840Y-97940
X102380Y-49680
X102380Y-52220
X102380Y-54760
X102380Y-58570
X102380Y-81430
X102380Y-85240
X102380Y-87780
X102380Y-90320
X104920Y-49680
X104920Y-52220
X104920Y-54760
X104920Y-58570
X104920Y-81430
X104920Y-85240
X104920Y-87780
X104920Y-90320
X107460Y-49680
X107460Y-52220
X107460Y-54760
X107460Y-58570
X107460Y-81430
X107460Y-85240
X107460Y-87780
X107460Y-90320
X110000Y-38490
X110000Y-41030
X110000Y-49680
X110000Y-52220
X110000Y-54760
X110000Y-58570
X110000Y-81430
X110000Y-85240
X110000Y-87780
X110000Y-90320
X112540Y-38490
X112540Y-41030
X112540Y-49680
X112540Y-52220
X112540Y-54760
X112540Y-58570
X112540Y-81430
X112540Y-85240
X112540Y-87780
X112540Y-90320
X115080Y-38490
X115080Y-41030
X115080Y-49680
X115080Y-52220
X115080Y-54760
X115080Y-58570
X115080Y-81430
X115080Y-85240
X115080Y-87780
X115080Y-90320
X117620Y-38490
X117620Y-41030
X117620Y-49680
X117620Y-52220
X117620Y-54760
X117620Y-58570
X117620Y-81430
X117620Y-85240
X117620Y-87780
X117620Y-90320
X120160Y-38490
X120160Y-41030
X120160Y-49680
X120160Y-52220
X120160Y-54760
X120160Y-58570
X120160Y-81430
X120160Y-85240
X120160Y-87780
X120160Y-90320
X122700Y-38490
X122700Y-41030
X122700Y-49680
X122700Y-52220
X122700Y-54760
X122700Y-58570
X122700Y-81430
X122700Y-85240
X122700Y-87780
X122700Y-90320
X125240Y-49680
X125240Y-52220
X125240Y-54760
X125240Y-58570
X125240Y-81430
X125240Y-85240
X125240Y-87780
X125240Y-90320
X127780Y-49680
X127780Y-52220
X127780Y-54760
X127780Y-58570
X127780Y-81430
X127780Y-85240
X127780Y-87780
X127780Y-90320
X130320Y-49680
X130320Y-52220
X130320Y-54760
X130320Y-58570
X130320Y-81430
X130320Y-85240
X130320Y-87780
X130320Y-90320
X132860Y-38490
X132860Y-41030
X132860Y-49680
X132860Y-52220
X132860Y-54760
X132860Y-58570
X132860Y-81430
X132860Y-85240
X132860Y-87780
X132860Y-90320
X135400Y-38490
X135400Y-41030
X135400Y-49680
X135400Y-52220
X135400Y-54760
X135400Y-58570
X135400Y-81430
X135400Y-85240
X135400Y-87780
X135400Y-90320
X137940Y-38490
X137940Y-41030
X137940Y-49680
X137940Y-52220
X137940Y-54760
X137940Y-58570
X137940Y-81430
X137940Y-85240
X137940Y-87780
X137940Y-90320
X140480Y-38490
X140480Y-41030
X140480Y-49680
X140480Y-52220
X140480Y-54760
X140480Y-58570
X140480Y-81430
X140480Y-85240
X140480Y-87780
X140480Y-90320
X143020Y-38490
X143020Y-41030
X143020Y-49680
X143020Y-52220
X143020Y-54760
X143020Y-58570
X143020Y-81430
X143020Y-85240
X143020Y-87780
X143020Y-90320
X145560Y-38490
X145560Y-41030
T2
G00X118510Y-94750
M15
G01X119010Y-94750
M16
G05
G00X118510Y-101250
M15
G01X119010Y-101250
M16
G05
G00X122320Y-94750
M15
G01X122820Y-94750
M16
G05
G00X122320Y-101250
M15
G01X122820Y-101250
M16
G05
G00X126130Y-94750
M15
G01X126630Y-94750
M16
G05
G00X126130Y-101250
M15
G01X126630Y-101250
M16
G05
G00X129940Y-94750
M15
G01X130440Y-94750
M16
G05
G00X129940Y-101250
M15
G01X130440Y-101250
M16
G05
G00X133750Y-94750
M15
G01X134250Y-94750
M16
G05
G00X133750Y-101250
M15
G01X134250Y-101250
M16
G05
G00X137560Y-94750
M15
G01X138060Y-94750
M16
G05
G00X137560Y-101250
M15
G01X138060Y-101250
M16
G05
G00X141370Y-94750
M15
G01X141870Y-94750
M16
G05
G00X141370Y-101250
M15
G01X141870Y-101250
M16
G05
G00X145180Y-94750
M15
G01X145680Y-94750
M16
G05
G00X145180Y-101250
M15
G01X145680Y-101250
M16
G05
T0
M30
