M48
; DRILL file {KiCad 7.0.1} date Wed May 31 01:27:10 2023
; FORMAT={3:3/ absolute / metric / suppress leading zeros}
; #@! TF.CreationDate,2023-05-31T01:27:10+09:00
; #@! TF.GenerationSoftware,Kicad,Pcbnew,7.0.1
; #@! TF.FileFunction,Plated,1,2,PTH
FMAT,2
METRIC,TZ
; #@! TA.AperFunction,Plated,PTH,ViaDrill
T1C0.400
; #@! TA.AperFunction,Plated,PTH,ComponentDrill
T2C0.600
; #@! TA.AperFunction,Plated,PTH,ComponentDrill
T3C0.700
; #@! TA.AperFunction,Plated,PTH,ComponentDrill
T4C0.800
%
G90
G05
T1
X2286Y-19431
X2286Y-31369
X2286Y-39878
X2667Y32131
X2794Y-7239
X3810Y-15748
X3937Y-5588
X4064Y-19558
X4445Y17399
X4445Y-29845
X5080Y-18542
X5080Y-22606
X5715Y-25781
X5842Y-17526
X5842Y-21717
X6096Y12700
X6096Y-6096
X6096Y-10287
X6096Y-13335
X6096Y-15748
X6223Y2413
X6731Y-16764
X6731Y-20701
X7200Y-23000
X7239Y-24003
X7366Y-14605
X7874Y8890
X8001Y3302
X8128Y-8382
X8300Y-20400
X8305Y-19100
X8382Y-25146
X9017Y-9271
X9017Y-15494
X9017Y-17526
X9779Y-10287
X10033Y-14605
X10287Y1778
X10287Y-15621
X10287Y-17526
X10414Y-3937
X10541Y6223
X10541Y762
X11303Y-5207
X11557Y-32893
X11684Y-20320
X12065Y5842
X12065Y1778
X12192Y-762
X12192Y-3302
X12319Y-4826
X12700Y-15621
X12700Y-17526
X12954Y-6731
X13462Y-2159
X13462Y-4826
X13716Y-5969
X13843Y-14097
X13843Y-16510
X14194Y-26817
X14224Y3810
X14224Y2667
X14224Y-23495
X14351Y-25146
X14478Y-22352
X14600Y-30600
X14605Y-8382
X14605Y-32004
X14732Y-26035
X14733Y-17780
X15113Y-32639
X15367Y2540
X15621Y4826
X15748Y-29337
X15748Y-30226
X15800Y-27800
X17210Y-28575
X17399Y4699
X17399Y2921
X17526Y31369
X18463Y-22558
X18542Y-15113
X18542Y-17272
X18923Y-19177
X18923Y-20955
X20320Y-18161
X20447Y-30988
X20447Y-39751
T2
X6350Y16510
X6350Y13970
X6350Y11430
X6350Y8890
X6350Y6350
X6350Y3810
X6350Y-1270
X6350Y-3810
X6350Y-8890
X16510Y8890
X16510Y1270
X16510Y-1270
X16510Y-3810
X16510Y-8890
T3
X3175Y19050
X3175Y13970
X3175Y11430
X3175Y6350
X3175Y3175
X3175Y-1905
X3175Y-8890
X3175Y-13970
X19685Y3810
X19685Y-1270
X19685Y-3810
X19685Y-8890
T4
X5080Y-34490
X5080Y-37030
X7620Y-34490
X7620Y-37030
X10160Y-34490
X10160Y-37030
X12700Y-34490
X12700Y-37030
X15240Y-34490
X15240Y-37030
X17780Y-34490
X17780Y-37030
T0
M30
