G04 #@! TF.GenerationSoftware,KiCad,Pcbnew,7.0.1*
G04 #@! TF.CreationDate,2023-05-31T01:27:01+09:00*
G04 #@! TF.ProjectId,Pmod_MultiSegment_SinglePort,506d6f64-5f4d-4756-9c74-695365676d65,rev?*
G04 #@! TF.SameCoordinates,Original*
G04 #@! TF.FileFunction,Soldermask,Bot*
G04 #@! TF.FilePolarity,Negative*
%FSLAX46Y46*%
G04 Gerber Fmt 4.6, Leading zero omitted, Abs format (unit mm)*
G04 Created by KiCad (PCBNEW 7.0.1) date 2023-05-31 01:27:01*
%MOMM*%
%LPD*%
G01*
G04 APERTURE LIST*
G04 Aperture macros list*
%AMRoundRect*
0 Rectangle with rounded corners*
0 $1 Rounding radius*
0 $2 $3 $4 $5 $6 $7 $8 $9 X,Y pos of 4 corners*
0 Add a 4 corners polygon primitive as box body*
4,1,4,$2,$3,$4,$5,$6,$7,$8,$9,$2,$3,0*
0 Add four circle primitives for the rounded corners*
1,1,$1+$1,$2,$3*
1,1,$1+$1,$4,$5*
1,1,$1+$1,$6,$7*
1,1,$1+$1,$8,$9*
0 Add four rect primitives between the rounded corners*
20,1,$1+$1,$2,$3,$4,$5,0*
20,1,$1+$1,$4,$5,$6,$7,0*
20,1,$1+$1,$6,$7,$8,$9,0*
20,1,$1+$1,$8,$9,$2,$3,0*%
G04 Aperture macros list end*
%ADD10C,3.250000*%
%ADD11O,1.524000X1.200000*%
%ADD12C,1.400000*%
%ADD13O,1.400000X1.400000*%
%ADD14RoundRect,0.225000X-0.250000X0.225000X-0.250000X-0.225000X0.250000X-0.225000X0.250000X0.225000X0*%
%ADD15RoundRect,0.225000X0.250000X-0.225000X0.250000X0.225000X-0.250000X0.225000X-0.250000X-0.225000X0*%
%ADD16C,3.200000*%
%ADD17R,1.600000X1.600000*%
%ADD18O,1.600000X1.600000*%
G04 APERTURE END LIST*
G04 #@! TO.C,H1*
D10*
X13055000Y30480000D02*
G75*
G03*
X13055000Y30480000I-1625000J0D01*
G01*
G04 #@! TD*
D11*
G04 #@! TO.C,U2*
X16510000Y-8890000D03*
X16510000Y-3810000D03*
X16510000Y-1270000D03*
X16510000Y1270000D03*
X16510000Y8890000D03*
X6350000Y16510000D03*
X6350000Y13970000D03*
X6350000Y11430000D03*
X6350000Y8890000D03*
X6350000Y6350000D03*
X6350000Y3810000D03*
X6350000Y-1270000D03*
X6350000Y-3810000D03*
X6350000Y-8890000D03*
G04 #@! TD*
D12*
G04 #@! TO.C,R6*
X3175000Y19050000D03*
D13*
X3175000Y13970000D03*
G04 #@! TD*
D12*
G04 #@! TO.C,R5*
X3175000Y6350000D03*
D13*
X3175000Y11430000D03*
G04 #@! TD*
D12*
G04 #@! TO.C,R4*
X3175000Y-1905000D03*
D13*
X3175000Y3175000D03*
G04 #@! TD*
D12*
G04 #@! TO.C,R3*
X19685000Y3810000D03*
D13*
X19685000Y-1270000D03*
G04 #@! TD*
D12*
G04 #@! TO.C,R2*
X19685000Y-8890000D03*
D13*
X19685000Y-3810000D03*
G04 #@! TD*
D12*
G04 #@! TO.C,R1*
X3175000Y-13970000D03*
D13*
X3175000Y-8890000D03*
G04 #@! TD*
D14*
G04 #@! TO.C,C2*
X8255000Y-21450000D03*
X8255000Y-23000000D03*
G04 #@! TD*
D15*
G04 #@! TO.C,C1*
X14605000Y-29350000D03*
X14605000Y-27800000D03*
G04 #@! TD*
D16*
G04 #@! TO.C,H1*
X11430000Y30480000D03*
G04 #@! TD*
D17*
G04 #@! TO.C,J1*
X5080000Y-34490000D03*
D18*
X7620000Y-34490000D03*
X10160000Y-34490000D03*
X12700000Y-34490000D03*
X15240000Y-34490000D03*
X17780000Y-34490000D03*
X5080000Y-37030000D03*
X7620000Y-37030000D03*
X10160000Y-37030000D03*
X12700000Y-37030000D03*
X15240000Y-37030000D03*
X17780000Y-37030000D03*
G04 #@! TD*
M02*
