G04 #@! TF.GenerationSoftware,KiCad,Pcbnew,7.0.1*
G04 #@! TF.CreationDate,2023-05-31T01:27:01+09:00*
G04 #@! TF.ProjectId,Pmod_MultiSegment_SinglePort,506d6f64-5f4d-4756-9c74-695365676d65,rev?*
G04 #@! TF.SameCoordinates,Original*
G04 #@! TF.FileFunction,Legend,Top*
G04 #@! TF.FilePolarity,Positive*
%FSLAX46Y46*%
G04 Gerber Fmt 4.6, Leading zero omitted, Abs format (unit mm)*
G04 Created by KiCad (PCBNEW 7.0.1) date 2023-05-31 01:27:01*
%MOMM*%
%LPD*%
G01*
G04 APERTURE LIST*
%ADD10C,0.150000*%
G04 APERTURE END LIST*
D10*
X1778000Y5969000D02*
X2032000Y6223000D01*
X1778000Y4699000D02*
X1778000Y5969000D01*
X2159000Y4699000D02*
X1778000Y4699000D01*
G04 #@! TO.C,U3*
X5588095Y-18662619D02*
X5588095Y-19472142D01*
X5588095Y-19472142D02*
X5635714Y-19567380D01*
X5635714Y-19567380D02*
X5683333Y-19615000D01*
X5683333Y-19615000D02*
X5778571Y-19662619D01*
X5778571Y-19662619D02*
X5969047Y-19662619D01*
X5969047Y-19662619D02*
X6064285Y-19615000D01*
X6064285Y-19615000D02*
X6111904Y-19567380D01*
X6111904Y-19567380D02*
X6159523Y-19472142D01*
X6159523Y-19472142D02*
X6159523Y-18662619D01*
X6540476Y-18662619D02*
X7159523Y-18662619D01*
X7159523Y-18662619D02*
X6826190Y-19043571D01*
X6826190Y-19043571D02*
X6969047Y-19043571D01*
X6969047Y-19043571D02*
X7064285Y-19091190D01*
X7064285Y-19091190D02*
X7111904Y-19138809D01*
X7111904Y-19138809D02*
X7159523Y-19234047D01*
X7159523Y-19234047D02*
X7159523Y-19472142D01*
X7159523Y-19472142D02*
X7111904Y-19567380D01*
X7111904Y-19567380D02*
X7064285Y-19615000D01*
X7064285Y-19615000D02*
X6969047Y-19662619D01*
X6969047Y-19662619D02*
X6683333Y-19662619D01*
X6683333Y-19662619D02*
X6588095Y-19615000D01*
X6588095Y-19615000D02*
X6540476Y-19567380D01*
G04 #@! TO.C,U2*
X18766619Y17780095D02*
X19576142Y17780095D01*
X19576142Y17780095D02*
X19671380Y17827714D01*
X19671380Y17827714D02*
X19719000Y17875333D01*
X19719000Y17875333D02*
X19766619Y17970571D01*
X19766619Y17970571D02*
X19766619Y18161047D01*
X19766619Y18161047D02*
X19719000Y18256285D01*
X19719000Y18256285D02*
X19671380Y18303904D01*
X19671380Y18303904D02*
X19576142Y18351523D01*
X19576142Y18351523D02*
X18766619Y18351523D01*
X18861857Y18780095D02*
X18814238Y18827714D01*
X18814238Y18827714D02*
X18766619Y18922952D01*
X18766619Y18922952D02*
X18766619Y19161047D01*
X18766619Y19161047D02*
X18814238Y19256285D01*
X18814238Y19256285D02*
X18861857Y19303904D01*
X18861857Y19303904D02*
X18957095Y19351523D01*
X18957095Y19351523D02*
X19052333Y19351523D01*
X19052333Y19351523D02*
X19195190Y19303904D01*
X19195190Y19303904D02*
X19766619Y18732476D01*
X19766619Y18732476D02*
X19766619Y19351523D01*
G04 #@! TO.C,U1*
X15748095Y-31062619D02*
X15748095Y-31872142D01*
X15748095Y-31872142D02*
X15795714Y-31967380D01*
X15795714Y-31967380D02*
X15843333Y-32015000D01*
X15843333Y-32015000D02*
X15938571Y-32062619D01*
X15938571Y-32062619D02*
X16129047Y-32062619D01*
X16129047Y-32062619D02*
X16224285Y-32015000D01*
X16224285Y-32015000D02*
X16271904Y-31967380D01*
X16271904Y-31967380D02*
X16319523Y-31872142D01*
X16319523Y-31872142D02*
X16319523Y-31062619D01*
X17319523Y-32062619D02*
X16748095Y-32062619D01*
X17033809Y-32062619D02*
X17033809Y-31062619D01*
X17033809Y-31062619D02*
X16938571Y-31205476D01*
X16938571Y-31205476D02*
X16843333Y-31300714D01*
X16843333Y-31300714D02*
X16748095Y-31348333D01*
G04 #@! TO.C,R6*
X3637619Y21296333D02*
X3161428Y20963000D01*
X3637619Y20724905D02*
X2637619Y20724905D01*
X2637619Y20724905D02*
X2637619Y21105857D01*
X2637619Y21105857D02*
X2685238Y21201095D01*
X2685238Y21201095D02*
X2732857Y21248714D01*
X2732857Y21248714D02*
X2828095Y21296333D01*
X2828095Y21296333D02*
X2970952Y21296333D01*
X2970952Y21296333D02*
X3066190Y21248714D01*
X3066190Y21248714D02*
X3113809Y21201095D01*
X3113809Y21201095D02*
X3161428Y21105857D01*
X3161428Y21105857D02*
X3161428Y20724905D01*
X2637619Y22153476D02*
X2637619Y21963000D01*
X2637619Y21963000D02*
X2685238Y21867762D01*
X2685238Y21867762D02*
X2732857Y21820143D01*
X2732857Y21820143D02*
X2875714Y21724905D01*
X2875714Y21724905D02*
X3066190Y21677286D01*
X3066190Y21677286D02*
X3447142Y21677286D01*
X3447142Y21677286D02*
X3542380Y21724905D01*
X3542380Y21724905D02*
X3590000Y21772524D01*
X3590000Y21772524D02*
X3637619Y21867762D01*
X3637619Y21867762D02*
X3637619Y22058238D01*
X3637619Y22058238D02*
X3590000Y22153476D01*
X3590000Y22153476D02*
X3542380Y22201095D01*
X3542380Y22201095D02*
X3447142Y22248714D01*
X3447142Y22248714D02*
X3209047Y22248714D01*
X3209047Y22248714D02*
X3113809Y22201095D01*
X3113809Y22201095D02*
X3066190Y22153476D01*
X3066190Y22153476D02*
X3018571Y22058238D01*
X3018571Y22058238D02*
X3018571Y21867762D01*
X3018571Y21867762D02*
X3066190Y21772524D01*
X3066190Y21772524D02*
X3113809Y21724905D01*
X3113809Y21724905D02*
X3209047Y21677286D01*
G04 #@! TO.C,R5*
X3008333Y4236380D02*
X2675000Y4712571D01*
X2436905Y4236380D02*
X2436905Y5236380D01*
X2436905Y5236380D02*
X2817857Y5236380D01*
X2817857Y5236380D02*
X2913095Y5188761D01*
X2913095Y5188761D02*
X2960714Y5141142D01*
X2960714Y5141142D02*
X3008333Y5045904D01*
X3008333Y5045904D02*
X3008333Y4903047D01*
X3008333Y4903047D02*
X2960714Y4807809D01*
X2960714Y4807809D02*
X2913095Y4760190D01*
X2913095Y4760190D02*
X2817857Y4712571D01*
X2817857Y4712571D02*
X2436905Y4712571D01*
X3913095Y5236380D02*
X3436905Y5236380D01*
X3436905Y5236380D02*
X3389286Y4760190D01*
X3389286Y4760190D02*
X3436905Y4807809D01*
X3436905Y4807809D02*
X3532143Y4855428D01*
X3532143Y4855428D02*
X3770238Y4855428D01*
X3770238Y4855428D02*
X3865476Y4807809D01*
X3865476Y4807809D02*
X3913095Y4760190D01*
X3913095Y4760190D02*
X3960714Y4664952D01*
X3960714Y4664952D02*
X3960714Y4426857D01*
X3960714Y4426857D02*
X3913095Y4331619D01*
X3913095Y4331619D02*
X3865476Y4284000D01*
X3865476Y4284000D02*
X3770238Y4236380D01*
X3770238Y4236380D02*
X3532143Y4236380D01*
X3532143Y4236380D02*
X3436905Y4284000D01*
X3436905Y4284000D02*
X3389286Y4331619D01*
G04 #@! TO.C,R4*
X3637619Y-4230666D02*
X3161428Y-4563999D01*
X3637619Y-4802094D02*
X2637619Y-4802094D01*
X2637619Y-4802094D02*
X2637619Y-4421142D01*
X2637619Y-4421142D02*
X2685238Y-4325904D01*
X2685238Y-4325904D02*
X2732857Y-4278285D01*
X2732857Y-4278285D02*
X2828095Y-4230666D01*
X2828095Y-4230666D02*
X2970952Y-4230666D01*
X2970952Y-4230666D02*
X3066190Y-4278285D01*
X3066190Y-4278285D02*
X3113809Y-4325904D01*
X3113809Y-4325904D02*
X3161428Y-4421142D01*
X3161428Y-4421142D02*
X3161428Y-4802094D01*
X2970952Y-3373523D02*
X3637619Y-3373523D01*
X2590000Y-3611618D02*
X3304285Y-3849713D01*
X3304285Y-3849713D02*
X3304285Y-3230666D01*
G04 #@! TO.C,R3*
X20147619Y5421333D02*
X19671428Y5088000D01*
X20147619Y4849905D02*
X19147619Y4849905D01*
X19147619Y4849905D02*
X19147619Y5230857D01*
X19147619Y5230857D02*
X19195238Y5326095D01*
X19195238Y5326095D02*
X19242857Y5373714D01*
X19242857Y5373714D02*
X19338095Y5421333D01*
X19338095Y5421333D02*
X19480952Y5421333D01*
X19480952Y5421333D02*
X19576190Y5373714D01*
X19576190Y5373714D02*
X19623809Y5326095D01*
X19623809Y5326095D02*
X19671428Y5230857D01*
X19671428Y5230857D02*
X19671428Y4849905D01*
X19147619Y5754667D02*
X19147619Y6373714D01*
X19147619Y6373714D02*
X19528571Y6040381D01*
X19528571Y6040381D02*
X19528571Y6183238D01*
X19528571Y6183238D02*
X19576190Y6278476D01*
X19576190Y6278476D02*
X19623809Y6326095D01*
X19623809Y6326095D02*
X19719047Y6373714D01*
X19719047Y6373714D02*
X19957142Y6373714D01*
X19957142Y6373714D02*
X20052380Y6326095D01*
X20052380Y6326095D02*
X20100000Y6278476D01*
X20100000Y6278476D02*
X20147619Y6183238D01*
X20147619Y6183238D02*
X20147619Y5897524D01*
X20147619Y5897524D02*
X20100000Y5802286D01*
X20100000Y5802286D02*
X20052380Y5754667D01*
G04 #@! TO.C,R2*
X20147619Y-10961666D02*
X19671428Y-11294999D01*
X20147619Y-11533094D02*
X19147619Y-11533094D01*
X19147619Y-11533094D02*
X19147619Y-11152142D01*
X19147619Y-11152142D02*
X19195238Y-11056904D01*
X19195238Y-11056904D02*
X19242857Y-11009285D01*
X19242857Y-11009285D02*
X19338095Y-10961666D01*
X19338095Y-10961666D02*
X19480952Y-10961666D01*
X19480952Y-10961666D02*
X19576190Y-11009285D01*
X19576190Y-11009285D02*
X19623809Y-11056904D01*
X19623809Y-11056904D02*
X19671428Y-11152142D01*
X19671428Y-11152142D02*
X19671428Y-11533094D01*
X19242857Y-10580713D02*
X19195238Y-10533094D01*
X19195238Y-10533094D02*
X19147619Y-10437856D01*
X19147619Y-10437856D02*
X19147619Y-10199761D01*
X19147619Y-10199761D02*
X19195238Y-10104523D01*
X19195238Y-10104523D02*
X19242857Y-10056904D01*
X19242857Y-10056904D02*
X19338095Y-10009285D01*
X19338095Y-10009285D02*
X19433333Y-10009285D01*
X19433333Y-10009285D02*
X19576190Y-10056904D01*
X19576190Y-10056904D02*
X20147619Y-10628332D01*
X20147619Y-10628332D02*
X20147619Y-10009285D01*
G04 #@! TO.C,R1*
X3129619Y-16041666D02*
X2653428Y-16374999D01*
X3129619Y-16613094D02*
X2129619Y-16613094D01*
X2129619Y-16613094D02*
X2129619Y-16232142D01*
X2129619Y-16232142D02*
X2177238Y-16136904D01*
X2177238Y-16136904D02*
X2224857Y-16089285D01*
X2224857Y-16089285D02*
X2320095Y-16041666D01*
X2320095Y-16041666D02*
X2462952Y-16041666D01*
X2462952Y-16041666D02*
X2558190Y-16089285D01*
X2558190Y-16089285D02*
X2605809Y-16136904D01*
X2605809Y-16136904D02*
X2653428Y-16232142D01*
X2653428Y-16232142D02*
X2653428Y-16613094D01*
X3129619Y-15089285D02*
X3129619Y-15660713D01*
X3129619Y-15374999D02*
X2129619Y-15374999D01*
X2129619Y-15374999D02*
X2272476Y-15470237D01*
X2272476Y-15470237D02*
X2367714Y-15565475D01*
X2367714Y-15565475D02*
X2415333Y-15660713D01*
G04 #@! TO.C,J1*
X19732666Y-33879619D02*
X19732666Y-34593904D01*
X19732666Y-34593904D02*
X19685047Y-34736761D01*
X19685047Y-34736761D02*
X19589809Y-34832000D01*
X19589809Y-34832000D02*
X19446952Y-34879619D01*
X19446952Y-34879619D02*
X19351714Y-34879619D01*
X20732666Y-34879619D02*
X20161238Y-34879619D01*
X20446952Y-34879619D02*
X20446952Y-33879619D01*
X20446952Y-33879619D02*
X20351714Y-34022476D01*
X20351714Y-34022476D02*
X20256476Y-34117714D01*
X20256476Y-34117714D02*
X20161238Y-34165333D01*
X3926095Y-32737428D02*
X3926095Y-33194571D01*
X3926095Y-32965999D02*
X3126095Y-32965999D01*
X3126095Y-32965999D02*
X3240380Y-33042190D01*
X3240380Y-33042190D02*
X3316571Y-33118380D01*
X3316571Y-33118380D02*
X3354666Y-33194571D01*
G04 #@! TO.C,U3*
X3575000Y-20125000D02*
X3575000Y-20400000D01*
X3575000Y-30675000D02*
X3575000Y-30320000D01*
X3575000Y-20400000D02*
X2050000Y-20400000D01*
X9125000Y-20125000D02*
X9125000Y-20480000D01*
X9125000Y-30675000D02*
X9125000Y-30320000D01*
X3575000Y-20125000D02*
X9125000Y-20125000D01*
X3575000Y-30675000D02*
X9125000Y-30675000D01*
G04 #@! TO.C,U1*
X19285000Y-20125000D02*
X13735000Y-20125000D01*
X19285000Y-30675000D02*
X13735000Y-30675000D01*
X13735000Y-20125000D02*
X13735000Y-20480000D01*
X13735000Y-30675000D02*
X13735000Y-30320000D01*
X19285000Y-30400000D02*
X20810000Y-30400000D01*
X19285000Y-20125000D02*
X19285000Y-20480000D01*
X19285000Y-30675000D02*
X19285000Y-30400000D01*
G04 #@! TO.C,J1*
X4445000Y-38300000D02*
X3810000Y-37665000D01*
X5715000Y-38300000D02*
X4445000Y-38300000D01*
X6985000Y-38300000D02*
X6350000Y-37665000D01*
X8255000Y-38300000D02*
X6985000Y-38300000D01*
X9525000Y-38300000D02*
X8890000Y-37665000D01*
X10795000Y-38300000D02*
X9525000Y-38300000D01*
X12065000Y-38300000D02*
X11430000Y-37665000D01*
X13335000Y-38300000D02*
X12065000Y-38300000D01*
X14605000Y-38300000D02*
X13970000Y-37665000D01*
X15875000Y-38300000D02*
X14605000Y-38300000D01*
X17145000Y-38300000D02*
X16510000Y-37665000D01*
X18415000Y-38300000D02*
X17145000Y-38300000D01*
X3810000Y-37665000D02*
X3810000Y-33855000D01*
X6350000Y-37665000D02*
X5715000Y-38300000D01*
X8890000Y-37665000D02*
X8255000Y-38300000D01*
X11430000Y-37665000D02*
X10795000Y-38300000D01*
X13970000Y-37665000D02*
X13335000Y-38300000D01*
X16510000Y-37665000D02*
X15875000Y-38300000D01*
X19050000Y-37665000D02*
X18415000Y-38300000D01*
X3810000Y-33855000D02*
X4445000Y-33220000D01*
X6350000Y-33855000D02*
X6985000Y-33220000D01*
X8890000Y-33855000D02*
X9525000Y-33220000D01*
X11430000Y-33855000D02*
X12065000Y-33220000D01*
X13970000Y-33855000D02*
X14605000Y-33220000D01*
X16510000Y-33855000D02*
X17145000Y-33220000D01*
X19050000Y-33855000D02*
X19050000Y-37665000D01*
X4445000Y-33220000D02*
X5715000Y-33220000D01*
X5715000Y-33220000D02*
X6350000Y-33855000D01*
X6985000Y-33220000D02*
X8255000Y-33220000D01*
X8255000Y-33220000D02*
X8890000Y-33855000D01*
X9525000Y-33220000D02*
X10795000Y-33220000D01*
X10795000Y-33220000D02*
X11430000Y-33855000D01*
X12065000Y-33220000D02*
X13335000Y-33220000D01*
X13335000Y-33220000D02*
X13970000Y-33855000D01*
X14605000Y-33220000D02*
X15875000Y-33220000D01*
X15875000Y-33220000D02*
X16510000Y-33855000D01*
X17145000Y-33220000D02*
X18415000Y-33220000D01*
X18415000Y-33220000D02*
X19050000Y-33855000D01*
G04 #@! TD*
M02*
