<?xml version="1.0" standalone="no"?>
 <!DOCTYPE svg PUBLIC "-//W3C//DTD SVG 1.1//EN" 
 "http://www.w3.org/Graphics/SVG/1.1/DTD/svg11.dtd"> 
<svg
  xmlns:svg="http://www.w3.org/2000/svg"
  xmlns="http://www.w3.org/2000/svg"
  xmlns:xlink="http://www.w3.org/1999/xlink"
  version="1.1"
  width="66.1162mm" height="36.2712mm" viewBox="0.0000 0.0000 66.1162 36.2712">
<title>SVG Image created as Pmod_Adapter_Ethernet-brd.svg date 2024/08/03 02:38:37 </title>
  <desc>Image generated by PCBNEW </desc>
<g style="fill:#000000; fill-opacity:1.0000;stroke:#000000; stroke-opacity:1.0000;
stroke-linecap:round; stroke-linejoin:round;"
 transform="translate(0 0) scale(1 1)">
<path style="fill:#000000; fill-opacity:1.0000; stroke:none;fill-rule:evenodd;"
d="M 25.9200,17.0732
27.5200,17.0732
27.5200,18.6732
25.9200,18.6732
Z" /> 
</g>
<g style="fill:#000000; fill-opacity:1.0000; stroke:none;">
<circle cx="29.2600" cy="17.8732" r="0.8000" /> 
<circle cx="31.8000" cy="17.8732" r="0.8000" /> 
<circle cx="34.3400" cy="17.8732" r="0.8000" /> 
<circle cx="36.8800" cy="17.8732" r="0.8000" /> 
<circle cx="39.4200" cy="17.8732" r="0.8000" /> 
<circle cx="26.7200" cy="20.4132" r="0.8000" /> 
<circle cx="29.2600" cy="20.4132" r="0.8000" /> 
<circle cx="31.8000" cy="20.4132" r="0.8000" /> 
<circle cx="34.3400" cy="20.4132" r="0.8000" /> 
<circle cx="36.8800" cy="20.4132" r="0.8000" /> 
<circle cx="39.4200" cy="20.4132" r="0.8000" /> 
<path style="fill:#000000; fill-opacity:1.0000; stroke:none;fill-rule:evenodd;"
d="M 20.8400,11.9932
22.4400,11.9932
22.4400,13.5932
20.8400,13.5932
Z" /> 
<circle cx="24.1800" cy="12.7932" r="0.8000" /> 
<circle cx="26.7200" cy="12.7932" r="0.8000" /> 
<circle cx="29.2600" cy="12.7932" r="0.8000" /> 
<circle cx="31.8000" cy="12.7932" r="0.8000" /> 
<circle cx="34.3400" cy="12.7932" r="0.8000" /> 
<circle cx="36.8800" cy="12.7932" r="0.8000" /> 
<circle cx="21.6400" cy="10.2532" r="0.8000" /> 
<circle cx="24.1800" cy="10.2532" r="0.8000" /> 
<circle cx="26.7200" cy="10.2532" r="0.8000" /> 
<circle cx="29.2600" cy="10.2532" r="0.8000" /> 
<circle cx="31.8000" cy="10.2532" r="0.8000" /> 
<circle cx="34.3400" cy="10.2532" r="0.8000" /> 
<circle cx="36.8800" cy="10.2532" r="0.8000" /> 
</g>
<g style="fill:none; 
stroke:#000000; stroke-width:1.4000; stroke-opacity:1; 
stroke-linecap:round; stroke-linejoin:round;">
<path d="M21.5400 17.8732
L21.7400 17.8732
" />
<path d="M21.5400 20.4132
L21.7400 20.4132
" />
</g>
<g style="fill:#000000; fill-opacity:1.0000; stroke:none;">
<circle cx="21.7200" cy="22.8732" r="0.4000" /> 
</g>
<g style="fill:#000000; fill-opacity:1.0000; stroke:none;">
<circle cx="24.1200" cy="16.7733" r="0.4000" /> 
</g>
<g style="fill:#000000; fill-opacity:1.0000; stroke:none;">
<circle cx="16.7200" cy="7.8732" r="0.4000" /> 
</g>
<g style="fill:#000000; fill-opacity:1.0000; stroke:none;">
<circle cx="41.7200" cy="17.8732" r="0.4000" /> 
</g>
<g style="fill:#000000; fill-opacity:1.0000; stroke:none;">
<circle cx="41.7200" cy="7.8732" r="0.4000" /> 
</g>
<g style="fill:#000000; fill-opacity:1.0000; stroke:none;">
<circle cx="21.7200" cy="2.8733" r="0.4000" /> 
</g>
<g style="fill:#000000; fill-opacity:1.0000; stroke:none;">
<circle cx="27.4200" cy="14.0732" r="0.4000" /> 
</g>
<g style="fill:#000000; fill-opacity:1.0000; stroke:none;">
<circle cx="36.7200" cy="22.8732" r="0.4000" /> 
</g>
<g style="fill:#000000; fill-opacity:1.0000; stroke:none;">
<circle cx="36.7200" cy="2.8733" r="0.4000" /> 
</g>
<g style="fill:#000000; fill-opacity:1.0000; stroke:none;">
<circle cx="16.7200" cy="17.8732" r="0.4000" /> 
</g>
<g style="fill:none; 
stroke:#000000; stroke-width:0.2500; stroke-opacity:1; 
stroke-linecap:round; stroke-linejoin:round;">
<path d="M29.2600 15.3332
L26.7200 17.8732
" />
<path d="M29.2600 12.7932
L29.2600 15.3332
" />
<path d="M31.8000 15.3332
L29.2600 17.8732
" />
<path d="M31.8000 12.7932
L31.8000 15.3332
" />
<path d="M34.3400 15.3332
L31.8000 17.8732
" />
<path d="M34.3400 12.7932
L34.3400 15.3332
" />
<path d="M36.8800 12.7932
L36.8800 15.3332
" />
<path d="M36.8800 15.3332
L34.3400 17.8732
" />
<path d="M26.7200 12.7932
L21.6400 17.8732
" />
<path style="fill:#000000; fill-opacity:1.0000; stroke:none;fill-rule:evenodd;"
d="M 41.9256,0.1763
41.9577,0.1977
43.1255,1.3655
43.1470,1.3976
43.1545,1.4355
43.1545,22.8810
43.1470,22.9189
43.1255,22.9510
41.9577,24.1188
41.9256,24.1402
41.8877,24.1477
16.6323,24.1477
16.5944,24.1402
16.5623,24.1188
15.3945,22.9510
15.3730,22.9189
15.3655,22.8810
15.3655,20.5079
20.6395,20.5079
20.6789,20.6931
20.7558,20.8660
20.8671,21.0191
21.0078,21.1458
21.1717,21.2404
21.3517,21.2989
21.4928,21.3137
21.7872,21.3137
21.7872,21.3137
21.9283,21.2989
22.1083,21.2404
22.2722,21.1458
22.2722,21.1458
22.2722,21.1458
22.4129,21.0191
22.5242,20.8660
22.6011,20.6931
22.6189,20.6093
22.6405,20.5079
22.6405,20.4132
25.7147,20.4132
25.7340,20.6094
25.7912,20.7980
25.8841,20.9718
26.0091,21.1241
26.1615,21.2492
26.3353,21.3421
26.5239,21.3993
26.7200,21.4186
26.9161,21.3993
27.1047,21.3421
27.2785,21.2492
27.4309,21.1241
27.5559,20.9718
27.6488,20.7980
27.7060,20.6094
27.7253,20.4132
28.2547,20.4132
28.2740,20.6094
28.3312,20.7980
28.4241,20.9718
28.4241,20.9718
28.5491,21.1241
28.6783,21.2301
28.7015,21.2492
28.8753,21.3421
28.9696,21.3707
29.0639,21.3993
29.2600,21.4186
29.4561,21.3993
29.6447,21.3421
29.8185,21.2492
29.9709,21.1241
30.0959,20.9718
30.1888,20.7980
30.2460,20.6094
30.2653,20.4132
30.2653,20.4132
30.7947,20.4132
30.8140,20.6094
30.8712,20.7980
30.9641,20.9718
30.9641,20.9718
31.0891,21.1241
31.2183,21.2301
31.2415,21.2492
31.4153,21.3421
31.5096,21.3707
31.6039,21.3993
31.8000,21.4186
31.9961,21.3993
32.1847,21.3421
32.3585,21.2492
32.5109,21.1241
32.6359,20.9718
32.7288,20.7980
32.7860,20.6094
32.8053,20.4132
33.3347,20.4132
33.3540,20.6094
33.4112,20.7980
33.5041,20.9718
33.5041,20.9718
33.6291,21.1241
33.7583,21.2301
33.7815,21.2492
33.9553,21.3421
34.0496,21.3707
34.1439,21.3993
34.3400,21.4186
34.5361,21.3993
34.7247,21.3421
34.8985,21.2492
35.0509,21.1241
35.1759,20.9718
35.2688,20.7980
35.3260,20.6094
35.3355,20.5132
35.8850,20.5132
35.8945,20.6093
35.9516,20.7978
36.0445,20.9715
36.1695,21.1238
36.3217,21.2487
36.4955,21.3416
36.6840,21.3988
36.7800,21.4082
36.9800,21.4082
37.0760,21.3988
37.2645,21.3416
37.4383,21.2487
37.5905,21.1238
37.7155,20.9715
37.8083,20.7978
37.8655,20.6093
37.8750,20.5132
36.9800,20.5132
36.9800,20.5133
36.9800,21.4082
36.7800,21.4082
36.7800,20.5133
36.7800,20.5132
35.8850,20.5132
35.3355,20.5132
35.3453,20.4132
38.4147,20.4132
38.4340,20.6094
38.4912,20.7980
38.5841,20.9718
38.5841,20.9718
38.7091,21.1241
38.8383,21.2301
38.8615,21.2492
39.0353,21.3421
39.1296,21.3707
39.2239,21.3993
39.4200,21.4186
39.6161,21.3993
39.8047,21.3421
39.9785,21.2492
40.1309,21.1241
40.2559,20.9718
40.3488,20.7980
40.4060,20.6094
40.4253,20.4132
40.4060,20.2171
40.3488,20.0285
40.3488,20.0285
40.2559,19.8547
40.2369,19.8315
40.1309,19.7024
39.9892,19.5861
39.9785,19.5773
39.8047,19.4844
39.6161,19.4272
39.4200,19.4079
39.2239,19.4272
39.0353,19.4844
38.8615,19.5773
38.7091,19.7024
38.5841,19.8547
38.4912,20.0285
38.4340,20.2171
38.4147,20.4132
35.3453,20.4132
35.3355,20.3133
35.8850,20.3133
36.7800,20.3133
36.7800,20.3132
36.7800,19.4183
36.9800,19.4183
36.9800,19.4183
36.9800,20.3132
36.9800,20.3133
37.8750,20.3133
37.8655,20.2172
37.8083,20.0287
37.7155,19.8550
37.5905,19.7027
37.4383,19.5778
37.2645,19.4849
37.0760,19.4277
36.9800,19.4183
36.7800,19.4183
36.6840,19.4277
36.4955,19.4849
36.3217,19.5778
36.1695,19.7027
36.0445,19.8550
35.9516,20.0287
35.8945,20.2172
35.8850,20.3133
35.3355,20.3133
35.3260,20.2171
35.2688,20.0285
35.2688,20.0285
35.1759,19.8547
35.1569,19.8315
35.0509,19.7024
34.9092,19.5861
34.8985,19.5773
34.7247,19.4844
34.5361,19.4272
34.3400,19.4079
34.1439,19.4272
33.9553,19.4844
33.7815,19.5773
33.6291,19.7024
33.5041,19.8547
33.4112,20.0285
33.3540,20.2171
33.3347,20.4132
32.8053,20.4132
32.7860,20.2171
32.7288,20.0285
32.7288,20.0285
32.6359,19.8547
32.6169,19.8315
32.5109,19.7024
32.3692,19.5861
32.3585,19.5773
32.1847,19.4844
31.9961,19.4272
31.8000,19.4079
31.6039,19.4272
31.4153,19.4844
31.2415,19.5773
31.0891,19.7024
30.9641,19.8547
30.8712,20.0285
30.8140,20.2171
30.7947,20.4132
30.2653,20.4132
30.2460,20.2171
30.1888,20.0285
30.1888,20.0285
30.0959,19.8547
30.0769,19.8315
29.9709,19.7024
29.8292,19.5861
29.8185,19.5773
29.6447,19.4844
29.4561,19.4272
29.2600,19.4079
29.0639,19.4272
28.8753,19.4844
28.7015,19.5773
28.5491,19.7024
28.4241,19.8547
28.3312,20.0285
28.2740,20.2171
28.2547,20.4132
27.7253,20.4132
27.7060,20.2171
27.6488,20.0285
27.6488,20.0285
27.5559,19.8547
27.5369,19.8315
27.4309,19.7024
27.2892,19.5861
27.2785,19.5773
27.1047,19.4844
26.9161,19.4272
26.7200,19.4079
26.5239,19.4272
26.3353,19.4844
26.1615,19.5773
26.1508,19.5861
26.0091,19.7024
25.9031,19.8315
25.8841,19.8547
25.7912,20.0285
25.7912,20.0285
25.7340,20.2171
25.7147,20.4132
22.6405,20.4132
22.6405,20.3186
22.6011,20.1334
22.6011,20.1334
22.5242,19.9605
22.4129,19.8074
22.2722,19.6807
22.1083,19.5861
21.9283,19.5276
21.9283,19.5276
21.7872,19.5128
21.4928,19.5128
21.3517,19.5276
21.1986,19.5773
21.1717,19.5861
21.0078,19.6807
20.8671,19.8074
20.8671,19.8074
20.7558,19.9605
20.6789,20.1334
20.6395,20.3186
20.6395,20.5079
15.3655,20.5079
15.3655,17.9679
20.6395,17.9679
20.6789,18.1531
20.7558,18.3260
20.8671,18.4791
21.0078,18.6058
21.1717,18.7004
21.3517,18.7589
21.4928,18.7737
21.7872,18.7737
21.7872,18.7737
21.9283,18.7589
22.1083,18.7004
22.1212,18.6930
25.7195,18.6930
25.7311,18.7515
25.7754,18.8178
25.8418,18.8621
25.9003,18.8737
27.5397,18.8737
27.5397,18.8737
27.5982,18.8621
27.6646,18.8178
27.7089,18.7515
27.7205,18.6930
27.7205,17.8732
28.2547,17.8732
28.2740,18.0694
28.3312,18.2580
28.4241,18.4318
28.4241,18.4318
28.5491,18.5841
28.6783,18.6901
28.7015,18.7092
28.8753,18.8021
28.9696,18.8307
29.0639,18.8593
29.2600,18.8786
29.4561,18.8593
29.6447,18.8021
29.8185,18.7092
29.9709,18.5841
30.0959,18.4318
30.1888,18.2580
30.2460,18.0694
30.2653,17.8732
30.7947,17.8732
30.8140,18.0694
30.8712,18.2580
30.9641,18.4318
30.9641,18.4318
31.0891,18.5841
31.2183,18.6901
31.2415,18.7092
31.4153,18.8021
31.5096,18.8307
31.6039,18.8593
31.8000,18.8786
31.9961,18.8593
32.1847,18.8021
32.3585,18.7092
32.5109,18.5841
32.6359,18.4318
32.7288,18.2580
32.7860,18.0694
32.8053,17.8732
33.3347,17.8732
33.3540,18.0694
33.4112,18.2580
33.5041,18.4318
33.5041,18.4318
33.6291,18.5841
33.7583,18.6901
33.7815,18.7092
33.9553,18.8021
34.0496,18.8307
34.1439,18.8593
34.3400,18.8786
34.5361,18.8593
34.7247,18.8021
34.8985,18.7092
35.0509,18.5841
35.1759,18.4318
35.2688,18.2580
35.3260,18.0694
35.3355,17.9733
35.8850,17.9733
35.8945,18.0693
35.9516,18.2578
36.0445,18.4315
36.1695,18.5838
36.3217,18.7087
36.4955,18.8016
36.6840,18.8588
36.7800,18.8682
36.9800,18.8682
37.0760,18.8588
37.2645,18.8016
37.4383,18.7087
37.5905,18.5838
37.7155,18.4315
37.8083,18.2578
37.8655,18.0693
37.8750,17.9733
36.9800,17.9733
36.9800,17.9733
36.9800,18.8682
36.7800,18.8682
36.7800,17.9733
36.7800,17.9733
35.8850,17.9733
35.3355,17.9733
35.3453,17.8732
38.4147,17.8732
38.4340,18.0694
38.4912,18.2580
38.5841,18.4318
38.5841,18.4318
38.7091,18.5841
38.8383,18.6901
38.8615,18.7092
39.0353,18.8021
39.1296,18.8307
39.2239,18.8593
39.4200,18.8786
39.6161,18.8593
39.8047,18.8021
39.9785,18.7092
40.1309,18.5841
40.2559,18.4318
40.3488,18.2580
40.4060,18.0694
40.4253,17.8732
40.4060,17.6771
40.3488,17.4885
40.2559,17.3147
40.1309,17.1624
39.9785,17.0373
39.8047,16.9444
39.6161,16.8872
39.4200,16.8679
39.2239,16.8872
39.2222,16.8877
39.0353,16.9444
38.8615,17.0373
38.8615,17.0373
38.7091,17.1624
38.6229,17.2674
38.5841,17.3147
38.4912,17.4885
38.4340,17.6771
38.4147,17.8732
35.3453,17.8732
35.3360,17.7786
35.3355,17.7733
35.8850,17.7733
36.7800,17.7733
36.7800,17.7732
36.7800,16.8783
36.9800,16.8783
36.9800,17.7732
36.9800,17.7733
37.8750,17.7733
37.8655,17.6772
37.8083,17.4887
37.7155,17.3150
37.5905,17.1627
37.4383,17.0378
37.2645,16.9449
37.0760,16.8877
36.9800,16.8783
36.7800,16.8783
36.6840,16.8877
36.4955,16.9449
36.3217,17.0378
36.1695,17.1627
36.0445,17.3150
35.9516,17.4887
35.8945,17.6772
35.8850,17.7733
35.3355,17.7733
35.3260,17.6771
35.3188,17.6533
35.2688,17.4885
35.2688,17.4885
35.2665,17.4810
35.2652,17.4282
35.2913,17.3823
37.0971,15.5765
37.1034,15.5707
37.1332,15.5457
37.1526,15.5120
37.1573,15.5048
37.1796,15.4729
37.1799,15.4715
37.1898,15.4476
37.1906,15.4463
37.1973,15.4080
37.1992,15.3996
37.2093,15.3621
37.2059,15.3234
37.2055,15.3147
37.2055,13.8131
37.2196,13.7622
37.2578,13.7257
37.4385,13.6292
37.4849,13.5911
37.5909,13.5041
37.7159,13.3518
37.7159,13.3518
37.8088,13.1780
37.8660,12.9894
37.8660,12.9893
37.8853,12.7932
37.8660,12.5971
37.8088,12.4085
37.7159,12.2347
37.5909,12.0824
37.4385,11.9573
37.2647,11.8644
37.0761,11.8072
36.8800,11.7879
36.6839,11.8072
36.6822,11.8077
36.4953,11.8644
36.3215,11.9573
36.3215,11.9573
36.1691,12.0824
36.0821,12.1884
36.0441,12.2347
35.9512,12.4085
35.8940,12.5971
35.8747,12.7932
35.8940,12.9894
35.9512,13.1780
36.0441,13.3518
36.1691,13.5041
36.3215,13.6292
36.5022,13.7257
36.5404,13.7622
36.5545,13.8131
36.5545,15.1574
36.5470,15.1953
36.5255,15.2274
34.8310,16.9220
34.7850,16.9480
34.7322,16.9467
34.7247,16.9444
34.7247,16.9444
34.5600,16.8945
34.5361,16.8872
34.3400,16.8679
34.1439,16.8872
34.1422,16.8877
33.9553,16.9444
33.7815,17.0373
33.7815,17.0373
33.6291,17.1624
33.5429,17.2674
33.5041,17.3147
33.4112,17.4885
33.3540,17.6771
33.3347,17.8732
32.8053,17.8732
32.7960,17.7786
32.7860,17.6771
32.7788,17.6533
32.7288,17.4885
32.7288,17.4885
32.7265,17.4810
32.7252,17.4282
32.7513,17.3823
34.5571,15.5765
34.5634,15.5707
34.5932,15.5457
34.6126,15.5120
34.6173,15.5048
34.6396,15.4729
34.6399,15.4715
34.6498,15.4476
34.6506,15.4463
34.6573,15.4080
34.6592,15.3996
34.6693,15.3621
34.6659,15.3234
34.6655,15.3147
34.6655,13.8131
34.6796,13.7622
34.7178,13.7257
34.8985,13.6292
34.9449,13.5911
35.0509,13.5041
35.1759,13.3518
35.1759,13.3518
35.2688,13.1780
35.3260,12.9894
35.3260,12.9893
35.3453,12.7932
35.3260,12.5971
35.2688,12.4085
35.1759,12.2347
35.0509,12.0824
34.8985,11.9573
34.7247,11.8644
34.5361,11.8072
34.3400,11.7879
34.1439,11.8072
34.1422,11.8077
33.9553,11.8644
33.7815,11.9573
33.7815,11.9573
33.6291,12.0824
33.5421,12.1884
33.5041,12.2347
33.4112,12.4085
33.3540,12.5971
33.3347,12.7932
33.3540,12.9894
33.4112,13.1780
33.5041,13.3518
33.6291,13.5041
33.7815,13.6292
33.9622,13.7257
34.0004,13.7622
34.0145,13.8131
34.0145,15.1574
34.0070,15.1953
33.9855,15.2274
32.2910,16.9220
32.2450,16.9480
32.1922,16.9467
32.1847,16.9444
32.1847,16.9444
32.0200,16.8945
31.9961,16.8872
31.8000,16.8679
31.6039,16.8872
31.6022,16.8877
31.4153,16.9444
31.2415,17.0373
31.2415,17.0373
31.0891,17.1624
31.0029,17.2674
30.9641,17.3147
30.8712,17.4885
30.8140,17.6771
30.7947,17.8732
30.2653,17.8732
30.2560,17.7786
30.2460,17.6771
30.2388,17.6533
30.1888,17.4885
30.1888,17.4885
30.1865,17.4810
30.1852,17.4282
30.2113,17.3823
32.0171,15.5765
32.0234,15.5707
32.0532,15.5457
32.0726,15.5120
32.0773,15.5048
32.0996,15.4729
32.0999,15.4715
32.1098,15.4476
32.1106,15.4463
32.1173,15.4080
32.1192,15.3996
32.1293,15.3621
32.1259,15.3234
32.1255,15.3147
32.1255,13.8131
32.1396,13.7622
32.1778,13.7257
32.3585,13.6292
32.4049,13.5911
32.5109,13.5041
32.6359,13.3518
32.6359,13.3518
32.7288,13.1780
32.7860,12.9894
32.7860,12.9893
32.8053,12.7932
32.7860,12.5971
32.7288,12.4085
32.6359,12.2347
32.5109,12.0824
32.3585,11.9573
32.1847,11.8644
31.9961,11.8072
31.8000,11.7879
31.8000,11.7879
31.8000,11.7879
31.7019,11.7976
31.6039,11.8072
31.6022,11.8077
31.4153,11.8644
31.2415,11.9573
31.2415,11.9573
31.0891,12.0824
31.0021,12.1884
30.9641,12.2347
30.8712,12.4085
30.8140,12.5971
30.7947,12.7932
30.8140,12.9894
30.8712,13.1780
30.9641,13.3518
31.0891,13.5041
31.2415,13.6292
31.4222,13.7257
31.4604,13.7622
31.4745,13.8131
31.4745,15.1574
31.4670,15.1953
31.4455,15.2274
29.7510,16.9220
29.7050,16.9480
29.6522,16.9467
29.6447,16.9444
29.6447,16.9444
29.4800,16.8945
29.4561,16.8872
29.2600,16.8679
29.0639,16.8872
29.0622,16.8877
28.8753,16.9444
28.7015,17.0373
28.7015,17.0373
28.5491,17.1624
28.4629,17.2674
28.4241,17.3147
28.3312,17.4885
28.2740,17.6771
28.2547,17.8732
27.7205,17.8732
27.7205,17.3741
27.7280,17.3362
27.7495,17.3041
29.4771,15.5765
29.4834,15.5707
29.5132,15.5457
29.5326,15.5120
29.5373,15.5048
29.5596,15.4729
29.5599,15.4715
29.5698,15.4476
29.5706,15.4463
29.5773,15.4080
29.5792,15.3996
29.5893,15.3621
29.5859,15.3234
29.5855,15.3147
29.5855,13.8131
29.5996,13.7622
29.6378,13.7257
29.8185,13.6292
29.8649,13.5911
29.9709,13.5041
30.0959,13.3518
30.0959,13.3518
30.1888,13.1780
30.2460,12.9894
30.2460,12.9893
30.2653,12.7932
30.2460,12.5971
30.1888,12.4085
30.0959,12.2347
29.9709,12.0824
29.8185,11.9573
29.6447,11.8644
29.4561,11.8072
29.2600,11.7879
29.2600,11.7879
29.2600,11.7879
29.1619,11.7976
29.0639,11.8072
29.0622,11.8077
28.8753,11.8644
28.7015,11.9573
28.7015,11.9573
28.5491,12.0824
28.4621,12.1884
28.4241,12.2347
28.3312,12.4085
28.2740,12.5971
28.2547,12.7932
28.2740,12.9894
28.3312,13.1780
28.4241,13.3518
28.5491,13.5041
28.7015,13.6292
28.8822,13.7257
28.9204,13.7622
28.9345,13.8131
28.9345,15.1574
28.9270,15.1953
28.9055,15.2274
27.2892,16.8438
27.2571,16.8652
27.2192,16.8727
25.9003,16.8727
25.8418,16.8844
25.7754,16.9287
25.7311,16.9950
25.7195,17.0535
25.7195,18.6930
22.1212,18.6930
22.2722,18.6058
22.2722,18.6058
22.2722,18.6058
22.4129,18.4791
22.5242,18.3260
22.6011,18.1531
22.6189,18.0693
22.6405,17.9679
22.6405,17.7786
22.6011,17.5934
22.6011,17.5934
22.5607,17.5027
22.5538,17.4444
22.5812,17.3924
26.2290,13.7445
26.2750,13.7185
26.3278,13.7198
26.5239,13.7793
26.7200,13.7986
26.9161,13.7793
27.1047,13.7221
27.2785,13.6292
27.3249,13.5911
27.4309,13.5041
27.5559,13.3518
27.5559,13.3518
27.6488,13.1780
27.7060,12.9894
27.7060,12.9893
27.7253,12.7932
27.7060,12.5971
27.6488,12.4085
27.5559,12.2347
27.4309,12.0824
27.2785,11.9573
27.1047,11.8644
26.9161,11.8072
26.7200,11.7879
26.5239,11.8072
26.3353,11.8644
26.1615,11.9573
26.0091,12.0824
25.8841,12.2347
25.7912,12.4085
25.7340,12.5971
25.7245,12.6932
25.7147,12.7932
25.7340,12.9894
25.7340,12.9894
25.7340,12.9894
25.7912,13.1780
25.7912,13.1780
25.7935,13.1855
25.7948,13.2383
25.7687,13.2842
22.0746,16.9783
22.0277,17.0046
21.9740,17.0024
21.9512,16.9950
21.9283,16.9876
21.7872,16.9727
21.4928,16.9727
21.3517,16.9876
21.1717,17.0461
21.0078,17.1407
20.8671,17.2674
20.7558,17.4205
20.6789,17.5934
20.6395,17.7786
20.6395,17.9679
15.3655,17.9679
15.3655,13.6130
20.6395,13.6130
20.6511,13.6715
20.6511,13.6715
20.6954,13.7378
20.7568,13.7788
20.7618,13.7821
20.8203,13.7937
22.4597,13.7937
22.4597,13.7937
22.4874,13.7882
24.2800,13.7882
24.3760,13.7788
24.5645,13.7216
24.7383,13.6287
24.8905,13.5038
25.0155,13.3515
25.1084,13.1778
25.1655,12.9893
25.1750,12.8933
24.2800,12.8933
24.2800,12.8933
24.2800,13.7882
22.4874,13.7882
22.4890,13.7879
22.5182,13.7821
22.5846,13.7378
22.6289,13.6715
22.6373,13.6292
22.6405,13.6130
22.6405,12.8933
23.1850,12.8933
23.1945,12.9893
23.2516,13.1778
23.3445,13.3515
23.4695,13.5038
23.6217,13.6287
23.7955,13.7216
23.9840,13.7788
24.0800,13.7882
24.0800,12.8933
24.0800,12.8933
23.1850,12.8933
22.6405,12.8933
22.6405,12.6932
23.1850,12.6932
24.0800,12.6932
24.0800,12.6932
24.0800,11.7983
24.2800,11.7983
24.2800,12.6932
24.2800,12.6932
25.1750,12.6932
25.1655,12.5972
25.1084,12.4087
25.0155,12.2350
24.8905,12.0827
24.7383,11.9578
24.5645,11.8649
24.3760,11.8077
24.2800,11.7983
24.0800,11.7983
23.9840,11.8077
23.7955,11.8649
23.6217,11.9578
23.4695,12.0827
23.3445,12.2350
23.2516,12.4087
23.1945,12.5972
23.1850,12.6932
22.6405,12.6932
22.6405,11.9735
22.6289,11.9150
22.5846,11.8487
22.5232,11.8077
22.5182,11.8044
22.4597,11.7927
20.8203,11.7927
20.7618,11.8044
20.6954,11.8487
20.6511,11.9150
20.6395,11.9735
20.6395,13.6130
15.3655,13.6130
15.3655,10.2532
20.6347,10.2532
20.6540,10.4493
20.6540,10.4494
20.7112,10.6380
20.8041,10.8118
20.8041,10.8118
20.9291,10.9641
21.0351,11.0511
21.0815,11.0892
21.2553,11.1821
21.4439,11.2393
21.6400,11.2586
21.8361,11.2393
22.0247,11.1821
22.1985,11.0892
22.3509,10.9641
22.4759,10.8118
22.5688,10.6380
22.6260,10.4494
22.6355,10.3532
23.1850,10.3532
23.1945,10.4493
23.2516,10.6378
23.3445,10.8115
23.4695,10.9638
23.6217,11.0887
23.7955,11.1816
23.9840,11.2388
24.0800,11.2482
24.2800,11.2482
24.3760,11.2388
24.5645,11.1816
24.7383,11.0887
24.8905,10.9638
25.0155,10.8115
25.1084,10.6378
25.1655,10.4493
25.1750,10.3532
24.2800,10.3532
24.2800,10.3533
24.2800,11.2482
24.0800,11.2482
24.0800,11.2482
24.0800,10.3533
24.0800,10.3532
23.1850,10.3532
22.6355,10.3532
22.6453,10.2532
25.7147,10.2532
25.7340,10.4493
25.7340,10.4494
25.7912,10.6380
25.8841,10.8118
25.8841,10.8118
26.0091,10.9641
26.1151,11.0511
26.1615,11.0892
26.3353,11.1821
26.5239,11.2393
26.7200,11.2586
26.9161,11.2393
27.1047,11.1821
27.2785,11.0892
27.3249,11.0511
27.4309,10.9641
27.5559,10.8118
27.5559,10.8118
27.6488,10.6380
27.7060,10.4494
27.7060,10.4493
27.7253,10.2532
28.2547,10.2532
28.2740,10.4494
28.3312,10.6380
28.4241,10.8118
28.5491,10.9641
28.7015,11.0892
28.8753,11.1821
29.0639,11.2393
29.2600,11.2586
29.4561,11.2393
29.6447,11.1821
29.8185,11.0892
29.8649,11.0511
29.9709,10.9641
30.0959,10.8118
30.0959,10.8118
30.1888,10.6380
30.2460,10.4494
30.2460,10.4493
30.2653,10.2532
30.7947,10.2532
30.8140,10.4494
30.8712,10.6380
30.9641,10.8118
31.0891,10.9641
31.2415,11.0892
31.4153,11.1821
31.6039,11.2393
31.8000,11.2586
31.9961,11.2393
32.1847,11.1821
32.3585,11.0892
32.4049,11.0511
32.5109,10.9641
32.6359,10.8118
32.6359,10.8118
32.7288,10.6380
32.7860,10.4494
32.7860,10.4493
32.8053,10.2532
33.3347,10.2532
33.3540,10.4494
33.4112,10.6380
33.5041,10.8118
33.6291,10.9641
33.7815,11.0892
33.9553,11.1821
34.1439,11.2393
34.3400,11.2586
34.5361,11.2393
34.7247,11.1821
34.8985,11.0892
34.9449,11.0511
35.0509,10.9641
35.1759,10.8118
35.1759,10.8118
35.2688,10.6380
35.3260,10.4494
35.3260,10.4493
35.3453,10.2532
35.8747,10.2532
35.8940,10.4494
35.9512,10.6380
36.0441,10.8118
36.1691,10.9641
36.3215,11.0892
36.4953,11.1821
36.6839,11.2393
36.8800,11.2586
37.0761,11.2393
37.2647,11.1821
37.4385,11.0892
37.4849,11.0511
37.5909,10.9641
37.7159,10.8118
37.7159,10.8118
37.8088,10.6380
37.8660,10.4494
37.8660,10.4493
37.8853,10.2532
37.8660,10.0571
37.8088,9.8685
37.7159,9.6947
37.5909,9.5424
37.4385,9.4173
37.2647,9.3244
37.0761,9.2672
36.8800,9.2479
36.6839,9.2672
36.6822,9.2677
36.4953,9.3244
36.3215,9.4173
36.3215,9.4173
36.1691,9.5424
36.0821,9.6484
36.0441,9.6947
35.9512,9.8685
35.8940,10.0571
35.8747,10.2532
35.3453,10.2532
35.3260,10.0571
35.2688,9.8685
35.1759,9.6947
35.0509,9.5424
34.8985,9.4173
34.7247,9.3244
34.5361,9.2672
34.3400,9.2479
34.1439,9.2672
34.1422,9.2677
33.9553,9.3244
33.7815,9.4173
33.7815,9.4173
33.6291,9.5424
33.5421,9.6484
33.5041,9.6947
33.4112,9.8685
33.3540,10.0571
33.3347,10.2532
32.8053,10.2532
32.7860,10.0571
32.7288,9.8685
32.6359,9.6947
32.5109,9.5424
32.3585,9.4173
32.1847,9.3244
31.9961,9.2672
31.8000,9.2479
31.6039,9.2672
31.6022,9.2677
31.4153,9.3244
31.2415,9.4173
31.2415,9.4173
31.0891,9.5424
31.0021,9.6484
30.9641,9.6947
30.8712,9.8685
30.8140,10.0571
30.7947,10.2532
30.2653,10.2532
30.2460,10.0571
30.1888,9.8685
30.0959,9.6947
29.9709,9.5424
29.8185,9.4173
29.6447,9.3244
29.4561,9.2672
29.2600,9.2479
29.0639,9.2672
29.0622,9.2677
28.8753,9.3244
28.7015,9.4173
28.7015,9.4173
28.5491,9.5424
28.4621,9.6484
28.4241,9.6947
28.3312,9.8685
28.2740,10.0571
28.2547,10.2532
27.7253,10.2532
27.7060,10.0571
27.6488,9.8685
27.5559,9.6947
27.4309,9.5424
27.2785,9.4173
27.1047,9.3244
26.9161,9.2672
26.7200,9.2479
26.5239,9.2672
26.3353,9.3244
26.1615,9.4173
26.0091,9.5424
25.8841,9.6947
25.7912,9.8685
25.7340,10.0571
25.7147,10.2532
22.6453,10.2532
22.6355,10.1532
23.1850,10.1532
24.0800,10.1532
24.0800,10.1532
24.0800,9.2583
24.2800,9.2583
24.2800,10.1532
24.2800,10.1532
25.1750,10.1532
25.1655,10.0572
25.1084,9.8687
25.0155,9.6950
24.8905,9.5427
24.7383,9.4178
24.5645,9.3249
24.3760,9.2677
24.2800,9.2583
24.0800,9.2583
23.9840,9.2677
23.7955,9.3249
23.6217,9.4178
23.4695,9.5427
23.3445,9.6950
23.2516,9.8687
23.1945,10.0572
23.1850,10.1532
22.6355,10.1532
22.6260,10.0571
22.5688,9.8685
22.4759,9.6947
22.4379,9.6484
22.3509,9.5424
22.1985,9.4173
22.1985,9.4173
22.0247,9.3244
21.8378,9.2677
21.8361,9.2672
21.7381,9.2576
21.6400,9.2479
21.6400,9.2479
21.6400,9.2479
21.4439,9.2672
21.2553,9.3244
21.0815,9.4173
20.9291,9.5424
20.8041,9.6947
20.7112,9.8685
20.6540,10.0571
20.6347,10.2532
15.3655,10.2532
15.3655,1.4355
15.3730,1.3976
15.3945,1.3655
16.5623,0.1977
16.5944,0.1763
16.6323,0.1687
41.8877,0.1687
Z" /> 
</g>
<g style="fill:#FFFFFF; fill-opacity:1.0000; stroke:none;">
<circle cx="21.7200" cy="22.8732" r="0.2000" /> 
</g>
<g style="fill:#FFFFFF; fill-opacity:1.0000; stroke:none;">
<circle cx="24.1200" cy="16.7733" r="0.2000" /> 
</g>
<g style="fill:#FFFFFF; fill-opacity:1.0000; stroke:none;">
<circle cx="16.7200" cy="7.8732" r="0.2000" /> 
</g>
<g style="fill:#FFFFFF; fill-opacity:1.0000; stroke:none;">
<circle cx="41.7200" cy="17.8732" r="0.2000" /> 
</g>
<g style="fill:#FFFFFF; fill-opacity:1.0000; stroke:none;">
<circle cx="41.7200" cy="7.8732" r="0.2000" /> 
</g>
<g style="fill:#FFFFFF; fill-opacity:1.0000; stroke:none;">
<circle cx="21.7200" cy="2.8733" r="0.2000" /> 
</g>
<g style="fill:#FFFFFF; fill-opacity:1.0000; stroke:none;">
<circle cx="27.4200" cy="14.0732" r="0.2000" /> 
</g>
<g style="fill:#FFFFFF; fill-opacity:1.0000; stroke:none;">
<circle cx="36.7200" cy="22.8732" r="0.2000" /> 
</g>
<g style="fill:#FFFFFF; fill-opacity:1.0000; stroke:none;">
<circle cx="36.7200" cy="2.8733" r="0.2000" /> 
</g>
<g style="fill:#FFFFFF; fill-opacity:1.0000; stroke:none;">
<circle cx="16.7200" cy="17.8732" r="0.2000" /> 
</g>
<g style="fill:#FFFFFF; fill-opacity:1.0000; stroke:none;">
<circle cx="26.7200" cy="17.8732" r="0.4000" /> 
</g>
<g style="fill:#FFFFFF; fill-opacity:1.0000; stroke:none;">
<circle cx="29.2600" cy="17.8732" r="0.4000" /> 
</g>
<g style="fill:#FFFFFF; fill-opacity:1.0000; stroke:none;">
<circle cx="31.8000" cy="17.8732" r="0.4000" /> 
</g>
<g style="fill:#FFFFFF; fill-opacity:1.0000; stroke:none;">
<circle cx="34.3400" cy="17.8732" r="0.4000" /> 
</g>
<g style="fill:#FFFFFF; fill-opacity:1.0000; stroke:none;">
<circle cx="36.8800" cy="17.8732" r="0.4000" /> 
</g>
<g style="fill:#FFFFFF; fill-opacity:1.0000; stroke:none;">
<circle cx="39.4200" cy="17.8732" r="0.4000" /> 
</g>
<g style="fill:#FFFFFF; fill-opacity:1.0000; stroke:none;">
<circle cx="26.7200" cy="20.4132" r="0.4000" /> 
</g>
<g style="fill:#FFFFFF; fill-opacity:1.0000; stroke:none;">
<circle cx="29.2600" cy="20.4132" r="0.4000" /> 
</g>
<g style="fill:#FFFFFF; fill-opacity:1.0000; stroke:none;">
<circle cx="31.8000" cy="20.4132" r="0.4000" /> 
</g>
<g style="fill:#FFFFFF; fill-opacity:1.0000; stroke:none;">
<circle cx="34.3400" cy="20.4132" r="0.4000" /> 
</g>
<g style="fill:#FFFFFF; fill-opacity:1.0000; stroke:none;">
<circle cx="36.8800" cy="20.4132" r="0.4000" /> 
</g>
<g style="fill:#FFFFFF; fill-opacity:1.0000; stroke:none;">
<circle cx="39.4200" cy="20.4132" r="0.4000" /> 
</g>
<g style="fill:#FFFFFF; fill-opacity:1.0000; stroke:none;">
<circle cx="21.6400" cy="12.7932" r="0.4000" /> 
</g>
<g style="fill:#FFFFFF; fill-opacity:1.0000; stroke:none;">
<circle cx="24.1800" cy="12.7932" r="0.4000" /> 
</g>
<g style="fill:#FFFFFF; fill-opacity:1.0000; stroke:none;">
<circle cx="26.7200" cy="12.7932" r="0.4000" /> 
</g>
<g style="fill:#FFFFFF; fill-opacity:1.0000; stroke:none;">
<circle cx="29.2600" cy="12.7932" r="0.4000" /> 
</g>
<g style="fill:#FFFFFF; fill-opacity:1.0000; stroke:none;">
<circle cx="31.8000" cy="12.7932" r="0.4000" /> 
</g>
<g style="fill:#FFFFFF; fill-opacity:1.0000; stroke:none;">
<circle cx="34.3400" cy="12.7932" r="0.4000" /> 
</g>
<g style="fill:#FFFFFF; fill-opacity:1.0000; stroke:none;">
<circle cx="36.8800" cy="12.7932" r="0.4000" /> 
</g>
<g style="fill:#FFFFFF; fill-opacity:1.0000; stroke:none;">
<circle cx="21.6400" cy="10.2532" r="0.4000" /> 
</g>
<g style="fill:#FFFFFF; fill-opacity:1.0000; stroke:none;">
<circle cx="24.1800" cy="10.2532" r="0.4000" /> 
</g>
<g style="fill:#FFFFFF; fill-opacity:1.0000; stroke:none;">
<circle cx="26.7200" cy="10.2532" r="0.4000" /> 
</g>
<g style="fill:#FFFFFF; fill-opacity:1.0000; stroke:none;">
<circle cx="29.2600" cy="10.2532" r="0.4000" /> 
</g>
<g style="fill:#FFFFFF; fill-opacity:1.0000; stroke:none;">
<circle cx="31.8000" cy="10.2532" r="0.4000" /> 
</g>
<g style="fill:#FFFFFF; fill-opacity:1.0000; stroke:none;">
<circle cx="34.3400" cy="10.2532" r="0.4000" /> 
</g>
<g style="fill:#FFFFFF; fill-opacity:1.0000; stroke:none;">
<circle cx="36.8800" cy="10.2532" r="0.4000" /> 
</g>
<g style="fill:#FFFFFF; fill-opacity:1.0000; stroke:none;">
<circle cx="21.6400" cy="17.8732" r="0.4000" /> 
</g>
<g style="fill:#FFFFFF; fill-opacity:1.0000; stroke:none;">
<circle cx="21.6400" cy="20.4132" r="0.4000" /> 
<path style="fill:#000000; fill-opacity:1.0000; stroke:none;fill-rule:evenodd;"
d="M 25.9200,17.0732
27.5200,17.0732
27.5200,18.6732
25.9200,18.6732
Z" /> 
</g>
<g style="fill:#000000; fill-opacity:1.0000; stroke:none;">
<circle cx="29.2600" cy="17.8732" r="0.8000" /> 
<circle cx="31.8000" cy="17.8732" r="0.8000" /> 
<circle cx="34.3400" cy="17.8732" r="0.8000" /> 
<circle cx="36.8800" cy="17.8732" r="0.8000" /> 
<circle cx="39.4200" cy="17.8732" r="0.8000" /> 
<circle cx="26.7200" cy="20.4132" r="0.8000" /> 
<circle cx="29.2600" cy="20.4132" r="0.8000" /> 
<circle cx="31.8000" cy="20.4132" r="0.8000" /> 
<circle cx="34.3400" cy="20.4132" r="0.8000" /> 
<circle cx="36.8800" cy="20.4132" r="0.8000" /> 
<circle cx="39.4200" cy="20.4132" r="0.8000" /> 
<path style="fill:#000000; fill-opacity:1.0000; stroke:none;fill-rule:evenodd;"
d="M 20.8400,11.9932
22.4400,11.9932
22.4400,13.5932
20.8400,13.5932
Z" /> 
<circle cx="24.1800" cy="12.7932" r="0.8000" /> 
<circle cx="26.7200" cy="12.7932" r="0.8000" /> 
<circle cx="29.2600" cy="12.7932" r="0.8000" /> 
<circle cx="31.8000" cy="12.7932" r="0.8000" /> 
<circle cx="34.3400" cy="12.7932" r="0.8000" /> 
<circle cx="36.8800" cy="12.7932" r="0.8000" /> 
<circle cx="21.6400" cy="10.2532" r="0.8000" /> 
<circle cx="24.1800" cy="10.2532" r="0.8000" /> 
<circle cx="26.7200" cy="10.2532" r="0.8000" /> 
<circle cx="29.2600" cy="10.2532" r="0.8000" /> 
<circle cx="31.8000" cy="10.2532" r="0.8000" /> 
<circle cx="34.3400" cy="10.2532" r="0.8000" /> 
<circle cx="36.8800" cy="10.2532" r="0.8000" /> 
</g>
<g style="fill:none; 
stroke:#000000; stroke-width:1.4000; stroke-opacity:1; 
stroke-linecap:round; stroke-linejoin:round;">
<path d="M21.5400 17.8732
L21.7400 17.8732
" />
<path d="M21.5400 20.4132
L21.7400 20.4132
" />
</g>
<g style="fill:#000000; fill-opacity:1.0000; stroke:none;">
<circle cx="21.7200" cy="22.8732" r="0.4000" /> 
</g>
<g style="fill:#000000; fill-opacity:1.0000; stroke:none;">
<circle cx="24.1200" cy="16.7733" r="0.4000" /> 
</g>
<g style="fill:#000000; fill-opacity:1.0000; stroke:none;">
<circle cx="16.7200" cy="7.8732" r="0.4000" /> 
</g>
<g style="fill:#000000; fill-opacity:1.0000; stroke:none;">
<circle cx="41.7200" cy="17.8732" r="0.4000" /> 
</g>
<g style="fill:#000000; fill-opacity:1.0000; stroke:none;">
<circle cx="41.7200" cy="7.8732" r="0.4000" /> 
</g>
<g style="fill:#000000; fill-opacity:1.0000; stroke:none;">
<circle cx="21.7200" cy="2.8733" r="0.4000" /> 
</g>
<g style="fill:#000000; fill-opacity:1.0000; stroke:none;">
<circle cx="27.4200" cy="14.0732" r="0.4000" /> 
</g>
<g style="fill:#000000; fill-opacity:1.0000; stroke:none;">
<circle cx="36.7200" cy="22.8732" r="0.4000" /> 
</g>
<g style="fill:#000000; fill-opacity:1.0000; stroke:none;">
<circle cx="36.7200" cy="2.8733" r="0.4000" /> 
</g>
<g style="fill:#000000; fill-opacity:1.0000; stroke:none;">
<circle cx="16.7200" cy="17.8732" r="0.4000" /> 
</g>
<g style="fill:none; 
stroke:#000000; stroke-width:0.8000; stroke-opacity:1; 
stroke-linecap:round; stroke-linejoin:round;">
<path d="M38.4040 7.9672
L39.4200 8.9832
" />
<path d="M39.4200 17.8732
L39.4200 20.4132
" />
<path d="M21.6400 12.7932
L21.6400 10.2532
" />
<path d="M21.6400 8.9832
L22.6560 7.9672
" />
<path d="M22.6560 7.9672
L38.4040 7.9672
" />
<path d="M39.4200 8.9832
L39.4200 17.8732
" />
<path d="M21.6400 10.2532
L21.6400 8.9832
" />
</g>
<g style="fill:none; 
stroke:#000000; stroke-width:0.2500; stroke-opacity:1; 
stroke-linecap:round; stroke-linejoin:round;">
<path d="M29.2600 10.2532
L28.1850 11.3282
" />
<path d="M28.1850 18.9482
L26.7200 20.4132
" />
<path d="M28.1850 11.3282
L28.1850 18.9482
" />
<path d="M30.3350 19.3382
L29.2600 20.4132
" />
<path d="M31.8000 10.2532
L30.3350 11.7182
" />
<path d="M30.3350 11.7182
L30.3350 19.3382
" />
<path d="M32.8750 11.7182
L32.8750 19.3382
" />
<path d="M32.8750 19.3382
L31.8000 20.4132
" />
<path d="M34.3400 10.2532
L32.8750 11.7182
" />
<path d="M26.7200 10.2532
L25.2550 11.7182
" />
<path d="M25.2550 11.7182
L25.2550 16.7982
" />
<path d="M25.2550 16.7982
L21.6400 20.4132
" />
<path style="fill:#000000; fill-opacity:1.0000; stroke:none;fill-rule:evenodd;"
d="M 41.9256,0.1763
41.9577,0.1977
43.1255,1.3655
43.1470,1.3976
43.1545,1.4355
43.1545,22.8810
43.1470,22.9189
43.1255,22.9510
41.9577,24.1188
41.9256,24.1402
41.8877,24.1477
16.6323,24.1477
16.5944,24.1402
16.5623,24.1188
15.3945,22.9510
15.3730,22.9189
15.3655,22.8810
15.3655,20.5079
20.6395,20.5079
20.6789,20.6931
20.7558,20.8660
20.8671,21.0191
21.0078,21.1458
21.1717,21.2404
21.3517,21.2989
21.4928,21.3137
21.7872,21.3137
21.7872,21.3137
21.9283,21.2989
22.1083,21.2404
22.2722,21.1458
22.2722,21.1458
22.2722,21.1458
22.4129,21.0191
22.5242,20.8660
22.6011,20.6931
22.6189,20.6093
22.6405,20.5079
22.6405,20.3186
22.6011,20.1334
22.6011,20.1334
22.6011,20.1334
22.5607,20.0427
22.5538,19.9844
22.5812,19.9324
25.4721,17.0415
25.4784,17.0357
25.5082,17.0107
25.5276,16.9770
25.5323,16.9698
25.5470,16.9487
25.5710,16.9290
25.5679,16.8979
25.5723,16.8730
25.5742,16.8646
25.5843,16.8271
25.5809,16.7883
25.5805,16.7797
25.5805,13.1508
25.5961,13.0975
25.6381,13.0609
25.6931,13.0528
25.7438,13.0756
25.7742,13.1221
25.7912,13.1780
25.8841,13.3518
25.8841,13.3518
26.0091,13.5041
26.1050,13.5829
26.1615,13.6292
26.3353,13.7221
26.5239,13.7793
26.7200,13.7986
26.9161,13.7793
27.1047,13.7221
27.2785,13.6292
27.3350,13.5829
27.4309,13.5041
27.5559,13.3518
27.5559,13.3518
27.6488,13.1780
27.6658,13.1221
27.6962,13.0756
27.7469,13.0528
27.8019,13.0609
27.8439,13.0975
27.8595,13.1508
27.8595,16.8941
27.8469,16.9425
27.8122,16.9785
27.7644,16.9930
27.7156,16.9823
27.6782,16.9491
27.6751,16.9444
27.6646,16.9287
27.5982,16.8844
27.5397,16.8727
25.9003,16.8727
25.8418,16.8844
25.7754,16.9287
25.7478,16.9701
25.7227,16.9917
25.7252,17.0248
25.7195,17.0535
25.7195,18.6930
25.7311,18.7515
25.7754,18.8178
25.8418,18.8621
25.9003,18.8737
27.5397,18.8737
27.5397,18.8737
27.5435,18.8730
27.5934,18.8759
27.6355,18.9029
27.6591,18.9470
27.6581,18.9970
27.6328,19.0401
27.2109,19.4620
27.1650,19.4880
27.1122,19.4867
26.9161,19.4272
26.7200,19.4079
26.5239,19.4272
26.3353,19.4844
26.1615,19.5773
26.1195,19.6118
26.0091,19.7024
25.9031,19.8315
25.8841,19.8547
25.7912,20.0285
25.7912,20.0285
25.7340,20.2171
25.7147,20.4132
25.7340,20.6094
25.7912,20.7980
25.8841,20.9718
26.0091,21.1241
26.1615,21.2492
26.3353,21.3421
26.5239,21.3993
26.7200,21.4186
26.9161,21.3993
27.1047,21.3421
27.2785,21.2492
27.4309,21.1241
27.5559,20.9718
27.6488,20.7980
27.7060,20.6094
27.7253,20.4132
27.7160,20.3186
27.7060,20.2171
27.7023,20.2048
27.6488,20.0285
27.6488,20.0285
27.6465,20.0210
27.6452,19.9682
27.6713,19.9223
28.4021,19.1915
28.4084,19.1857
28.4382,19.1607
28.4576,19.1270
28.4623,19.1198
28.4846,19.0879
28.4849,19.0865
28.4948,19.0626
28.4956,19.0613
28.5023,19.0230
28.5042,19.0146
28.5143,18.9771
28.5109,18.9383
28.5105,18.9297
28.5105,18.7618
28.5259,18.7088
28.5672,18.6723
28.6216,18.6635
28.6723,18.6852
28.7015,18.7092
28.8753,18.8021
28.9696,18.8307
29.0639,18.8593
29.2600,18.8786
29.4561,18.8593
29.6447,18.8021
29.6977,18.7737
29.8185,18.7092
29.8477,18.6852
29.8984,18.6635
29.9528,18.6723
29.9941,18.7088
30.0095,18.7618
30.0095,19.1624
30.0020,19.2003
29.9805,19.2324
29.7509,19.4620
29.7050,19.4880
29.6522,19.4867
29.4561,19.4272
29.2600,19.4079
29.0639,19.4272
28.8753,19.4844
28.7015,19.5773
28.5491,19.7024
28.4241,19.8547
28.3312,20.0285
28.2740,20.2171
28.2547,20.4132
28.2740,20.6094
28.3312,20.7980
28.4241,20.9718
28.4241,20.9718
28.5491,21.1241
28.6783,21.2301
28.7015,21.2492
28.8753,21.3421
28.9696,21.3707
29.0639,21.3993
29.2600,21.4186
29.4561,21.3993
29.6447,21.3421
29.8185,21.2492
29.9709,21.1241
30.0959,20.9718
30.1888,20.7980
30.2460,20.6094
30.2653,20.4132
30.2560,20.3186
30.2460,20.2171
30.2423,20.2048
30.1888,20.0285
30.1888,20.0285
30.1865,20.0210
30.1852,19.9682
30.2113,19.9223
30.5521,19.5815
30.5584,19.5757
30.5882,19.5507
30.6076,19.5170
30.6123,19.5098
30.6346,19.4779
30.6349,19.4765
30.6448,19.4526
30.6456,19.4513
30.6523,19.4130
30.6542,19.4046
30.6643,19.3671
30.6609,19.3283
30.6605,19.3197
30.6605,18.2308
30.6761,18.1775
30.7181,18.1409
30.7731,18.1328
30.8238,18.1556
30.8542,18.2021
30.8712,18.2580
30.9641,18.4318
30.9641,18.4318
31.0891,18.5841
31.2050,18.6792
31.2415,18.7092
31.4153,18.8021
31.5096,18.8307
31.6039,18.8593
31.8000,18.8786
31.9961,18.8593
32.1847,18.8021
32.2377,18.7737
32.3585,18.7092
32.3877,18.6852
32.4384,18.6635
32.4928,18.6723
32.5341,18.7088
32.5495,18.7618
32.5495,19.1624
32.5420,19.2003
32.5205,19.2324
32.2909,19.4620
32.2450,19.4880
32.1922,19.4867
31.9961,19.4272
31.8000,19.4079
31.6039,19.4272
31.4153,19.4844
31.2415,19.5773
31.0891,19.7024
30.9641,19.8547
30.8712,20.0285
30.8140,20.2171
30.7947,20.4132
30.8140,20.6094
30.8712,20.7980
30.9641,20.9718
30.9641,20.9718
31.0891,21.1241
31.2183,21.2301
31.2415,21.2492
31.4153,21.3421
31.5096,21.3707
31.6039,21.3993
31.8000,21.4186
31.9961,21.3993
32.1847,21.3421
32.3585,21.2492
32.5109,21.1241
32.6359,20.9718
32.7288,20.7980
32.7860,20.6094
32.8053,20.4132
33.3347,20.4132
33.3540,20.6094
33.4112,20.7980
33.5041,20.9718
33.5041,20.9718
33.6291,21.1241
33.7583,21.2301
33.7815,21.2492
33.9553,21.3421
34.0496,21.3707
34.1439,21.3993
34.3400,21.4186
34.5361,21.3993
34.7247,21.3421
34.8985,21.2492
35.0509,21.1241
35.1759,20.9718
35.2688,20.7980
35.3260,20.6094
35.3355,20.5132
35.8850,20.5132
35.8945,20.6093
35.9516,20.7978
36.0445,20.9715
36.1695,21.1238
36.3217,21.2487
36.4955,21.3416
36.6840,21.3988
36.7800,21.4082
36.9800,21.4082
37.0760,21.3988
37.2645,21.3416
37.4383,21.2487
37.5905,21.1238
37.7155,20.9715
37.8083,20.7978
37.8655,20.6093
37.8750,20.5132
36.9800,20.5132
36.9800,20.5133
36.9800,21.4082
36.7800,21.4082
36.7800,20.5133
36.7800,20.5132
35.8850,20.5132
35.3355,20.5132
35.3453,20.4132
35.3355,20.3133
35.8850,20.3133
36.7800,20.3133
36.7800,20.3132
36.7800,19.4183
36.9800,19.4183
36.9800,19.4183
36.9800,20.3132
36.9800,20.3133
37.8750,20.3133
37.8655,20.2172
37.8083,20.0287
37.7155,19.8550
37.5905,19.7027
37.4383,19.5778
37.2645,19.4849
37.0760,19.4277
36.9800,19.4183
36.7800,19.4183
36.6840,19.4277
36.4955,19.4849
36.3217,19.5778
36.1695,19.7027
36.0445,19.8550
35.9516,20.0287
35.8945,20.2172
35.8850,20.3133
35.3355,20.3133
35.3260,20.2171
35.2688,20.0285
35.2688,20.0285
35.1759,19.8547
35.1569,19.8315
35.0509,19.7024
34.9405,19.6118
34.8985,19.5773
34.7247,19.4844
34.5361,19.4272
34.3400,19.4079
34.1439,19.4272
33.9553,19.4844
33.7815,19.5773
33.6291,19.7024
33.5041,19.8547
33.4112,20.0285
33.3540,20.2171
33.3347,20.4132
32.8053,20.4132
32.7960,20.3186
32.7860,20.2171
32.7823,20.2048
32.7288,20.0285
32.7288,20.0285
32.7265,20.0210
32.7252,19.9682
32.7513,19.9223
33.0921,19.5815
33.0984,19.5757
33.1282,19.5507
33.1476,19.5170
33.1523,19.5098
33.1746,19.4779
33.1749,19.4765
33.1848,19.4526
33.1856,19.4513
33.1923,19.4130
33.1942,19.4046
33.2043,19.3671
33.2009,19.3283
33.2005,19.3197
33.2005,18.2308
33.2161,18.1775
33.2581,18.1409
33.3131,18.1328
33.3638,18.1556
33.3942,18.2021
33.4112,18.2580
33.5041,18.4318
33.5041,18.4318
33.6291,18.5841
33.7450,18.6792
33.7815,18.7092
33.9553,18.8021
34.0496,18.8307
34.1439,18.8593
34.3400,18.8786
34.5361,18.8593
34.7247,18.8021
34.8985,18.7092
35.0509,18.5841
35.1759,18.4318
35.2688,18.2580
35.3260,18.0694
35.3355,17.9733
35.8850,17.9733
35.8945,18.0693
35.9516,18.2578
36.0445,18.4315
36.1695,18.5838
36.3217,18.7087
36.4955,18.8016
36.6840,18.8588
36.7800,18.8682
36.9800,18.8682
37.0760,18.8588
37.2645,18.8016
37.4383,18.7087
37.5905,18.5838
37.7155,18.4315
37.8083,18.2578
37.8655,18.0693
37.8750,17.9733
36.9800,17.9733
36.9800,17.9733
36.9800,18.8682
36.7800,18.8682
36.7800,17.9733
36.7800,17.9733
35.8850,17.9733
35.3355,17.9733
35.3453,17.8732
35.3355,17.7733
35.8850,17.7733
36.7800,17.7733
36.7800,17.7732
36.7800,16.8783
36.9800,16.8783
36.9800,17.7732
36.9800,17.7733
37.8750,17.7733
37.8655,17.6772
37.8083,17.4887
37.7155,17.3150
37.5905,17.1627
37.4383,17.0378
37.2645,16.9449
37.0760,16.8877
36.9800,16.8783
36.7800,16.8783
36.6840,16.8877
36.4955,16.9449
36.3217,17.0378
36.1695,17.1627
36.0445,17.3150
35.9516,17.4887
35.8945,17.6772
35.8850,17.7733
35.3355,17.7733
35.3260,17.6771
35.2688,17.4885
35.1759,17.3147
35.0509,17.1624
34.8985,17.0373
34.7247,16.9444
34.5361,16.8872
34.3400,16.8679
34.1439,16.8872
34.0645,16.9113
33.9553,16.9444
33.7815,17.0373
33.7815,17.0373
33.6291,17.1624
33.5905,17.2094
33.5041,17.3147
33.4112,17.4885
33.3942,17.5444
33.3638,17.5909
33.3131,17.6137
33.2581,17.6056
33.2161,17.5690
33.2005,17.5157
33.2005,13.1508
33.2161,13.0975
33.2581,13.0609
33.3131,13.0528
33.3638,13.0756
33.3942,13.1221
33.4112,13.1780
33.5041,13.3518
33.6291,13.5041
33.7815,13.6292
33.9553,13.7221
34.1439,13.7793
34.3400,13.7986
34.5361,13.7793
34.7247,13.7221
34.8985,13.6292
34.9550,13.5829
35.0509,13.5041
35.1759,13.3518
35.1759,13.3518
35.2688,13.1780
35.3260,12.9894
35.3260,12.9893
35.3453,12.7932
35.8747,12.7932
35.8940,12.9894
35.9512,13.1780
36.0441,13.3518
36.1691,13.5041
36.3215,13.6292
36.4953,13.7221
36.6839,13.7793
36.8800,13.7986
37.0761,13.7793
37.2647,13.7221
37.4385,13.6292
37.4950,13.5829
37.5909,13.5041
37.7159,13.3518
37.7159,13.3518
37.8088,13.1780
37.8660,12.9894
37.8660,12.9893
37.8853,12.7932
37.8660,12.5971
37.8088,12.4085
37.7159,12.2347
37.5909,12.0824
37.4385,11.9573
37.2647,11.8644
37.0761,11.8072
36.8800,11.7879
36.6839,11.8072
36.5896,11.8358
36.4953,11.8644
36.3215,11.9573
36.3215,11.9573
36.1691,12.0824
36.1305,12.1294
36.0441,12.2347
35.9512,12.4085
35.8940,12.5971
35.8747,12.7932
35.3453,12.7932
35.3260,12.5971
35.2688,12.4085
35.1759,12.2347
35.0509,12.0824
34.8985,11.9573
34.7247,11.8644
34.5361,11.8072
34.3400,11.7879
34.1439,11.8072
34.0496,11.8358
33.9553,11.8644
33.7815,11.9573
33.7815,11.9573
33.6291,12.0824
33.5905,12.1294
33.5041,12.2347
33.4112,12.4085
33.3942,12.4644
33.3638,12.5109
33.3131,12.5337
33.2581,12.5256
33.2161,12.4890
33.2005,12.4357
33.2005,11.8941
33.2080,11.8562
33.2295,11.8241
33.8490,11.2045
33.8950,11.1785
33.9478,11.1798
34.1439,11.2393
34.3400,11.2586
34.5361,11.2393
34.7247,11.1821
34.8985,11.0892
34.9767,11.0250
35.0509,10.9641
35.1759,10.8118
35.1759,10.8118
35.2688,10.6380
35.3260,10.4494
35.3260,10.4493
35.3453,10.2532
35.8747,10.2532
35.8940,10.4494
35.9512,10.6380
36.0441,10.8118
36.1691,10.9641
36.3215,11.0892
36.4953,11.1821
36.6839,11.2393
36.8800,11.2586
37.0761,11.2393
37.2647,11.1821
37.4385,11.0892
37.5167,11.0250
37.5909,10.9641
37.7159,10.8118
37.7159,10.8118
37.8088,10.6380
37.8660,10.4494
37.8660,10.4493
37.8853,10.2532
37.8660,10.0571
37.8088,9.8685
37.7159,9.6947
37.5909,9.5424
37.4385,9.4173
37.2647,9.3244
37.0761,9.2672
36.8800,9.2479
36.6839,9.2672
36.5896,9.2958
36.4953,9.3244
36.3215,9.4173
36.3215,9.4173
36.1691,9.5424
36.0821,9.6484
36.0441,9.6947
35.9512,9.8685
35.8940,10.0571
35.8747,10.2532
35.3453,10.2532
35.3260,10.0571
35.2688,9.8685
35.1759,9.6947
35.0509,9.5424
34.8985,9.4173
34.7247,9.3244
34.5361,9.2672
34.3400,9.2479
34.1439,9.2672
34.0496,9.2958
33.9553,9.3244
33.7815,9.4173
33.7815,9.4173
33.6291,9.5424
33.5421,9.6484
33.5041,9.6947
33.4112,9.8685
33.3540,10.0571
33.3347,10.2532
33.3540,10.4494
33.4135,10.6455
33.4148,10.6983
33.3887,10.7442
32.6579,11.4750
32.6516,11.4808
32.6218,11.5058
32.6024,11.5395
32.5977,11.5467
32.5754,11.5786
32.5751,11.5800
32.5652,11.6039
32.5644,11.6052
32.5644,11.6052
32.5644,11.6052
32.5577,11.6435
32.5558,11.6519
32.5457,11.6894
32.5491,11.7282
32.5495,11.7368
32.5495,11.9047
32.5341,11.9577
32.4928,11.9942
32.4384,12.0030
32.3877,11.9813
32.3585,11.9573
32.1847,11.8644
32.1328,11.8487
31.9961,11.8072
31.8000,11.7879
31.8000,11.7879
31.8000,11.7879
31.7019,11.7976
31.6039,11.8072
31.5096,11.8358
31.4153,11.8644
31.2415,11.9573
31.2415,11.9573
31.0891,12.0824
31.0505,12.1294
30.9641,12.2347
30.8712,12.4085
30.8542,12.4644
30.8238,12.5109
30.7731,12.5337
30.7181,12.5256
30.6761,12.4890
30.6605,12.4357
30.6605,11.8941
30.6680,11.8562
30.6895,11.8241
31.3090,11.2045
31.3550,11.1785
31.4078,11.1798
31.6039,11.2393
31.8000,11.2586
31.9961,11.2393
32.1847,11.1821
32.3585,11.0892
32.4367,11.0250
32.5109,10.9641
32.6359,10.8118
32.6359,10.8118
32.7288,10.6380
32.7860,10.4494
32.7860,10.4493
32.8053,10.2532
32.7860,10.0571
32.7288,9.8685
32.6359,9.6947
32.5109,9.5424
32.3585,9.4173
32.1847,9.3244
31.9961,9.2672
31.8000,9.2479
31.6039,9.2672
31.5096,9.2958
31.4153,9.3244
31.2415,9.4173
31.2415,9.4173
31.0891,9.5424
31.0021,9.6484
30.9641,9.6947
30.8712,9.8685
30.8140,10.0571
30.7947,10.2532
30.8140,10.4494
30.8735,10.6455
30.8748,10.6983
30.8487,10.7442
30.1179,11.4750
30.1116,11.4808
30.0818,11.5058
30.0624,11.5395
30.0577,11.5467
30.0354,11.5786
30.0351,11.5800
30.0252,11.6039
30.0244,11.6052
30.0244,11.6052
30.0244,11.6052
30.0177,11.6435
30.0158,11.6519
30.0057,11.6894
30.0091,11.7282
30.0095,11.7368
30.0095,11.9047
29.9941,11.9577
29.9528,11.9942
29.8984,12.0030
29.8477,11.9813
29.8185,11.9573
29.6447,11.8644
29.5928,11.8487
29.4561,11.8072
29.2600,11.7879
29.2600,11.7879
29.2600,11.7879
29.1619,11.7976
29.0639,11.8072
28.9696,11.8358
28.8753,11.8644
28.7015,11.9573
28.6723,11.9813
28.6216,12.0030
28.5672,11.9942
28.5259,11.9577
28.5105,11.9047
28.5105,11.5041
28.5180,11.4662
28.5395,11.4341
28.7690,11.2045
28.8150,11.1785
28.8678,11.1798
29.0639,11.2393
29.2600,11.2586
29.4561,11.2393
29.6447,11.1821
29.8185,11.0892
29.8967,11.0250
29.9709,10.9641
30.0959,10.8118
30.0959,10.8118
30.1888,10.6380
30.2460,10.4494
30.2460,10.4493
30.2653,10.2532
30.2460,10.0571
30.1888,9.8685
30.0959,9.6947
29.9709,9.5424
29.8185,9.4173
29.6447,9.3244
29.4561,9.2672
29.2600,9.2479
29.0639,9.2672
28.9696,9.2958
28.8753,9.3244
28.7015,9.4173
28.7015,9.4173
28.5491,9.5424
28.4621,9.6484
28.4241,9.6947
28.3312,9.8685
28.2740,10.0571
28.2547,10.2532
28.2740,10.4494
28.3335,10.6455
28.3348,10.6983
28.3087,10.7442
27.9679,11.0850
27.9616,11.0908
27.9318,11.1158
27.9124,11.1495
27.9077,11.1567
27.8854,11.1886
27.8851,11.1900
27.8752,11.2139
27.8744,11.2152
27.8744,11.2152
27.8744,11.2152
27.8677,11.2535
27.8658,11.2619
27.8557,11.2994
27.8591,11.3382
27.8595,11.3468
27.8595,12.4357
27.8439,12.4890
27.8019,12.5256
27.7469,12.5337
27.6962,12.5109
27.6658,12.4644
27.6488,12.4085
27.5559,12.2347
27.5559,12.2347
27.4309,12.0824
27.2785,11.9573
27.1047,11.8644
26.9161,11.8072
26.7200,11.7879
26.5239,11.8072
26.3353,11.8644
26.1615,11.9573
26.0091,12.0824
25.8841,12.2347
25.8841,12.2347
25.7912,12.4085
25.7742,12.4644
25.7438,12.5109
25.6931,12.5337
25.6381,12.5256
25.5961,12.4890
25.5805,12.4357
25.5805,11.8941
25.5880,11.8562
25.6095,11.8241
26.2291,11.2045
26.2750,11.1785
26.3278,11.1798
26.5239,11.2393
26.7200,11.2586
26.9161,11.2393
27.1047,11.1821
27.2785,11.0892
27.3567,11.0250
27.4309,10.9641
27.5559,10.8118
27.5559,10.8118
27.6488,10.6380
27.7060,10.4494
27.7060,10.4493
27.7253,10.2532
27.7060,10.0571
27.6488,9.8685
27.5559,9.6947
27.4309,9.5424
27.2785,9.4173
27.1047,9.3244
26.9161,9.2672
26.7200,9.2479
26.5239,9.2672
26.3353,9.3244
26.1615,9.4173
26.0091,9.5424
25.8841,9.6947
25.7912,9.8685
25.7340,10.0571
25.7245,10.1532
25.7147,10.2532
25.7340,10.4494
25.7340,10.4494
25.7340,10.4494
25.7912,10.6380
25.7912,10.6380
25.7935,10.6455
25.7948,10.6983
25.7687,10.7442
25.0379,11.4750
25.0316,11.4808
25.0018,11.5058
24.9824,11.5395
24.9777,11.5467
24.9554,11.5786
24.9551,11.5800
24.9452,11.6039
24.9444,11.6052
24.9377,11.6435
24.9358,11.6519
24.9257,11.6894
24.9257,11.6894
24.9257,11.6894
24.9291,11.7282
24.9295,11.7368
24.9295,11.9054
24.9141,11.9584
24.8728,11.9949
24.8184,12.0036
24.7677,11.9819
24.7383,11.9578
24.5645,11.8649
24.3760,11.8077
24.2800,11.7983
24.2800,13.7882
24.3760,13.7788
24.5645,13.7216
24.7383,13.6287
24.7677,13.6046
24.8184,13.5829
24.8728,13.5916
24.9141,13.6281
24.9295,13.6811
24.9295,16.6224
24.9220,16.6603
24.9005,16.6924
22.0746,19.5183
22.0277,19.5446
21.9740,19.5424
21.9283,19.5276
21.8400,19.5183
21.7872,19.5128
21.4928,19.5128
21.3517,19.5276
21.2806,19.5507
21.1717,19.5861
21.0078,19.6807
20.8671,19.8074
20.8671,19.8074
20.7558,19.9605
20.6789,20.1334
20.6395,20.3186
20.6395,20.5079
15.3655,20.5079
15.3655,17.9679
20.6395,17.9679
20.6789,18.1531
20.7558,18.3260
20.8671,18.4791
21.0078,18.6058
21.1717,18.7004
21.3517,18.7589
21.4928,18.7737
21.7872,18.7737
21.7872,18.7737
21.9283,18.7589
22.1083,18.7004
22.2722,18.6058
22.2722,18.6058
22.2722,18.6058
22.4129,18.4791
22.5242,18.3260
22.6011,18.1531
22.6189,18.0693
22.6405,17.9679
22.6405,17.7786
22.6011,17.5934
22.5903,17.5690
22.5242,17.4205
22.4129,17.2674
22.2722,17.1407
22.2722,17.1407
22.1083,17.0461
21.9283,16.9876
21.7872,16.9727
21.4928,16.9727
21.3517,16.9876
21.1717,17.0461
21.0078,17.1407
20.8671,17.2674
20.7558,17.4205
20.6789,17.5934
20.6395,17.7786
20.6395,17.9679
15.3655,17.9679
15.3655,10.2532
20.6347,10.2532
20.6540,10.4493
20.6540,10.4494
20.7112,10.6380
20.8041,10.8118
20.8041,10.8118
20.9291,10.9641
21.0033,11.0250
21.0300,11.0592
21.0395,11.1015
21.0395,11.6937
21.0262,11.7432
20.9900,11.7795
20.9405,11.7927
20.8203,11.7927
20.7618,11.8044
20.6954,11.8487
20.6511,11.9150
20.6395,11.9735
20.6395,13.6130
20.6511,13.6715
20.6511,13.6715
20.6954,13.7378
20.7568,13.7788
20.7618,13.7821
20.8203,13.7937
22.4597,13.7937
22.4597,13.7937
22.4890,13.7879
22.5182,13.7821
22.5846,13.7378
22.6289,13.6715
22.6374,13.6288
22.6405,13.6130
22.6405,12.8933
23.1850,12.8933
23.1945,12.9893
23.2516,13.1778
23.3445,13.3515
23.4695,13.5038
23.6217,13.6287
23.7955,13.7216
23.9840,13.7788
24.0800,13.7882
24.0800,12.8933
24.0800,12.8933
23.1850,12.8933
22.6405,12.8933
22.6405,12.6932
23.1850,12.6932
24.0800,12.6932
24.0800,12.6932
24.0800,11.7983
23.9840,11.8077
23.7955,11.8649
23.6217,11.9578
23.4695,12.0827
23.3445,12.2350
23.2516,12.4087
23.1945,12.5972
23.1850,12.6932
22.6405,12.6932
22.6405,11.9735
22.6289,11.9150
22.6220,11.9047
22.5846,11.8487
22.5232,11.8077
22.5182,11.8044
22.4597,11.7927
22.4597,11.7927
22.3395,11.7927
22.2900,11.7795
22.2538,11.7432
22.2405,11.6937
22.2405,11.1015
22.2500,11.0592
22.2767,11.0250
22.3509,10.9641
22.3512,10.9638
22.4759,10.8118
22.5688,10.6380
22.6260,10.4494
22.6355,10.3532
23.1850,10.3532
23.1945,10.4493
23.2516,10.6378
23.3445,10.8115
23.4695,10.9638
23.6217,11.0887
23.7955,11.1816
23.9840,11.2388
24.0800,11.2482
24.2800,11.2482
24.3760,11.2388
24.5645,11.1816
24.7383,11.0887
24.8905,10.9638
25.0155,10.8115
25.1084,10.6378
25.1655,10.4493
25.1750,10.3532
24.2800,10.3532
24.2800,10.3533
24.2800,11.2482
24.0800,11.2482
24.0800,11.2482
24.0800,10.3533
24.0800,10.3532
23.1850,10.3532
22.6355,10.3532
22.6453,10.2532
22.6355,10.1532
23.1850,10.1532
24.0800,10.1532
24.0800,10.1532
24.0800,9.2583
24.2800,9.2583
24.2800,10.1532
24.2800,10.1532
25.1750,10.1532
25.1655,10.0572
25.1084,9.8687
25.0155,9.6950
24.8905,9.5427
24.7383,9.4178
24.5645,9.3249
24.3760,9.2677
24.2800,9.2583
24.0800,9.2583
23.9840,9.2677
23.7955,9.3249
23.6217,9.4178
23.4695,9.5427
23.3445,9.6950
23.2516,9.8687
23.1945,10.0572
23.1850,10.1532
22.6355,10.1532
22.6260,10.0571
22.5688,9.8685
22.4759,9.6947
22.4379,9.6484
22.3509,9.5424
22.2767,9.4815
22.2500,9.4473
22.2405,9.4050
22.2405,9.2730
22.2480,9.2351
22.2695,9.2030
22.8757,8.5967
22.9079,8.5753
22.9457,8.5678
38.1143,8.5678
38.1521,8.5753
38.1843,8.5967
38.7905,9.2030
38.8120,9.2351
38.8195,9.2730
38.8195,17.0250
38.8100,17.0673
38.7833,17.1015
38.7091,17.1624
38.6705,17.2094
38.5841,17.3147
38.4912,17.4885
38.4340,17.6771
38.4147,17.8732
38.4340,18.0694
38.4912,18.2580
38.5841,18.4318
38.5841,18.4318
38.7091,18.5841
38.7833,18.6450
38.8100,18.6792
38.8195,18.7215
38.8195,19.5650
38.8100,19.6073
38.7833,19.6415
38.7091,19.7024
38.7091,19.7024
38.5841,19.8547
38.4912,20.0285
38.4340,20.2171
38.4147,20.4132
38.4340,20.6094
38.4912,20.7980
38.5841,20.9718
38.5841,20.9718
38.7091,21.1241
38.8383,21.2301
38.8615,21.2492
39.0353,21.3421
39.1296,21.3707
39.2239,21.3993
39.4200,21.4186
39.6161,21.3993
39.8047,21.3421
39.9785,21.2492
40.1309,21.1241
40.2559,20.9718
40.3488,20.7980
40.4060,20.6094
40.4253,20.4132
40.4060,20.2171
40.3488,20.0285
40.3488,20.0285
40.2559,19.8547
40.2369,19.8315
40.1309,19.7024
40.0567,19.6415
40.0300,19.6073
40.0205,19.5650
40.0205,18.7215
40.0300,18.6792
40.0567,18.6450
40.1309,18.5841
40.2559,18.4318
40.3488,18.2580
40.4060,18.0694
40.4253,17.8732
40.4060,17.6771
40.3488,17.4885
40.2559,17.3147
40.1309,17.1624
40.0567,17.1015
40.0300,17.0673
40.0205,17.0250
40.0205,9.0291
40.0213,9.0162
40.0257,8.9832
40.0050,8.8265
40.0050,8.8265
39.9445,8.6804
39.9122,8.6383
39.8725,8.5865
39.8483,8.5550
39.8483,8.5550
39.8219,8.5347
39.8122,8.5262
38.8610,7.5750
38.8525,7.5653
38.8323,7.5390
38.7068,7.4427
38.5608,7.3822
38.4434,7.3667
38.4040,7.3616
38.3711,7.3659
38.3582,7.3667
22.7018,7.3667
22.6889,7.3659
22.6560,7.3616
22.6166,7.3667
22.4992,7.3822
22.3532,7.4427
22.2277,7.5390
22.2075,7.5653
22.1990,7.5750
21.2478,8.5262
21.2381,8.5347
21.2117,8.5550
21.2117,8.5550
21.1875,8.5865
21.1478,8.6383
21.1155,8.6804
21.0550,8.8265
21.0550,8.8265
21.0343,8.9832
21.0387,9.0162
21.0395,9.0291
21.0395,9.4050
21.0300,9.4473
21.0033,9.4815
20.9291,9.5424
20.8041,9.6947
20.7112,9.8685
20.6540,10.0571
20.6347,10.2532
15.3655,10.2532
15.3655,1.4355
15.3730,1.3976
15.3945,1.3655
16.5623,0.1977
16.5944,0.1763
16.6323,0.1687
41.8877,0.1687
Z" /> 
</g>
<g style="fill:#FFFFFF; fill-opacity:1.0000; stroke:none;">
<circle cx="21.7200" cy="22.8732" r="0.2000" /> 
</g>
<g style="fill:#FFFFFF; fill-opacity:1.0000; stroke:none;">
<circle cx="24.1200" cy="16.7733" r="0.2000" /> 
</g>
<g style="fill:#FFFFFF; fill-opacity:1.0000; stroke:none;">
<circle cx="16.7200" cy="7.8732" r="0.2000" /> 
</g>
<g style="fill:#FFFFFF; fill-opacity:1.0000; stroke:none;">
<circle cx="41.7200" cy="17.8732" r="0.2000" /> 
</g>
<g style="fill:#FFFFFF; fill-opacity:1.0000; stroke:none;">
<circle cx="41.7200" cy="7.8732" r="0.2000" /> 
</g>
<g style="fill:#FFFFFF; fill-opacity:1.0000; stroke:none;">
<circle cx="21.7200" cy="2.8733" r="0.2000" /> 
</g>
<g style="fill:#FFFFFF; fill-opacity:1.0000; stroke:none;">
<circle cx="27.4200" cy="14.0732" r="0.2000" /> 
</g>
<g style="fill:#FFFFFF; fill-opacity:1.0000; stroke:none;">
<circle cx="36.7200" cy="22.8732" r="0.2000" /> 
</g>
<g style="fill:#FFFFFF; fill-opacity:1.0000; stroke:none;">
<circle cx="36.7200" cy="2.8733" r="0.2000" /> 
</g>
<g style="fill:#FFFFFF; fill-opacity:1.0000; stroke:none;">
<circle cx="16.7200" cy="17.8732" r="0.2000" /> 
</g>
<g style="fill:#FFFFFF; fill-opacity:1.0000; stroke:none;">
<circle cx="26.7200" cy="17.8732" r="0.4000" /> 
</g>
<g style="fill:#FFFFFF; fill-opacity:1.0000; stroke:none;">
<circle cx="29.2600" cy="17.8732" r="0.4000" /> 
</g>
<g style="fill:#FFFFFF; fill-opacity:1.0000; stroke:none;">
<circle cx="31.8000" cy="17.8732" r="0.4000" /> 
</g>
<g style="fill:#FFFFFF; fill-opacity:1.0000; stroke:none;">
<circle cx="34.3400" cy="17.8732" r="0.4000" /> 
</g>
<g style="fill:#FFFFFF; fill-opacity:1.0000; stroke:none;">
<circle cx="36.8800" cy="17.8732" r="0.4000" /> 
</g>
<g style="fill:#FFFFFF; fill-opacity:1.0000; stroke:none;">
<circle cx="39.4200" cy="17.8732" r="0.4000" /> 
</g>
<g style="fill:#FFFFFF; fill-opacity:1.0000; stroke:none;">
<circle cx="26.7200" cy="20.4132" r="0.4000" /> 
</g>
<g style="fill:#FFFFFF; fill-opacity:1.0000; stroke:none;">
<circle cx="29.2600" cy="20.4132" r="0.4000" /> 
</g>
<g style="fill:#FFFFFF; fill-opacity:1.0000; stroke:none;">
<circle cx="31.8000" cy="20.4132" r="0.4000" /> 
</g>
<g style="fill:#FFFFFF; fill-opacity:1.0000; stroke:none;">
<circle cx="34.3400" cy="20.4132" r="0.4000" /> 
</g>
<g style="fill:#FFFFFF; fill-opacity:1.0000; stroke:none;">
<circle cx="36.8800" cy="20.4132" r="0.4000" /> 
</g>
<g style="fill:#FFFFFF; fill-opacity:1.0000; stroke:none;">
<circle cx="39.4200" cy="20.4132" r="0.4000" /> 
</g>
<g style="fill:#FFFFFF; fill-opacity:1.0000; stroke:none;">
<circle cx="21.6400" cy="12.7932" r="0.4000" /> 
</g>
<g style="fill:#FFFFFF; fill-opacity:1.0000; stroke:none;">
<circle cx="24.1800" cy="12.7932" r="0.4000" /> 
</g>
<g style="fill:#FFFFFF; fill-opacity:1.0000; stroke:none;">
<circle cx="26.7200" cy="12.7932" r="0.4000" /> 
</g>
<g style="fill:#FFFFFF; fill-opacity:1.0000; stroke:none;">
<circle cx="29.2600" cy="12.7932" r="0.4000" /> 
</g>
<g style="fill:#FFFFFF; fill-opacity:1.0000; stroke:none;">
<circle cx="31.8000" cy="12.7932" r="0.4000" /> 
</g>
<g style="fill:#FFFFFF; fill-opacity:1.0000; stroke:none;">
<circle cx="34.3400" cy="12.7932" r="0.4000" /> 
</g>
<g style="fill:#FFFFFF; fill-opacity:1.0000; stroke:none;">
<circle cx="36.8800" cy="12.7932" r="0.4000" /> 
</g>
<g style="fill:#FFFFFF; fill-opacity:1.0000; stroke:none;">
<circle cx="21.6400" cy="10.2532" r="0.4000" /> 
</g>
<g style="fill:#FFFFFF; fill-opacity:1.0000; stroke:none;">
<circle cx="24.1800" cy="10.2532" r="0.4000" /> 
</g>
<g style="fill:#FFFFFF; fill-opacity:1.0000; stroke:none;">
<circle cx="26.7200" cy="10.2532" r="0.4000" /> 
</g>
<g style="fill:#FFFFFF; fill-opacity:1.0000; stroke:none;">
<circle cx="29.2600" cy="10.2532" r="0.4000" /> 
</g>
<g style="fill:#FFFFFF; fill-opacity:1.0000; stroke:none;">
<circle cx="31.8000" cy="10.2532" r="0.4000" /> 
</g>
<g style="fill:#FFFFFF; fill-opacity:1.0000; stroke:none;">
<circle cx="34.3400" cy="10.2532" r="0.4000" /> 
</g>
<g style="fill:#FFFFFF; fill-opacity:1.0000; stroke:none;">
<circle cx="36.8800" cy="10.2532" r="0.4000" /> 
</g>
<g style="fill:#FFFFFF; fill-opacity:1.0000; stroke:none;">
<circle cx="21.6400" cy="17.8732" r="0.4000" /> 
</g>
<g style="fill:#FFFFFF; fill-opacity:1.0000; stroke:none;">
<circle cx="21.6400" cy="20.4132" r="0.4000" /> 
</g>
<g style="fill:none; 
stroke:#000000; stroke-width:0.1500; stroke-opacity:1; 
stroke-linecap:round; stroke-linejoin:round;">
<g transform="rotate(-90.000000 24.4500 23.5282)">
<text x="24.4500" y="24.0282"
textLength="18.7262" font-size="1.3333" lengthAdjust="spacingAndGlyphs"
text-anchor="middle" opacity="0">Conn_02x06_Top_Bottom</text>
</g>
<g class="stroked-text"><desc>Conn_02x06_Top_Bottom</desc>
<path d="M24.8096 31.9568
L24.8572 32.0044
" />
<path d="M24.8572 32.0044
L24.9048 32.1473
" />
<path d="M24.9048 32.1473
L24.9048 32.2425
" />
<path d="M24.9048 32.2425
L24.8572 32.3854
" />
<path d="M24.8572 32.3854
L24.7620 32.4806
" />
<path d="M24.7620 32.4806
L24.6667 32.5282
" />
<path d="M24.6667 32.5282
L24.4762 32.5759
" />
<path d="M24.4762 32.5759
L24.3334 32.5759
" />
<path d="M24.3334 32.5759
L24.1429 32.5282
" />
<path d="M24.1429 32.5282
L24.0477 32.4806
" />
<path d="M24.0477 32.4806
L23.9524 32.3854
" />
<path d="M23.9524 32.3854
L23.9048 32.2425
" />
<path d="M23.9048 32.2425
L23.9048 32.1473
" />
<path d="M23.9048 32.1473
L23.9524 32.0044
" />
<path d="M23.9524 32.0044
L24.0001 31.9568
" />
<path d="M24.9048 31.3854
L24.8572 31.4806
" />
<path d="M24.8572 31.4806
L24.8096 31.5282
" />
<path d="M24.8096 31.5282
L24.7143 31.5759
" />
<path d="M24.7143 31.5759
L24.4286 31.5759
" />
<path d="M24.4286 31.5759
L24.3334 31.5282
" />
<path d="M24.3334 31.5282
L24.2858 31.4806
" />
<path d="M24.2858 31.4806
L24.2382 31.3854
" />
<path d="M24.2382 31.3854
L24.2382 31.2425
" />
<path d="M24.2382 31.2425
L24.2858 31.1473
" />
<path d="M24.2858 31.1473
L24.3334 31.0997
" />
<path d="M24.3334 31.0997
L24.4286 31.0521
" />
<path d="M24.4286 31.0521
L24.7143 31.0521
" />
<path d="M24.7143 31.0521
L24.8096 31.0997
" />
<path d="M24.8096 31.0997
L24.8572 31.1473
" />
<path d="M24.8572 31.1473
L24.9048 31.2425
" />
<path d="M24.9048 31.2425
L24.9048 31.3854
" />
<path d="M24.2382 30.6235
L24.9048 30.6235
" />
<path d="M24.3334 30.6235
L24.2858 30.5759
" />
<path d="M24.2858 30.5759
L24.2382 30.4806
" />
<path d="M24.2382 30.4806
L24.2382 30.3378
" />
<path d="M24.2382 30.3378
L24.2858 30.2425
" />
<path d="M24.2858 30.2425
L24.3810 30.1949
" />
<path d="M24.3810 30.1949
L24.9048 30.1949
" />
<path d="M24.2382 29.7187
L24.9048 29.7187
" />
<path d="M24.3334 29.7187
L24.2858 29.6711
" />
<path d="M24.2858 29.6711
L24.2382 29.5759
" />
<path d="M24.2382 29.5759
L24.2382 29.4330
" />
<path d="M24.2382 29.4330
L24.2858 29.3378
" />
<path d="M24.2858 29.3378
L24.3810 29.2902
" />
<path d="M24.3810 29.2902
L24.9048 29.2902
" />
<path d="M25.0001 29.0521
L25.0001 28.2902
" />
<path d="M23.9048 27.8616
L23.9048 27.7663
" />
<path d="M23.9048 27.7663
L23.9524 27.6711
" />
<path d="M23.9524 27.6711
L24.0001 27.6235
" />
<path d="M24.0001 27.6235
L24.0953 27.5759
" />
<path d="M24.0953 27.5759
L24.2858 27.5282
" />
<path d="M24.2858 27.5282
L24.5239 27.5282
" />
<path d="M24.5239 27.5282
L24.7143 27.5759
" />
<path d="M24.7143 27.5759
L24.8096 27.6235
" />
<path d="M24.8096 27.6235
L24.8572 27.6711
" />
<path d="M24.8572 27.6711
L24.9048 27.7663
" />
<path d="M24.9048 27.7663
L24.9048 27.8616
" />
<path d="M24.9048 27.8616
L24.8572 27.9568
" />
<path d="M24.8572 27.9568
L24.8096 28.0044
" />
<path d="M24.8096 28.0044
L24.7143 28.0521
" />
<path d="M24.7143 28.0521
L24.5239 28.0997
" />
<path d="M24.5239 28.0997
L24.2858 28.0997
" />
<path d="M24.2858 28.0997
L24.0953 28.0521
" />
<path d="M24.0953 28.0521
L24.0001 28.0044
" />
<path d="M24.0001 28.0044
L23.9524 27.9568
" />
<path d="M23.9524 27.9568
L23.9048 27.8616
" />
<path d="M24.0001 27.1473
L23.9524 27.0997
" />
<path d="M23.9524 27.0997
L23.9048 27.0044
" />
<path d="M23.9048 27.0044
L23.9048 26.7663
" />
<path d="M23.9048 26.7663
L23.9524 26.6711
" />
<path d="M23.9524 26.6711
L24.0001 26.6235
" />
<path d="M24.0001 26.6235
L24.0953 26.5759
" />
<path d="M24.0953 26.5759
L24.1905 26.5759
" />
<path d="M24.1905 26.5759
L24.3334 26.6235
" />
<path d="M24.3334 26.6235
L24.9048 27.1949
" />
<path d="M24.9048 27.1949
L24.9048 26.5759
" />
<path d="M24.9048 26.2425
L24.2382 25.7187
" />
<path d="M24.2382 26.2425
L24.9048 25.7187
" />
<path d="M23.9048 25.1473
L23.9048 25.0521
" />
<path d="M23.9048 25.0521
L23.9524 24.9568
" />
<path d="M23.9524 24.9568
L24.0001 24.9092
" />
<path d="M24.0001 24.9092
L24.0953 24.8616
" />
<path d="M24.0953 24.8616
L24.2858 24.8140
" />
<path d="M24.2858 24.8140
L24.5239 24.8140
" />
<path d="M24.5239 24.8140
L24.7143 24.8616
" />
<path d="M24.7143 24.8616
L24.8096 24.9092
" />
<path d="M24.8096 24.9092
L24.8572 24.9568
" />
<path d="M24.8572 24.9568
L24.9048 25.0521
" />
<path d="M24.9048 25.0521
L24.9048 25.1473
" />
<path d="M24.9048 25.1473
L24.8572 25.2425
" />
<path d="M24.8572 25.2425
L24.8096 25.2902
" />
<path d="M24.8096 25.2902
L24.7143 25.3378
" />
<path d="M24.7143 25.3378
L24.5239 25.3854
" />
<path d="M24.5239 25.3854
L24.2858 25.3854
" />
<path d="M24.2858 25.3854
L24.0953 25.3378
" />
<path d="M24.0953 25.3378
L24.0001 25.2902
" />
<path d="M24.0001 25.2902
L23.9524 25.2425
" />
<path d="M23.9524 25.2425
L23.9048 25.1473
" />
<path d="M23.9048 23.9568
L23.9048 24.1473
" />
<path d="M23.9048 24.1473
L23.9524 24.2425
" />
<path d="M23.9524 24.2425
L24.0001 24.2902
" />
<path d="M24.0001 24.2902
L24.1429 24.3854
" />
<path d="M24.1429 24.3854
L24.3334 24.4330
" />
<path d="M24.3334 24.4330
L24.7143 24.4330
" />
<path d="M24.7143 24.4330
L24.8096 24.3854
" />
<path d="M24.8096 24.3854
L24.8572 24.3378
" />
<path d="M24.8572 24.3378
L24.9048 24.2425
" />
<path d="M24.9048 24.2425
L24.9048 24.0521
" />
<path d="M24.9048 24.0521
L24.8572 23.9568
" />
<path d="M24.8572 23.9568
L24.8096 23.9092
" />
<path d="M24.8096 23.9092
L24.7143 23.8616
" />
<path d="M24.7143 23.8616
L24.4762 23.8616
" />
<path d="M24.4762 23.8616
L24.3810 23.9092
" />
<path d="M24.3810 23.9092
L24.3334 23.9568
" />
<path d="M24.3334 23.9568
L24.2858 24.0521
" />
<path d="M24.2858 24.0521
L24.2858 24.2425
" />
<path d="M24.2858 24.2425
L24.3334 24.3378
" />
<path d="M24.3334 24.3378
L24.3810 24.3854
" />
<path d="M24.3810 24.3854
L24.4762 24.4330
" />
<path d="M25.0001 23.6711
L25.0001 22.9092
" />
<path d="M23.9048 22.8140
L23.9048 22.2425
" />
<path d="M24.9048 22.5282
L23.9048 22.5282
" />
<path d="M24.9048 21.7663
L24.8572 21.8616
" />
<path d="M24.8572 21.8616
L24.8096 21.9092
" />
<path d="M24.8096 21.9092
L24.7143 21.9568
" />
<path d="M24.7143 21.9568
L24.4286 21.9568
" />
<path d="M24.4286 21.9568
L24.3334 21.9092
" />
<path d="M24.3334 21.9092
L24.2858 21.8616
" />
<path d="M24.2858 21.8616
L24.2382 21.7663
" />
<path d="M24.2382 21.7663
L24.2382 21.6235
" />
<path d="M24.2382 21.6235
L24.2858 21.5282
" />
<path d="M24.2858 21.5282
L24.3334 21.4806
" />
<path d="M24.3334 21.4806
L24.4286 21.4330
" />
<path d="M24.4286 21.4330
L24.7143 21.4330
" />
<path d="M24.7143 21.4330
L24.8096 21.4806
" />
<path d="M24.8096 21.4806
L24.8572 21.5282
" />
<path d="M24.8572 21.5282
L24.9048 21.6235
" />
<path d="M24.9048 21.6235
L24.9048 21.7663
" />
<path d="M24.2382 21.0044
L25.2382 21.0044
" />
<path d="M24.2858 21.0044
L24.2382 20.9092
" />
<path d="M24.2382 20.9092
L24.2382 20.7187
" />
<path d="M24.2382 20.7187
L24.2858 20.6235
" />
<path d="M24.2858 20.6235
L24.3334 20.5759
" />
<path d="M24.3334 20.5759
L24.4286 20.5282
" />
<path d="M24.4286 20.5282
L24.7143 20.5282
" />
<path d="M24.7143 20.5282
L24.8096 20.5759
" />
<path d="M24.8096 20.5759
L24.8572 20.6235
" />
<path d="M24.8572 20.6235
L24.9048 20.7187
" />
<path d="M24.9048 20.7187
L24.9048 20.9092
" />
<path d="M24.9048 20.9092
L24.8572 21.0044
" />
<path d="M25.0001 20.3378
L25.0001 19.5759
" />
<path d="M24.3810 19.0044
L24.4286 18.8616
" />
<path d="M24.4286 18.8616
L24.4762 18.8140
" />
<path d="M24.4762 18.8140
L24.5715 18.7663
" />
<path d="M24.5715 18.7663
L24.7143 18.7663
" />
<path d="M24.7143 18.7663
L24.8096 18.8140
" />
<path d="M24.8096 18.8140
L24.8572 18.8616
" />
<path d="M24.8572 18.8616
L24.9048 18.9568
" />
<path d="M24.9048 18.9568
L24.9048 19.3378
" />
<path d="M24.9048 19.3378
L23.9048 19.3378
" />
<path d="M23.9048 19.3378
L23.9048 19.0044
" />
<path d="M23.9048 19.0044
L23.9524 18.9092
" />
<path d="M23.9524 18.9092
L24.0001 18.8616
" />
<path d="M24.0001 18.8616
L24.0953 18.8140
" />
<path d="M24.0953 18.8140
L24.1905 18.8140
" />
<path d="M24.1905 18.8140
L24.2858 18.8616
" />
<path d="M24.2858 18.8616
L24.3334 18.9092
" />
<path d="M24.3334 18.9092
L24.3810 19.0044
" />
<path d="M24.3810 19.0044
L24.3810 19.3378
" />
<path d="M24.9048 18.1949
L24.8572 18.2902
" />
<path d="M24.8572 18.2902
L24.8096 18.3378
" />
<path d="M24.8096 18.3378
L24.7143 18.3854
" />
<path d="M24.7143 18.3854
L24.4286 18.3854
" />
<path d="M24.4286 18.3854
L24.3334 18.3378
" />
<path d="M24.3334 18.3378
L24.2858 18.2902
" />
<path d="M24.2858 18.2902
L24.2382 18.1949
" />
<path d="M24.2382 18.1949
L24.2382 18.0521
" />
<path d="M24.2382 18.0521
L24.2858 17.9568
" />
<path d="M24.2858 17.9568
L24.3334 17.9092
" />
<path d="M24.3334 17.9092
L24.4286 17.8616
" />
<path d="M24.4286 17.8616
L24.7143 17.8616
" />
<path d="M24.7143 17.8616
L24.8096 17.9092
" />
<path d="M24.8096 17.9092
L24.8572 17.9568
" />
<path d="M24.8572 17.9568
L24.9048 18.0521
" />
<path d="M24.9048 18.0521
L24.9048 18.1949
" />
<path d="M24.2382 17.5759
L24.2382 17.1949
" />
<path d="M23.9048 17.4330
L24.7620 17.4330
" />
<path d="M24.7620 17.4330
L24.8572 17.3854
" />
<path d="M24.8572 17.3854
L24.9048 17.2902
" />
<path d="M24.9048 17.2902
L24.9048 17.1949
" />
<path d="M24.2382 17.0044
L24.2382 16.6235
" />
<path d="M23.9048 16.8616
L24.7620 16.8616
" />
<path d="M24.7620 16.8616
L24.8572 16.8140
" />
<path d="M24.8572 16.8140
L24.9048 16.7187
" />
<path d="M24.9048 16.7187
L24.9048 16.6235
" />
<path d="M24.9048 16.1473
L24.8572 16.2425
" />
<path d="M24.8572 16.2425
L24.8096 16.2902
" />
<path d="M24.8096 16.2902
L24.7143 16.3378
" />
<path d="M24.7143 16.3378
L24.4286 16.3378
" />
<path d="M24.4286 16.3378
L24.3334 16.2902
" />
<path d="M24.3334 16.2902
L24.2858 16.2425
" />
<path d="M24.2858 16.2425
L24.2382 16.1473
" />
<path d="M24.2382 16.1473
L24.2382 16.0044
" />
<path d="M24.2382 16.0044
L24.2858 15.9092
" />
<path d="M24.2858 15.9092
L24.3334 15.8616
" />
<path d="M24.3334 15.8616
L24.4286 15.8140
" />
<path d="M24.4286 15.8140
L24.7143 15.8140
" />
<path d="M24.7143 15.8140
L24.8096 15.8616
" />
<path d="M24.8096 15.8616
L24.8572 15.9092
" />
<path d="M24.8572 15.9092
L24.9048 16.0044
" />
<path d="M24.9048 16.0044
L24.9048 16.1473
" />
<path d="M24.9048 15.3854
L24.2382 15.3854
" />
<path d="M24.3334 15.3854
L24.2858 15.3378
" />
<path d="M24.2858 15.3378
L24.2382 15.2425
" />
<path d="M24.2382 15.2425
L24.2382 15.0997
" />
<path d="M24.2382 15.0997
L24.2858 15.0044
" />
<path d="M24.2858 15.0044
L24.3810 14.9568
" />
<path d="M24.3810 14.9568
L24.9048 14.9568
" />
<path d="M24.3810 14.9568
L24.2858 14.9092
" />
<path d="M24.2858 14.9092
L24.2382 14.8140
" />
<path d="M24.2382 14.8140
L24.2382 14.6711
" />
<path d="M24.2382 14.6711
L24.2858 14.5759
" />
<path d="M24.2858 14.5759
L24.3810 14.5282
" />
<path d="M24.3810 14.5282
L24.9048 14.5282
" />
</g><text x="33.0700" y="23.6832"
textLength="1.9643" font-size="1.3333" lengthAdjust="spacingAndGlyphs"
text-anchor="middle" opacity="0">J1</text>
<g class="stroked-text"><desc>J1</desc>
<path d="M32.7367 22.6381
L32.7367 23.3524
" />
<path d="M32.7367 23.3524
L32.6890 23.4952
" />
<path d="M32.6890 23.4952
L32.5938 23.5905
" />
<path d="M32.5938 23.5905
L32.4510 23.6381
" />
<path d="M32.4510 23.6381
L32.3557 23.6381
" />
<path d="M33.7367 23.6381
L33.1652 23.6381
" />
<path d="M33.4510 23.6381
L33.4510 22.6381
" />
<path d="M33.4510 22.6381
L33.3557 22.7809
" />
<path d="M33.3557 22.7809
L33.2605 22.8762
" />
<path d="M33.2605 22.8762
L33.1652 22.9238
" />
</g><g transform="rotate(-90.000000 19.1000 12.7932)">
<text x="19.1000" y="13.2932"
textLength="18.7262" font-size="1.3333" lengthAdjust="spacingAndGlyphs"
text-anchor="middle" opacity="0">Conn_02x07_Top_Bottom</text>
</g>
<g class="stroked-text"><desc>Conn_02x07_Top_Bottom</desc>
<path d="M19.4596 21.2218
L19.5072 21.2694
" />
<path d="M19.5072 21.2694
L19.5548 21.4123
" />
<path d="M19.5548 21.4123
L19.5548 21.5075
" />
<path d="M19.5548 21.5075
L19.5072 21.6504
" />
<path d="M19.5072 21.6504
L19.4120 21.7456
" />
<path d="M19.4120 21.7456
L19.3167 21.7933
" />
<path d="M19.3167 21.7933
L19.1262 21.8409
" />
<path d="M19.1262 21.8409
L18.9834 21.8409
" />
<path d="M18.9834 21.8409
L18.7929 21.7933
" />
<path d="M18.7929 21.7933
L18.6977 21.7456
" />
<path d="M18.6977 21.7456
L18.6024 21.6504
" />
<path d="M18.6024 21.6504
L18.5548 21.5075
" />
<path d="M18.5548 21.5075
L18.5548 21.4123
" />
<path d="M18.5548 21.4123
L18.6024 21.2694
" />
<path d="M18.6024 21.2694
L18.6501 21.2218
" />
<path d="M19.5548 20.6504
L19.5072 20.7456
" />
<path d="M19.5072 20.7456
L19.4596 20.7933
" />
<path d="M19.4596 20.7933
L19.3643 20.8409
" />
<path d="M19.3643 20.8409
L19.0786 20.8409
" />
<path d="M19.0786 20.8409
L18.9834 20.7933
" />
<path d="M18.9834 20.7933
L18.9358 20.7456
" />
<path d="M18.9358 20.7456
L18.8882 20.6504
" />
<path d="M18.8882 20.6504
L18.8882 20.5075
" />
<path d="M18.8882 20.5075
L18.9358 20.4123
" />
<path d="M18.9358 20.4123
L18.9834 20.3647
" />
<path d="M18.9834 20.3647
L19.0786 20.3171
" />
<path d="M19.0786 20.3171
L19.3643 20.3171
" />
<path d="M19.3643 20.3171
L19.4596 20.3647
" />
<path d="M19.4596 20.3647
L19.5072 20.4123
" />
<path d="M19.5072 20.4123
L19.5548 20.5075
" />
<path d="M19.5548 20.5075
L19.5548 20.6504
" />
<path d="M18.8882 19.8885
L19.5548 19.8885
" />
<path d="M18.9834 19.8885
L18.9358 19.8409
" />
<path d="M18.9358 19.8409
L18.8882 19.7456
" />
<path d="M18.8882 19.7456
L18.8882 19.6028
" />
<path d="M18.8882 19.6028
L18.9358 19.5075
" />
<path d="M18.9358 19.5075
L19.0310 19.4599
" />
<path d="M19.0310 19.4599
L19.5548 19.4599
" />
<path d="M18.8882 18.9837
L19.5548 18.9837
" />
<path d="M18.9834 18.9837
L18.9358 18.9361
" />
<path d="M18.9358 18.9361
L18.8882 18.8409
" />
<path d="M18.8882 18.8409
L18.8882 18.6980
" />
<path d="M18.8882 18.6980
L18.9358 18.6028
" />
<path d="M18.9358 18.6028
L19.0310 18.5552
" />
<path d="M19.0310 18.5552
L19.5548 18.5552
" />
<path d="M19.6501 18.3171
L19.6501 17.5552
" />
<path d="M18.5548 17.1266
L18.5548 17.0313
" />
<path d="M18.5548 17.0313
L18.6024 16.9361
" />
<path d="M18.6024 16.9361
L18.6501 16.8885
" />
<path d="M18.6501 16.8885
L18.7453 16.8409
" />
<path d="M18.7453 16.8409
L18.9358 16.7933
" />
<path d="M18.9358 16.7933
L19.1739 16.7933
" />
<path d="M19.1739 16.7933
L19.3643 16.8409
" />
<path d="M19.3643 16.8409
L19.4596 16.8885
" />
<path d="M19.4596 16.8885
L19.5072 16.9361
" />
<path d="M19.5072 16.9361
L19.5548 17.0313
" />
<path d="M19.5548 17.0313
L19.5548 17.1266
" />
<path d="M19.5548 17.1266
L19.5072 17.2218
" />
<path d="M19.5072 17.2218
L19.4596 17.2694
" />
<path d="M19.4596 17.2694
L19.3643 17.3171
" />
<path d="M19.3643 17.3171
L19.1739 17.3647
" />
<path d="M19.1739 17.3647
L18.9358 17.3647
" />
<path d="M18.9358 17.3647
L18.7453 17.3171
" />
<path d="M18.7453 17.3171
L18.6501 17.2694
" />
<path d="M18.6501 17.2694
L18.6024 17.2218
" />
<path d="M18.6024 17.2218
L18.5548 17.1266
" />
<path d="M18.6501 16.4123
L18.6024 16.3647
" />
<path d="M18.6024 16.3647
L18.5548 16.2694
" />
<path d="M18.5548 16.2694
L18.5548 16.0313
" />
<path d="M18.5548 16.0313
L18.6024 15.9361
" />
<path d="M18.6024 15.9361
L18.6501 15.8885
" />
<path d="M18.6501 15.8885
L18.7453 15.8409
" />
<path d="M18.7453 15.8409
L18.8405 15.8409
" />
<path d="M18.8405 15.8409
L18.9834 15.8885
" />
<path d="M18.9834 15.8885
L19.5548 16.4599
" />
<path d="M19.5548 16.4599
L19.5548 15.8409
" />
<path d="M19.5548 15.5075
L18.8882 14.9837
" />
<path d="M18.8882 15.5075
L19.5548 14.9837
" />
<path d="M18.5548 14.4123
L18.5548 14.3171
" />
<path d="M18.5548 14.3171
L18.6024 14.2218
" />
<path d="M18.6024 14.2218
L18.6501 14.1742
" />
<path d="M18.6501 14.1742
L18.7453 14.1266
" />
<path d="M18.7453 14.1266
L18.9358 14.0790
" />
<path d="M18.9358 14.0790
L19.1739 14.0790
" />
<path d="M19.1739 14.0790
L19.3643 14.1266
" />
<path d="M19.3643 14.1266
L19.4596 14.1742
" />
<path d="M19.4596 14.1742
L19.5072 14.2218
" />
<path d="M19.5072 14.2218
L19.5548 14.3171
" />
<path d="M19.5548 14.3171
L19.5548 14.4123
" />
<path d="M19.5548 14.4123
L19.5072 14.5075
" />
<path d="M19.5072 14.5075
L19.4596 14.5552
" />
<path d="M19.4596 14.5552
L19.3643 14.6028
" />
<path d="M19.3643 14.6028
L19.1739 14.6504
" />
<path d="M19.1739 14.6504
L18.9358 14.6504
" />
<path d="M18.9358 14.6504
L18.7453 14.6028
" />
<path d="M18.7453 14.6028
L18.6501 14.5552
" />
<path d="M18.6501 14.5552
L18.6024 14.5075
" />
<path d="M18.6024 14.5075
L18.5548 14.4123
" />
<path d="M18.5548 13.7456
L18.5548 13.0790
" />
<path d="M18.5548 13.0790
L19.5548 13.5075
" />
<path d="M19.6501 12.9361
L19.6501 12.1742
" />
<path d="M18.5548 12.0790
L18.5548 11.5075
" />
<path d="M19.5548 11.7932
L18.5548 11.7932
" />
<path d="M19.5548 11.0313
L19.5072 11.1266
" />
<path d="M19.5072 11.1266
L19.4596 11.1742
" />
<path d="M19.4596 11.1742
L19.3643 11.2218
" />
<path d="M19.3643 11.2218
L19.0786 11.2218
" />
<path d="M19.0786 11.2218
L18.9834 11.1742
" />
<path d="M18.9834 11.1742
L18.9358 11.1266
" />
<path d="M18.9358 11.1266
L18.8882 11.0313
" />
<path d="M18.8882 11.0313
L18.8882 10.8885
" />
<path d="M18.8882 10.8885
L18.9358 10.7932
" />
<path d="M18.9358 10.7932
L18.9834 10.7456
" />
<path d="M18.9834 10.7456
L19.0786 10.6980
" />
<path d="M19.0786 10.6980
L19.3643 10.6980
" />
<path d="M19.3643 10.6980
L19.4596 10.7456
" />
<path d="M19.4596 10.7456
L19.5072 10.7932
" />
<path d="M19.5072 10.7932
L19.5548 10.8885
" />
<path d="M19.5548 10.8885
L19.5548 11.0313
" />
<path d="M18.8882 10.2694
L19.8882 10.2694
" />
<path d="M18.9358 10.2694
L18.8882 10.1742
" />
<path d="M18.8882 10.1742
L18.8882 9.9837
" />
<path d="M18.8882 9.9837
L18.9358 9.8885
" />
<path d="M18.9358 9.8885
L18.9834 9.8409
" />
<path d="M18.9834 9.8409
L19.0786 9.7932
" />
<path d="M19.0786 9.7932
L19.3643 9.7932
" />
<path d="M19.3643 9.7932
L19.4596 9.8409
" />
<path d="M19.4596 9.8409
L19.5072 9.8885
" />
<path d="M19.5072 9.8885
L19.5548 9.9837
" />
<path d="M19.5548 9.9837
L19.5548 10.1742
" />
<path d="M19.5548 10.1742
L19.5072 10.2694
" />
<path d="M19.6501 9.6028
L19.6501 8.8409
" />
<path d="M19.0310 8.2694
L19.0786 8.1266
" />
<path d="M19.0786 8.1266
L19.1262 8.0790
" />
<path d="M19.1262 8.0790
L19.2215 8.0313
" />
<path d="M19.2215 8.0313
L19.3643 8.0313
" />
<path d="M19.3643 8.0313
L19.4596 8.0790
" />
<path d="M19.4596 8.0790
L19.5072 8.1266
" />
<path d="M19.5072 8.1266
L19.5548 8.2218
" />
<path d="M19.5548 8.2218
L19.5548 8.6028
" />
<path d="M19.5548 8.6028
L18.5548 8.6028
" />
<path d="M18.5548 8.6028
L18.5548 8.2694
" />
<path d="M18.5548 8.2694
L18.6024 8.1742
" />
<path d="M18.6024 8.1742
L18.6501 8.1266
" />
<path d="M18.6501 8.1266
L18.7453 8.0790
" />
<path d="M18.7453 8.0790
L18.8405 8.0790
" />
<path d="M18.8405 8.0790
L18.9358 8.1266
" />
<path d="M18.9358 8.1266
L18.9834 8.1742
" />
<path d="M18.9834 8.1742
L19.0310 8.2694
" />
<path d="M19.0310 8.2694
L19.0310 8.6028
" />
<path d="M19.5548 7.4599
L19.5072 7.5552
" />
<path d="M19.5072 7.5552
L19.4596 7.6028
" />
<path d="M19.4596 7.6028
L19.3643 7.6504
" />
<path d="M19.3643 7.6504
L19.0786 7.6504
" />
<path d="M19.0786 7.6504
L18.9834 7.6028
" />
<path d="M18.9834 7.6028
L18.9358 7.5552
" />
<path d="M18.9358 7.5552
L18.8882 7.4599
" />
<path d="M18.8882 7.4599
L18.8882 7.3171
" />
<path d="M18.8882 7.3171
L18.9358 7.2218
" />
<path d="M18.9358 7.2218
L18.9834 7.1742
" />
<path d="M18.9834 7.1742
L19.0786 7.1266
" />
<path d="M19.0786 7.1266
L19.3643 7.1266
" />
<path d="M19.3643 7.1266
L19.4596 7.1742
" />
<path d="M19.4596 7.1742
L19.5072 7.2218
" />
<path d="M19.5072 7.2218
L19.5548 7.3171
" />
<path d="M19.5548 7.3171
L19.5548 7.4599
" />
<path d="M18.8882 6.8409
L18.8882 6.4599
" />
<path d="M18.5548 6.6980
L19.4120 6.6980
" />
<path d="M19.4120 6.6980
L19.5072 6.6504
" />
<path d="M19.5072 6.6504
L19.5548 6.5552
" />
<path d="M19.5548 6.5552
L19.5548 6.4599
" />
<path d="M18.8882 6.2694
L18.8882 5.8885
" />
<path d="M18.5548 6.1266
L19.4120 6.1266
" />
<path d="M19.4120 6.1266
L19.5072 6.0790
" />
<path d="M19.5072 6.0790
L19.5548 5.9837
" />
<path d="M19.5548 5.9837
L19.5548 5.8885
" />
<path d="M19.5548 5.4123
L19.5072 5.5075
" />
<path d="M19.5072 5.5075
L19.4596 5.5552
" />
<path d="M19.4596 5.5552
L19.3643 5.6028
" />
<path d="M19.3643 5.6028
L19.0786 5.6028
" />
<path d="M19.0786 5.6028
L18.9834 5.5552
" />
<path d="M18.9834 5.5552
L18.9358 5.5075
" />
<path d="M18.9358 5.5075
L18.8882 5.4123
" />
<path d="M18.8882 5.4123
L18.8882 5.2694
" />
<path d="M18.8882 5.2694
L18.9358 5.1742
" />
<path d="M18.9358 5.1742
L18.9834 5.1266
" />
<path d="M18.9834 5.1266
L19.0786 5.0790
" />
<path d="M19.0786 5.0790
L19.3643 5.0790
" />
<path d="M19.3643 5.0790
L19.4596 5.1266
" />
<path d="M19.4596 5.1266
L19.5072 5.1742
" />
<path d="M19.5072 5.1742
L19.5548 5.2694
" />
<path d="M19.5548 5.2694
L19.5548 5.4123
" />
<path d="M19.5548 4.6504
L18.8882 4.6504
" />
<path d="M18.9834 4.6504
L18.9358 4.6028
" />
<path d="M18.9358 4.6028
L18.8882 4.5075
" />
<path d="M18.8882 4.5075
L18.8882 4.3647
" />
<path d="M18.8882 4.3647
L18.9358 4.2694
" />
<path d="M18.9358 4.2694
L19.0310 4.2218
" />
<path d="M19.0310 4.2218
L19.5548 4.2218
" />
<path d="M19.0310 4.2218
L18.9358 4.1742
" />
<path d="M18.9358 4.1742
L18.8882 4.0790
" />
<path d="M18.8882 4.0790
L18.8882 3.9361
" />
<path d="M18.8882 3.9361
L18.9358 3.8409
" />
<path d="M18.9358 3.8409
L19.0310 3.7932
" />
<path d="M19.0310 3.7932
L19.5548 3.7932
" />
</g><text x="21.6400" y="23.2432"
textLength="12.4881" font-size="1.3333" lengthAdjust="spacingAndGlyphs"
text-anchor="middle" opacity="0">Conn_01x02_Pin</text>
<g class="stroked-text"><desc>Conn_01x02_Pin</desc>
<path d="M16.3305 23.1028
L16.2829 23.1504
" />
<path d="M16.2829 23.1504
L16.1400 23.1981
" />
<path d="M16.1400 23.1981
L16.0448 23.1981
" />
<path d="M16.0448 23.1981
L15.9019 23.1504
" />
<path d="M15.9019 23.1504
L15.8067 23.0552
" />
<path d="M15.8067 23.0552
L15.7590 22.9600
" />
<path d="M15.7590 22.9600
L15.7114 22.7695
" />
<path d="M15.7114 22.7695
L15.7114 22.6266
" />
<path d="M15.7114 22.6266
L15.7590 22.4362
" />
<path d="M15.7590 22.4362
L15.8067 22.3409
" />
<path d="M15.8067 22.3409
L15.9019 22.2457
" />
<path d="M15.9019 22.2457
L16.0448 22.1981
" />
<path d="M16.0448 22.1981
L16.1400 22.1981
" />
<path d="M16.1400 22.1981
L16.2829 22.2457
" />
<path d="M16.2829 22.2457
L16.3305 22.2933
" />
<path d="M16.9019 23.1981
L16.8067 23.1504
" />
<path d="M16.8067 23.1504
L16.7590 23.1028
" />
<path d="M16.7590 23.1028
L16.7114 23.0076
" />
<path d="M16.7114 23.0076
L16.7114 22.7219
" />
<path d="M16.7114 22.7219
L16.7590 22.6266
" />
<path d="M16.7590 22.6266
L16.8067 22.5790
" />
<path d="M16.8067 22.5790
L16.9019 22.5314
" />
<path d="M16.9019 22.5314
L17.0448 22.5314
" />
<path d="M17.0448 22.5314
L17.1400 22.5790
" />
<path d="M17.1400 22.5790
L17.1876 22.6266
" />
<path d="M17.1876 22.6266
L17.2352 22.7219
" />
<path d="M17.2352 22.7219
L17.2352 23.0076
" />
<path d="M17.2352 23.0076
L17.1876 23.1028
" />
<path d="M17.1876 23.1028
L17.1400 23.1504
" />
<path d="M17.1400 23.1504
L17.0448 23.1981
" />
<path d="M17.0448 23.1981
L16.9019 23.1981
" />
<path d="M17.6638 22.5314
L17.6638 23.1981
" />
<path d="M17.6638 22.6266
L17.7114 22.5790
" />
<path d="M17.7114 22.5790
L17.8067 22.5314
" />
<path d="M17.8067 22.5314
L17.9495 22.5314
" />
<path d="M17.9495 22.5314
L18.0448 22.5790
" />
<path d="M18.0448 22.5790
L18.0924 22.6743
" />
<path d="M18.0924 22.6743
L18.0924 23.1981
" />
<path d="M18.5686 22.5314
L18.5686 23.1981
" />
<path d="M18.5686 22.6266
L18.6162 22.5790
" />
<path d="M18.6162 22.5790
L18.7114 22.5314
" />
<path d="M18.7114 22.5314
L18.8543 22.5314
" />
<path d="M18.8543 22.5314
L18.9495 22.5790
" />
<path d="M18.9495 22.5790
L18.9971 22.6743
" />
<path d="M18.9971 22.6743
L18.9971 23.1981
" />
<path d="M19.2352 23.2933
L19.9971 23.2933
" />
<path d="M20.4257 22.1981
L20.5210 22.1981
" />
<path d="M20.5210 22.1981
L20.6162 22.2457
" />
<path d="M20.6162 22.2457
L20.6638 22.2933
" />
<path d="M20.6638 22.2933
L20.7114 22.3885
" />
<path d="M20.7114 22.3885
L20.7590 22.5790
" />
<path d="M20.7590 22.5790
L20.7590 22.8171
" />
<path d="M20.7590 22.8171
L20.7114 23.0076
" />
<path d="M20.7114 23.0076
L20.6638 23.1028
" />
<path d="M20.6638 23.1028
L20.6162 23.1504
" />
<path d="M20.6162 23.1504
L20.5210 23.1981
" />
<path d="M20.5210 23.1981
L20.4257 23.1981
" />
<path d="M20.4257 23.1981
L20.3305 23.1504
" />
<path d="M20.3305 23.1504
L20.2829 23.1028
" />
<path d="M20.2829 23.1028
L20.2352 23.0076
" />
<path d="M20.2352 23.0076
L20.1876 22.8171
" />
<path d="M20.1876 22.8171
L20.1876 22.5790
" />
<path d="M20.1876 22.5790
L20.2352 22.3885
" />
<path d="M20.2352 22.3885
L20.2829 22.2933
" />
<path d="M20.2829 22.2933
L20.3305 22.2457
" />
<path d="M20.3305 22.2457
L20.4257 22.1981
" />
<path d="M21.7114 23.1981
L21.1400 23.1981
" />
<path d="M21.4257 23.1981
L21.4257 22.1981
" />
<path d="M21.4257 22.1981
L21.3305 22.3409
" />
<path d="M21.3305 22.3409
L21.2352 22.4362
" />
<path d="M21.2352 22.4362
L21.1400 22.4838
" />
<path d="M22.0448 23.1981
L22.5686 22.5314
" />
<path d="M22.0448 22.5314
L22.5686 23.1981
" />
<path d="M23.1400 22.1981
L23.2352 22.1981
" />
<path d="M23.2352 22.1981
L23.3305 22.2457
" />
<path d="M23.3305 22.2457
L23.3781 22.2933
" />
<path d="M23.3781 22.2933
L23.4257 22.3885
" />
<path d="M23.4257 22.3885
L23.4733 22.5790
" />
<path d="M23.4733 22.5790
L23.4733 22.8171
" />
<path d="M23.4733 22.8171
L23.4257 23.0076
" />
<path d="M23.4257 23.0076
L23.3781 23.1028
" />
<path d="M23.3781 23.1028
L23.3305 23.1504
" />
<path d="M23.3305 23.1504
L23.2352 23.1981
" />
<path d="M23.2352 23.1981
L23.1400 23.1981
" />
<path d="M23.1400 23.1981
L23.0448 23.1504
" />
<path d="M23.0448 23.1504
L22.9971 23.1028
" />
<path d="M22.9971 23.1028
L22.9495 23.0076
" />
<path d="M22.9495 23.0076
L22.9019 22.8171
" />
<path d="M22.9019 22.8171
L22.9019 22.5790
" />
<path d="M22.9019 22.5790
L22.9495 22.3885
" />
<path d="M22.9495 22.3885
L22.9971 22.2933
" />
<path d="M22.9971 22.2933
L23.0448 22.2457
" />
<path d="M23.0448 22.2457
L23.1400 22.1981
" />
<path d="M23.8543 22.2933
L23.9019 22.2457
" />
<path d="M23.9019 22.2457
L23.9971 22.1981
" />
<path d="M23.9971 22.1981
L24.2352 22.1981
" />
<path d="M24.2352 22.1981
L24.3305 22.2457
" />
<path d="M24.3305 22.2457
L24.3781 22.2933
" />
<path d="M24.3781 22.2933
L24.4257 22.3885
" />
<path d="M24.4257 22.3885
L24.4257 22.4838
" />
<path d="M24.4257 22.4838
L24.3781 22.6266
" />
<path d="M24.3781 22.6266
L23.8067 23.1981
" />
<path d="M23.8067 23.1981
L24.4257 23.1981
" />
<path d="M24.6162 23.2933
L25.3781 23.2933
" />
<path d="M25.6162 23.1981
L25.6162 22.1981
" />
<path d="M25.6162 22.1981
L25.9971 22.1981
" />
<path d="M25.9971 22.1981
L26.0924 22.2457
" />
<path d="M26.0924 22.2457
L26.1400 22.2933
" />
<path d="M26.1400 22.2933
L26.1876 22.3885
" />
<path d="M26.1876 22.3885
L26.1876 22.5314
" />
<path d="M26.1876 22.5314
L26.1400 22.6266
" />
<path d="M26.1400 22.6266
L26.0924 22.6743
" />
<path d="M26.0924 22.6743
L25.9971 22.7219
" />
<path d="M25.9971 22.7219
L25.6162 22.7219
" />
<path d="M26.6162 23.1981
L26.6162 22.5314
" />
<path d="M26.6162 22.1981
L26.5686 22.2457
" />
<path d="M26.5686 22.2457
L26.6162 22.2933
" />
<path d="M26.6162 22.2933
L26.6638 22.2457
" />
<path d="M26.6638 22.2457
L26.6162 22.1981
" />
<path d="M26.6162 22.1981
L26.6162 22.2933
" />
<path d="M27.0924 22.5314
L27.0924 23.1981
" />
<path d="M27.0924 22.6266
L27.1400 22.5790
" />
<path d="M27.1400 22.5790
L27.2352 22.5314
" />
<path d="M27.2352 22.5314
L27.3781 22.5314
" />
<path d="M27.3781 22.5314
L27.4733 22.5790
" />
<path d="M27.4733 22.5790
L27.5210 22.6743
" />
<path d="M27.5210 22.6743
L27.5210 23.1981
" />
</g><g transform="rotate(-90.000000 21.6400 19.1432)">
<text x="21.6400" y="19.6432"
textLength="1.9643" font-size="1.3333" lengthAdjust="spacingAndGlyphs"
text-anchor="middle" opacity="0">J3</text>
</g>
<g class="stroked-text"><desc>J3</desc>
<path d="M21.0948 19.4766
L21.8091 19.4766
" />
<path d="M21.8091 19.4766
L21.9520 19.5242
" />
<path d="M21.9520 19.5242
L22.0472 19.6194
" />
<path d="M22.0472 19.6194
L22.0948 19.7623
" />
<path d="M22.0948 19.7623
L22.0948 19.8575
" />
<path d="M21.0948 19.0956
L21.0948 18.4766
" />
<path d="M21.0948 18.4766
L21.4758 18.8099
" />
<path d="M21.4758 18.8099
L21.4758 18.6671
" />
<path d="M21.4758 18.6671
L21.5234 18.5718
" />
<path d="M21.5234 18.5718
L21.5710 18.5242
" />
<path d="M21.5710 18.5242
L21.6662 18.4766
" />
<path d="M21.6662 18.4766
L21.9043 18.4766
" />
<path d="M21.9043 18.4766
L21.9996 18.5242
" />
<path d="M21.9996 18.5242
L22.0472 18.5718
" />
<path d="M22.0472 18.5718
L22.0948 18.6671
" />
<path d="M22.0948 18.6671
L22.0948 18.9528
" />
<path d="M22.0948 18.9528
L22.0472 19.0480
" />
<path d="M22.0472 19.0480
L21.9996 19.0956
" />
</g></g>
<g style="fill:none; 
stroke:#000000; stroke-width:0.1000; stroke-opacity:1; 
stroke-linecap:round; stroke-linejoin:round;">
<path d="M27.0400 30.4532
L26.4000 30.4532
" />
<path d="M29.5800 30.4532
L28.9400 30.4532
" />
<path d="M32.1200 30.4532
L31.4800 30.4532
" />
<path d="M34.6600 30.4532
L34.0200 30.4532
" />
<path d="M37.2000 30.4532
L36.5600 30.4532
" />
<path d="M39.7400 30.4532
L39.1000 30.4532
" />
<path d="M25.4500 24.4533
L25.4500 21.9132
" />
<path d="M26.4000 24.4533
L26.4000 30.4532
" />
<path d="M27.0400 24.4533
L27.0400 30.4532
" />
<path d="M28.9400 24.4533
L28.9400 30.4532
" />
<path d="M29.5800 24.4533
L29.5800 30.4532
" />
<path d="M31.4800 24.4533
L31.4800 30.4532
" />
<path d="M32.1200 24.4533
L32.1200 30.4532
" />
<path d="M34.0200 24.4533
L34.0200 30.4532
" />
<path d="M34.6600 24.4533
L34.6600 30.4532
" />
<path d="M36.5600 24.4533
L36.5600 30.4532
" />
<path d="M37.2000 24.4533
L37.2000 30.4532
" />
<path d="M39.1000 24.4533
L39.1000 30.4532
" />
<path d="M39.7400 24.4533
L39.7400 30.4532
" />
<path d="M40.6900 24.4533
L25.4500 24.4533
" />
<path d="M40.6900 22.5482
L40.6900 24.4533
" />
<path d="M25.4500 21.9132
L40.0550 21.9132
" />
<path d="M40.0550 21.9132
L40.6900 22.5482
" />
<path d="M26.4000 17.5532
L26.4000 21.9132
" />
<path d="M27.0400 17.5532
L27.0400 21.9132
" />
<path d="M27.0400 17.5532
L26.4000 17.5532
" />
<path d="M28.9400 17.5532
L28.9400 21.9132
" />
<path d="M29.5800 17.5532
L29.5800 21.9132
" />
<path d="M29.5800 17.5532
L28.9400 17.5532
" />
<path d="M31.4800 17.5532
L31.4800 21.9132
" />
<path d="M32.1200 17.5532
L32.1200 21.9132
" />
<path d="M32.1200 17.5532
L31.4800 17.5532
" />
<path d="M34.0200 17.5532
L34.0200 21.9132
" />
<path d="M34.6600 17.5532
L34.6600 21.9132
" />
<path d="M34.6600 17.5532
L34.0200 17.5532
" />
<path d="M36.5600 17.5532
L36.5600 21.9132
" />
<path d="M37.2000 17.5532
L37.2000 21.9132
" />
<path d="M37.2000 17.5532
L36.5600 17.5532
" />
<path d="M39.1000 17.5532
L39.1000 21.9132
" />
<path d="M39.7400 17.5532
L39.7400 21.9132
" />
<path d="M39.7400 17.5532
L39.1000 17.5532
" />
<path d="M20.3700 17.2383
L21.0050 16.6032
" />
<path d="M20.3700 21.6832
L20.3700 17.2383
" />
<path d="M21.0050 16.6032
L22.9100 16.6032
" />
<path d="M22.9100 16.6032
L22.9100 21.6832
" />
<path d="M22.9100 21.6832
L20.3700 21.6832
" />
</g>
<g style="fill:none; 
stroke:#000000; stroke-width:0.1500; stroke-opacity:1; 
stroke-linecap:round; stroke-linejoin:round;">
<path d="M15.2900 22.9533
L16.5600 24.2233
" />
<path d="M41.9600 0.0932
L43.2300 1.3632
" />
<path d="M15.2900 1.3632
L15.2900 22.9533
" />
<path d="M41.9600 24.2233
L43.2300 22.9533
" />
<path d="M43.2300 22.9533
L43.2300 1.3632
" />
<path d="M16.5600 0.0932
L15.2900 1.3632
" />
<path d="M16.5600 24.2233
L41.9600 24.2233
" />
<path d="M41.9600 0.0932
L16.5600 0.0932
" />
</g> 
</svg>
