G04 #@! TF.GenerationSoftware,KiCad,Pcbnew,8.0.0*
G04 #@! TF.CreationDate,2024-03-17T18:03:09+09:00*
G04 #@! TF.ProjectId,Pmod_DisplayPort,506d6f64-5f44-4697-9370-6c6179506f72,rev?*
G04 #@! TF.SameCoordinates,PXae6870PY2719c40*
G04 #@! TF.FileFunction,Legend,Top*
G04 #@! TF.FilePolarity,Positive*
%FSLAX46Y46*%
G04 Gerber Fmt 4.6, Leading zero omitted, Abs format (unit mm)*
G04 Created by KiCad (PCBNEW 8.0.0) date 2024-03-17 18:03:09*
%MOMM*%
%LPD*%
G01*
G04 APERTURE LIST*
%ADD10C,0.150000*%
%ADD11C,0.010000*%
%ADD12C,0.120000*%
G04 APERTURE END LIST*
D10*
X-4826000Y14224000D02*
X-2667000Y14224000D01*
X1948000Y9144000D02*
X2286000Y8763000D01*
X508000Y17145000D02*
X508000Y16637000D01*
X15494000Y10033000D02*
X15834000Y9616000D01*
X4318000Y16383000D02*
X4318000Y16637000D01*
X-2667000Y14224000D02*
X-2667000Y14097000D01*
X19939000Y11684000D02*
X21971000Y11684000D01*
X1397000Y16637000D02*
X1397000Y16383000D01*
X3048000Y12446000D02*
X3048000Y12700000D01*
X-5715000Y16637000D02*
X-3429000Y16637000D01*
X23241000Y12065000D02*
X23241000Y12319000D01*
X508000Y16637000D02*
X-508000Y16637000D01*
X25400000Y12065000D02*
X25527000Y12065000D01*
X1905000Y17145000D02*
X508000Y17145000D01*
X1905000Y16637000D02*
X1905000Y17145000D01*
X23368000Y12065000D02*
X25400000Y12065000D01*
X22860000Y10668000D02*
X23368000Y12065000D01*
X889000Y12446000D02*
X889000Y12700000D01*
X-4826000Y11303000D02*
X-4488000Y11138000D01*
X3810000Y12954000D02*
X5969000Y12954000D01*
X15875000Y12954000D02*
X16256000Y12827000D01*
X20066000Y8509000D02*
X19728000Y8674000D01*
X-3429000Y16637000D02*
X-3429000Y16764000D01*
X-5715000Y16764000D02*
X-5715000Y16637000D01*
X508000Y16637000D02*
X1397000Y16637000D01*
X4445000Y12954000D02*
X4445000Y13335000D01*
X4064000Y13335000D02*
X3048000Y12446000D01*
X15240000Y10033000D02*
X15494000Y10033000D01*
X18923000Y11303000D02*
X19939000Y11684000D01*
X23368000Y12065000D02*
X23241000Y12065000D01*
X19558000Y12827000D02*
X19558000Y12954000D01*
X25527000Y12065000D02*
X25527000Y12319000D01*
X5969000Y12954000D02*
X5969000Y12827000D01*
X4445000Y13335000D02*
X4064000Y13335000D01*
X-2667000Y14224000D02*
X-2032000Y14224000D01*
X3810000Y12827000D02*
X3810000Y12954000D01*
X1651000Y16637000D02*
X1651000Y16383000D01*
X-508000Y16637000D02*
X-508000Y16383000D01*
X-2540000Y9906000D02*
X-2794000Y10160000D01*
X-4826000Y13970000D02*
X-4826000Y14224000D01*
X3048000Y12446000D02*
X889000Y12446000D01*
X21209000Y10668000D02*
X22860000Y10668000D01*
X-3429000Y16637000D02*
X-3302000Y16510000D01*
X4318000Y16637000D02*
X1651000Y16637000D01*
X15068779Y22915097D02*
X15068779Y23915097D01*
X15068779Y23915097D02*
X15449731Y23915097D01*
X15449731Y23915097D02*
X15544969Y23867478D01*
X15544969Y23867478D02*
X15592588Y23819859D01*
X15592588Y23819859D02*
X15640207Y23724621D01*
X15640207Y23724621D02*
X15640207Y23581764D01*
X15640207Y23581764D02*
X15592588Y23486526D01*
X15592588Y23486526D02*
X15544969Y23438907D01*
X15544969Y23438907D02*
X15449731Y23391288D01*
X15449731Y23391288D02*
X15068779Y23391288D01*
X16068779Y22915097D02*
X16068779Y23581764D01*
X16068779Y23486526D02*
X16116398Y23534145D01*
X16116398Y23534145D02*
X16211636Y23581764D01*
X16211636Y23581764D02*
X16354493Y23581764D01*
X16354493Y23581764D02*
X16449731Y23534145D01*
X16449731Y23534145D02*
X16497350Y23438907D01*
X16497350Y23438907D02*
X16497350Y22915097D01*
X16497350Y23438907D02*
X16544969Y23534145D01*
X16544969Y23534145D02*
X16640207Y23581764D01*
X16640207Y23581764D02*
X16783064Y23581764D01*
X16783064Y23581764D02*
X16878303Y23534145D01*
X16878303Y23534145D02*
X16925922Y23438907D01*
X16925922Y23438907D02*
X16925922Y22915097D01*
X17544969Y22915097D02*
X17449731Y22962716D01*
X17449731Y22962716D02*
X17402112Y23010336D01*
X17402112Y23010336D02*
X17354493Y23105574D01*
X17354493Y23105574D02*
X17354493Y23391288D01*
X17354493Y23391288D02*
X17402112Y23486526D01*
X17402112Y23486526D02*
X17449731Y23534145D01*
X17449731Y23534145D02*
X17544969Y23581764D01*
X17544969Y23581764D02*
X17687826Y23581764D01*
X17687826Y23581764D02*
X17783064Y23534145D01*
X17783064Y23534145D02*
X17830683Y23486526D01*
X17830683Y23486526D02*
X17878302Y23391288D01*
X17878302Y23391288D02*
X17878302Y23105574D01*
X17878302Y23105574D02*
X17830683Y23010336D01*
X17830683Y23010336D02*
X17783064Y22962716D01*
X17783064Y22962716D02*
X17687826Y22915097D01*
X17687826Y22915097D02*
X17544969Y22915097D01*
X18735445Y22915097D02*
X18735445Y23915097D01*
X18735445Y22962716D02*
X18640207Y22915097D01*
X18640207Y22915097D02*
X18449731Y22915097D01*
X18449731Y22915097D02*
X18354493Y22962716D01*
X18354493Y22962716D02*
X18306874Y23010336D01*
X18306874Y23010336D02*
X18259255Y23105574D01*
X18259255Y23105574D02*
X18259255Y23391288D01*
X18259255Y23391288D02*
X18306874Y23486526D01*
X18306874Y23486526D02*
X18354493Y23534145D01*
X18354493Y23534145D02*
X18449731Y23581764D01*
X18449731Y23581764D02*
X18640207Y23581764D01*
X18640207Y23581764D02*
X18735445Y23534145D01*
X19973541Y22915097D02*
X19973541Y23915097D01*
X19973541Y23915097D02*
X20211636Y23915097D01*
X20211636Y23915097D02*
X20354493Y23867478D01*
X20354493Y23867478D02*
X20449731Y23772240D01*
X20449731Y23772240D02*
X20497350Y23677002D01*
X20497350Y23677002D02*
X20544969Y23486526D01*
X20544969Y23486526D02*
X20544969Y23343669D01*
X20544969Y23343669D02*
X20497350Y23153193D01*
X20497350Y23153193D02*
X20449731Y23057955D01*
X20449731Y23057955D02*
X20354493Y22962716D01*
X20354493Y22962716D02*
X20211636Y22915097D01*
X20211636Y22915097D02*
X19973541Y22915097D01*
X20973541Y22915097D02*
X20973541Y23581764D01*
X20973541Y23915097D02*
X20925922Y23867478D01*
X20925922Y23867478D02*
X20973541Y23819859D01*
X20973541Y23819859D02*
X21021160Y23867478D01*
X21021160Y23867478D02*
X20973541Y23915097D01*
X20973541Y23915097D02*
X20973541Y23819859D01*
X21402112Y22962716D02*
X21497350Y22915097D01*
X21497350Y22915097D02*
X21687826Y22915097D01*
X21687826Y22915097D02*
X21783064Y22962716D01*
X21783064Y22962716D02*
X21830683Y23057955D01*
X21830683Y23057955D02*
X21830683Y23105574D01*
X21830683Y23105574D02*
X21783064Y23200812D01*
X21783064Y23200812D02*
X21687826Y23248431D01*
X21687826Y23248431D02*
X21544969Y23248431D01*
X21544969Y23248431D02*
X21449731Y23296050D01*
X21449731Y23296050D02*
X21402112Y23391288D01*
X21402112Y23391288D02*
X21402112Y23438907D01*
X21402112Y23438907D02*
X21449731Y23534145D01*
X21449731Y23534145D02*
X21544969Y23581764D01*
X21544969Y23581764D02*
X21687826Y23581764D01*
X21687826Y23581764D02*
X21783064Y23534145D01*
X22259255Y23581764D02*
X22259255Y22581764D01*
X22259255Y23534145D02*
X22354493Y23581764D01*
X22354493Y23581764D02*
X22544969Y23581764D01*
X22544969Y23581764D02*
X22640207Y23534145D01*
X22640207Y23534145D02*
X22687826Y23486526D01*
X22687826Y23486526D02*
X22735445Y23391288D01*
X22735445Y23391288D02*
X22735445Y23105574D01*
X22735445Y23105574D02*
X22687826Y23010336D01*
X22687826Y23010336D02*
X22640207Y22962716D01*
X22640207Y22962716D02*
X22544969Y22915097D01*
X22544969Y22915097D02*
X22354493Y22915097D01*
X22354493Y22915097D02*
X22259255Y22962716D01*
X23306874Y22915097D02*
X23211636Y22962716D01*
X23211636Y22962716D02*
X23164017Y23057955D01*
X23164017Y23057955D02*
X23164017Y23915097D01*
X24116398Y22915097D02*
X24116398Y23438907D01*
X24116398Y23438907D02*
X24068779Y23534145D01*
X24068779Y23534145D02*
X23973541Y23581764D01*
X23973541Y23581764D02*
X23783065Y23581764D01*
X23783065Y23581764D02*
X23687827Y23534145D01*
X24116398Y22962716D02*
X24021160Y22915097D01*
X24021160Y22915097D02*
X23783065Y22915097D01*
X23783065Y22915097D02*
X23687827Y22962716D01*
X23687827Y22962716D02*
X23640208Y23057955D01*
X23640208Y23057955D02*
X23640208Y23153193D01*
X23640208Y23153193D02*
X23687827Y23248431D01*
X23687827Y23248431D02*
X23783065Y23296050D01*
X23783065Y23296050D02*
X24021160Y23296050D01*
X24021160Y23296050D02*
X24116398Y23343669D01*
X24497351Y23581764D02*
X24735446Y22915097D01*
X24973541Y23581764D02*
X24735446Y22915097D01*
X24735446Y22915097D02*
X24640208Y22677002D01*
X24640208Y22677002D02*
X24592589Y22629383D01*
X24592589Y22629383D02*
X24497351Y22581764D01*
X25354494Y22915097D02*
X25354494Y23915097D01*
X25354494Y23915097D02*
X25735446Y23915097D01*
X25735446Y23915097D02*
X25830684Y23867478D01*
X25830684Y23867478D02*
X25878303Y23819859D01*
X25878303Y23819859D02*
X25925922Y23724621D01*
X25925922Y23724621D02*
X25925922Y23581764D01*
X25925922Y23581764D02*
X25878303Y23486526D01*
X25878303Y23486526D02*
X25830684Y23438907D01*
X25830684Y23438907D02*
X25735446Y23391288D01*
X25735446Y23391288D02*
X25354494Y23391288D01*
X26497351Y22915097D02*
X26402113Y22962716D01*
X26402113Y22962716D02*
X26354494Y23010336D01*
X26354494Y23010336D02*
X26306875Y23105574D01*
X26306875Y23105574D02*
X26306875Y23391288D01*
X26306875Y23391288D02*
X26354494Y23486526D01*
X26354494Y23486526D02*
X26402113Y23534145D01*
X26402113Y23534145D02*
X26497351Y23581764D01*
X26497351Y23581764D02*
X26640208Y23581764D01*
X26640208Y23581764D02*
X26735446Y23534145D01*
X26735446Y23534145D02*
X26783065Y23486526D01*
X26783065Y23486526D02*
X26830684Y23391288D01*
X26830684Y23391288D02*
X26830684Y23105574D01*
X26830684Y23105574D02*
X26783065Y23010336D01*
X26783065Y23010336D02*
X26735446Y22962716D01*
X26735446Y22962716D02*
X26640208Y22915097D01*
X26640208Y22915097D02*
X26497351Y22915097D01*
X27259256Y22915097D02*
X27259256Y23581764D01*
X27259256Y23391288D02*
X27306875Y23486526D01*
X27306875Y23486526D02*
X27354494Y23534145D01*
X27354494Y23534145D02*
X27449732Y23581764D01*
X27449732Y23581764D02*
X27544970Y23581764D01*
X27735447Y23581764D02*
X28116399Y23581764D01*
X27878304Y23915097D02*
X27878304Y23057955D01*
X27878304Y23057955D02*
X27925923Y22962716D01*
X27925923Y22962716D02*
X28021161Y22915097D01*
X28021161Y22915097D02*
X28116399Y22915097D01*
X15640207Y21305153D02*
X15306874Y21781344D01*
X15068779Y21305153D02*
X15068779Y22305153D01*
X15068779Y22305153D02*
X15449731Y22305153D01*
X15449731Y22305153D02*
X15544969Y22257534D01*
X15544969Y22257534D02*
X15592588Y22209915D01*
X15592588Y22209915D02*
X15640207Y22114677D01*
X15640207Y22114677D02*
X15640207Y21971820D01*
X15640207Y21971820D02*
X15592588Y21876582D01*
X15592588Y21876582D02*
X15544969Y21828963D01*
X15544969Y21828963D02*
X15449731Y21781344D01*
X15449731Y21781344D02*
X15068779Y21781344D01*
X16449731Y21352772D02*
X16354493Y21305153D01*
X16354493Y21305153D02*
X16164017Y21305153D01*
X16164017Y21305153D02*
X16068779Y21352772D01*
X16068779Y21352772D02*
X16021160Y21448011D01*
X16021160Y21448011D02*
X16021160Y21828963D01*
X16021160Y21828963D02*
X16068779Y21924201D01*
X16068779Y21924201D02*
X16164017Y21971820D01*
X16164017Y21971820D02*
X16354493Y21971820D01*
X16354493Y21971820D02*
X16449731Y21924201D01*
X16449731Y21924201D02*
X16497350Y21828963D01*
X16497350Y21828963D02*
X16497350Y21733725D01*
X16497350Y21733725D02*
X16021160Y21638487D01*
X16830684Y21971820D02*
X17068779Y21305153D01*
X17068779Y21305153D02*
X17306874Y21971820D01*
X17687827Y21400392D02*
X17735446Y21352772D01*
X17735446Y21352772D02*
X17687827Y21305153D01*
X17687827Y21305153D02*
X17640208Y21352772D01*
X17640208Y21352772D02*
X17687827Y21400392D01*
X17687827Y21400392D02*
X17687827Y21305153D01*
X18497350Y21828963D02*
X18640207Y21781344D01*
X18640207Y21781344D02*
X18687826Y21733725D01*
X18687826Y21733725D02*
X18735445Y21638487D01*
X18735445Y21638487D02*
X18735445Y21495630D01*
X18735445Y21495630D02*
X18687826Y21400392D01*
X18687826Y21400392D02*
X18640207Y21352772D01*
X18640207Y21352772D02*
X18544969Y21305153D01*
X18544969Y21305153D02*
X18164017Y21305153D01*
X18164017Y21305153D02*
X18164017Y22305153D01*
X18164017Y22305153D02*
X18497350Y22305153D01*
X18497350Y22305153D02*
X18592588Y22257534D01*
X18592588Y22257534D02*
X18640207Y22209915D01*
X18640207Y22209915D02*
X18687826Y22114677D01*
X18687826Y22114677D02*
X18687826Y22019439D01*
X18687826Y22019439D02*
X18640207Y21924201D01*
X18640207Y21924201D02*
X18592588Y21876582D01*
X18592588Y21876582D02*
X18497350Y21828963D01*
X18497350Y21828963D02*
X18164017Y21828963D01*
X15021160Y20599971D02*
X15068779Y20647590D01*
X15068779Y20647590D02*
X15164017Y20695209D01*
X15164017Y20695209D02*
X15402112Y20695209D01*
X15402112Y20695209D02*
X15497350Y20647590D01*
X15497350Y20647590D02*
X15544969Y20599971D01*
X15544969Y20599971D02*
X15592588Y20504733D01*
X15592588Y20504733D02*
X15592588Y20409495D01*
X15592588Y20409495D02*
X15544969Y20266638D01*
X15544969Y20266638D02*
X14973541Y19695209D01*
X14973541Y19695209D02*
X15592588Y19695209D01*
X16211636Y20695209D02*
X16306874Y20695209D01*
X16306874Y20695209D02*
X16402112Y20647590D01*
X16402112Y20647590D02*
X16449731Y20599971D01*
X16449731Y20599971D02*
X16497350Y20504733D01*
X16497350Y20504733D02*
X16544969Y20314257D01*
X16544969Y20314257D02*
X16544969Y20076162D01*
X16544969Y20076162D02*
X16497350Y19885686D01*
X16497350Y19885686D02*
X16449731Y19790448D01*
X16449731Y19790448D02*
X16402112Y19742828D01*
X16402112Y19742828D02*
X16306874Y19695209D01*
X16306874Y19695209D02*
X16211636Y19695209D01*
X16211636Y19695209D02*
X16116398Y19742828D01*
X16116398Y19742828D02*
X16068779Y19790448D01*
X16068779Y19790448D02*
X16021160Y19885686D01*
X16021160Y19885686D02*
X15973541Y20076162D01*
X15973541Y20076162D02*
X15973541Y20314257D01*
X15973541Y20314257D02*
X16021160Y20504733D01*
X16021160Y20504733D02*
X16068779Y20599971D01*
X16068779Y20599971D02*
X16116398Y20647590D01*
X16116398Y20647590D02*
X16211636Y20695209D01*
X16925922Y20599971D02*
X16973541Y20647590D01*
X16973541Y20647590D02*
X17068779Y20695209D01*
X17068779Y20695209D02*
X17306874Y20695209D01*
X17306874Y20695209D02*
X17402112Y20647590D01*
X17402112Y20647590D02*
X17449731Y20599971D01*
X17449731Y20599971D02*
X17497350Y20504733D01*
X17497350Y20504733D02*
X17497350Y20409495D01*
X17497350Y20409495D02*
X17449731Y20266638D01*
X17449731Y20266638D02*
X16878303Y19695209D01*
X16878303Y19695209D02*
X17497350Y19695209D01*
X18354493Y20361876D02*
X18354493Y19695209D01*
X18116398Y20742828D02*
X17878303Y20028543D01*
X17878303Y20028543D02*
X18497350Y20028543D01*
X18878303Y20076162D02*
X19640208Y20076162D01*
X20306874Y20695209D02*
X20402112Y20695209D01*
X20402112Y20695209D02*
X20497350Y20647590D01*
X20497350Y20647590D02*
X20544969Y20599971D01*
X20544969Y20599971D02*
X20592588Y20504733D01*
X20592588Y20504733D02*
X20640207Y20314257D01*
X20640207Y20314257D02*
X20640207Y20076162D01*
X20640207Y20076162D02*
X20592588Y19885686D01*
X20592588Y19885686D02*
X20544969Y19790448D01*
X20544969Y19790448D02*
X20497350Y19742828D01*
X20497350Y19742828D02*
X20402112Y19695209D01*
X20402112Y19695209D02*
X20306874Y19695209D01*
X20306874Y19695209D02*
X20211636Y19742828D01*
X20211636Y19742828D02*
X20164017Y19790448D01*
X20164017Y19790448D02*
X20116398Y19885686D01*
X20116398Y19885686D02*
X20068779Y20076162D01*
X20068779Y20076162D02*
X20068779Y20314257D01*
X20068779Y20314257D02*
X20116398Y20504733D01*
X20116398Y20504733D02*
X20164017Y20599971D01*
X20164017Y20599971D02*
X20211636Y20647590D01*
X20211636Y20647590D02*
X20306874Y20695209D01*
X20973541Y20695209D02*
X21592588Y20695209D01*
X21592588Y20695209D02*
X21259255Y20314257D01*
X21259255Y20314257D02*
X21402112Y20314257D01*
X21402112Y20314257D02*
X21497350Y20266638D01*
X21497350Y20266638D02*
X21544969Y20219019D01*
X21544969Y20219019D02*
X21592588Y20123781D01*
X21592588Y20123781D02*
X21592588Y19885686D01*
X21592588Y19885686D02*
X21544969Y19790448D01*
X21544969Y19790448D02*
X21497350Y19742828D01*
X21497350Y19742828D02*
X21402112Y19695209D01*
X21402112Y19695209D02*
X21116398Y19695209D01*
X21116398Y19695209D02*
X21021160Y19742828D01*
X21021160Y19742828D02*
X20973541Y19790448D01*
X22021160Y20076162D02*
X22783065Y20076162D01*
X23783064Y19695209D02*
X23211636Y19695209D01*
X23497350Y19695209D02*
X23497350Y20695209D01*
X23497350Y20695209D02*
X23402112Y20552352D01*
X23402112Y20552352D02*
X23306874Y20457114D01*
X23306874Y20457114D02*
X23211636Y20409495D01*
X24116398Y20695209D02*
X24783064Y20695209D01*
X24783064Y20695209D02*
X24354493Y19695209D01*
X15687826Y18561456D02*
X15640207Y18609075D01*
X15640207Y18609075D02*
X15544969Y18656694D01*
X15544969Y18656694D02*
X15449731Y18656694D01*
X15449731Y18656694D02*
X15354493Y18609075D01*
X15354493Y18609075D02*
X15306874Y18561456D01*
X15306874Y18561456D02*
X15259255Y18466218D01*
X15259255Y18466218D02*
X15259255Y18370980D01*
X15259255Y18370980D02*
X15306874Y18275742D01*
X15306874Y18275742D02*
X15354493Y18228123D01*
X15354493Y18228123D02*
X15449731Y18180504D01*
X15449731Y18180504D02*
X15544969Y18180504D01*
X15544969Y18180504D02*
X15640207Y18228123D01*
X15640207Y18228123D02*
X15687826Y18275742D01*
X15687826Y18656694D02*
X15687826Y18275742D01*
X15687826Y18275742D02*
X15735445Y18228123D01*
X15735445Y18228123D02*
X15783064Y18228123D01*
X15783064Y18228123D02*
X15878303Y18275742D01*
X15878303Y18275742D02*
X15925922Y18370980D01*
X15925922Y18370980D02*
X15925922Y18609075D01*
X15925922Y18609075D02*
X15830684Y18751932D01*
X15830684Y18751932D02*
X15687826Y18847170D01*
X15687826Y18847170D02*
X15497350Y18894789D01*
X15497350Y18894789D02*
X15306874Y18847170D01*
X15306874Y18847170D02*
X15164017Y18751932D01*
X15164017Y18751932D02*
X15068779Y18609075D01*
X15068779Y18609075D02*
X15021160Y18418599D01*
X15021160Y18418599D02*
X15068779Y18228123D01*
X15068779Y18228123D02*
X15164017Y18085265D01*
X15164017Y18085265D02*
X15306874Y17990027D01*
X15306874Y17990027D02*
X15497350Y17942408D01*
X15497350Y17942408D02*
X15687826Y17990027D01*
X15687826Y17990027D02*
X15830684Y18085265D01*
X16783064Y18132884D02*
X16687826Y18085265D01*
X16687826Y18085265D02*
X16497350Y18085265D01*
X16497350Y18085265D02*
X16402112Y18132884D01*
X16402112Y18132884D02*
X16354493Y18180504D01*
X16354493Y18180504D02*
X16306874Y18275742D01*
X16306874Y18275742D02*
X16306874Y18561456D01*
X16306874Y18561456D02*
X16354493Y18656694D01*
X16354493Y18656694D02*
X16402112Y18704313D01*
X16402112Y18704313D02*
X16497350Y18751932D01*
X16497350Y18751932D02*
X16687826Y18751932D01*
X16687826Y18751932D02*
X16783064Y18704313D01*
X17211636Y18085265D02*
X17211636Y18751932D01*
X17211636Y19085265D02*
X17164017Y19037646D01*
X17164017Y19037646D02*
X17211636Y18990027D01*
X17211636Y18990027D02*
X17259255Y19037646D01*
X17259255Y19037646D02*
X17211636Y19085265D01*
X17211636Y19085265D02*
X17211636Y18990027D01*
X17687826Y18751932D02*
X17687826Y18085265D01*
X17687826Y18656694D02*
X17735445Y18704313D01*
X17735445Y18704313D02*
X17830683Y18751932D01*
X17830683Y18751932D02*
X17973540Y18751932D01*
X17973540Y18751932D02*
X18068778Y18704313D01*
X18068778Y18704313D02*
X18116397Y18609075D01*
X18116397Y18609075D02*
X18116397Y18085265D01*
X18592588Y18085265D02*
X18592588Y18751932D01*
X18592588Y19085265D02*
X18544969Y19037646D01*
X18544969Y19037646D02*
X18592588Y18990027D01*
X18592588Y18990027D02*
X18640207Y19037646D01*
X18640207Y19037646D02*
X18592588Y19085265D01*
X18592588Y19085265D02*
X18592588Y18990027D01*
X19068778Y18085265D02*
X19068778Y18751932D01*
X19068778Y18656694D02*
X19116397Y18704313D01*
X19116397Y18704313D02*
X19211635Y18751932D01*
X19211635Y18751932D02*
X19354492Y18751932D01*
X19354492Y18751932D02*
X19449730Y18704313D01*
X19449730Y18704313D02*
X19497349Y18609075D01*
X19497349Y18609075D02*
X19497349Y18085265D01*
X19497349Y18609075D02*
X19544968Y18704313D01*
X19544968Y18704313D02*
X19640206Y18751932D01*
X19640206Y18751932D02*
X19783063Y18751932D01*
X19783063Y18751932D02*
X19878302Y18704313D01*
X19878302Y18704313D02*
X19925921Y18609075D01*
X19925921Y18609075D02*
X19925921Y18085265D01*
X20544968Y18085265D02*
X20449730Y18132884D01*
X20449730Y18132884D02*
X20402111Y18228123D01*
X20402111Y18228123D02*
X20402111Y19085265D01*
X11340419Y26090477D02*
X11292800Y26138096D01*
X11292800Y26138096D02*
X11245180Y26280953D01*
X11245180Y26280953D02*
X11245180Y26376191D01*
X11245180Y26376191D02*
X11292800Y26519048D01*
X11292800Y26519048D02*
X11388038Y26614286D01*
X11388038Y26614286D02*
X11483276Y26661905D01*
X11483276Y26661905D02*
X11673752Y26709524D01*
X11673752Y26709524D02*
X11816609Y26709524D01*
X11816609Y26709524D02*
X12007085Y26661905D01*
X12007085Y26661905D02*
X12102323Y26614286D01*
X12102323Y26614286D02*
X12197561Y26519048D01*
X12197561Y26519048D02*
X12245180Y26376191D01*
X12245180Y26376191D02*
X12245180Y26280953D01*
X12245180Y26280953D02*
X12197561Y26138096D01*
X12197561Y26138096D02*
X12149942Y26090477D01*
X11245180Y25661905D02*
X12245180Y25661905D01*
X12245180Y25661905D02*
X11245180Y25090477D01*
X11245180Y25090477D02*
X12245180Y25090477D01*
X11245180Y24090477D02*
X11245180Y24661905D01*
X11245180Y24376191D02*
X12245180Y24376191D01*
X12245180Y24376191D02*
X12102323Y24471429D01*
X12102323Y24471429D02*
X12007085Y24566667D01*
X12007085Y24566667D02*
X11959466Y24661905D01*
X6103333Y8977705D02*
X6103333Y8406277D01*
X6103333Y8406277D02*
X6065238Y8291991D01*
X6065238Y8291991D02*
X5989047Y8215800D01*
X5989047Y8215800D02*
X5874762Y8177705D01*
X5874762Y8177705D02*
X5798571Y8177705D01*
X6903333Y8177705D02*
X6446190Y8177705D01*
X6674762Y8177705D02*
X6674762Y8977705D01*
X6674762Y8977705D02*
X6598571Y8863420D01*
X6598571Y8863420D02*
X6522381Y8787229D01*
X6522381Y8787229D02*
X6446190Y8749134D01*
X-7511705Y8102572D02*
X-7511705Y7645429D01*
X-7511705Y7874001D02*
X-8311705Y7874001D01*
X-8311705Y7874001D02*
X-8197420Y7797810D01*
X-8197420Y7797810D02*
X-8121229Y7721620D01*
X-8121229Y7721620D02*
X-8083134Y7645429D01*
X20474303Y11905896D02*
X20436207Y11867800D01*
X20436207Y11867800D02*
X20321922Y11829705D01*
X20321922Y11829705D02*
X20245731Y11829705D01*
X20245731Y11829705D02*
X20131445Y11867800D01*
X20131445Y11867800D02*
X20055255Y11943991D01*
X20055255Y11943991D02*
X20017160Y12020181D01*
X20017160Y12020181D02*
X19979064Y12172562D01*
X19979064Y12172562D02*
X19979064Y12286848D01*
X19979064Y12286848D02*
X20017160Y12439229D01*
X20017160Y12439229D02*
X20055255Y12515420D01*
X20055255Y12515420D02*
X20131445Y12591610D01*
X20131445Y12591610D02*
X20245731Y12629705D01*
X20245731Y12629705D02*
X20321922Y12629705D01*
X20321922Y12629705D02*
X20436207Y12591610D01*
X20436207Y12591610D02*
X20474303Y12553515D01*
X21236207Y11829705D02*
X20779064Y11829705D01*
X21007636Y11829705D02*
X21007636Y12629705D01*
X21007636Y12629705D02*
X20931445Y12515420D01*
X20931445Y12515420D02*
X20855255Y12439229D01*
X20855255Y12439229D02*
X20779064Y12401134D01*
X21731446Y12629705D02*
X21807636Y12629705D01*
X21807636Y12629705D02*
X21883827Y12591610D01*
X21883827Y12591610D02*
X21921922Y12553515D01*
X21921922Y12553515D02*
X21960017Y12477324D01*
X21960017Y12477324D02*
X21998112Y12324943D01*
X21998112Y12324943D02*
X21998112Y12134467D01*
X21998112Y12134467D02*
X21960017Y11982086D01*
X21960017Y11982086D02*
X21921922Y11905896D01*
X21921922Y11905896D02*
X21883827Y11867800D01*
X21883827Y11867800D02*
X21807636Y11829705D01*
X21807636Y11829705D02*
X21731446Y11829705D01*
X21731446Y11829705D02*
X21655255Y11867800D01*
X21655255Y11867800D02*
X21617160Y11905896D01*
X21617160Y11905896D02*
X21579065Y11982086D01*
X21579065Y11982086D02*
X21540969Y12134467D01*
X21540969Y12134467D02*
X21540969Y12324943D01*
X21540969Y12324943D02*
X21579065Y12477324D01*
X21579065Y12477324D02*
X21617160Y12553515D01*
X21617160Y12553515D02*
X21655255Y12591610D01*
X21655255Y12591610D02*
X21731446Y12629705D01*
X25254295Y12820715D02*
X24873342Y12554048D01*
X25254295Y12363572D02*
X24454295Y12363572D01*
X24454295Y12363572D02*
X24454295Y12668334D01*
X24454295Y12668334D02*
X24492390Y12744524D01*
X24492390Y12744524D02*
X24530485Y12782619D01*
X24530485Y12782619D02*
X24606676Y12820715D01*
X24606676Y12820715D02*
X24720961Y12820715D01*
X24720961Y12820715D02*
X24797152Y12782619D01*
X24797152Y12782619D02*
X24835247Y12744524D01*
X24835247Y12744524D02*
X24873342Y12668334D01*
X24873342Y12668334D02*
X24873342Y12363572D01*
X25254295Y13582619D02*
X25254295Y13125476D01*
X25254295Y13354048D02*
X24454295Y13354048D01*
X24454295Y13354048D02*
X24568580Y13277857D01*
X24568580Y13277857D02*
X24644771Y13201667D01*
X24644771Y13201667D02*
X24682866Y13125476D01*
X24720961Y14268334D02*
X25254295Y14268334D01*
X24416200Y14077858D02*
X24987628Y13887381D01*
X24987628Y13887381D02*
X24987628Y14382620D01*
X-2888896Y13319304D02*
X-2850800Y13281208D01*
X-2850800Y13281208D02*
X-2812705Y13166923D01*
X-2812705Y13166923D02*
X-2812705Y13090732D01*
X-2812705Y13090732D02*
X-2850800Y12976446D01*
X-2850800Y12976446D02*
X-2926991Y12900256D01*
X-2926991Y12900256D02*
X-3003181Y12862161D01*
X-3003181Y12862161D02*
X-3155562Y12824065D01*
X-3155562Y12824065D02*
X-3269848Y12824065D01*
X-3269848Y12824065D02*
X-3422229Y12862161D01*
X-3422229Y12862161D02*
X-3498420Y12900256D01*
X-3498420Y12900256D02*
X-3574610Y12976446D01*
X-3574610Y12976446D02*
X-3612705Y13090732D01*
X-3612705Y13090732D02*
X-3612705Y13166923D01*
X-3612705Y13166923D02*
X-3574610Y13281208D01*
X-3574610Y13281208D02*
X-3536515Y13319304D01*
X-3346039Y14005018D02*
X-2812705Y14005018D01*
X-3650800Y13814542D02*
X-3079372Y13624065D01*
X-3079372Y13624065D02*
X-3079372Y14119304D01*
X1644714Y7765705D02*
X1378047Y8146658D01*
X1187571Y7765705D02*
X1187571Y8565705D01*
X1187571Y8565705D02*
X1492333Y8565705D01*
X1492333Y8565705D02*
X1568523Y8527610D01*
X1568523Y8527610D02*
X1606618Y8489515D01*
X1606618Y8489515D02*
X1644714Y8413324D01*
X1644714Y8413324D02*
X1644714Y8299039D01*
X1644714Y8299039D02*
X1606618Y8222848D01*
X1606618Y8222848D02*
X1568523Y8184753D01*
X1568523Y8184753D02*
X1492333Y8146658D01*
X1492333Y8146658D02*
X1187571Y8146658D01*
X2406618Y7765705D02*
X1949475Y7765705D01*
X2178047Y7765705D02*
X2178047Y8565705D01*
X2178047Y8565705D02*
X2101856Y8451420D01*
X2101856Y8451420D02*
X2025666Y8375229D01*
X2025666Y8375229D02*
X1949475Y8337134D01*
X2901857Y8565705D02*
X2978047Y8565705D01*
X2978047Y8565705D02*
X3054238Y8527610D01*
X3054238Y8527610D02*
X3092333Y8489515D01*
X3092333Y8489515D02*
X3130428Y8413324D01*
X3130428Y8413324D02*
X3168523Y8260943D01*
X3168523Y8260943D02*
X3168523Y8070467D01*
X3168523Y8070467D02*
X3130428Y7918086D01*
X3130428Y7918086D02*
X3092333Y7841896D01*
X3092333Y7841896D02*
X3054238Y7803800D01*
X3054238Y7803800D02*
X2978047Y7765705D01*
X2978047Y7765705D02*
X2901857Y7765705D01*
X2901857Y7765705D02*
X2825666Y7803800D01*
X2825666Y7803800D02*
X2787571Y7841896D01*
X2787571Y7841896D02*
X2749476Y7918086D01*
X2749476Y7918086D02*
X2711380Y8070467D01*
X2711380Y8070467D02*
X2711380Y8260943D01*
X2711380Y8260943D02*
X2749476Y8413324D01*
X2749476Y8413324D02*
X2787571Y8489515D01*
X2787571Y8489515D02*
X2825666Y8527610D01*
X2825666Y8527610D02*
X2901857Y8565705D01*
X5747104Y11941031D02*
X5785200Y11902935D01*
X5785200Y11902935D02*
X5823295Y11788650D01*
X5823295Y11788650D02*
X5823295Y11712459D01*
X5823295Y11712459D02*
X5785200Y11598173D01*
X5785200Y11598173D02*
X5709009Y11521983D01*
X5709009Y11521983D02*
X5632819Y11483888D01*
X5632819Y11483888D02*
X5480438Y11445792D01*
X5480438Y11445792D02*
X5366152Y11445792D01*
X5366152Y11445792D02*
X5213771Y11483888D01*
X5213771Y11483888D02*
X5137580Y11521983D01*
X5137580Y11521983D02*
X5061390Y11598173D01*
X5061390Y11598173D02*
X5023295Y11712459D01*
X5023295Y11712459D02*
X5023295Y11788650D01*
X5023295Y11788650D02*
X5061390Y11902935D01*
X5061390Y11902935D02*
X5099485Y11941031D01*
X5366152Y12398173D02*
X5328057Y12321983D01*
X5328057Y12321983D02*
X5289961Y12283888D01*
X5289961Y12283888D02*
X5213771Y12245792D01*
X5213771Y12245792D02*
X5175676Y12245792D01*
X5175676Y12245792D02*
X5099485Y12283888D01*
X5099485Y12283888D02*
X5061390Y12321983D01*
X5061390Y12321983D02*
X5023295Y12398173D01*
X5023295Y12398173D02*
X5023295Y12550554D01*
X5023295Y12550554D02*
X5061390Y12626745D01*
X5061390Y12626745D02*
X5099485Y12664840D01*
X5099485Y12664840D02*
X5175676Y12702935D01*
X5175676Y12702935D02*
X5213771Y12702935D01*
X5213771Y12702935D02*
X5289961Y12664840D01*
X5289961Y12664840D02*
X5328057Y12626745D01*
X5328057Y12626745D02*
X5366152Y12550554D01*
X5366152Y12550554D02*
X5366152Y12398173D01*
X5366152Y12398173D02*
X5404247Y12321983D01*
X5404247Y12321983D02*
X5442342Y12283888D01*
X5442342Y12283888D02*
X5518533Y12245792D01*
X5518533Y12245792D02*
X5670914Y12245792D01*
X5670914Y12245792D02*
X5747104Y12283888D01*
X5747104Y12283888D02*
X5785200Y12321983D01*
X5785200Y12321983D02*
X5823295Y12398173D01*
X5823295Y12398173D02*
X5823295Y12550554D01*
X5823295Y12550554D02*
X5785200Y12626745D01*
X5785200Y12626745D02*
X5747104Y12664840D01*
X5747104Y12664840D02*
X5670914Y12702935D01*
X5670914Y12702935D02*
X5518533Y12702935D01*
X5518533Y12702935D02*
X5442342Y12664840D01*
X5442342Y12664840D02*
X5404247Y12626745D01*
X5404247Y12626745D02*
X5366152Y12550554D01*
X14217667Y9670705D02*
X13951000Y10051658D01*
X13760524Y9670705D02*
X13760524Y10470705D01*
X13760524Y10470705D02*
X14065286Y10470705D01*
X14065286Y10470705D02*
X14141476Y10432610D01*
X14141476Y10432610D02*
X14179571Y10394515D01*
X14179571Y10394515D02*
X14217667Y10318324D01*
X14217667Y10318324D02*
X14217667Y10204039D01*
X14217667Y10204039D02*
X14179571Y10127848D01*
X14179571Y10127848D02*
X14141476Y10089753D01*
X14141476Y10089753D02*
X14065286Y10051658D01*
X14065286Y10051658D02*
X13760524Y10051658D01*
X14484333Y10470705D02*
X14979571Y10470705D01*
X14979571Y10470705D02*
X14712905Y10165943D01*
X14712905Y10165943D02*
X14827190Y10165943D01*
X14827190Y10165943D02*
X14903381Y10127848D01*
X14903381Y10127848D02*
X14941476Y10089753D01*
X14941476Y10089753D02*
X14979571Y10013562D01*
X14979571Y10013562D02*
X14979571Y9823086D01*
X14979571Y9823086D02*
X14941476Y9746896D01*
X14941476Y9746896D02*
X14903381Y9708800D01*
X14903381Y9708800D02*
X14827190Y9670705D01*
X14827190Y9670705D02*
X14598619Y9670705D01*
X14598619Y9670705D02*
X14522428Y9708800D01*
X14522428Y9708800D02*
X14484333Y9746896D01*
X362295Y10153715D02*
X-18658Y9887048D01*
X362295Y9696572D02*
X-437705Y9696572D01*
X-437705Y9696572D02*
X-437705Y10001334D01*
X-437705Y10001334D02*
X-399610Y10077524D01*
X-399610Y10077524D02*
X-361515Y10115619D01*
X-361515Y10115619D02*
X-285324Y10153715D01*
X-285324Y10153715D02*
X-171039Y10153715D01*
X-171039Y10153715D02*
X-94848Y10115619D01*
X-94848Y10115619D02*
X-56753Y10077524D01*
X-56753Y10077524D02*
X-18658Y10001334D01*
X-18658Y10001334D02*
X-18658Y9696572D01*
X362295Y10915619D02*
X362295Y10458476D01*
X362295Y10687048D02*
X-437705Y10687048D01*
X-437705Y10687048D02*
X-323420Y10610857D01*
X-323420Y10610857D02*
X-247229Y10534667D01*
X-247229Y10534667D02*
X-209134Y10458476D01*
X362295Y11677524D02*
X362295Y11220381D01*
X362295Y11448953D02*
X-437705Y11448953D01*
X-437705Y11448953D02*
X-323420Y11372762D01*
X-323420Y11372762D02*
X-247229Y11296572D01*
X-247229Y11296572D02*
X-209134Y11220381D01*
X28435333Y9327705D02*
X28435333Y8756277D01*
X28435333Y8756277D02*
X28397238Y8641991D01*
X28397238Y8641991D02*
X28321047Y8565800D01*
X28321047Y8565800D02*
X28206762Y8527705D01*
X28206762Y8527705D02*
X28130571Y8527705D01*
X28778190Y9251515D02*
X28816286Y9289610D01*
X28816286Y9289610D02*
X28892476Y9327705D01*
X28892476Y9327705D02*
X29082952Y9327705D01*
X29082952Y9327705D02*
X29159143Y9289610D01*
X29159143Y9289610D02*
X29197238Y9251515D01*
X29197238Y9251515D02*
X29235333Y9175324D01*
X29235333Y9175324D02*
X29235333Y9099134D01*
X29235333Y9099134D02*
X29197238Y8984848D01*
X29197238Y8984848D02*
X28740095Y8527705D01*
X28740095Y8527705D02*
X29235333Y8527705D01*
X15348295Y8102572D02*
X15348295Y7645429D01*
X15348295Y7874001D02*
X14548295Y7874001D01*
X14548295Y7874001D02*
X14662580Y7797810D01*
X14662580Y7797810D02*
X14738771Y7721620D01*
X14738771Y7721620D02*
X14776866Y7645429D01*
X-3650896Y17256304D02*
X-3612800Y17218208D01*
X-3612800Y17218208D02*
X-3574705Y17103923D01*
X-3574705Y17103923D02*
X-3574705Y17027732D01*
X-3574705Y17027732D02*
X-3612800Y16913446D01*
X-3612800Y16913446D02*
X-3688991Y16837256D01*
X-3688991Y16837256D02*
X-3765181Y16799161D01*
X-3765181Y16799161D02*
X-3917562Y16761065D01*
X-3917562Y16761065D02*
X-4031848Y16761065D01*
X-4031848Y16761065D02*
X-4184229Y16799161D01*
X-4184229Y16799161D02*
X-4260420Y16837256D01*
X-4260420Y16837256D02*
X-4336610Y16913446D01*
X-4336610Y16913446D02*
X-4374705Y17027732D01*
X-4374705Y17027732D02*
X-4374705Y17103923D01*
X-4374705Y17103923D02*
X-4336610Y17218208D01*
X-4336610Y17218208D02*
X-4298515Y17256304D01*
X-4298515Y17561065D02*
X-4336610Y17599161D01*
X-4336610Y17599161D02*
X-4374705Y17675351D01*
X-4374705Y17675351D02*
X-4374705Y17865827D01*
X-4374705Y17865827D02*
X-4336610Y17942018D01*
X-4336610Y17942018D02*
X-4298515Y17980113D01*
X-4298515Y17980113D02*
X-4222324Y18018208D01*
X-4222324Y18018208D02*
X-4146134Y18018208D01*
X-4146134Y18018208D02*
X-4031848Y17980113D01*
X-4031848Y17980113D02*
X-3574705Y17522970D01*
X-3574705Y17522970D02*
X-3574705Y18018208D01*
X20821667Y7765705D02*
X20555000Y8146658D01*
X20364524Y7765705D02*
X20364524Y8565705D01*
X20364524Y8565705D02*
X20669286Y8565705D01*
X20669286Y8565705D02*
X20745476Y8527610D01*
X20745476Y8527610D02*
X20783571Y8489515D01*
X20783571Y8489515D02*
X20821667Y8413324D01*
X20821667Y8413324D02*
X20821667Y8299039D01*
X20821667Y8299039D02*
X20783571Y8222848D01*
X20783571Y8222848D02*
X20745476Y8184753D01*
X20745476Y8184753D02*
X20669286Y8146658D01*
X20669286Y8146658D02*
X20364524Y8146658D01*
X21507381Y8299039D02*
X21507381Y7765705D01*
X21316905Y8603800D02*
X21126428Y8032372D01*
X21126428Y8032372D02*
X21621667Y8032372D01*
X-7880333Y8781705D02*
X-8147000Y9162658D01*
X-8337476Y8781705D02*
X-8337476Y9581705D01*
X-8337476Y9581705D02*
X-8032714Y9581705D01*
X-8032714Y9581705D02*
X-7956524Y9543610D01*
X-7956524Y9543610D02*
X-7918429Y9505515D01*
X-7918429Y9505515D02*
X-7880333Y9429324D01*
X-7880333Y9429324D02*
X-7880333Y9315039D01*
X-7880333Y9315039D02*
X-7918429Y9238848D01*
X-7918429Y9238848D02*
X-7956524Y9200753D01*
X-7956524Y9200753D02*
X-8032714Y9162658D01*
X-8032714Y9162658D02*
X-8337476Y9162658D01*
X-7156524Y9581705D02*
X-7537476Y9581705D01*
X-7537476Y9581705D02*
X-7575572Y9200753D01*
X-7575572Y9200753D02*
X-7537476Y9238848D01*
X-7537476Y9238848D02*
X-7461286Y9276943D01*
X-7461286Y9276943D02*
X-7270810Y9276943D01*
X-7270810Y9276943D02*
X-7194619Y9238848D01*
X-7194619Y9238848D02*
X-7156524Y9200753D01*
X-7156524Y9200753D02*
X-7118429Y9124562D01*
X-7118429Y9124562D02*
X-7118429Y8934086D01*
X-7118429Y8934086D02*
X-7156524Y8857896D01*
X-7156524Y8857896D02*
X-7194619Y8819800D01*
X-7194619Y8819800D02*
X-7270810Y8781705D01*
X-7270810Y8781705D02*
X-7461286Y8781705D01*
X-7461286Y8781705D02*
X-7537476Y8819800D01*
X-7537476Y8819800D02*
X-7575572Y8857896D01*
X-2050705Y9010668D02*
X-2431658Y8744001D01*
X-2050705Y8553525D02*
X-2850705Y8553525D01*
X-2850705Y8553525D02*
X-2850705Y8858287D01*
X-2850705Y8858287D02*
X-2812610Y8934477D01*
X-2812610Y8934477D02*
X-2774515Y8972572D01*
X-2774515Y8972572D02*
X-2698324Y9010668D01*
X-2698324Y9010668D02*
X-2584039Y9010668D01*
X-2584039Y9010668D02*
X-2507848Y8972572D01*
X-2507848Y8972572D02*
X-2469753Y8934477D01*
X-2469753Y8934477D02*
X-2431658Y8858287D01*
X-2431658Y8858287D02*
X-2431658Y8553525D01*
X-2507848Y9467810D02*
X-2545943Y9391620D01*
X-2545943Y9391620D02*
X-2584039Y9353525D01*
X-2584039Y9353525D02*
X-2660229Y9315429D01*
X-2660229Y9315429D02*
X-2698324Y9315429D01*
X-2698324Y9315429D02*
X-2774515Y9353525D01*
X-2774515Y9353525D02*
X-2812610Y9391620D01*
X-2812610Y9391620D02*
X-2850705Y9467810D01*
X-2850705Y9467810D02*
X-2850705Y9620191D01*
X-2850705Y9620191D02*
X-2812610Y9696382D01*
X-2812610Y9696382D02*
X-2774515Y9734477D01*
X-2774515Y9734477D02*
X-2698324Y9772572D01*
X-2698324Y9772572D02*
X-2660229Y9772572D01*
X-2660229Y9772572D02*
X-2584039Y9734477D01*
X-2584039Y9734477D02*
X-2545943Y9696382D01*
X-2545943Y9696382D02*
X-2507848Y9620191D01*
X-2507848Y9620191D02*
X-2507848Y9467810D01*
X-2507848Y9467810D02*
X-2469753Y9391620D01*
X-2469753Y9391620D02*
X-2431658Y9353525D01*
X-2431658Y9353525D02*
X-2355467Y9315429D01*
X-2355467Y9315429D02*
X-2203086Y9315429D01*
X-2203086Y9315429D02*
X-2126896Y9353525D01*
X-2126896Y9353525D02*
X-2088800Y9391620D01*
X-2088800Y9391620D02*
X-2050705Y9467810D01*
X-2050705Y9467810D02*
X-2050705Y9620191D01*
X-2050705Y9620191D02*
X-2088800Y9696382D01*
X-2088800Y9696382D02*
X-2126896Y9734477D01*
X-2126896Y9734477D02*
X-2203086Y9772572D01*
X-2203086Y9772572D02*
X-2355467Y9772572D01*
X-2355467Y9772572D02*
X-2431658Y9734477D01*
X-2431658Y9734477D02*
X-2469753Y9696382D01*
X-2469753Y9696382D02*
X-2507848Y9620191D01*
X4096104Y15624031D02*
X4134200Y15585935D01*
X4134200Y15585935D02*
X4172295Y15471650D01*
X4172295Y15471650D02*
X4172295Y15395459D01*
X4172295Y15395459D02*
X4134200Y15281173D01*
X4134200Y15281173D02*
X4058009Y15204983D01*
X4058009Y15204983D02*
X3981819Y15166888D01*
X3981819Y15166888D02*
X3829438Y15128792D01*
X3829438Y15128792D02*
X3715152Y15128792D01*
X3715152Y15128792D02*
X3562771Y15166888D01*
X3562771Y15166888D02*
X3486580Y15204983D01*
X3486580Y15204983D02*
X3410390Y15281173D01*
X3410390Y15281173D02*
X3372295Y15395459D01*
X3372295Y15395459D02*
X3372295Y15471650D01*
X3372295Y15471650D02*
X3410390Y15585935D01*
X3410390Y15585935D02*
X3448485Y15624031D01*
X3372295Y16309745D02*
X3372295Y16157364D01*
X3372295Y16157364D02*
X3410390Y16081173D01*
X3410390Y16081173D02*
X3448485Y16043078D01*
X3448485Y16043078D02*
X3562771Y15966888D01*
X3562771Y15966888D02*
X3715152Y15928792D01*
X3715152Y15928792D02*
X4019914Y15928792D01*
X4019914Y15928792D02*
X4096104Y15966888D01*
X4096104Y15966888D02*
X4134200Y16004983D01*
X4134200Y16004983D02*
X4172295Y16081173D01*
X4172295Y16081173D02*
X4172295Y16233554D01*
X4172295Y16233554D02*
X4134200Y16309745D01*
X4134200Y16309745D02*
X4096104Y16347840D01*
X4096104Y16347840D02*
X4019914Y16385935D01*
X4019914Y16385935D02*
X3829438Y16385935D01*
X3829438Y16385935D02*
X3753247Y16347840D01*
X3753247Y16347840D02*
X3715152Y16309745D01*
X3715152Y16309745D02*
X3677057Y16233554D01*
X3677057Y16233554D02*
X3677057Y16081173D01*
X3677057Y16081173D02*
X3715152Y16004983D01*
X3715152Y16004983D02*
X3753247Y15966888D01*
X3753247Y15966888D02*
X3829438Y15928792D01*
X15751030Y10873756D02*
X15712934Y10835660D01*
X15712934Y10835660D02*
X15598649Y10797565D01*
X15598649Y10797565D02*
X15522458Y10797565D01*
X15522458Y10797565D02*
X15408172Y10835660D01*
X15408172Y10835660D02*
X15331982Y10911851D01*
X15331982Y10911851D02*
X15293887Y10988041D01*
X15293887Y10988041D02*
X15255791Y11140422D01*
X15255791Y11140422D02*
X15255791Y11254708D01*
X15255791Y11254708D02*
X15293887Y11407089D01*
X15293887Y11407089D02*
X15331982Y11483280D01*
X15331982Y11483280D02*
X15408172Y11559470D01*
X15408172Y11559470D02*
X15522458Y11597565D01*
X15522458Y11597565D02*
X15598649Y11597565D01*
X15598649Y11597565D02*
X15712934Y11559470D01*
X15712934Y11559470D02*
X15751030Y11521375D01*
X16131982Y10797565D02*
X16284363Y10797565D01*
X16284363Y10797565D02*
X16360553Y10835660D01*
X16360553Y10835660D02*
X16398649Y10873756D01*
X16398649Y10873756D02*
X16474839Y10988041D01*
X16474839Y10988041D02*
X16512934Y11140422D01*
X16512934Y11140422D02*
X16512934Y11445184D01*
X16512934Y11445184D02*
X16474839Y11521375D01*
X16474839Y11521375D02*
X16436744Y11559470D01*
X16436744Y11559470D02*
X16360553Y11597565D01*
X16360553Y11597565D02*
X16208172Y11597565D01*
X16208172Y11597565D02*
X16131982Y11559470D01*
X16131982Y11559470D02*
X16093887Y11521375D01*
X16093887Y11521375D02*
X16055791Y11445184D01*
X16055791Y11445184D02*
X16055791Y11254708D01*
X16055791Y11254708D02*
X16093887Y11178518D01*
X16093887Y11178518D02*
X16131982Y11140422D01*
X16131982Y11140422D02*
X16208172Y11102327D01*
X16208172Y11102327D02*
X16360553Y11102327D01*
X16360553Y11102327D02*
X16436744Y11140422D01*
X16436744Y11140422D02*
X16474839Y11178518D01*
X16474839Y11178518D02*
X16512934Y11254708D01*
X-260333Y7765705D02*
X-527000Y8146658D01*
X-717476Y7765705D02*
X-717476Y8565705D01*
X-717476Y8565705D02*
X-412714Y8565705D01*
X-412714Y8565705D02*
X-336524Y8527610D01*
X-336524Y8527610D02*
X-298429Y8489515D01*
X-298429Y8489515D02*
X-260333Y8413324D01*
X-260333Y8413324D02*
X-260333Y8299039D01*
X-260333Y8299039D02*
X-298429Y8222848D01*
X-298429Y8222848D02*
X-336524Y8184753D01*
X-336524Y8184753D02*
X-412714Y8146658D01*
X-412714Y8146658D02*
X-717476Y8146658D01*
X120619Y7765705D02*
X273000Y7765705D01*
X273000Y7765705D02*
X349190Y7803800D01*
X349190Y7803800D02*
X387286Y7841896D01*
X387286Y7841896D02*
X463476Y7956181D01*
X463476Y7956181D02*
X501571Y8108562D01*
X501571Y8108562D02*
X501571Y8413324D01*
X501571Y8413324D02*
X463476Y8489515D01*
X463476Y8489515D02*
X425381Y8527610D01*
X425381Y8527610D02*
X349190Y8565705D01*
X349190Y8565705D02*
X196809Y8565705D01*
X196809Y8565705D02*
X120619Y8527610D01*
X120619Y8527610D02*
X82524Y8489515D01*
X82524Y8489515D02*
X44428Y8413324D01*
X44428Y8413324D02*
X44428Y8222848D01*
X44428Y8222848D02*
X82524Y8146658D01*
X82524Y8146658D02*
X120619Y8108562D01*
X120619Y8108562D02*
X196809Y8070467D01*
X196809Y8070467D02*
X349190Y8070467D01*
X349190Y8070467D02*
X425381Y8108562D01*
X425381Y8108562D02*
X463476Y8146658D01*
X463476Y8146658D02*
X501571Y8222848D01*
X2445104Y15624031D02*
X2483200Y15585935D01*
X2483200Y15585935D02*
X2521295Y15471650D01*
X2521295Y15471650D02*
X2521295Y15395459D01*
X2521295Y15395459D02*
X2483200Y15281173D01*
X2483200Y15281173D02*
X2407009Y15204983D01*
X2407009Y15204983D02*
X2330819Y15166888D01*
X2330819Y15166888D02*
X2178438Y15128792D01*
X2178438Y15128792D02*
X2064152Y15128792D01*
X2064152Y15128792D02*
X1911771Y15166888D01*
X1911771Y15166888D02*
X1835580Y15204983D01*
X1835580Y15204983D02*
X1759390Y15281173D01*
X1759390Y15281173D02*
X1721295Y15395459D01*
X1721295Y15395459D02*
X1721295Y15471650D01*
X1721295Y15471650D02*
X1759390Y15585935D01*
X1759390Y15585935D02*
X1797485Y15624031D01*
X1721295Y16347840D02*
X1721295Y15966888D01*
X1721295Y15966888D02*
X2102247Y15928792D01*
X2102247Y15928792D02*
X2064152Y15966888D01*
X2064152Y15966888D02*
X2026057Y16043078D01*
X2026057Y16043078D02*
X2026057Y16233554D01*
X2026057Y16233554D02*
X2064152Y16309745D01*
X2064152Y16309745D02*
X2102247Y16347840D01*
X2102247Y16347840D02*
X2178438Y16385935D01*
X2178438Y16385935D02*
X2368914Y16385935D01*
X2368914Y16385935D02*
X2445104Y16347840D01*
X2445104Y16347840D02*
X2483200Y16309745D01*
X2483200Y16309745D02*
X2521295Y16233554D01*
X2521295Y16233554D02*
X2521295Y16043078D01*
X2521295Y16043078D02*
X2483200Y15966888D01*
X2483200Y15966888D02*
X2445104Y15928792D01*
X-3904896Y13319304D02*
X-3866800Y13281208D01*
X-3866800Y13281208D02*
X-3828705Y13166923D01*
X-3828705Y13166923D02*
X-3828705Y13090732D01*
X-3828705Y13090732D02*
X-3866800Y12976446D01*
X-3866800Y12976446D02*
X-3942991Y12900256D01*
X-3942991Y12900256D02*
X-4019181Y12862161D01*
X-4019181Y12862161D02*
X-4171562Y12824065D01*
X-4171562Y12824065D02*
X-4285848Y12824065D01*
X-4285848Y12824065D02*
X-4438229Y12862161D01*
X-4438229Y12862161D02*
X-4514420Y12900256D01*
X-4514420Y12900256D02*
X-4590610Y12976446D01*
X-4590610Y12976446D02*
X-4628705Y13090732D01*
X-4628705Y13090732D02*
X-4628705Y13166923D01*
X-4628705Y13166923D02*
X-4590610Y13281208D01*
X-4590610Y13281208D02*
X-4552515Y13319304D01*
X-4628705Y13585970D02*
X-4628705Y14081208D01*
X-4628705Y14081208D02*
X-4323943Y13814542D01*
X-4323943Y13814542D02*
X-4323943Y13928827D01*
X-4323943Y13928827D02*
X-4285848Y14005018D01*
X-4285848Y14005018D02*
X-4247753Y14043113D01*
X-4247753Y14043113D02*
X-4171562Y14081208D01*
X-4171562Y14081208D02*
X-3981086Y14081208D01*
X-3981086Y14081208D02*
X-3904896Y14043113D01*
X-3904896Y14043113D02*
X-3866800Y14005018D01*
X-3866800Y14005018D02*
X-3828705Y13928827D01*
X-3828705Y13928827D02*
X-3828705Y13700256D01*
X-3828705Y13700256D02*
X-3866800Y13624065D01*
X-3866800Y13624065D02*
X-3904896Y13585970D01*
X-4793896Y17256304D02*
X-4755800Y17218208D01*
X-4755800Y17218208D02*
X-4717705Y17103923D01*
X-4717705Y17103923D02*
X-4717705Y17027732D01*
X-4717705Y17027732D02*
X-4755800Y16913446D01*
X-4755800Y16913446D02*
X-4831991Y16837256D01*
X-4831991Y16837256D02*
X-4908181Y16799161D01*
X-4908181Y16799161D02*
X-5060562Y16761065D01*
X-5060562Y16761065D02*
X-5174848Y16761065D01*
X-5174848Y16761065D02*
X-5327229Y16799161D01*
X-5327229Y16799161D02*
X-5403420Y16837256D01*
X-5403420Y16837256D02*
X-5479610Y16913446D01*
X-5479610Y16913446D02*
X-5517705Y17027732D01*
X-5517705Y17027732D02*
X-5517705Y17103923D01*
X-5517705Y17103923D02*
X-5479610Y17218208D01*
X-5479610Y17218208D02*
X-5441515Y17256304D01*
X-4717705Y18018208D02*
X-4717705Y17561065D01*
X-4717705Y17789637D02*
X-5517705Y17789637D01*
X-5517705Y17789637D02*
X-5403420Y17713446D01*
X-5403420Y17713446D02*
X-5327229Y17637256D01*
X-5327229Y17637256D02*
X-5289134Y17561065D01*
X24238295Y12820715D02*
X23857342Y12554048D01*
X24238295Y12363572D02*
X23438295Y12363572D01*
X23438295Y12363572D02*
X23438295Y12668334D01*
X23438295Y12668334D02*
X23476390Y12744524D01*
X23476390Y12744524D02*
X23514485Y12782619D01*
X23514485Y12782619D02*
X23590676Y12820715D01*
X23590676Y12820715D02*
X23704961Y12820715D01*
X23704961Y12820715D02*
X23781152Y12782619D01*
X23781152Y12782619D02*
X23819247Y12744524D01*
X23819247Y12744524D02*
X23857342Y12668334D01*
X23857342Y12668334D02*
X23857342Y12363572D01*
X24238295Y13582619D02*
X24238295Y13125476D01*
X24238295Y13354048D02*
X23438295Y13354048D01*
X23438295Y13354048D02*
X23552580Y13277857D01*
X23552580Y13277857D02*
X23628771Y13201667D01*
X23628771Y13201667D02*
X23666866Y13125476D01*
X23438295Y13849286D02*
X23438295Y14344524D01*
X23438295Y14344524D02*
X23743057Y14077858D01*
X23743057Y14077858D02*
X23743057Y14192143D01*
X23743057Y14192143D02*
X23781152Y14268334D01*
X23781152Y14268334D02*
X23819247Y14306429D01*
X23819247Y14306429D02*
X23895438Y14344524D01*
X23895438Y14344524D02*
X24085914Y14344524D01*
X24085914Y14344524D02*
X24162104Y14306429D01*
X24162104Y14306429D02*
X24200200Y14268334D01*
X24200200Y14268334D02*
X24238295Y14192143D01*
X24238295Y14192143D02*
X24238295Y13963572D01*
X24238295Y13963572D02*
X24200200Y13887381D01*
X24200200Y13887381D02*
X24162104Y13849286D01*
X5200714Y9543705D02*
X4934047Y9924658D01*
X4743571Y9543705D02*
X4743571Y10343705D01*
X4743571Y10343705D02*
X5048333Y10343705D01*
X5048333Y10343705D02*
X5124523Y10305610D01*
X5124523Y10305610D02*
X5162618Y10267515D01*
X5162618Y10267515D02*
X5200714Y10191324D01*
X5200714Y10191324D02*
X5200714Y10077039D01*
X5200714Y10077039D02*
X5162618Y10000848D01*
X5162618Y10000848D02*
X5124523Y9962753D01*
X5124523Y9962753D02*
X5048333Y9924658D01*
X5048333Y9924658D02*
X4743571Y9924658D01*
X5962618Y9543705D02*
X5505475Y9543705D01*
X5734047Y9543705D02*
X5734047Y10343705D01*
X5734047Y10343705D02*
X5657856Y10229420D01*
X5657856Y10229420D02*
X5581666Y10153229D01*
X5581666Y10153229D02*
X5505475Y10115134D01*
X6267380Y10267515D02*
X6305476Y10305610D01*
X6305476Y10305610D02*
X6381666Y10343705D01*
X6381666Y10343705D02*
X6572142Y10343705D01*
X6572142Y10343705D02*
X6648333Y10305610D01*
X6648333Y10305610D02*
X6686428Y10267515D01*
X6686428Y10267515D02*
X6724523Y10191324D01*
X6724523Y10191324D02*
X6724523Y10115134D01*
X6724523Y10115134D02*
X6686428Y10000848D01*
X6686428Y10000848D02*
X6229285Y9543705D01*
X6229285Y9543705D02*
X6724523Y9543705D01*
X16237295Y13582668D02*
X15856342Y13316001D01*
X16237295Y13125525D02*
X15437295Y13125525D01*
X15437295Y13125525D02*
X15437295Y13430287D01*
X15437295Y13430287D02*
X15475390Y13506477D01*
X15475390Y13506477D02*
X15513485Y13544572D01*
X15513485Y13544572D02*
X15589676Y13582668D01*
X15589676Y13582668D02*
X15703961Y13582668D01*
X15703961Y13582668D02*
X15780152Y13544572D01*
X15780152Y13544572D02*
X15818247Y13506477D01*
X15818247Y13506477D02*
X15856342Y13430287D01*
X15856342Y13430287D02*
X15856342Y13125525D01*
X16237295Y14344572D02*
X16237295Y13887429D01*
X16237295Y14116001D02*
X15437295Y14116001D01*
X15437295Y14116001D02*
X15551580Y14039810D01*
X15551580Y14039810D02*
X15627771Y13963620D01*
X15627771Y13963620D02*
X15665866Y13887429D01*
X-5594333Y11067705D02*
X-5861000Y11448658D01*
X-6051476Y11067705D02*
X-6051476Y11867705D01*
X-6051476Y11867705D02*
X-5746714Y11867705D01*
X-5746714Y11867705D02*
X-5670524Y11829610D01*
X-5670524Y11829610D02*
X-5632429Y11791515D01*
X-5632429Y11791515D02*
X-5594333Y11715324D01*
X-5594333Y11715324D02*
X-5594333Y11601039D01*
X-5594333Y11601039D02*
X-5632429Y11524848D01*
X-5632429Y11524848D02*
X-5670524Y11486753D01*
X-5670524Y11486753D02*
X-5746714Y11448658D01*
X-5746714Y11448658D02*
X-6051476Y11448658D01*
X-5327667Y11867705D02*
X-4794333Y11867705D01*
X-4794333Y11867705D02*
X-5137191Y11067705D01*
X4731104Y11941031D02*
X4769200Y11902935D01*
X4769200Y11902935D02*
X4807295Y11788650D01*
X4807295Y11788650D02*
X4807295Y11712459D01*
X4807295Y11712459D02*
X4769200Y11598173D01*
X4769200Y11598173D02*
X4693009Y11521983D01*
X4693009Y11521983D02*
X4616819Y11483888D01*
X4616819Y11483888D02*
X4464438Y11445792D01*
X4464438Y11445792D02*
X4350152Y11445792D01*
X4350152Y11445792D02*
X4197771Y11483888D01*
X4197771Y11483888D02*
X4121580Y11521983D01*
X4121580Y11521983D02*
X4045390Y11598173D01*
X4045390Y11598173D02*
X4007295Y11712459D01*
X4007295Y11712459D02*
X4007295Y11788650D01*
X4007295Y11788650D02*
X4045390Y11902935D01*
X4045390Y11902935D02*
X4083485Y11941031D01*
X4007295Y12207697D02*
X4007295Y12741031D01*
X4007295Y12741031D02*
X4807295Y12398173D01*
X20047295Y13582668D02*
X19666342Y13316001D01*
X20047295Y13125525D02*
X19247295Y13125525D01*
X19247295Y13125525D02*
X19247295Y13430287D01*
X19247295Y13430287D02*
X19285390Y13506477D01*
X19285390Y13506477D02*
X19323485Y13544572D01*
X19323485Y13544572D02*
X19399676Y13582668D01*
X19399676Y13582668D02*
X19513961Y13582668D01*
X19513961Y13582668D02*
X19590152Y13544572D01*
X19590152Y13544572D02*
X19628247Y13506477D01*
X19628247Y13506477D02*
X19666342Y13430287D01*
X19666342Y13430287D02*
X19666342Y13125525D01*
X19323485Y13887429D02*
X19285390Y13925525D01*
X19285390Y13925525D02*
X19247295Y14001715D01*
X19247295Y14001715D02*
X19247295Y14192191D01*
X19247295Y14192191D02*
X19285390Y14268382D01*
X19285390Y14268382D02*
X19323485Y14306477D01*
X19323485Y14306477D02*
X19399676Y14344572D01*
X19399676Y14344572D02*
X19475866Y14344572D01*
X19475866Y14344572D02*
X19590152Y14306477D01*
X19590152Y14306477D02*
X20047295Y13849334D01*
X20047295Y13849334D02*
X20047295Y14344572D01*
X-5340333Y9797705D02*
X-5607000Y10178658D01*
X-5797476Y9797705D02*
X-5797476Y10597705D01*
X-5797476Y10597705D02*
X-5492714Y10597705D01*
X-5492714Y10597705D02*
X-5416524Y10559610D01*
X-5416524Y10559610D02*
X-5378429Y10521515D01*
X-5378429Y10521515D02*
X-5340333Y10445324D01*
X-5340333Y10445324D02*
X-5340333Y10331039D01*
X-5340333Y10331039D02*
X-5378429Y10254848D01*
X-5378429Y10254848D02*
X-5416524Y10216753D01*
X-5416524Y10216753D02*
X-5492714Y10178658D01*
X-5492714Y10178658D02*
X-5797476Y10178658D01*
X-4654619Y10597705D02*
X-4807000Y10597705D01*
X-4807000Y10597705D02*
X-4883191Y10559610D01*
X-4883191Y10559610D02*
X-4921286Y10521515D01*
X-4921286Y10521515D02*
X-4997476Y10407229D01*
X-4997476Y10407229D02*
X-5035572Y10254848D01*
X-5035572Y10254848D02*
X-5035572Y9950086D01*
X-5035572Y9950086D02*
X-4997476Y9873896D01*
X-4997476Y9873896D02*
X-4959381Y9835800D01*
X-4959381Y9835800D02*
X-4883191Y9797705D01*
X-4883191Y9797705D02*
X-4730810Y9797705D01*
X-4730810Y9797705D02*
X-4654619Y9835800D01*
X-4654619Y9835800D02*
X-4616524Y9873896D01*
X-4616524Y9873896D02*
X-4578429Y9950086D01*
X-4578429Y9950086D02*
X-4578429Y10140562D01*
X-4578429Y10140562D02*
X-4616524Y10216753D01*
X-4616524Y10216753D02*
X-4654619Y10254848D01*
X-4654619Y10254848D02*
X-4730810Y10292943D01*
X-4730810Y10292943D02*
X-4883191Y10292943D01*
X-4883191Y10292943D02*
X-4959381Y10254848D01*
X-4959381Y10254848D02*
X-4997476Y10216753D01*
X-4997476Y10216753D02*
X-5035572Y10140562D01*
G04 #@! TO.C,CN1*
X-3200000Y17266667D02*
X-2800000Y17266667D01*
X-3000000Y17566667D02*
X-3200000Y17266667D01*
X-2900000Y17416667D02*
X-3100000Y17416667D01*
X-2800000Y17266667D02*
X-3000000Y17566667D01*
D11*
G04 #@! TO.C,LOGO1*
X20427534Y27508148D02*
X20466593Y27476777D01*
X20516262Y27424479D01*
X20539658Y27364998D01*
X20545765Y27274647D01*
X20545778Y27268073D01*
X20528945Y27138267D01*
X20478161Y27053316D01*
X20392998Y27012665D01*
X20345897Y27008666D01*
X20255536Y27028912D01*
X20195049Y27083028D01*
X20145825Y27190279D01*
X20136556Y27278075D01*
X20144784Y27366449D01*
X20178069Y27428485D01*
X20223388Y27471824D01*
X20301159Y27527463D01*
X20362815Y27539440D01*
X20427534Y27508148D01*
G36*
X20427534Y27508148D02*
G01*
X20466593Y27476777D01*
X20516262Y27424479D01*
X20539658Y27364998D01*
X20545765Y27274647D01*
X20545778Y27268073D01*
X20528945Y27138267D01*
X20478161Y27053316D01*
X20392998Y27012665D01*
X20345897Y27008666D01*
X20255536Y27028912D01*
X20195049Y27083028D01*
X20145825Y27190279D01*
X20136556Y27278075D01*
X20144784Y27366449D01*
X20178069Y27428485D01*
X20223388Y27471824D01*
X20301159Y27527463D01*
X20362815Y27539440D01*
X20427534Y27508148D01*
G37*
X21061714Y27676572D02*
X21112144Y27653795D01*
X21237222Y27591328D01*
X21237222Y27389368D01*
X21233234Y27270653D01*
X21220760Y27203386D01*
X21201945Y27183175D01*
X21150587Y27175029D01*
X21077398Y27161517D01*
X21021413Y27156896D01*
X20970802Y27173326D01*
X20908835Y27218618D01*
X20858202Y27263855D01*
X20763329Y27362051D01*
X20716018Y27442276D01*
X20714042Y27513150D01*
X20755173Y27583291D01*
X20771128Y27600887D01*
X20863040Y27675682D01*
X20955230Y27700186D01*
X21061714Y27676572D01*
G36*
X21061714Y27676572D02*
G01*
X21112144Y27653795D01*
X21237222Y27591328D01*
X21237222Y27389368D01*
X21233234Y27270653D01*
X21220760Y27203386D01*
X21201945Y27183175D01*
X21150587Y27175029D01*
X21077398Y27161517D01*
X21021413Y27156896D01*
X20970802Y27173326D01*
X20908835Y27218618D01*
X20858202Y27263855D01*
X20763329Y27362051D01*
X20716018Y27442276D01*
X20714042Y27513150D01*
X20755173Y27583291D01*
X20771128Y27600887D01*
X20863040Y27675682D01*
X20955230Y27700186D01*
X21061714Y27676572D01*
G37*
X15339238Y28637439D02*
X15394970Y28589347D01*
X15485354Y28504916D01*
X15475566Y28239476D01*
X15468281Y28104645D01*
X15456659Y28013676D01*
X15438244Y27954017D01*
X15412015Y27914684D01*
X15331562Y27863169D01*
X15237897Y27856948D01*
X15150150Y27895055D01*
X15115049Y27929695D01*
X15086470Y27974395D01*
X15068855Y28029239D01*
X15059741Y28108370D01*
X15056669Y28225931D01*
X15056556Y28265853D01*
X15057303Y28389162D01*
X15061927Y28469802D01*
X15073999Y28521546D01*
X15097090Y28558166D01*
X15134772Y28593438D01*
X15143388Y28600713D01*
X15218562Y28655306D01*
X15277565Y28667832D01*
X15339238Y28637439D01*
G36*
X15339238Y28637439D02*
G01*
X15394970Y28589347D01*
X15485354Y28504916D01*
X15475566Y28239476D01*
X15468281Y28104645D01*
X15456659Y28013676D01*
X15438244Y27954017D01*
X15412015Y27914684D01*
X15331562Y27863169D01*
X15237897Y27856948D01*
X15150150Y27895055D01*
X15115049Y27929695D01*
X15086470Y27974395D01*
X15068855Y28029239D01*
X15059741Y28108370D01*
X15056669Y28225931D01*
X15056556Y28265853D01*
X15057303Y28389162D01*
X15061927Y28469802D01*
X15073999Y28521546D01*
X15097090Y28558166D01*
X15134772Y28593438D01*
X15143388Y28600713D01*
X15218562Y28655306D01*
X15277565Y28667832D01*
X15339238Y28637439D01*
G37*
X16024172Y30907847D02*
X16109787Y30843292D01*
X16168610Y30763171D01*
X16185445Y30695169D01*
X16203978Y30648960D01*
X16252830Y30577898D01*
X16321873Y30496509D01*
X16330005Y30487824D01*
X16404082Y30407201D01*
X16446034Y30350472D01*
X16463441Y30301412D01*
X16463882Y30243796D01*
X16460343Y30208785D01*
X16428246Y30082515D01*
X16365838Y30003728D01*
X16273235Y29972560D01*
X16256396Y29972000D01*
X16207259Y29978825D01*
X16155811Y30004185D01*
X16091760Y30055406D01*
X16004816Y30139812D01*
X15968946Y30176611D01*
X15881936Y30272599D01*
X15809895Y30363213D01*
X15762771Y30435367D01*
X15750760Y30463661D01*
X15716998Y30548900D01*
X15675695Y30615634D01*
X15636492Y30679889D01*
X15621000Y30732526D01*
X15643024Y30786273D01*
X15697852Y30850392D01*
X15768619Y30908442D01*
X15837651Y30943740D01*
X15928036Y30945207D01*
X16024172Y30907847D01*
G36*
X16024172Y30907847D02*
G01*
X16109787Y30843292D01*
X16168610Y30763171D01*
X16185445Y30695169D01*
X16203978Y30648960D01*
X16252830Y30577898D01*
X16321873Y30496509D01*
X16330005Y30487824D01*
X16404082Y30407201D01*
X16446034Y30350472D01*
X16463441Y30301412D01*
X16463882Y30243796D01*
X16460343Y30208785D01*
X16428246Y30082515D01*
X16365838Y30003728D01*
X16273235Y29972560D01*
X16256396Y29972000D01*
X16207259Y29978825D01*
X16155811Y30004185D01*
X16091760Y30055406D01*
X16004816Y30139812D01*
X15968946Y30176611D01*
X15881936Y30272599D01*
X15809895Y30363213D01*
X15762771Y30435367D01*
X15750760Y30463661D01*
X15716998Y30548900D01*
X15675695Y30615634D01*
X15636492Y30679889D01*
X15621000Y30732526D01*
X15643024Y30786273D01*
X15697852Y30850392D01*
X15768619Y30908442D01*
X15837651Y30943740D01*
X15928036Y30945207D01*
X16024172Y30907847D01*
G37*
X17295215Y29358897D02*
X17365895Y29304712D01*
X17450597Y29227463D01*
X17538929Y29137835D01*
X17620498Y29046512D01*
X17684910Y28964179D01*
X17721774Y28901521D01*
X17725691Y28889202D01*
X17758097Y28805014D01*
X17809828Y28723474D01*
X17811876Y28721001D01*
X17864230Y28646358D01*
X17873062Y28585977D01*
X17839139Y28519131D01*
X17820285Y28494139D01*
X17775504Y28448646D01*
X17720947Y28426458D01*
X17635394Y28419893D01*
X17614898Y28419778D01*
X17510025Y28428496D01*
X17427353Y28451284D01*
X17407440Y28462198D01*
X17358701Y28516958D01*
X17317515Y28596487D01*
X17312637Y28610365D01*
X17274285Y28689038D01*
X17210682Y28782641D01*
X17155255Y28848957D01*
X17085572Y28929550D01*
X17048292Y28992551D01*
X17033827Y29058088D01*
X17032111Y29107504D01*
X17039281Y29196372D01*
X17068796Y29257245D01*
X17118943Y29306269D01*
X17184846Y29353187D01*
X17239621Y29378107D01*
X17248951Y29379333D01*
X17295215Y29358897D01*
G36*
X17295215Y29358897D02*
G01*
X17365895Y29304712D01*
X17450597Y29227463D01*
X17538929Y29137835D01*
X17620498Y29046512D01*
X17684910Y28964179D01*
X17721774Y28901521D01*
X17725691Y28889202D01*
X17758097Y28805014D01*
X17809828Y28723474D01*
X17811876Y28721001D01*
X17864230Y28646358D01*
X17873062Y28585977D01*
X17839139Y28519131D01*
X17820285Y28494139D01*
X17775504Y28448646D01*
X17720947Y28426458D01*
X17635394Y28419893D01*
X17614898Y28419778D01*
X17510025Y28428496D01*
X17427353Y28451284D01*
X17407440Y28462198D01*
X17358701Y28516958D01*
X17317515Y28596487D01*
X17312637Y28610365D01*
X17274285Y28689038D01*
X17210682Y28782641D01*
X17155255Y28848957D01*
X17085572Y28929550D01*
X17048292Y28992551D01*
X17033827Y29058088D01*
X17032111Y29107504D01*
X17039281Y29196372D01*
X17068796Y29257245D01*
X17118943Y29306269D01*
X17184846Y29353187D01*
X17239621Y29378107D01*
X17248951Y29379333D01*
X17295215Y29358897D01*
G37*
X19736990Y26933907D02*
X19808291Y26870304D01*
X19882059Y26791072D01*
X19945749Y26710396D01*
X19986820Y26642457D01*
X19995445Y26611783D01*
X20013053Y26550888D01*
X20056389Y26479284D01*
X20066000Y26467297D01*
X20112070Y26401386D01*
X20135723Y26345733D01*
X20136556Y26337740D01*
X20151872Y26287859D01*
X20190438Y26215995D01*
X20210445Y26185411D01*
X20251439Y26118666D01*
X20271827Y26056245D01*
X20276402Y25975885D01*
X20272710Y25896214D01*
X20253012Y25754912D01*
X20212581Y25661837D01*
X20147447Y25611320D01*
X20063674Y25597555D01*
X19971579Y25618664D01*
X19914778Y25669436D01*
X19867417Y25748650D01*
X19840360Y25822708D01*
X19814456Y25893251D01*
X19783407Y25936530D01*
X19749318Y25983824D01*
X19715930Y26058288D01*
X19711098Y26072535D01*
X19679115Y26152869D01*
X19644133Y26214454D01*
X19639451Y26220277D01*
X19604115Y26276980D01*
X19570132Y26355125D01*
X19567947Y26361388D01*
X19529637Y26449017D01*
X19483513Y26524877D01*
X19482928Y26525639D01*
X19443335Y26613740D01*
X19431000Y26714703D01*
X19437774Y26799463D01*
X19467337Y26856818D01*
X19528438Y26910780D01*
X19617007Y26962385D01*
X19680697Y26967699D01*
X19736990Y26933907D01*
G36*
X19736990Y26933907D02*
G01*
X19808291Y26870304D01*
X19882059Y26791072D01*
X19945749Y26710396D01*
X19986820Y26642457D01*
X19995445Y26611783D01*
X20013053Y26550888D01*
X20056389Y26479284D01*
X20066000Y26467297D01*
X20112070Y26401386D01*
X20135723Y26345733D01*
X20136556Y26337740D01*
X20151872Y26287859D01*
X20190438Y26215995D01*
X20210445Y26185411D01*
X20251439Y26118666D01*
X20271827Y26056245D01*
X20276402Y25975885D01*
X20272710Y25896214D01*
X20253012Y25754912D01*
X20212581Y25661837D01*
X20147447Y25611320D01*
X20063674Y25597555D01*
X19971579Y25618664D01*
X19914778Y25669436D01*
X19867417Y25748650D01*
X19840360Y25822708D01*
X19814456Y25893251D01*
X19783407Y25936530D01*
X19749318Y25983824D01*
X19715930Y26058288D01*
X19711098Y26072535D01*
X19679115Y26152869D01*
X19644133Y26214454D01*
X19639451Y26220277D01*
X19604115Y26276980D01*
X19570132Y26355125D01*
X19567947Y26361388D01*
X19529637Y26449017D01*
X19483513Y26524877D01*
X19482928Y26525639D01*
X19443335Y26613740D01*
X19431000Y26714703D01*
X19437774Y26799463D01*
X19467337Y26856818D01*
X19528438Y26910780D01*
X19617007Y26962385D01*
X19680697Y26967699D01*
X19736990Y26933907D01*
G37*
X16025215Y29782230D02*
X16095895Y29728045D01*
X16180597Y29650796D01*
X16268929Y29561168D01*
X16350498Y29469845D01*
X16414910Y29387512D01*
X16451774Y29324854D01*
X16455691Y29312536D01*
X16488097Y29228348D01*
X16539828Y29146807D01*
X16541876Y29144334D01*
X16598908Y29035628D01*
X16608778Y28955088D01*
X16635710Y28823790D01*
X16681501Y28738531D01*
X16712590Y28689647D01*
X16732863Y28643751D01*
X16744185Y28587992D01*
X16748418Y28509523D01*
X16747429Y28395494D01*
X16745001Y28300955D01*
X16735778Y27970467D01*
X16612619Y27845057D01*
X16500750Y27751808D01*
X16390637Y27708285D01*
X16268184Y27710041D01*
X16218717Y27720810D01*
X16134338Y27763146D01*
X16070518Y27831678D01*
X16044358Y27907851D01*
X16044334Y27910032D01*
X16063044Y27950730D01*
X16111896Y28015541D01*
X16174474Y28084299D01*
X16251280Y28169413D01*
X16294553Y28240756D01*
X16315611Y28318824D01*
X16319279Y28346532D01*
X16322404Y28443404D01*
X16299793Y28519968D01*
X16262350Y28582264D01*
X16212586Y28669990D01*
X16177334Y28757590D01*
X16172175Y28777661D01*
X16147486Y28850774D01*
X16114519Y28899863D01*
X16080371Y28947134D01*
X16046813Y29021564D01*
X16041921Y29035868D01*
X16004031Y29113240D01*
X15940813Y29205920D01*
X15885255Y29272291D01*
X15815572Y29352884D01*
X15778292Y29415884D01*
X15763827Y29481421D01*
X15762111Y29530838D01*
X15769281Y29619705D01*
X15798796Y29680579D01*
X15848943Y29729602D01*
X15914846Y29776520D01*
X15969621Y29801441D01*
X15978951Y29802666D01*
X16025215Y29782230D01*
G36*
X16025215Y29782230D02*
G01*
X16095895Y29728045D01*
X16180597Y29650796D01*
X16268929Y29561168D01*
X16350498Y29469845D01*
X16414910Y29387512D01*
X16451774Y29324854D01*
X16455691Y29312536D01*
X16488097Y29228348D01*
X16539828Y29146807D01*
X16541876Y29144334D01*
X16598908Y29035628D01*
X16608778Y28955088D01*
X16635710Y28823790D01*
X16681501Y28738531D01*
X16712590Y28689647D01*
X16732863Y28643751D01*
X16744185Y28587992D01*
X16748418Y28509523D01*
X16747429Y28395494D01*
X16745001Y28300955D01*
X16735778Y27970467D01*
X16612619Y27845057D01*
X16500750Y27751808D01*
X16390637Y27708285D01*
X16268184Y27710041D01*
X16218717Y27720810D01*
X16134338Y27763146D01*
X16070518Y27831678D01*
X16044358Y27907851D01*
X16044334Y27910032D01*
X16063044Y27950730D01*
X16111896Y28015541D01*
X16174474Y28084299D01*
X16251280Y28169413D01*
X16294553Y28240756D01*
X16315611Y28318824D01*
X16319279Y28346532D01*
X16322404Y28443404D01*
X16299793Y28519968D01*
X16262350Y28582264D01*
X16212586Y28669990D01*
X16177334Y28757590D01*
X16172175Y28777661D01*
X16147486Y28850774D01*
X16114519Y28899863D01*
X16080371Y28947134D01*
X16046813Y29021564D01*
X16041921Y29035868D01*
X16004031Y29113240D01*
X15940813Y29205920D01*
X15885255Y29272291D01*
X15815572Y29352884D01*
X15778292Y29415884D01*
X15763827Y29481421D01*
X15762111Y29530838D01*
X15769281Y29619705D01*
X15798796Y29680579D01*
X15848943Y29729602D01*
X15914846Y29776520D01*
X15969621Y29801441D01*
X15978951Y29802666D01*
X16025215Y29782230D01*
G37*
X18608208Y27419989D02*
X18704941Y27382796D01*
X18790010Y27321669D01*
X18823591Y27281702D01*
X18849795Y27218717D01*
X18841807Y27152382D01*
X18795837Y27074156D01*
X18708095Y26975501D01*
X18671551Y26939172D01*
X18600543Y26866292D01*
X18549192Y26806613D01*
X18527975Y26772376D01*
X18527889Y26771325D01*
X18546777Y26742685D01*
X18598916Y26681738D01*
X18677521Y26595965D01*
X18775808Y26492847D01*
X18840222Y26426962D01*
X19152554Y26110395D01*
X19143611Y25629323D01*
X19134667Y25148252D01*
X19008846Y25020126D01*
X18883026Y24892000D01*
X18651061Y24892000D01*
X18535067Y24893303D01*
X18460979Y24899691D01*
X18414278Y24914882D01*
X18380444Y24942593D01*
X18360604Y24966361D01*
X18319846Y25031647D01*
X18302135Y25086708D01*
X18302111Y25088081D01*
X18325583Y25147165D01*
X18385135Y25213151D01*
X18464475Y25271897D01*
X18547310Y25309260D01*
X18560604Y25312475D01*
X18638010Y25342435D01*
X18688080Y25399990D01*
X18714336Y25493258D01*
X18720301Y25630354D01*
X18718838Y25677125D01*
X18710039Y25883695D01*
X18495523Y26093403D01*
X18403016Y26179940D01*
X18321491Y26249108D01*
X18261313Y26292512D01*
X18236545Y26303111D01*
X18184290Y26280819D01*
X18120327Y26224743D01*
X18059171Y26151079D01*
X18015338Y26076028D01*
X18004754Y26044450D01*
X17978456Y25975484D01*
X17948963Y25935915D01*
X17914874Y25888620D01*
X17881486Y25814156D01*
X17876654Y25799909D01*
X17843052Y25717501D01*
X17804593Y25652253D01*
X17799869Y25646490D01*
X17771718Y25591209D01*
X17746410Y25503068D01*
X17734974Y25439357D01*
X17704490Y25305745D01*
X17653658Y25221022D01*
X17578355Y25180017D01*
X17523674Y25174222D01*
X17438092Y25188047D01*
X17377511Y25233582D01*
X17338812Y25316920D01*
X17318874Y25444152D01*
X17314334Y25582876D01*
X17316009Y25710463D01*
X17322544Y25794449D01*
X17336205Y25847615D01*
X17359255Y25882745D01*
X17369178Y25892441D01*
X17414758Y25956241D01*
X17442571Y26030871D01*
X17472567Y26100606D01*
X17529914Y26185213D01*
X17576932Y26239494D01*
X17643732Y26314632D01*
X17664927Y26363971D01*
X17637543Y26398438D01*
X17558603Y26428963D01*
X17522468Y26439542D01*
X17438930Y26478680D01*
X17348930Y26544348D01*
X17265838Y26623535D01*
X17203028Y26703230D01*
X17173871Y26770425D01*
X17173222Y26779335D01*
X17195915Y26835449D01*
X17252627Y26900862D01*
X17326311Y26960831D01*
X17399919Y27000609D01*
X17438377Y27008666D01*
X17501159Y26993102D01*
X17581887Y26953927D01*
X17613784Y26933830D01*
X17716933Y26881266D01*
X17823483Y26855680D01*
X17918369Y26858012D01*
X17986526Y26889204D01*
X18002689Y26909536D01*
X18045215Y26969049D01*
X18115266Y27050104D01*
X18202457Y27142453D01*
X18296403Y27235844D01*
X18386719Y27320029D01*
X18463019Y27384756D01*
X18514918Y27419776D01*
X18522539Y27422610D01*
X18608208Y27419989D01*
G36*
X18608208Y27419989D02*
G01*
X18704941Y27382796D01*
X18790010Y27321669D01*
X18823591Y27281702D01*
X18849795Y27218717D01*
X18841807Y27152382D01*
X18795837Y27074156D01*
X18708095Y26975501D01*
X18671551Y26939172D01*
X18600543Y26866292D01*
X18549192Y26806613D01*
X18527975Y26772376D01*
X18527889Y26771325D01*
X18546777Y26742685D01*
X18598916Y26681738D01*
X18677521Y26595965D01*
X18775808Y26492847D01*
X18840222Y26426962D01*
X19152554Y26110395D01*
X19143611Y25629323D01*
X19134667Y25148252D01*
X19008846Y25020126D01*
X18883026Y24892000D01*
X18651061Y24892000D01*
X18535067Y24893303D01*
X18460979Y24899691D01*
X18414278Y24914882D01*
X18380444Y24942593D01*
X18360604Y24966361D01*
X18319846Y25031647D01*
X18302135Y25086708D01*
X18302111Y25088081D01*
X18325583Y25147165D01*
X18385135Y25213151D01*
X18464475Y25271897D01*
X18547310Y25309260D01*
X18560604Y25312475D01*
X18638010Y25342435D01*
X18688080Y25399990D01*
X18714336Y25493258D01*
X18720301Y25630354D01*
X18718838Y25677125D01*
X18710039Y25883695D01*
X18495523Y26093403D01*
X18403016Y26179940D01*
X18321491Y26249108D01*
X18261313Y26292512D01*
X18236545Y26303111D01*
X18184290Y26280819D01*
X18120327Y26224743D01*
X18059171Y26151079D01*
X18015338Y26076028D01*
X18004754Y26044450D01*
X17978456Y25975484D01*
X17948963Y25935915D01*
X17914874Y25888620D01*
X17881486Y25814156D01*
X17876654Y25799909D01*
X17843052Y25717501D01*
X17804593Y25652253D01*
X17799869Y25646490D01*
X17771718Y25591209D01*
X17746410Y25503068D01*
X17734974Y25439357D01*
X17704490Y25305745D01*
X17653658Y25221022D01*
X17578355Y25180017D01*
X17523674Y25174222D01*
X17438092Y25188047D01*
X17377511Y25233582D01*
X17338812Y25316920D01*
X17318874Y25444152D01*
X17314334Y25582876D01*
X17316009Y25710463D01*
X17322544Y25794449D01*
X17336205Y25847615D01*
X17359255Y25882745D01*
X17369178Y25892441D01*
X17414758Y25956241D01*
X17442571Y26030871D01*
X17472567Y26100606D01*
X17529914Y26185213D01*
X17576932Y26239494D01*
X17643732Y26314632D01*
X17664927Y26363971D01*
X17637543Y26398438D01*
X17558603Y26428963D01*
X17522468Y26439542D01*
X17438930Y26478680D01*
X17348930Y26544348D01*
X17265838Y26623535D01*
X17203028Y26703230D01*
X17173871Y26770425D01*
X17173222Y26779335D01*
X17195915Y26835449D01*
X17252627Y26900862D01*
X17326311Y26960831D01*
X17399919Y27000609D01*
X17438377Y27008666D01*
X17501159Y26993102D01*
X17581887Y26953927D01*
X17613784Y26933830D01*
X17716933Y26881266D01*
X17823483Y26855680D01*
X17918369Y26858012D01*
X17986526Y26889204D01*
X18002689Y26909536D01*
X18045215Y26969049D01*
X18115266Y27050104D01*
X18202457Y27142453D01*
X18296403Y27235844D01*
X18386719Y27320029D01*
X18463019Y27384756D01*
X18514918Y27419776D01*
X18522539Y27422610D01*
X18608208Y27419989D01*
G37*
D10*
G04 #@! TO.C,J1*
X-7620000Y6985000D02*
X-6985000Y7620000D01*
X-7620000Y3175000D02*
X-7620000Y6985000D01*
X-6985000Y7620000D02*
X-5715000Y7620000D01*
X-6985000Y2540000D02*
X-7620000Y3175000D01*
X-5715000Y7620000D02*
X-5080000Y6985000D01*
X-5715000Y2540000D02*
X-6985000Y2540000D01*
X-5080000Y6985000D02*
X-4445000Y7620000D01*
X-5080000Y3175000D02*
X-5715000Y2540000D01*
X-4445000Y7620000D02*
X-3175000Y7620000D01*
X-4445000Y2540000D02*
X-5080000Y3175000D01*
X-3175000Y7620000D02*
X-2540000Y6985000D01*
X-3175000Y2540000D02*
X-4445000Y2540000D01*
X-2540000Y6985000D02*
X-1905000Y7620000D01*
X-2540000Y3175000D02*
X-3175000Y2540000D01*
X-1905000Y7620000D02*
X-635000Y7620000D01*
X-1905000Y2540000D02*
X-2540000Y3175000D01*
X-635000Y7620000D02*
X0Y6985000D01*
X-635000Y2540000D02*
X-1905000Y2540000D01*
X0Y6985000D02*
X635000Y7620000D01*
X0Y3175000D02*
X-635000Y2540000D01*
X635000Y7620000D02*
X1905000Y7620000D01*
X635000Y2540000D02*
X0Y3175000D01*
X1905000Y7620000D02*
X2540000Y6985000D01*
X1905000Y2540000D02*
X635000Y2540000D01*
X2540000Y6985000D02*
X3175000Y7620000D01*
X2540000Y3175000D02*
X1905000Y2540000D01*
X3175000Y7620000D02*
X4445000Y7620000D01*
X3175000Y2540000D02*
X2540000Y3175000D01*
X4445000Y7620000D02*
X5080000Y6985000D01*
X4445000Y2540000D02*
X3175000Y2540000D01*
X5080000Y6985000D02*
X5715000Y7620000D01*
X5080000Y3175000D02*
X4445000Y2540000D01*
X5715000Y7620000D02*
X6985000Y7620000D01*
X5715000Y2540000D02*
X5080000Y3175000D01*
X6985000Y7620000D02*
X7620000Y6985000D01*
X6985000Y2540000D02*
X5715000Y2540000D01*
X7620000Y6985000D02*
X7620000Y3175000D01*
X7620000Y3175000D02*
X6985000Y2540000D01*
D12*
G04 #@! TO.C,C10*
X17928000Y10532164D02*
X17928000Y10747836D01*
X18648000Y10532164D02*
X18648000Y10747836D01*
G04 #@! TO.C,R14*
X21210000Y9807641D02*
X21210000Y9500359D01*
X21970000Y9807641D02*
X21970000Y9500359D01*
G04 #@! TO.C,C4*
X-860000Y13412164D02*
X-860000Y13627836D01*
X-140000Y13412164D02*
X-140000Y13627836D01*
G04 #@! TO.C,R10*
X1171641Y9524000D02*
X864359Y9524000D01*
X1171641Y8764000D02*
X864359Y8764000D01*
G04 #@! TO.C,C8*
X2140000Y13412164D02*
X2140000Y13627836D01*
X2860000Y13412164D02*
X2860000Y13627836D01*
G04 #@! TO.C,R3*
X16610359Y9526000D02*
X16917641Y9526000D01*
X16610359Y8766000D02*
X16917641Y8766000D01*
G04 #@! TO.C,R11*
X1368359Y11048000D02*
X1675641Y11048000D01*
X1368359Y10288000D02*
X1675641Y10288000D01*
D10*
G04 #@! TO.C,J2*
X15240000Y6985000D02*
X15875000Y7620000D01*
X15240000Y3175000D02*
X15240000Y6985000D01*
X15875000Y7620000D02*
X17145000Y7620000D01*
X15875000Y2540000D02*
X15240000Y3175000D01*
X17145000Y7620000D02*
X17780000Y6985000D01*
X17145000Y2540000D02*
X15875000Y2540000D01*
X17780000Y6985000D02*
X18415000Y7620000D01*
X17780000Y3175000D02*
X17145000Y2540000D01*
X18415000Y7620000D02*
X19685000Y7620000D01*
X18415000Y2540000D02*
X17780000Y3175000D01*
X19685000Y7620000D02*
X20320000Y6985000D01*
X19685000Y2540000D02*
X18415000Y2540000D01*
X20320000Y6985000D02*
X20955000Y7620000D01*
X20320000Y3175000D02*
X19685000Y2540000D01*
X20955000Y7620000D02*
X22225000Y7620000D01*
X20955000Y2540000D02*
X20320000Y3175000D01*
X22225000Y7620000D02*
X22860000Y6985000D01*
X22225000Y2540000D02*
X20955000Y2540000D01*
X22860000Y6985000D02*
X23495000Y7620000D01*
X22860000Y3175000D02*
X22225000Y2540000D01*
X23495000Y7620000D02*
X24765000Y7620000D01*
X23495000Y2540000D02*
X22860000Y3175000D01*
X24765000Y7620000D02*
X25400000Y6985000D01*
X24765000Y2540000D02*
X23495000Y2540000D01*
X25400000Y6985000D02*
X26035000Y7620000D01*
X25400000Y3175000D02*
X24765000Y2540000D01*
X26035000Y7620000D02*
X27305000Y7620000D01*
X26035000Y2540000D02*
X25400000Y3175000D01*
X27305000Y7620000D02*
X27940000Y6985000D01*
X27305000Y2540000D02*
X26035000Y2540000D01*
X27940000Y6985000D02*
X28575000Y7620000D01*
X27940000Y3175000D02*
X27305000Y2540000D01*
X28575000Y7620000D02*
X29845000Y7620000D01*
X28575000Y2540000D02*
X27940000Y3175000D01*
X29845000Y7620000D02*
X30480000Y6985000D01*
X29845000Y2540000D02*
X28575000Y2540000D01*
X30480000Y6985000D02*
X30480000Y3175000D01*
X30480000Y3175000D02*
X29845000Y2540000D01*
D12*
G04 #@! TO.C,C2*
X-2360000Y15372164D02*
X-2360000Y15587836D01*
X-1640000Y15372164D02*
X-1640000Y15587836D01*
G04 #@! TO.C,R4*
X18951641Y9524000D02*
X18644359Y9524000D01*
X18951641Y8764000D02*
X18644359Y8764000D01*
G04 #@! TO.C,R5*
X-6251641Y9524000D02*
X-5944359Y9524000D01*
X-6251641Y8764000D02*
X-5944359Y8764000D01*
G04 #@! TO.C,R8*
X-1368359Y11048000D02*
X-1675641Y11048000D01*
X-1368359Y10288000D02*
X-1675641Y10288000D01*
G04 #@! TO.C,C6*
X640000Y15372164D02*
X640000Y15587836D01*
X1360000Y15372164D02*
X1360000Y15587836D01*
G04 #@! TO.C,C9*
X16912000Y10532164D02*
X16912000Y10747836D01*
X17632000Y10532164D02*
X17632000Y10747836D01*
G04 #@! TO.C,R9*
X-1171641Y9524000D02*
X-864359Y9524000D01*
X-1171641Y8764000D02*
X-864359Y8764000D01*
G04 #@! TO.C,C5*
X-360000Y15372164D02*
X-360000Y15587836D01*
X360000Y15372164D02*
X360000Y15587836D01*
G04 #@! TO.C,C3*
X-1860000Y13412164D02*
X-1860000Y13627836D01*
X-1140000Y13412164D02*
X-1140000Y13627836D01*
G04 #@! TO.C,C1*
X-3360000Y15372164D02*
X-3360000Y15587836D01*
X-2640000Y15372164D02*
X-2640000Y15587836D01*
G04 #@! TO.C,R13*
X22226000Y9498359D02*
X22226000Y9805641D01*
X22986000Y9498359D02*
X22986000Y9805641D01*
G04 #@! TO.C,R12*
X3711641Y11048000D02*
X3404359Y11048000D01*
X3711641Y10288000D02*
X3404359Y10288000D01*
G04 #@! TO.C,R1*
X16608359Y12572000D02*
X16915641Y12572000D01*
X16608359Y11812000D02*
X16915641Y11812000D01*
G04 #@! TO.C,R7*
X-3711641Y11048000D02*
X-3404359Y11048000D01*
X-3711641Y10288000D02*
X-3404359Y10288000D01*
G04 #@! TO.C,C7*
X1140000Y13412164D02*
X1140000Y13627836D01*
X1860000Y13412164D02*
X1860000Y13627836D01*
G04 #@! TO.C,R2*
X18951641Y12572000D02*
X18644359Y12572000D01*
X18951641Y11812000D02*
X18644359Y11812000D01*
G04 #@! TO.C,R6*
X-3908359Y9524000D02*
X-4215641Y9524000D01*
X-3908359Y8764000D02*
X-4215641Y8764000D01*
G04 #@! TD*
M02*
