G04 #@! TF.GenerationSoftware,KiCad,Pcbnew,8.0.0*
G04 #@! TF.CreationDate,2024-03-17T08:28:34+09:00*
G04 #@! TF.ProjectId,Pmod_DisplayPort,506d6f64-5f44-4697-9370-6c6179506f72,rev?*
G04 #@! TF.SameCoordinates,PXae6870PY2719c40*
G04 #@! TF.FileFunction,Copper,L1,Top*
G04 #@! TF.FilePolarity,Positive*
%FSLAX46Y46*%
G04 Gerber Fmt 4.6, Leading zero omitted, Abs format (unit mm)*
G04 Created by KiCad (PCBNEW 8.0.0) date 2024-03-17 08:28:34*
%MOMM*%
%LPD*%
G01*
G04 APERTURE LIST*
G04 Aperture macros list*
%AMRoundRect*
0 Rectangle with rounded corners*
0 $1 Rounding radius*
0 $2 $3 $4 $5 $6 $7 $8 $9 X,Y pos of 4 corners*
0 Add a 4 corners polygon primitive as box body*
4,1,4,$2,$3,$4,$5,$6,$7,$8,$9,$2,$3,0*
0 Add four circle primitives for the rounded corners*
1,1,$1+$1,$2,$3*
1,1,$1+$1,$4,$5*
1,1,$1+$1,$6,$7*
1,1,$1+$1,$8,$9*
0 Add four rect primitives between the rounded corners*
20,1,$1+$1,$2,$3,$4,$5,0*
20,1,$1+$1,$4,$5,$6,$7,0*
20,1,$1+$1,$6,$7,$8,$9,0*
20,1,$1+$1,$8,$9,$2,$3,0*%
G04 Aperture macros list end*
G04 #@! TA.AperFunction,ComponentPad*
%ADD10R,1.600000X1.600000*%
G04 #@! TD*
G04 #@! TA.AperFunction,ComponentPad*
%ADD11O,1.600000X1.600000*%
G04 #@! TD*
G04 #@! TA.AperFunction,SMDPad,CuDef*
%ADD12RoundRect,0.140000X0.170000X-0.140000X0.170000X0.140000X-0.170000X0.140000X-0.170000X-0.140000X0*%
G04 #@! TD*
G04 #@! TA.AperFunction,SMDPad,CuDef*
%ADD13RoundRect,0.135000X-0.185000X0.135000X-0.185000X-0.135000X0.185000X-0.135000X0.185000X0.135000X0*%
G04 #@! TD*
G04 #@! TA.AperFunction,SMDPad,CuDef*
%ADD14RoundRect,0.135000X0.135000X0.185000X-0.135000X0.185000X-0.135000X-0.185000X0.135000X-0.185000X0*%
G04 #@! TD*
G04 #@! TA.AperFunction,SMDPad,CuDef*
%ADD15RoundRect,0.135000X-0.135000X-0.185000X0.135000X-0.185000X0.135000X0.185000X-0.135000X0.185000X0*%
G04 #@! TD*
G04 #@! TA.AperFunction,SMDPad,CuDef*
%ADD16R,0.300000X2.200000*%
G04 #@! TD*
G04 #@! TA.AperFunction,ComponentPad*
%ADD17O,1.200000X2.200000*%
G04 #@! TD*
G04 #@! TA.AperFunction,ComponentPad*
%ADD18O,1.200000X2.500000*%
G04 #@! TD*
G04 #@! TA.AperFunction,SMDPad,CuDef*
%ADD19RoundRect,0.135000X0.185000X-0.135000X0.185000X0.135000X-0.185000X0.135000X-0.185000X-0.135000X0*%
G04 #@! TD*
G04 #@! TA.AperFunction,ViaPad*
%ADD20C,0.800000*%
G04 #@! TD*
G04 #@! TA.AperFunction,Conductor*
%ADD21C,0.300000*%
G04 #@! TD*
G04 #@! TA.AperFunction,Conductor*
%ADD22C,0.200000*%
G04 #@! TD*
G04 #@! TA.AperFunction,Conductor*
%ADD23C,0.166100*%
G04 #@! TD*
G04 APERTURE END LIST*
D10*
G04 #@! TO.P,J1,1,Pin_1*
G04 #@! TO.N,/PMOD_L0_P*
X-6350000Y6350000D03*
D11*
G04 #@! TO.P,J1,2,Pin_2*
G04 #@! TO.N,/PMOD_L1_P*
X-3810000Y6350000D03*
G04 #@! TO.P,J1,3,Pin_3*
G04 #@! TO.N,/PMOD_L2_P*
X-1270000Y6350000D03*
G04 #@! TO.P,J1,4,Pin_4*
G04 #@! TO.N,/PMOD_L3_P*
X1270000Y6350000D03*
G04 #@! TO.P,J1,5,Pin_5*
G04 #@! TO.N,GND*
X3810000Y6350000D03*
G04 #@! TO.P,J1,6,Pin_6*
G04 #@! TO.N,+3V3*
X6350000Y6350000D03*
G04 #@! TO.P,J1,7,Pin_7*
G04 #@! TO.N,/PMOD_L0_N*
X-6350000Y3810000D03*
G04 #@! TO.P,J1,8,Pin_8*
G04 #@! TO.N,/PMOD_L1_N*
X-3810000Y3810000D03*
G04 #@! TO.P,J1,9,Pin_9*
G04 #@! TO.N,/PMOD_L2_N*
X-1270000Y3810000D03*
G04 #@! TO.P,J1,10,Pin_10*
G04 #@! TO.N,/PMOD_L3_N*
X1270000Y3810000D03*
G04 #@! TO.P,J1,11,Pin_11*
G04 #@! TO.N,GND*
X3810000Y3810000D03*
G04 #@! TO.P,J1,12,Pin_12*
G04 #@! TO.N,+3V3*
X6350000Y3810000D03*
G04 #@! TD*
D12*
G04 #@! TO.P,C10,1*
G04 #@! TO.N,/PMOD_AUX_CH_N*
X18288000Y10160000D03*
G04 #@! TO.P,C10,2*
G04 #@! TO.N,/AUX_N*
X18288000Y11120000D03*
G04 #@! TD*
D13*
G04 #@! TO.P,R14,1*
G04 #@! TO.N,/HPD*
X21590000Y10164000D03*
G04 #@! TO.P,R14,2*
G04 #@! TO.N,/PMOD_P2_HOT_PLUG*
X21590000Y9144000D03*
G04 #@! TD*
D12*
G04 #@! TO.P,C4,1*
G04 #@! TO.N,/PMOD_L1_N*
X-500000Y13040000D03*
G04 #@! TO.P,C4,2*
G04 #@! TO.N,/ML1_N*
X-500000Y14000000D03*
G04 #@! TD*
D14*
G04 #@! TO.P,R10,1*
G04 #@! TO.N,+3V3*
X1528000Y9144000D03*
G04 #@! TO.P,R10,2*
G04 #@! TO.N,/PMOD_L2_N*
X508000Y9144000D03*
G04 #@! TD*
D12*
G04 #@! TO.P,C8,1*
G04 #@! TO.N,/PMOD_L3_N*
X2500000Y13040000D03*
G04 #@! TO.P,C8,2*
G04 #@! TO.N,/ML3_N*
X2500000Y14000000D03*
G04 #@! TD*
D15*
G04 #@! TO.P,R3,1*
G04 #@! TO.N,+3V3*
X16254000Y9146000D03*
G04 #@! TO.P,R3,2*
G04 #@! TO.N,/PMOD_AUX_CH_P*
X17274000Y9146000D03*
G04 #@! TD*
G04 #@! TO.P,R11,1*
G04 #@! TO.N,+3V3*
X1012000Y10668000D03*
G04 #@! TO.P,R11,2*
G04 #@! TO.N,/PMOD_L3_P*
X2032000Y10668000D03*
G04 #@! TD*
D10*
G04 #@! TO.P,J2,1,Pin_1*
G04 #@! TO.N,/PMOD_AUX_CH_P*
X16510000Y6350000D03*
D11*
G04 #@! TO.P,J2,2,Pin_2*
G04 #@! TO.N,/PMOD_P2_HOT_PLUG*
X19050000Y6350000D03*
G04 #@! TO.P,J2,3,Pin_3*
G04 #@! TO.N,/PMOD_P3*
X21590000Y6350000D03*
G04 #@! TO.P,J2,4,Pin_4*
G04 #@! TO.N,/PMOD_P4*
X24130000Y6350000D03*
G04 #@! TO.P,J2,5,Pin_5*
G04 #@! TO.N,GND*
X26670000Y6350000D03*
G04 #@! TO.P,J2,6,Pin_6*
G04 #@! TO.N,+3V3*
X29210000Y6350000D03*
G04 #@! TO.P,J2,7,Pin_7*
G04 #@! TO.N,/PMOD_AUX_CH_N*
X16510000Y3810000D03*
G04 #@! TO.P,J2,8,Pin_8*
G04 #@! TO.N,/PMOD_P8*
X19050000Y3810000D03*
G04 #@! TO.P,J2,9,Pin_9*
G04 #@! TO.N,/PMOD_P9*
X21590000Y3810000D03*
G04 #@! TO.P,J2,10,Pin_10*
G04 #@! TO.N,/PMOD_P10*
X24130000Y3810000D03*
G04 #@! TO.P,J2,11,Pin_11*
G04 #@! TO.N,GND*
X26670000Y3810000D03*
G04 #@! TO.P,J2,12,Pin_12*
G04 #@! TO.N,+3V3*
X29210000Y3810000D03*
G04 #@! TD*
D12*
G04 #@! TO.P,C2,1*
G04 #@! TO.N,/PMOD_L0_N*
X-2000000Y15000000D03*
G04 #@! TO.P,C2,2*
G04 #@! TO.N,/ML0_N*
X-2000000Y15960000D03*
G04 #@! TD*
D14*
G04 #@! TO.P,R4,1*
G04 #@! TO.N,+3V3*
X19308000Y9144000D03*
G04 #@! TO.P,R4,2*
G04 #@! TO.N,/PMOD_AUX_CH_N*
X18288000Y9144000D03*
G04 #@! TD*
D15*
G04 #@! TO.P,R5,1*
G04 #@! TO.N,+3V3*
X-6608000Y9144000D03*
G04 #@! TO.P,R5,2*
G04 #@! TO.N,/PMOD_L0_P*
X-5588000Y9144000D03*
G04 #@! TD*
D14*
G04 #@! TO.P,R8,1*
G04 #@! TO.N,+3V3*
X-1012000Y10668000D03*
G04 #@! TO.P,R8,2*
G04 #@! TO.N,/PMOD_L1_N*
X-2032000Y10668000D03*
G04 #@! TD*
D12*
G04 #@! TO.P,C6,1*
G04 #@! TO.N,/PMOD_L2_N*
X1000000Y15000000D03*
G04 #@! TO.P,C6,2*
G04 #@! TO.N,/ML2_N*
X1000000Y15960000D03*
G04 #@! TD*
G04 #@! TO.P,C9,1*
G04 #@! TO.N,/PMOD_AUX_CH_P*
X17272000Y10160000D03*
G04 #@! TO.P,C9,2*
G04 #@! TO.N,/AUX_P*
X17272000Y11120000D03*
G04 #@! TD*
D15*
G04 #@! TO.P,R9,1*
G04 #@! TO.N,+3V3*
X-1528000Y9144000D03*
G04 #@! TO.P,R9,2*
G04 #@! TO.N,/PMOD_L2_P*
X-508000Y9144000D03*
G04 #@! TD*
D16*
G04 #@! TO.P,CN1,1,ML_LANE0_P*
G04 #@! TO.N,/ML0_P*
X-3000000Y19000000D03*
G04 #@! TO.P,CN1,2,GND*
G04 #@! TO.N,GND*
X-2500000Y19000000D03*
G04 #@! TO.P,CN1,3,ML_LANE0_N*
G04 #@! TO.N,/ML0_N*
X-2000000Y19000000D03*
G04 #@! TO.P,CN1,4,ML_LANE1_P*
G04 #@! TO.N,/ML1_P*
X-1500000Y19000000D03*
G04 #@! TO.P,CN1,5,GND*
G04 #@! TO.N,GND*
X-1000000Y19000000D03*
G04 #@! TO.P,CN1,6,ML_LANE1_N*
G04 #@! TO.N,/ML1_N*
X-500000Y19000000D03*
G04 #@! TO.P,CN1,7,ML_LANE2_P*
G04 #@! TO.N,/ML2_P*
X0Y19000000D03*
G04 #@! TO.P,CN1,8,GND*
G04 #@! TO.N,GND*
X500000Y19000000D03*
G04 #@! TO.P,CN1,9,ML_LANE2_N*
G04 #@! TO.N,/ML2_N*
X1000000Y19000000D03*
G04 #@! TO.P,CN1,10,ML_LANE3_P*
G04 #@! TO.N,/ML3_P*
X1500000Y19000000D03*
G04 #@! TO.P,CN1,11,GND*
G04 #@! TO.N,GND*
X2000000Y19000000D03*
G04 #@! TO.P,CN1,12,ML_LANE3_N*
G04 #@! TO.N,/ML3_N*
X2500000Y19000000D03*
G04 #@! TO.P,CN1,13,CONFIG1*
G04 #@! TO.N,GND*
X3000000Y19000000D03*
G04 #@! TO.P,CN1,14,CONFIG2*
X3500000Y19000000D03*
G04 #@! TO.P,CN1,15,AUX_CH_P*
G04 #@! TO.N,/AUX_P*
X4000000Y19000000D03*
G04 #@! TO.P,CN1,16,GND*
G04 #@! TO.N,GND*
X4500000Y19000000D03*
G04 #@! TO.P,CN1,17,AUX_CH_N*
G04 #@! TO.N,/AUX_N*
X5000000Y19000000D03*
G04 #@! TO.P,CN1,18,HOT_PLUG*
G04 #@! TO.N,/HPD*
X5500000Y19000000D03*
G04 #@! TO.P,CN1,19,Return*
G04 #@! TO.N,GND*
X6000000Y19000000D03*
G04 #@! TO.P,CN1,20,DP_PWR*
G04 #@! TO.N,+3V3*
X6500000Y19000000D03*
D17*
G04 #@! TO.P,CN1,FG,FG*
G04 #@! TO.N,GND*
X12300000Y26896667D03*
D18*
X10700000Y19616667D03*
X-5700000Y19616667D03*
D17*
X-7300000Y26896667D03*
G04 #@! TD*
D12*
G04 #@! TO.P,C5,1*
G04 #@! TO.N,/PMOD_L2_P*
X0Y15000000D03*
G04 #@! TO.P,C5,2*
G04 #@! TO.N,/ML2_P*
X0Y15960000D03*
G04 #@! TD*
G04 #@! TO.P,C3,1*
G04 #@! TO.N,/PMOD_L1_P*
X-1500000Y13040000D03*
G04 #@! TO.P,C3,2*
G04 #@! TO.N,/ML1_P*
X-1500000Y14000000D03*
G04 #@! TD*
G04 #@! TO.P,C1,1*
G04 #@! TO.N,/PMOD_L0_P*
X-3000000Y15000000D03*
G04 #@! TO.P,C1,2*
G04 #@! TO.N,/ML0_P*
X-3000000Y15960000D03*
G04 #@! TD*
D19*
G04 #@! TO.P,R13,1*
G04 #@! TO.N,+3V3*
X22606000Y9142000D03*
G04 #@! TO.P,R13,2*
G04 #@! TO.N,/HPD*
X22606000Y10162000D03*
G04 #@! TD*
D14*
G04 #@! TO.P,R12,1*
G04 #@! TO.N,+3V3*
X4068000Y10668000D03*
G04 #@! TO.P,R12,2*
G04 #@! TO.N,/PMOD_L3_N*
X3048000Y10668000D03*
G04 #@! TD*
D15*
G04 #@! TO.P,R1,1*
G04 #@! TO.N,GND*
X16252000Y12192000D03*
G04 #@! TO.P,R1,2*
G04 #@! TO.N,/AUX_P*
X17272000Y12192000D03*
G04 #@! TD*
G04 #@! TO.P,R7,1*
G04 #@! TO.N,+3V3*
X-4068000Y10668000D03*
G04 #@! TO.P,R7,2*
G04 #@! TO.N,/PMOD_L1_P*
X-3048000Y10668000D03*
G04 #@! TD*
D12*
G04 #@! TO.P,C7,1*
G04 #@! TO.N,/PMOD_L3_P*
X1500000Y13040000D03*
G04 #@! TO.P,C7,2*
G04 #@! TO.N,/ML3_P*
X1500000Y14000000D03*
G04 #@! TD*
D14*
G04 #@! TO.P,R2,1*
G04 #@! TO.N,+3V3*
X19308000Y12192000D03*
G04 #@! TO.P,R2,2*
G04 #@! TO.N,/AUX_N*
X18288000Y12192000D03*
G04 #@! TD*
G04 #@! TO.P,R6,1*
G04 #@! TO.N,+3V3*
X-3552000Y9144000D03*
G04 #@! TO.P,R6,2*
G04 #@! TO.N,/PMOD_L0_N*
X-4572000Y9144000D03*
G04 #@! TD*
D20*
G04 #@! TO.N,GND*
X22400000Y11150000D03*
X18250000Y15650000D03*
X8650000Y13450000D03*
X14351000Y8001000D03*
X889000Y7747000D03*
X20700000Y10700000D03*
X6000000Y20800000D03*
X16800000Y15500000D03*
X23750000Y8100000D03*
X18200000Y14700000D03*
X7350000Y18350000D03*
X500000Y20800000D03*
X3250000Y17200000D03*
X-400000Y12150000D03*
X5400000Y16350000D03*
X13400000Y15500000D03*
X5250000Y8850000D03*
X-4191000Y11684000D03*
X-1000000Y20800000D03*
X-2413000Y13462000D03*
X14000000Y10950000D03*
X3450000Y7750000D03*
X16002000Y8001000D03*
X22150000Y7700000D03*
X2900000Y15100000D03*
X16800000Y13350000D03*
X13000000Y8850000D03*
X-4000000Y15000000D03*
X-3450000Y7750000D03*
X-900000Y11600000D03*
X27050000Y8050000D03*
X5200000Y13500000D03*
X5200000Y7300000D03*
X19750000Y8100000D03*
X23750000Y10450000D03*
X18669000Y8128000D03*
X-1550000Y8000000D03*
X28050000Y10200000D03*
X7500000Y7250000D03*
X19200000Y10650000D03*
X-6000000Y7850000D03*
X30000000Y8350000D03*
X15300000Y12200000D03*
X7500000Y8850000D03*
X18700000Y13350000D03*
X3450000Y8850000D03*
X7650000Y11000000D03*
X8650000Y17200000D03*
X-4200000Y8000000D03*
X10950000Y15500000D03*
X-3302000Y11811000D03*
X6350000Y15500000D03*
X4500000Y20800000D03*
X20800000Y13000000D03*
X5200000Y10950000D03*
X16300000Y10200000D03*
X-5150000Y13400000D03*
X3450000Y13500000D03*
X3250000Y20800000D03*
X8650000Y15500000D03*
X2000000Y20800000D03*
X6350000Y13450000D03*
X-2500000Y20800000D03*
X22350000Y13800000D03*
X3500000Y11900000D03*
X1500000Y11800000D03*
G04 #@! TO.N,+3V3*
X-3810000Y9906000D03*
X-1270000Y9906000D03*
X-6604000Y9906000D03*
X7000000Y17200000D03*
X1270000Y9906000D03*
X20320000Y9144000D03*
X4064000Y9906000D03*
X15367000Y9144000D03*
X23749000Y9144000D03*
G04 #@! TD*
D21*
G04 #@! TO.N,GND*
X6000000Y19000000D02*
X6000000Y20800000D01*
X3500000Y19000000D02*
X3500000Y20550000D01*
X2000000Y19000000D02*
X2000000Y20800000D01*
X3000000Y19000000D02*
X3000000Y17450000D01*
X3000000Y19000000D02*
X3000000Y20550000D01*
X4500000Y19000000D02*
X4500000Y20800000D01*
X500000Y19000000D02*
X500000Y20800000D01*
X3500000Y20550000D02*
X3250000Y20800000D01*
X-1000000Y19000000D02*
X-1000000Y20800000D01*
X-2500000Y19000000D02*
X-2500000Y20800000D01*
X3500000Y17450000D02*
X3250000Y17200000D01*
X3000000Y20550000D02*
X3250000Y20800000D01*
X3500000Y19000000D02*
X3500000Y17450000D01*
X3000000Y17450000D02*
X3250000Y17200000D01*
D22*
G04 #@! TO.N,+3V3*
X-3552000Y9144000D02*
X-3552000Y9648000D01*
D21*
X6500000Y17700000D02*
X7000000Y17200000D01*
D22*
X19758000Y12192000D02*
X19950000Y12000000D01*
X-6608000Y9902000D02*
X-6604000Y9906000D01*
X1012000Y10668000D02*
X1012000Y10164000D01*
X-1012000Y10668000D02*
X-1012000Y10164000D01*
X1528000Y9648000D02*
X1270000Y9906000D01*
X-1528000Y9144000D02*
X-1528000Y9648000D01*
X4068000Y9910000D02*
X4064000Y9906000D01*
X19308000Y9144000D02*
X20320000Y9144000D01*
X-6608000Y9144000D02*
X-6608000Y9902000D01*
X-1528000Y9648000D02*
X-1270000Y9906000D01*
X19308000Y12192000D02*
X19758000Y12192000D01*
X15369000Y9146000D02*
X15367000Y9144000D01*
D21*
X6500000Y19000000D02*
X6500000Y17700000D01*
D22*
X23747000Y9142000D02*
X23749000Y9144000D01*
X22606000Y9142000D02*
X23747000Y9142000D01*
X16254000Y9146000D02*
X15369000Y9146000D01*
X1528000Y9144000D02*
X1528000Y9648000D01*
X-4068000Y10164000D02*
X-3810000Y9906000D01*
X19950000Y12000000D02*
X19950000Y10350000D01*
X19950000Y10350000D02*
X20320000Y9980000D01*
X-3552000Y9648000D02*
X-3810000Y9906000D01*
X4068000Y10668000D02*
X4068000Y9910000D01*
X-1012000Y10164000D02*
X-1270000Y9906000D01*
X-4068000Y10668000D02*
X-4068000Y10164000D01*
X20320000Y9980000D02*
X20320000Y9144000D01*
X1012000Y10164000D02*
X1270000Y9906000D01*
D23*
G04 #@! TO.N,/ML0_P*
X-2646550Y16996549D02*
X-2646550Y16778451D01*
X-3000000Y19000000D02*
X-3000000Y17349999D01*
X-3000000Y16425001D02*
X-3000000Y15960000D01*
X-2646550Y16778451D02*
X-3000000Y16425001D01*
X-3000000Y17349999D02*
X-2646550Y16996549D01*
G04 #@! TO.N,/ML0_N*
X-2000000Y17349999D02*
X-2353450Y16996549D01*
X-2000000Y19000000D02*
X-2000000Y17349999D01*
X-2353450Y16996549D02*
X-2353450Y16778451D01*
X-2000000Y16425001D02*
X-2000000Y15960000D01*
X-2353450Y16778451D02*
X-2000000Y16425001D01*
G04 #@! TO.N,/ML1_P*
X-1500000Y14465001D02*
X-1500000Y14000000D01*
X-1146550Y16996549D02*
X-1146550Y14818451D01*
X-1146550Y14818451D02*
X-1500000Y14465001D01*
X-1500000Y17349999D02*
X-1146550Y16996549D01*
X-1500000Y19000000D02*
X-1500000Y17349999D01*
G04 #@! TO.N,/ML1_N*
X-853450Y14818451D02*
X-500000Y14465001D01*
X-500000Y14465001D02*
X-500000Y14000000D01*
X-853450Y16996549D02*
X-853450Y14818451D01*
X-500000Y19000000D02*
X-500000Y17349999D01*
X-500000Y17349999D02*
X-853450Y16996549D01*
G04 #@! TO.N,/ML2_P*
X0Y19000000D02*
X0Y17349999D01*
X353450Y16996549D02*
X353450Y16778451D01*
X353450Y16778451D02*
X0Y16425001D01*
X0Y17349999D02*
X353450Y16996549D01*
X0Y16425001D02*
X0Y15960000D01*
G04 #@! TO.N,/ML2_N*
X646550Y16996549D02*
X646550Y16778451D01*
X1000000Y17349999D02*
X646550Y16996549D01*
X1000000Y19000000D02*
X1000000Y17349999D01*
X1000000Y16425001D02*
X1000000Y15960000D01*
X646550Y16778451D02*
X1000000Y16425001D01*
G04 #@! TO.N,/ML3_P*
X1853450Y14818451D02*
X1500000Y14465001D01*
X1500000Y19000000D02*
X1500000Y17349999D01*
X1853450Y16996549D02*
X1853450Y14818451D01*
X1500000Y17349999D02*
X1853450Y16996549D01*
X1500000Y14465001D02*
X1500000Y14000000D01*
G04 #@! TO.N,/ML3_N*
X2500000Y17349999D02*
X2146550Y16996549D01*
X2500000Y14465001D02*
X2500000Y14000000D01*
X2500000Y19000000D02*
X2500000Y17349999D01*
X2146550Y14818451D02*
X2500000Y14465001D01*
X2146550Y16996549D02*
X2146550Y14818451D01*
G04 #@! TO.N,/AUX_P*
X4353450Y15378296D02*
X5400296Y14331450D01*
X5400296Y14331450D02*
X16957296Y14331450D01*
X17633450Y13655296D02*
X17633450Y13033451D01*
X4000000Y19000000D02*
X4000000Y17349999D01*
X17272000Y12672001D02*
X17272000Y12192000D01*
X16957296Y14331450D02*
X17633450Y13655296D01*
X17633450Y13033451D02*
X17272000Y12672001D01*
X4000000Y17349999D02*
X4353450Y16996549D01*
D22*
X17272000Y12192000D02*
X17272000Y11120000D01*
D23*
X4353450Y16996549D02*
X4353450Y15378296D01*
G04 #@! TO.N,/AUX_N*
X4646550Y15499704D02*
X5521704Y14624550D01*
D22*
X18288000Y11120000D02*
X18288000Y12192000D01*
D23*
X4646550Y16996549D02*
X4646550Y15499704D01*
X17078704Y14624550D02*
X17926550Y13776704D01*
X5000000Y17349999D02*
X4646550Y16996549D01*
X18288000Y12672001D02*
X18288000Y12192000D01*
X5521704Y14624550D02*
X17078704Y14624550D01*
X5000000Y19000000D02*
X5000000Y17349999D01*
X17926550Y13033451D02*
X18288000Y12672001D01*
X17926550Y13776704D02*
X17926550Y13033451D01*
D22*
G04 #@! TO.N,/HPD*
X6400000Y16400000D02*
X5500000Y17300000D01*
X21590000Y10164000D02*
X21590000Y13410000D01*
X22606000Y10162000D02*
X21592000Y10162000D01*
X5500000Y17300000D02*
X5500000Y19000000D01*
X18600000Y16400000D02*
X6400000Y16400000D01*
X21590000Y13410000D02*
X18600000Y16400000D01*
X21592000Y10162000D02*
X21590000Y10164000D01*
G04 #@! TO.N,/PMOD_P2_HOT_PLUG*
X21082000Y7747000D02*
X21590000Y8255000D01*
X21590000Y8255000D02*
X21590000Y9144000D01*
X19050000Y6350000D02*
X20447000Y7747000D01*
X20447000Y7747000D02*
X21082000Y7747000D01*
D23*
G04 #@! TO.N,/PMOD_L0_P*
X-5226550Y8302549D02*
X-5226550Y5695450D01*
X-4198753Y13215753D02*
X-5226550Y12187956D01*
X-3000000Y14414506D02*
X-3627253Y13787253D01*
X-3000000Y15000000D02*
X-3000000Y14414506D01*
X-5226550Y9985451D02*
X-5588000Y9624001D01*
X-5588000Y9624001D02*
X-5588000Y9144000D01*
X-5588000Y8663999D02*
X-5226550Y8302549D01*
X-5226550Y5695450D02*
X-5334000Y5588000D01*
X-4144997Y13269510D02*
X-4198753Y13215753D01*
X-5334000Y5588000D02*
X-5588000Y5588000D01*
X-4506648Y13941807D02*
X-4093224Y13528383D01*
X-3834351Y13787253D02*
X-4247776Y14200678D01*
X-4093224Y13321286D02*
X-4144997Y13269510D01*
X-5226550Y12187956D02*
X-5226550Y9985451D01*
X-4454873Y14200678D02*
X-4506648Y14148904D01*
X-5588000Y9144000D02*
X-5588000Y8663999D01*
D22*
X-6350000Y6350000D02*
X-6350000Y6223000D01*
D23*
X-4247776Y14200678D02*
G75*
G03*
X-4454872Y14200677I-103548J-103546D01*
G01*
X-4093224Y13528383D02*
G75*
G02*
X-4093190Y13321252I-103576J-103583D01*
G01*
X-3627253Y13787253D02*
G75*
G02*
X-3834351Y13787253I-103549J103550D01*
G01*
X-4506648Y14148904D02*
G75*
G03*
X-4506643Y13941812I103548J-103544D01*
G01*
X-5588000Y5588000D02*
G75*
G02*
X-6350000Y6350000I0J762000D01*
G01*
D22*
G04 #@! TO.N,/PMOD_L0_N*
X-6350000Y3810000D02*
X-6096000Y3810000D01*
D23*
X-4572000Y9624001D02*
X-4933450Y9985451D01*
X-4572000Y9144000D02*
X-4572000Y9624001D01*
X-4933450Y12066550D02*
X-2000000Y15000000D01*
X-4572000Y9144000D02*
X-4572000Y8663999D01*
X-4933450Y9985451D02*
X-4933450Y12066550D01*
X-4572000Y8663999D02*
X-4933450Y8302549D01*
X-4933450Y8302549D02*
X-4933450Y5226550D01*
X-4933450Y5226550D02*
G75*
G02*
X-6350000Y3810000I-1416550J0D01*
G01*
G04 #@! TO.N,/PMOD_L1_P*
X-2062945Y12185787D02*
X-2019379Y12142221D01*
X-2686550Y11079450D02*
X-2686550Y11267956D01*
X-1760508Y12193997D02*
X-1516253Y12438253D01*
X-1812281Y12142222D02*
X-1760508Y12193997D01*
X-3048000Y10668000D02*
X-3048000Y10187999D01*
X-3048000Y10187999D02*
X-2686550Y9826549D01*
X-3048000Y10718000D02*
X-2686550Y11079450D01*
X-2686550Y9826549D02*
X-2686550Y5695450D01*
X-1516253Y12438253D02*
X-1500000Y12454506D01*
X-3048000Y10668000D02*
X-3048000Y10718000D01*
X-3048000Y5588000D02*
X-2794000Y5588000D01*
X-2686550Y11267956D02*
X-2278253Y11676253D01*
X-2278252Y11883351D02*
X-2321817Y11926916D01*
X-2321818Y12134012D02*
X-2270041Y12185788D01*
X-1500000Y12454506D02*
X-1500000Y13040000D01*
X-2686550Y5695450D02*
X-2794000Y5588000D01*
X-2321817Y11926916D02*
G75*
G02*
X-2321853Y12134047I103517J103584D01*
G01*
X-3048000Y5588000D02*
G75*
G02*
X-3810000Y6350000I0J762000D01*
G01*
X-2019378Y12142222D02*
G75*
G03*
X-1812251Y12142192I103578J103578D01*
G01*
X-2270041Y12185788D02*
G75*
G02*
X-2062952Y12185780I103541J-103588D01*
G01*
X-2278253Y11676253D02*
G75*
G03*
X-2278255Y11883348I-103547J103547D01*
G01*
G04 #@! TO.N,/PMOD_L1_N*
X-2032000Y10668000D02*
X-2032000Y10718000D01*
X-2032000Y10187999D02*
X-2032000Y10668000D01*
X-2393450Y9826549D02*
X-2032000Y10187999D01*
X-2032000Y10718000D02*
X-2393450Y11079450D01*
X-2393450Y11079450D02*
X-2393450Y11146550D01*
X-2393450Y5226550D02*
X-2393450Y9826549D01*
X-2393450Y11146550D02*
X-500000Y13040000D01*
X-3810000Y3810000D02*
G75*
G03*
X-2393450Y5226550I0J1416550D01*
G01*
G04 #@! TO.N,/PMOD_L2_P*
X353450Y11736704D02*
X353450Y14181549D01*
X-146550Y7268800D02*
X-146550Y5695450D01*
X-508000Y9144000D02*
X-508000Y8663999D01*
X-146550Y8302549D02*
X-146550Y8001000D01*
X353450Y14181549D02*
X0Y14534999D01*
X-687851Y7488460D02*
X-292990Y7488460D01*
X-508000Y9624001D02*
X-146550Y9985451D01*
X-508000Y9144000D02*
X-508000Y9624001D01*
X-146550Y9985451D02*
X-146550Y11236704D01*
X0Y14534999D02*
X0Y15000000D01*
X-146550Y11236704D02*
X353450Y11736704D01*
X-834291Y7708120D02*
X-834291Y7634900D01*
X-508000Y8663999D02*
X-146550Y8302549D01*
X-292990Y7854560D02*
X-687851Y7854560D01*
X-146550Y7342020D02*
X-146550Y7268800D01*
X-146550Y5695450D02*
X-254000Y5588000D01*
X-254000Y5588000D02*
X-508000Y5588000D01*
X-292990Y7488460D02*
G75*
G02*
X-146540Y7342020I-10J-146460D01*
G01*
X-508000Y5588000D02*
G75*
G02*
X-1270000Y6350000I0J762000D01*
G01*
X-687851Y7854560D02*
G75*
G03*
X-834360Y7708120I-49J-146460D01*
G01*
X-834291Y7634900D02*
G75*
G03*
X-687851Y7488509I146391J0D01*
G01*
X-146550Y8001000D02*
G75*
G02*
X-292990Y7854550I-146450J0D01*
G01*
G04 #@! TO.N,/PMOD_L2_N*
X646550Y14181549D02*
X1000000Y14534999D01*
X508000Y8663999D02*
X508000Y9144000D01*
X146550Y5226550D02*
X146550Y8302549D01*
X146550Y9985451D02*
X146550Y11115296D01*
X508000Y9144000D02*
X508000Y9624001D01*
X508000Y9624001D02*
X146550Y9985451D01*
X146550Y8302549D02*
X508000Y8663999D01*
X146550Y11115296D02*
X646550Y11615296D01*
X1000000Y14534999D02*
X1000000Y15000000D01*
X646550Y11615296D02*
X646550Y14181549D01*
X-1270000Y3810000D02*
G75*
G03*
X146600Y5226550I0J1416600D01*
G01*
G04 #@! TO.N,/PMOD_L3_P*
X2032000Y11148001D02*
X2393450Y11509451D01*
X2393450Y8509000D02*
X2393450Y9826549D01*
X2393450Y8278980D02*
X2393450Y8352200D01*
X2393450Y8352200D02*
X2393450Y8509000D01*
X2032000Y5588000D02*
X2286000Y5588000D01*
X2247010Y7766440D02*
X1739890Y7766440D01*
X2286000Y5588000D02*
X2393450Y5695450D01*
X2393450Y12146550D02*
X1500000Y13040000D01*
X1739890Y8132540D02*
X2247010Y8132540D01*
X1593450Y7912880D02*
X1593450Y7986100D01*
X2393450Y9826549D02*
X2032000Y10187999D01*
X2032000Y10187999D02*
X2032000Y10668000D01*
X2032000Y10668000D02*
X2032000Y11148001D01*
X2393450Y11509451D02*
X2393450Y12146550D01*
X2393450Y5695450D02*
X2393450Y7620000D01*
X1739890Y7766440D02*
G75*
G02*
X1593440Y7912880I10J146460D01*
G01*
X1593450Y7986100D02*
G75*
G02*
X1739890Y8132550I146450J0D01*
G01*
X2393450Y7620000D02*
G75*
G03*
X2247010Y7766450I-146450J0D01*
G01*
X2247010Y8132540D02*
G75*
G03*
X2393460Y8278980I-10J146460D01*
G01*
X1270000Y6350000D02*
G75*
G03*
X2032000Y5588000I762000J0D01*
G01*
G04 #@! TO.N,/PMOD_L3_N*
X3048000Y10668000D02*
X3048000Y11148001D01*
X2686550Y11509451D02*
X2686550Y12267956D01*
X2686550Y12267956D02*
X2500000Y12454506D01*
D22*
X1270000Y3810000D02*
X1524000Y3810000D01*
D23*
X2686550Y9826549D02*
X3048000Y10187999D01*
X3048000Y10187999D02*
X3048000Y10668000D01*
X3048000Y11148001D02*
X2686550Y11509451D01*
X2686550Y5226550D02*
X2686550Y9826549D01*
X2500000Y12454506D02*
X2500000Y13040000D01*
X1270000Y3810000D02*
G75*
G03*
X2686600Y5226550I0J1416600D01*
G01*
G04 #@! TO.N,/PMOD_AUX_CH_P*
X17635450Y8784550D02*
X17635450Y8255000D01*
X17489010Y8108560D02*
X16955793Y8108560D01*
X17635450Y7522800D02*
X17635450Y7493000D01*
X17635450Y7493000D02*
X17635450Y5951450D01*
D22*
X17274000Y10158000D02*
X17272000Y10160000D01*
D23*
X17635450Y7596020D02*
X17635450Y7522800D01*
X16955793Y7742460D02*
X17489010Y7742460D01*
X17635450Y5951450D02*
X17272000Y5588000D01*
D22*
X17274000Y9146000D02*
X17274000Y10158000D01*
D23*
X16809353Y7962120D02*
X16809353Y7888900D01*
X17274000Y9146000D02*
X17635450Y8784550D01*
X17635450Y8255000D02*
G75*
G02*
X17489010Y8108550I-146450J0D01*
G01*
X16809353Y7888900D02*
G75*
G03*
X16955793Y7742453I146447J0D01*
G01*
X17489010Y7742460D02*
G75*
G02*
X17635460Y7596020I-10J-146460D01*
G01*
X16955793Y8108560D02*
G75*
G03*
X16809340Y7962120I7J-146460D01*
G01*
X17272000Y5588000D02*
G75*
G02*
X16510000Y6350000I0J762000D01*
G01*
G04 #@! TO.N,/PMOD_AUX_CH_N*
X18288000Y9144000D02*
X17928550Y8784550D01*
D22*
X18288000Y9144000D02*
X18288000Y10160000D01*
D23*
X17928550Y8784550D02*
X17928550Y5228550D01*
X16510000Y3810000D02*
G75*
G03*
X17928600Y5228550I0J1418600D01*
G01*
G04 #@! TD*
G04 #@! TA.AperFunction,Conductor*
G04 #@! TO.N,+3V3*
G36*
X-1266595Y9903582D02*
G01*
X-1266559Y9903547D01*
X-995638Y9631668D01*
X-992226Y9623388D01*
X-995667Y9615121D01*
X-995890Y9614905D01*
X-1424618Y9209754D01*
X-1432654Y9206558D01*
X-1616981Y9206558D01*
X-1625254Y9209985D01*
X-1628660Y9217557D01*
X-1643708Y9468137D01*
X-1669258Y9893632D01*
X-1666333Y9902093D01*
X-1658280Y9906010D01*
X-1657609Y9906031D01*
X-1274876Y9906988D01*
X-1266595Y9903582D01*
G37*
G04 #@! TD.AperFunction*
G04 #@! TD*
G04 #@! TA.AperFunction,Conductor*
G04 #@! TO.N,+3V3*
G36*
X1657607Y9906031D02*
G01*
X1665872Y9902583D01*
X1669278Y9894302D01*
X1669257Y9893630D01*
X1628660Y9217557D01*
X1624743Y9209504D01*
X1616981Y9206558D01*
X1432654Y9206558D01*
X1424618Y9209754D01*
X995889Y9614905D01*
X992230Y9623078D01*
X995421Y9631445D01*
X995601Y9631632D01*
X1266559Y9903548D01*
X1274824Y9906988D01*
X1657607Y9906031D01*
G37*
G04 #@! TD.AperFunction*
G04 #@! TD*
G04 #@! TA.AperFunction,Conductor*
G04 #@! TO.N,+3V3*
G36*
X20171428Y9502756D02*
G01*
X20319123Y9148502D01*
X20319144Y9139548D01*
X20319123Y9139498D01*
X20171428Y8785245D01*
X20165081Y8778927D01*
X20156129Y8778947D01*
X19527200Y9041001D01*
X19520881Y9047346D01*
X19520000Y9051801D01*
X19520000Y9236200D01*
X19523427Y9244473D01*
X19527200Y9247000D01*
X20156131Y9509055D01*
X20165084Y9509073D01*
X20171428Y9502756D01*
G37*
G04 #@! TD.AperFunction*
G04 #@! TD*
G04 #@! TA.AperFunction,Conductor*
G04 #@! TO.N,+3V3*
G36*
X16022810Y9408914D02*
G01*
X16248160Y9153745D01*
X16251068Y9145275D01*
X16248160Y9138255D01*
X16022810Y8883087D01*
X16014765Y8879154D01*
X16008309Y8880632D01*
X15719969Y9042647D01*
X15714435Y9049687D01*
X15714000Y9052847D01*
X15714000Y9239154D01*
X15717427Y9247427D01*
X15719969Y9249354D01*
X16008310Y9411370D01*
X16017200Y9412434D01*
X16022810Y9408914D01*
G37*
G04 #@! TD.AperFunction*
G04 #@! TD*
G04 #@! TA.AperFunction,Conductor*
G04 #@! TO.N,+3V3*
G36*
X-914746Y10602015D02*
G01*
X-911340Y10594443D01*
X-870743Y9918371D01*
X-873668Y9909908D01*
X-881721Y9905991D01*
X-882393Y9905970D01*
X-1265125Y9905013D01*
X-1273406Y9908419D01*
X-1273442Y9908454D01*
X-1544363Y10180333D01*
X-1547775Y10188613D01*
X-1544334Y10196880D01*
X-1544163Y10197047D01*
X-1115382Y10602247D01*
X-1107346Y10605442D01*
X-923019Y10605442D01*
X-914746Y10602015D01*
G37*
G04 #@! TD.AperFunction*
G04 #@! TD*
G04 #@! TA.AperFunction,Conductor*
G04 #@! TO.N,+3V3*
G36*
X1019844Y10660913D02*
G01*
X1020583Y10660240D01*
X1265192Y10437291D01*
X1268998Y10429185D01*
X1267784Y10423428D01*
X1144371Y10175607D01*
X1142171Y10172550D01*
X1012510Y10042889D01*
X1004237Y10039462D01*
X995964Y10042889D01*
X994310Y10044970D01*
X913896Y10173899D01*
X772839Y10400057D01*
X771369Y10408888D01*
X774204Y10414219D01*
X1003405Y10660241D01*
X1011551Y10663958D01*
X1019844Y10660913D01*
G37*
G04 #@! TD.AperFunction*
G04 #@! TD*
G04 #@! TA.AperFunction,Conductor*
G04 #@! TO.N,+3V3*
G36*
X-3535965Y9769112D02*
G01*
X-3534311Y9767031D01*
X-3312842Y9411947D01*
X-3311371Y9403114D01*
X-3314208Y9397780D01*
X-3543405Y9151761D01*
X-3551552Y9148043D01*
X-3559847Y9151089D01*
X-3667575Y9249278D01*
X-3805193Y9374710D01*
X-3808999Y9382816D01*
X-3807786Y9388571D01*
X-3684369Y9636399D01*
X-3682175Y9639448D01*
X-3552510Y9769113D01*
X-3544238Y9772539D01*
X-3535965Y9769112D01*
G37*
G04 #@! TD.AperFunction*
G04 #@! TD*
G04 #@! TA.AperFunction,Conductor*
G04 #@! TO.N,+3V3*
G36*
X-3964618Y10602246D02*
G01*
X-3535890Y10197096D01*
X-3532231Y10188923D01*
X-3535422Y10180556D01*
X-3535638Y10180333D01*
X-3806559Y9908454D01*
X-3814826Y9905013D01*
X-3814876Y9905013D01*
X-4197608Y9905970D01*
X-4205873Y9909418D01*
X-4209279Y9917699D01*
X-4209259Y9918342D01*
X-4168660Y10594443D01*
X-4164743Y10602496D01*
X-4156981Y10605442D01*
X-3972654Y10605442D01*
X-3964618Y10602246D01*
G37*
G04 #@! TD.AperFunction*
G04 #@! TD*
G04 #@! TA.AperFunction,Conductor*
G04 #@! TO.N,+3V3*
G36*
X-1003405Y10660240D02*
G01*
X-774208Y10414222D01*
X-771076Y10405833D01*
X-772842Y10400055D01*
X-994311Y10044970D01*
X-1001597Y10039764D01*
X-1010430Y10041235D01*
X-1012511Y10042889D01*
X-1142172Y10172550D01*
X-1144372Y10175607D01*
X-1267785Y10423428D01*
X-1268406Y10432362D01*
X-1265193Y10437291D01*
X-1019845Y10660913D01*
X-1011425Y10663952D01*
X-1003405Y10660240D01*
G37*
G04 #@! TD.AperFunction*
G04 #@! TD*
G04 #@! TA.AperFunction,Conductor*
G04 #@! TO.N,+3V3*
G36*
X19553690Y9409369D02*
G01*
X19842031Y9247354D01*
X19847565Y9240314D01*
X19848000Y9237154D01*
X19848000Y9050847D01*
X19844573Y9042574D01*
X19842031Y9040647D01*
X19553690Y8878632D01*
X19544799Y8877567D01*
X19539189Y8881087D01*
X19396573Y9042574D01*
X19313838Y9136257D01*
X19310931Y9144725D01*
X19313838Y9151744D01*
X19539190Y9406915D01*
X19547234Y9410847D01*
X19553690Y9409369D01*
G37*
G04 #@! TD.AperFunction*
G04 #@! TD*
G04 #@! TA.AperFunction,Conductor*
G04 #@! TO.N,+3V3*
G36*
X20420473Y9940573D02*
G01*
X20423000Y9936800D01*
X20685053Y9307871D01*
X20685072Y9298916D01*
X20678755Y9292572D01*
X20324502Y9144877D01*
X20315548Y9144856D01*
X20315498Y9144877D01*
X19961244Y9292572D01*
X19954926Y9298919D01*
X19954945Y9307869D01*
X20217000Y9936801D01*
X20223345Y9943119D01*
X20227800Y9944000D01*
X20412200Y9944000D01*
X20420473Y9940573D01*
G37*
G04 #@! TD.AperFunction*
G04 #@! TD*
G04 #@! TA.AperFunction,Conductor*
G04 #@! TO.N,+3V3*
G36*
X6652266Y17791888D02*
G01*
X7142653Y17574178D01*
X7148824Y17567689D01*
X7148720Y17559017D01*
X7001858Y17203500D01*
X6995532Y17197162D01*
X6995496Y17197147D01*
X6641605Y17051519D01*
X6632651Y17051540D01*
X6626333Y17057887D01*
X6626214Y17058188D01*
X6355946Y17777079D01*
X6356243Y17786027D01*
X6362781Y17792146D01*
X6366898Y17792894D01*
X6647519Y17792894D01*
X6652266Y17791888D01*
G37*
G04 #@! TD.AperFunction*
G04 #@! TD*
G04 #@! TA.AperFunction,Conductor*
G04 #@! TO.N,+3V3*
G36*
X4075898Y10661773D02*
G01*
X4321468Y10437063D01*
X4325259Y10428949D01*
X4324231Y10423612D01*
X4171111Y10084881D01*
X4164581Y10078754D01*
X4160450Y10078000D01*
X3975550Y10078000D01*
X3967277Y10081427D01*
X3964889Y10084881D01*
X3811768Y10423612D01*
X3811483Y10432562D01*
X3814528Y10437060D01*
X4060102Y10661774D01*
X4068518Y10664830D01*
X4075898Y10661773D01*
G37*
G04 #@! TD.AperFunction*
G04 #@! TD*
G04 #@! TA.AperFunction,Conductor*
G04 #@! TO.N,+3V3*
G36*
X-6245546Y9757554D02*
G01*
X-6239228Y9751207D01*
X-6239249Y9742253D01*
X-6239375Y9741961D01*
X-6504898Y9150906D01*
X-6511415Y9144763D01*
X-6515571Y9144000D01*
X-6700338Y9144000D01*
X-6708611Y9147427D01*
X-6711063Y9151023D01*
X-6968799Y9742028D01*
X-6968965Y9750981D01*
X-6962751Y9757430D01*
X-6962729Y9757440D01*
X-6608500Y9905125D01*
X-6599551Y9905145D01*
X-6245546Y9757554D01*
G37*
G04 #@! TD.AperFunction*
G04 #@! TD*
G04 #@! TA.AperFunction,Conductor*
G04 #@! TO.N,+3V3*
G36*
X-4060156Y10660913D02*
G01*
X-4059417Y10660240D01*
X-3814808Y10437291D01*
X-3811002Y10429185D01*
X-3812216Y10423428D01*
X-3935629Y10175607D01*
X-3937829Y10172550D01*
X-4067490Y10042889D01*
X-4075763Y10039462D01*
X-4084036Y10042889D01*
X-4085690Y10044970D01*
X-4166104Y10173899D01*
X-4307161Y10400057D01*
X-4308631Y10408888D01*
X-4305796Y10414219D01*
X-4076595Y10660241D01*
X-4068449Y10663958D01*
X-4060156Y10660913D01*
G37*
G04 #@! TD.AperFunction*
G04 #@! TD*
G04 #@! TA.AperFunction,Conductor*
G04 #@! TO.N,+3V3*
G36*
X1115382Y10602246D02*
G01*
X1544110Y10197096D01*
X1547769Y10188923D01*
X1544578Y10180556D01*
X1544362Y10180333D01*
X1273441Y9908454D01*
X1265174Y9905013D01*
X1265124Y9905013D01*
X882392Y9905970D01*
X874127Y9909418D01*
X870721Y9917699D01*
X870741Y9918342D01*
X911340Y10594443D01*
X915257Y10602496D01*
X923019Y10605442D01*
X1107346Y10605442D01*
X1115382Y10602246D01*
G37*
G04 #@! TD.AperFunction*
G04 #@! TD*
G04 #@! TA.AperFunction,Conductor*
G04 #@! TO.N,+3V3*
G36*
X22850386Y9398233D02*
G01*
X23189119Y9245111D01*
X23195246Y9238581D01*
X23196000Y9234450D01*
X23196000Y9049551D01*
X23192573Y9041278D01*
X23189119Y9038890D01*
X22850388Y8885769D01*
X22841438Y8885484D01*
X22836937Y8888532D01*
X22696505Y9042000D01*
X22612226Y9134103D01*
X22609170Y9142518D01*
X22612227Y9149898D01*
X22836939Y9395471D01*
X22845051Y9399260D01*
X22850386Y9398233D01*
G37*
G04 #@! TD.AperFunction*
G04 #@! TD*
G04 #@! TA.AperFunction,Conductor*
G04 #@! TO.N,+3V3*
G36*
X1544035Y9769112D02*
G01*
X1545689Y9767031D01*
X1767158Y9411947D01*
X1768629Y9403114D01*
X1765792Y9397780D01*
X1536595Y9151761D01*
X1528448Y9148043D01*
X1520153Y9151089D01*
X1412425Y9249278D01*
X1274807Y9374710D01*
X1271001Y9382816D01*
X1272214Y9388571D01*
X1395631Y9636399D01*
X1397825Y9639448D01*
X1527490Y9769113D01*
X1535762Y9772539D01*
X1544035Y9769112D01*
G37*
G04 #@! TD.AperFunction*
G04 #@! TD*
G04 #@! TA.AperFunction,Conductor*
G04 #@! TO.N,+3V3*
G36*
X19572893Y12427012D02*
G01*
X19678085Y12351955D01*
X19881101Y12207097D01*
X19885845Y12199502D01*
X19883829Y12190777D01*
X19882578Y12189300D01*
X19751689Y12058411D01*
X19750046Y12057043D01*
X19547305Y11917625D01*
X19538548Y11915761D01*
X19531639Y11919836D01*
X19314280Y12184208D01*
X19311674Y12192773D01*
X19315349Y12200202D01*
X19558129Y12426054D01*
X19566520Y12429179D01*
X19572893Y12427012D01*
G37*
G04 #@! TD.AperFunction*
G04 #@! TD*
G04 #@! TA.AperFunction,Conductor*
G04 #@! TO.N,+3V3*
G36*
X-1529571Y9770766D02*
G01*
X-1527490Y9769112D01*
X-1397829Y9639451D01*
X-1395629Y9636394D01*
X-1272216Y9388573D01*
X-1271595Y9379639D01*
X-1274808Y9374710D01*
X-1520154Y9151089D01*
X-1528576Y9148049D01*
X-1536596Y9151761D01*
X-1749846Y9380662D01*
X-1765795Y9397781D01*
X-1768926Y9406169D01*
X-1767162Y9411944D01*
X-1545689Y9767033D01*
X-1538404Y9772237D01*
X-1529571Y9770766D01*
G37*
G04 #@! TD.AperFunction*
G04 #@! TD*
G04 #@! TA.AperFunction,Conductor*
G04 #@! TO.N,+3V3*
G36*
X23600429Y9502754D02*
G01*
X23600441Y9502725D01*
X23748123Y9148502D01*
X23748144Y9139548D01*
X23748123Y9139498D01*
X23600417Y8785220D01*
X23594070Y8778902D01*
X23585144Y8778911D01*
X22956624Y9039010D01*
X22950290Y9045340D01*
X22949398Y9049821D01*
X22949398Y9234225D01*
X22952825Y9242498D01*
X22956563Y9245010D01*
X23585113Y9509011D01*
X23594066Y9509054D01*
X23600429Y9502754D01*
G37*
G04 #@! TD.AperFunction*
G04 #@! TD*
G04 #@! TA.AperFunction,Conductor*
G04 #@! TO.N,+3V3*
G36*
X4168611Y10664573D02*
G01*
X4171063Y10660977D01*
X4428798Y10069973D01*
X4428964Y10061020D01*
X4422750Y10054571D01*
X4422575Y10054497D01*
X4068502Y9906877D01*
X4059548Y9906856D01*
X4059498Y9906877D01*
X3705545Y10054447D01*
X3699227Y10060794D01*
X3699248Y10069748D01*
X3699346Y10069978D01*
X3964898Y10661096D01*
X3971415Y10667237D01*
X3975571Y10668000D01*
X4160338Y10668000D01*
X4168611Y10664573D01*
G37*
G04 #@! TD.AperFunction*
G04 #@! TD*
G04 #@! TA.AperFunction,Conductor*
G04 #@! TO.N,+3V3*
G36*
X15530855Y9509090D02*
G01*
X15614040Y9474666D01*
X16159377Y9248990D01*
X16165710Y9242661D01*
X16166602Y9238180D01*
X16166602Y9053776D01*
X16163175Y9045503D01*
X16159433Y9042989D01*
X15530888Y8778991D01*
X15521933Y8778947D01*
X15515571Y8785246D01*
X15367875Y9139501D01*
X15367855Y9148450D01*
X15515582Y9502782D01*
X15521929Y9509099D01*
X15530855Y9509090D01*
G37*
G04 #@! TD.AperFunction*
G04 #@! TD*
G04 #@! TA.AperFunction,Conductor*
G04 #@! TO.N,+3V3*
G36*
X-6507277Y9730573D02*
G01*
X-6504889Y9727119D01*
X-6351769Y9388389D01*
X-6351484Y9379439D01*
X-6354532Y9374938D01*
X-6600102Y9150228D01*
X-6608518Y9147171D01*
X-6615898Y9150228D01*
X-6861469Y9374938D01*
X-6865260Y9383052D01*
X-6864233Y9388386D01*
X-6711111Y9727120D01*
X-6704581Y9733247D01*
X-6700450Y9734000D01*
X-6515550Y9734000D01*
X-6507277Y9730573D01*
G37*
G04 #@! TD.AperFunction*
G04 #@! TD*
G04 #@! TA.AperFunction,Conductor*
G04 #@! TO.N,+3V3*
G36*
X-3422393Y9906031D02*
G01*
X-3414128Y9902583D01*
X-3410722Y9894302D01*
X-3410743Y9893630D01*
X-3451340Y9217557D01*
X-3455257Y9209504D01*
X-3463019Y9206558D01*
X-3647346Y9206558D01*
X-3655382Y9209754D01*
X-4084111Y9614905D01*
X-4087770Y9623078D01*
X-4084579Y9631445D01*
X-4084399Y9631632D01*
X-3813441Y9903548D01*
X-3805176Y9906988D01*
X-3422393Y9906031D01*
G37*
G04 #@! TD.AperFunction*
G04 #@! TD*
G04 #@! TA.AperFunction,Conductor*
G04 #@! TO.N,GND*
G36*
X-3994483Y8807481D02*
G01*
X-3972276Y8776916D01*
X-3966065Y8763596D01*
X-3882404Y8679935D01*
X-3882403Y8679935D01*
X-3882402Y8679934D01*
X-3775176Y8629933D01*
X-3775175Y8629933D01*
X-3775173Y8629932D01*
X-3726316Y8623500D01*
X-3726315Y8623500D01*
X-3377686Y8623500D01*
X-3377684Y8623500D01*
X-3328827Y8629932D01*
X-3221596Y8679935D01*
X-3139102Y8762430D01*
X-3084587Y8790205D01*
X-3024155Y8780634D01*
X-2980890Y8737369D01*
X-2970100Y8692424D01*
X-2970100Y7164321D01*
X-2989007Y7106130D01*
X-3038507Y7070166D01*
X-3099693Y7070166D01*
X-3131905Y7087793D01*
X-3251458Y7185907D01*
X-3251460Y7185908D01*
X-3251462Y7185910D01*
X-3330639Y7228231D01*
X-3425268Y7278812D01*
X-3425270Y7278813D01*
X-3613871Y7336025D01*
X-3613874Y7336026D01*
X-3809997Y7355341D01*
X-3810003Y7355341D01*
X-4006127Y7336026D01*
X-4006130Y7336025D01*
X-4194731Y7278813D01*
X-4194733Y7278812D01*
X-4368533Y7185913D01*
X-4368543Y7185907D01*
X-4488095Y7087793D01*
X-4545072Y7065493D01*
X-4604275Y7080942D01*
X-4643090Y7128239D01*
X-4649900Y7164321D01*
X-4649900Y8144093D01*
X-4630993Y8202284D01*
X-4620910Y8214090D01*
X-4397899Y8437101D01*
X-4397896Y8437102D01*
X-4345103Y8489895D01*
X-4307773Y8554553D01*
X-4290777Y8617984D01*
X-4257454Y8669296D01*
X-4248596Y8674831D01*
X-4248691Y8674967D01*
X-4241600Y8679933D01*
X-4241600Y8679934D01*
X-4241596Y8679935D01*
X-4157935Y8763596D01*
X-4151725Y8776915D01*
X-4109997Y8821663D01*
X-4049936Y8833338D01*
X-3994483Y8807481D01*
G37*
G04 #@! TD.AperFunction*
G04 #@! TA.AperFunction,Conductor*
G36*
X-950483Y8807481D02*
G01*
X-928276Y8776916D01*
X-922065Y8763596D01*
X-838404Y8679935D01*
X-838403Y8679935D01*
X-838401Y8679933D01*
X-831309Y8674967D01*
X-832918Y8672670D01*
X-798266Y8640360D01*
X-789224Y8617985D01*
X-772227Y8554553D01*
X-772226Y8554549D01*
X-765516Y8542929D01*
X-765515Y8542925D01*
X-765514Y8542925D01*
X-765513Y8542924D01*
X-734897Y8489895D01*
X-682104Y8437102D01*
X-682102Y8437101D01*
X-552115Y8307114D01*
X-524338Y8252597D01*
X-533909Y8192165D01*
X-577174Y8148900D01*
X-622119Y8138110D01*
X-731265Y8138110D01*
X-732106Y8138056D01*
X-744363Y8138060D01*
X-853739Y8108789D01*
X-951804Y8052205D01*
X-951805Y8052205D01*
X-1031882Y7972165D01*
X-1088511Y7874126D01*
X-1117832Y7764774D01*
X-1117833Y7764769D01*
X-1117835Y7750791D01*
X-1117841Y7750677D01*
X-1117841Y7708144D01*
X-1117846Y7675936D01*
X-1117891Y7675798D01*
X-1117889Y7578281D01*
X-1117888Y7578279D01*
X-1089427Y7472082D01*
X-1092626Y7410980D01*
X-1131129Y7363428D01*
X-1190228Y7347589D01*
X-1194755Y7347931D01*
X-1269997Y7355341D01*
X-1270003Y7355341D01*
X-1466127Y7336026D01*
X-1466130Y7336025D01*
X-1654731Y7278813D01*
X-1654733Y7278812D01*
X-1828533Y7185913D01*
X-1828543Y7185907D01*
X-1948095Y7087793D01*
X-2005072Y7065493D01*
X-2064275Y7080942D01*
X-2103090Y7128239D01*
X-2109900Y7164321D01*
X-2109900Y8692424D01*
X-2090993Y8750615D01*
X-2041493Y8786579D01*
X-1980307Y8786579D01*
X-1940899Y8762430D01*
X-1858404Y8679935D01*
X-1858403Y8679935D01*
X-1858402Y8679934D01*
X-1751176Y8629933D01*
X-1751175Y8629933D01*
X-1751173Y8629932D01*
X-1702316Y8623500D01*
X-1702315Y8623500D01*
X-1353686Y8623500D01*
X-1353684Y8623500D01*
X-1304827Y8629932D01*
X-1197596Y8679935D01*
X-1113935Y8763596D01*
X-1107725Y8776915D01*
X-1065997Y8821663D01*
X-1005936Y8833338D01*
X-950483Y8807481D01*
G37*
G04 #@! TD.AperFunction*
G04 #@! TA.AperFunction,Conductor*
G36*
X1085517Y8807481D02*
G01*
X1107724Y8776916D01*
X1113935Y8763596D01*
X1197596Y8679935D01*
X1197597Y8679935D01*
X1197598Y8679934D01*
X1304824Y8629933D01*
X1304825Y8629933D01*
X1304827Y8629932D01*
X1353684Y8623500D01*
X1353685Y8623500D01*
X1702314Y8623500D01*
X1702316Y8623500D01*
X1751173Y8629932D01*
X1858404Y8679935D01*
X1940898Y8762430D01*
X1995413Y8790205D01*
X2055845Y8780634D01*
X2099110Y8737369D01*
X2109900Y8692424D01*
X2109900Y8515090D01*
X2090993Y8456899D01*
X2041493Y8420935D01*
X2010900Y8416090D01*
X1798789Y8416090D01*
X1798744Y8416094D01*
X1780889Y8416093D01*
X1780858Y8416103D01*
X1683266Y8416097D01*
X1683262Y8416097D01*
X1573906Y8386787D01*
X1475860Y8330176D01*
X1395809Y8250120D01*
X1395807Y8250117D01*
X1339200Y8152068D01*
X1309900Y8042710D01*
X1309900Y7971229D01*
X1309892Y7971133D01*
X1309894Y7953861D01*
X1309886Y7953837D01*
X1309896Y7856238D01*
X1309896Y7856236D01*
X1339208Y7746888D01*
X1395816Y7648855D01*
X1395820Y7648850D01*
X1475873Y7568801D01*
X1573915Y7512197D01*
X1683266Y7482892D01*
X1693104Y7482892D01*
X1693124Y7482890D01*
X1739871Y7482890D01*
X1789868Y7482887D01*
X1789869Y7482888D01*
X1798744Y7482887D01*
X1798789Y7482890D01*
X2010900Y7482890D01*
X2069091Y7463983D01*
X2105055Y7414483D01*
X2109900Y7383890D01*
X2109900Y7164321D01*
X2090993Y7106130D01*
X2041493Y7070166D01*
X1980307Y7070166D01*
X1948095Y7087793D01*
X1828542Y7185907D01*
X1828540Y7185908D01*
X1828538Y7185910D01*
X1749361Y7228231D01*
X1654732Y7278812D01*
X1654730Y7278813D01*
X1466129Y7336025D01*
X1466126Y7336026D01*
X1270003Y7355341D01*
X1269997Y7355341D01*
X1073873Y7336026D01*
X1073870Y7336025D01*
X885269Y7278813D01*
X885267Y7278812D01*
X711467Y7185913D01*
X711457Y7185907D01*
X591905Y7087793D01*
X534928Y7065493D01*
X475725Y7080942D01*
X436910Y7128239D01*
X430100Y7164321D01*
X430100Y8144093D01*
X449007Y8202284D01*
X459090Y8214090D01*
X682101Y8437101D01*
X682104Y8437102D01*
X734897Y8489895D01*
X772227Y8554553D01*
X789223Y8617984D01*
X822546Y8669296D01*
X831404Y8674831D01*
X831309Y8674967D01*
X838400Y8679933D01*
X838400Y8679934D01*
X838404Y8679935D01*
X922065Y8763596D01*
X928275Y8776915D01*
X970003Y8821663D01*
X1030064Y8833338D01*
X1085517Y8807481D01*
G37*
G04 #@! TD.AperFunction*
G04 #@! TA.AperFunction,Conductor*
G36*
X21042450Y8980328D02*
G01*
X21074419Y8928159D01*
X21075509Y8922276D01*
X21075932Y8920825D01*
X21125933Y8813599D01*
X21125934Y8813598D01*
X21125935Y8813596D01*
X21209596Y8729935D01*
X21232337Y8719331D01*
X21277086Y8677604D01*
X21289500Y8629606D01*
X21289500Y8420479D01*
X21270593Y8362288D01*
X21260504Y8350475D01*
X20986525Y8076496D01*
X20932008Y8048719D01*
X20916521Y8047500D01*
X20407435Y8047500D01*
X20331011Y8027022D01*
X20276296Y7995431D01*
X20276294Y7995430D01*
X20262493Y7987463D01*
X20262485Y7987457D01*
X19564268Y7289242D01*
X19509752Y7261465D01*
X19449320Y7271036D01*
X19447599Y7271934D01*
X19434727Y7278814D01*
X19246129Y7336025D01*
X19246126Y7336026D01*
X19050003Y7355341D01*
X19049997Y7355341D01*
X18853873Y7336026D01*
X18853870Y7336025D01*
X18665269Y7278813D01*
X18665267Y7278812D01*
X18491467Y7185913D01*
X18491457Y7185907D01*
X18373905Y7089434D01*
X18316928Y7067134D01*
X18257725Y7082583D01*
X18218910Y7129880D01*
X18212100Y7165962D01*
X18212100Y8524500D01*
X18231007Y8582691D01*
X18280507Y8618655D01*
X18311100Y8623500D01*
X18462314Y8623500D01*
X18462316Y8623500D01*
X18511173Y8629932D01*
X18618404Y8679935D01*
X18702065Y8763596D01*
X18708275Y8776915D01*
X18750003Y8821663D01*
X18810064Y8833338D01*
X18865517Y8807481D01*
X18887724Y8776916D01*
X18893935Y8763596D01*
X18977596Y8679935D01*
X18977597Y8679935D01*
X18977598Y8679934D01*
X19084824Y8629933D01*
X19084825Y8629933D01*
X19084827Y8629932D01*
X19133684Y8623500D01*
X19133685Y8623500D01*
X19482314Y8623500D01*
X19482316Y8623500D01*
X19531173Y8629932D01*
X19638404Y8679935D01*
X19652918Y8694451D01*
X19674420Y8710752D01*
X19679668Y8713701D01*
X19739660Y8725722D01*
X19766240Y8718776D01*
X20077081Y8589258D01*
X20077085Y8589257D01*
X20077090Y8589255D01*
X20092913Y8586072D01*
X20111264Y8580484D01*
X20163238Y8558956D01*
X20280809Y8543478D01*
X20319999Y8538318D01*
X20320000Y8538318D01*
X20320001Y8538318D01*
X20355024Y8542929D01*
X20476762Y8558956D01*
X20622841Y8619464D01*
X20748282Y8715718D01*
X20844536Y8841159D01*
X20886692Y8942934D01*
X20926427Y8989458D01*
X20985921Y9003742D01*
X21042450Y8980328D01*
G37*
G04 #@! TD.AperFunction*
G04 #@! TA.AperFunction,Conductor*
G36*
X5257960Y17110217D02*
G01*
X5283015Y17092014D01*
X6159540Y16215489D01*
X6159539Y16215489D01*
X6215489Y16159540D01*
X6284007Y16119981D01*
X6284011Y16119979D01*
X6360435Y16099501D01*
X6360437Y16099500D01*
X6360438Y16099500D01*
X18434521Y16099500D01*
X18492712Y16080593D01*
X18504525Y16070504D01*
X21260504Y13314525D01*
X21288281Y13260008D01*
X21289500Y13244521D01*
X21289500Y10678396D01*
X21270593Y10620205D01*
X21232341Y10588672D01*
X21209598Y10578067D01*
X21125933Y10494402D01*
X21075932Y10387176D01*
X21075932Y10387175D01*
X21074630Y10377281D01*
X21069500Y10338316D01*
X21069500Y9989684D01*
X21073263Y9961102D01*
X21075932Y9940826D01*
X21075932Y9940825D01*
X21125933Y9833599D01*
X21125934Y9833598D01*
X21125935Y9833596D01*
X21209596Y9749935D01*
X21209597Y9749935D01*
X21209598Y9749934D01*
X21222915Y9743724D01*
X21267663Y9701995D01*
X21279337Y9641934D01*
X21253478Y9586482D01*
X21222915Y9564276D01*
X21209598Y9558067D01*
X21125933Y9474402D01*
X21075932Y9367176D01*
X21073813Y9359902D01*
X21071764Y9360499D01*
X21049955Y9314795D01*
X20996180Y9285609D01*
X20935519Y9293605D01*
X20891144Y9335730D01*
X20886689Y9345074D01*
X20883515Y9352738D01*
X20877924Y9371100D01*
X20874745Y9386908D01*
X20861301Y9419173D01*
X20628115Y9978823D01*
X20620500Y10016900D01*
X20620500Y10019563D01*
X20620499Y10019565D01*
X20605938Y10073905D01*
X20600021Y10095989D01*
X20596030Y10102901D01*
X20560460Y10164511D01*
X20504511Y10220461D01*
X20504511Y10220460D01*
X20279496Y10445475D01*
X20251719Y10499992D01*
X20250500Y10515479D01*
X20250500Y12039563D01*
X20250499Y12039565D01*
X20230021Y12115989D01*
X20230019Y12115993D01*
X20190460Y12184511D01*
X20134512Y12240460D01*
X19942511Y12432460D01*
X19912103Y12450017D01*
X19912103Y12450016D01*
X19873989Y12472021D01*
X19873988Y12472022D01*
X19873987Y12472022D01*
X19867995Y12474504D01*
X19868162Y12474909D01*
X19842799Y12486875D01*
X19821502Y12502071D01*
X19726594Y12569791D01*
X19714100Y12580370D01*
X19638404Y12656065D01*
X19638401Y12656067D01*
X19531175Y12706068D01*
X19498601Y12710356D01*
X19482316Y12712500D01*
X19133684Y12712500D01*
X19117398Y12710356D01*
X19084825Y12706068D01*
X19084824Y12706068D01*
X18977598Y12656067D01*
X18893933Y12572402D01*
X18887724Y12559085D01*
X18845995Y12514337D01*
X18785934Y12502663D01*
X18730482Y12528522D01*
X18708276Y12559085D01*
X18702066Y12572402D01*
X18702065Y12572403D01*
X18702065Y12572404D01*
X18618404Y12656065D01*
X18618402Y12656066D01*
X18618399Y12656069D01*
X18611307Y12661035D01*
X18612913Y12663330D01*
X18578256Y12695655D01*
X18569223Y12718016D01*
X18552227Y12781447D01*
X18514897Y12846105D01*
X18462104Y12898898D01*
X18462101Y12898900D01*
X18239096Y13121905D01*
X18211319Y13176422D01*
X18210100Y13191909D01*
X18210100Y13814032D01*
X18210100Y13814034D01*
X18208466Y13820131D01*
X18196349Y13865354D01*
X18190777Y13886150D01*
X18153447Y13950808D01*
X18100654Y14003601D01*
X18100651Y14003603D01*
X17305602Y14798652D01*
X17305601Y14798654D01*
X17252808Y14851447D01*
X17211818Y14875112D01*
X17211816Y14875114D01*
X17211816Y14875113D01*
X17188153Y14888776D01*
X17188152Y14888777D01*
X17188151Y14888777D01*
X17116034Y14908101D01*
X17041374Y14908101D01*
X17035311Y14908101D01*
X17035295Y14908100D01*
X5680163Y14908100D01*
X5621972Y14927007D01*
X5610159Y14937096D01*
X4959096Y15588159D01*
X4931319Y15642676D01*
X4930100Y15658163D01*
X4930100Y16838091D01*
X4949007Y16896282D01*
X4959096Y16908094D01*
X5143011Y17092010D01*
X5197528Y17119788D01*
X5257960Y17110217D01*
G37*
G04 #@! TD.AperFunction*
G04 #@! TA.AperFunction,Conductor*
G36*
X18865517Y11855481D02*
G01*
X18887724Y11824916D01*
X18893935Y11811596D01*
X18977596Y11727935D01*
X18977597Y11727935D01*
X18977598Y11727934D01*
X19084824Y11677933D01*
X19084825Y11677933D01*
X19084827Y11677932D01*
X19133684Y11671500D01*
X19133685Y11671500D01*
X19482314Y11671500D01*
X19482316Y11671500D01*
X19531173Y11677932D01*
X19531175Y11677934D01*
X19537577Y11678776D01*
X19597738Y11667626D01*
X19639855Y11623245D01*
X19649500Y11580623D01*
X19649500Y10310436D01*
X19669978Y10234012D01*
X19669979Y10234010D01*
X19689319Y10200514D01*
X19689319Y10200511D01*
X19689320Y10200511D01*
X19689321Y10200510D01*
X19709540Y10165489D01*
X19930981Y9944048D01*
X19958757Y9889533D01*
X19952360Y9835969D01*
X19872647Y9644660D01*
X19832813Y9598217D01*
X19819341Y9591353D01*
X19766242Y9569228D01*
X19705255Y9564299D01*
X19679671Y9574302D01*
X19674424Y9577250D01*
X19652915Y9593555D01*
X19638404Y9608065D01*
X19638401Y9608067D01*
X19531175Y9658068D01*
X19498601Y9662356D01*
X19482316Y9664500D01*
X19133684Y9664500D01*
X19117398Y9662356D01*
X19084825Y9658068D01*
X19084824Y9658068D01*
X18977598Y9608067D01*
X18893933Y9524402D01*
X18887724Y9511085D01*
X18845995Y9466337D01*
X18785934Y9454663D01*
X18730482Y9480522D01*
X18708276Y9511085D01*
X18702066Y9524402D01*
X18702065Y9524403D01*
X18702065Y9524404D01*
X18641738Y9584731D01*
X18613963Y9639245D01*
X18623534Y9699677D01*
X18650336Y9730507D01*
X18650191Y9730652D01*
X18652273Y9732735D01*
X18654969Y9735835D01*
X18656303Y9736771D01*
X18656316Y9736776D01*
X18741224Y9821684D01*
X18791972Y9930513D01*
X18798500Y9980099D01*
X18798499Y10339900D01*
X18791972Y10389487D01*
X18791972Y10389489D01*
X18741225Y10498314D01*
X18741224Y10498315D01*
X18741224Y10498316D01*
X18669541Y10569999D01*
X18641766Y10624513D01*
X18651337Y10684945D01*
X18669540Y10710001D01*
X18741224Y10781684D01*
X18791972Y10890513D01*
X18798500Y10940099D01*
X18798499Y11299900D01*
X18791972Y11349487D01*
X18791972Y11349489D01*
X18741225Y11458314D01*
X18741224Y11458315D01*
X18741224Y11458316D01*
X18656316Y11543224D01*
X18656314Y11543225D01*
X18656313Y11543226D01*
X18645659Y11548194D01*
X18600912Y11589924D01*
X18588500Y11637918D01*
X18588500Y11657024D01*
X18607407Y11715215D01*
X18617496Y11727028D01*
X18618402Y11727935D01*
X18618404Y11727935D01*
X18702065Y11811596D01*
X18708275Y11824915D01*
X18750003Y11869663D01*
X18810064Y11881338D01*
X18865517Y11855481D01*
G37*
G04 #@! TD.AperFunction*
G04 #@! TA.AperFunction,Conductor*
G36*
X-1952855Y14500594D02*
G01*
X-1916891Y14451094D01*
X-1916891Y14389908D01*
X-1941041Y14350500D01*
X-1953224Y14338316D01*
X-1953226Y14338314D01*
X-2003971Y14229490D01*
X-2003972Y14229489D01*
X-2010500Y14179900D01*
X-2010500Y13820105D01*
X-2010499Y13820093D01*
X-2003973Y13770514D01*
X-2003973Y13770512D01*
X-1953226Y13661687D01*
X-1953225Y13661686D01*
X-1953224Y13661684D01*
X-1881542Y13590002D01*
X-1853766Y13535487D01*
X-1863337Y13475055D01*
X-1881541Y13450000D01*
X-1935817Y13395723D01*
X-1953226Y13378314D01*
X-2003971Y13269490D01*
X-2003972Y13269489D01*
X-2010500Y13219900D01*
X-2010500Y12860105D01*
X-2010499Y12860093D01*
X-2003973Y12810514D01*
X-2003973Y12810513D01*
X-1953226Y12701687D01*
X-1953225Y12701686D01*
X-1953224Y12701684D01*
X-1898236Y12646696D01*
X-1870460Y12592181D01*
X-1880031Y12531749D01*
X-1923296Y12488484D01*
X-1983728Y12478913D01*
X-1994118Y12481842D01*
X-1994279Y12481239D01*
X-2000545Y12482918D01*
X-2109886Y12512212D01*
X-2109887Y12512213D01*
X-2109890Y12512213D01*
X-2223071Y12512216D01*
X-2223083Y12512216D01*
X-2223084Y12512216D01*
X-2223087Y12512216D01*
X-2332422Y12482932D01*
X-2332426Y12482931D01*
X-2332426Y12482930D01*
X-2351326Y12472022D01*
X-2430467Y12426347D01*
X-2430470Y12426345D01*
X-2439597Y12417221D01*
X-2439694Y12417136D01*
X-2470500Y12386330D01*
X-2493323Y12363519D01*
X-2493448Y12363456D01*
X-2562391Y12294507D01*
X-2619006Y12196428D01*
X-2648300Y12087045D01*
X-2648281Y11973805D01*
X-2618948Y11864431D01*
X-2618946Y11864427D01*
X-2610138Y11849181D01*
X-2597399Y11789337D01*
X-2622269Y11733434D01*
X-2625856Y11729653D01*
X-2860652Y11494856D01*
X-2860652Y11494855D01*
X-2860654Y11494853D01*
X-2860655Y11494854D01*
X-2913445Y11442063D01*
X-2913447Y11442061D01*
X-2913447Y11442060D01*
X-2928894Y11415305D01*
X-2928895Y11415303D01*
X-2928896Y11415304D01*
X-2950776Y11377407D01*
X-2950778Y11377403D01*
X-2970101Y11305289D01*
X-2970101Y11287500D01*
X-2989008Y11229309D01*
X-3038508Y11193345D01*
X-3069101Y11188500D01*
X-3222316Y11188500D01*
X-3238602Y11186356D01*
X-3271175Y11182068D01*
X-3271176Y11182068D01*
X-3378402Y11132067D01*
X-3462067Y11048402D01*
X-3468276Y11035085D01*
X-3510005Y10990337D01*
X-3570066Y10978663D01*
X-3625518Y11004522D01*
X-3647724Y11035085D01*
X-3653934Y11048402D01*
X-3653935Y11048403D01*
X-3653935Y11048404D01*
X-3737596Y11132065D01*
X-3737598Y11132066D01*
X-3737599Y11132067D01*
X-3844825Y11182068D01*
X-3877399Y11186356D01*
X-3893684Y11188500D01*
X-4242316Y11188500D01*
X-4258602Y11186356D01*
X-4291175Y11182068D01*
X-4291176Y11182068D01*
X-4398402Y11132067D01*
X-4398404Y11132066D01*
X-4398404Y11132065D01*
X-4480899Y11049571D01*
X-4535413Y11021795D01*
X-4595845Y11031366D01*
X-4639110Y11074631D01*
X-4649900Y11119576D01*
X-4649900Y11908092D01*
X-4630993Y11966283D01*
X-4620904Y11978096D01*
X-2108495Y14490505D01*
X-2053978Y14518282D01*
X-2038491Y14519501D01*
X-2011046Y14519501D01*
X-1952855Y14500594D01*
G37*
G04 #@! TD.AperFunction*
G04 #@! TA.AperFunction,Conductor*
G36*
X15845Y12667563D02*
G01*
X59110Y12624298D01*
X69900Y12579353D01*
X69900Y11895163D01*
X50993Y11836972D01*
X40904Y11825159D01*
X-320652Y11463603D01*
X-320654Y11463601D01*
X-320655Y11463602D01*
X-373448Y11410808D01*
X-373452Y11410804D01*
X-391508Y11379526D01*
X-391509Y11379523D01*
X-410776Y11346155D01*
X-410780Y11346145D01*
X-430101Y11274037D01*
X-430101Y11191400D01*
X-430100Y11191387D01*
X-430100Y11119576D01*
X-449007Y11061385D01*
X-498507Y11025421D01*
X-559693Y11025421D01*
X-599102Y11049571D01*
X-681596Y11132065D01*
X-681598Y11132066D01*
X-681599Y11132067D01*
X-788825Y11182068D01*
X-821399Y11186356D01*
X-837684Y11188500D01*
X-1186316Y11188500D01*
X-1202602Y11186356D01*
X-1235175Y11182068D01*
X-1235176Y11182068D01*
X-1342402Y11132067D01*
X-1426067Y11048402D01*
X-1432276Y11035085D01*
X-1474005Y10990337D01*
X-1534066Y10978663D01*
X-1589518Y11004522D01*
X-1611724Y11035085D01*
X-1617934Y11048402D01*
X-1617935Y11048403D01*
X-1617935Y11048404D01*
X-1701596Y11132065D01*
X-1781696Y11169417D01*
X-1826441Y11211143D01*
X-1838116Y11271204D01*
X-1812258Y11326657D01*
X-1809886Y11329115D01*
X-608495Y12530505D01*
X-553978Y12558282D01*
X-538491Y12559501D01*
X-290103Y12559501D01*
X-290100Y12559501D01*
X-240513Y12566028D01*
X-240512Y12566028D01*
X-174246Y12596929D01*
X-131684Y12616776D01*
X-99102Y12649359D01*
X-44587Y12677134D01*
X15845Y12667563D01*
G37*
G04 #@! TD.AperFunction*
G04 #@! TA.AperFunction,Conductor*
G36*
X1099101Y12649359D02*
G01*
X1131684Y12616776D01*
X1240513Y12566028D01*
X1290099Y12559500D01*
X1538491Y12559501D01*
X1596681Y12540594D01*
X1608495Y12530505D01*
X2080904Y12058096D01*
X2108681Y12003579D01*
X2109900Y11988092D01*
X2109900Y11667909D01*
X2090993Y11609718D01*
X2080903Y11597905D01*
X1857897Y11374901D01*
X1857898Y11374900D01*
X1857896Y11374898D01*
X1857895Y11374899D01*
X1805102Y11322105D01*
X1786221Y11289402D01*
X1786221Y11289400D01*
X1767773Y11257448D01*
X1767772Y11257446D01*
X1767771Y11257443D01*
X1750775Y11194016D01*
X1717450Y11142702D01*
X1708593Y11137168D01*
X1708689Y11137031D01*
X1701597Y11132066D01*
X1617933Y11048402D01*
X1611724Y11035085D01*
X1569995Y10990337D01*
X1509934Y10978663D01*
X1454482Y11004522D01*
X1432276Y11035085D01*
X1426066Y11048402D01*
X1426065Y11048403D01*
X1426065Y11048404D01*
X1342404Y11132065D01*
X1342402Y11132066D01*
X1342401Y11132067D01*
X1235175Y11182068D01*
X1202601Y11186356D01*
X1186316Y11188500D01*
X859762Y11188500D01*
X801571Y11207407D01*
X765607Y11256907D01*
X765607Y11318093D01*
X789756Y11357502D01*
X873447Y11441192D01*
X910777Y11505849D01*
X930101Y11577966D01*
X930101Y11652626D01*
X930101Y11658688D01*
X930100Y11658706D01*
X930100Y12579353D01*
X949007Y12637544D01*
X998507Y12673508D01*
X1059693Y12673508D01*
X1099101Y12649359D01*
G37*
G04 #@! TD.AperFunction*
G04 #@! TA.AperFunction,Conductor*
G36*
X30465910Y32015593D02*
G01*
X30477723Y32005504D01*
X31645504Y30837723D01*
X31673281Y30783206D01*
X31674500Y30767719D01*
X31674500Y1342281D01*
X31655593Y1284090D01*
X31645504Y1272277D01*
X30477723Y104496D01*
X30423206Y76719D01*
X30407719Y75500D01*
X-7547719Y75500D01*
X-7605910Y94407D01*
X-7617723Y104496D01*
X-8785504Y1272277D01*
X-8813281Y1326794D01*
X-8814500Y1342281D01*
X-8814500Y3809997D01*
X-7355341Y3809997D01*
X-7336026Y3613874D01*
X-7336025Y3613871D01*
X-7278813Y3425270D01*
X-7278812Y3425268D01*
X-7207782Y3292382D01*
X-7185910Y3251462D01*
X-7185908Y3251460D01*
X-7185907Y3251458D01*
X-7060888Y3099122D01*
X-7060879Y3099113D01*
X-6909046Y2974507D01*
X-6908538Y2974090D01*
X-6734727Y2881186D01*
X-6546132Y2823976D01*
X-6546130Y2823976D01*
X-6546127Y2823975D01*
X-6350003Y2804659D01*
X-6350000Y2804659D01*
X-6349997Y2804659D01*
X-6153874Y2823975D01*
X-6153873Y2823976D01*
X-6153868Y2823976D01*
X-5965273Y2881186D01*
X-5791462Y2974090D01*
X-5639117Y3099117D01*
X-5514090Y3251462D01*
X-5421186Y3425273D01*
X-5363976Y3613868D01*
X-5363965Y3613972D01*
X-5349846Y3757339D01*
X-5344659Y3810000D01*
X-5344659Y3810004D01*
X-5344422Y3812412D01*
X-5319903Y3868469D01*
X-5310737Y3877522D01*
X-5144777Y4021327D01*
X-5056270Y4123471D01*
X-4985532Y4205104D01*
X-4985531Y4205107D01*
X-4985523Y4205115D01*
X-4854046Y4409697D01*
X-4753023Y4630908D01*
X-4684509Y4864245D01*
X-4667205Y4984601D01*
X-4649900Y5104951D01*
X-4649900Y5535680D01*
X-4630993Y5593871D01*
X-4581493Y5629835D01*
X-4520307Y5629835D01*
X-4488095Y5612208D01*
X-4388219Y5530242D01*
X-4368538Y5514090D01*
X-4194727Y5421186D01*
X-4006132Y5363976D01*
X-4006130Y5363976D01*
X-4006127Y5363975D01*
X-3810003Y5344659D01*
X-3810000Y5344659D01*
X-3809997Y5344659D01*
X-3613874Y5363975D01*
X-3613873Y5363976D01*
X-3613868Y5363976D01*
X-3526571Y5390458D01*
X-3465397Y5389257D01*
X-3463972Y5388750D01*
X-3372921Y5355610D01*
X-3319642Y5336218D01*
X-3139474Y5304450D01*
X-3085330Y5304450D01*
X-2837409Y5304450D01*
X-2837393Y5304449D01*
X-2778224Y5304449D01*
X-2720033Y5285542D01*
X-2684069Y5236042D01*
X-2679602Y5196821D01*
X-2681275Y5177685D01*
X-2693458Y5038438D01*
X-2696454Y5021444D01*
X-2743088Y4847403D01*
X-2748991Y4831187D01*
X-2825132Y4667903D01*
X-2833760Y4652958D01*
X-2930988Y4514103D01*
X-2979853Y4477281D01*
X-3041029Y4476213D01*
X-3088612Y4508083D01*
X-3099117Y4520883D01*
X-3139920Y4554370D01*
X-3251458Y4645907D01*
X-3251460Y4645908D01*
X-3251462Y4645910D01*
X-3294440Y4668882D01*
X-3425268Y4738812D01*
X-3425270Y4738813D01*
X-3613871Y4796025D01*
X-3613874Y4796026D01*
X-3809997Y4815341D01*
X-3810003Y4815341D01*
X-4006127Y4796026D01*
X-4006130Y4796025D01*
X-4194731Y4738813D01*
X-4194733Y4738812D01*
X-4368533Y4645913D01*
X-4368543Y4645907D01*
X-4520879Y4520888D01*
X-4520888Y4520879D01*
X-4645907Y4368543D01*
X-4645913Y4368533D01*
X-4738812Y4194733D01*
X-4738813Y4194731D01*
X-4796025Y4006130D01*
X-4796026Y4006127D01*
X-4815341Y3810004D01*
X-4815341Y3809997D01*
X-4796026Y3613874D01*
X-4796025Y3613871D01*
X-4738813Y3425270D01*
X-4738812Y3425268D01*
X-4667782Y3292382D01*
X-4645910Y3251462D01*
X-4645908Y3251460D01*
X-4645907Y3251458D01*
X-4520888Y3099122D01*
X-4520879Y3099113D01*
X-4369046Y2974507D01*
X-4368538Y2974090D01*
X-4194727Y2881186D01*
X-4006132Y2823976D01*
X-4006130Y2823976D01*
X-4006127Y2823975D01*
X-3810003Y2804659D01*
X-3810000Y2804659D01*
X-3809997Y2804659D01*
X-3613874Y2823975D01*
X-3613873Y2823976D01*
X-3613868Y2823976D01*
X-3425273Y2881186D01*
X-3251462Y2974090D01*
X-3099117Y3099117D01*
X-2974090Y3251462D01*
X-2881186Y3425273D01*
X-2823976Y3613868D01*
X-2823965Y3613972D01*
X-2809846Y3757339D01*
X-2804659Y3810000D01*
X-2804659Y3810004D01*
X-2804422Y3812412D01*
X-2779903Y3868469D01*
X-2770737Y3877522D01*
X-2604777Y4021327D01*
X-2516270Y4123471D01*
X-2445532Y4205104D01*
X-2445531Y4205107D01*
X-2445523Y4205115D01*
X-2314046Y4409697D01*
X-2213023Y4630908D01*
X-2144509Y4864245D01*
X-2127205Y4984601D01*
X-2109900Y5104951D01*
X-2109900Y5535680D01*
X-2090993Y5593871D01*
X-2041493Y5629835D01*
X-1980307Y5629835D01*
X-1948095Y5612208D01*
X-1848219Y5530242D01*
X-1828538Y5514090D01*
X-1654727Y5421186D01*
X-1466132Y5363976D01*
X-1466130Y5363976D01*
X-1466127Y5363975D01*
X-1270003Y5344659D01*
X-1270000Y5344659D01*
X-1269997Y5344659D01*
X-1073874Y5363975D01*
X-1073873Y5363976D01*
X-1073868Y5363976D01*
X-986571Y5390458D01*
X-925397Y5389257D01*
X-923972Y5388750D01*
X-832921Y5355610D01*
X-779642Y5336218D01*
X-599474Y5304450D01*
X-545330Y5304450D01*
X-297409Y5304450D01*
X-297393Y5304449D01*
X-238222Y5304449D01*
X-180031Y5285542D01*
X-144067Y5236042D01*
X-139599Y5196817D01*
X-153464Y5038401D01*
X-156461Y5021407D01*
X-203098Y4847377D01*
X-209001Y4831161D01*
X-285146Y4667879D01*
X-293774Y4652935D01*
X-390989Y4514103D01*
X-439854Y4477282D01*
X-501031Y4476215D01*
X-548611Y4508083D01*
X-559112Y4520878D01*
X-559122Y4520888D01*
X-711458Y4645907D01*
X-711460Y4645908D01*
X-711462Y4645910D01*
X-754440Y4668882D01*
X-885268Y4738812D01*
X-885270Y4738813D01*
X-1073871Y4796025D01*
X-1073874Y4796026D01*
X-1269997Y4815341D01*
X-1270003Y4815341D01*
X-1466127Y4796026D01*
X-1466130Y4796025D01*
X-1654731Y4738813D01*
X-1654733Y4738812D01*
X-1828533Y4645913D01*
X-1828543Y4645907D01*
X-1980879Y4520888D01*
X-1980888Y4520879D01*
X-2105907Y4368543D01*
X-2105913Y4368533D01*
X-2198812Y4194733D01*
X-2198813Y4194731D01*
X-2256025Y4006130D01*
X-2256026Y4006127D01*
X-2275341Y3810004D01*
X-2275341Y3809997D01*
X-2256026Y3613874D01*
X-2256025Y3613871D01*
X-2198813Y3425270D01*
X-2198812Y3425268D01*
X-2127782Y3292382D01*
X-2105910Y3251462D01*
X-2105908Y3251460D01*
X-2105907Y3251458D01*
X-1980888Y3099122D01*
X-1980879Y3099113D01*
X-1829046Y2974507D01*
X-1828538Y2974090D01*
X-1654727Y2881186D01*
X-1466132Y2823976D01*
X-1466130Y2823976D01*
X-1466127Y2823975D01*
X-1270003Y2804659D01*
X-1270000Y2804659D01*
X-1269997Y2804659D01*
X-1073874Y2823975D01*
X-1073873Y2823976D01*
X-1073868Y2823976D01*
X-885273Y2881186D01*
X-711462Y2974090D01*
X-559117Y3099117D01*
X-434090Y3251462D01*
X-341186Y3425273D01*
X-283976Y3613868D01*
X-283965Y3613972D01*
X-264421Y3812414D01*
X-239902Y3868472D01*
X-230728Y3877531D01*
X-64798Y4021306D01*
X94456Y4205087D01*
X225934Y4409661D01*
X326961Y4630865D01*
X395480Y4864194D01*
X430096Y5104899D01*
X430097Y5177690D01*
X430100Y5177704D01*
X430100Y5228560D01*
X430100Y5236042D01*
X430102Y5276537D01*
X430100Y5276541D01*
X430101Y5284501D01*
X430100Y5284527D01*
X430100Y5535680D01*
X449007Y5593871D01*
X498507Y5629835D01*
X559693Y5629835D01*
X591905Y5612208D01*
X691781Y5530242D01*
X711462Y5514090D01*
X885273Y5421186D01*
X1073868Y5363976D01*
X1073870Y5363976D01*
X1073873Y5363975D01*
X1269997Y5344659D01*
X1270000Y5344659D01*
X1270003Y5344659D01*
X1466126Y5363975D01*
X1466127Y5363976D01*
X1466132Y5363976D01*
X1553429Y5390458D01*
X1614603Y5389257D01*
X1616028Y5388750D01*
X1707079Y5355610D01*
X1760358Y5336218D01*
X1940526Y5304450D01*
X1994670Y5304450D01*
X2242591Y5304450D01*
X2242607Y5304449D01*
X2301778Y5304449D01*
X2359969Y5285542D01*
X2395933Y5236042D01*
X2400401Y5196817D01*
X2386536Y5038401D01*
X2383539Y5021407D01*
X2336902Y4847377D01*
X2330999Y4831161D01*
X2254854Y4667879D01*
X2246226Y4652935D01*
X2149011Y4514103D01*
X2100146Y4477282D01*
X2038969Y4476215D01*
X1991389Y4508083D01*
X1980888Y4520878D01*
X1980878Y4520888D01*
X1828542Y4645907D01*
X1828540Y4645908D01*
X1828538Y4645910D01*
X1785560Y4668882D01*
X1654732Y4738812D01*
X1654730Y4738813D01*
X1466129Y4796025D01*
X1466126Y4796026D01*
X1270003Y4815341D01*
X1269997Y4815341D01*
X1073873Y4796026D01*
X1073870Y4796025D01*
X885269Y4738813D01*
X885267Y4738812D01*
X711467Y4645913D01*
X711457Y4645907D01*
X559121Y4520888D01*
X559112Y4520879D01*
X434093Y4368543D01*
X434087Y4368533D01*
X341188Y4194733D01*
X341187Y4194731D01*
X283975Y4006130D01*
X283974Y4006127D01*
X264659Y3810004D01*
X264659Y3809997D01*
X283974Y3613874D01*
X283975Y3613871D01*
X341187Y3425270D01*
X341188Y3425268D01*
X412218Y3292382D01*
X434090Y3251462D01*
X434092Y3251460D01*
X434093Y3251458D01*
X559112Y3099122D01*
X559121Y3099113D01*
X710954Y2974507D01*
X711462Y2974090D01*
X885273Y2881186D01*
X1073868Y2823976D01*
X1073870Y2823976D01*
X1073873Y2823975D01*
X1269997Y2804659D01*
X1270000Y2804659D01*
X1270003Y2804659D01*
X1466126Y2823975D01*
X1466127Y2823976D01*
X1466132Y2823976D01*
X1654727Y2881186D01*
X1828538Y2974090D01*
X1980883Y3099117D01*
X2105910Y3251462D01*
X2198814Y3425273D01*
X2256024Y3613868D01*
X2256035Y3613972D01*
X2265493Y3710000D01*
X2815009Y3710000D01*
X2824467Y3613972D01*
X2824468Y3613966D01*
X2881650Y3425465D01*
X2881652Y3425460D01*
X2974502Y3251748D01*
X2974506Y3251742D01*
X3099468Y3099477D01*
X3099476Y3099469D01*
X3251741Y2974507D01*
X3251747Y2974503D01*
X3425459Y2881653D01*
X3425464Y2881651D01*
X3613968Y2824469D01*
X3709999Y2815011D01*
X3710000Y2815012D01*
X3710000Y3422685D01*
X3757339Y3410000D01*
X3862661Y3410000D01*
X3910000Y3422685D01*
X3910000Y2815011D01*
X4006031Y2824469D01*
X4194535Y2881651D01*
X4194540Y2881653D01*
X4368252Y2974503D01*
X4368258Y2974507D01*
X4520523Y3099469D01*
X4520531Y3099477D01*
X4645493Y3251742D01*
X4645497Y3251748D01*
X4738347Y3425460D01*
X4738349Y3425465D01*
X4795531Y3613966D01*
X4795532Y3613972D01*
X4804991Y3710000D01*
X4197316Y3710000D01*
X4210000Y3757339D01*
X4210000Y3809997D01*
X5344659Y3809997D01*
X5363974Y3613874D01*
X5363975Y3613871D01*
X5421187Y3425270D01*
X5421188Y3425268D01*
X5492218Y3292382D01*
X5514090Y3251462D01*
X5514092Y3251460D01*
X5514093Y3251458D01*
X5639112Y3099122D01*
X5639121Y3099113D01*
X5790954Y2974507D01*
X5791462Y2974090D01*
X5965273Y2881186D01*
X6153868Y2823976D01*
X6153870Y2823976D01*
X6153873Y2823975D01*
X6349997Y2804659D01*
X6350000Y2804659D01*
X6350003Y2804659D01*
X6546126Y2823975D01*
X6546127Y2823976D01*
X6546132Y2823976D01*
X6734727Y2881186D01*
X6908538Y2974090D01*
X7060883Y3099117D01*
X7185910Y3251462D01*
X7278814Y3425273D01*
X7336024Y3613868D01*
X7336035Y3613972D01*
X7355341Y3809997D01*
X7355341Y3810004D01*
X7336025Y4006127D01*
X7336024Y4006130D01*
X7336024Y4006132D01*
X7278814Y4194727D01*
X7273276Y4205087D01*
X7186062Y4368253D01*
X7185910Y4368538D01*
X7152133Y4409695D01*
X7060887Y4520879D01*
X7060878Y4520888D01*
X6908542Y4645907D01*
X6908540Y4645908D01*
X6908538Y4645910D01*
X6865560Y4668882D01*
X6734732Y4738812D01*
X6734730Y4738813D01*
X6546129Y4796025D01*
X6546126Y4796026D01*
X6350003Y4815341D01*
X6349997Y4815341D01*
X6153873Y4796026D01*
X6153870Y4796025D01*
X5965269Y4738813D01*
X5965267Y4738812D01*
X5791467Y4645913D01*
X5791457Y4645907D01*
X5639121Y4520888D01*
X5639112Y4520879D01*
X5514093Y4368543D01*
X5514087Y4368533D01*
X5421188Y4194733D01*
X5421187Y4194731D01*
X5363975Y4006130D01*
X5363974Y4006127D01*
X5344659Y3810004D01*
X5344659Y3809997D01*
X4210000Y3809997D01*
X4210000Y3862661D01*
X4197316Y3910000D01*
X4804990Y3910000D01*
X4804990Y3910001D01*
X4795532Y4006029D01*
X4795531Y4006035D01*
X4738349Y4194536D01*
X4738347Y4194541D01*
X4645497Y4368253D01*
X4645493Y4368259D01*
X4520531Y4520524D01*
X4520523Y4520532D01*
X4368258Y4645494D01*
X4368252Y4645498D01*
X4194540Y4738348D01*
X4194535Y4738350D01*
X4006034Y4795532D01*
X4006028Y4795533D01*
X3910000Y4804991D01*
X3910000Y4197316D01*
X3862661Y4210000D01*
X3757339Y4210000D01*
X3710000Y4197316D01*
X3710000Y4804991D01*
X3709999Y4804991D01*
X3613971Y4795533D01*
X3613965Y4795532D01*
X3425464Y4738350D01*
X3425459Y4738348D01*
X3251747Y4645498D01*
X3251741Y4645494D01*
X3099476Y4520532D01*
X3099468Y4520524D01*
X2974506Y4368259D01*
X2974502Y4368253D01*
X2881652Y4194541D01*
X2881650Y4194536D01*
X2824468Y4006035D01*
X2824467Y4006029D01*
X2815009Y3910001D01*
X2815010Y3910000D01*
X3422684Y3910000D01*
X3410000Y3862661D01*
X3410000Y3757339D01*
X3422684Y3710000D01*
X2815009Y3710000D01*
X2265493Y3710000D01*
X2275579Y3812414D01*
X2300098Y3868472D01*
X2309272Y3877531D01*
X2475202Y4021306D01*
X2634456Y4205087D01*
X2765934Y4409661D01*
X2866961Y4630865D01*
X2935480Y4864194D01*
X2970096Y5104899D01*
X2970097Y5177690D01*
X2970100Y5177704D01*
X2970100Y5228560D01*
X2970100Y5236042D01*
X2970102Y5276537D01*
X2970100Y5276541D01*
X2970101Y5284501D01*
X2970100Y5284527D01*
X2970100Y5536327D01*
X2989007Y5594518D01*
X3038507Y5630482D01*
X3099693Y5630482D01*
X3131905Y5612855D01*
X3251741Y5514507D01*
X3251747Y5514503D01*
X3425459Y5421653D01*
X3425464Y5421651D01*
X3613968Y5364469D01*
X3709999Y5355011D01*
X3710000Y5355012D01*
X3710000Y5962685D01*
X3757339Y5950000D01*
X3862661Y5950000D01*
X3910000Y5962685D01*
X3910000Y5355011D01*
X4006031Y5364469D01*
X4194535Y5421651D01*
X4194540Y5421653D01*
X4368252Y5514503D01*
X4368258Y5514507D01*
X4520523Y5639469D01*
X4520531Y5639477D01*
X4645493Y5791742D01*
X4645497Y5791748D01*
X4738347Y5965460D01*
X4738349Y5965465D01*
X4795531Y6153966D01*
X4795532Y6153972D01*
X4804991Y6250000D01*
X4197316Y6250000D01*
X4210000Y6297339D01*
X4210000Y6349997D01*
X5344659Y6349997D01*
X5363974Y6153874D01*
X5363975Y6153871D01*
X5421187Y5965270D01*
X5421188Y5965268D01*
X5492218Y5832382D01*
X5514090Y5791462D01*
X5514092Y5791460D01*
X5514093Y5791458D01*
X5639112Y5639122D01*
X5639121Y5639113D01*
X5771781Y5530242D01*
X5791462Y5514090D01*
X5965273Y5421186D01*
X6153868Y5363976D01*
X6153870Y5363976D01*
X6153873Y5363975D01*
X6349997Y5344659D01*
X6350000Y5344659D01*
X6350003Y5344659D01*
X6546126Y5363975D01*
X6546127Y5363976D01*
X6546132Y5363976D01*
X6734727Y5421186D01*
X6908538Y5514090D01*
X7060883Y5639117D01*
X7185910Y5791462D01*
X7278814Y5965273D01*
X7336024Y6153868D01*
X7336035Y6153972D01*
X7355341Y6349997D01*
X7355341Y6350004D01*
X7336025Y6546127D01*
X7336024Y6546130D01*
X7336024Y6546132D01*
X7278814Y6734727D01*
X7270650Y6750000D01*
X7256942Y6775647D01*
X7185910Y6908538D01*
X7061178Y7060524D01*
X7060887Y7060879D01*
X7060878Y7060888D01*
X6908542Y7185907D01*
X6908540Y7185908D01*
X6908538Y7185910D01*
X6829361Y7228231D01*
X6734732Y7278812D01*
X6734730Y7278813D01*
X6546129Y7336025D01*
X6546126Y7336026D01*
X6350003Y7355341D01*
X6349997Y7355341D01*
X6153873Y7336026D01*
X6153870Y7336025D01*
X5965269Y7278813D01*
X5965267Y7278812D01*
X5791467Y7185913D01*
X5791457Y7185907D01*
X5639121Y7060888D01*
X5639112Y7060879D01*
X5514093Y6908543D01*
X5514087Y6908533D01*
X5421188Y6734733D01*
X5421187Y6734731D01*
X5363975Y6546130D01*
X5363974Y6546127D01*
X5344659Y6350004D01*
X5344659Y6349997D01*
X4210000Y6349997D01*
X4210000Y6402661D01*
X4197316Y6450000D01*
X4804990Y6450000D01*
X4804990Y6450001D01*
X4795532Y6546029D01*
X4795531Y6546035D01*
X4738349Y6734536D01*
X4738347Y6734541D01*
X4645497Y6908253D01*
X4645493Y6908259D01*
X4520531Y7060524D01*
X4520523Y7060532D01*
X4368258Y7185494D01*
X4368252Y7185498D01*
X4194540Y7278348D01*
X4194535Y7278350D01*
X4006034Y7335532D01*
X4006028Y7335533D01*
X3910000Y7344991D01*
X3910000Y6737316D01*
X3862661Y6750000D01*
X3757339Y6750000D01*
X3710000Y6737316D01*
X3710000Y7344991D01*
X3709999Y7344991D01*
X3613971Y7335533D01*
X3613965Y7335532D01*
X3425464Y7278350D01*
X3425459Y7278348D01*
X3251747Y7185498D01*
X3251741Y7185494D01*
X3131905Y7087146D01*
X3074928Y7064846D01*
X3015725Y7080294D01*
X2976910Y7127591D01*
X2970100Y7163674D01*
X2970100Y9668093D01*
X2989007Y9726284D01*
X2999090Y9738090D01*
X3222101Y9961101D01*
X3222104Y9961102D01*
X3274897Y10013895D01*
X3282044Y10026276D01*
X3327511Y10067217D01*
X3388361Y10073614D01*
X3441350Y10043024D01*
X3466238Y9987129D01*
X3465934Y9963856D01*
X3458318Y9906003D01*
X3458318Y9906000D01*
X3478955Y9749242D01*
X3478957Y9749234D01*
X3539462Y9603162D01*
X3539462Y9603161D01*
X3633566Y9480522D01*
X3635718Y9477718D01*
X3635722Y9477715D01*
X3635723Y9477714D01*
X3650550Y9466337D01*
X3761159Y9381464D01*
X3761160Y9381464D01*
X3761161Y9381463D01*
X3840509Y9348596D01*
X3907238Y9320956D01*
X4024809Y9305478D01*
X4063999Y9300318D01*
X4064000Y9300318D01*
X4064001Y9300318D01*
X4095352Y9304446D01*
X4220762Y9320956D01*
X4366841Y9381464D01*
X4492282Y9477718D01*
X4588536Y9603159D01*
X4649044Y9749238D01*
X4669682Y9906000D01*
X4667880Y9919684D01*
X4653848Y10026274D01*
X4649044Y10062762D01*
X4626258Y10117772D01*
X4621002Y10134537D01*
X4617165Y10152119D01*
X4538085Y10333452D01*
X4532863Y10387083D01*
X4531079Y10387317D01*
X4532068Y10394827D01*
X4538500Y10443684D01*
X4538500Y10892316D01*
X4532068Y10941173D01*
X4509142Y10990337D01*
X4482066Y11048402D01*
X4482065Y11048403D01*
X4482065Y11048404D01*
X4398404Y11132065D01*
X4398402Y11132066D01*
X4398401Y11132067D01*
X4291175Y11182068D01*
X4258601Y11186356D01*
X4242316Y11188500D01*
X3893684Y11188500D01*
X3877398Y11186356D01*
X3844825Y11182068D01*
X3844824Y11182068D01*
X3737598Y11132067D01*
X3653933Y11048402D01*
X3647724Y11035085D01*
X3605995Y10990337D01*
X3545934Y10978663D01*
X3490482Y11004522D01*
X3468276Y11035085D01*
X3462066Y11048402D01*
X3462065Y11048403D01*
X3462065Y11048404D01*
X3378404Y11132065D01*
X3378402Y11132066D01*
X3378399Y11132069D01*
X3371307Y11137035D01*
X3372913Y11139330D01*
X3338256Y11171655D01*
X3329223Y11194016D01*
X3312227Y11257447D01*
X3274897Y11322105D01*
X3222104Y11374898D01*
X3222101Y11374900D01*
X2999096Y11597905D01*
X2971319Y11652422D01*
X2970100Y11667909D01*
X2970100Y11967740D01*
X15782001Y11967740D01*
X15788422Y11918959D01*
X15838349Y11811891D01*
X15921890Y11728350D01*
X16028952Y11678426D01*
X16028959Y11678424D01*
X16077745Y11672001D01*
X16151999Y11672002D01*
X16152000Y11672002D01*
X16152000Y12091999D01*
X16151999Y12092000D01*
X15782002Y12092000D01*
X15782001Y12091999D01*
X15782001Y11967740D01*
X2970100Y11967740D01*
X2970100Y12222638D01*
X2970101Y12222651D01*
X2970101Y12292001D01*
X15782000Y12292001D01*
X15782001Y12292000D01*
X16151999Y12292000D01*
X16152000Y12292001D01*
X16152000Y12712001D01*
X16077749Y12712000D01*
X16077738Y12711999D01*
X16028959Y12705578D01*
X15921890Y12655651D01*
X15838349Y12572110D01*
X15788425Y12465048D01*
X15788423Y12465041D01*
X15782000Y12416254D01*
X15782000Y12292001D01*
X2970101Y12292001D01*
X2970101Y12305287D01*
X2970100Y12305289D01*
X2950778Y12377399D01*
X2950777Y12377400D01*
X2950777Y12377402D01*
X2913447Y12442060D01*
X2873524Y12481983D01*
X2845749Y12536497D01*
X2855320Y12596929D01*
X2873524Y12621985D01*
X2953224Y12701684D01*
X3003972Y12810513D01*
X3010500Y12860099D01*
X3010499Y13219900D01*
X3003972Y13269487D01*
X3003972Y13269489D01*
X2953225Y13378314D01*
X2953224Y13378315D01*
X2953224Y13378316D01*
X2881541Y13449999D01*
X2853766Y13504513D01*
X2863337Y13564945D01*
X2881540Y13590001D01*
X2953224Y13661684D01*
X3003972Y13770513D01*
X3010500Y13820099D01*
X3010499Y14179900D01*
X3003972Y14229487D01*
X3003972Y14229489D01*
X2953225Y14338314D01*
X2953224Y14338315D01*
X2953224Y14338316D01*
X2868316Y14423224D01*
X2868314Y14423225D01*
X2868313Y14423226D01*
X2837509Y14437590D01*
X2792761Y14479319D01*
X2783722Y14501691D01*
X2783551Y14502331D01*
X2764227Y14574448D01*
X2764225Y14574451D01*
X2764225Y14574453D01*
X2726900Y14639101D01*
X2726896Y14639106D01*
X2459096Y14906907D01*
X2431319Y14961423D01*
X2430100Y14976910D01*
X2430100Y16838092D01*
X2449007Y16896283D01*
X2459097Y16908096D01*
X2548615Y16997614D01*
X2726897Y17175895D01*
X2726901Y17175901D01*
X2764225Y17240549D01*
X2764227Y17240552D01*
X2783551Y17312669D01*
X2783551Y17387329D01*
X2783551Y17393391D01*
X2783550Y17393409D01*
X2783550Y17601000D01*
X2802457Y17659191D01*
X2851957Y17695155D01*
X2882550Y17700000D01*
X3617450Y17700000D01*
X3675641Y17681093D01*
X3711605Y17631593D01*
X3716450Y17601000D01*
X3716450Y17393409D01*
X3716449Y17393391D01*
X3716449Y17387329D01*
X3716449Y17312669D01*
X3732974Y17251000D01*
X3735773Y17240553D01*
X3735774Y17240550D01*
X3749437Y17216887D01*
X3749439Y17216882D01*
X3773098Y17175901D01*
X3773101Y17175898D01*
X3773103Y17175895D01*
X3825896Y17123102D01*
X3825898Y17123101D01*
X4040904Y16908095D01*
X4068681Y16853578D01*
X4069900Y16838091D01*
X4069900Y15421706D01*
X4069899Y15421688D01*
X4069899Y15340967D01*
X4089222Y15268849D01*
X4091892Y15264227D01*
X4126553Y15204192D01*
X4179346Y15151399D01*
X4179348Y15151398D01*
X5226192Y14104553D01*
X5226194Y14104552D01*
X5226196Y14104550D01*
X5290845Y14067225D01*
X5290849Y14067223D01*
X5362963Y14047900D01*
X5362965Y14047899D01*
X5362966Y14047899D01*
X5443689Y14047899D01*
X5443705Y14047900D01*
X16798838Y14047900D01*
X16857029Y14028993D01*
X16868842Y14018904D01*
X17320904Y13566842D01*
X17348681Y13512325D01*
X17349900Y13496838D01*
X17349900Y13191909D01*
X17330993Y13133718D01*
X17320903Y13121905D01*
X17097897Y12898901D01*
X17097898Y12898900D01*
X17097896Y12898898D01*
X17097895Y12898899D01*
X17045104Y12846107D01*
X17024554Y12810513D01*
X17007772Y12781449D01*
X16990775Y12718016D01*
X16957450Y12666702D01*
X16948593Y12661168D01*
X16948689Y12661031D01*
X16941597Y12656066D01*
X16857934Y12572403D01*
X16851446Y12558490D01*
X16809715Y12513744D01*
X16749654Y12502071D01*
X16694202Y12527932D01*
X16671997Y12558496D01*
X16665648Y12572112D01*
X16582109Y12655651D01*
X16475047Y12705575D01*
X16475040Y12705577D01*
X16426254Y12712000D01*
X16352001Y12712000D01*
X16352000Y12711999D01*
X16352000Y11672002D01*
X16352001Y11672001D01*
X16426251Y11672001D01*
X16426260Y11672002D01*
X16475041Y11678423D01*
X16582109Y11728350D01*
X16665649Y11811890D01*
X16671997Y11825503D01*
X16713723Y11870253D01*
X16773784Y11881931D01*
X16829238Y11856075D01*
X16851446Y11825510D01*
X16857933Y11811599D01*
X16857934Y11811598D01*
X16857935Y11811596D01*
X16941596Y11727935D01*
X16941597Y11727935D01*
X16942504Y11727028D01*
X16970281Y11672511D01*
X16971500Y11657024D01*
X16971500Y11637918D01*
X16952593Y11579727D01*
X16914341Y11548194D01*
X16903686Y11543226D01*
X16818774Y11458314D01*
X16768029Y11349490D01*
X16768028Y11349489D01*
X16761500Y11299900D01*
X16761500Y10940105D01*
X16761501Y10940093D01*
X16768027Y10890514D01*
X16768027Y10890512D01*
X16818774Y10781687D01*
X16818775Y10781686D01*
X16818776Y10781684D01*
X16890458Y10710002D01*
X16918234Y10655487D01*
X16908663Y10595055D01*
X16890459Y10570000D01*
X16839932Y10519472D01*
X16818774Y10498314D01*
X16768029Y10389490D01*
X16768028Y10389489D01*
X16761500Y10339900D01*
X16761500Y9980105D01*
X16761501Y9980093D01*
X16768027Y9930514D01*
X16768027Y9930512D01*
X16818774Y9821687D01*
X16818775Y9821686D01*
X16818776Y9821684D01*
X16903684Y9736776D01*
X16903685Y9736776D01*
X16903686Y9736775D01*
X16905034Y9735831D01*
X16906269Y9734192D01*
X16909809Y9730652D01*
X16909311Y9730155D01*
X16941859Y9686969D01*
X16942931Y9625793D01*
X16918259Y9584729D01*
X16859934Y9526404D01*
X16853724Y9513085D01*
X16811995Y9468337D01*
X16751934Y9456663D01*
X16696482Y9482522D01*
X16674276Y9513085D01*
X16668066Y9526402D01*
X16668065Y9526403D01*
X16668065Y9526404D01*
X16584404Y9610065D01*
X16584402Y9610066D01*
X16584401Y9610067D01*
X16477175Y9660068D01*
X16443508Y9664500D01*
X16428316Y9666500D01*
X16079684Y9666500D01*
X16040421Y9661331D01*
X16030827Y9660068D01*
X15916360Y9606691D01*
X15855631Y9599235D01*
X15836666Y9604939D01*
X15609433Y9698974D01*
X15593779Y9702093D01*
X15575244Y9707720D01*
X15523762Y9729044D01*
X15523761Y9729045D01*
X15367001Y9749682D01*
X15366999Y9749682D01*
X15210241Y9729045D01*
X15210233Y9729043D01*
X15064161Y9668538D01*
X15064160Y9668538D01*
X14938723Y9572287D01*
X14938713Y9572277D01*
X14842462Y9446840D01*
X14842462Y9446839D01*
X14781957Y9300767D01*
X14781955Y9300759D01*
X14761318Y9144001D01*
X14761318Y9144000D01*
X14781955Y8987242D01*
X14781957Y8987234D01*
X14842462Y8841162D01*
X14842462Y8841161D01*
X14938713Y8715724D01*
X14938718Y8715718D01*
X14938722Y8715715D01*
X14938723Y8715714D01*
X14949734Y8707265D01*
X15064159Y8619464D01*
X15064160Y8619464D01*
X15064161Y8619463D01*
X15158272Y8580481D01*
X15210238Y8558956D01*
X15327809Y8543478D01*
X15366999Y8538318D01*
X15367000Y8538318D01*
X15367001Y8538318D01*
X15406190Y8543478D01*
X15523762Y8558956D01*
X15576255Y8580701D01*
X15594340Y8586236D01*
X15610467Y8589525D01*
X15839041Y8685531D01*
X15900011Y8690632D01*
X15919216Y8683978D01*
X15923594Y8681937D01*
X15923596Y8681935D01*
X16030827Y8631932D01*
X16079684Y8625500D01*
X16079685Y8625500D01*
X16428314Y8625500D01*
X16428316Y8625500D01*
X16477173Y8631932D01*
X16584404Y8681935D01*
X16668065Y8765596D01*
X16674275Y8778915D01*
X16716003Y8823663D01*
X16776064Y8835338D01*
X16831517Y8809481D01*
X16853724Y8778916D01*
X16859935Y8765596D01*
X16943596Y8681935D01*
X16943597Y8681935D01*
X16943598Y8681934D01*
X17050824Y8631933D01*
X17050825Y8631933D01*
X17050827Y8631932D01*
X17099684Y8625500D01*
X17252900Y8625500D01*
X17311091Y8606593D01*
X17347055Y8557093D01*
X17351900Y8526500D01*
X17351900Y8491110D01*
X17332993Y8432919D01*
X17283493Y8396955D01*
X17252900Y8392110D01*
X17015230Y8392110D01*
X17015209Y8392112D01*
X17005777Y8392112D01*
X16955784Y8392111D01*
X16955778Y8392110D01*
X16912294Y8392110D01*
X16912069Y8392096D01*
X16899177Y8392096D01*
X16899172Y8392095D01*
X16789828Y8362794D01*
X16691785Y8306191D01*
X16638187Y8252597D01*
X16611733Y8226145D01*
X16592111Y8192165D01*
X16555121Y8128108D01*
X16525810Y8018764D01*
X16525809Y8018759D01*
X16525807Y8004893D01*
X16525803Y8004804D01*
X16525803Y7962160D01*
X16525795Y7903457D01*
X16525803Y7903368D01*
X16525803Y7845104D01*
X16525810Y7844999D01*
X16525810Y7832293D01*
X16555110Y7722936D01*
X16555110Y7722935D01*
X16597882Y7648850D01*
X16611717Y7624887D01*
X16691771Y7544830D01*
X16708391Y7535234D01*
X16749329Y7489764D01*
X16755723Y7428914D01*
X16725129Y7375927D01*
X16669232Y7351042D01*
X16658887Y7350500D01*
X15690252Y7350500D01*
X15690251Y7350500D01*
X15690241Y7350499D01*
X15631772Y7338868D01*
X15631766Y7338866D01*
X15565451Y7294555D01*
X15565445Y7294549D01*
X15521134Y7228234D01*
X15521132Y7228228D01*
X15509501Y7169759D01*
X15509500Y7169747D01*
X15509500Y5530254D01*
X15509501Y5530242D01*
X15521132Y5471773D01*
X15521134Y5471767D01*
X15565445Y5405452D01*
X15565448Y5405448D01*
X15631769Y5361133D01*
X15676231Y5352289D01*
X15690241Y5349502D01*
X15690246Y5349502D01*
X15690252Y5349500D01*
X16946409Y5349500D01*
X16980268Y5343530D01*
X17000358Y5336218D01*
X17180526Y5304450D01*
X17228591Y5304450D01*
X17228607Y5304449D01*
X17234670Y5304449D01*
X17315393Y5304449D01*
X17315409Y5304450D01*
X17321996Y5304450D01*
X17321997Y5304450D01*
X17353286Y5315839D01*
X17361506Y5318430D01*
X17381447Y5323773D01*
X17384797Y5325708D01*
X17400431Y5332999D01*
X17415962Y5338651D01*
X17428625Y5349278D01*
X17442755Y5359171D01*
X17446104Y5361104D01*
X17460693Y5375694D01*
X17467065Y5381532D01*
X17482369Y5394372D01*
X17539100Y5417289D01*
X17598467Y5402484D01*
X17637793Y5355610D01*
X17645000Y5318530D01*
X17645000Y5232835D01*
X17644623Y5224203D01*
X17628506Y5040053D01*
X17625509Y5023058D01*
X17578780Y4848690D01*
X17572877Y4832476D01*
X17496587Y4668882D01*
X17487959Y4653937D01*
X17389567Y4513424D01*
X17340702Y4476603D01*
X17279526Y4475536D01*
X17231944Y4507405D01*
X17220887Y4520878D01*
X17220885Y4520880D01*
X17220883Y4520883D01*
X17180080Y4554370D01*
X17068542Y4645907D01*
X17068540Y4645908D01*
X17068538Y4645910D01*
X17025560Y4668882D01*
X16894732Y4738812D01*
X16894730Y4738813D01*
X16706129Y4796025D01*
X16706126Y4796026D01*
X16510003Y4815341D01*
X16509997Y4815341D01*
X16313873Y4796026D01*
X16313870Y4796025D01*
X16125269Y4738813D01*
X16125267Y4738812D01*
X15951467Y4645913D01*
X15951457Y4645907D01*
X15799121Y4520888D01*
X15799112Y4520879D01*
X15674093Y4368543D01*
X15674087Y4368533D01*
X15581188Y4194733D01*
X15581187Y4194731D01*
X15523975Y4006130D01*
X15523974Y4006127D01*
X15504659Y3810004D01*
X15504659Y3809997D01*
X15523974Y3613874D01*
X15523975Y3613871D01*
X15581187Y3425270D01*
X15581188Y3425268D01*
X15652218Y3292382D01*
X15674090Y3251462D01*
X15674092Y3251460D01*
X15674093Y3251458D01*
X15799112Y3099122D01*
X15799121Y3099113D01*
X15950954Y2974507D01*
X15951462Y2974090D01*
X16125273Y2881186D01*
X16313868Y2823976D01*
X16313870Y2823976D01*
X16313873Y2823975D01*
X16509997Y2804659D01*
X16510000Y2804659D01*
X16510003Y2804659D01*
X16706126Y2823975D01*
X16706127Y2823976D01*
X16706132Y2823976D01*
X16894727Y2881186D01*
X17068538Y2974090D01*
X17220883Y3099117D01*
X17345910Y3251462D01*
X17438814Y3425273D01*
X17496024Y3613868D01*
X17496035Y3613972D01*
X17510154Y3757339D01*
X17515341Y3809997D01*
X18044659Y3809997D01*
X18063974Y3613874D01*
X18063975Y3613871D01*
X18121187Y3425270D01*
X18121188Y3425268D01*
X18192218Y3292382D01*
X18214090Y3251462D01*
X18214092Y3251460D01*
X18214093Y3251458D01*
X18339112Y3099122D01*
X18339121Y3099113D01*
X18490954Y2974507D01*
X18491462Y2974090D01*
X18665273Y2881186D01*
X18853868Y2823976D01*
X18853870Y2823976D01*
X18853873Y2823975D01*
X19049997Y2804659D01*
X19050000Y2804659D01*
X19050003Y2804659D01*
X19246126Y2823975D01*
X19246127Y2823976D01*
X19246132Y2823976D01*
X19434727Y2881186D01*
X19608538Y2974090D01*
X19760883Y3099117D01*
X19885910Y3251462D01*
X19978814Y3425273D01*
X20036024Y3613868D01*
X20036035Y3613972D01*
X20055341Y3809997D01*
X20584659Y3809997D01*
X20603974Y3613874D01*
X20603975Y3613871D01*
X20661187Y3425270D01*
X20661188Y3425268D01*
X20732218Y3292382D01*
X20754090Y3251462D01*
X20754092Y3251460D01*
X20754093Y3251458D01*
X20879112Y3099122D01*
X20879121Y3099113D01*
X21030954Y2974507D01*
X21031462Y2974090D01*
X21205273Y2881186D01*
X21393868Y2823976D01*
X21393870Y2823976D01*
X21393873Y2823975D01*
X21589997Y2804659D01*
X21590000Y2804659D01*
X21590003Y2804659D01*
X21786126Y2823975D01*
X21786127Y2823976D01*
X21786132Y2823976D01*
X21974727Y2881186D01*
X22148538Y2974090D01*
X22300883Y3099117D01*
X22425910Y3251462D01*
X22518814Y3425273D01*
X22576024Y3613868D01*
X22576035Y3613972D01*
X22595341Y3809997D01*
X23124659Y3809997D01*
X23143974Y3613874D01*
X23143975Y3613871D01*
X23201187Y3425270D01*
X23201188Y3425268D01*
X23272218Y3292382D01*
X23294090Y3251462D01*
X23294092Y3251460D01*
X23294093Y3251458D01*
X23419112Y3099122D01*
X23419121Y3099113D01*
X23570954Y2974507D01*
X23571462Y2974090D01*
X23745273Y2881186D01*
X23933868Y2823976D01*
X23933870Y2823976D01*
X23933873Y2823975D01*
X24129997Y2804659D01*
X24130000Y2804659D01*
X24130003Y2804659D01*
X24326126Y2823975D01*
X24326127Y2823976D01*
X24326132Y2823976D01*
X24514727Y2881186D01*
X24688538Y2974090D01*
X24840883Y3099117D01*
X24965910Y3251462D01*
X25058814Y3425273D01*
X25116024Y3613868D01*
X25116035Y3613972D01*
X25125493Y3710000D01*
X25675009Y3710000D01*
X25684467Y3613972D01*
X25684468Y3613966D01*
X25741650Y3425465D01*
X25741652Y3425460D01*
X25834502Y3251748D01*
X25834506Y3251742D01*
X25959468Y3099477D01*
X25959476Y3099469D01*
X26111741Y2974507D01*
X26111747Y2974503D01*
X26285459Y2881653D01*
X26285464Y2881651D01*
X26473968Y2824469D01*
X26569999Y2815011D01*
X26570000Y2815012D01*
X26570000Y3422685D01*
X26617339Y3410000D01*
X26722661Y3410000D01*
X26770000Y3422685D01*
X26770000Y2815011D01*
X26866031Y2824469D01*
X27054535Y2881651D01*
X27054540Y2881653D01*
X27228252Y2974503D01*
X27228258Y2974507D01*
X27380523Y3099469D01*
X27380531Y3099477D01*
X27505493Y3251742D01*
X27505497Y3251748D01*
X27598347Y3425460D01*
X27598349Y3425465D01*
X27655531Y3613966D01*
X27655532Y3613972D01*
X27664991Y3710000D01*
X27057316Y3710000D01*
X27070000Y3757339D01*
X27070000Y3809997D01*
X28204659Y3809997D01*
X28223974Y3613874D01*
X28223975Y3613871D01*
X28281187Y3425270D01*
X28281188Y3425268D01*
X28352218Y3292382D01*
X28374090Y3251462D01*
X28374092Y3251460D01*
X28374093Y3251458D01*
X28499112Y3099122D01*
X28499121Y3099113D01*
X28650954Y2974507D01*
X28651462Y2974090D01*
X28825273Y2881186D01*
X29013868Y2823976D01*
X29013870Y2823976D01*
X29013873Y2823975D01*
X29209997Y2804659D01*
X29210000Y2804659D01*
X29210003Y2804659D01*
X29406126Y2823975D01*
X29406127Y2823976D01*
X29406132Y2823976D01*
X29594727Y2881186D01*
X29768538Y2974090D01*
X29920883Y3099117D01*
X30045910Y3251462D01*
X30138814Y3425273D01*
X30196024Y3613868D01*
X30196035Y3613972D01*
X30215341Y3809997D01*
X30215341Y3810004D01*
X30196025Y4006127D01*
X30196024Y4006130D01*
X30196024Y4006132D01*
X30138814Y4194727D01*
X30133276Y4205087D01*
X30046062Y4368253D01*
X30045910Y4368538D01*
X30012133Y4409695D01*
X29920887Y4520879D01*
X29920878Y4520888D01*
X29768542Y4645907D01*
X29768540Y4645908D01*
X29768538Y4645910D01*
X29725560Y4668882D01*
X29594732Y4738812D01*
X29594730Y4738813D01*
X29406129Y4796025D01*
X29406126Y4796026D01*
X29210003Y4815341D01*
X29209997Y4815341D01*
X29013873Y4796026D01*
X29013870Y4796025D01*
X28825269Y4738813D01*
X28825267Y4738812D01*
X28651467Y4645913D01*
X28651457Y4645907D01*
X28499121Y4520888D01*
X28499112Y4520879D01*
X28374093Y4368543D01*
X28374087Y4368533D01*
X28281188Y4194733D01*
X28281187Y4194731D01*
X28223975Y4006130D01*
X28223974Y4006127D01*
X28204659Y3810004D01*
X28204659Y3809997D01*
X27070000Y3809997D01*
X27070000Y3862661D01*
X27057316Y3910000D01*
X27664990Y3910000D01*
X27664990Y3910001D01*
X27655532Y4006029D01*
X27655531Y4006035D01*
X27598349Y4194536D01*
X27598347Y4194541D01*
X27505497Y4368253D01*
X27505493Y4368259D01*
X27380531Y4520524D01*
X27380523Y4520532D01*
X27228258Y4645494D01*
X27228252Y4645498D01*
X27054540Y4738348D01*
X27054535Y4738350D01*
X26866034Y4795532D01*
X26866028Y4795533D01*
X26770000Y4804991D01*
X26770000Y4197316D01*
X26722661Y4210000D01*
X26617339Y4210000D01*
X26570000Y4197316D01*
X26570000Y4804991D01*
X26569999Y4804991D01*
X26473971Y4795533D01*
X26473965Y4795532D01*
X26285464Y4738350D01*
X26285459Y4738348D01*
X26111747Y4645498D01*
X26111741Y4645494D01*
X25959476Y4520532D01*
X25959468Y4520524D01*
X25834506Y4368259D01*
X25834502Y4368253D01*
X25741652Y4194541D01*
X25741650Y4194536D01*
X25684468Y4006035D01*
X25684467Y4006029D01*
X25675009Y3910001D01*
X25675010Y3910000D01*
X26282684Y3910000D01*
X26270000Y3862661D01*
X26270000Y3757339D01*
X26282684Y3710000D01*
X25675009Y3710000D01*
X25125493Y3710000D01*
X25135341Y3809997D01*
X25135341Y3810004D01*
X25116025Y4006127D01*
X25116024Y4006130D01*
X25116024Y4006132D01*
X25058814Y4194727D01*
X25053276Y4205087D01*
X24966062Y4368253D01*
X24965910Y4368538D01*
X24932133Y4409695D01*
X24840887Y4520879D01*
X24840878Y4520888D01*
X24688542Y4645907D01*
X24688540Y4645908D01*
X24688538Y4645910D01*
X24645560Y4668882D01*
X24514732Y4738812D01*
X24514730Y4738813D01*
X24326129Y4796025D01*
X24326126Y4796026D01*
X24130003Y4815341D01*
X24129997Y4815341D01*
X23933873Y4796026D01*
X23933870Y4796025D01*
X23745269Y4738813D01*
X23745267Y4738812D01*
X23571467Y4645913D01*
X23571457Y4645907D01*
X23419121Y4520888D01*
X23419112Y4520879D01*
X23294093Y4368543D01*
X23294087Y4368533D01*
X23201188Y4194733D01*
X23201187Y4194731D01*
X23143975Y4006130D01*
X23143974Y4006127D01*
X23124659Y3810004D01*
X23124659Y3809997D01*
X22595341Y3809997D01*
X22595341Y3810004D01*
X22576025Y4006127D01*
X22576024Y4006130D01*
X22576024Y4006132D01*
X22518814Y4194727D01*
X22513276Y4205087D01*
X22426062Y4368253D01*
X22425910Y4368538D01*
X22392133Y4409695D01*
X22300887Y4520879D01*
X22300878Y4520888D01*
X22148542Y4645907D01*
X22148540Y4645908D01*
X22148538Y4645910D01*
X22105560Y4668882D01*
X21974732Y4738812D01*
X21974730Y4738813D01*
X21786129Y4796025D01*
X21786126Y4796026D01*
X21590003Y4815341D01*
X21589997Y4815341D01*
X21393873Y4796026D01*
X21393870Y4796025D01*
X21205269Y4738813D01*
X21205267Y4738812D01*
X21031467Y4645913D01*
X21031457Y4645907D01*
X20879121Y4520888D01*
X20879112Y4520879D01*
X20754093Y4368543D01*
X20754087Y4368533D01*
X20661188Y4194733D01*
X20661187Y4194731D01*
X20603975Y4006130D01*
X20603974Y4006127D01*
X20584659Y3810004D01*
X20584659Y3809997D01*
X20055341Y3809997D01*
X20055341Y3810004D01*
X20036025Y4006127D01*
X20036024Y4006130D01*
X20036024Y4006132D01*
X19978814Y4194727D01*
X19973276Y4205087D01*
X19886062Y4368253D01*
X19885910Y4368538D01*
X19852133Y4409695D01*
X19760887Y4520879D01*
X19760878Y4520888D01*
X19608542Y4645907D01*
X19608540Y4645908D01*
X19608538Y4645910D01*
X19565560Y4668882D01*
X19434732Y4738812D01*
X19434730Y4738813D01*
X19246129Y4796025D01*
X19246126Y4796026D01*
X19050003Y4815341D01*
X19049997Y4815341D01*
X18853873Y4796026D01*
X18853870Y4796025D01*
X18665269Y4738813D01*
X18665267Y4738812D01*
X18491467Y4645913D01*
X18491457Y4645907D01*
X18339121Y4520888D01*
X18339112Y4520879D01*
X18214093Y4368543D01*
X18214087Y4368533D01*
X18121188Y4194733D01*
X18121187Y4194731D01*
X18063975Y4006130D01*
X18063974Y4006127D01*
X18044659Y3810004D01*
X18044659Y3809997D01*
X17515341Y3809997D01*
X17515341Y3810000D01*
X17515341Y3810004D01*
X17515509Y3811708D01*
X17540028Y3867766D01*
X17549196Y3876820D01*
X17716620Y4021888D01*
X17876061Y4205885D01*
X17980593Y4368533D01*
X18007690Y4410694D01*
X18007691Y4410697D01*
X18007694Y4410701D01*
X18108840Y4632164D01*
X18177439Y4865768D01*
X18212096Y5106756D01*
X18212097Y5179690D01*
X18212100Y5179704D01*
X18212100Y5228559D01*
X18212100Y5236042D01*
X18212102Y5278537D01*
X18212100Y5278541D01*
X18212101Y5286502D01*
X18212100Y5286528D01*
X18212100Y5534039D01*
X18231007Y5592230D01*
X18280507Y5628194D01*
X18341693Y5628194D01*
X18373905Y5610567D01*
X18491462Y5514090D01*
X18665273Y5421186D01*
X18853868Y5363976D01*
X18853870Y5363976D01*
X18853873Y5363975D01*
X19049997Y5344659D01*
X19050000Y5344659D01*
X19050003Y5344659D01*
X19246126Y5363975D01*
X19246127Y5363976D01*
X19246132Y5363976D01*
X19434727Y5421186D01*
X19608538Y5514090D01*
X19760883Y5639117D01*
X19885910Y5791462D01*
X19978814Y5965273D01*
X20036024Y6153868D01*
X20036035Y6153972D01*
X20055341Y6349997D01*
X20584659Y6349997D01*
X20603974Y6153874D01*
X20603975Y6153871D01*
X20661187Y5965270D01*
X20661188Y5965268D01*
X20732218Y5832382D01*
X20754090Y5791462D01*
X20754092Y5791460D01*
X20754093Y5791458D01*
X20879112Y5639122D01*
X20879121Y5639113D01*
X21011781Y5530242D01*
X21031462Y5514090D01*
X21205273Y5421186D01*
X21393868Y5363976D01*
X21393870Y5363976D01*
X21393873Y5363975D01*
X21589997Y5344659D01*
X21590000Y5344659D01*
X21590003Y5344659D01*
X21786126Y5363975D01*
X21786127Y5363976D01*
X21786132Y5363976D01*
X21974727Y5421186D01*
X22148538Y5514090D01*
X22300883Y5639117D01*
X22425910Y5791462D01*
X22518814Y5965273D01*
X22576024Y6153868D01*
X22576035Y6153972D01*
X22595341Y6349997D01*
X23124659Y6349997D01*
X23143974Y6153874D01*
X23143975Y6153871D01*
X23201187Y5965270D01*
X23201188Y5965268D01*
X23272218Y5832382D01*
X23294090Y5791462D01*
X23294092Y5791460D01*
X23294093Y5791458D01*
X23419112Y5639122D01*
X23419121Y5639113D01*
X23551781Y5530242D01*
X23571462Y5514090D01*
X23745273Y5421186D01*
X23933868Y5363976D01*
X23933870Y5363976D01*
X23933873Y5363975D01*
X24129997Y5344659D01*
X24130000Y5344659D01*
X24130003Y5344659D01*
X24326126Y5363975D01*
X24326127Y5363976D01*
X24326132Y5363976D01*
X24514727Y5421186D01*
X24688538Y5514090D01*
X24840883Y5639117D01*
X24965910Y5791462D01*
X25058814Y5965273D01*
X25116024Y6153868D01*
X25116035Y6153972D01*
X25125493Y6250000D01*
X25675009Y6250000D01*
X25684467Y6153972D01*
X25684468Y6153966D01*
X25741650Y5965465D01*
X25741652Y5965460D01*
X25834502Y5791748D01*
X25834506Y5791742D01*
X25959468Y5639477D01*
X25959476Y5639469D01*
X26111741Y5514507D01*
X26111747Y5514503D01*
X26285459Y5421653D01*
X26285464Y5421651D01*
X26473968Y5364469D01*
X26569999Y5355011D01*
X26570000Y5355012D01*
X26570000Y5962685D01*
X26617339Y5950000D01*
X26722661Y5950000D01*
X26770000Y5962685D01*
X26770000Y5355011D01*
X26866031Y5364469D01*
X27054535Y5421651D01*
X27054540Y5421653D01*
X27228252Y5514503D01*
X27228258Y5514507D01*
X27380523Y5639469D01*
X27380531Y5639477D01*
X27505493Y5791742D01*
X27505497Y5791748D01*
X27598347Y5965460D01*
X27598349Y5965465D01*
X27655531Y6153966D01*
X27655532Y6153972D01*
X27664991Y6250000D01*
X27057316Y6250000D01*
X27070000Y6297339D01*
X27070000Y6349997D01*
X28204659Y6349997D01*
X28223974Y6153874D01*
X28223975Y6153871D01*
X28281187Y5965270D01*
X28281188Y5965268D01*
X28352218Y5832382D01*
X28374090Y5791462D01*
X28374092Y5791460D01*
X28374093Y5791458D01*
X28499112Y5639122D01*
X28499121Y5639113D01*
X28631781Y5530242D01*
X28651462Y5514090D01*
X28825273Y5421186D01*
X29013868Y5363976D01*
X29013870Y5363976D01*
X29013873Y5363975D01*
X29209997Y5344659D01*
X29210000Y5344659D01*
X29210003Y5344659D01*
X29406126Y5363975D01*
X29406127Y5363976D01*
X29406132Y5363976D01*
X29594727Y5421186D01*
X29768538Y5514090D01*
X29920883Y5639117D01*
X30045910Y5791462D01*
X30138814Y5965273D01*
X30196024Y6153868D01*
X30196035Y6153972D01*
X30215341Y6349997D01*
X30215341Y6350004D01*
X30196025Y6546127D01*
X30196024Y6546130D01*
X30196024Y6546132D01*
X30138814Y6734727D01*
X30130650Y6750000D01*
X30116942Y6775647D01*
X30045910Y6908538D01*
X29921178Y7060524D01*
X29920887Y7060879D01*
X29920878Y7060888D01*
X29768542Y7185907D01*
X29768540Y7185908D01*
X29768538Y7185910D01*
X29689361Y7228231D01*
X29594732Y7278812D01*
X29594730Y7278813D01*
X29406129Y7336025D01*
X29406126Y7336026D01*
X29210003Y7355341D01*
X29209997Y7355341D01*
X29013873Y7336026D01*
X29013870Y7336025D01*
X28825269Y7278813D01*
X28825267Y7278812D01*
X28651467Y7185913D01*
X28651457Y7185907D01*
X28499121Y7060888D01*
X28499112Y7060879D01*
X28374093Y6908543D01*
X28374087Y6908533D01*
X28281188Y6734733D01*
X28281187Y6734731D01*
X28223975Y6546130D01*
X28223974Y6546127D01*
X28204659Y6350004D01*
X28204659Y6349997D01*
X27070000Y6349997D01*
X27070000Y6402661D01*
X27057316Y6450000D01*
X27664990Y6450000D01*
X27664990Y6450001D01*
X27655532Y6546029D01*
X27655531Y6546035D01*
X27598349Y6734536D01*
X27598347Y6734541D01*
X27505497Y6908253D01*
X27505493Y6908259D01*
X27380531Y7060524D01*
X27380523Y7060532D01*
X27228258Y7185494D01*
X27228252Y7185498D01*
X27054540Y7278348D01*
X27054535Y7278350D01*
X26866034Y7335532D01*
X26866028Y7335533D01*
X26770000Y7344991D01*
X26770000Y6737316D01*
X26722661Y6750000D01*
X26617339Y6750000D01*
X26570000Y6737316D01*
X26570000Y7344991D01*
X26569999Y7344991D01*
X26473971Y7335533D01*
X26473965Y7335532D01*
X26285464Y7278350D01*
X26285459Y7278348D01*
X26111747Y7185498D01*
X26111741Y7185494D01*
X25959476Y7060532D01*
X25959468Y7060524D01*
X25834506Y6908259D01*
X25834502Y6908253D01*
X25741652Y6734541D01*
X25741650Y6734536D01*
X25684468Y6546035D01*
X25684467Y6546029D01*
X25675009Y6450001D01*
X25675010Y6450000D01*
X26282684Y6450000D01*
X26270000Y6402661D01*
X26270000Y6297339D01*
X26282684Y6250000D01*
X25675009Y6250000D01*
X25125493Y6250000D01*
X25135341Y6349997D01*
X25135341Y6350004D01*
X25116025Y6546127D01*
X25116024Y6546130D01*
X25116024Y6546132D01*
X25058814Y6734727D01*
X25050650Y6750000D01*
X25036942Y6775647D01*
X24965910Y6908538D01*
X24841178Y7060524D01*
X24840887Y7060879D01*
X24840878Y7060888D01*
X24688542Y7185907D01*
X24688540Y7185908D01*
X24688538Y7185910D01*
X24609361Y7228231D01*
X24514732Y7278812D01*
X24514730Y7278813D01*
X24326129Y7336025D01*
X24326126Y7336026D01*
X24130003Y7355341D01*
X24129997Y7355341D01*
X23933873Y7336026D01*
X23933870Y7336025D01*
X23745269Y7278813D01*
X23745267Y7278812D01*
X23571467Y7185913D01*
X23571457Y7185907D01*
X23419121Y7060888D01*
X23419112Y7060879D01*
X23294093Y6908543D01*
X23294087Y6908533D01*
X23201188Y6734733D01*
X23201187Y6734731D01*
X23143975Y6546130D01*
X23143974Y6546127D01*
X23124659Y6350004D01*
X23124659Y6349997D01*
X22595341Y6349997D01*
X22595341Y6350004D01*
X22576025Y6546127D01*
X22576024Y6546130D01*
X22576024Y6546132D01*
X22518814Y6734727D01*
X22510650Y6750000D01*
X22496942Y6775647D01*
X22425910Y6908538D01*
X22301178Y7060524D01*
X22300887Y7060879D01*
X22300878Y7060888D01*
X22148542Y7185907D01*
X22148540Y7185908D01*
X22148538Y7185910D01*
X22069361Y7228231D01*
X21974732Y7278812D01*
X21974730Y7278813D01*
X21786129Y7336025D01*
X21786126Y7336026D01*
X21590003Y7355341D01*
X21589997Y7355341D01*
X21393873Y7336026D01*
X21393867Y7336025D01*
X21326709Y7315652D01*
X21265535Y7316853D01*
X21217916Y7352901D01*
X21217916Y7316907D01*
X21181952Y7267407D01*
X21170430Y7260190D01*
X21031463Y7185911D01*
X21031457Y7185907D01*
X20879121Y7060888D01*
X20879112Y7060879D01*
X20754093Y6908543D01*
X20754087Y6908533D01*
X20661188Y6734733D01*
X20661187Y6734731D01*
X20603975Y6546130D01*
X20603974Y6546127D01*
X20584659Y6350004D01*
X20584659Y6349997D01*
X20055341Y6349997D01*
X20055341Y6350004D01*
X20036025Y6546127D01*
X20036024Y6546133D01*
X20020576Y6597056D01*
X19978814Y6734727D01*
X19971933Y6747599D01*
X19961177Y6807830D01*
X19987879Y6862882D01*
X19989241Y6864271D01*
X20542476Y7417504D01*
X20596992Y7445281D01*
X20612479Y7446500D01*
X21123761Y7446500D01*
X21181952Y7427593D01*
X21203255Y7398272D01*
X21198990Y7412333D01*
X21219036Y7470141D01*
X21248469Y7496124D01*
X21266511Y7506540D01*
X21322460Y7562489D01*
X21830460Y8070489D01*
X21841166Y8089033D01*
X21870021Y8139011D01*
X21890500Y8215438D01*
X21890500Y8629606D01*
X21909407Y8687797D01*
X21947662Y8719331D01*
X21970404Y8729935D01*
X22026998Y8786530D01*
X22081513Y8814305D01*
X22141945Y8804734D01*
X22167000Y8786531D01*
X22225596Y8727935D01*
X22225597Y8727935D01*
X22225598Y8727934D01*
X22332824Y8677933D01*
X22332825Y8677933D01*
X22332827Y8677932D01*
X22381684Y8671500D01*
X22381685Y8671500D01*
X22830315Y8671500D01*
X22830316Y8671500D01*
X22879173Y8677932D01*
X22902309Y8688721D01*
X22921739Y8695425D01*
X22935036Y8698513D01*
X23042701Y8747184D01*
X23103512Y8753924D01*
X23121331Y8748450D01*
X23506565Y8589028D01*
X23506574Y8589027D01*
X23506575Y8589026D01*
X23522204Y8585912D01*
X23540751Y8580283D01*
X23592231Y8558958D01*
X23592235Y8558957D01*
X23592238Y8558956D01*
X23696746Y8545198D01*
X23748999Y8538318D01*
X23749000Y8538318D01*
X23749001Y8538318D01*
X23784024Y8542929D01*
X23905762Y8558956D01*
X24051841Y8619464D01*
X24177282Y8715718D01*
X24273536Y8841159D01*
X24334044Y8987238D01*
X24354682Y9144000D01*
X24334044Y9300762D01*
X24315689Y9345074D01*
X24273537Y9446839D01*
X24273537Y9446840D01*
X24177286Y9572277D01*
X24177285Y9572278D01*
X24177282Y9572282D01*
X24177277Y9572286D01*
X24177276Y9572287D01*
X24075269Y9650559D01*
X24051841Y9668536D01*
X24051840Y9668537D01*
X24051838Y9668538D01*
X23905766Y9729043D01*
X23905758Y9729045D01*
X23749001Y9749682D01*
X23748999Y9749682D01*
X23592235Y9729044D01*
X23592233Y9729044D01*
X23539744Y9707303D01*
X23521658Y9701768D01*
X23505539Y9698479D01*
X23505537Y9698478D01*
X23505535Y9698478D01*
X23505534Y9698477D01*
X23430685Y9667040D01*
X23120032Y9536562D01*
X23059059Y9531460D01*
X23040917Y9537626D01*
X23031175Y9542030D01*
X22980699Y9564847D01*
X22935464Y9606043D01*
X22923081Y9665962D01*
X22948283Y9721716D01*
X22979640Y9744782D01*
X22986404Y9747935D01*
X23070065Y9831596D01*
X23120068Y9938827D01*
X23126500Y9987684D01*
X23126500Y10336316D01*
X23120068Y10385173D01*
X23119177Y10387083D01*
X23070066Y10492402D01*
X23070065Y10492403D01*
X23070065Y10492404D01*
X22986404Y10576065D01*
X22986402Y10576066D01*
X22986401Y10576067D01*
X22879175Y10626068D01*
X22846252Y10630402D01*
X22830316Y10632500D01*
X22381684Y10632500D01*
X22365748Y10630402D01*
X22332825Y10626068D01*
X22332824Y10626068D01*
X22225598Y10576067D01*
X22225596Y10576066D01*
X22225596Y10576065D01*
X22169001Y10519471D01*
X22114487Y10491695D01*
X22054055Y10501266D01*
X22028999Y10519470D01*
X21970404Y10578065D01*
X21970402Y10578066D01*
X21970401Y10578067D01*
X21947659Y10588672D01*
X21902912Y10630402D01*
X21890500Y10678396D01*
X21890500Y13449561D01*
X21890499Y13449565D01*
X21882025Y13481194D01*
X21882025Y13481195D01*
X21870022Y13525988D01*
X21870020Y13525992D01*
X21830463Y13594507D01*
X21830461Y13594509D01*
X21830460Y13594511D01*
X18784511Y16640460D01*
X18764700Y16651898D01*
X18715992Y16680020D01*
X18715988Y16680022D01*
X18639564Y16700500D01*
X18639562Y16700500D01*
X7574386Y16700500D01*
X7516195Y16719407D01*
X7480231Y16768907D01*
X7480231Y16830093D01*
X7495844Y16859767D01*
X7523863Y16896282D01*
X7524536Y16897159D01*
X7585044Y17043238D01*
X7605682Y17200000D01*
X7603459Y17216882D01*
X7590849Y17312670D01*
X7585044Y17356762D01*
X7540012Y17465479D01*
X7524537Y17502839D01*
X7524537Y17502840D01*
X7428286Y17628277D01*
X7428285Y17628278D01*
X7428282Y17628282D01*
X7428277Y17628286D01*
X7428276Y17628287D01*
X7302842Y17724536D01*
X7302837Y17724538D01*
X7255633Y17744090D01*
X7236470Y17754644D01*
X7226038Y17762000D01*
X7089998Y17822396D01*
X6909329Y17902606D01*
X6863816Y17943499D01*
X6850500Y17993090D01*
X6850500Y19285362D01*
X7474500Y19285362D01*
X7506224Y19125877D01*
X7568450Y18975649D01*
X7651823Y18850871D01*
X7658792Y18840442D01*
X7773775Y18725459D01*
X7908979Y18635119D01*
X8059211Y18572891D01*
X8218695Y18541167D01*
X8218696Y18541167D01*
X8381304Y18541167D01*
X8381305Y18541167D01*
X8540789Y18572891D01*
X8691021Y18635119D01*
X8826225Y18725459D01*
X8941208Y18840442D01*
X8972900Y18887872D01*
X9900000Y18887872D01*
X9930742Y18733318D01*
X9991048Y18587727D01*
X9991052Y18587718D01*
X10078599Y18456698D01*
X10078602Y18456694D01*
X10190026Y18345270D01*
X10190030Y18345267D01*
X10321050Y18257720D01*
X10321059Y18257716D01*
X10466646Y18197412D01*
X10466654Y18197410D01*
X10600000Y18170887D01*
X10600000Y18682879D01*
X10660504Y18666667D01*
X10739496Y18666667D01*
X10800000Y18682879D01*
X10800000Y18170888D01*
X10933345Y18197410D01*
X10933353Y18197412D01*
X11078940Y18257716D01*
X11078949Y18257720D01*
X11209969Y18345267D01*
X11209973Y18345270D01*
X11321397Y18456694D01*
X11321400Y18456698D01*
X11408947Y18587718D01*
X11408951Y18587727D01*
X11469257Y18733318D01*
X11499999Y18887872D01*
X11500000Y18887875D01*
X11500000Y19516666D01*
X11499999Y19516667D01*
X11000000Y19516667D01*
X11000000Y19716667D01*
X11499999Y19716667D01*
X11500000Y19716668D01*
X11500000Y20345460D01*
X11499999Y20345463D01*
X11469257Y20500017D01*
X11408951Y20645608D01*
X11408947Y20645617D01*
X11321400Y20776637D01*
X11321397Y20776641D01*
X11209973Y20888065D01*
X11209969Y20888068D01*
X11078949Y20975615D01*
X11078940Y20975619D01*
X10933349Y21035925D01*
X10800000Y21062450D01*
X10800000Y20550456D01*
X10739496Y20566667D01*
X10660504Y20566667D01*
X10600000Y20550456D01*
X10600000Y21062450D01*
X10466650Y21035925D01*
X10321059Y20975619D01*
X10321050Y20975615D01*
X10190030Y20888068D01*
X10190026Y20888065D01*
X10078602Y20776641D01*
X10078599Y20776637D01*
X9991052Y20645617D01*
X9991048Y20645608D01*
X9930742Y20500017D01*
X9900000Y20345463D01*
X9900000Y19716668D01*
X9900001Y19716667D01*
X10400000Y19716667D01*
X10400000Y19516667D01*
X9900001Y19516667D01*
X9900000Y19516666D01*
X9900000Y18887872D01*
X8972900Y18887872D01*
X9031548Y18975646D01*
X9093776Y19125878D01*
X9125500Y19285362D01*
X9125500Y19447972D01*
X9093776Y19607456D01*
X9031548Y19757688D01*
X8941208Y19892892D01*
X8826225Y20007875D01*
X8795854Y20028168D01*
X8691018Y20098217D01*
X8540790Y20160443D01*
X8381305Y20192167D01*
X8218695Y20192167D01*
X8218694Y20192167D01*
X8059209Y20160443D01*
X7908981Y20098217D01*
X7773778Y20007878D01*
X7658789Y19892889D01*
X7568450Y19757686D01*
X7506224Y19607458D01*
X7474500Y19447973D01*
X7474500Y19285362D01*
X6850500Y19285362D01*
X6850500Y20119747D01*
X6850498Y20119759D01*
X6842405Y20160443D01*
X6838867Y20178231D01*
X6794552Y20244552D01*
X6794548Y20244555D01*
X6728230Y20288868D01*
X6719222Y20292599D01*
X6720509Y20295708D01*
X6712483Y20300000D01*
X6700000Y20300000D01*
X6679689Y20300000D01*
X6669988Y20300476D01*
X6669751Y20300500D01*
X6669748Y20300500D01*
X6330252Y20300500D01*
X6330248Y20300500D01*
X6330012Y20300476D01*
X6320311Y20300000D01*
X5679689Y20300000D01*
X5669988Y20300476D01*
X5669751Y20300500D01*
X5669748Y20300500D01*
X5330252Y20300500D01*
X5330248Y20300500D01*
X5330012Y20300476D01*
X5320311Y20300000D01*
X5179689Y20300000D01*
X5169988Y20300476D01*
X5169751Y20300500D01*
X5169748Y20300500D01*
X4830252Y20300500D01*
X4830248Y20300500D01*
X4830012Y20300476D01*
X4820311Y20300000D01*
X4179689Y20300000D01*
X4169988Y20300476D01*
X4169751Y20300500D01*
X4169748Y20300500D01*
X3830252Y20300500D01*
X3830248Y20300500D01*
X3830012Y20300476D01*
X3820311Y20300000D01*
X2679689Y20300000D01*
X2669988Y20300476D01*
X2669751Y20300500D01*
X2669748Y20300500D01*
X2330252Y20300500D01*
X2330248Y20300500D01*
X2330012Y20300476D01*
X2320311Y20300000D01*
X1679689Y20300000D01*
X1669988Y20300476D01*
X1669751Y20300500D01*
X1669748Y20300500D01*
X1330252Y20300500D01*
X1330248Y20300500D01*
X1330012Y20300476D01*
X1320311Y20300000D01*
X1179689Y20300000D01*
X1169988Y20300476D01*
X1169751Y20300500D01*
X1169748Y20300500D01*
X830252Y20300500D01*
X830248Y20300500D01*
X830012Y20300476D01*
X820311Y20300000D01*
X179689Y20300000D01*
X169988Y20300476D01*
X169751Y20300500D01*
X169748Y20300500D01*
X-169748Y20300500D01*
X-169752Y20300500D01*
X-169988Y20300476D01*
X-179689Y20300000D01*
X-320311Y20300000D01*
X-330012Y20300476D01*
X-330249Y20300500D01*
X-330252Y20300500D01*
X-669748Y20300500D01*
X-669752Y20300500D01*
X-669988Y20300476D01*
X-679689Y20300000D01*
X-1320311Y20300000D01*
X-1330012Y20300476D01*
X-1330249Y20300500D01*
X-1330252Y20300500D01*
X-1669748Y20300500D01*
X-1669752Y20300500D01*
X-1669988Y20300476D01*
X-1679689Y20300000D01*
X-1820311Y20300000D01*
X-1830012Y20300476D01*
X-1830249Y20300500D01*
X-1830252Y20300500D01*
X-2169748Y20300500D01*
X-2169752Y20300500D01*
X-2169988Y20300476D01*
X-2179689Y20300000D01*
X-2820311Y20300000D01*
X-2830012Y20300476D01*
X-2830249Y20300500D01*
X-2830252Y20300500D01*
X-3169748Y20300500D01*
X-3169749Y20300500D01*
X-3169759Y20300499D01*
X-3228228Y20288868D01*
X-3228234Y20288866D01*
X-3294549Y20244555D01*
X-3294555Y20244549D01*
X-3338866Y20178234D01*
X-3338868Y20178228D01*
X-3350499Y20119759D01*
X-3350500Y20119747D01*
X-3350500Y19907521D01*
X-3369407Y19849330D01*
X-3418907Y19813366D01*
X-3480093Y19813366D01*
X-3529593Y19849330D01*
X-3531815Y19852519D01*
X-3558789Y19892888D01*
X-3558790Y19892889D01*
X-3558792Y19892892D01*
X-3673775Y20007875D01*
X-3704146Y20028168D01*
X-3808982Y20098217D01*
X-3959210Y20160443D01*
X-4118695Y20192167D01*
X-4281305Y20192167D01*
X-4281306Y20192167D01*
X-4440791Y20160443D01*
X-4591019Y20098217D01*
X-4726226Y20007875D01*
X-4731001Y20003100D01*
X-4785519Y19975326D01*
X-4845950Y19984901D01*
X-4889212Y20028168D01*
X-4900000Y20073108D01*
X-4900000Y20345460D01*
X-4900001Y20345463D01*
X-4930743Y20500017D01*
X-4991049Y20645608D01*
X-4991053Y20645617D01*
X-5078600Y20776637D01*
X-5078603Y20776641D01*
X-5190027Y20888065D01*
X-5190031Y20888068D01*
X-5321051Y20975615D01*
X-5321060Y20975619D01*
X-5466651Y21035925D01*
X-5600000Y21062450D01*
X-5600000Y20550456D01*
X-5660504Y20566667D01*
X-5739496Y20566667D01*
X-5800000Y20550456D01*
X-5800000Y21062450D01*
X-5933350Y21035925D01*
X-6078941Y20975619D01*
X-6078950Y20975615D01*
X-6209970Y20888068D01*
X-6209974Y20888065D01*
X-6321398Y20776641D01*
X-6321401Y20776637D01*
X-6408948Y20645617D01*
X-6408952Y20645608D01*
X-6469258Y20500017D01*
X-6500000Y20345463D01*
X-6500000Y19716668D01*
X-6499999Y19716667D01*
X-6000000Y19716667D01*
X-6000000Y19516667D01*
X-6499999Y19516667D01*
X-6500000Y19516666D01*
X-6500000Y18887872D01*
X-6469258Y18733318D01*
X-6408952Y18587727D01*
X-6408948Y18587718D01*
X-6321401Y18456698D01*
X-6321398Y18456694D01*
X-6209974Y18345270D01*
X-6209970Y18345267D01*
X-6078950Y18257720D01*
X-6078941Y18257716D01*
X-5933354Y18197412D01*
X-5933346Y18197410D01*
X-5800000Y18170887D01*
X-5800000Y18682879D01*
X-5739496Y18666667D01*
X-5660504Y18666667D01*
X-5600000Y18682879D01*
X-5600000Y18170888D01*
X-5466655Y18197410D01*
X-5466647Y18197412D01*
X-5321060Y18257716D01*
X-5321051Y18257720D01*
X-5190031Y18345267D01*
X-5190027Y18345270D01*
X-5078603Y18456694D01*
X-5078600Y18456698D01*
X-4991053Y18587718D01*
X-4991047Y18587730D01*
X-4929843Y18735491D01*
X-4890107Y18782017D01*
X-4830612Y18796301D01*
X-4774084Y18772887D01*
X-4768389Y18767623D01*
X-4726225Y18725459D01*
X-4591021Y18635119D01*
X-4440789Y18572891D01*
X-4281305Y18541167D01*
X-4281304Y18541167D01*
X-4118696Y18541167D01*
X-4118695Y18541167D01*
X-3959211Y18572891D01*
X-3808979Y18635119D01*
X-3673775Y18725459D01*
X-3558792Y18840442D01*
X-3531816Y18880816D01*
X-3483766Y18918695D01*
X-3422628Y18921097D01*
X-3371754Y18887105D01*
X-3350576Y18829701D01*
X-3350500Y18825814D01*
X-3350500Y17880254D01*
X-3350499Y17880242D01*
X-3338868Y17821773D01*
X-3338866Y17821767D01*
X-3300235Y17763953D01*
X-3283550Y17708951D01*
X-3283550Y17393409D01*
X-3283551Y17393391D01*
X-3283551Y17387329D01*
X-3283551Y17312669D01*
X-3267026Y17251000D01*
X-3264227Y17240553D01*
X-3264226Y17240550D01*
X-3250563Y17216887D01*
X-3250561Y17216882D01*
X-3226902Y17175901D01*
X-3226899Y17175898D01*
X-3226897Y17175895D01*
X-3174104Y17123102D01*
X-3174102Y17123101D01*
X-3168460Y17117459D01*
X-3168461Y17117459D01*
X-3168457Y17117456D01*
X-3008506Y16957504D01*
X-2980729Y16902988D01*
X-2990300Y16842556D01*
X-3008506Y16817498D01*
X-3174102Y16651901D01*
X-3174102Y16651900D01*
X-3174104Y16651898D01*
X-3174105Y16651899D01*
X-3226898Y16599105D01*
X-3250563Y16558115D01*
X-3250563Y16558114D01*
X-3264225Y16534452D01*
X-3264229Y16534443D01*
X-3283724Y16461689D01*
X-3317048Y16410376D01*
X-3337509Y16397590D01*
X-3368315Y16383225D01*
X-3453226Y16298314D01*
X-3503971Y16189490D01*
X-3503972Y16189489D01*
X-3510500Y16139900D01*
X-3510500Y15780105D01*
X-3510499Y15780093D01*
X-3503973Y15730514D01*
X-3503973Y15730512D01*
X-3453226Y15621687D01*
X-3453225Y15621686D01*
X-3453224Y15621684D01*
X-3381542Y15550002D01*
X-3353766Y15495487D01*
X-3363337Y15435055D01*
X-3381541Y15410000D01*
X-3450573Y15340967D01*
X-3453226Y15338314D01*
X-3503971Y15229490D01*
X-3503972Y15229489D01*
X-3510500Y15179900D01*
X-3510500Y14820105D01*
X-3510499Y14820093D01*
X-3503973Y14770514D01*
X-3503973Y14770512D01*
X-3453226Y14661687D01*
X-3453225Y14661686D01*
X-3453224Y14661684D01*
X-3373526Y14581986D01*
X-3345750Y14527471D01*
X-3355321Y14467039D01*
X-3373528Y14441980D01*
X-3660800Y14154709D01*
X-3715316Y14126932D01*
X-3775748Y14136503D01*
X-3800807Y14154709D01*
X-4055948Y14409850D01*
X-4055952Y14409854D01*
X-4087303Y14441206D01*
X-4087306Y14441208D01*
X-4087308Y14441210D01*
X-4185351Y14497815D01*
X-4185355Y14497817D01*
X-4294714Y14527120D01*
X-4407935Y14527120D01*
X-4407939Y14527119D01*
X-4517296Y14497816D01*
X-4615346Y14441206D01*
X-4628977Y14427575D01*
X-4671797Y14384757D01*
X-4671797Y14384756D01*
X-4671799Y14384754D01*
X-4671805Y14384749D01*
X-4671805Y14384748D01*
X-4678159Y14378395D01*
X-4678174Y14378388D01*
X-4747184Y14309375D01*
X-4803793Y14211323D01*
X-4833093Y14101964D01*
X-4833093Y14101962D01*
X-4833091Y13988742D01*
X-4833090Y13988740D01*
X-4803787Y13879385D01*
X-4803783Y13879375D01*
X-4747175Y13781333D01*
X-4747174Y13781332D01*
X-4747173Y13781331D01*
X-4715764Y13749923D01*
X-4715762Y13749921D01*
X-4460678Y13494836D01*
X-4432901Y13440320D01*
X-4442472Y13379888D01*
X-4460678Y13354829D01*
X-5400654Y12414853D01*
X-5400655Y12414854D01*
X-5453446Y12362062D01*
X-5469335Y12334541D01*
X-5490778Y12297403D01*
X-5510101Y12225289D01*
X-5510101Y12142652D01*
X-5510100Y12142639D01*
X-5510100Y10143909D01*
X-5529007Y10085718D01*
X-5539097Y10073905D01*
X-5762103Y9850901D01*
X-5762102Y9850900D01*
X-5762104Y9850898D01*
X-5762105Y9850899D01*
X-5814897Y9798106D01*
X-5814901Y9798101D01*
X-5822047Y9785723D01*
X-5867518Y9744783D01*
X-5928368Y9738389D01*
X-5981355Y9768983D01*
X-6006240Y9824880D01*
X-6005936Y9848143D01*
X-5998318Y9906000D01*
X-6000120Y9919684D01*
X-6007905Y9978823D01*
X-6018956Y10062762D01*
X-6041740Y10117768D01*
X-6079463Y10208839D01*
X-6079463Y10208840D01*
X-6175714Y10334277D01*
X-6175715Y10334278D01*
X-6175718Y10334282D01*
X-6175723Y10334286D01*
X-6175724Y10334287D01*
X-6301162Y10430538D01*
X-6447234Y10491043D01*
X-6447242Y10491045D01*
X-6603999Y10511682D01*
X-6604001Y10511682D01*
X-6760759Y10491045D01*
X-6760767Y10491043D01*
X-6906839Y10430538D01*
X-6906840Y10430538D01*
X-7032277Y10334287D01*
X-7032287Y10334277D01*
X-7128538Y10208840D01*
X-7128538Y10208839D01*
X-7189043Y10062767D01*
X-7189045Y10062759D01*
X-7209682Y9906001D01*
X-7209682Y9906000D01*
X-7189045Y9749242D01*
X-7189043Y9749233D01*
X-7166264Y9694241D01*
X-7161005Y9677469D01*
X-7157166Y9659881D01*
X-7078088Y9478549D01*
X-7072866Y9424919D01*
X-7071080Y9424683D01*
X-7078500Y9368320D01*
X-7078500Y8919686D01*
X-7072068Y8870826D01*
X-7072068Y8870825D01*
X-7022067Y8763599D01*
X-7022066Y8763598D01*
X-7022065Y8763596D01*
X-6938404Y8679935D01*
X-6938403Y8679935D01*
X-6938402Y8679934D01*
X-6831176Y8629933D01*
X-6831175Y8629933D01*
X-6831173Y8629932D01*
X-6782316Y8623500D01*
X-6782315Y8623500D01*
X-6433686Y8623500D01*
X-6433684Y8623500D01*
X-6384827Y8629932D01*
X-6277596Y8679935D01*
X-6193935Y8763596D01*
X-6187725Y8776915D01*
X-6145997Y8821663D01*
X-6085936Y8833338D01*
X-6030483Y8807481D01*
X-6008276Y8776916D01*
X-6002065Y8763596D01*
X-5918404Y8679935D01*
X-5918403Y8679935D01*
X-5918401Y8679933D01*
X-5911309Y8674967D01*
X-5912918Y8672670D01*
X-5878266Y8640360D01*
X-5869224Y8617985D01*
X-5852227Y8554553D01*
X-5852226Y8554549D01*
X-5845516Y8542929D01*
X-5845515Y8542925D01*
X-5845514Y8542925D01*
X-5845513Y8542924D01*
X-5814897Y8489895D01*
X-5762104Y8437102D01*
X-5762102Y8437101D01*
X-5539096Y8214095D01*
X-5511319Y8159578D01*
X-5510100Y8144091D01*
X-5510100Y7449500D01*
X-5529007Y7391309D01*
X-5578507Y7355345D01*
X-5609100Y7350500D01*
X-7169748Y7350500D01*
X-7169749Y7350500D01*
X-7169759Y7350499D01*
X-7228228Y7338868D01*
X-7228234Y7338866D01*
X-7294549Y7294555D01*
X-7294555Y7294549D01*
X-7338866Y7228234D01*
X-7338868Y7228228D01*
X-7350499Y7169759D01*
X-7350500Y7169747D01*
X-7350500Y5530254D01*
X-7350499Y5530242D01*
X-7338868Y5471773D01*
X-7338866Y5471767D01*
X-7294555Y5405452D01*
X-7294552Y5405448D01*
X-7228231Y5361133D01*
X-7183769Y5352289D01*
X-7169759Y5349502D01*
X-7169754Y5349502D01*
X-7169748Y5349500D01*
X-5913591Y5349500D01*
X-5879732Y5343530D01*
X-5859642Y5336218D01*
X-5679474Y5304450D01*
X-5625330Y5304450D01*
X-5377409Y5304450D01*
X-5377393Y5304449D01*
X-5318224Y5304449D01*
X-5260033Y5285542D01*
X-5224069Y5236042D01*
X-5219602Y5196821D01*
X-5221275Y5177685D01*
X-5233458Y5038438D01*
X-5236454Y5021444D01*
X-5283088Y4847403D01*
X-5288991Y4831187D01*
X-5365132Y4667903D01*
X-5373760Y4652958D01*
X-5470988Y4514103D01*
X-5519853Y4477281D01*
X-5581029Y4476213D01*
X-5628612Y4508083D01*
X-5639117Y4520883D01*
X-5679920Y4554370D01*
X-5791458Y4645907D01*
X-5791460Y4645908D01*
X-5791462Y4645910D01*
X-5834440Y4668882D01*
X-5965268Y4738812D01*
X-5965270Y4738813D01*
X-6153871Y4796025D01*
X-6153874Y4796026D01*
X-6349997Y4815341D01*
X-6350003Y4815341D01*
X-6546127Y4796026D01*
X-6546130Y4796025D01*
X-6734731Y4738813D01*
X-6734733Y4738812D01*
X-6908533Y4645913D01*
X-6908543Y4645907D01*
X-7060879Y4520888D01*
X-7060888Y4520879D01*
X-7185907Y4368543D01*
X-7185913Y4368533D01*
X-7278812Y4194733D01*
X-7278813Y4194731D01*
X-7336025Y4006130D01*
X-7336026Y4006127D01*
X-7355341Y3810004D01*
X-7355341Y3809997D01*
X-8814500Y3809997D01*
X-8814500Y26317872D01*
X-8100000Y26317872D01*
X-8069258Y26163318D01*
X-8008952Y26017727D01*
X-8008948Y26017718D01*
X-7921401Y25886698D01*
X-7921398Y25886694D01*
X-7809974Y25775270D01*
X-7809970Y25775267D01*
X-7678950Y25687720D01*
X-7678941Y25687716D01*
X-7533354Y25627412D01*
X-7533346Y25627410D01*
X-7400000Y25600887D01*
X-7400000Y26112879D01*
X-7339496Y26096667D01*
X-7260504Y26096667D01*
X-7200000Y26112879D01*
X-7200000Y25600888D01*
X-7066655Y25627410D01*
X-7066647Y25627412D01*
X-6921060Y25687716D01*
X-6921051Y25687720D01*
X-6790031Y25775267D01*
X-6790027Y25775270D01*
X-6678603Y25886694D01*
X-6678600Y25886698D01*
X-6591053Y26017718D01*
X-6591049Y26017727D01*
X-6530743Y26163318D01*
X-6500001Y26317872D01*
X11500000Y26317872D01*
X11530742Y26163318D01*
X11591048Y26017727D01*
X11591052Y26017718D01*
X11678599Y25886698D01*
X11678602Y25886694D01*
X11790026Y25775270D01*
X11790030Y25775267D01*
X11921050Y25687720D01*
X11921059Y25687716D01*
X12066646Y25627412D01*
X12066654Y25627410D01*
X12200000Y25600887D01*
X12200000Y26112879D01*
X12260504Y26096667D01*
X12339496Y26096667D01*
X12400000Y26112879D01*
X12400000Y25600888D01*
X12533345Y25627410D01*
X12533353Y25627412D01*
X12678940Y25687716D01*
X12678949Y25687720D01*
X12809969Y25775267D01*
X12809973Y25775270D01*
X12921397Y25886694D01*
X12921400Y25886698D01*
X13008947Y26017718D01*
X13008951Y26017727D01*
X13069257Y26163318D01*
X13099999Y26317872D01*
X13100000Y26317875D01*
X13100000Y26796666D01*
X13099999Y26796667D01*
X12600000Y26796667D01*
X12600000Y26996667D01*
X13099999Y26996667D01*
X13100000Y26996668D01*
X13100000Y27475460D01*
X13099999Y27475463D01*
X13069257Y27630017D01*
X13008951Y27775608D01*
X13008947Y27775617D01*
X12921400Y27906637D01*
X12921397Y27906641D01*
X12809973Y28018065D01*
X12809969Y28018068D01*
X12678949Y28105615D01*
X12678940Y28105619D01*
X12533349Y28165925D01*
X12400000Y28192450D01*
X12400000Y27680456D01*
X12339496Y27696667D01*
X12260504Y27696667D01*
X12200000Y27680456D01*
X12200000Y28192450D01*
X12066650Y28165925D01*
X11921059Y28105619D01*
X11921050Y28105615D01*
X11790030Y28018068D01*
X11790026Y28018065D01*
X11678602Y27906641D01*
X11678599Y27906637D01*
X11591052Y27775617D01*
X11591048Y27775608D01*
X11530742Y27630017D01*
X11500000Y27475463D01*
X11500000Y26996668D01*
X11500001Y26996667D01*
X12000000Y26996667D01*
X12000000Y26796667D01*
X11500001Y26796667D01*
X11500000Y26796666D01*
X11500000Y26317872D01*
X-6500001Y26317872D01*
X-6500000Y26317875D01*
X-6500000Y26796666D01*
X-6500001Y26796667D01*
X-7000000Y26796667D01*
X-7000000Y26996667D01*
X-6500001Y26996667D01*
X-6500000Y26996668D01*
X-6500000Y27475460D01*
X-6500001Y27475463D01*
X-6530743Y27630017D01*
X-6591049Y27775608D01*
X-6591053Y27775617D01*
X-6678600Y27906637D01*
X-6678603Y27906641D01*
X-6790027Y28018065D01*
X-6790031Y28018068D01*
X-6921051Y28105615D01*
X-6921060Y28105619D01*
X-7066651Y28165925D01*
X-7200000Y28192450D01*
X-7200000Y27680456D01*
X-7260504Y27696667D01*
X-7339496Y27696667D01*
X-7400000Y27680456D01*
X-7400000Y28192450D01*
X-7533350Y28165925D01*
X-7678941Y28105619D01*
X-7678950Y28105615D01*
X-7809970Y28018068D01*
X-7809974Y28018065D01*
X-7921398Y27906641D01*
X-7921401Y27906637D01*
X-8008948Y27775617D01*
X-8008952Y27775608D01*
X-8069258Y27630017D01*
X-8100000Y27475463D01*
X-8100000Y26996668D01*
X-8099999Y26996667D01*
X-7600000Y26996667D01*
X-7600000Y26796667D01*
X-8099999Y26796667D01*
X-8100000Y26796666D01*
X-8100000Y26317872D01*
X-8814500Y26317872D01*
X-8814500Y30767719D01*
X-8795593Y30825910D01*
X-8785504Y30837723D01*
X-7617723Y32005504D01*
X-7563206Y32033281D01*
X-7547719Y32034500D01*
X30407719Y32034500D01*
X30465910Y32015593D01*
G37*
G04 #@! TD.AperFunction*
G04 #@! TD*
M02*
