G04 #@! TF.GenerationSoftware,KiCad,Pcbnew,8.0.0*
G04 #@! TF.CreationDate,2024-03-17T08:28:34+09:00*
G04 #@! TF.ProjectId,Pmod_DisplayPort,506d6f64-5f44-4697-9370-6c6179506f72,rev?*
G04 #@! TF.SameCoordinates,PXae6870PY2719c40*
G04 #@! TF.FileFunction,Copper,L2,Bot*
G04 #@! TF.FilePolarity,Positive*
%FSLAX46Y46*%
G04 Gerber Fmt 4.6, Leading zero omitted, Abs format (unit mm)*
G04 Created by KiCad (PCBNEW 8.0.0) date 2024-03-17 08:28:34*
%MOMM*%
%LPD*%
G01*
G04 APERTURE LIST*
G04 #@! TA.AperFunction,ComponentPad*
%ADD10R,1.600000X1.600000*%
G04 #@! TD*
G04 #@! TA.AperFunction,ComponentPad*
%ADD11O,1.600000X1.600000*%
G04 #@! TD*
G04 #@! TA.AperFunction,ComponentPad*
%ADD12O,1.200000X2.200000*%
G04 #@! TD*
G04 #@! TA.AperFunction,ComponentPad*
%ADD13O,1.200000X2.500000*%
G04 #@! TD*
G04 #@! TA.AperFunction,ViaPad*
%ADD14C,0.800000*%
G04 #@! TD*
G04 #@! TA.AperFunction,Conductor*
%ADD15C,0.800000*%
G04 #@! TD*
G04 #@! TA.AperFunction,Conductor*
%ADD16C,1.000000*%
G04 #@! TD*
G04 APERTURE END LIST*
D10*
G04 #@! TO.P,J1,1,Pin_1*
G04 #@! TO.N,/PMOD_L0_P*
X-6350000Y6350000D03*
D11*
G04 #@! TO.P,J1,2,Pin_2*
G04 #@! TO.N,/PMOD_L1_P*
X-3810000Y6350000D03*
G04 #@! TO.P,J1,3,Pin_3*
G04 #@! TO.N,/PMOD_L2_P*
X-1270000Y6350000D03*
G04 #@! TO.P,J1,4,Pin_4*
G04 #@! TO.N,/PMOD_L3_P*
X1270000Y6350000D03*
G04 #@! TO.P,J1,5,Pin_5*
G04 #@! TO.N,GND*
X3810000Y6350000D03*
G04 #@! TO.P,J1,6,Pin_6*
G04 #@! TO.N,+3V3*
X6350000Y6350000D03*
G04 #@! TO.P,J1,7,Pin_7*
G04 #@! TO.N,/PMOD_L0_N*
X-6350000Y3810000D03*
G04 #@! TO.P,J1,8,Pin_8*
G04 #@! TO.N,/PMOD_L1_N*
X-3810000Y3810000D03*
G04 #@! TO.P,J1,9,Pin_9*
G04 #@! TO.N,/PMOD_L2_N*
X-1270000Y3810000D03*
G04 #@! TO.P,J1,10,Pin_10*
G04 #@! TO.N,/PMOD_L3_N*
X1270000Y3810000D03*
G04 #@! TO.P,J1,11,Pin_11*
G04 #@! TO.N,GND*
X3810000Y3810000D03*
G04 #@! TO.P,J1,12,Pin_12*
G04 #@! TO.N,+3V3*
X6350000Y3810000D03*
G04 #@! TD*
D10*
G04 #@! TO.P,J2,1,Pin_1*
G04 #@! TO.N,/PMOD_AUX_CH_P*
X16510000Y6350000D03*
D11*
G04 #@! TO.P,J2,2,Pin_2*
G04 #@! TO.N,/PMOD_P2_HOT_PLUG*
X19050000Y6350000D03*
G04 #@! TO.P,J2,3,Pin_3*
G04 #@! TO.N,/PMOD_P3*
X21590000Y6350000D03*
G04 #@! TO.P,J2,4,Pin_4*
G04 #@! TO.N,/PMOD_P4*
X24130000Y6350000D03*
G04 #@! TO.P,J2,5,Pin_5*
G04 #@! TO.N,GND*
X26670000Y6350000D03*
G04 #@! TO.P,J2,6,Pin_6*
G04 #@! TO.N,+3V3*
X29210000Y6350000D03*
G04 #@! TO.P,J2,7,Pin_7*
G04 #@! TO.N,/PMOD_AUX_CH_N*
X16510000Y3810000D03*
G04 #@! TO.P,J2,8,Pin_8*
G04 #@! TO.N,/PMOD_P8*
X19050000Y3810000D03*
G04 #@! TO.P,J2,9,Pin_9*
G04 #@! TO.N,/PMOD_P9*
X21590000Y3810000D03*
G04 #@! TO.P,J2,10,Pin_10*
G04 #@! TO.N,/PMOD_P10*
X24130000Y3810000D03*
G04 #@! TO.P,J2,11,Pin_11*
G04 #@! TO.N,GND*
X26670000Y3810000D03*
G04 #@! TO.P,J2,12,Pin_12*
G04 #@! TO.N,+3V3*
X29210000Y3810000D03*
G04 #@! TD*
D12*
G04 #@! TO.P,CN1,FG,FG*
G04 #@! TO.N,GND*
X12300000Y26896667D03*
D13*
X10700000Y19616667D03*
X-5700000Y19616667D03*
D12*
X-7300000Y26896667D03*
G04 #@! TD*
D14*
G04 #@! TO.N,GND*
X22400000Y11150000D03*
X18250000Y15650000D03*
X8650000Y13450000D03*
X14351000Y8001000D03*
X889000Y7747000D03*
X20700000Y10700000D03*
X6000000Y20800000D03*
X16800000Y15500000D03*
X23750000Y8100000D03*
X18200000Y14700000D03*
X7350000Y18350000D03*
X500000Y20800000D03*
X3250000Y17200000D03*
X-400000Y12150000D03*
X5400000Y16350000D03*
X13400000Y15500000D03*
X5250000Y8850000D03*
X-4191000Y11684000D03*
X-1000000Y20800000D03*
X-2413000Y13462000D03*
X14000000Y10950000D03*
X3450000Y7750000D03*
X16002000Y8001000D03*
X22150000Y7700000D03*
X2900000Y15100000D03*
X16800000Y13350000D03*
X13000000Y8850000D03*
X-4000000Y15000000D03*
X-3450000Y7750000D03*
X-900000Y11600000D03*
X27050000Y8050000D03*
X5200000Y13500000D03*
X5200000Y7300000D03*
X19750000Y8100000D03*
X23750000Y10450000D03*
X18669000Y8128000D03*
X-1550000Y8000000D03*
X28050000Y10200000D03*
X7500000Y7250000D03*
X19200000Y10650000D03*
X-6000000Y7850000D03*
X30000000Y8350000D03*
X15300000Y12200000D03*
X7500000Y8850000D03*
X18700000Y13350000D03*
X3450000Y8850000D03*
X7650000Y11000000D03*
X8650000Y17200000D03*
X-4200000Y8000000D03*
X10950000Y15500000D03*
X-3302000Y11811000D03*
X6350000Y15500000D03*
X4500000Y20800000D03*
X20800000Y13000000D03*
X5200000Y10950000D03*
X16300000Y10200000D03*
X-5150000Y13400000D03*
X3450000Y13500000D03*
X3250000Y20800000D03*
X8650000Y15500000D03*
X2000000Y20800000D03*
X6350000Y13450000D03*
X-2500000Y20800000D03*
X22350000Y13800000D03*
X3500000Y11900000D03*
X1500000Y11800000D03*
G04 #@! TO.N,+3V3*
X-3810000Y9906000D03*
X-1270000Y9906000D03*
X-6604000Y9906000D03*
X7000000Y17200000D03*
X1270000Y9906000D03*
X20320000Y9144000D03*
X4064000Y9906000D03*
X15367000Y9144000D03*
X23749000Y9144000D03*
G04 #@! TD*
D15*
G04 #@! TO.N,+3V3*
X29210000Y6350000D02*
X29210000Y3810000D01*
X13462000Y9906000D02*
X14224000Y9144000D01*
D16*
X7500000Y12500000D02*
X6350000Y11350000D01*
D15*
X-1270000Y9906000D02*
X-3810000Y9906000D01*
X14224000Y9144000D02*
X15367000Y9144000D01*
X7500000Y9906000D02*
X13462000Y9906000D01*
X6350000Y9906000D02*
X4064000Y9906000D01*
X15367000Y9144000D02*
X20320000Y9144000D01*
X-3810000Y9906000D02*
X-6604000Y9906000D01*
X6350000Y9906000D02*
X7500000Y9906000D01*
X27559000Y9144000D02*
X29210000Y7493000D01*
D16*
X6350000Y6350000D02*
X6350000Y3810000D01*
X7000000Y17200000D02*
X7500000Y16700000D01*
D15*
X4064000Y9906000D02*
X1270000Y9906000D01*
D16*
X7500000Y16700000D02*
X7500000Y12500000D01*
D15*
X29210000Y7493000D02*
X29210000Y6350000D01*
D16*
X6350000Y9906000D02*
X6350000Y6350000D01*
X6350000Y11350000D02*
X6350000Y9906000D01*
D15*
X1270000Y9906000D02*
X-1270000Y9906000D01*
X23749000Y9144000D02*
X27559000Y9144000D01*
X20320000Y9144000D02*
X23749000Y9144000D01*
G04 #@! TD*
G04 #@! TA.AperFunction,Conductor*
G04 #@! TO.N,GND*
G36*
X30465910Y32015593D02*
G01*
X30477723Y32005504D01*
X31645504Y30837723D01*
X31673281Y30783206D01*
X31674500Y30767719D01*
X31674500Y1342281D01*
X31655593Y1284090D01*
X31645504Y1272277D01*
X30477723Y104496D01*
X30423206Y76719D01*
X30407719Y75500D01*
X-7547719Y75500D01*
X-7605910Y94407D01*
X-7617723Y104496D01*
X-8785504Y1272277D01*
X-8813281Y1326794D01*
X-8814500Y1342281D01*
X-8814500Y3809997D01*
X-7355341Y3809997D01*
X-7336026Y3613874D01*
X-7336025Y3613871D01*
X-7278813Y3425270D01*
X-7278812Y3425268D01*
X-7207782Y3292382D01*
X-7185910Y3251462D01*
X-7185908Y3251460D01*
X-7185907Y3251458D01*
X-7060888Y3099122D01*
X-7060879Y3099113D01*
X-6909046Y2974507D01*
X-6908538Y2974090D01*
X-6734727Y2881186D01*
X-6546132Y2823976D01*
X-6546130Y2823976D01*
X-6546127Y2823975D01*
X-6350003Y2804659D01*
X-6350000Y2804659D01*
X-6349997Y2804659D01*
X-6153874Y2823975D01*
X-6153873Y2823976D01*
X-6153868Y2823976D01*
X-5965273Y2881186D01*
X-5791462Y2974090D01*
X-5639117Y3099117D01*
X-5514090Y3251462D01*
X-5421186Y3425273D01*
X-5363976Y3613868D01*
X-5363965Y3613972D01*
X-5344659Y3809997D01*
X-4815341Y3809997D01*
X-4796026Y3613874D01*
X-4796025Y3613871D01*
X-4738813Y3425270D01*
X-4738812Y3425268D01*
X-4667782Y3292382D01*
X-4645910Y3251462D01*
X-4645908Y3251460D01*
X-4645907Y3251458D01*
X-4520888Y3099122D01*
X-4520879Y3099113D01*
X-4369046Y2974507D01*
X-4368538Y2974090D01*
X-4194727Y2881186D01*
X-4006132Y2823976D01*
X-4006130Y2823976D01*
X-4006127Y2823975D01*
X-3810003Y2804659D01*
X-3810000Y2804659D01*
X-3809997Y2804659D01*
X-3613874Y2823975D01*
X-3613873Y2823976D01*
X-3613868Y2823976D01*
X-3425273Y2881186D01*
X-3251462Y2974090D01*
X-3099117Y3099117D01*
X-2974090Y3251462D01*
X-2881186Y3425273D01*
X-2823976Y3613868D01*
X-2823965Y3613972D01*
X-2804659Y3809997D01*
X-2275341Y3809997D01*
X-2256026Y3613874D01*
X-2256025Y3613871D01*
X-2198813Y3425270D01*
X-2198812Y3425268D01*
X-2127782Y3292382D01*
X-2105910Y3251462D01*
X-2105908Y3251460D01*
X-2105907Y3251458D01*
X-1980888Y3099122D01*
X-1980879Y3099113D01*
X-1829046Y2974507D01*
X-1828538Y2974090D01*
X-1654727Y2881186D01*
X-1466132Y2823976D01*
X-1466130Y2823976D01*
X-1466127Y2823975D01*
X-1270003Y2804659D01*
X-1270000Y2804659D01*
X-1269997Y2804659D01*
X-1073874Y2823975D01*
X-1073873Y2823976D01*
X-1073868Y2823976D01*
X-885273Y2881186D01*
X-711462Y2974090D01*
X-559117Y3099117D01*
X-434090Y3251462D01*
X-341186Y3425273D01*
X-283976Y3613868D01*
X-283965Y3613972D01*
X-264659Y3809997D01*
X264659Y3809997D01*
X283974Y3613874D01*
X283975Y3613871D01*
X341187Y3425270D01*
X341188Y3425268D01*
X412218Y3292382D01*
X434090Y3251462D01*
X434092Y3251460D01*
X434093Y3251458D01*
X559112Y3099122D01*
X559121Y3099113D01*
X710954Y2974507D01*
X711462Y2974090D01*
X885273Y2881186D01*
X1073868Y2823976D01*
X1073870Y2823976D01*
X1073873Y2823975D01*
X1269997Y2804659D01*
X1270000Y2804659D01*
X1270003Y2804659D01*
X1466126Y2823975D01*
X1466127Y2823976D01*
X1466132Y2823976D01*
X1654727Y2881186D01*
X1828538Y2974090D01*
X1980883Y3099117D01*
X2105910Y3251462D01*
X2198814Y3425273D01*
X2256024Y3613868D01*
X2256035Y3613972D01*
X2265493Y3710000D01*
X2815009Y3710000D01*
X2824467Y3613972D01*
X2824468Y3613966D01*
X2881650Y3425465D01*
X2881652Y3425460D01*
X2974502Y3251748D01*
X2974506Y3251742D01*
X3099468Y3099477D01*
X3099476Y3099469D01*
X3251741Y2974507D01*
X3251747Y2974503D01*
X3425459Y2881653D01*
X3425464Y2881651D01*
X3613968Y2824469D01*
X3709999Y2815011D01*
X3710000Y2815012D01*
X3710000Y3422685D01*
X3757339Y3410000D01*
X3862661Y3410000D01*
X3910000Y3422685D01*
X3910000Y2815011D01*
X4006031Y2824469D01*
X4194535Y2881651D01*
X4194540Y2881653D01*
X4368252Y2974503D01*
X4368258Y2974507D01*
X4520523Y3099469D01*
X4520531Y3099477D01*
X4645493Y3251742D01*
X4645497Y3251748D01*
X4738347Y3425460D01*
X4738349Y3425465D01*
X4795531Y3613966D01*
X4795532Y3613972D01*
X4804991Y3710000D01*
X4197316Y3710000D01*
X4210000Y3757339D01*
X4210000Y3862661D01*
X4197316Y3910000D01*
X4804990Y3910000D01*
X4804990Y3910001D01*
X4795532Y4006029D01*
X4795531Y4006035D01*
X4738349Y4194536D01*
X4738347Y4194541D01*
X4645497Y4368253D01*
X4645493Y4368259D01*
X4520531Y4520524D01*
X4520523Y4520532D01*
X4368258Y4645494D01*
X4368252Y4645498D01*
X4194540Y4738348D01*
X4194535Y4738350D01*
X4006034Y4795532D01*
X4006028Y4795533D01*
X3910000Y4804991D01*
X3910000Y4197316D01*
X3862661Y4210000D01*
X3757339Y4210000D01*
X3710000Y4197316D01*
X3710000Y4804991D01*
X3709999Y4804991D01*
X3613971Y4795533D01*
X3613965Y4795532D01*
X3425464Y4738350D01*
X3425459Y4738348D01*
X3251747Y4645498D01*
X3251741Y4645494D01*
X3099476Y4520532D01*
X3099468Y4520524D01*
X2974506Y4368259D01*
X2974502Y4368253D01*
X2881652Y4194541D01*
X2881650Y4194536D01*
X2824468Y4006035D01*
X2824467Y4006029D01*
X2815009Y3910001D01*
X2815010Y3910000D01*
X3422684Y3910000D01*
X3410000Y3862661D01*
X3410000Y3757339D01*
X3422684Y3710000D01*
X2815009Y3710000D01*
X2265493Y3710000D01*
X2275341Y3809997D01*
X2275341Y3810004D01*
X2256025Y4006127D01*
X2256024Y4006130D01*
X2256024Y4006132D01*
X2198814Y4194727D01*
X2190650Y4210000D01*
X2106062Y4368253D01*
X2105910Y4368538D01*
X1981178Y4520524D01*
X1980887Y4520879D01*
X1980878Y4520888D01*
X1828542Y4645907D01*
X1828540Y4645908D01*
X1828538Y4645910D01*
X1787618Y4667782D01*
X1654732Y4738812D01*
X1654730Y4738813D01*
X1466129Y4796025D01*
X1466126Y4796026D01*
X1270003Y4815341D01*
X1269997Y4815341D01*
X1073873Y4796026D01*
X1073870Y4796025D01*
X885269Y4738813D01*
X885267Y4738812D01*
X711467Y4645913D01*
X711457Y4645907D01*
X559121Y4520888D01*
X559112Y4520879D01*
X434093Y4368543D01*
X434087Y4368533D01*
X341188Y4194733D01*
X341187Y4194731D01*
X283975Y4006130D01*
X283974Y4006127D01*
X264659Y3810004D01*
X264659Y3809997D01*
X-264659Y3809997D01*
X-264659Y3810004D01*
X-283975Y4006127D01*
X-283976Y4006130D01*
X-283976Y4006132D01*
X-341186Y4194727D01*
X-349350Y4210000D01*
X-433938Y4368253D01*
X-434090Y4368538D01*
X-558822Y4520524D01*
X-559113Y4520879D01*
X-559122Y4520888D01*
X-711458Y4645907D01*
X-711460Y4645908D01*
X-711462Y4645910D01*
X-752382Y4667782D01*
X-885268Y4738812D01*
X-885270Y4738813D01*
X-1073871Y4796025D01*
X-1073874Y4796026D01*
X-1269997Y4815341D01*
X-1270003Y4815341D01*
X-1466127Y4796026D01*
X-1466130Y4796025D01*
X-1654731Y4738813D01*
X-1654733Y4738812D01*
X-1828533Y4645913D01*
X-1828543Y4645907D01*
X-1980879Y4520888D01*
X-1980888Y4520879D01*
X-2105907Y4368543D01*
X-2105913Y4368533D01*
X-2198812Y4194733D01*
X-2198813Y4194731D01*
X-2256025Y4006130D01*
X-2256026Y4006127D01*
X-2275341Y3810004D01*
X-2275341Y3809997D01*
X-2804659Y3809997D01*
X-2804659Y3810004D01*
X-2823975Y4006127D01*
X-2823976Y4006130D01*
X-2823976Y4006132D01*
X-2881186Y4194727D01*
X-2889350Y4210000D01*
X-2973938Y4368253D01*
X-2974090Y4368538D01*
X-3098822Y4520524D01*
X-3099113Y4520879D01*
X-3099122Y4520888D01*
X-3251458Y4645907D01*
X-3251460Y4645908D01*
X-3251462Y4645910D01*
X-3292382Y4667782D01*
X-3425268Y4738812D01*
X-3425270Y4738813D01*
X-3613871Y4796025D01*
X-3613874Y4796026D01*
X-3809997Y4815341D01*
X-3810003Y4815341D01*
X-4006127Y4796026D01*
X-4006130Y4796025D01*
X-4194731Y4738813D01*
X-4194733Y4738812D01*
X-4368533Y4645913D01*
X-4368543Y4645907D01*
X-4520879Y4520888D01*
X-4520888Y4520879D01*
X-4645907Y4368543D01*
X-4645913Y4368533D01*
X-4738812Y4194733D01*
X-4738813Y4194731D01*
X-4796025Y4006130D01*
X-4796026Y4006127D01*
X-4815341Y3810004D01*
X-4815341Y3809997D01*
X-5344659Y3809997D01*
X-5344659Y3810004D01*
X-5363975Y4006127D01*
X-5363976Y4006130D01*
X-5363976Y4006132D01*
X-5421186Y4194727D01*
X-5429350Y4210000D01*
X-5513938Y4368253D01*
X-5514090Y4368538D01*
X-5638822Y4520524D01*
X-5639113Y4520879D01*
X-5639122Y4520888D01*
X-5791458Y4645907D01*
X-5791460Y4645908D01*
X-5791462Y4645910D01*
X-5832382Y4667782D01*
X-5965268Y4738812D01*
X-5965270Y4738813D01*
X-6153871Y4796025D01*
X-6153874Y4796026D01*
X-6349997Y4815341D01*
X-6350003Y4815341D01*
X-6546127Y4796026D01*
X-6546130Y4796025D01*
X-6734731Y4738813D01*
X-6734733Y4738812D01*
X-6908533Y4645913D01*
X-6908543Y4645907D01*
X-7060879Y4520888D01*
X-7060888Y4520879D01*
X-7185907Y4368543D01*
X-7185913Y4368533D01*
X-7278812Y4194733D01*
X-7278813Y4194731D01*
X-7336025Y4006130D01*
X-7336026Y4006127D01*
X-7355341Y3810004D01*
X-7355341Y3809997D01*
X-8814500Y3809997D01*
X-8814500Y5530254D01*
X-7350500Y5530254D01*
X-7350499Y5530242D01*
X-7338868Y5471773D01*
X-7338866Y5471767D01*
X-7305068Y5421186D01*
X-7294552Y5405448D01*
X-7228231Y5361133D01*
X-7183769Y5352289D01*
X-7169759Y5349502D01*
X-7169754Y5349502D01*
X-7169748Y5349500D01*
X-7169747Y5349500D01*
X-5530253Y5349500D01*
X-5530252Y5349500D01*
X-5471769Y5361133D01*
X-5405448Y5405448D01*
X-5361133Y5471769D01*
X-5349500Y5530252D01*
X-5349500Y6349997D01*
X-4815341Y6349997D01*
X-4796026Y6153874D01*
X-4796025Y6153871D01*
X-4796024Y6153868D01*
X-4743857Y5981896D01*
X-4738813Y5965270D01*
X-4738812Y5965268D01*
X-4667782Y5832382D01*
X-4645910Y5791462D01*
X-4645908Y5791460D01*
X-4645907Y5791458D01*
X-4520888Y5639122D01*
X-4520879Y5639113D01*
X-4388219Y5530242D01*
X-4368538Y5514090D01*
X-4194727Y5421186D01*
X-4006132Y5363976D01*
X-4006130Y5363976D01*
X-4006127Y5363975D01*
X-3810003Y5344659D01*
X-3810000Y5344659D01*
X-3809997Y5344659D01*
X-3613874Y5363975D01*
X-3613873Y5363976D01*
X-3613868Y5363976D01*
X-3425273Y5421186D01*
X-3251462Y5514090D01*
X-3099117Y5639117D01*
X-2974090Y5791462D01*
X-2881186Y5965273D01*
X-2823976Y6153868D01*
X-2823965Y6153972D01*
X-2804659Y6349997D01*
X-2275341Y6349997D01*
X-2256026Y6153874D01*
X-2256025Y6153871D01*
X-2256024Y6153868D01*
X-2203857Y5981896D01*
X-2198813Y5965270D01*
X-2198812Y5965268D01*
X-2127782Y5832382D01*
X-2105910Y5791462D01*
X-2105908Y5791460D01*
X-2105907Y5791458D01*
X-1980888Y5639122D01*
X-1980879Y5639113D01*
X-1848219Y5530242D01*
X-1828538Y5514090D01*
X-1654727Y5421186D01*
X-1466132Y5363976D01*
X-1466130Y5363976D01*
X-1466127Y5363975D01*
X-1270003Y5344659D01*
X-1270000Y5344659D01*
X-1269997Y5344659D01*
X-1073874Y5363975D01*
X-1073873Y5363976D01*
X-1073868Y5363976D01*
X-885273Y5421186D01*
X-711462Y5514090D01*
X-559117Y5639117D01*
X-434090Y5791462D01*
X-341186Y5965273D01*
X-283976Y6153868D01*
X-283965Y6153972D01*
X-264659Y6349997D01*
X264659Y6349997D01*
X283974Y6153874D01*
X283975Y6153871D01*
X283976Y6153868D01*
X336143Y5981896D01*
X341187Y5965270D01*
X341188Y5965268D01*
X412218Y5832382D01*
X434090Y5791462D01*
X434092Y5791460D01*
X434093Y5791458D01*
X559112Y5639122D01*
X559121Y5639113D01*
X691781Y5530242D01*
X711462Y5514090D01*
X885273Y5421186D01*
X1073868Y5363976D01*
X1073870Y5363976D01*
X1073873Y5363975D01*
X1269997Y5344659D01*
X1270000Y5344659D01*
X1270003Y5344659D01*
X1466126Y5363975D01*
X1466127Y5363976D01*
X1466132Y5363976D01*
X1654727Y5421186D01*
X1828538Y5514090D01*
X1980883Y5639117D01*
X2105910Y5791462D01*
X2198814Y5965273D01*
X2256024Y6153868D01*
X2256035Y6153972D01*
X2265493Y6250000D01*
X2815009Y6250000D01*
X2824467Y6153972D01*
X2824468Y6153966D01*
X2881650Y5965465D01*
X2881652Y5965460D01*
X2974502Y5791748D01*
X2974506Y5791742D01*
X3099468Y5639477D01*
X3099476Y5639469D01*
X3251741Y5514507D01*
X3251747Y5514503D01*
X3425459Y5421653D01*
X3425464Y5421651D01*
X3613968Y5364469D01*
X3709999Y5355011D01*
X3710000Y5355012D01*
X3710000Y5962685D01*
X3757339Y5950000D01*
X3862661Y5950000D01*
X3910000Y5962685D01*
X3910000Y5355011D01*
X4006031Y5364469D01*
X4194535Y5421651D01*
X4194540Y5421653D01*
X4368252Y5514503D01*
X4368258Y5514507D01*
X4520523Y5639469D01*
X4520531Y5639477D01*
X4645493Y5791742D01*
X4645497Y5791748D01*
X4738347Y5965460D01*
X4738349Y5965465D01*
X4795531Y6153966D01*
X4795532Y6153972D01*
X4804991Y6250000D01*
X4197316Y6250000D01*
X4210000Y6297339D01*
X4210000Y6402661D01*
X4197316Y6450000D01*
X4804990Y6450000D01*
X4804990Y6450001D01*
X4795532Y6546029D01*
X4795531Y6546035D01*
X4738349Y6734536D01*
X4738347Y6734541D01*
X4645497Y6908253D01*
X4645493Y6908259D01*
X4520531Y7060524D01*
X4520523Y7060532D01*
X4368258Y7185494D01*
X4368252Y7185498D01*
X4194540Y7278348D01*
X4194535Y7278350D01*
X4006034Y7335532D01*
X4006028Y7335533D01*
X3910000Y7344991D01*
X3910000Y6737316D01*
X3862661Y6750000D01*
X3757339Y6750000D01*
X3710000Y6737316D01*
X3710000Y7344991D01*
X3709999Y7344991D01*
X3613971Y7335533D01*
X3613965Y7335532D01*
X3425464Y7278350D01*
X3425459Y7278348D01*
X3251747Y7185498D01*
X3251741Y7185494D01*
X3099476Y7060532D01*
X3099468Y7060524D01*
X2974506Y6908259D01*
X2974502Y6908253D01*
X2881652Y6734541D01*
X2881650Y6734536D01*
X2824468Y6546035D01*
X2824467Y6546029D01*
X2815009Y6450001D01*
X2815010Y6450000D01*
X3422684Y6450000D01*
X3410000Y6402661D01*
X3410000Y6297339D01*
X3422684Y6250000D01*
X2815009Y6250000D01*
X2265493Y6250000D01*
X2275341Y6349997D01*
X2275341Y6350004D01*
X2256025Y6546127D01*
X2256024Y6546130D01*
X2256024Y6546132D01*
X2198814Y6734727D01*
X2190650Y6750000D01*
X2106062Y6908253D01*
X2105910Y6908538D01*
X2105906Y6908543D01*
X1980887Y7060879D01*
X1980878Y7060888D01*
X1828542Y7185907D01*
X1828540Y7185908D01*
X1828538Y7185910D01*
X1749361Y7228231D01*
X1654732Y7278812D01*
X1654730Y7278813D01*
X1584886Y7300000D01*
X1466132Y7336024D01*
X1466129Y7336025D01*
X1466126Y7336026D01*
X1270003Y7355341D01*
X1269997Y7355341D01*
X1073873Y7336026D01*
X1073870Y7336025D01*
X885269Y7278813D01*
X885267Y7278812D01*
X711467Y7185913D01*
X711457Y7185907D01*
X559121Y7060888D01*
X559112Y7060879D01*
X434093Y6908543D01*
X434087Y6908533D01*
X341188Y6734733D01*
X341187Y6734731D01*
X283975Y6546130D01*
X283974Y6546127D01*
X264659Y6350004D01*
X264659Y6349997D01*
X-264659Y6349997D01*
X-264659Y6350004D01*
X-283975Y6546127D01*
X-283976Y6546130D01*
X-283976Y6546132D01*
X-341186Y6734727D01*
X-349350Y6750000D01*
X-433938Y6908253D01*
X-434090Y6908538D01*
X-434094Y6908543D01*
X-559113Y7060879D01*
X-559122Y7060888D01*
X-711458Y7185907D01*
X-711460Y7185908D01*
X-711462Y7185910D01*
X-790639Y7228231D01*
X-885268Y7278812D01*
X-885270Y7278813D01*
X-955114Y7300000D01*
X-1073868Y7336024D01*
X-1073871Y7336025D01*
X-1073874Y7336026D01*
X-1269997Y7355341D01*
X-1270003Y7355341D01*
X-1466127Y7336026D01*
X-1466130Y7336025D01*
X-1654731Y7278813D01*
X-1654733Y7278812D01*
X-1828533Y7185913D01*
X-1828543Y7185907D01*
X-1980879Y7060888D01*
X-1980888Y7060879D01*
X-2105907Y6908543D01*
X-2105913Y6908533D01*
X-2198812Y6734733D01*
X-2198813Y6734731D01*
X-2256025Y6546130D01*
X-2256026Y6546127D01*
X-2275341Y6350004D01*
X-2275341Y6349997D01*
X-2804659Y6349997D01*
X-2804659Y6350004D01*
X-2823975Y6546127D01*
X-2823976Y6546130D01*
X-2823976Y6546132D01*
X-2881186Y6734727D01*
X-2889350Y6750000D01*
X-2973938Y6908253D01*
X-2974090Y6908538D01*
X-2974094Y6908543D01*
X-3099113Y7060879D01*
X-3099122Y7060888D01*
X-3251458Y7185907D01*
X-3251460Y7185908D01*
X-3251462Y7185910D01*
X-3330639Y7228231D01*
X-3425268Y7278812D01*
X-3425270Y7278813D01*
X-3495114Y7300000D01*
X-3613868Y7336024D01*
X-3613871Y7336025D01*
X-3613874Y7336026D01*
X-3809997Y7355341D01*
X-3810003Y7355341D01*
X-4006127Y7336026D01*
X-4006130Y7336025D01*
X-4194731Y7278813D01*
X-4194733Y7278812D01*
X-4368533Y7185913D01*
X-4368543Y7185907D01*
X-4520879Y7060888D01*
X-4520888Y7060879D01*
X-4645907Y6908543D01*
X-4645913Y6908533D01*
X-4738812Y6734733D01*
X-4738813Y6734731D01*
X-4796025Y6546130D01*
X-4796026Y6546127D01*
X-4815341Y6350004D01*
X-4815341Y6349997D01*
X-5349500Y6349997D01*
X-5349500Y7169748D01*
X-5350118Y7172853D01*
X-5360065Y7222861D01*
X-5361133Y7228231D01*
X-5405448Y7294552D01*
X-5413601Y7300000D01*
X-5471767Y7338866D01*
X-5471769Y7338867D01*
X-5471772Y7338868D01*
X-5471773Y7338868D01*
X-5530242Y7350499D01*
X-5530252Y7350500D01*
X-7169748Y7350500D01*
X-7169749Y7350500D01*
X-7169759Y7350499D01*
X-7228228Y7338868D01*
X-7228234Y7338866D01*
X-7294549Y7294555D01*
X-7294555Y7294549D01*
X-7338866Y7228234D01*
X-7338868Y7228228D01*
X-7350499Y7169759D01*
X-7350500Y7169747D01*
X-7350500Y5530254D01*
X-8814500Y5530254D01*
X-8814500Y9906000D01*
X-7209682Y9906000D01*
X-7205347Y9873073D01*
X-7204500Y9860151D01*
X-7204500Y9826940D01*
X-7195907Y9794869D01*
X-7193381Y9782174D01*
X-7189045Y9749241D01*
X-7189043Y9749235D01*
X-7176335Y9718555D01*
X-7172173Y9706294D01*
X-7163579Y9674220D01*
X-7163578Y9674217D01*
X-7146972Y9645454D01*
X-7141246Y9633843D01*
X-7128537Y9603160D01*
X-7108319Y9576811D01*
X-7101126Y9566045D01*
X-7084524Y9537289D01*
X-7084519Y9537283D01*
X-7061033Y9513796D01*
X-7052500Y9504067D01*
X-7032282Y9477718D01*
X-7032278Y9477715D01*
X-7005941Y9457506D01*
X-6996206Y9448969D01*
X-6972718Y9425482D01*
X-6972716Y9425480D01*
X-6943953Y9408874D01*
X-6933191Y9401683D01*
X-6906841Y9381464D01*
X-6893021Y9375740D01*
X-6876156Y9368754D01*
X-6864539Y9363025D01*
X-6835789Y9346425D01*
X-6835787Y9346425D01*
X-6835784Y9346423D01*
X-6803707Y9337829D01*
X-6791451Y9333669D01*
X-6760762Y9320956D01*
X-6727832Y9316621D01*
X-6715149Y9314099D01*
X-6683057Y9305500D01*
X-6649850Y9305500D01*
X-6636928Y9304653D01*
X-6604001Y9300318D01*
X-6604000Y9300318D01*
X-6603999Y9300318D01*
X-6571072Y9304653D01*
X-6558150Y9305500D01*
X-3889057Y9305500D01*
X-3855850Y9305500D01*
X-3842928Y9304653D01*
X-3810001Y9300318D01*
X-3810000Y9300318D01*
X-3809999Y9300318D01*
X-3777072Y9304653D01*
X-3764150Y9305500D01*
X-1349057Y9305500D01*
X-1315850Y9305500D01*
X-1302928Y9304653D01*
X-1270001Y9300318D01*
X-1270000Y9300318D01*
X-1269999Y9300318D01*
X-1237072Y9304653D01*
X-1224150Y9305500D01*
X1190943Y9305500D01*
X1224150Y9305500D01*
X1237072Y9304653D01*
X1269999Y9300318D01*
X1270000Y9300318D01*
X1270001Y9300318D01*
X1302928Y9304653D01*
X1315850Y9305500D01*
X3984943Y9305500D01*
X4018150Y9305500D01*
X4031072Y9304653D01*
X4063999Y9300318D01*
X4064000Y9300318D01*
X4064001Y9300318D01*
X4096928Y9304653D01*
X4109850Y9305500D01*
X5550500Y9305500D01*
X5608691Y9286593D01*
X5644655Y9237093D01*
X5649500Y9206500D01*
X5649500Y8003682D01*
X5646578Y7983213D01*
X5647126Y7983110D01*
X5542423Y7424698D01*
X5538976Y7392356D01*
X5538877Y7388689D01*
X5540560Y7356335D01*
X5540561Y7356321D01*
X5546274Y7312921D01*
X5546274Y7287080D01*
X5537820Y7222861D01*
X5531131Y7197896D01*
X5498062Y7118062D01*
X5491653Y7105285D01*
X5488592Y7100147D01*
X5488590Y7100143D01*
X5486373Y7095181D01*
X5472025Y7049241D01*
X5472025Y7049240D01*
X5400890Y6669858D01*
X5398323Y6659366D01*
X5363976Y6546136D01*
X5363974Y6546127D01*
X5344659Y6350004D01*
X5344659Y6349997D01*
X5363974Y6153874D01*
X5363975Y6153868D01*
X5398325Y6040634D01*
X5400891Y6030143D01*
X5409936Y5981906D01*
X5575622Y5098246D01*
X5575622Y5061756D01*
X5400892Y4129860D01*
X5398325Y4119367D01*
X5363975Y4006133D01*
X5363974Y4006127D01*
X5344659Y3810004D01*
X5344659Y3809997D01*
X5363974Y3613874D01*
X5363975Y3613871D01*
X5421187Y3425270D01*
X5421188Y3425268D01*
X5492218Y3292382D01*
X5514090Y3251462D01*
X5514092Y3251460D01*
X5514093Y3251458D01*
X5639112Y3099122D01*
X5639121Y3099113D01*
X5790954Y2974507D01*
X5791462Y2974090D01*
X5965273Y2881186D01*
X6153868Y2823976D01*
X6153870Y2823976D01*
X6153873Y2823975D01*
X6349997Y2804659D01*
X6350000Y2804659D01*
X6350003Y2804659D01*
X6546126Y2823975D01*
X6546127Y2823976D01*
X6546132Y2823976D01*
X6734727Y2881186D01*
X6908538Y2974090D01*
X7060883Y3099117D01*
X7185910Y3251462D01*
X7278814Y3425273D01*
X7336024Y3613868D01*
X7336035Y3613972D01*
X7355341Y3809997D01*
X15504659Y3809997D01*
X15523974Y3613874D01*
X15523975Y3613871D01*
X15581187Y3425270D01*
X15581188Y3425268D01*
X15652218Y3292382D01*
X15674090Y3251462D01*
X15674092Y3251460D01*
X15674093Y3251458D01*
X15799112Y3099122D01*
X15799121Y3099113D01*
X15950954Y2974507D01*
X15951462Y2974090D01*
X16125273Y2881186D01*
X16313868Y2823976D01*
X16313870Y2823976D01*
X16313873Y2823975D01*
X16509997Y2804659D01*
X16510000Y2804659D01*
X16510003Y2804659D01*
X16706126Y2823975D01*
X16706127Y2823976D01*
X16706132Y2823976D01*
X16894727Y2881186D01*
X17068538Y2974090D01*
X17220883Y3099117D01*
X17345910Y3251462D01*
X17438814Y3425273D01*
X17496024Y3613868D01*
X17496035Y3613972D01*
X17515341Y3809997D01*
X18044659Y3809997D01*
X18063974Y3613874D01*
X18063975Y3613871D01*
X18121187Y3425270D01*
X18121188Y3425268D01*
X18192218Y3292382D01*
X18214090Y3251462D01*
X18214092Y3251460D01*
X18214093Y3251458D01*
X18339112Y3099122D01*
X18339121Y3099113D01*
X18490954Y2974507D01*
X18491462Y2974090D01*
X18665273Y2881186D01*
X18853868Y2823976D01*
X18853870Y2823976D01*
X18853873Y2823975D01*
X19049997Y2804659D01*
X19050000Y2804659D01*
X19050003Y2804659D01*
X19246126Y2823975D01*
X19246127Y2823976D01*
X19246132Y2823976D01*
X19434727Y2881186D01*
X19608538Y2974090D01*
X19760883Y3099117D01*
X19885910Y3251462D01*
X19978814Y3425273D01*
X20036024Y3613868D01*
X20036035Y3613972D01*
X20055341Y3809997D01*
X20584659Y3809997D01*
X20603974Y3613874D01*
X20603975Y3613871D01*
X20661187Y3425270D01*
X20661188Y3425268D01*
X20732218Y3292382D01*
X20754090Y3251462D01*
X20754092Y3251460D01*
X20754093Y3251458D01*
X20879112Y3099122D01*
X20879121Y3099113D01*
X21030954Y2974507D01*
X21031462Y2974090D01*
X21205273Y2881186D01*
X21393868Y2823976D01*
X21393870Y2823976D01*
X21393873Y2823975D01*
X21589997Y2804659D01*
X21590000Y2804659D01*
X21590003Y2804659D01*
X21786126Y2823975D01*
X21786127Y2823976D01*
X21786132Y2823976D01*
X21974727Y2881186D01*
X22148538Y2974090D01*
X22300883Y3099117D01*
X22425910Y3251462D01*
X22518814Y3425273D01*
X22576024Y3613868D01*
X22576035Y3613972D01*
X22595341Y3809997D01*
X23124659Y3809997D01*
X23143974Y3613874D01*
X23143975Y3613871D01*
X23201187Y3425270D01*
X23201188Y3425268D01*
X23272218Y3292382D01*
X23294090Y3251462D01*
X23294092Y3251460D01*
X23294093Y3251458D01*
X23419112Y3099122D01*
X23419121Y3099113D01*
X23570954Y2974507D01*
X23571462Y2974090D01*
X23745273Y2881186D01*
X23933868Y2823976D01*
X23933870Y2823976D01*
X23933873Y2823975D01*
X24129997Y2804659D01*
X24130000Y2804659D01*
X24130003Y2804659D01*
X24326126Y2823975D01*
X24326127Y2823976D01*
X24326132Y2823976D01*
X24514727Y2881186D01*
X24688538Y2974090D01*
X24840883Y3099117D01*
X24965910Y3251462D01*
X25058814Y3425273D01*
X25116024Y3613868D01*
X25116035Y3613972D01*
X25125493Y3710000D01*
X25675009Y3710000D01*
X25684467Y3613972D01*
X25684468Y3613966D01*
X25741650Y3425465D01*
X25741652Y3425460D01*
X25834502Y3251748D01*
X25834506Y3251742D01*
X25959468Y3099477D01*
X25959476Y3099469D01*
X26111741Y2974507D01*
X26111747Y2974503D01*
X26285459Y2881653D01*
X26285464Y2881651D01*
X26473968Y2824469D01*
X26569999Y2815011D01*
X26570000Y2815012D01*
X26570000Y3422685D01*
X26617339Y3410000D01*
X26722661Y3410000D01*
X26770000Y3422685D01*
X26770000Y2815011D01*
X26866031Y2824469D01*
X27054535Y2881651D01*
X27054540Y2881653D01*
X27228252Y2974503D01*
X27228258Y2974507D01*
X27380523Y3099469D01*
X27380531Y3099477D01*
X27505493Y3251742D01*
X27505497Y3251748D01*
X27598347Y3425460D01*
X27598349Y3425465D01*
X27655531Y3613966D01*
X27655532Y3613972D01*
X27664991Y3710000D01*
X27057316Y3710000D01*
X27070000Y3757339D01*
X27070000Y3862661D01*
X27057316Y3910000D01*
X27664990Y3910000D01*
X27664990Y3910001D01*
X27655532Y4006029D01*
X27655531Y4006035D01*
X27598349Y4194536D01*
X27598347Y4194541D01*
X27505497Y4368253D01*
X27505493Y4368259D01*
X27380531Y4520524D01*
X27380523Y4520532D01*
X27228258Y4645494D01*
X27228252Y4645498D01*
X27054540Y4738348D01*
X27054535Y4738350D01*
X26866034Y4795532D01*
X26866028Y4795533D01*
X26770000Y4804991D01*
X26770000Y4197316D01*
X26722661Y4210000D01*
X26617339Y4210000D01*
X26570000Y4197316D01*
X26570000Y4804991D01*
X26569999Y4804991D01*
X26473971Y4795533D01*
X26473965Y4795532D01*
X26285464Y4738350D01*
X26285459Y4738348D01*
X26111747Y4645498D01*
X26111741Y4645494D01*
X25959476Y4520532D01*
X25959468Y4520524D01*
X25834506Y4368259D01*
X25834502Y4368253D01*
X25741652Y4194541D01*
X25741650Y4194536D01*
X25684468Y4006035D01*
X25684467Y4006029D01*
X25675009Y3910001D01*
X25675010Y3910000D01*
X26282684Y3910000D01*
X26270000Y3862661D01*
X26270000Y3757339D01*
X26282684Y3710000D01*
X25675009Y3710000D01*
X25125493Y3710000D01*
X25135341Y3809997D01*
X25135341Y3810004D01*
X25116025Y4006127D01*
X25116024Y4006130D01*
X25116024Y4006132D01*
X25058814Y4194727D01*
X25050650Y4210000D01*
X24966062Y4368253D01*
X24965910Y4368538D01*
X24841178Y4520524D01*
X24840887Y4520879D01*
X24840878Y4520888D01*
X24688542Y4645907D01*
X24688540Y4645908D01*
X24688538Y4645910D01*
X24647618Y4667782D01*
X24514732Y4738812D01*
X24514730Y4738813D01*
X24326129Y4796025D01*
X24326126Y4796026D01*
X24130003Y4815341D01*
X24129997Y4815341D01*
X23933873Y4796026D01*
X23933870Y4796025D01*
X23745269Y4738813D01*
X23745267Y4738812D01*
X23571467Y4645913D01*
X23571457Y4645907D01*
X23419121Y4520888D01*
X23419112Y4520879D01*
X23294093Y4368543D01*
X23294087Y4368533D01*
X23201188Y4194733D01*
X23201187Y4194731D01*
X23143975Y4006130D01*
X23143974Y4006127D01*
X23124659Y3810004D01*
X23124659Y3809997D01*
X22595341Y3809997D01*
X22595341Y3810004D01*
X22576025Y4006127D01*
X22576024Y4006130D01*
X22576024Y4006132D01*
X22518814Y4194727D01*
X22510650Y4210000D01*
X22426062Y4368253D01*
X22425910Y4368538D01*
X22301178Y4520524D01*
X22300887Y4520879D01*
X22300878Y4520888D01*
X22148542Y4645907D01*
X22148540Y4645908D01*
X22148538Y4645910D01*
X22107618Y4667782D01*
X21974732Y4738812D01*
X21974730Y4738813D01*
X21786129Y4796025D01*
X21786126Y4796026D01*
X21590003Y4815341D01*
X21589997Y4815341D01*
X21393873Y4796026D01*
X21393870Y4796025D01*
X21205269Y4738813D01*
X21205267Y4738812D01*
X21031467Y4645913D01*
X21031457Y4645907D01*
X20879121Y4520888D01*
X20879112Y4520879D01*
X20754093Y4368543D01*
X20754087Y4368533D01*
X20661188Y4194733D01*
X20661187Y4194731D01*
X20603975Y4006130D01*
X20603974Y4006127D01*
X20584659Y3810004D01*
X20584659Y3809997D01*
X20055341Y3809997D01*
X20055341Y3810004D01*
X20036025Y4006127D01*
X20036024Y4006130D01*
X20036024Y4006132D01*
X19978814Y4194727D01*
X19970650Y4210000D01*
X19886062Y4368253D01*
X19885910Y4368538D01*
X19761178Y4520524D01*
X19760887Y4520879D01*
X19760878Y4520888D01*
X19608542Y4645907D01*
X19608540Y4645908D01*
X19608538Y4645910D01*
X19567618Y4667782D01*
X19434732Y4738812D01*
X19434730Y4738813D01*
X19246129Y4796025D01*
X19246126Y4796026D01*
X19050003Y4815341D01*
X19049997Y4815341D01*
X18853873Y4796026D01*
X18853870Y4796025D01*
X18665269Y4738813D01*
X18665267Y4738812D01*
X18491467Y4645913D01*
X18491457Y4645907D01*
X18339121Y4520888D01*
X18339112Y4520879D01*
X18214093Y4368543D01*
X18214087Y4368533D01*
X18121188Y4194733D01*
X18121187Y4194731D01*
X18063975Y4006130D01*
X18063974Y4006127D01*
X18044659Y3810004D01*
X18044659Y3809997D01*
X17515341Y3809997D01*
X17515341Y3810004D01*
X17496025Y4006127D01*
X17496024Y4006130D01*
X17496024Y4006132D01*
X17438814Y4194727D01*
X17430650Y4210000D01*
X17346062Y4368253D01*
X17345910Y4368538D01*
X17221178Y4520524D01*
X17220887Y4520879D01*
X17220878Y4520888D01*
X17068542Y4645907D01*
X17068540Y4645908D01*
X17068538Y4645910D01*
X17027618Y4667782D01*
X16894732Y4738812D01*
X16894730Y4738813D01*
X16706129Y4796025D01*
X16706126Y4796026D01*
X16510003Y4815341D01*
X16509997Y4815341D01*
X16313873Y4796026D01*
X16313870Y4796025D01*
X16125269Y4738813D01*
X16125267Y4738812D01*
X15951467Y4645913D01*
X15951457Y4645907D01*
X15799121Y4520888D01*
X15799112Y4520879D01*
X15674093Y4368543D01*
X15674087Y4368533D01*
X15581188Y4194733D01*
X15581187Y4194731D01*
X15523975Y4006130D01*
X15523974Y4006127D01*
X15504659Y3810004D01*
X15504659Y3809997D01*
X7355341Y3809997D01*
X7355341Y3810004D01*
X7336025Y4006127D01*
X7336024Y4006129D01*
X7336024Y4006130D01*
X7336024Y4006132D01*
X7301667Y4119390D01*
X7299108Y4129853D01*
X7124376Y5061761D01*
X7124376Y5098242D01*
X7205378Y5530254D01*
X15509500Y5530254D01*
X15509501Y5530242D01*
X15521132Y5471773D01*
X15521134Y5471767D01*
X15554932Y5421186D01*
X15565448Y5405448D01*
X15631769Y5361133D01*
X15676231Y5352289D01*
X15690241Y5349502D01*
X15690246Y5349502D01*
X15690252Y5349500D01*
X15690253Y5349500D01*
X17329747Y5349500D01*
X17329748Y5349500D01*
X17388231Y5361133D01*
X17454552Y5405448D01*
X17498867Y5471769D01*
X17510500Y5530252D01*
X17510500Y6349997D01*
X18044659Y6349997D01*
X18063974Y6153874D01*
X18063975Y6153871D01*
X18063976Y6153868D01*
X18116143Y5981896D01*
X18121187Y5965270D01*
X18121188Y5965268D01*
X18192218Y5832382D01*
X18214090Y5791462D01*
X18214092Y5791460D01*
X18214093Y5791458D01*
X18339112Y5639122D01*
X18339121Y5639113D01*
X18471781Y5530242D01*
X18491462Y5514090D01*
X18665273Y5421186D01*
X18853868Y5363976D01*
X18853870Y5363976D01*
X18853873Y5363975D01*
X19049997Y5344659D01*
X19050000Y5344659D01*
X19050003Y5344659D01*
X19246126Y5363975D01*
X19246127Y5363976D01*
X19246132Y5363976D01*
X19434727Y5421186D01*
X19608538Y5514090D01*
X19760883Y5639117D01*
X19885910Y5791462D01*
X19978814Y5965273D01*
X20036024Y6153868D01*
X20036035Y6153972D01*
X20055341Y6349997D01*
X20584659Y6349997D01*
X20603974Y6153874D01*
X20603975Y6153871D01*
X20603976Y6153868D01*
X20656143Y5981896D01*
X20661187Y5965270D01*
X20661188Y5965268D01*
X20732218Y5832382D01*
X20754090Y5791462D01*
X20754092Y5791460D01*
X20754093Y5791458D01*
X20879112Y5639122D01*
X20879121Y5639113D01*
X21011781Y5530242D01*
X21031462Y5514090D01*
X21205273Y5421186D01*
X21393868Y5363976D01*
X21393870Y5363976D01*
X21393873Y5363975D01*
X21589997Y5344659D01*
X21590000Y5344659D01*
X21590003Y5344659D01*
X21786126Y5363975D01*
X21786127Y5363976D01*
X21786132Y5363976D01*
X21974727Y5421186D01*
X22148538Y5514090D01*
X22300883Y5639117D01*
X22425910Y5791462D01*
X22518814Y5965273D01*
X22576024Y6153868D01*
X22576035Y6153972D01*
X22595341Y6349997D01*
X23124659Y6349997D01*
X23143974Y6153874D01*
X23143975Y6153871D01*
X23143976Y6153868D01*
X23196143Y5981896D01*
X23201187Y5965270D01*
X23201188Y5965268D01*
X23272218Y5832382D01*
X23294090Y5791462D01*
X23294092Y5791460D01*
X23294093Y5791458D01*
X23419112Y5639122D01*
X23419121Y5639113D01*
X23551781Y5530242D01*
X23571462Y5514090D01*
X23745273Y5421186D01*
X23933868Y5363976D01*
X23933870Y5363976D01*
X23933873Y5363975D01*
X24129997Y5344659D01*
X24130000Y5344659D01*
X24130003Y5344659D01*
X24326126Y5363975D01*
X24326127Y5363976D01*
X24326132Y5363976D01*
X24514727Y5421186D01*
X24688538Y5514090D01*
X24840883Y5639117D01*
X24965910Y5791462D01*
X25058814Y5965273D01*
X25116024Y6153868D01*
X25116035Y6153972D01*
X25125493Y6250000D01*
X25675009Y6250000D01*
X25684467Y6153972D01*
X25684468Y6153966D01*
X25741650Y5965465D01*
X25741652Y5965460D01*
X25834502Y5791748D01*
X25834506Y5791742D01*
X25959468Y5639477D01*
X25959476Y5639469D01*
X26111741Y5514507D01*
X26111747Y5514503D01*
X26285459Y5421653D01*
X26285464Y5421651D01*
X26473968Y5364469D01*
X26569999Y5355011D01*
X26570000Y5355012D01*
X26570000Y5962685D01*
X26617339Y5950000D01*
X26722661Y5950000D01*
X26770000Y5962685D01*
X26770000Y5355011D01*
X26866031Y5364469D01*
X27054535Y5421651D01*
X27054540Y5421653D01*
X27228252Y5514503D01*
X27228258Y5514507D01*
X27380523Y5639469D01*
X27380531Y5639477D01*
X27505493Y5791742D01*
X27505497Y5791748D01*
X27598347Y5965460D01*
X27598349Y5965465D01*
X27655531Y6153966D01*
X27655532Y6153972D01*
X27664991Y6250000D01*
X27057316Y6250000D01*
X27070000Y6297339D01*
X27070000Y6402661D01*
X27057316Y6450000D01*
X27664990Y6450000D01*
X27664990Y6450001D01*
X27655532Y6546029D01*
X27655531Y6546035D01*
X27598349Y6734536D01*
X27598347Y6734541D01*
X27505497Y6908253D01*
X27505493Y6908259D01*
X27380531Y7060524D01*
X27380523Y7060532D01*
X27228258Y7185494D01*
X27228252Y7185498D01*
X27054540Y7278348D01*
X27054535Y7278350D01*
X26866034Y7335532D01*
X26866028Y7335533D01*
X26770000Y7344991D01*
X26770000Y6737316D01*
X26722661Y6750000D01*
X26617339Y6750000D01*
X26570000Y6737316D01*
X26570000Y7344991D01*
X26569999Y7344991D01*
X26473971Y7335533D01*
X26473965Y7335532D01*
X26285464Y7278350D01*
X26285459Y7278348D01*
X26111747Y7185498D01*
X26111741Y7185494D01*
X25959476Y7060532D01*
X25959468Y7060524D01*
X25834506Y6908259D01*
X25834502Y6908253D01*
X25741652Y6734541D01*
X25741650Y6734536D01*
X25684468Y6546035D01*
X25684467Y6546029D01*
X25675009Y6450001D01*
X25675010Y6450000D01*
X26282684Y6450000D01*
X26270000Y6402661D01*
X26270000Y6297339D01*
X26282684Y6250000D01*
X25675009Y6250000D01*
X25125493Y6250000D01*
X25135341Y6349997D01*
X25135341Y6350004D01*
X25116025Y6546127D01*
X25116024Y6546130D01*
X25116024Y6546132D01*
X25058814Y6734727D01*
X25050650Y6750000D01*
X24966062Y6908253D01*
X24965910Y6908538D01*
X24965906Y6908543D01*
X24840887Y7060879D01*
X24840878Y7060888D01*
X24688542Y7185907D01*
X24688540Y7185908D01*
X24688538Y7185910D01*
X24609361Y7228231D01*
X24514732Y7278812D01*
X24514730Y7278813D01*
X24444886Y7300000D01*
X24326132Y7336024D01*
X24326129Y7336025D01*
X24326126Y7336026D01*
X24130003Y7355341D01*
X24129997Y7355341D01*
X23933873Y7336026D01*
X23933870Y7336025D01*
X23745269Y7278813D01*
X23745267Y7278812D01*
X23571467Y7185913D01*
X23571457Y7185907D01*
X23419121Y7060888D01*
X23419112Y7060879D01*
X23294093Y6908543D01*
X23294087Y6908533D01*
X23201188Y6734733D01*
X23201187Y6734731D01*
X23143975Y6546130D01*
X23143974Y6546127D01*
X23124659Y6350004D01*
X23124659Y6349997D01*
X22595341Y6349997D01*
X22595341Y6350004D01*
X22576025Y6546127D01*
X22576024Y6546130D01*
X22576024Y6546132D01*
X22518814Y6734727D01*
X22510650Y6750000D01*
X22426062Y6908253D01*
X22425910Y6908538D01*
X22425906Y6908543D01*
X22300887Y7060879D01*
X22300878Y7060888D01*
X22148542Y7185907D01*
X22148540Y7185908D01*
X22148538Y7185910D01*
X22069361Y7228231D01*
X21974732Y7278812D01*
X21974730Y7278813D01*
X21904886Y7300000D01*
X21786132Y7336024D01*
X21786129Y7336025D01*
X21786126Y7336026D01*
X21590003Y7355341D01*
X21589997Y7355341D01*
X21393873Y7336026D01*
X21393870Y7336025D01*
X21205269Y7278813D01*
X21205267Y7278812D01*
X21031467Y7185913D01*
X21031457Y7185907D01*
X20879121Y7060888D01*
X20879112Y7060879D01*
X20754093Y6908543D01*
X20754087Y6908533D01*
X20661188Y6734733D01*
X20661187Y6734731D01*
X20603975Y6546130D01*
X20603974Y6546127D01*
X20584659Y6350004D01*
X20584659Y6349997D01*
X20055341Y6349997D01*
X20055341Y6350004D01*
X20036025Y6546127D01*
X20036024Y6546130D01*
X20036024Y6546132D01*
X19978814Y6734727D01*
X19970650Y6750000D01*
X19886062Y6908253D01*
X19885910Y6908538D01*
X19885906Y6908543D01*
X19760887Y7060879D01*
X19760878Y7060888D01*
X19608542Y7185907D01*
X19608540Y7185908D01*
X19608538Y7185910D01*
X19529361Y7228231D01*
X19434732Y7278812D01*
X19434730Y7278813D01*
X19364886Y7300000D01*
X19246132Y7336024D01*
X19246129Y7336025D01*
X19246126Y7336026D01*
X19050003Y7355341D01*
X19049997Y7355341D01*
X18853873Y7336026D01*
X18853870Y7336025D01*
X18665269Y7278813D01*
X18665267Y7278812D01*
X18491467Y7185913D01*
X18491457Y7185907D01*
X18339121Y7060888D01*
X18339112Y7060879D01*
X18214093Y6908543D01*
X18214087Y6908533D01*
X18121188Y6734733D01*
X18121187Y6734731D01*
X18063975Y6546130D01*
X18063974Y6546127D01*
X18044659Y6350004D01*
X18044659Y6349997D01*
X17510500Y6349997D01*
X17510500Y7169748D01*
X17509882Y7172853D01*
X17499935Y7222861D01*
X17498867Y7228231D01*
X17454552Y7294552D01*
X17446399Y7300000D01*
X17388233Y7338866D01*
X17388231Y7338867D01*
X17388228Y7338868D01*
X17388227Y7338868D01*
X17329758Y7350499D01*
X17329748Y7350500D01*
X15690252Y7350500D01*
X15690251Y7350500D01*
X15690241Y7350499D01*
X15631772Y7338868D01*
X15631766Y7338866D01*
X15565451Y7294555D01*
X15565445Y7294549D01*
X15521134Y7228234D01*
X15521132Y7228228D01*
X15509501Y7169759D01*
X15509500Y7169747D01*
X15509500Y5530254D01*
X7205378Y5530254D01*
X7299107Y6030143D01*
X7301669Y6040619D01*
X7336024Y6153868D01*
X7336035Y6153972D01*
X7355341Y6349997D01*
X7355341Y6350004D01*
X7336025Y6546128D01*
X7336024Y6546132D01*
X7301664Y6659397D01*
X7299106Y6669858D01*
X7240380Y6983069D01*
X7226035Y7029003D01*
X7223817Y7033969D01*
X7223813Y7033976D01*
X7223808Y7033985D01*
X7202018Y7070562D01*
X7195605Y7083344D01*
X7188648Y7100139D01*
X7168867Y7147893D01*
X7162181Y7172849D01*
X7153724Y7237086D01*
X7153724Y7262928D01*
X7155754Y7278348D01*
X7163304Y7335693D01*
X7164986Y7368093D01*
X7164886Y7371776D01*
X7161442Y7404069D01*
X7161441Y7404076D01*
X7053085Y7981979D01*
X7053320Y7982024D01*
X7050500Y8003560D01*
X7050500Y9206500D01*
X7069407Y9264691D01*
X7118907Y9300655D01*
X7149500Y9305500D01*
X7420943Y9305500D01*
X13172257Y9305500D01*
X13230448Y9286593D01*
X13242260Y9276505D01*
X13855284Y8663480D01*
X13992216Y8584423D01*
X13992218Y8584423D01*
X13992219Y8584422D01*
X14068579Y8563961D01*
X14144940Y8543500D01*
X14144942Y8543499D01*
X14144943Y8543499D01*
X14309121Y8543499D01*
X14309137Y8543500D01*
X15287943Y8543500D01*
X15321150Y8543500D01*
X15334072Y8542653D01*
X15366999Y8538318D01*
X15367000Y8538318D01*
X15367001Y8538318D01*
X15399928Y8542653D01*
X15412850Y8543500D01*
X20240943Y8543500D01*
X20274150Y8543500D01*
X20287072Y8542653D01*
X20319999Y8538318D01*
X20320000Y8538318D01*
X20320001Y8538318D01*
X20352928Y8542653D01*
X20365850Y8543500D01*
X23669943Y8543500D01*
X23703150Y8543500D01*
X23716072Y8542653D01*
X23748999Y8538318D01*
X23749000Y8538318D01*
X23749001Y8538318D01*
X23781928Y8542653D01*
X23794850Y8543500D01*
X27269257Y8543500D01*
X27327448Y8524593D01*
X27339261Y8514504D01*
X28349249Y7504515D01*
X28377026Y7449998D01*
X28376941Y7418493D01*
X28246658Y6623875D01*
X28243700Y6611157D01*
X28223976Y6546132D01*
X28223974Y6546122D01*
X28208723Y6391269D01*
X28208465Y6388931D01*
X28207407Y6380299D01*
X28207254Y6378420D01*
X28206869Y6372868D01*
X28206630Y6370020D01*
X28204659Y6349999D01*
X28204659Y6349996D01*
X28223974Y6153874D01*
X28223975Y6153868D01*
X28271123Y5998443D01*
X28274149Y5985306D01*
X28274691Y5981906D01*
X28274692Y5981899D01*
X28274693Y5981897D01*
X28283053Y5950000D01*
X28504490Y5105100D01*
X28504490Y5054902D01*
X28421526Y4738348D01*
X28275909Y4182741D01*
X28274693Y4178103D01*
X28273994Y4174156D01*
X28273632Y4174221D01*
X28271149Y4161645D01*
X28223975Y4006133D01*
X28223974Y4006127D01*
X28204659Y3810004D01*
X28204659Y3809997D01*
X28223974Y3613874D01*
X28223975Y3613871D01*
X28281187Y3425270D01*
X28281188Y3425268D01*
X28352218Y3292382D01*
X28374090Y3251462D01*
X28374092Y3251460D01*
X28374093Y3251458D01*
X28499112Y3099122D01*
X28499121Y3099113D01*
X28650954Y2974507D01*
X28651462Y2974090D01*
X28825273Y2881186D01*
X29013868Y2823976D01*
X29013870Y2823976D01*
X29013873Y2823975D01*
X29209997Y2804659D01*
X29210000Y2804659D01*
X29210003Y2804659D01*
X29406126Y2823975D01*
X29406127Y2823976D01*
X29406132Y2823976D01*
X29594727Y2881186D01*
X29768538Y2974090D01*
X29920883Y3099117D01*
X30045910Y3251462D01*
X30138814Y3425273D01*
X30196024Y3613868D01*
X30196035Y3613972D01*
X30215341Y3809997D01*
X30215341Y3810004D01*
X30196025Y4006127D01*
X30196024Y4006129D01*
X30196024Y4006130D01*
X30196024Y4006132D01*
X30148873Y4161564D01*
X30145848Y4174706D01*
X30145307Y4178098D01*
X30145306Y4178103D01*
X30145306Y4178106D01*
X29915507Y5054903D01*
X29915507Y5105100D01*
X29981006Y5355012D01*
X30145306Y5981896D01*
X30145307Y5981906D01*
X30146004Y5985840D01*
X30146372Y5985775D01*
X30148849Y5998357D01*
X30158424Y6029920D01*
X30196024Y6153868D01*
X30196035Y6153972D01*
X30215341Y6349997D01*
X30215341Y6350004D01*
X30196025Y6546127D01*
X30196024Y6546133D01*
X30172441Y6623875D01*
X30138814Y6734727D01*
X30129928Y6751351D01*
X30125965Y6760864D01*
X30125636Y6760725D01*
X30123753Y6765215D01*
X29822396Y7323089D01*
X29810500Y7370141D01*
X29810500Y7405955D01*
X29810501Y7405968D01*
X29810501Y7572058D01*
X29810500Y7572060D01*
X29769578Y7724781D01*
X29769578Y7724782D01*
X29769577Y7724784D01*
X29690520Y7861716D01*
X29548554Y8003682D01*
X29336124Y8216113D01*
X29329449Y8223496D01*
X29328368Y8224819D01*
X29323502Y8229367D01*
X29323521Y8229388D01*
X29319193Y8233043D01*
X28039521Y9512714D01*
X28039520Y9512716D01*
X27927716Y9624520D01*
X27840904Y9674640D01*
X27840903Y9674641D01*
X27790788Y9703575D01*
X27790785Y9703577D01*
X27638057Y9744501D01*
X27479943Y9744501D01*
X27473880Y9744501D01*
X27473864Y9744500D01*
X23794850Y9744500D01*
X23781928Y9745347D01*
X23749001Y9749682D01*
X23748999Y9749682D01*
X23716072Y9745347D01*
X23703150Y9744500D01*
X20365850Y9744500D01*
X20352928Y9745347D01*
X20320001Y9749682D01*
X20319999Y9749682D01*
X20287072Y9745347D01*
X20274150Y9744500D01*
X15412850Y9744500D01*
X15399928Y9745347D01*
X15367001Y9749682D01*
X15366999Y9749682D01*
X15334072Y9745347D01*
X15321150Y9744500D01*
X14513744Y9744500D01*
X14455553Y9763407D01*
X14443740Y9773496D01*
X13942521Y10274714D01*
X13942520Y10274716D01*
X13830716Y10386520D01*
X13830713Y10386522D01*
X13720569Y10450114D01*
X13720565Y10450115D01*
X13693785Y10465577D01*
X13541057Y10506501D01*
X13382943Y10506501D01*
X13376880Y10506501D01*
X13376864Y10506500D01*
X7149500Y10506500D01*
X7091309Y10525407D01*
X7055345Y10574907D01*
X7050500Y10605500D01*
X7050500Y11018836D01*
X7069407Y11077027D01*
X7079490Y11088834D01*
X8044114Y12053457D01*
X8120775Y12168189D01*
X8173580Y12295672D01*
X8200500Y12431006D01*
X8200500Y12568994D01*
X8200500Y16768993D01*
X8173580Y16904328D01*
X8120775Y17031811D01*
X8120774Y17031813D01*
X8120771Y17031818D01*
X8054496Y17131004D01*
X8054495Y17131006D01*
X8044114Y17146543D01*
X7446543Y17744114D01*
X7331811Y17820775D01*
X7331810Y17820776D01*
X7331808Y17820777D01*
X7204328Y17873580D01*
X7068996Y17900500D01*
X7068994Y17900500D01*
X6931006Y17900500D01*
X6931003Y17900500D01*
X6795672Y17873580D01*
X6795670Y17873580D01*
X6668191Y17820777D01*
X6553460Y17744117D01*
X6455883Y17646540D01*
X6379223Y17531809D01*
X6326420Y17404330D01*
X6326420Y17404328D01*
X6299500Y17268997D01*
X6299500Y17131004D01*
X6326420Y16995673D01*
X6326420Y16995671D01*
X6379223Y16868192D01*
X6379224Y16868190D01*
X6379225Y16868189D01*
X6455886Y16753457D01*
X6770505Y16438838D01*
X6798281Y16384323D01*
X6799500Y16368836D01*
X6799500Y12831165D01*
X6780593Y12772974D01*
X6770504Y12761161D01*
X5805883Y11796540D01*
X5729223Y11681809D01*
X5676420Y11554330D01*
X5676420Y11554328D01*
X5649500Y11418996D01*
X5649500Y10605500D01*
X5630593Y10547309D01*
X5581093Y10511345D01*
X5550500Y10506500D01*
X4109850Y10506500D01*
X4096928Y10507347D01*
X4064001Y10511682D01*
X4063999Y10511682D01*
X4031072Y10507347D01*
X4018150Y10506500D01*
X1315850Y10506500D01*
X1302928Y10507347D01*
X1270001Y10511682D01*
X1269999Y10511682D01*
X1237072Y10507347D01*
X1224150Y10506500D01*
X-1224150Y10506500D01*
X-1237072Y10507347D01*
X-1269999Y10511682D01*
X-1270001Y10511682D01*
X-1302928Y10507347D01*
X-1315850Y10506500D01*
X-3764150Y10506500D01*
X-3777072Y10507347D01*
X-3809999Y10511682D01*
X-3810001Y10511682D01*
X-3842928Y10507347D01*
X-3855850Y10506500D01*
X-6558150Y10506500D01*
X-6571072Y10507347D01*
X-6603999Y10511682D01*
X-6604001Y10511682D01*
X-6636928Y10507347D01*
X-6649850Y10506500D01*
X-6683057Y10506500D01*
X-6706743Y10500155D01*
X-6715134Y10497906D01*
X-6727828Y10495381D01*
X-6760760Y10491045D01*
X-6760763Y10491044D01*
X-6791450Y10478333D01*
X-6803710Y10474172D01*
X-6835781Y10465579D01*
X-6835783Y10465578D01*
X-6856386Y10453684D01*
X-6862567Y10450114D01*
X-6864542Y10448974D01*
X-6876153Y10443249D01*
X-6906838Y10430539D01*
X-6933190Y10410319D01*
X-6943953Y10403128D01*
X-6972712Y10386524D01*
X-6972719Y10386519D01*
X-6996201Y10363037D01*
X-7005931Y10354504D01*
X-7032277Y10334287D01*
X-7032287Y10334277D01*
X-7052504Y10307931D01*
X-7061037Y10298201D01*
X-7084519Y10274719D01*
X-7084524Y10274712D01*
X-7101128Y10245953D01*
X-7108319Y10235190D01*
X-7128539Y10208838D01*
X-7141249Y10178153D01*
X-7146974Y10166542D01*
X-7163578Y10137783D01*
X-7163579Y10137781D01*
X-7172172Y10105710D01*
X-7176333Y10093450D01*
X-7189044Y10062763D01*
X-7189045Y10062760D01*
X-7193381Y10029828D01*
X-7195906Y10017134D01*
X-7204500Y9985056D01*
X-7204500Y9951851D01*
X-7205347Y9938929D01*
X-7209682Y9906001D01*
X-7209682Y9906000D01*
X-8814500Y9906000D01*
X-8814500Y18887872D01*
X-6500000Y18887872D01*
X-6469258Y18733318D01*
X-6408952Y18587727D01*
X-6408948Y18587718D01*
X-6321401Y18456698D01*
X-6321398Y18456694D01*
X-6209974Y18345270D01*
X-6209970Y18345267D01*
X-6078950Y18257720D01*
X-6078941Y18257716D01*
X-5933354Y18197412D01*
X-5933346Y18197410D01*
X-5800000Y18170887D01*
X-5800000Y18682879D01*
X-5739496Y18666667D01*
X-5660504Y18666667D01*
X-5600000Y18682879D01*
X-5600000Y18170888D01*
X-5466655Y18197410D01*
X-5466647Y18197412D01*
X-5321060Y18257716D01*
X-5321051Y18257720D01*
X-5190031Y18345267D01*
X-5190027Y18345270D01*
X-5078603Y18456694D01*
X-5078600Y18456698D01*
X-4991053Y18587718D01*
X-4991047Y18587730D01*
X-4929843Y18735491D01*
X-4890107Y18782017D01*
X-4830612Y18796301D01*
X-4774084Y18772887D01*
X-4768389Y18767623D01*
X-4726225Y18725459D01*
X-4591021Y18635119D01*
X-4440789Y18572891D01*
X-4281305Y18541167D01*
X-4281304Y18541167D01*
X-4118696Y18541167D01*
X-4118695Y18541167D01*
X-3959211Y18572891D01*
X-3808979Y18635119D01*
X-3673775Y18725459D01*
X-3558792Y18840442D01*
X-3468452Y18975646D01*
X-3406224Y19125878D01*
X-3374500Y19285362D01*
X7474500Y19285362D01*
X7506224Y19125877D01*
X7568450Y18975649D01*
X7651823Y18850871D01*
X7658792Y18840442D01*
X7773775Y18725459D01*
X7908979Y18635119D01*
X8059211Y18572891D01*
X8218695Y18541167D01*
X8218696Y18541167D01*
X8381304Y18541167D01*
X8381305Y18541167D01*
X8540789Y18572891D01*
X8691021Y18635119D01*
X8826225Y18725459D01*
X8941208Y18840442D01*
X8972900Y18887872D01*
X9900000Y18887872D01*
X9930742Y18733318D01*
X9991048Y18587727D01*
X9991052Y18587718D01*
X10078599Y18456698D01*
X10078602Y18456694D01*
X10190026Y18345270D01*
X10190030Y18345267D01*
X10321050Y18257720D01*
X10321059Y18257716D01*
X10466646Y18197412D01*
X10466654Y18197410D01*
X10600000Y18170887D01*
X10600000Y18682879D01*
X10660504Y18666667D01*
X10739496Y18666667D01*
X10800000Y18682879D01*
X10800000Y18170888D01*
X10933345Y18197410D01*
X10933353Y18197412D01*
X11078940Y18257716D01*
X11078949Y18257720D01*
X11209969Y18345267D01*
X11209973Y18345270D01*
X11321397Y18456694D01*
X11321400Y18456698D01*
X11408947Y18587718D01*
X11408951Y18587727D01*
X11469257Y18733318D01*
X11499999Y18887872D01*
X11500000Y18887875D01*
X11500000Y19516666D01*
X11499999Y19516667D01*
X11000000Y19516667D01*
X11000000Y19716667D01*
X11499999Y19716667D01*
X11500000Y19716668D01*
X11500000Y20345460D01*
X11499999Y20345463D01*
X11469257Y20500017D01*
X11408951Y20645608D01*
X11408947Y20645617D01*
X11321400Y20776637D01*
X11321397Y20776641D01*
X11209973Y20888065D01*
X11209969Y20888068D01*
X11078949Y20975615D01*
X11078940Y20975619D01*
X10933349Y21035925D01*
X10800000Y21062450D01*
X10800000Y20550456D01*
X10739496Y20566667D01*
X10660504Y20566667D01*
X10600000Y20550456D01*
X10600000Y21062450D01*
X10466650Y21035925D01*
X10321059Y20975619D01*
X10321050Y20975615D01*
X10190030Y20888068D01*
X10190026Y20888065D01*
X10078602Y20776641D01*
X10078599Y20776637D01*
X9991052Y20645617D01*
X9991048Y20645608D01*
X9930742Y20500017D01*
X9900000Y20345463D01*
X9900000Y19716668D01*
X9900001Y19716667D01*
X10400000Y19716667D01*
X10400000Y19516667D01*
X9900001Y19516667D01*
X9900000Y19516666D01*
X9900000Y18887872D01*
X8972900Y18887872D01*
X9031548Y18975646D01*
X9093776Y19125878D01*
X9125500Y19285362D01*
X9125500Y19447972D01*
X9093776Y19607456D01*
X9031548Y19757688D01*
X8941208Y19892892D01*
X8826225Y20007875D01*
X8795854Y20028168D01*
X8691018Y20098217D01*
X8540790Y20160443D01*
X8381305Y20192167D01*
X8218695Y20192167D01*
X8218694Y20192167D01*
X8059209Y20160443D01*
X7908981Y20098217D01*
X7773778Y20007878D01*
X7658789Y19892889D01*
X7568450Y19757686D01*
X7506224Y19607458D01*
X7474500Y19447973D01*
X7474500Y19285362D01*
X-3374500Y19285362D01*
X-3374500Y19447972D01*
X-3406224Y19607456D01*
X-3468452Y19757688D01*
X-3558792Y19892892D01*
X-3673775Y20007875D01*
X-3704146Y20028168D01*
X-3808982Y20098217D01*
X-3959210Y20160443D01*
X-4118695Y20192167D01*
X-4281305Y20192167D01*
X-4281306Y20192167D01*
X-4440791Y20160443D01*
X-4591019Y20098217D01*
X-4726226Y20007875D01*
X-4731001Y20003100D01*
X-4785519Y19975326D01*
X-4845950Y19984901D01*
X-4889212Y20028168D01*
X-4900000Y20073108D01*
X-4900000Y20345460D01*
X-4900001Y20345463D01*
X-4930743Y20500017D01*
X-4991049Y20645608D01*
X-4991053Y20645617D01*
X-5078600Y20776637D01*
X-5078603Y20776641D01*
X-5190027Y20888065D01*
X-5190031Y20888068D01*
X-5321051Y20975615D01*
X-5321060Y20975619D01*
X-5466651Y21035925D01*
X-5600000Y21062450D01*
X-5600000Y20550456D01*
X-5660504Y20566667D01*
X-5739496Y20566667D01*
X-5800000Y20550456D01*
X-5800000Y21062450D01*
X-5933350Y21035925D01*
X-6078941Y20975619D01*
X-6078950Y20975615D01*
X-6209970Y20888068D01*
X-6209974Y20888065D01*
X-6321398Y20776641D01*
X-6321401Y20776637D01*
X-6408948Y20645617D01*
X-6408952Y20645608D01*
X-6469258Y20500017D01*
X-6500000Y20345463D01*
X-6500000Y19716668D01*
X-6499999Y19716667D01*
X-6000000Y19716667D01*
X-6000000Y19516667D01*
X-6499999Y19516667D01*
X-6500000Y19516666D01*
X-6500000Y18887872D01*
X-8814500Y18887872D01*
X-8814500Y26317872D01*
X-8100000Y26317872D01*
X-8069258Y26163318D01*
X-8008952Y26017727D01*
X-8008948Y26017718D01*
X-7921401Y25886698D01*
X-7921398Y25886694D01*
X-7809974Y25775270D01*
X-7809970Y25775267D01*
X-7678950Y25687720D01*
X-7678941Y25687716D01*
X-7533354Y25627412D01*
X-7533346Y25627410D01*
X-7400000Y25600887D01*
X-7400000Y26112879D01*
X-7339496Y26096667D01*
X-7260504Y26096667D01*
X-7200000Y26112879D01*
X-7200000Y25600888D01*
X-7066655Y25627410D01*
X-7066647Y25627412D01*
X-6921060Y25687716D01*
X-6921051Y25687720D01*
X-6790031Y25775267D01*
X-6790027Y25775270D01*
X-6678603Y25886694D01*
X-6678600Y25886698D01*
X-6591053Y26017718D01*
X-6591049Y26017727D01*
X-6530743Y26163318D01*
X-6500001Y26317872D01*
X11500000Y26317872D01*
X11530742Y26163318D01*
X11591048Y26017727D01*
X11591052Y26017718D01*
X11678599Y25886698D01*
X11678602Y25886694D01*
X11790026Y25775270D01*
X11790030Y25775267D01*
X11921050Y25687720D01*
X11921059Y25687716D01*
X12066646Y25627412D01*
X12066654Y25627410D01*
X12200000Y25600887D01*
X12200000Y26112879D01*
X12260504Y26096667D01*
X12339496Y26096667D01*
X12400000Y26112879D01*
X12400000Y25600888D01*
X12533345Y25627410D01*
X12533353Y25627412D01*
X12678940Y25687716D01*
X12678949Y25687720D01*
X12809969Y25775267D01*
X12809973Y25775270D01*
X12921397Y25886694D01*
X12921400Y25886698D01*
X13008947Y26017718D01*
X13008951Y26017727D01*
X13069257Y26163318D01*
X13099999Y26317872D01*
X13100000Y26317875D01*
X13100000Y26796666D01*
X13099999Y26796667D01*
X12600000Y26796667D01*
X12600000Y26996667D01*
X13099999Y26996667D01*
X13100000Y26996668D01*
X13100000Y27475460D01*
X13099999Y27475463D01*
X13069257Y27630017D01*
X13008951Y27775608D01*
X13008947Y27775617D01*
X12921400Y27906637D01*
X12921397Y27906641D01*
X12809973Y28018065D01*
X12809969Y28018068D01*
X12678949Y28105615D01*
X12678940Y28105619D01*
X12533349Y28165925D01*
X12400000Y28192450D01*
X12400000Y27680456D01*
X12339496Y27696667D01*
X12260504Y27696667D01*
X12200000Y27680456D01*
X12200000Y28192450D01*
X12066650Y28165925D01*
X11921059Y28105619D01*
X11921050Y28105615D01*
X11790030Y28018068D01*
X11790026Y28018065D01*
X11678602Y27906641D01*
X11678599Y27906637D01*
X11591052Y27775617D01*
X11591048Y27775608D01*
X11530742Y27630017D01*
X11500000Y27475463D01*
X11500000Y26996668D01*
X11500001Y26996667D01*
X12000000Y26996667D01*
X12000000Y26796667D01*
X11500001Y26796667D01*
X11500000Y26796666D01*
X11500000Y26317872D01*
X-6500001Y26317872D01*
X-6500000Y26317875D01*
X-6500000Y26796666D01*
X-6500001Y26796667D01*
X-7000000Y26796667D01*
X-7000000Y26996667D01*
X-6500001Y26996667D01*
X-6500000Y26996668D01*
X-6500000Y27475460D01*
X-6500001Y27475463D01*
X-6530743Y27630017D01*
X-6591049Y27775608D01*
X-6591053Y27775617D01*
X-6678600Y27906637D01*
X-6678603Y27906641D01*
X-6790027Y28018065D01*
X-6790031Y28018068D01*
X-6921051Y28105615D01*
X-6921060Y28105619D01*
X-7066651Y28165925D01*
X-7200000Y28192450D01*
X-7200000Y27680456D01*
X-7260504Y27696667D01*
X-7339496Y27696667D01*
X-7400000Y27680456D01*
X-7400000Y28192450D01*
X-7533350Y28165925D01*
X-7678941Y28105619D01*
X-7678950Y28105615D01*
X-7809970Y28018068D01*
X-7809974Y28018065D01*
X-7921398Y27906641D01*
X-7921401Y27906637D01*
X-8008948Y27775617D01*
X-8008952Y27775608D01*
X-8069258Y27630017D01*
X-8100000Y27475463D01*
X-8100000Y26996668D01*
X-8099999Y26996667D01*
X-7600000Y26996667D01*
X-7600000Y26796667D01*
X-8099999Y26796667D01*
X-8100000Y26796666D01*
X-8100000Y26317872D01*
X-8814500Y26317872D01*
X-8814500Y30767719D01*
X-8795593Y30825910D01*
X-8785504Y30837723D01*
X-7617723Y32005504D01*
X-7563206Y32033281D01*
X-7547719Y32034500D01*
X30407719Y32034500D01*
X30465910Y32015593D01*
G37*
G04 #@! TD.AperFunction*
G04 #@! TD*
G04 #@! TA.AperFunction,Conductor*
G04 #@! TO.N,+3V3*
G36*
X6848563Y5406573D02*
G01*
X6851790Y5400456D01*
X7147405Y3823839D01*
X7145561Y3815076D01*
X7138061Y3810183D01*
X7135920Y3809983D01*
X6350015Y3809001D01*
X6349985Y3809001D01*
X5564079Y3809983D01*
X5555811Y3813420D01*
X5552394Y3821698D01*
X5552593Y3823831D01*
X5848210Y5400458D01*
X5853103Y5407956D01*
X5859710Y5410000D01*
X6840290Y5410000D01*
X6848563Y5406573D01*
G37*
G04 #@! TD.AperFunction*
G04 #@! TD*
G04 #@! TA.AperFunction,Conductor*
G04 #@! TO.N,+3V3*
G36*
X7135920Y6350018D02*
G01*
X7144188Y6346581D01*
X7147605Y6338303D01*
X7147405Y6336162D01*
X6851790Y4759544D01*
X6846897Y4752044D01*
X6840290Y4750000D01*
X5859710Y4750000D01*
X5851437Y4753427D01*
X5848210Y4759544D01*
X5552594Y6336164D01*
X5554438Y6344925D01*
X5561938Y6349818D01*
X5564074Y6350018D01*
X6350000Y6351000D01*
X7135920Y6350018D01*
G37*
G04 #@! TD.AperFunction*
G04 #@! TD*
G04 #@! TA.AperFunction,Conductor*
G04 #@! TO.N,+3V3*
G36*
X29609244Y5406573D02*
G01*
X29612289Y5401266D01*
X29946520Y4126006D01*
X29945302Y4117135D01*
X29939692Y4112236D01*
X29214490Y3810866D01*
X29205536Y3810856D01*
X28480306Y4112237D01*
X28473982Y4118575D01*
X28473479Y4126004D01*
X28807711Y5401266D01*
X28813124Y5408400D01*
X28819029Y5410000D01*
X29600971Y5410000D01*
X29609244Y5406573D01*
G37*
G04 #@! TD.AperFunction*
G04 #@! TD*
G04 #@! TA.AperFunction,Conductor*
G04 #@! TO.N,+3V3*
G36*
X6848562Y7946573D02*
G01*
X6851789Y7940456D01*
X6959462Y7366198D01*
X6959562Y7362515D01*
X6944750Y7250001D01*
X6963669Y7106294D01*
X6963672Y7106285D01*
X7019134Y6972384D01*
X7019138Y6972378D01*
X7019139Y6972375D01*
X7036182Y6950164D01*
X7038400Y6945198D01*
X7147405Y6363839D01*
X7145561Y6355076D01*
X7138061Y6350183D01*
X7135920Y6349983D01*
X6350015Y6349001D01*
X6349985Y6349001D01*
X5564079Y6349983D01*
X5555811Y6353420D01*
X5552394Y6361698D01*
X5552593Y6363831D01*
X5674006Y7011371D01*
X5676221Y7016330D01*
X5680861Y7022375D01*
X5736330Y7156291D01*
X5755250Y7300000D01*
X5744303Y7383148D01*
X5744402Y7386815D01*
X5848210Y7940458D01*
X5853103Y7947956D01*
X5859710Y7950000D01*
X6840289Y7950000D01*
X6848562Y7946573D01*
G37*
G04 #@! TD.AperFunction*
G04 #@! TD*
G04 #@! TA.AperFunction,Conductor*
G04 #@! TO.N,+3V3*
G36*
X29175137Y8087887D02*
G01*
X29177158Y8085175D01*
X29942948Y6667543D01*
X29943865Y6658635D01*
X29938215Y6651688D01*
X29937144Y6651178D01*
X29212868Y6350192D01*
X29208368Y6349296D01*
X28423762Y6349988D01*
X28415492Y6353422D01*
X28412072Y6361698D01*
X28412225Y6363573D01*
X28603401Y7529592D01*
X28606671Y7535967D01*
X29158592Y8087888D01*
X29166864Y8091314D01*
X29175137Y8087887D01*
G37*
G04 #@! TD.AperFunction*
G04 #@! TD*
G04 #@! TA.AperFunction,Conductor*
G04 #@! TO.N,+3V3*
G36*
X29939693Y6047764D02*
G01*
X29946017Y6041426D01*
X29946520Y6033995D01*
X29612289Y4758734D01*
X29606876Y4751600D01*
X29600971Y4750000D01*
X28819029Y4750000D01*
X28810756Y4753427D01*
X28807711Y4758734D01*
X28771584Y4896575D01*
X28473479Y6033997D01*
X28474697Y6042866D01*
X28480304Y6047763D01*
X29205512Y6349136D01*
X29214461Y6349146D01*
X29939693Y6047764D01*
G37*
G04 #@! TD.AperFunction*
G04 #@! TD*
M02*
