M48
; DRILL file {KiCad 8.0.0} date 2024-03-17T08:28:40+0900
; FORMAT={3:3/ absolute / metric / suppress leading zeros}
; #@! TF.CreationDate,2024-03-17T08:28:40+09:00
; #@! TF.GenerationSoftware,Kicad,Pcbnew,8.0.0
; #@! TF.FileFunction,Plated,1,2,PTH
FMAT,2
METRIC,TZ
; #@! TA.AperFunction,Plated,PTH,ViaDrill
T1C0.400
; #@! TA.AperFunction,Plated,PTH,ComponentDrill
T2C0.600
; #@! TA.AperFunction,Plated,PTH,ComponentDrill
T3C0.800
%
G90
G05
T1
X-6604Y9906
X-6000Y7850
X-5150Y13400
X-4200Y8000
X-4191Y11684
X-4000Y15000
X-3810Y9906
X-3450Y7750
X-3302Y11811
X-2500Y20800
X-2413Y13462
X-1550Y8000
X-1270Y9906
X-1000Y20800
X-900Y11600
X-400Y12150
X500Y20800
X889Y7747
X1270Y9906
X1500Y11800
X2000Y20800
X2900Y15100
X3250Y20800
X3250Y17200
X3450Y13500
X3450Y8850
X3450Y7750
X3500Y11900
X4064Y9906
X4500Y20800
X5200Y13500
X5200Y10950
X5200Y7300
X5250Y8850
X5400Y16350
X6000Y20800
X6350Y15500
X6350Y13450
X7000Y17200
X7350Y18350
X7500Y8850
X7500Y7250
X7650Y11000
X8650Y17200
X8650Y15500
X8650Y13450
X10950Y15500
X13000Y8850
X13400Y15500
X14000Y10950
X14351Y8001
X15300Y12200
X15367Y9144
X16002Y8001
X16300Y10200
X16800Y15500
X16800Y13350
X18200Y14700
X18250Y15650
X18669Y8128
X18700Y13350
X19200Y10650
X19750Y8100
X20320Y9144
X20700Y10700
X20800Y13000
X22150Y7700
X22350Y13800
X22400Y11150
X23749Y9144
X23750Y10450
X23750Y8100
X27050Y8050
X28050Y10200
X30000Y8350
T3
X-6350Y6350
X-6350Y3810
X-3810Y6350
X-3810Y3810
X-1270Y6350
X-1270Y3810
X1270Y6350
X1270Y3810
X3810Y6350
X3810Y3810
X6350Y6350
X6350Y3810
X16510Y6350
X16510Y3810
X19050Y6350
X19050Y3810
X21590Y6350
X21590Y3810
X24130Y6350
X24130Y3810
X26670Y6350
X26670Y3810
X29210Y6350
X29210Y3810
T2
G00X-7300Y26397
M15
G01X-7300Y27397
M16
G05
G00X-5700Y18967
M15
G01X-5700Y20267
M16
G05
G00X10700Y18967
M15
G01X10700Y20267
M16
G05
G00X12300Y26397
M15
G01X12300Y27397
M16
G05
M30
