%TF.GenerationSoftware,KiCad,Pcbnew,7.0.1*%
%TF.CreationDate,2023-03-20T23:29:57+09:00*%
%TF.ProjectId,TangNano20K_PmodBase,54616e67-4e61-46e6-9f32-304b5f506d6f,rev?*%
%TF.SameCoordinates,Original*%
%TF.FileFunction,Soldermask,Bot*%
%TF.FilePolarity,Negative*%
%FSLAX46Y46*%
G04 Gerber Fmt 4.6, Leading zero omitted, Abs format (unit mm)*
G04 Created by KiCad (PCBNEW 7.0.1) date 2023-03-20 23:29:57*
%MOMM*%
%LPD*%
G01*
G04 APERTURE LIST*
%ADD10C,3.250000*%
%ADD11C,3.200000*%
%ADD12O,1.200000X1.600000*%
%ADD13O,1.400000X1.600000*%
%ADD14R,1.600000X1.600000*%
%ADD15O,1.600000X1.600000*%
%ADD16O,2.000000X1.500000*%
%ADD17C,1.400000*%
%ADD18O,1.400000X1.400000*%
%ADD19O,1.600000X1.400000*%
G04 APERTURE END LIST*
%TO.C,H4*%
D10*
X81325000Y-101800000D02*
G75*
G03*
X81325000Y-101800000I-1625000J0D01*
G01*
%TO.C,H1*%
X81325000Y-31530000D02*
G75*
G03*
X81325000Y-31530000I-1625000J0D01*
G01*
%TO.C,H3*%
X154925000Y-31530000D02*
G75*
G03*
X154925000Y-31530000I-1625000J0D01*
G01*
%TO.C,H2*%
X154925000Y-101800000D02*
G75*
G03*
X154925000Y-101800000I-1625000J0D01*
G01*
%TD*%
D11*
%TO.C,H4*%
X79700000Y-101800000D03*
%TD*%
D12*
%TO.C,U1*%
X140480000Y-61350000D03*
X137940000Y-61350000D03*
X135400000Y-61350000D03*
X132860000Y-61350000D03*
X130320000Y-61350000D03*
X127780000Y-61350000D03*
X125240000Y-61350000D03*
X122700000Y-61350000D03*
X120160000Y-61350000D03*
X117620000Y-61350000D03*
X115080000Y-61350000D03*
X112540000Y-61350000D03*
X110000000Y-61350000D03*
X107460000Y-61350000D03*
X104920000Y-61350000D03*
X102380000Y-61350000D03*
X99840000Y-61350000D03*
X97300000Y-61350000D03*
X94760000Y-61350000D03*
X92220000Y-61350000D03*
X92220000Y-81670000D03*
X94760000Y-81670000D03*
X97300000Y-81670000D03*
X99840000Y-81670000D03*
X102380000Y-81670000D03*
X104920000Y-81670000D03*
X107460000Y-81670000D03*
X110000000Y-81670000D03*
X112540000Y-81670000D03*
X115080000Y-81670000D03*
X117620000Y-81670000D03*
X120160000Y-81670000D03*
X122700000Y-81670000D03*
X125240000Y-81670000D03*
X127780000Y-81670000D03*
X130320000Y-81670000D03*
X132860000Y-81670000D03*
X135400000Y-81670000D03*
X137940000Y-81670000D03*
X140480000Y-81670000D03*
%TD*%
D13*
%TO.C,J9*%
X140480000Y-90560000D03*
X137940000Y-90560000D03*
X135400000Y-90560000D03*
X132860000Y-90560000D03*
X130320000Y-90560000D03*
X127780000Y-90560000D03*
X125240000Y-90560000D03*
X122700000Y-90560000D03*
X120160000Y-90560000D03*
X117620000Y-90560000D03*
X115080000Y-90560000D03*
X112540000Y-90560000D03*
X110000000Y-90560000D03*
X107460000Y-90560000D03*
X104920000Y-90560000D03*
X102380000Y-90560000D03*
X99840000Y-90560000D03*
X97300000Y-90560000D03*
X94760000Y-90560000D03*
X92220000Y-90560000D03*
%TD*%
%TO.C,J8*%
X140480000Y-88020000D03*
X137940000Y-88020000D03*
X135400000Y-88020000D03*
X132860000Y-88020000D03*
X130320000Y-88020000D03*
X127780000Y-88020000D03*
X125240000Y-88020000D03*
X122700000Y-88020000D03*
X120160000Y-88020000D03*
X117620000Y-88020000D03*
X115080000Y-88020000D03*
X112540000Y-88020000D03*
X110000000Y-88020000D03*
X107460000Y-88020000D03*
X104920000Y-88020000D03*
X102380000Y-88020000D03*
X99840000Y-88020000D03*
X97300000Y-88020000D03*
X94760000Y-88020000D03*
X92220000Y-88020000D03*
%TD*%
%TO.C,J4*%
X92220000Y-85480000D03*
X94760000Y-85480000D03*
X97300000Y-85480000D03*
X99840000Y-85480000D03*
X102380000Y-85480000D03*
X104920000Y-85480000D03*
X107460000Y-85480000D03*
X110000000Y-85480000D03*
X112540000Y-85480000D03*
X115080000Y-85480000D03*
X117620000Y-85480000D03*
X120160000Y-85480000D03*
X122700000Y-85480000D03*
X125240000Y-85480000D03*
X127780000Y-85480000D03*
X130320000Y-85480000D03*
X132860000Y-85480000D03*
X135400000Y-85480000D03*
X137940000Y-85480000D03*
X140480000Y-85480000D03*
%TD*%
%TO.C,J3*%
X140480000Y-52460000D03*
X137940000Y-52460000D03*
X135400000Y-52460000D03*
X132860000Y-52460000D03*
X130320000Y-52460000D03*
X127780000Y-52460000D03*
X125240000Y-52460000D03*
X122700000Y-52460000D03*
X120160000Y-52460000D03*
X117620000Y-52460000D03*
X115080000Y-52460000D03*
X112540000Y-52460000D03*
X110000000Y-52460000D03*
X107460000Y-52460000D03*
X104920000Y-52460000D03*
X102380000Y-52460000D03*
X99840000Y-52460000D03*
X97300000Y-52460000D03*
X94760000Y-52460000D03*
X92220000Y-52460000D03*
%TD*%
%TO.C,J2*%
X140480000Y-55000000D03*
X137940000Y-55000000D03*
X135400000Y-55000000D03*
X132860000Y-55000000D03*
X130320000Y-55000000D03*
X127780000Y-55000000D03*
X125240000Y-55000000D03*
X122700000Y-55000000D03*
X120160000Y-55000000D03*
X117620000Y-55000000D03*
X115080000Y-55000000D03*
X112540000Y-55000000D03*
X110000000Y-55000000D03*
X107460000Y-55000000D03*
X104920000Y-55000000D03*
X102380000Y-55000000D03*
X99840000Y-55000000D03*
X97300000Y-55000000D03*
X94760000Y-55000000D03*
X92220000Y-55000000D03*
%TD*%
%TO.C,J1*%
X140480000Y-57540000D03*
X137940000Y-57540000D03*
X135400000Y-57540000D03*
X132860000Y-57540000D03*
X130320000Y-57540000D03*
X127780000Y-57540000D03*
X125240000Y-57540000D03*
X122700000Y-57540000D03*
X120160000Y-57540000D03*
X117620000Y-57540000D03*
X115080000Y-57540000D03*
X112540000Y-57540000D03*
X110000000Y-57540000D03*
X107460000Y-57540000D03*
X104920000Y-57540000D03*
X102380000Y-57540000D03*
X99840000Y-57540000D03*
X97300000Y-57540000D03*
X94760000Y-57540000D03*
X92220000Y-57540000D03*
%TD*%
D14*
%TO.C,J7*%
X87140000Y-41030000D03*
D15*
X89680000Y-41030000D03*
X92220000Y-41030000D03*
X94760000Y-41030000D03*
X97300000Y-41030000D03*
X99840000Y-41030000D03*
X87140000Y-38490000D03*
X89680000Y-38490000D03*
X92220000Y-38490000D03*
X94760000Y-38490000D03*
X97300000Y-38490000D03*
X99840000Y-38490000D03*
%TD*%
D16*
%TO.C,SW7*%
X113175000Y-94930000D03*
X113175000Y-101430000D03*
%TD*%
D14*
%TO.C,J6*%
X110000000Y-41030000D03*
D15*
X112540000Y-41030000D03*
X115080000Y-41030000D03*
X117620000Y-41030000D03*
X120160000Y-41030000D03*
X122700000Y-41030000D03*
X110000000Y-38490000D03*
X112540000Y-38490000D03*
X115080000Y-38490000D03*
X117620000Y-38490000D03*
X120160000Y-38490000D03*
X122700000Y-38490000D03*
%TD*%
D17*
%TO.C,R5*%
X120160000Y-79130000D03*
D18*
X120160000Y-74050000D03*
%TD*%
D19*
%TO.C,J11*%
X104920000Y-93100000D03*
X104920000Y-95640000D03*
X104920000Y-98180000D03*
%TD*%
D11*
%TO.C,H1*%
X79700000Y-31530000D03*
%TD*%
D17*
%TO.C,R2*%
X130320000Y-79130000D03*
D18*
X130320000Y-74050000D03*
%TD*%
D17*
%TO.C,R8*%
X107460000Y-79130000D03*
D18*
X107460000Y-74050000D03*
%TD*%
D17*
%TO.C,R1*%
X130320000Y-63890000D03*
D18*
X130320000Y-68970000D03*
%TD*%
D17*
%TO.C,R3*%
X125240000Y-79130000D03*
D18*
X125240000Y-74050000D03*
%TD*%
D16*
%TO.C,SW5*%
X120795000Y-94930000D03*
X120795000Y-101430000D03*
%TD*%
D17*
%TO.C,R6*%
X115080000Y-79130000D03*
D18*
X115080000Y-74050000D03*
%TD*%
D11*
%TO.C,H3*%
X153300000Y-31530000D03*
%TD*%
D16*
%TO.C,SW8*%
X109365000Y-94930000D03*
X109365000Y-101430000D03*
%TD*%
%TO.C,SW4*%
X124605000Y-94930000D03*
X124605000Y-101430000D03*
%TD*%
D17*
%TO.C,R7*%
X110000000Y-79130000D03*
D18*
X110000000Y-74050000D03*
%TD*%
D16*
%TO.C,SW1*%
X136035000Y-94930000D03*
X136035000Y-101430000D03*
%TD*%
%TO.C,SW3*%
X128415000Y-94930000D03*
X128415000Y-101430000D03*
%TD*%
D17*
%TO.C,R4*%
X122700000Y-79130000D03*
D18*
X122700000Y-74050000D03*
%TD*%
D16*
%TO.C,SW6*%
X116985000Y-94930000D03*
X116985000Y-101430000D03*
%TD*%
D19*
%TO.C,J12*%
X140480000Y-93100000D03*
X140480000Y-95640000D03*
X140480000Y-98180000D03*
%TD*%
D16*
%TO.C,SW2*%
X132225000Y-94930000D03*
X132225000Y-101430000D03*
%TD*%
D14*
%TO.C,J5*%
X132860000Y-41030000D03*
D15*
X135400000Y-41030000D03*
X137940000Y-41030000D03*
X140480000Y-41030000D03*
X143020000Y-41030000D03*
X145560000Y-41030000D03*
X132860000Y-38490000D03*
X135400000Y-38490000D03*
X137940000Y-38490000D03*
X140480000Y-38490000D03*
X143020000Y-38490000D03*
X145560000Y-38490000D03*
%TD*%
D19*
%TO.C,J10*%
X102380000Y-93100000D03*
X102380000Y-95640000D03*
X102380000Y-98180000D03*
%TD*%
D11*
%TO.C,H2*%
X153300000Y-101800000D03*
%TD*%
M02*
