%TF.GenerationSoftware,KiCad,Pcbnew,7.0.1*%
%TF.CreationDate,2023-03-20T23:29:57+09:00*%
%TF.ProjectId,TangNano20K_PmodBase,54616e67-4e61-46e6-9f32-304b5f506d6f,rev?*%
%TF.SameCoordinates,Original*%
%TF.FileFunction,Legend,Top*%
%TF.FilePolarity,Positive*%
%FSLAX46Y46*%
G04 Gerber Fmt 4.6, Leading zero omitted, Abs format (unit mm)*
G04 Created by KiCad (PCBNEW 7.0.1) date 2023-03-20 23:29:57*
%MOMM*%
%LPD*%
G01*
G04 APERTURE LIST*
%ADD10C,0.150000*%
%ADD11C,0.120000*%
%ADD12C,0.010000*%
G04 APERTURE END LIST*
D10*
X138429761Y-92845904D02*
X138477380Y-92750666D01*
X138477380Y-92750666D02*
X138477380Y-92607809D01*
X138477380Y-92607809D02*
X138429761Y-92464952D01*
X138429761Y-92464952D02*
X138334523Y-92369714D01*
X138334523Y-92369714D02*
X138239285Y-92322095D01*
X138239285Y-92322095D02*
X138048809Y-92274476D01*
X138048809Y-92274476D02*
X137905952Y-92274476D01*
X137905952Y-92274476D02*
X137715476Y-92322095D01*
X137715476Y-92322095D02*
X137620238Y-92369714D01*
X137620238Y-92369714D02*
X137525000Y-92464952D01*
X137525000Y-92464952D02*
X137477380Y-92607809D01*
X137477380Y-92607809D02*
X137477380Y-92703047D01*
X137477380Y-92703047D02*
X137525000Y-92845904D01*
X137525000Y-92845904D02*
X137572619Y-92893523D01*
X137572619Y-92893523D02*
X137905952Y-92893523D01*
X137905952Y-92893523D02*
X137905952Y-92703047D01*
X137477380Y-93322095D02*
X138477380Y-93322095D01*
X138477380Y-93322095D02*
X137477380Y-93893523D01*
X137477380Y-93893523D02*
X138477380Y-93893523D01*
X137477380Y-94369714D02*
X138477380Y-94369714D01*
X138477380Y-94369714D02*
X138477380Y-94607809D01*
X138477380Y-94607809D02*
X138429761Y-94750666D01*
X138429761Y-94750666D02*
X138334523Y-94845904D01*
X138334523Y-94845904D02*
X138239285Y-94893523D01*
X138239285Y-94893523D02*
X138048809Y-94941142D01*
X138048809Y-94941142D02*
X137905952Y-94941142D01*
X137905952Y-94941142D02*
X137715476Y-94893523D01*
X137715476Y-94893523D02*
X137620238Y-94845904D01*
X137620238Y-94845904D02*
X137525000Y-94750666D01*
X137525000Y-94750666D02*
X137477380Y-94607809D01*
X137477380Y-94607809D02*
X137477380Y-94369714D01*
X135937380Y-92226857D02*
X135937380Y-92893523D01*
X135937380Y-92893523D02*
X134937380Y-92464952D01*
X135937380Y-93750666D02*
X135937380Y-93274476D01*
X135937380Y-93274476D02*
X135461190Y-93226857D01*
X135461190Y-93226857D02*
X135508809Y-93274476D01*
X135508809Y-93274476D02*
X135556428Y-93369714D01*
X135556428Y-93369714D02*
X135556428Y-93607809D01*
X135556428Y-93607809D02*
X135508809Y-93703047D01*
X135508809Y-93703047D02*
X135461190Y-93750666D01*
X135461190Y-93750666D02*
X135365952Y-93798285D01*
X135365952Y-93798285D02*
X135127857Y-93798285D01*
X135127857Y-93798285D02*
X135032619Y-93750666D01*
X135032619Y-93750666D02*
X134985000Y-93703047D01*
X134985000Y-93703047D02*
X134937380Y-93607809D01*
X134937380Y-93607809D02*
X134937380Y-93369714D01*
X134937380Y-93369714D02*
X134985000Y-93274476D01*
X134985000Y-93274476D02*
X135032619Y-93226857D01*
X132968809Y-92464952D02*
X133016428Y-92369714D01*
X133016428Y-92369714D02*
X133064047Y-92322095D01*
X133064047Y-92322095D02*
X133159285Y-92274476D01*
X133159285Y-92274476D02*
X133206904Y-92274476D01*
X133206904Y-92274476D02*
X133302142Y-92322095D01*
X133302142Y-92322095D02*
X133349761Y-92369714D01*
X133349761Y-92369714D02*
X133397380Y-92464952D01*
X133397380Y-92464952D02*
X133397380Y-92655428D01*
X133397380Y-92655428D02*
X133349761Y-92750666D01*
X133349761Y-92750666D02*
X133302142Y-92798285D01*
X133302142Y-92798285D02*
X133206904Y-92845904D01*
X133206904Y-92845904D02*
X133159285Y-92845904D01*
X133159285Y-92845904D02*
X133064047Y-92798285D01*
X133064047Y-92798285D02*
X133016428Y-92750666D01*
X133016428Y-92750666D02*
X132968809Y-92655428D01*
X132968809Y-92655428D02*
X132968809Y-92464952D01*
X132968809Y-92464952D02*
X132921190Y-92369714D01*
X132921190Y-92369714D02*
X132873571Y-92322095D01*
X132873571Y-92322095D02*
X132778333Y-92274476D01*
X132778333Y-92274476D02*
X132587857Y-92274476D01*
X132587857Y-92274476D02*
X132492619Y-92322095D01*
X132492619Y-92322095D02*
X132445000Y-92369714D01*
X132445000Y-92369714D02*
X132397380Y-92464952D01*
X132397380Y-92464952D02*
X132397380Y-92655428D01*
X132397380Y-92655428D02*
X132445000Y-92750666D01*
X132445000Y-92750666D02*
X132492619Y-92798285D01*
X132492619Y-92798285D02*
X132587857Y-92845904D01*
X132587857Y-92845904D02*
X132778333Y-92845904D01*
X132778333Y-92845904D02*
X132873571Y-92798285D01*
X132873571Y-92798285D02*
X132921190Y-92750666D01*
X132921190Y-92750666D02*
X132968809Y-92655428D01*
X133397380Y-93464952D02*
X133397380Y-93560190D01*
X133397380Y-93560190D02*
X133349761Y-93655428D01*
X133349761Y-93655428D02*
X133302142Y-93703047D01*
X133302142Y-93703047D02*
X133206904Y-93750666D01*
X133206904Y-93750666D02*
X133016428Y-93798285D01*
X133016428Y-93798285D02*
X132778333Y-93798285D01*
X132778333Y-93798285D02*
X132587857Y-93750666D01*
X132587857Y-93750666D02*
X132492619Y-93703047D01*
X132492619Y-93703047D02*
X132445000Y-93655428D01*
X132445000Y-93655428D02*
X132397380Y-93560190D01*
X132397380Y-93560190D02*
X132397380Y-93464952D01*
X132397380Y-93464952D02*
X132445000Y-93369714D01*
X132445000Y-93369714D02*
X132492619Y-93322095D01*
X132492619Y-93322095D02*
X132587857Y-93274476D01*
X132587857Y-93274476D02*
X132778333Y-93226857D01*
X132778333Y-93226857D02*
X133016428Y-93226857D01*
X133016428Y-93226857D02*
X133206904Y-93274476D01*
X133206904Y-93274476D02*
X133302142Y-93322095D01*
X133302142Y-93322095D02*
X133349761Y-93369714D01*
X133349761Y-93369714D02*
X133397380Y-93464952D01*
X130524047Y-92750666D02*
X129857380Y-92750666D01*
X130905000Y-92512571D02*
X130190714Y-92274476D01*
X130190714Y-92274476D02*
X130190714Y-92893523D01*
X130762142Y-93226857D02*
X130809761Y-93274476D01*
X130809761Y-93274476D02*
X130857380Y-93369714D01*
X130857380Y-93369714D02*
X130857380Y-93607809D01*
X130857380Y-93607809D02*
X130809761Y-93703047D01*
X130809761Y-93703047D02*
X130762142Y-93750666D01*
X130762142Y-93750666D02*
X130666904Y-93798285D01*
X130666904Y-93798285D02*
X130571666Y-93798285D01*
X130571666Y-93798285D02*
X130428809Y-93750666D01*
X130428809Y-93750666D02*
X129857380Y-93179238D01*
X129857380Y-93179238D02*
X129857380Y-93798285D01*
X127984047Y-92750666D02*
X127317380Y-92750666D01*
X128365000Y-92512571D02*
X127650714Y-92274476D01*
X127650714Y-92274476D02*
X127650714Y-92893523D01*
X127317380Y-93798285D02*
X127317380Y-93226857D01*
X127317380Y-93512571D02*
X128317380Y-93512571D01*
X128317380Y-93512571D02*
X128174523Y-93417333D01*
X128174523Y-93417333D02*
X128079285Y-93322095D01*
X128079285Y-93322095D02*
X128031666Y-93226857D01*
X125777380Y-92798285D02*
X125777380Y-92322095D01*
X125777380Y-92322095D02*
X125301190Y-92274476D01*
X125301190Y-92274476D02*
X125348809Y-92322095D01*
X125348809Y-92322095D02*
X125396428Y-92417333D01*
X125396428Y-92417333D02*
X125396428Y-92655428D01*
X125396428Y-92655428D02*
X125348809Y-92750666D01*
X125348809Y-92750666D02*
X125301190Y-92798285D01*
X125301190Y-92798285D02*
X125205952Y-92845904D01*
X125205952Y-92845904D02*
X124967857Y-92845904D01*
X124967857Y-92845904D02*
X124872619Y-92798285D01*
X124872619Y-92798285D02*
X124825000Y-92750666D01*
X124825000Y-92750666D02*
X124777380Y-92655428D01*
X124777380Y-92655428D02*
X124777380Y-92417333D01*
X124777380Y-92417333D02*
X124825000Y-92322095D01*
X124825000Y-92322095D02*
X124872619Y-92274476D01*
X125777380Y-93703047D02*
X125777380Y-93512571D01*
X125777380Y-93512571D02*
X125729761Y-93417333D01*
X125729761Y-93417333D02*
X125682142Y-93369714D01*
X125682142Y-93369714D02*
X125539285Y-93274476D01*
X125539285Y-93274476D02*
X125348809Y-93226857D01*
X125348809Y-93226857D02*
X124967857Y-93226857D01*
X124967857Y-93226857D02*
X124872619Y-93274476D01*
X124872619Y-93274476D02*
X124825000Y-93322095D01*
X124825000Y-93322095D02*
X124777380Y-93417333D01*
X124777380Y-93417333D02*
X124777380Y-93607809D01*
X124777380Y-93607809D02*
X124825000Y-93703047D01*
X124825000Y-93703047D02*
X124872619Y-93750666D01*
X124872619Y-93750666D02*
X124967857Y-93798285D01*
X124967857Y-93798285D02*
X125205952Y-93798285D01*
X125205952Y-93798285D02*
X125301190Y-93750666D01*
X125301190Y-93750666D02*
X125348809Y-93703047D01*
X125348809Y-93703047D02*
X125396428Y-93607809D01*
X125396428Y-93607809D02*
X125396428Y-93417333D01*
X125396428Y-93417333D02*
X125348809Y-93322095D01*
X125348809Y-93322095D02*
X125301190Y-93274476D01*
X125301190Y-93274476D02*
X125205952Y-93226857D01*
X123237380Y-92798285D02*
X123237380Y-92322095D01*
X123237380Y-92322095D02*
X122761190Y-92274476D01*
X122761190Y-92274476D02*
X122808809Y-92322095D01*
X122808809Y-92322095D02*
X122856428Y-92417333D01*
X122856428Y-92417333D02*
X122856428Y-92655428D01*
X122856428Y-92655428D02*
X122808809Y-92750666D01*
X122808809Y-92750666D02*
X122761190Y-92798285D01*
X122761190Y-92798285D02*
X122665952Y-92845904D01*
X122665952Y-92845904D02*
X122427857Y-92845904D01*
X122427857Y-92845904D02*
X122332619Y-92798285D01*
X122332619Y-92798285D02*
X122285000Y-92750666D01*
X122285000Y-92750666D02*
X122237380Y-92655428D01*
X122237380Y-92655428D02*
X122237380Y-92417333D01*
X122237380Y-92417333D02*
X122285000Y-92322095D01*
X122285000Y-92322095D02*
X122332619Y-92274476D01*
X122904047Y-93703047D02*
X122237380Y-93703047D01*
X123285000Y-93464952D02*
X122570714Y-93226857D01*
X122570714Y-93226857D02*
X122570714Y-93845904D01*
X120697380Y-92798285D02*
X120697380Y-92322095D01*
X120697380Y-92322095D02*
X120221190Y-92274476D01*
X120221190Y-92274476D02*
X120268809Y-92322095D01*
X120268809Y-92322095D02*
X120316428Y-92417333D01*
X120316428Y-92417333D02*
X120316428Y-92655428D01*
X120316428Y-92655428D02*
X120268809Y-92750666D01*
X120268809Y-92750666D02*
X120221190Y-92798285D01*
X120221190Y-92798285D02*
X120125952Y-92845904D01*
X120125952Y-92845904D02*
X119887857Y-92845904D01*
X119887857Y-92845904D02*
X119792619Y-92798285D01*
X119792619Y-92798285D02*
X119745000Y-92750666D01*
X119745000Y-92750666D02*
X119697380Y-92655428D01*
X119697380Y-92655428D02*
X119697380Y-92417333D01*
X119697380Y-92417333D02*
X119745000Y-92322095D01*
X119745000Y-92322095D02*
X119792619Y-92274476D01*
X119697380Y-93798285D02*
X119697380Y-93226857D01*
X119697380Y-93512571D02*
X120697380Y-93512571D01*
X120697380Y-93512571D02*
X120554523Y-93417333D01*
X120554523Y-93417333D02*
X120459285Y-93322095D01*
X120459285Y-93322095D02*
X120411666Y-93226857D01*
X117824047Y-92750666D02*
X117157380Y-92750666D01*
X118205000Y-92512571D02*
X117490714Y-92274476D01*
X117490714Y-92274476D02*
X117490714Y-92893523D01*
X117728809Y-93417333D02*
X117776428Y-93322095D01*
X117776428Y-93322095D02*
X117824047Y-93274476D01*
X117824047Y-93274476D02*
X117919285Y-93226857D01*
X117919285Y-93226857D02*
X117966904Y-93226857D01*
X117966904Y-93226857D02*
X118062142Y-93274476D01*
X118062142Y-93274476D02*
X118109761Y-93322095D01*
X118109761Y-93322095D02*
X118157380Y-93417333D01*
X118157380Y-93417333D02*
X118157380Y-93607809D01*
X118157380Y-93607809D02*
X118109761Y-93703047D01*
X118109761Y-93703047D02*
X118062142Y-93750666D01*
X118062142Y-93750666D02*
X117966904Y-93798285D01*
X117966904Y-93798285D02*
X117919285Y-93798285D01*
X117919285Y-93798285D02*
X117824047Y-93750666D01*
X117824047Y-93750666D02*
X117776428Y-93703047D01*
X117776428Y-93703047D02*
X117728809Y-93607809D01*
X117728809Y-93607809D02*
X117728809Y-93417333D01*
X117728809Y-93417333D02*
X117681190Y-93322095D01*
X117681190Y-93322095D02*
X117633571Y-93274476D01*
X117633571Y-93274476D02*
X117538333Y-93226857D01*
X117538333Y-93226857D02*
X117347857Y-93226857D01*
X117347857Y-93226857D02*
X117252619Y-93274476D01*
X117252619Y-93274476D02*
X117205000Y-93322095D01*
X117205000Y-93322095D02*
X117157380Y-93417333D01*
X117157380Y-93417333D02*
X117157380Y-93607809D01*
X117157380Y-93607809D02*
X117205000Y-93703047D01*
X117205000Y-93703047D02*
X117252619Y-93750666D01*
X117252619Y-93750666D02*
X117347857Y-93798285D01*
X117347857Y-93798285D02*
X117538333Y-93798285D01*
X117538333Y-93798285D02*
X117633571Y-93750666D01*
X117633571Y-93750666D02*
X117681190Y-93703047D01*
X117681190Y-93703047D02*
X117728809Y-93607809D01*
X115617380Y-92798285D02*
X115617380Y-92322095D01*
X115617380Y-92322095D02*
X115141190Y-92274476D01*
X115141190Y-92274476D02*
X115188809Y-92322095D01*
X115188809Y-92322095D02*
X115236428Y-92417333D01*
X115236428Y-92417333D02*
X115236428Y-92655428D01*
X115236428Y-92655428D02*
X115188809Y-92750666D01*
X115188809Y-92750666D02*
X115141190Y-92798285D01*
X115141190Y-92798285D02*
X115045952Y-92845904D01*
X115045952Y-92845904D02*
X114807857Y-92845904D01*
X114807857Y-92845904D02*
X114712619Y-92798285D01*
X114712619Y-92798285D02*
X114665000Y-92750666D01*
X114665000Y-92750666D02*
X114617380Y-92655428D01*
X114617380Y-92655428D02*
X114617380Y-92417333D01*
X114617380Y-92417333D02*
X114665000Y-92322095D01*
X114665000Y-92322095D02*
X114712619Y-92274476D01*
X115617380Y-93750666D02*
X115617380Y-93274476D01*
X115617380Y-93274476D02*
X115141190Y-93226857D01*
X115141190Y-93226857D02*
X115188809Y-93274476D01*
X115188809Y-93274476D02*
X115236428Y-93369714D01*
X115236428Y-93369714D02*
X115236428Y-93607809D01*
X115236428Y-93607809D02*
X115188809Y-93703047D01*
X115188809Y-93703047D02*
X115141190Y-93750666D01*
X115141190Y-93750666D02*
X115045952Y-93798285D01*
X115045952Y-93798285D02*
X114807857Y-93798285D01*
X114807857Y-93798285D02*
X114712619Y-93750666D01*
X114712619Y-93750666D02*
X114665000Y-93703047D01*
X114665000Y-93703047D02*
X114617380Y-93607809D01*
X114617380Y-93607809D02*
X114617380Y-93369714D01*
X114617380Y-93369714D02*
X114665000Y-93274476D01*
X114665000Y-93274476D02*
X114712619Y-93226857D01*
X113506047Y-92750666D02*
X112839380Y-92750666D01*
X113887000Y-92512571D02*
X113172714Y-92274476D01*
X113172714Y-92274476D02*
X113172714Y-92893523D01*
X112839380Y-93322095D02*
X112839380Y-93512571D01*
X112839380Y-93512571D02*
X112887000Y-93607809D01*
X112887000Y-93607809D02*
X112934619Y-93655428D01*
X112934619Y-93655428D02*
X113077476Y-93750666D01*
X113077476Y-93750666D02*
X113267952Y-93798285D01*
X113267952Y-93798285D02*
X113648904Y-93798285D01*
X113648904Y-93798285D02*
X113744142Y-93750666D01*
X113744142Y-93750666D02*
X113791761Y-93703047D01*
X113791761Y-93703047D02*
X113839380Y-93607809D01*
X113839380Y-93607809D02*
X113839380Y-93417333D01*
X113839380Y-93417333D02*
X113791761Y-93322095D01*
X113791761Y-93322095D02*
X113744142Y-93274476D01*
X113744142Y-93274476D02*
X113648904Y-93226857D01*
X113648904Y-93226857D02*
X113410809Y-93226857D01*
X113410809Y-93226857D02*
X113315571Y-93274476D01*
X113315571Y-93274476D02*
X113267952Y-93322095D01*
X113267952Y-93322095D02*
X113220333Y-93417333D01*
X113220333Y-93417333D02*
X113220333Y-93607809D01*
X113220333Y-93607809D02*
X113267952Y-93703047D01*
X113267952Y-93703047D02*
X113315571Y-93750666D01*
X113315571Y-93750666D02*
X113410809Y-93798285D01*
X110108809Y-92464952D02*
X110156428Y-92369714D01*
X110156428Y-92369714D02*
X110204047Y-92322095D01*
X110204047Y-92322095D02*
X110299285Y-92274476D01*
X110299285Y-92274476D02*
X110346904Y-92274476D01*
X110346904Y-92274476D02*
X110442142Y-92322095D01*
X110442142Y-92322095D02*
X110489761Y-92369714D01*
X110489761Y-92369714D02*
X110537380Y-92464952D01*
X110537380Y-92464952D02*
X110537380Y-92655428D01*
X110537380Y-92655428D02*
X110489761Y-92750666D01*
X110489761Y-92750666D02*
X110442142Y-92798285D01*
X110442142Y-92798285D02*
X110346904Y-92845904D01*
X110346904Y-92845904D02*
X110299285Y-92845904D01*
X110299285Y-92845904D02*
X110204047Y-92798285D01*
X110204047Y-92798285D02*
X110156428Y-92750666D01*
X110156428Y-92750666D02*
X110108809Y-92655428D01*
X110108809Y-92655428D02*
X110108809Y-92464952D01*
X110108809Y-92464952D02*
X110061190Y-92369714D01*
X110061190Y-92369714D02*
X110013571Y-92322095D01*
X110013571Y-92322095D02*
X109918333Y-92274476D01*
X109918333Y-92274476D02*
X109727857Y-92274476D01*
X109727857Y-92274476D02*
X109632619Y-92322095D01*
X109632619Y-92322095D02*
X109585000Y-92369714D01*
X109585000Y-92369714D02*
X109537380Y-92464952D01*
X109537380Y-92464952D02*
X109537380Y-92655428D01*
X109537380Y-92655428D02*
X109585000Y-92750666D01*
X109585000Y-92750666D02*
X109632619Y-92798285D01*
X109632619Y-92798285D02*
X109727857Y-92845904D01*
X109727857Y-92845904D02*
X109918333Y-92845904D01*
X109918333Y-92845904D02*
X110013571Y-92798285D01*
X110013571Y-92798285D02*
X110061190Y-92750666D01*
X110061190Y-92750666D02*
X110108809Y-92655428D01*
X110537380Y-93703047D02*
X110537380Y-93512571D01*
X110537380Y-93512571D02*
X110489761Y-93417333D01*
X110489761Y-93417333D02*
X110442142Y-93369714D01*
X110442142Y-93369714D02*
X110299285Y-93274476D01*
X110299285Y-93274476D02*
X110108809Y-93226857D01*
X110108809Y-93226857D02*
X109727857Y-93226857D01*
X109727857Y-93226857D02*
X109632619Y-93274476D01*
X109632619Y-93274476D02*
X109585000Y-93322095D01*
X109585000Y-93322095D02*
X109537380Y-93417333D01*
X109537380Y-93417333D02*
X109537380Y-93607809D01*
X109537380Y-93607809D02*
X109585000Y-93703047D01*
X109585000Y-93703047D02*
X109632619Y-93750666D01*
X109632619Y-93750666D02*
X109727857Y-93798285D01*
X109727857Y-93798285D02*
X109965952Y-93798285D01*
X109965952Y-93798285D02*
X110061190Y-93750666D01*
X110061190Y-93750666D02*
X110108809Y-93703047D01*
X110108809Y-93703047D02*
X110156428Y-93607809D01*
X110156428Y-93607809D02*
X110156428Y-93417333D01*
X110156428Y-93417333D02*
X110108809Y-93322095D01*
X110108809Y-93322095D02*
X110061190Y-93274476D01*
X110061190Y-93274476D02*
X109965952Y-93226857D01*
X107997380Y-92226857D02*
X107997380Y-92893523D01*
X107997380Y-92893523D02*
X106997380Y-92464952D01*
X106997380Y-93322095D02*
X106997380Y-93512571D01*
X106997380Y-93512571D02*
X107045000Y-93607809D01*
X107045000Y-93607809D02*
X107092619Y-93655428D01*
X107092619Y-93655428D02*
X107235476Y-93750666D01*
X107235476Y-93750666D02*
X107425952Y-93798285D01*
X107425952Y-93798285D02*
X107806904Y-93798285D01*
X107806904Y-93798285D02*
X107902142Y-93750666D01*
X107902142Y-93750666D02*
X107949761Y-93703047D01*
X107949761Y-93703047D02*
X107997380Y-93607809D01*
X107997380Y-93607809D02*
X107997380Y-93417333D01*
X107997380Y-93417333D02*
X107949761Y-93322095D01*
X107949761Y-93322095D02*
X107902142Y-93274476D01*
X107902142Y-93274476D02*
X107806904Y-93226857D01*
X107806904Y-93226857D02*
X107568809Y-93226857D01*
X107568809Y-93226857D02*
X107473571Y-93274476D01*
X107473571Y-93274476D02*
X107425952Y-93322095D01*
X107425952Y-93322095D02*
X107378333Y-93417333D01*
X107378333Y-93417333D02*
X107378333Y-93607809D01*
X107378333Y-93607809D02*
X107425952Y-93703047D01*
X107425952Y-93703047D02*
X107473571Y-93750666D01*
X107473571Y-93750666D02*
X107568809Y-93798285D01*
X100377380Y-92607857D02*
X100377380Y-93274523D01*
X100377380Y-93274523D02*
X99377380Y-92845952D01*
X100282142Y-93607857D02*
X100329761Y-93655476D01*
X100329761Y-93655476D02*
X100377380Y-93750714D01*
X100377380Y-93750714D02*
X100377380Y-93988809D01*
X100377380Y-93988809D02*
X100329761Y-94084047D01*
X100329761Y-94084047D02*
X100282142Y-94131666D01*
X100282142Y-94131666D02*
X100186904Y-94179285D01*
X100186904Y-94179285D02*
X100091666Y-94179285D01*
X100091666Y-94179285D02*
X99948809Y-94131666D01*
X99948809Y-94131666D02*
X99377380Y-93560238D01*
X99377380Y-93560238D02*
X99377380Y-94179285D01*
X97837380Y-92607857D02*
X97837380Y-93274523D01*
X97837380Y-93274523D02*
X96837380Y-92845952D01*
X96837380Y-94179285D02*
X96837380Y-93607857D01*
X96837380Y-93893571D02*
X97837380Y-93893571D01*
X97837380Y-93893571D02*
X97694523Y-93798333D01*
X97694523Y-93798333D02*
X97599285Y-93703095D01*
X97599285Y-93703095D02*
X97551666Y-93607857D01*
X123970000Y-46427500D02*
X123970000Y-42935000D01*
X96030000Y-46110000D02*
X96030000Y-42935000D01*
X146830000Y-46427500D02*
X146830000Y-42300000D01*
X131590000Y-46110000D02*
X131590000Y-42935000D01*
X144290000Y-46110000D02*
X144290000Y-42300000D01*
X116350000Y-46110000D02*
X116350000Y-42935000D01*
X139210000Y-46427500D02*
X139210000Y-42300000D01*
X93490000Y-46110000D02*
X93490000Y-42935000D01*
X146830000Y-46427500D02*
X131590000Y-46427500D01*
X111270000Y-46110000D02*
X111270000Y-42935000D01*
X113810000Y-46110000D02*
X113810000Y-42935000D01*
X131590000Y-44522500D02*
X141750000Y-44522500D01*
X134130000Y-46110000D02*
X134130000Y-42300000D01*
X101110000Y-46427500D02*
X101110000Y-42935000D01*
X108730000Y-44522500D02*
X118890000Y-44522500D01*
X136670000Y-46110000D02*
X136670000Y-42300000D01*
X108730000Y-42935000D02*
X108730000Y-46110000D01*
X108730000Y-46427500D02*
X123970000Y-46427500D01*
X141750000Y-46110000D02*
X141750000Y-42300000D01*
X85870000Y-46427500D02*
X85870000Y-42935000D01*
X88410000Y-46110000D02*
X88410000Y-42935000D01*
X85870000Y-46427500D02*
X101110000Y-46427500D01*
X90950000Y-46110000D02*
X90950000Y-42935000D01*
X85870000Y-44522500D02*
X96030000Y-44522500D01*
X118890000Y-46110000D02*
X118890000Y-42935000D01*
X131590000Y-46427500D02*
X131590000Y-46110000D01*
X108730000Y-46110000D02*
X108730000Y-46427500D01*
X87330476Y-43107380D02*
X87901904Y-43107380D01*
X87616190Y-43107380D02*
X87616190Y-44107380D01*
X87616190Y-44107380D02*
X87711428Y-43964523D01*
X87711428Y-43964523D02*
X87806666Y-43869285D01*
X87806666Y-43869285D02*
X87901904Y-43821666D01*
X86854285Y-43107380D02*
X86663809Y-43107380D01*
X86663809Y-43107380D02*
X86568571Y-43155000D01*
X86568571Y-43155000D02*
X86520952Y-43202619D01*
X86520952Y-43202619D02*
X86425714Y-43345476D01*
X86425714Y-43345476D02*
X86378095Y-43535952D01*
X86378095Y-43535952D02*
X86378095Y-43916904D01*
X86378095Y-43916904D02*
X86425714Y-44012142D01*
X86425714Y-44012142D02*
X86473333Y-44059761D01*
X86473333Y-44059761D02*
X86568571Y-44107380D01*
X86568571Y-44107380D02*
X86759047Y-44107380D01*
X86759047Y-44107380D02*
X86854285Y-44059761D01*
X86854285Y-44059761D02*
X86901904Y-44012142D01*
X86901904Y-44012142D02*
X86949523Y-43916904D01*
X86949523Y-43916904D02*
X86949523Y-43678809D01*
X86949523Y-43678809D02*
X86901904Y-43583571D01*
X86901904Y-43583571D02*
X86854285Y-43535952D01*
X86854285Y-43535952D02*
X86759047Y-43488333D01*
X86759047Y-43488333D02*
X86568571Y-43488333D01*
X86568571Y-43488333D02*
X86473333Y-43535952D01*
X86473333Y-43535952D02*
X86425714Y-43583571D01*
X86425714Y-43583571D02*
X86378095Y-43678809D01*
X100377380Y-43046310D02*
X100377380Y-43665357D01*
X100377380Y-43665357D02*
X99996428Y-43332024D01*
X99996428Y-43332024D02*
X99996428Y-43474881D01*
X99996428Y-43474881D02*
X99948809Y-43570119D01*
X99948809Y-43570119D02*
X99901190Y-43617738D01*
X99901190Y-43617738D02*
X99805952Y-43665357D01*
X99805952Y-43665357D02*
X99567857Y-43665357D01*
X99567857Y-43665357D02*
X99472619Y-43617738D01*
X99472619Y-43617738D02*
X99425000Y-43570119D01*
X99425000Y-43570119D02*
X99377380Y-43474881D01*
X99377380Y-43474881D02*
X99377380Y-43189167D01*
X99377380Y-43189167D02*
X99425000Y-43093929D01*
X99425000Y-43093929D02*
X99472619Y-43046310D01*
X99472619Y-44093929D02*
X99425000Y-44141548D01*
X99425000Y-44141548D02*
X99377380Y-44093929D01*
X99377380Y-44093929D02*
X99425000Y-44046310D01*
X99425000Y-44046310D02*
X99472619Y-44093929D01*
X99472619Y-44093929D02*
X99377380Y-44093929D01*
X100377380Y-44474881D02*
X100377380Y-45093928D01*
X100377380Y-45093928D02*
X99996428Y-44760595D01*
X99996428Y-44760595D02*
X99996428Y-44903452D01*
X99996428Y-44903452D02*
X99948809Y-44998690D01*
X99948809Y-44998690D02*
X99901190Y-45046309D01*
X99901190Y-45046309D02*
X99805952Y-45093928D01*
X99805952Y-45093928D02*
X99567857Y-45093928D01*
X99567857Y-45093928D02*
X99472619Y-45046309D01*
X99472619Y-45046309D02*
X99425000Y-44998690D01*
X99425000Y-44998690D02*
X99377380Y-44903452D01*
X99377380Y-44903452D02*
X99377380Y-44617738D01*
X99377380Y-44617738D02*
X99425000Y-44522500D01*
X99425000Y-44522500D02*
X99472619Y-44474881D01*
X100377380Y-45379643D02*
X99377380Y-45712976D01*
X99377380Y-45712976D02*
X100377380Y-46046309D01*
X141289523Y-44107380D02*
X140622857Y-44107380D01*
X140622857Y-44107380D02*
X141051428Y-43107380D01*
X140337142Y-44107380D02*
X139718095Y-44107380D01*
X139718095Y-44107380D02*
X140051428Y-43726428D01*
X140051428Y-43726428D02*
X139908571Y-43726428D01*
X139908571Y-43726428D02*
X139813333Y-43678809D01*
X139813333Y-43678809D02*
X139765714Y-43631190D01*
X139765714Y-43631190D02*
X139718095Y-43535952D01*
X139718095Y-43535952D02*
X139718095Y-43297857D01*
X139718095Y-43297857D02*
X139765714Y-43202619D01*
X139765714Y-43202619D02*
X139813333Y-43155000D01*
X139813333Y-43155000D02*
X139908571Y-43107380D01*
X139908571Y-43107380D02*
X140194285Y-43107380D01*
X140194285Y-43107380D02*
X140289523Y-43155000D01*
X140289523Y-43155000D02*
X140337142Y-43202619D01*
X95045714Y-45679047D02*
X95045714Y-45012380D01*
X95283809Y-46060000D02*
X95521904Y-45345714D01*
X95521904Y-45345714D02*
X94902857Y-45345714D01*
X94474285Y-45012380D02*
X94283809Y-45012380D01*
X94283809Y-45012380D02*
X94188571Y-45060000D01*
X94188571Y-45060000D02*
X94140952Y-45107619D01*
X94140952Y-45107619D02*
X94045714Y-45250476D01*
X94045714Y-45250476D02*
X93998095Y-45440952D01*
X93998095Y-45440952D02*
X93998095Y-45821904D01*
X93998095Y-45821904D02*
X94045714Y-45917142D01*
X94045714Y-45917142D02*
X94093333Y-45964761D01*
X94093333Y-45964761D02*
X94188571Y-46012380D01*
X94188571Y-46012380D02*
X94379047Y-46012380D01*
X94379047Y-46012380D02*
X94474285Y-45964761D01*
X94474285Y-45964761D02*
X94521904Y-45917142D01*
X94521904Y-45917142D02*
X94569523Y-45821904D01*
X94569523Y-45821904D02*
X94569523Y-45583809D01*
X94569523Y-45583809D02*
X94521904Y-45488571D01*
X94521904Y-45488571D02*
X94474285Y-45440952D01*
X94474285Y-45440952D02*
X94379047Y-45393333D01*
X94379047Y-45393333D02*
X94188571Y-45393333D01*
X94188571Y-45393333D02*
X94093333Y-45440952D01*
X94093333Y-45440952D02*
X94045714Y-45488571D01*
X94045714Y-45488571D02*
X93998095Y-45583809D01*
X90441904Y-45917142D02*
X90394285Y-45964761D01*
X90394285Y-45964761D02*
X90299047Y-46012380D01*
X90299047Y-46012380D02*
X90060952Y-46012380D01*
X90060952Y-46012380D02*
X89965714Y-45964761D01*
X89965714Y-45964761D02*
X89918095Y-45917142D01*
X89918095Y-45917142D02*
X89870476Y-45821904D01*
X89870476Y-45821904D02*
X89870476Y-45726666D01*
X89870476Y-45726666D02*
X89918095Y-45583809D01*
X89918095Y-45583809D02*
X90489523Y-45012380D01*
X90489523Y-45012380D02*
X89870476Y-45012380D01*
X89251428Y-46012380D02*
X89156190Y-46012380D01*
X89156190Y-46012380D02*
X89060952Y-45964761D01*
X89060952Y-45964761D02*
X89013333Y-45917142D01*
X89013333Y-45917142D02*
X88965714Y-45821904D01*
X88965714Y-45821904D02*
X88918095Y-45631428D01*
X88918095Y-45631428D02*
X88918095Y-45393333D01*
X88918095Y-45393333D02*
X88965714Y-45202857D01*
X88965714Y-45202857D02*
X89013333Y-45107619D01*
X89013333Y-45107619D02*
X89060952Y-45060000D01*
X89060952Y-45060000D02*
X89156190Y-45012380D01*
X89156190Y-45012380D02*
X89251428Y-45012380D01*
X89251428Y-45012380D02*
X89346666Y-45060000D01*
X89346666Y-45060000D02*
X89394285Y-45107619D01*
X89394285Y-45107619D02*
X89441904Y-45202857D01*
X89441904Y-45202857D02*
X89489523Y-45393333D01*
X89489523Y-45393333D02*
X89489523Y-45631428D01*
X89489523Y-45631428D02*
X89441904Y-45821904D01*
X89441904Y-45821904D02*
X89394285Y-45917142D01*
X89394285Y-45917142D02*
X89346666Y-45964761D01*
X89346666Y-45964761D02*
X89251428Y-46012380D01*
X147537380Y-39666667D02*
X148537380Y-39666667D01*
X148537380Y-39666667D02*
X148537380Y-40047619D01*
X148537380Y-40047619D02*
X148489761Y-40142857D01*
X148489761Y-40142857D02*
X148442142Y-40190476D01*
X148442142Y-40190476D02*
X148346904Y-40238095D01*
X148346904Y-40238095D02*
X148204047Y-40238095D01*
X148204047Y-40238095D02*
X148108809Y-40190476D01*
X148108809Y-40190476D02*
X148061190Y-40142857D01*
X148061190Y-40142857D02*
X148013571Y-40047619D01*
X148013571Y-40047619D02*
X148013571Y-39666667D01*
X147537380Y-40666667D02*
X148537380Y-40666667D01*
X148537380Y-40666667D02*
X147823095Y-41000000D01*
X147823095Y-41000000D02*
X148537380Y-41333333D01*
X148537380Y-41333333D02*
X147537380Y-41333333D01*
X148537380Y-42000000D02*
X148537380Y-42190476D01*
X148537380Y-42190476D02*
X148489761Y-42285714D01*
X148489761Y-42285714D02*
X148394523Y-42380952D01*
X148394523Y-42380952D02*
X148204047Y-42428571D01*
X148204047Y-42428571D02*
X147870714Y-42428571D01*
X147870714Y-42428571D02*
X147680238Y-42380952D01*
X147680238Y-42380952D02*
X147585000Y-42285714D01*
X147585000Y-42285714D02*
X147537380Y-42190476D01*
X147537380Y-42190476D02*
X147537380Y-42000000D01*
X147537380Y-42000000D02*
X147585000Y-41904762D01*
X147585000Y-41904762D02*
X147680238Y-41809524D01*
X147680238Y-41809524D02*
X147870714Y-41761905D01*
X147870714Y-41761905D02*
X148204047Y-41761905D01*
X148204047Y-41761905D02*
X148394523Y-41809524D01*
X148394523Y-41809524D02*
X148489761Y-41904762D01*
X148489761Y-41904762D02*
X148537380Y-42000000D01*
X147537380Y-42857143D02*
X148537380Y-42857143D01*
X148537380Y-42857143D02*
X148537380Y-43095238D01*
X148537380Y-43095238D02*
X148489761Y-43238095D01*
X148489761Y-43238095D02*
X148394523Y-43333333D01*
X148394523Y-43333333D02*
X148299285Y-43380952D01*
X148299285Y-43380952D02*
X148108809Y-43428571D01*
X148108809Y-43428571D02*
X147965952Y-43428571D01*
X147965952Y-43428571D02*
X147775476Y-43380952D01*
X147775476Y-43380952D02*
X147680238Y-43333333D01*
X147680238Y-43333333D02*
X147585000Y-43238095D01*
X147585000Y-43238095D02*
X147537380Y-43095238D01*
X147537380Y-43095238D02*
X147537380Y-42857143D01*
X148537380Y-44047619D02*
X148537380Y-44142857D01*
X148537380Y-44142857D02*
X148489761Y-44238095D01*
X148489761Y-44238095D02*
X148442142Y-44285714D01*
X148442142Y-44285714D02*
X148346904Y-44333333D01*
X148346904Y-44333333D02*
X148156428Y-44380952D01*
X148156428Y-44380952D02*
X147918333Y-44380952D01*
X147918333Y-44380952D02*
X147727857Y-44333333D01*
X147727857Y-44333333D02*
X147632619Y-44285714D01*
X147632619Y-44285714D02*
X147585000Y-44238095D01*
X147585000Y-44238095D02*
X147537380Y-44142857D01*
X147537380Y-44142857D02*
X147537380Y-44047619D01*
X147537380Y-44047619D02*
X147585000Y-43952381D01*
X147585000Y-43952381D02*
X147632619Y-43904762D01*
X147632619Y-43904762D02*
X147727857Y-43857143D01*
X147727857Y-43857143D02*
X147918333Y-43809524D01*
X147918333Y-43809524D02*
X148156428Y-43809524D01*
X148156428Y-43809524D02*
X148346904Y-43857143D01*
X148346904Y-43857143D02*
X148442142Y-43904762D01*
X148442142Y-43904762D02*
X148489761Y-43952381D01*
X148489761Y-43952381D02*
X148537380Y-44047619D01*
X141289523Y-46012380D02*
X140622857Y-46012380D01*
X140622857Y-46012380D02*
X141051428Y-45012380D01*
X139813333Y-45679047D02*
X139813333Y-45012380D01*
X140051428Y-46060000D02*
X140289523Y-45345714D01*
X140289523Y-45345714D02*
X139670476Y-45345714D01*
X132968809Y-48915995D02*
X133016428Y-48820757D01*
X133016428Y-48820757D02*
X133064047Y-48773138D01*
X133064047Y-48773138D02*
X133159285Y-48725519D01*
X133159285Y-48725519D02*
X133206904Y-48725519D01*
X133206904Y-48725519D02*
X133302142Y-48773138D01*
X133302142Y-48773138D02*
X133349761Y-48820757D01*
X133349761Y-48820757D02*
X133397380Y-48915995D01*
X133397380Y-48915995D02*
X133397380Y-49106471D01*
X133397380Y-49106471D02*
X133349761Y-49201709D01*
X133349761Y-49201709D02*
X133302142Y-49249328D01*
X133302142Y-49249328D02*
X133206904Y-49296947D01*
X133206904Y-49296947D02*
X133159285Y-49296947D01*
X133159285Y-49296947D02*
X133064047Y-49249328D01*
X133064047Y-49249328D02*
X133016428Y-49201709D01*
X133016428Y-49201709D02*
X132968809Y-49106471D01*
X132968809Y-49106471D02*
X132968809Y-48915995D01*
X132968809Y-48915995D02*
X132921190Y-48820757D01*
X132921190Y-48820757D02*
X132873571Y-48773138D01*
X132873571Y-48773138D02*
X132778333Y-48725519D01*
X132778333Y-48725519D02*
X132587857Y-48725519D01*
X132587857Y-48725519D02*
X132492619Y-48773138D01*
X132492619Y-48773138D02*
X132445000Y-48820757D01*
X132445000Y-48820757D02*
X132397380Y-48915995D01*
X132397380Y-48915995D02*
X132397380Y-49106471D01*
X132397380Y-49106471D02*
X132445000Y-49201709D01*
X132445000Y-49201709D02*
X132492619Y-49249328D01*
X132492619Y-49249328D02*
X132587857Y-49296947D01*
X132587857Y-49296947D02*
X132778333Y-49296947D01*
X132778333Y-49296947D02*
X132873571Y-49249328D01*
X132873571Y-49249328D02*
X132921190Y-49201709D01*
X132921190Y-49201709D02*
X132968809Y-49106471D01*
X133397380Y-50201709D02*
X133397380Y-49725519D01*
X133397380Y-49725519D02*
X132921190Y-49677900D01*
X132921190Y-49677900D02*
X132968809Y-49725519D01*
X132968809Y-49725519D02*
X133016428Y-49820757D01*
X133016428Y-49820757D02*
X133016428Y-50058852D01*
X133016428Y-50058852D02*
X132968809Y-50154090D01*
X132968809Y-50154090D02*
X132921190Y-50201709D01*
X132921190Y-50201709D02*
X132825952Y-50249328D01*
X132825952Y-50249328D02*
X132587857Y-50249328D01*
X132587857Y-50249328D02*
X132492619Y-50201709D01*
X132492619Y-50201709D02*
X132445000Y-50154090D01*
X132445000Y-50154090D02*
X132397380Y-50058852D01*
X132397380Y-50058852D02*
X132397380Y-49820757D01*
X132397380Y-49820757D02*
X132445000Y-49725519D01*
X132445000Y-49725519D02*
X132492619Y-49677900D01*
X138749523Y-44107380D02*
X138082857Y-44107380D01*
X138082857Y-44107380D02*
X138511428Y-43107380D01*
X137225714Y-44107380D02*
X137701904Y-44107380D01*
X137701904Y-44107380D02*
X137749523Y-43631190D01*
X137749523Y-43631190D02*
X137701904Y-43678809D01*
X137701904Y-43678809D02*
X137606666Y-43726428D01*
X137606666Y-43726428D02*
X137368571Y-43726428D01*
X137368571Y-43726428D02*
X137273333Y-43678809D01*
X137273333Y-43678809D02*
X137225714Y-43631190D01*
X137225714Y-43631190D02*
X137178095Y-43535952D01*
X137178095Y-43535952D02*
X137178095Y-43297857D01*
X137178095Y-43297857D02*
X137225714Y-43202619D01*
X137225714Y-43202619D02*
X137273333Y-43155000D01*
X137273333Y-43155000D02*
X137368571Y-43107380D01*
X137368571Y-43107380D02*
X137606666Y-43107380D01*
X137606666Y-43107380D02*
X137701904Y-43155000D01*
X137701904Y-43155000D02*
X137749523Y-43202619D01*
X127317380Y-49296947D02*
X127317380Y-48725519D01*
X127317380Y-49011233D02*
X128317380Y-49011233D01*
X128317380Y-49011233D02*
X128174523Y-48915995D01*
X128174523Y-48915995D02*
X128079285Y-48820757D01*
X128079285Y-48820757D02*
X128031666Y-48725519D01*
X128317380Y-50201709D02*
X128317380Y-49725519D01*
X128317380Y-49725519D02*
X127841190Y-49677900D01*
X127841190Y-49677900D02*
X127888809Y-49725519D01*
X127888809Y-49725519D02*
X127936428Y-49820757D01*
X127936428Y-49820757D02*
X127936428Y-50058852D01*
X127936428Y-50058852D02*
X127888809Y-50154090D01*
X127888809Y-50154090D02*
X127841190Y-50201709D01*
X127841190Y-50201709D02*
X127745952Y-50249328D01*
X127745952Y-50249328D02*
X127507857Y-50249328D01*
X127507857Y-50249328D02*
X127412619Y-50201709D01*
X127412619Y-50201709D02*
X127365000Y-50154090D01*
X127365000Y-50154090D02*
X127317380Y-50058852D01*
X127317380Y-50058852D02*
X127317380Y-49820757D01*
X127317380Y-49820757D02*
X127365000Y-49725519D01*
X127365000Y-49725519D02*
X127412619Y-49677900D01*
X140398333Y-99748095D02*
X140398333Y-100510000D01*
X140017380Y-100129047D02*
X140779285Y-100129047D01*
X141017380Y-101462380D02*
X141017380Y-100986190D01*
X141017380Y-100986190D02*
X140541190Y-100938571D01*
X140541190Y-100938571D02*
X140588809Y-100986190D01*
X140588809Y-100986190D02*
X140636428Y-101081428D01*
X140636428Y-101081428D02*
X140636428Y-101319523D01*
X140636428Y-101319523D02*
X140588809Y-101414761D01*
X140588809Y-101414761D02*
X140541190Y-101462380D01*
X140541190Y-101462380D02*
X140445952Y-101509999D01*
X140445952Y-101509999D02*
X140207857Y-101509999D01*
X140207857Y-101509999D02*
X140112619Y-101462380D01*
X140112619Y-101462380D02*
X140065000Y-101414761D01*
X140065000Y-101414761D02*
X140017380Y-101319523D01*
X140017380Y-101319523D02*
X140017380Y-101081428D01*
X140017380Y-101081428D02*
X140065000Y-100986190D01*
X140065000Y-100986190D02*
X140112619Y-100938571D01*
X141017380Y-101795714D02*
X140017380Y-102129047D01*
X140017380Y-102129047D02*
X141017380Y-102462380D01*
X115270476Y-43107380D02*
X115841904Y-43107380D01*
X115556190Y-43107380D02*
X115556190Y-44107380D01*
X115556190Y-44107380D02*
X115651428Y-43964523D01*
X115651428Y-43964523D02*
X115746666Y-43869285D01*
X115746666Y-43869285D02*
X115841904Y-43821666D01*
X114413333Y-44107380D02*
X114603809Y-44107380D01*
X114603809Y-44107380D02*
X114699047Y-44059761D01*
X114699047Y-44059761D02*
X114746666Y-44012142D01*
X114746666Y-44012142D02*
X114841904Y-43869285D01*
X114841904Y-43869285D02*
X114889523Y-43678809D01*
X114889523Y-43678809D02*
X114889523Y-43297857D01*
X114889523Y-43297857D02*
X114841904Y-43202619D01*
X114841904Y-43202619D02*
X114794285Y-43155000D01*
X114794285Y-43155000D02*
X114699047Y-43107380D01*
X114699047Y-43107380D02*
X114508571Y-43107380D01*
X114508571Y-43107380D02*
X114413333Y-43155000D01*
X114413333Y-43155000D02*
X114365714Y-43202619D01*
X114365714Y-43202619D02*
X114318095Y-43297857D01*
X114318095Y-43297857D02*
X114318095Y-43535952D01*
X114318095Y-43535952D02*
X114365714Y-43631190D01*
X114365714Y-43631190D02*
X114413333Y-43678809D01*
X114413333Y-43678809D02*
X114508571Y-43726428D01*
X114508571Y-43726428D02*
X114699047Y-43726428D01*
X114699047Y-43726428D02*
X114794285Y-43678809D01*
X114794285Y-43678809D02*
X114841904Y-43631190D01*
X114841904Y-43631190D02*
X114889523Y-43535952D01*
X118062142Y-48725519D02*
X118109761Y-48773138D01*
X118109761Y-48773138D02*
X118157380Y-48868376D01*
X118157380Y-48868376D02*
X118157380Y-49106471D01*
X118157380Y-49106471D02*
X118109761Y-49201709D01*
X118109761Y-49201709D02*
X118062142Y-49249328D01*
X118062142Y-49249328D02*
X117966904Y-49296947D01*
X117966904Y-49296947D02*
X117871666Y-49296947D01*
X117871666Y-49296947D02*
X117728809Y-49249328D01*
X117728809Y-49249328D02*
X117157380Y-48677900D01*
X117157380Y-48677900D02*
X117157380Y-49296947D01*
X118157380Y-50154090D02*
X118157380Y-49963614D01*
X118157380Y-49963614D02*
X118109761Y-49868376D01*
X118109761Y-49868376D02*
X118062142Y-49820757D01*
X118062142Y-49820757D02*
X117919285Y-49725519D01*
X117919285Y-49725519D02*
X117728809Y-49677900D01*
X117728809Y-49677900D02*
X117347857Y-49677900D01*
X117347857Y-49677900D02*
X117252619Y-49725519D01*
X117252619Y-49725519D02*
X117205000Y-49773138D01*
X117205000Y-49773138D02*
X117157380Y-49868376D01*
X117157380Y-49868376D02*
X117157380Y-50058852D01*
X117157380Y-50058852D02*
X117205000Y-50154090D01*
X117205000Y-50154090D02*
X117252619Y-50201709D01*
X117252619Y-50201709D02*
X117347857Y-50249328D01*
X117347857Y-50249328D02*
X117585952Y-50249328D01*
X117585952Y-50249328D02*
X117681190Y-50201709D01*
X117681190Y-50201709D02*
X117728809Y-50154090D01*
X117728809Y-50154090D02*
X117776428Y-50058852D01*
X117776428Y-50058852D02*
X117776428Y-49868376D01*
X117776428Y-49868376D02*
X117728809Y-49773138D01*
X117728809Y-49773138D02*
X117681190Y-49725519D01*
X117681190Y-49725519D02*
X117585952Y-49677900D01*
X92757380Y-93179285D02*
X92757380Y-92703095D01*
X92757380Y-92703095D02*
X92281190Y-92655476D01*
X92281190Y-92655476D02*
X92328809Y-92703095D01*
X92328809Y-92703095D02*
X92376428Y-92798333D01*
X92376428Y-92798333D02*
X92376428Y-93036428D01*
X92376428Y-93036428D02*
X92328809Y-93131666D01*
X92328809Y-93131666D02*
X92281190Y-93179285D01*
X92281190Y-93179285D02*
X92185952Y-93226904D01*
X92185952Y-93226904D02*
X91947857Y-93226904D01*
X91947857Y-93226904D02*
X91852619Y-93179285D01*
X91852619Y-93179285D02*
X91805000Y-93131666D01*
X91805000Y-93131666D02*
X91757380Y-93036428D01*
X91757380Y-93036428D02*
X91757380Y-92798333D01*
X91757380Y-92798333D02*
X91805000Y-92703095D01*
X91805000Y-92703095D02*
X91852619Y-92655476D01*
X92662142Y-93607857D02*
X92709761Y-93655476D01*
X92709761Y-93655476D02*
X92757380Y-93750714D01*
X92757380Y-93750714D02*
X92757380Y-93988809D01*
X92757380Y-93988809D02*
X92709761Y-94084047D01*
X92709761Y-94084047D02*
X92662142Y-94131666D01*
X92662142Y-94131666D02*
X92566904Y-94179285D01*
X92566904Y-94179285D02*
X92471666Y-94179285D01*
X92471666Y-94179285D02*
X92328809Y-94131666D01*
X92328809Y-94131666D02*
X91757380Y-93560238D01*
X91757380Y-93560238D02*
X91757380Y-94179285D01*
X146097380Y-43046310D02*
X146097380Y-43665357D01*
X146097380Y-43665357D02*
X145716428Y-43332024D01*
X145716428Y-43332024D02*
X145716428Y-43474881D01*
X145716428Y-43474881D02*
X145668809Y-43570119D01*
X145668809Y-43570119D02*
X145621190Y-43617738D01*
X145621190Y-43617738D02*
X145525952Y-43665357D01*
X145525952Y-43665357D02*
X145287857Y-43665357D01*
X145287857Y-43665357D02*
X145192619Y-43617738D01*
X145192619Y-43617738D02*
X145145000Y-43570119D01*
X145145000Y-43570119D02*
X145097380Y-43474881D01*
X145097380Y-43474881D02*
X145097380Y-43189167D01*
X145097380Y-43189167D02*
X145145000Y-43093929D01*
X145145000Y-43093929D02*
X145192619Y-43046310D01*
X145192619Y-44093929D02*
X145145000Y-44141548D01*
X145145000Y-44141548D02*
X145097380Y-44093929D01*
X145097380Y-44093929D02*
X145145000Y-44046310D01*
X145145000Y-44046310D02*
X145192619Y-44093929D01*
X145192619Y-44093929D02*
X145097380Y-44093929D01*
X146097380Y-44474881D02*
X146097380Y-45093928D01*
X146097380Y-45093928D02*
X145716428Y-44760595D01*
X145716428Y-44760595D02*
X145716428Y-44903452D01*
X145716428Y-44903452D02*
X145668809Y-44998690D01*
X145668809Y-44998690D02*
X145621190Y-45046309D01*
X145621190Y-45046309D02*
X145525952Y-45093928D01*
X145525952Y-45093928D02*
X145287857Y-45093928D01*
X145287857Y-45093928D02*
X145192619Y-45046309D01*
X145192619Y-45046309D02*
X145145000Y-44998690D01*
X145145000Y-44998690D02*
X145097380Y-44903452D01*
X145097380Y-44903452D02*
X145097380Y-44617738D01*
X145097380Y-44617738D02*
X145145000Y-44522500D01*
X145145000Y-44522500D02*
X145192619Y-44474881D01*
X146097380Y-45379643D02*
X145097380Y-45712976D01*
X145097380Y-45712976D02*
X146097380Y-46046309D01*
X143509761Y-43760595D02*
X143557380Y-43665357D01*
X143557380Y-43665357D02*
X143557380Y-43522500D01*
X143557380Y-43522500D02*
X143509761Y-43379643D01*
X143509761Y-43379643D02*
X143414523Y-43284405D01*
X143414523Y-43284405D02*
X143319285Y-43236786D01*
X143319285Y-43236786D02*
X143128809Y-43189167D01*
X143128809Y-43189167D02*
X142985952Y-43189167D01*
X142985952Y-43189167D02*
X142795476Y-43236786D01*
X142795476Y-43236786D02*
X142700238Y-43284405D01*
X142700238Y-43284405D02*
X142605000Y-43379643D01*
X142605000Y-43379643D02*
X142557380Y-43522500D01*
X142557380Y-43522500D02*
X142557380Y-43617738D01*
X142557380Y-43617738D02*
X142605000Y-43760595D01*
X142605000Y-43760595D02*
X142652619Y-43808214D01*
X142652619Y-43808214D02*
X142985952Y-43808214D01*
X142985952Y-43808214D02*
X142985952Y-43617738D01*
X142557380Y-44236786D02*
X143557380Y-44236786D01*
X143557380Y-44236786D02*
X142557380Y-44808214D01*
X142557380Y-44808214D02*
X143557380Y-44808214D01*
X142557380Y-45284405D02*
X143557380Y-45284405D01*
X143557380Y-45284405D02*
X143557380Y-45522500D01*
X143557380Y-45522500D02*
X143509761Y-45665357D01*
X143509761Y-45665357D02*
X143414523Y-45760595D01*
X143414523Y-45760595D02*
X143319285Y-45808214D01*
X143319285Y-45808214D02*
X143128809Y-45855833D01*
X143128809Y-45855833D02*
X142985952Y-45855833D01*
X142985952Y-45855833D02*
X142795476Y-45808214D01*
X142795476Y-45808214D02*
X142700238Y-45760595D01*
X142700238Y-45760595D02*
X142605000Y-45665357D01*
X142605000Y-45665357D02*
X142557380Y-45522500D01*
X142557380Y-45522500D02*
X142557380Y-45284405D01*
X93029523Y-46012380D02*
X92410476Y-46012380D01*
X92410476Y-46012380D02*
X92743809Y-45631428D01*
X92743809Y-45631428D02*
X92600952Y-45631428D01*
X92600952Y-45631428D02*
X92505714Y-45583809D01*
X92505714Y-45583809D02*
X92458095Y-45536190D01*
X92458095Y-45536190D02*
X92410476Y-45440952D01*
X92410476Y-45440952D02*
X92410476Y-45202857D01*
X92410476Y-45202857D02*
X92458095Y-45107619D01*
X92458095Y-45107619D02*
X92505714Y-45060000D01*
X92505714Y-45060000D02*
X92600952Y-45012380D01*
X92600952Y-45012380D02*
X92886666Y-45012380D01*
X92886666Y-45012380D02*
X92981904Y-45060000D01*
X92981904Y-45060000D02*
X93029523Y-45107619D01*
X91458095Y-45012380D02*
X92029523Y-45012380D01*
X91743809Y-45012380D02*
X91743809Y-46012380D01*
X91743809Y-46012380D02*
X91839047Y-45869523D01*
X91839047Y-45869523D02*
X91934285Y-45774285D01*
X91934285Y-45774285D02*
X92029523Y-45726666D01*
X102298333Y-99748095D02*
X102298333Y-100510000D01*
X101917380Y-100129047D02*
X102679285Y-100129047D01*
X102917380Y-100890952D02*
X102917380Y-101509999D01*
X102917380Y-101509999D02*
X102536428Y-101176666D01*
X102536428Y-101176666D02*
X102536428Y-101319523D01*
X102536428Y-101319523D02*
X102488809Y-101414761D01*
X102488809Y-101414761D02*
X102441190Y-101462380D01*
X102441190Y-101462380D02*
X102345952Y-101509999D01*
X102345952Y-101509999D02*
X102107857Y-101509999D01*
X102107857Y-101509999D02*
X102012619Y-101462380D01*
X102012619Y-101462380D02*
X101965000Y-101414761D01*
X101965000Y-101414761D02*
X101917380Y-101319523D01*
X101917380Y-101319523D02*
X101917380Y-101033809D01*
X101917380Y-101033809D02*
X101965000Y-100938571D01*
X101965000Y-100938571D02*
X102012619Y-100890952D01*
X102012619Y-101938571D02*
X101965000Y-101986190D01*
X101965000Y-101986190D02*
X101917380Y-101938571D01*
X101917380Y-101938571D02*
X101965000Y-101890952D01*
X101965000Y-101890952D02*
X102012619Y-101938571D01*
X102012619Y-101938571D02*
X101917380Y-101938571D01*
X102917380Y-102319523D02*
X102917380Y-102938570D01*
X102917380Y-102938570D02*
X102536428Y-102605237D01*
X102536428Y-102605237D02*
X102536428Y-102748094D01*
X102536428Y-102748094D02*
X102488809Y-102843332D01*
X102488809Y-102843332D02*
X102441190Y-102890951D01*
X102441190Y-102890951D02*
X102345952Y-102938570D01*
X102345952Y-102938570D02*
X102107857Y-102938570D01*
X102107857Y-102938570D02*
X102012619Y-102890951D01*
X102012619Y-102890951D02*
X101965000Y-102843332D01*
X101965000Y-102843332D02*
X101917380Y-102748094D01*
X101917380Y-102748094D02*
X101917380Y-102462380D01*
X101917380Y-102462380D02*
X101965000Y-102367142D01*
X101965000Y-102367142D02*
X102012619Y-102319523D01*
X102917380Y-103224285D02*
X101917380Y-103557618D01*
X101917380Y-103557618D02*
X102917380Y-103890951D01*
X110537139Y-48666095D02*
X110537139Y-49285142D01*
X110537139Y-49285142D02*
X110156187Y-48951809D01*
X110156187Y-48951809D02*
X110156187Y-49094666D01*
X110156187Y-49094666D02*
X110108568Y-49189904D01*
X110108568Y-49189904D02*
X110060949Y-49237523D01*
X110060949Y-49237523D02*
X109965711Y-49285142D01*
X109965711Y-49285142D02*
X109727616Y-49285142D01*
X109727616Y-49285142D02*
X109632378Y-49237523D01*
X109632378Y-49237523D02*
X109584759Y-49189904D01*
X109584759Y-49189904D02*
X109537139Y-49094666D01*
X109537139Y-49094666D02*
X109537139Y-48808952D01*
X109537139Y-48808952D02*
X109584759Y-48713714D01*
X109584759Y-48713714D02*
X109632378Y-48666095D01*
X110537139Y-49904190D02*
X110537139Y-49999428D01*
X110537139Y-49999428D02*
X110489520Y-50094666D01*
X110489520Y-50094666D02*
X110441901Y-50142285D01*
X110441901Y-50142285D02*
X110346663Y-50189904D01*
X110346663Y-50189904D02*
X110156187Y-50237523D01*
X110156187Y-50237523D02*
X109918092Y-50237523D01*
X109918092Y-50237523D02*
X109727616Y-50189904D01*
X109727616Y-50189904D02*
X109632378Y-50142285D01*
X109632378Y-50142285D02*
X109584759Y-50094666D01*
X109584759Y-50094666D02*
X109537139Y-49999428D01*
X109537139Y-49999428D02*
X109537139Y-49904190D01*
X109537139Y-49904190D02*
X109584759Y-49808952D01*
X109584759Y-49808952D02*
X109632378Y-49761333D01*
X109632378Y-49761333D02*
X109727616Y-49713714D01*
X109727616Y-49713714D02*
X109918092Y-49666095D01*
X109918092Y-49666095D02*
X110156187Y-49666095D01*
X110156187Y-49666095D02*
X110346663Y-49713714D01*
X110346663Y-49713714D02*
X110441901Y-49761333D01*
X110441901Y-49761333D02*
X110489520Y-49808952D01*
X110489520Y-49808952D02*
X110537139Y-49904190D01*
X123237380Y-43046310D02*
X123237380Y-43665357D01*
X123237380Y-43665357D02*
X122856428Y-43332024D01*
X122856428Y-43332024D02*
X122856428Y-43474881D01*
X122856428Y-43474881D02*
X122808809Y-43570119D01*
X122808809Y-43570119D02*
X122761190Y-43617738D01*
X122761190Y-43617738D02*
X122665952Y-43665357D01*
X122665952Y-43665357D02*
X122427857Y-43665357D01*
X122427857Y-43665357D02*
X122332619Y-43617738D01*
X122332619Y-43617738D02*
X122285000Y-43570119D01*
X122285000Y-43570119D02*
X122237380Y-43474881D01*
X122237380Y-43474881D02*
X122237380Y-43189167D01*
X122237380Y-43189167D02*
X122285000Y-43093929D01*
X122285000Y-43093929D02*
X122332619Y-43046310D01*
X122332619Y-44093929D02*
X122285000Y-44141548D01*
X122285000Y-44141548D02*
X122237380Y-44093929D01*
X122237380Y-44093929D02*
X122285000Y-44046310D01*
X122285000Y-44046310D02*
X122332619Y-44093929D01*
X122332619Y-44093929D02*
X122237380Y-44093929D01*
X123237380Y-44474881D02*
X123237380Y-45093928D01*
X123237380Y-45093928D02*
X122856428Y-44760595D01*
X122856428Y-44760595D02*
X122856428Y-44903452D01*
X122856428Y-44903452D02*
X122808809Y-44998690D01*
X122808809Y-44998690D02*
X122761190Y-45046309D01*
X122761190Y-45046309D02*
X122665952Y-45093928D01*
X122665952Y-45093928D02*
X122427857Y-45093928D01*
X122427857Y-45093928D02*
X122332619Y-45046309D01*
X122332619Y-45046309D02*
X122285000Y-44998690D01*
X122285000Y-44998690D02*
X122237380Y-44903452D01*
X122237380Y-44903452D02*
X122237380Y-44617738D01*
X122237380Y-44617738D02*
X122285000Y-44522500D01*
X122285000Y-44522500D02*
X122332619Y-44474881D01*
X123237380Y-45379643D02*
X122237380Y-45712976D01*
X122237380Y-45712976D02*
X123237380Y-46046309D01*
X113301904Y-45917142D02*
X113254285Y-45964761D01*
X113254285Y-45964761D02*
X113159047Y-46012380D01*
X113159047Y-46012380D02*
X112920952Y-46012380D01*
X112920952Y-46012380D02*
X112825714Y-45964761D01*
X112825714Y-45964761D02*
X112778095Y-45917142D01*
X112778095Y-45917142D02*
X112730476Y-45821904D01*
X112730476Y-45821904D02*
X112730476Y-45726666D01*
X112730476Y-45726666D02*
X112778095Y-45583809D01*
X112778095Y-45583809D02*
X113349523Y-45012380D01*
X113349523Y-45012380D02*
X112730476Y-45012380D01*
X111873333Y-46012380D02*
X112063809Y-46012380D01*
X112063809Y-46012380D02*
X112159047Y-45964761D01*
X112159047Y-45964761D02*
X112206666Y-45917142D01*
X112206666Y-45917142D02*
X112301904Y-45774285D01*
X112301904Y-45774285D02*
X112349523Y-45583809D01*
X112349523Y-45583809D02*
X112349523Y-45202857D01*
X112349523Y-45202857D02*
X112301904Y-45107619D01*
X112301904Y-45107619D02*
X112254285Y-45060000D01*
X112254285Y-45060000D02*
X112159047Y-45012380D01*
X112159047Y-45012380D02*
X111968571Y-45012380D01*
X111968571Y-45012380D02*
X111873333Y-45060000D01*
X111873333Y-45060000D02*
X111825714Y-45107619D01*
X111825714Y-45107619D02*
X111778095Y-45202857D01*
X111778095Y-45202857D02*
X111778095Y-45440952D01*
X111778095Y-45440952D02*
X111825714Y-45536190D01*
X111825714Y-45536190D02*
X111873333Y-45583809D01*
X111873333Y-45583809D02*
X111968571Y-45631428D01*
X111968571Y-45631428D02*
X112159047Y-45631428D01*
X112159047Y-45631428D02*
X112254285Y-45583809D01*
X112254285Y-45583809D02*
X112301904Y-45536190D01*
X112301904Y-45536190D02*
X112349523Y-45440952D01*
X133669523Y-44107380D02*
X133002857Y-44107380D01*
X133002857Y-44107380D02*
X133431428Y-43107380D01*
X132669523Y-44012142D02*
X132621904Y-44059761D01*
X132621904Y-44059761D02*
X132526666Y-44107380D01*
X132526666Y-44107380D02*
X132288571Y-44107380D01*
X132288571Y-44107380D02*
X132193333Y-44059761D01*
X132193333Y-44059761D02*
X132145714Y-44012142D01*
X132145714Y-44012142D02*
X132098095Y-43916904D01*
X132098095Y-43916904D02*
X132098095Y-43821666D01*
X132098095Y-43821666D02*
X132145714Y-43678809D01*
X132145714Y-43678809D02*
X132717142Y-43107380D01*
X132717142Y-43107380D02*
X132098095Y-43107380D01*
X105409761Y-100846904D02*
X105457380Y-100751666D01*
X105457380Y-100751666D02*
X105457380Y-100608809D01*
X105457380Y-100608809D02*
X105409761Y-100465952D01*
X105409761Y-100465952D02*
X105314523Y-100370714D01*
X105314523Y-100370714D02*
X105219285Y-100323095D01*
X105219285Y-100323095D02*
X105028809Y-100275476D01*
X105028809Y-100275476D02*
X104885952Y-100275476D01*
X104885952Y-100275476D02*
X104695476Y-100323095D01*
X104695476Y-100323095D02*
X104600238Y-100370714D01*
X104600238Y-100370714D02*
X104505000Y-100465952D01*
X104505000Y-100465952D02*
X104457380Y-100608809D01*
X104457380Y-100608809D02*
X104457380Y-100704047D01*
X104457380Y-100704047D02*
X104505000Y-100846904D01*
X104505000Y-100846904D02*
X104552619Y-100894523D01*
X104552619Y-100894523D02*
X104885952Y-100894523D01*
X104885952Y-100894523D02*
X104885952Y-100704047D01*
X104457380Y-101323095D02*
X105457380Y-101323095D01*
X105457380Y-101323095D02*
X104457380Y-101894523D01*
X104457380Y-101894523D02*
X105457380Y-101894523D01*
X104457380Y-102370714D02*
X105457380Y-102370714D01*
X105457380Y-102370714D02*
X105457380Y-102608809D01*
X105457380Y-102608809D02*
X105409761Y-102751666D01*
X105409761Y-102751666D02*
X105314523Y-102846904D01*
X105314523Y-102846904D02*
X105219285Y-102894523D01*
X105219285Y-102894523D02*
X105028809Y-102942142D01*
X105028809Y-102942142D02*
X104885952Y-102942142D01*
X104885952Y-102942142D02*
X104695476Y-102894523D01*
X104695476Y-102894523D02*
X104600238Y-102846904D01*
X104600238Y-102846904D02*
X104505000Y-102751666D01*
X104505000Y-102751666D02*
X104457380Y-102608809D01*
X104457380Y-102608809D02*
X104457380Y-102370714D01*
X123142142Y-48725519D02*
X123189761Y-48773138D01*
X123189761Y-48773138D02*
X123237380Y-48868376D01*
X123237380Y-48868376D02*
X123237380Y-49106471D01*
X123237380Y-49106471D02*
X123189761Y-49201709D01*
X123189761Y-49201709D02*
X123142142Y-49249328D01*
X123142142Y-49249328D02*
X123046904Y-49296947D01*
X123046904Y-49296947D02*
X122951666Y-49296947D01*
X122951666Y-49296947D02*
X122808809Y-49249328D01*
X122808809Y-49249328D02*
X122237380Y-48677900D01*
X122237380Y-48677900D02*
X122237380Y-49296947D01*
X123237380Y-49630281D02*
X123237380Y-50296947D01*
X123237380Y-50296947D02*
X122237380Y-49868376D01*
X94678333Y-46666095D02*
X94678333Y-47428000D01*
X94297380Y-47047047D02*
X95059285Y-47047047D01*
X95297380Y-47808952D02*
X95297380Y-48427999D01*
X95297380Y-48427999D02*
X94916428Y-48094666D01*
X94916428Y-48094666D02*
X94916428Y-48237523D01*
X94916428Y-48237523D02*
X94868809Y-48332761D01*
X94868809Y-48332761D02*
X94821190Y-48380380D01*
X94821190Y-48380380D02*
X94725952Y-48427999D01*
X94725952Y-48427999D02*
X94487857Y-48427999D01*
X94487857Y-48427999D02*
X94392619Y-48380380D01*
X94392619Y-48380380D02*
X94345000Y-48332761D01*
X94345000Y-48332761D02*
X94297380Y-48237523D01*
X94297380Y-48237523D02*
X94297380Y-47951809D01*
X94297380Y-47951809D02*
X94345000Y-47856571D01*
X94345000Y-47856571D02*
X94392619Y-47808952D01*
X95297380Y-48713714D02*
X94297380Y-49047047D01*
X94297380Y-49047047D02*
X95297380Y-49380380D01*
X95297380Y-49618476D02*
X95297380Y-50237523D01*
X95297380Y-50237523D02*
X94916428Y-49904190D01*
X94916428Y-49904190D02*
X94916428Y-50047047D01*
X94916428Y-50047047D02*
X94868809Y-50142285D01*
X94868809Y-50142285D02*
X94821190Y-50189904D01*
X94821190Y-50189904D02*
X94725952Y-50237523D01*
X94725952Y-50237523D02*
X94487857Y-50237523D01*
X94487857Y-50237523D02*
X94392619Y-50189904D01*
X94392619Y-50189904D02*
X94345000Y-50142285D01*
X94345000Y-50142285D02*
X94297380Y-50047047D01*
X94297380Y-50047047D02*
X94297380Y-49761333D01*
X94297380Y-49761333D02*
X94345000Y-49666095D01*
X94345000Y-49666095D02*
X94392619Y-49618476D01*
X110761904Y-45917142D02*
X110714285Y-45964761D01*
X110714285Y-45964761D02*
X110619047Y-46012380D01*
X110619047Y-46012380D02*
X110380952Y-46012380D01*
X110380952Y-46012380D02*
X110285714Y-45964761D01*
X110285714Y-45964761D02*
X110238095Y-45917142D01*
X110238095Y-45917142D02*
X110190476Y-45821904D01*
X110190476Y-45821904D02*
X110190476Y-45726666D01*
X110190476Y-45726666D02*
X110238095Y-45583809D01*
X110238095Y-45583809D02*
X110809523Y-45012380D01*
X110809523Y-45012380D02*
X110190476Y-45012380D01*
X109285714Y-46012380D02*
X109761904Y-46012380D01*
X109761904Y-46012380D02*
X109809523Y-45536190D01*
X109809523Y-45536190D02*
X109761904Y-45583809D01*
X109761904Y-45583809D02*
X109666666Y-45631428D01*
X109666666Y-45631428D02*
X109428571Y-45631428D01*
X109428571Y-45631428D02*
X109333333Y-45583809D01*
X109333333Y-45583809D02*
X109285714Y-45536190D01*
X109285714Y-45536190D02*
X109238095Y-45440952D01*
X109238095Y-45440952D02*
X109238095Y-45202857D01*
X109238095Y-45202857D02*
X109285714Y-45107619D01*
X109285714Y-45107619D02*
X109333333Y-45060000D01*
X109333333Y-45060000D02*
X109428571Y-45012380D01*
X109428571Y-45012380D02*
X109666666Y-45012380D01*
X109666666Y-45012380D02*
X109761904Y-45060000D01*
X109761904Y-45060000D02*
X109809523Y-45107619D01*
X107997380Y-48666095D02*
X107997380Y-49285142D01*
X107997380Y-49285142D02*
X107616428Y-48951809D01*
X107616428Y-48951809D02*
X107616428Y-49094666D01*
X107616428Y-49094666D02*
X107568809Y-49189904D01*
X107568809Y-49189904D02*
X107521190Y-49237523D01*
X107521190Y-49237523D02*
X107425952Y-49285142D01*
X107425952Y-49285142D02*
X107187857Y-49285142D01*
X107187857Y-49285142D02*
X107092619Y-49237523D01*
X107092619Y-49237523D02*
X107045000Y-49189904D01*
X107045000Y-49189904D02*
X106997380Y-49094666D01*
X106997380Y-49094666D02*
X106997380Y-48808952D01*
X106997380Y-48808952D02*
X107045000Y-48713714D01*
X107045000Y-48713714D02*
X107092619Y-48666095D01*
X106997380Y-50237523D02*
X106997380Y-49666095D01*
X106997380Y-49951809D02*
X107997380Y-49951809D01*
X107997380Y-49951809D02*
X107854523Y-49856571D01*
X107854523Y-49856571D02*
X107759285Y-49761333D01*
X107759285Y-49761333D02*
X107711666Y-49666095D01*
X124762041Y-49285142D02*
X124762041Y-48713714D01*
X124762041Y-48999428D02*
X125762041Y-48999428D01*
X125762041Y-48999428D02*
X125619184Y-48904190D01*
X125619184Y-48904190D02*
X125523946Y-48808952D01*
X125523946Y-48808952D02*
X125476327Y-48713714D01*
X125762041Y-50142285D02*
X125762041Y-49951809D01*
X125762041Y-49951809D02*
X125714422Y-49856571D01*
X125714422Y-49856571D02*
X125666803Y-49808952D01*
X125666803Y-49808952D02*
X125523946Y-49713714D01*
X125523946Y-49713714D02*
X125333470Y-49666095D01*
X125333470Y-49666095D02*
X124952518Y-49666095D01*
X124952518Y-49666095D02*
X124857280Y-49713714D01*
X124857280Y-49713714D02*
X124809661Y-49761333D01*
X124809661Y-49761333D02*
X124762041Y-49856571D01*
X124762041Y-49856571D02*
X124762041Y-50047047D01*
X124762041Y-50047047D02*
X124809661Y-50142285D01*
X124809661Y-50142285D02*
X124857280Y-50189904D01*
X124857280Y-50189904D02*
X124952518Y-50237523D01*
X124952518Y-50237523D02*
X125190613Y-50237523D01*
X125190613Y-50237523D02*
X125285851Y-50189904D01*
X125285851Y-50189904D02*
X125333470Y-50142285D01*
X125333470Y-50142285D02*
X125381089Y-50047047D01*
X125381089Y-50047047D02*
X125381089Y-49856571D01*
X125381089Y-49856571D02*
X125333470Y-49761333D01*
X125333470Y-49761333D02*
X125285851Y-49713714D01*
X125285851Y-49713714D02*
X125190613Y-49666095D01*
X99377380Y-49285142D02*
X99377380Y-48713714D01*
X99377380Y-48999428D02*
X100377380Y-48999428D01*
X100377380Y-48999428D02*
X100234523Y-48904190D01*
X100234523Y-48904190D02*
X100139285Y-48808952D01*
X100139285Y-48808952D02*
X100091666Y-48713714D01*
X99377380Y-49761333D02*
X99377380Y-49951809D01*
X99377380Y-49951809D02*
X99425000Y-50047047D01*
X99425000Y-50047047D02*
X99472619Y-50094666D01*
X99472619Y-50094666D02*
X99615476Y-50189904D01*
X99615476Y-50189904D02*
X99805952Y-50237523D01*
X99805952Y-50237523D02*
X100186904Y-50237523D01*
X100186904Y-50237523D02*
X100282142Y-50189904D01*
X100282142Y-50189904D02*
X100329761Y-50142285D01*
X100329761Y-50142285D02*
X100377380Y-50047047D01*
X100377380Y-50047047D02*
X100377380Y-49856571D01*
X100377380Y-49856571D02*
X100329761Y-49761333D01*
X100329761Y-49761333D02*
X100282142Y-49713714D01*
X100282142Y-49713714D02*
X100186904Y-49666095D01*
X100186904Y-49666095D02*
X99948809Y-49666095D01*
X99948809Y-49666095D02*
X99853571Y-49713714D01*
X99853571Y-49713714D02*
X99805952Y-49761333D01*
X99805952Y-49761333D02*
X99758333Y-49856571D01*
X99758333Y-49856571D02*
X99758333Y-50047047D01*
X99758333Y-50047047D02*
X99805952Y-50142285D01*
X99805952Y-50142285D02*
X99853571Y-50189904D01*
X99853571Y-50189904D02*
X99948809Y-50237523D01*
X112952142Y-48679519D02*
X112999761Y-48727138D01*
X112999761Y-48727138D02*
X113047380Y-48822376D01*
X113047380Y-48822376D02*
X113047380Y-49060471D01*
X113047380Y-49060471D02*
X112999761Y-49155709D01*
X112999761Y-49155709D02*
X112952142Y-49203328D01*
X112952142Y-49203328D02*
X112856904Y-49250947D01*
X112856904Y-49250947D02*
X112761666Y-49250947D01*
X112761666Y-49250947D02*
X112618809Y-49203328D01*
X112618809Y-49203328D02*
X112047380Y-48631900D01*
X112047380Y-48631900D02*
X112047380Y-49250947D01*
X112047380Y-49727138D02*
X112047380Y-49917614D01*
X112047380Y-49917614D02*
X112095000Y-50012852D01*
X112095000Y-50012852D02*
X112142619Y-50060471D01*
X112142619Y-50060471D02*
X112285476Y-50155709D01*
X112285476Y-50155709D02*
X112475952Y-50203328D01*
X112475952Y-50203328D02*
X112856904Y-50203328D01*
X112856904Y-50203328D02*
X112952142Y-50155709D01*
X112952142Y-50155709D02*
X112999761Y-50108090D01*
X112999761Y-50108090D02*
X113047380Y-50012852D01*
X113047380Y-50012852D02*
X113047380Y-49822376D01*
X113047380Y-49822376D02*
X112999761Y-49727138D01*
X112999761Y-49727138D02*
X112952142Y-49679519D01*
X112952142Y-49679519D02*
X112856904Y-49631900D01*
X112856904Y-49631900D02*
X112618809Y-49631900D01*
X112618809Y-49631900D02*
X112523571Y-49679519D01*
X112523571Y-49679519D02*
X112475952Y-49727138D01*
X112475952Y-49727138D02*
X112428333Y-49822376D01*
X112428333Y-49822376D02*
X112428333Y-50012852D01*
X112428333Y-50012852D02*
X112475952Y-50108090D01*
X112475952Y-50108090D02*
X112523571Y-50155709D01*
X112523571Y-50155709D02*
X112618809Y-50203328D01*
X120602142Y-48725519D02*
X120649761Y-48773138D01*
X120649761Y-48773138D02*
X120697380Y-48868376D01*
X120697380Y-48868376D02*
X120697380Y-49106471D01*
X120697380Y-49106471D02*
X120649761Y-49201709D01*
X120649761Y-49201709D02*
X120602142Y-49249328D01*
X120602142Y-49249328D02*
X120506904Y-49296947D01*
X120506904Y-49296947D02*
X120411666Y-49296947D01*
X120411666Y-49296947D02*
X120268809Y-49249328D01*
X120268809Y-49249328D02*
X119697380Y-48677900D01*
X119697380Y-48677900D02*
X119697380Y-49296947D01*
X120268809Y-49868376D02*
X120316428Y-49773138D01*
X120316428Y-49773138D02*
X120364047Y-49725519D01*
X120364047Y-49725519D02*
X120459285Y-49677900D01*
X120459285Y-49677900D02*
X120506904Y-49677900D01*
X120506904Y-49677900D02*
X120602142Y-49725519D01*
X120602142Y-49725519D02*
X120649761Y-49773138D01*
X120649761Y-49773138D02*
X120697380Y-49868376D01*
X120697380Y-49868376D02*
X120697380Y-50058852D01*
X120697380Y-50058852D02*
X120649761Y-50154090D01*
X120649761Y-50154090D02*
X120602142Y-50201709D01*
X120602142Y-50201709D02*
X120506904Y-50249328D01*
X120506904Y-50249328D02*
X120459285Y-50249328D01*
X120459285Y-50249328D02*
X120364047Y-50201709D01*
X120364047Y-50201709D02*
X120316428Y-50154090D01*
X120316428Y-50154090D02*
X120268809Y-50058852D01*
X120268809Y-50058852D02*
X120268809Y-49868376D01*
X120268809Y-49868376D02*
X120221190Y-49773138D01*
X120221190Y-49773138D02*
X120173571Y-49725519D01*
X120173571Y-49725519D02*
X120078333Y-49677900D01*
X120078333Y-49677900D02*
X119887857Y-49677900D01*
X119887857Y-49677900D02*
X119792619Y-49725519D01*
X119792619Y-49725519D02*
X119745000Y-49773138D01*
X119745000Y-49773138D02*
X119697380Y-49868376D01*
X119697380Y-49868376D02*
X119697380Y-50058852D01*
X119697380Y-50058852D02*
X119745000Y-50154090D01*
X119745000Y-50154090D02*
X119792619Y-50201709D01*
X119792619Y-50201709D02*
X119887857Y-50249328D01*
X119887857Y-50249328D02*
X120078333Y-50249328D01*
X120078333Y-50249328D02*
X120173571Y-50201709D01*
X120173571Y-50201709D02*
X120221190Y-50154090D01*
X120221190Y-50154090D02*
X120268809Y-50058852D01*
X101537380Y-40166667D02*
X102537380Y-40166667D01*
X102537380Y-40166667D02*
X102537380Y-40547619D01*
X102537380Y-40547619D02*
X102489761Y-40642857D01*
X102489761Y-40642857D02*
X102442142Y-40690476D01*
X102442142Y-40690476D02*
X102346904Y-40738095D01*
X102346904Y-40738095D02*
X102204047Y-40738095D01*
X102204047Y-40738095D02*
X102108809Y-40690476D01*
X102108809Y-40690476D02*
X102061190Y-40642857D01*
X102061190Y-40642857D02*
X102013571Y-40547619D01*
X102013571Y-40547619D02*
X102013571Y-40166667D01*
X101537380Y-41166667D02*
X102537380Y-41166667D01*
X102537380Y-41166667D02*
X101823095Y-41500000D01*
X101823095Y-41500000D02*
X102537380Y-41833333D01*
X102537380Y-41833333D02*
X101537380Y-41833333D01*
X102537380Y-42500000D02*
X102537380Y-42690476D01*
X102537380Y-42690476D02*
X102489761Y-42785714D01*
X102489761Y-42785714D02*
X102394523Y-42880952D01*
X102394523Y-42880952D02*
X102204047Y-42928571D01*
X102204047Y-42928571D02*
X101870714Y-42928571D01*
X101870714Y-42928571D02*
X101680238Y-42880952D01*
X101680238Y-42880952D02*
X101585000Y-42785714D01*
X101585000Y-42785714D02*
X101537380Y-42690476D01*
X101537380Y-42690476D02*
X101537380Y-42500000D01*
X101537380Y-42500000D02*
X101585000Y-42404762D01*
X101585000Y-42404762D02*
X101680238Y-42309524D01*
X101680238Y-42309524D02*
X101870714Y-42261905D01*
X101870714Y-42261905D02*
X102204047Y-42261905D01*
X102204047Y-42261905D02*
X102394523Y-42309524D01*
X102394523Y-42309524D02*
X102489761Y-42404762D01*
X102489761Y-42404762D02*
X102537380Y-42500000D01*
X101537380Y-43357143D02*
X102537380Y-43357143D01*
X102537380Y-43357143D02*
X102537380Y-43595238D01*
X102537380Y-43595238D02*
X102489761Y-43738095D01*
X102489761Y-43738095D02*
X102394523Y-43833333D01*
X102394523Y-43833333D02*
X102299285Y-43880952D01*
X102299285Y-43880952D02*
X102108809Y-43928571D01*
X102108809Y-43928571D02*
X101965952Y-43928571D01*
X101965952Y-43928571D02*
X101775476Y-43880952D01*
X101775476Y-43880952D02*
X101680238Y-43833333D01*
X101680238Y-43833333D02*
X101585000Y-43738095D01*
X101585000Y-43738095D02*
X101537380Y-43595238D01*
X101537380Y-43595238D02*
X101537380Y-43357143D01*
X102442142Y-44309524D02*
X102489761Y-44357143D01*
X102489761Y-44357143D02*
X102537380Y-44452381D01*
X102537380Y-44452381D02*
X102537380Y-44690476D01*
X102537380Y-44690476D02*
X102489761Y-44785714D01*
X102489761Y-44785714D02*
X102442142Y-44833333D01*
X102442142Y-44833333D02*
X102346904Y-44880952D01*
X102346904Y-44880952D02*
X102251666Y-44880952D01*
X102251666Y-44880952D02*
X102108809Y-44833333D01*
X102108809Y-44833333D02*
X101537380Y-44261905D01*
X101537380Y-44261905D02*
X101537380Y-44880952D01*
X92709761Y-48142285D02*
X92757380Y-48047047D01*
X92757380Y-48047047D02*
X92757380Y-47904190D01*
X92757380Y-47904190D02*
X92709761Y-47761333D01*
X92709761Y-47761333D02*
X92614523Y-47666095D01*
X92614523Y-47666095D02*
X92519285Y-47618476D01*
X92519285Y-47618476D02*
X92328809Y-47570857D01*
X92328809Y-47570857D02*
X92185952Y-47570857D01*
X92185952Y-47570857D02*
X91995476Y-47618476D01*
X91995476Y-47618476D02*
X91900238Y-47666095D01*
X91900238Y-47666095D02*
X91805000Y-47761333D01*
X91805000Y-47761333D02*
X91757380Y-47904190D01*
X91757380Y-47904190D02*
X91757380Y-47999428D01*
X91757380Y-47999428D02*
X91805000Y-48142285D01*
X91805000Y-48142285D02*
X91852619Y-48189904D01*
X91852619Y-48189904D02*
X92185952Y-48189904D01*
X92185952Y-48189904D02*
X92185952Y-47999428D01*
X91757380Y-48618476D02*
X92757380Y-48618476D01*
X92757380Y-48618476D02*
X91757380Y-49189904D01*
X91757380Y-49189904D02*
X92757380Y-49189904D01*
X91757380Y-49666095D02*
X92757380Y-49666095D01*
X92757380Y-49666095D02*
X92757380Y-49904190D01*
X92757380Y-49904190D02*
X92709761Y-50047047D01*
X92709761Y-50047047D02*
X92614523Y-50142285D01*
X92614523Y-50142285D02*
X92519285Y-50189904D01*
X92519285Y-50189904D02*
X92328809Y-50237523D01*
X92328809Y-50237523D02*
X92185952Y-50237523D01*
X92185952Y-50237523D02*
X91995476Y-50189904D01*
X91995476Y-50189904D02*
X91900238Y-50142285D01*
X91900238Y-50142285D02*
X91805000Y-50047047D01*
X91805000Y-50047047D02*
X91757380Y-49904190D01*
X91757380Y-49904190D02*
X91757380Y-49666095D01*
X138749523Y-46012380D02*
X138082857Y-46012380D01*
X138082857Y-46012380D02*
X138511428Y-45012380D01*
X137273333Y-46012380D02*
X137463809Y-46012380D01*
X137463809Y-46012380D02*
X137559047Y-45964761D01*
X137559047Y-45964761D02*
X137606666Y-45917142D01*
X137606666Y-45917142D02*
X137701904Y-45774285D01*
X137701904Y-45774285D02*
X137749523Y-45583809D01*
X137749523Y-45583809D02*
X137749523Y-45202857D01*
X137749523Y-45202857D02*
X137701904Y-45107619D01*
X137701904Y-45107619D02*
X137654285Y-45060000D01*
X137654285Y-45060000D02*
X137559047Y-45012380D01*
X137559047Y-45012380D02*
X137368571Y-45012380D01*
X137368571Y-45012380D02*
X137273333Y-45060000D01*
X137273333Y-45060000D02*
X137225714Y-45107619D01*
X137225714Y-45107619D02*
X137178095Y-45202857D01*
X137178095Y-45202857D02*
X137178095Y-45440952D01*
X137178095Y-45440952D02*
X137225714Y-45536190D01*
X137225714Y-45536190D02*
X137273333Y-45583809D01*
X137273333Y-45583809D02*
X137368571Y-45631428D01*
X137368571Y-45631428D02*
X137559047Y-45631428D01*
X137559047Y-45631428D02*
X137654285Y-45583809D01*
X137654285Y-45583809D02*
X137701904Y-45536190D01*
X137701904Y-45536190D02*
X137749523Y-45440952D01*
X141003139Y-48666095D02*
X141003139Y-49332761D01*
X141003139Y-49332761D02*
X140003139Y-48904190D01*
X141003139Y-49618476D02*
X141003139Y-50237523D01*
X141003139Y-50237523D02*
X140622187Y-49904190D01*
X140622187Y-49904190D02*
X140622187Y-50047047D01*
X140622187Y-50047047D02*
X140574568Y-50142285D01*
X140574568Y-50142285D02*
X140526949Y-50189904D01*
X140526949Y-50189904D02*
X140431711Y-50237523D01*
X140431711Y-50237523D02*
X140193616Y-50237523D01*
X140193616Y-50237523D02*
X140098378Y-50189904D01*
X140098378Y-50189904D02*
X140050759Y-50142285D01*
X140050759Y-50142285D02*
X140003139Y-50047047D01*
X140003139Y-50047047D02*
X140003139Y-49761333D01*
X140003139Y-49761333D02*
X140050759Y-49666095D01*
X140050759Y-49666095D02*
X140098378Y-49618476D01*
X102822142Y-48713714D02*
X102869761Y-48761333D01*
X102869761Y-48761333D02*
X102917380Y-48856571D01*
X102917380Y-48856571D02*
X102917380Y-49094666D01*
X102917380Y-49094666D02*
X102869761Y-49189904D01*
X102869761Y-49189904D02*
X102822142Y-49237523D01*
X102822142Y-49237523D02*
X102726904Y-49285142D01*
X102726904Y-49285142D02*
X102631666Y-49285142D01*
X102631666Y-49285142D02*
X102488809Y-49237523D01*
X102488809Y-49237523D02*
X101917380Y-48666095D01*
X101917380Y-48666095D02*
X101917380Y-49285142D01*
X102917380Y-49904190D02*
X102917380Y-49999428D01*
X102917380Y-49999428D02*
X102869761Y-50094666D01*
X102869761Y-50094666D02*
X102822142Y-50142285D01*
X102822142Y-50142285D02*
X102726904Y-50189904D01*
X102726904Y-50189904D02*
X102536428Y-50237523D01*
X102536428Y-50237523D02*
X102298333Y-50237523D01*
X102298333Y-50237523D02*
X102107857Y-50189904D01*
X102107857Y-50189904D02*
X102012619Y-50142285D01*
X102012619Y-50142285D02*
X101965000Y-50094666D01*
X101965000Y-50094666D02*
X101917380Y-49999428D01*
X101917380Y-49999428D02*
X101917380Y-49904190D01*
X101917380Y-49904190D02*
X101965000Y-49808952D01*
X101965000Y-49808952D02*
X102012619Y-49761333D01*
X102012619Y-49761333D02*
X102107857Y-49713714D01*
X102107857Y-49713714D02*
X102298333Y-49666095D01*
X102298333Y-49666095D02*
X102536428Y-49666095D01*
X102536428Y-49666095D02*
X102726904Y-49713714D01*
X102726904Y-49713714D02*
X102822142Y-49761333D01*
X102822142Y-49761333D02*
X102869761Y-49808952D01*
X102869761Y-49808952D02*
X102917380Y-49904190D01*
X135971428Y-45583809D02*
X136066666Y-45631428D01*
X136066666Y-45631428D02*
X136114285Y-45679047D01*
X136114285Y-45679047D02*
X136161904Y-45774285D01*
X136161904Y-45774285D02*
X136161904Y-45821904D01*
X136161904Y-45821904D02*
X136114285Y-45917142D01*
X136114285Y-45917142D02*
X136066666Y-45964761D01*
X136066666Y-45964761D02*
X135971428Y-46012380D01*
X135971428Y-46012380D02*
X135780952Y-46012380D01*
X135780952Y-46012380D02*
X135685714Y-45964761D01*
X135685714Y-45964761D02*
X135638095Y-45917142D01*
X135638095Y-45917142D02*
X135590476Y-45821904D01*
X135590476Y-45821904D02*
X135590476Y-45774285D01*
X135590476Y-45774285D02*
X135638095Y-45679047D01*
X135638095Y-45679047D02*
X135685714Y-45631428D01*
X135685714Y-45631428D02*
X135780952Y-45583809D01*
X135780952Y-45583809D02*
X135971428Y-45583809D01*
X135971428Y-45583809D02*
X136066666Y-45536190D01*
X136066666Y-45536190D02*
X136114285Y-45488571D01*
X136114285Y-45488571D02*
X136161904Y-45393333D01*
X136161904Y-45393333D02*
X136161904Y-45202857D01*
X136161904Y-45202857D02*
X136114285Y-45107619D01*
X136114285Y-45107619D02*
X136066666Y-45060000D01*
X136066666Y-45060000D02*
X135971428Y-45012380D01*
X135971428Y-45012380D02*
X135780952Y-45012380D01*
X135780952Y-45012380D02*
X135685714Y-45060000D01*
X135685714Y-45060000D02*
X135638095Y-45107619D01*
X135638095Y-45107619D02*
X135590476Y-45202857D01*
X135590476Y-45202857D02*
X135590476Y-45393333D01*
X135590476Y-45393333D02*
X135638095Y-45488571D01*
X135638095Y-45488571D02*
X135685714Y-45536190D01*
X135685714Y-45536190D02*
X135780952Y-45583809D01*
X134685714Y-46012380D02*
X135161904Y-46012380D01*
X135161904Y-46012380D02*
X135209523Y-45536190D01*
X135209523Y-45536190D02*
X135161904Y-45583809D01*
X135161904Y-45583809D02*
X135066666Y-45631428D01*
X135066666Y-45631428D02*
X134828571Y-45631428D01*
X134828571Y-45631428D02*
X134733333Y-45583809D01*
X134733333Y-45583809D02*
X134685714Y-45536190D01*
X134685714Y-45536190D02*
X134638095Y-45440952D01*
X134638095Y-45440952D02*
X134638095Y-45202857D01*
X134638095Y-45202857D02*
X134685714Y-45107619D01*
X134685714Y-45107619D02*
X134733333Y-45060000D01*
X134733333Y-45060000D02*
X134828571Y-45012380D01*
X134828571Y-45012380D02*
X135066666Y-45012380D01*
X135066666Y-45012380D02*
X135161904Y-45060000D01*
X135161904Y-45060000D02*
X135209523Y-45107619D01*
X113301904Y-44012142D02*
X113254285Y-44059761D01*
X113254285Y-44059761D02*
X113159047Y-44107380D01*
X113159047Y-44107380D02*
X112920952Y-44107380D01*
X112920952Y-44107380D02*
X112825714Y-44059761D01*
X112825714Y-44059761D02*
X112778095Y-44012142D01*
X112778095Y-44012142D02*
X112730476Y-43916904D01*
X112730476Y-43916904D02*
X112730476Y-43821666D01*
X112730476Y-43821666D02*
X112778095Y-43678809D01*
X112778095Y-43678809D02*
X113349523Y-43107380D01*
X113349523Y-43107380D02*
X112730476Y-43107380D01*
X112159047Y-43678809D02*
X112254285Y-43726428D01*
X112254285Y-43726428D02*
X112301904Y-43774047D01*
X112301904Y-43774047D02*
X112349523Y-43869285D01*
X112349523Y-43869285D02*
X112349523Y-43916904D01*
X112349523Y-43916904D02*
X112301904Y-44012142D01*
X112301904Y-44012142D02*
X112254285Y-44059761D01*
X112254285Y-44059761D02*
X112159047Y-44107380D01*
X112159047Y-44107380D02*
X111968571Y-44107380D01*
X111968571Y-44107380D02*
X111873333Y-44059761D01*
X111873333Y-44059761D02*
X111825714Y-44012142D01*
X111825714Y-44012142D02*
X111778095Y-43916904D01*
X111778095Y-43916904D02*
X111778095Y-43869285D01*
X111778095Y-43869285D02*
X111825714Y-43774047D01*
X111825714Y-43774047D02*
X111873333Y-43726428D01*
X111873333Y-43726428D02*
X111968571Y-43678809D01*
X111968571Y-43678809D02*
X112159047Y-43678809D01*
X112159047Y-43678809D02*
X112254285Y-43631190D01*
X112254285Y-43631190D02*
X112301904Y-43583571D01*
X112301904Y-43583571D02*
X112349523Y-43488333D01*
X112349523Y-43488333D02*
X112349523Y-43297857D01*
X112349523Y-43297857D02*
X112301904Y-43202619D01*
X112301904Y-43202619D02*
X112254285Y-43155000D01*
X112254285Y-43155000D02*
X112159047Y-43107380D01*
X112159047Y-43107380D02*
X111968571Y-43107380D01*
X111968571Y-43107380D02*
X111873333Y-43155000D01*
X111873333Y-43155000D02*
X111825714Y-43202619D01*
X111825714Y-43202619D02*
X111778095Y-43297857D01*
X111778095Y-43297857D02*
X111778095Y-43488333D01*
X111778095Y-43488333D02*
X111825714Y-43583571D01*
X111825714Y-43583571D02*
X111873333Y-43631190D01*
X111873333Y-43631190D02*
X111968571Y-43678809D01*
X89870476Y-43107380D02*
X90441904Y-43107380D01*
X90156190Y-43107380D02*
X90156190Y-44107380D01*
X90156190Y-44107380D02*
X90251428Y-43964523D01*
X90251428Y-43964523D02*
X90346666Y-43869285D01*
X90346666Y-43869285D02*
X90441904Y-43821666D01*
X89537142Y-44107380D02*
X88870476Y-44107380D01*
X88870476Y-44107380D02*
X89299047Y-43107380D01*
X130857380Y-48677900D02*
X130857380Y-49344566D01*
X130857380Y-49344566D02*
X129857380Y-48915995D01*
X130857380Y-49630281D02*
X130857380Y-50296947D01*
X130857380Y-50296947D02*
X129857380Y-49868376D01*
X117810476Y-43107380D02*
X118381904Y-43107380D01*
X118096190Y-43107380D02*
X118096190Y-44107380D01*
X118096190Y-44107380D02*
X118191428Y-43964523D01*
X118191428Y-43964523D02*
X118286666Y-43869285D01*
X118286666Y-43869285D02*
X118381904Y-43821666D01*
X116905714Y-44107380D02*
X117381904Y-44107380D01*
X117381904Y-44107380D02*
X117429523Y-43631190D01*
X117429523Y-43631190D02*
X117381904Y-43678809D01*
X117381904Y-43678809D02*
X117286666Y-43726428D01*
X117286666Y-43726428D02*
X117048571Y-43726428D01*
X117048571Y-43726428D02*
X116953333Y-43678809D01*
X116953333Y-43678809D02*
X116905714Y-43631190D01*
X116905714Y-43631190D02*
X116858095Y-43535952D01*
X116858095Y-43535952D02*
X116858095Y-43297857D01*
X116858095Y-43297857D02*
X116905714Y-43202619D01*
X116905714Y-43202619D02*
X116953333Y-43155000D01*
X116953333Y-43155000D02*
X117048571Y-43107380D01*
X117048571Y-43107380D02*
X117286666Y-43107380D01*
X117286666Y-43107380D02*
X117381904Y-43155000D01*
X117381904Y-43155000D02*
X117429523Y-43202619D01*
X115841904Y-45917142D02*
X115794285Y-45964761D01*
X115794285Y-45964761D02*
X115699047Y-46012380D01*
X115699047Y-46012380D02*
X115460952Y-46012380D01*
X115460952Y-46012380D02*
X115365714Y-45964761D01*
X115365714Y-45964761D02*
X115318095Y-45917142D01*
X115318095Y-45917142D02*
X115270476Y-45821904D01*
X115270476Y-45821904D02*
X115270476Y-45726666D01*
X115270476Y-45726666D02*
X115318095Y-45583809D01*
X115318095Y-45583809D02*
X115889523Y-45012380D01*
X115889523Y-45012380D02*
X115270476Y-45012380D01*
X114937142Y-46012380D02*
X114270476Y-46012380D01*
X114270476Y-46012380D02*
X114699047Y-45012380D01*
X120649761Y-43760595D02*
X120697380Y-43665357D01*
X120697380Y-43665357D02*
X120697380Y-43522500D01*
X120697380Y-43522500D02*
X120649761Y-43379643D01*
X120649761Y-43379643D02*
X120554523Y-43284405D01*
X120554523Y-43284405D02*
X120459285Y-43236786D01*
X120459285Y-43236786D02*
X120268809Y-43189167D01*
X120268809Y-43189167D02*
X120125952Y-43189167D01*
X120125952Y-43189167D02*
X119935476Y-43236786D01*
X119935476Y-43236786D02*
X119840238Y-43284405D01*
X119840238Y-43284405D02*
X119745000Y-43379643D01*
X119745000Y-43379643D02*
X119697380Y-43522500D01*
X119697380Y-43522500D02*
X119697380Y-43617738D01*
X119697380Y-43617738D02*
X119745000Y-43760595D01*
X119745000Y-43760595D02*
X119792619Y-43808214D01*
X119792619Y-43808214D02*
X120125952Y-43808214D01*
X120125952Y-43808214D02*
X120125952Y-43617738D01*
X119697380Y-44236786D02*
X120697380Y-44236786D01*
X120697380Y-44236786D02*
X119697380Y-44808214D01*
X119697380Y-44808214D02*
X120697380Y-44808214D01*
X119697380Y-45284405D02*
X120697380Y-45284405D01*
X120697380Y-45284405D02*
X120697380Y-45522500D01*
X120697380Y-45522500D02*
X120649761Y-45665357D01*
X120649761Y-45665357D02*
X120554523Y-45760595D01*
X120554523Y-45760595D02*
X120459285Y-45808214D01*
X120459285Y-45808214D02*
X120268809Y-45855833D01*
X120268809Y-45855833D02*
X120125952Y-45855833D01*
X120125952Y-45855833D02*
X119935476Y-45808214D01*
X119935476Y-45808214D02*
X119840238Y-45760595D01*
X119840238Y-45760595D02*
X119745000Y-45665357D01*
X119745000Y-45665357D02*
X119697380Y-45522500D01*
X119697380Y-45522500D02*
X119697380Y-45284405D01*
X95297380Y-93179285D02*
X95297380Y-92703095D01*
X95297380Y-92703095D02*
X94821190Y-92655476D01*
X94821190Y-92655476D02*
X94868809Y-92703095D01*
X94868809Y-92703095D02*
X94916428Y-92798333D01*
X94916428Y-92798333D02*
X94916428Y-93036428D01*
X94916428Y-93036428D02*
X94868809Y-93131666D01*
X94868809Y-93131666D02*
X94821190Y-93179285D01*
X94821190Y-93179285D02*
X94725952Y-93226904D01*
X94725952Y-93226904D02*
X94487857Y-93226904D01*
X94487857Y-93226904D02*
X94392619Y-93179285D01*
X94392619Y-93179285D02*
X94345000Y-93131666D01*
X94345000Y-93131666D02*
X94297380Y-93036428D01*
X94297380Y-93036428D02*
X94297380Y-92798333D01*
X94297380Y-92798333D02*
X94345000Y-92703095D01*
X94345000Y-92703095D02*
X94392619Y-92655476D01*
X95297380Y-93560238D02*
X95297380Y-94179285D01*
X95297380Y-94179285D02*
X94916428Y-93845952D01*
X94916428Y-93845952D02*
X94916428Y-93988809D01*
X94916428Y-93988809D02*
X94868809Y-94084047D01*
X94868809Y-94084047D02*
X94821190Y-94131666D01*
X94821190Y-94131666D02*
X94725952Y-94179285D01*
X94725952Y-94179285D02*
X94487857Y-94179285D01*
X94487857Y-94179285D02*
X94392619Y-94131666D01*
X94392619Y-94131666D02*
X94345000Y-94084047D01*
X94345000Y-94084047D02*
X94297380Y-93988809D01*
X94297380Y-93988809D02*
X94297380Y-93703095D01*
X94297380Y-93703095D02*
X94345000Y-93607857D01*
X94345000Y-93607857D02*
X94392619Y-93560238D01*
X110285714Y-43774047D02*
X110285714Y-43107380D01*
X110523809Y-44155000D02*
X110761904Y-43440714D01*
X110761904Y-43440714D02*
X110142857Y-43440714D01*
X109619047Y-43678809D02*
X109714285Y-43726428D01*
X109714285Y-43726428D02*
X109761904Y-43774047D01*
X109761904Y-43774047D02*
X109809523Y-43869285D01*
X109809523Y-43869285D02*
X109809523Y-43916904D01*
X109809523Y-43916904D02*
X109761904Y-44012142D01*
X109761904Y-44012142D02*
X109714285Y-44059761D01*
X109714285Y-44059761D02*
X109619047Y-44107380D01*
X109619047Y-44107380D02*
X109428571Y-44107380D01*
X109428571Y-44107380D02*
X109333333Y-44059761D01*
X109333333Y-44059761D02*
X109285714Y-44012142D01*
X109285714Y-44012142D02*
X109238095Y-43916904D01*
X109238095Y-43916904D02*
X109238095Y-43869285D01*
X109238095Y-43869285D02*
X109285714Y-43774047D01*
X109285714Y-43774047D02*
X109333333Y-43726428D01*
X109333333Y-43726428D02*
X109428571Y-43678809D01*
X109428571Y-43678809D02*
X109619047Y-43678809D01*
X109619047Y-43678809D02*
X109714285Y-43631190D01*
X109714285Y-43631190D02*
X109761904Y-43583571D01*
X109761904Y-43583571D02*
X109809523Y-43488333D01*
X109809523Y-43488333D02*
X109809523Y-43297857D01*
X109809523Y-43297857D02*
X109761904Y-43202619D01*
X109761904Y-43202619D02*
X109714285Y-43155000D01*
X109714285Y-43155000D02*
X109619047Y-43107380D01*
X109619047Y-43107380D02*
X109428571Y-43107380D01*
X109428571Y-43107380D02*
X109333333Y-43155000D01*
X109333333Y-43155000D02*
X109285714Y-43202619D01*
X109285714Y-43202619D02*
X109238095Y-43297857D01*
X109238095Y-43297857D02*
X109238095Y-43488333D01*
X109238095Y-43488333D02*
X109285714Y-43583571D01*
X109285714Y-43583571D02*
X109333333Y-43631190D01*
X109333333Y-43631190D02*
X109428571Y-43678809D01*
X96837380Y-49285142D02*
X96837380Y-48713714D01*
X96837380Y-48999428D02*
X97837380Y-48999428D01*
X97837380Y-48999428D02*
X97694523Y-48904190D01*
X97694523Y-48904190D02*
X97599285Y-48808952D01*
X97599285Y-48808952D02*
X97551666Y-48713714D01*
X97408809Y-49856571D02*
X97456428Y-49761333D01*
X97456428Y-49761333D02*
X97504047Y-49713714D01*
X97504047Y-49713714D02*
X97599285Y-49666095D01*
X97599285Y-49666095D02*
X97646904Y-49666095D01*
X97646904Y-49666095D02*
X97742142Y-49713714D01*
X97742142Y-49713714D02*
X97789761Y-49761333D01*
X97789761Y-49761333D02*
X97837380Y-49856571D01*
X97837380Y-49856571D02*
X97837380Y-50047047D01*
X97837380Y-50047047D02*
X97789761Y-50142285D01*
X97789761Y-50142285D02*
X97742142Y-50189904D01*
X97742142Y-50189904D02*
X97646904Y-50237523D01*
X97646904Y-50237523D02*
X97599285Y-50237523D01*
X97599285Y-50237523D02*
X97504047Y-50189904D01*
X97504047Y-50189904D02*
X97456428Y-50142285D01*
X97456428Y-50142285D02*
X97408809Y-50047047D01*
X97408809Y-50047047D02*
X97408809Y-49856571D01*
X97408809Y-49856571D02*
X97361190Y-49761333D01*
X97361190Y-49761333D02*
X97313571Y-49713714D01*
X97313571Y-49713714D02*
X97218333Y-49666095D01*
X97218333Y-49666095D02*
X97027857Y-49666095D01*
X97027857Y-49666095D02*
X96932619Y-49713714D01*
X96932619Y-49713714D02*
X96885000Y-49761333D01*
X96885000Y-49761333D02*
X96837380Y-49856571D01*
X96837380Y-49856571D02*
X96837380Y-50047047D01*
X96837380Y-50047047D02*
X96885000Y-50142285D01*
X96885000Y-50142285D02*
X96932619Y-50189904D01*
X96932619Y-50189904D02*
X97027857Y-50237523D01*
X97027857Y-50237523D02*
X97218333Y-50237523D01*
X97218333Y-50237523D02*
X97313571Y-50189904D01*
X97313571Y-50189904D02*
X97361190Y-50142285D01*
X97361190Y-50142285D02*
X97408809Y-50047047D01*
X97789761Y-43760595D02*
X97837380Y-43665357D01*
X97837380Y-43665357D02*
X97837380Y-43522500D01*
X97837380Y-43522500D02*
X97789761Y-43379643D01*
X97789761Y-43379643D02*
X97694523Y-43284405D01*
X97694523Y-43284405D02*
X97599285Y-43236786D01*
X97599285Y-43236786D02*
X97408809Y-43189167D01*
X97408809Y-43189167D02*
X97265952Y-43189167D01*
X97265952Y-43189167D02*
X97075476Y-43236786D01*
X97075476Y-43236786D02*
X96980238Y-43284405D01*
X96980238Y-43284405D02*
X96885000Y-43379643D01*
X96885000Y-43379643D02*
X96837380Y-43522500D01*
X96837380Y-43522500D02*
X96837380Y-43617738D01*
X96837380Y-43617738D02*
X96885000Y-43760595D01*
X96885000Y-43760595D02*
X96932619Y-43808214D01*
X96932619Y-43808214D02*
X97265952Y-43808214D01*
X97265952Y-43808214D02*
X97265952Y-43617738D01*
X96837380Y-44236786D02*
X97837380Y-44236786D01*
X97837380Y-44236786D02*
X96837380Y-44808214D01*
X96837380Y-44808214D02*
X97837380Y-44808214D01*
X96837380Y-45284405D02*
X97837380Y-45284405D01*
X97837380Y-45284405D02*
X97837380Y-45522500D01*
X97837380Y-45522500D02*
X97789761Y-45665357D01*
X97789761Y-45665357D02*
X97694523Y-45760595D01*
X97694523Y-45760595D02*
X97599285Y-45808214D01*
X97599285Y-45808214D02*
X97408809Y-45855833D01*
X97408809Y-45855833D02*
X97265952Y-45855833D01*
X97265952Y-45855833D02*
X97075476Y-45808214D01*
X97075476Y-45808214D02*
X96980238Y-45760595D01*
X96980238Y-45760595D02*
X96885000Y-45665357D01*
X96885000Y-45665357D02*
X96837380Y-45522500D01*
X96837380Y-45522500D02*
X96837380Y-45284405D01*
X84428571Y-44441190D02*
X84285714Y-44393571D01*
X84285714Y-44393571D02*
X84238095Y-44345952D01*
X84238095Y-44345952D02*
X84190476Y-44250714D01*
X84190476Y-44250714D02*
X84190476Y-44107857D01*
X84190476Y-44107857D02*
X84238095Y-44012619D01*
X84238095Y-44012619D02*
X84285714Y-43965000D01*
X84285714Y-43965000D02*
X84380952Y-43917380D01*
X84380952Y-43917380D02*
X84761904Y-43917380D01*
X84761904Y-43917380D02*
X84761904Y-44917380D01*
X84761904Y-44917380D02*
X84428571Y-44917380D01*
X84428571Y-44917380D02*
X84333333Y-44869761D01*
X84333333Y-44869761D02*
X84285714Y-44822142D01*
X84285714Y-44822142D02*
X84238095Y-44726904D01*
X84238095Y-44726904D02*
X84238095Y-44631666D01*
X84238095Y-44631666D02*
X84285714Y-44536428D01*
X84285714Y-44536428D02*
X84333333Y-44488809D01*
X84333333Y-44488809D02*
X84428571Y-44441190D01*
X84428571Y-44441190D02*
X84761904Y-44441190D01*
X83571428Y-44917380D02*
X83380952Y-44917380D01*
X83380952Y-44917380D02*
X83285714Y-44869761D01*
X83285714Y-44869761D02*
X83190476Y-44774523D01*
X83190476Y-44774523D02*
X83142857Y-44584047D01*
X83142857Y-44584047D02*
X83142857Y-44250714D01*
X83142857Y-44250714D02*
X83190476Y-44060238D01*
X83190476Y-44060238D02*
X83285714Y-43965000D01*
X83285714Y-43965000D02*
X83380952Y-43917380D01*
X83380952Y-43917380D02*
X83571428Y-43917380D01*
X83571428Y-43917380D02*
X83666666Y-43965000D01*
X83666666Y-43965000D02*
X83761904Y-44060238D01*
X83761904Y-44060238D02*
X83809523Y-44250714D01*
X83809523Y-44250714D02*
X83809523Y-44584047D01*
X83809523Y-44584047D02*
X83761904Y-44774523D01*
X83761904Y-44774523D02*
X83666666Y-44869761D01*
X83666666Y-44869761D02*
X83571428Y-44917380D01*
X82857142Y-44917380D02*
X82285714Y-44917380D01*
X82571428Y-43917380D02*
X82571428Y-44917380D01*
X82095237Y-44917380D02*
X81523809Y-44917380D01*
X81809523Y-43917380D02*
X81809523Y-44917380D01*
X80999999Y-44917380D02*
X80809523Y-44917380D01*
X80809523Y-44917380D02*
X80714285Y-44869761D01*
X80714285Y-44869761D02*
X80619047Y-44774523D01*
X80619047Y-44774523D02*
X80571428Y-44584047D01*
X80571428Y-44584047D02*
X80571428Y-44250714D01*
X80571428Y-44250714D02*
X80619047Y-44060238D01*
X80619047Y-44060238D02*
X80714285Y-43965000D01*
X80714285Y-43965000D02*
X80809523Y-43917380D01*
X80809523Y-43917380D02*
X80999999Y-43917380D01*
X80999999Y-43917380D02*
X81095237Y-43965000D01*
X81095237Y-43965000D02*
X81190475Y-44060238D01*
X81190475Y-44060238D02*
X81238094Y-44250714D01*
X81238094Y-44250714D02*
X81238094Y-44584047D01*
X81238094Y-44584047D02*
X81190475Y-44774523D01*
X81190475Y-44774523D02*
X81095237Y-44869761D01*
X81095237Y-44869761D02*
X80999999Y-44917380D01*
X80142856Y-43917380D02*
X80142856Y-44917380D01*
X80142856Y-44917380D02*
X79809523Y-44203095D01*
X79809523Y-44203095D02*
X79476190Y-44917380D01*
X79476190Y-44917380D02*
X79476190Y-43917380D01*
X84190476Y-42297380D02*
X84523809Y-42773571D01*
X84761904Y-42297380D02*
X84761904Y-43297380D01*
X84761904Y-43297380D02*
X84380952Y-43297380D01*
X84380952Y-43297380D02*
X84285714Y-43249761D01*
X84285714Y-43249761D02*
X84238095Y-43202142D01*
X84238095Y-43202142D02*
X84190476Y-43106904D01*
X84190476Y-43106904D02*
X84190476Y-42964047D01*
X84190476Y-42964047D02*
X84238095Y-42868809D01*
X84238095Y-42868809D02*
X84285714Y-42821190D01*
X84285714Y-42821190D02*
X84380952Y-42773571D01*
X84380952Y-42773571D02*
X84761904Y-42773571D01*
X83571428Y-43297380D02*
X83380952Y-43297380D01*
X83380952Y-43297380D02*
X83285714Y-43249761D01*
X83285714Y-43249761D02*
X83190476Y-43154523D01*
X83190476Y-43154523D02*
X83142857Y-42964047D01*
X83142857Y-42964047D02*
X83142857Y-42630714D01*
X83142857Y-42630714D02*
X83190476Y-42440238D01*
X83190476Y-42440238D02*
X83285714Y-42345000D01*
X83285714Y-42345000D02*
X83380952Y-42297380D01*
X83380952Y-42297380D02*
X83571428Y-42297380D01*
X83571428Y-42297380D02*
X83666666Y-42345000D01*
X83666666Y-42345000D02*
X83761904Y-42440238D01*
X83761904Y-42440238D02*
X83809523Y-42630714D01*
X83809523Y-42630714D02*
X83809523Y-42964047D01*
X83809523Y-42964047D02*
X83761904Y-43154523D01*
X83761904Y-43154523D02*
X83666666Y-43249761D01*
X83666666Y-43249761D02*
X83571428Y-43297380D01*
X82809523Y-43297380D02*
X82571428Y-42297380D01*
X82571428Y-42297380D02*
X82380952Y-43011666D01*
X82380952Y-43011666D02*
X82190476Y-42297380D01*
X82190476Y-42297380D02*
X81952381Y-43297380D01*
X87330476Y-45012380D02*
X87901904Y-45012380D01*
X87616190Y-45012380D02*
X87616190Y-46012380D01*
X87616190Y-46012380D02*
X87711428Y-45869523D01*
X87711428Y-45869523D02*
X87806666Y-45774285D01*
X87806666Y-45774285D02*
X87901904Y-45726666D01*
X86759047Y-45583809D02*
X86854285Y-45631428D01*
X86854285Y-45631428D02*
X86901904Y-45679047D01*
X86901904Y-45679047D02*
X86949523Y-45774285D01*
X86949523Y-45774285D02*
X86949523Y-45821904D01*
X86949523Y-45821904D02*
X86901904Y-45917142D01*
X86901904Y-45917142D02*
X86854285Y-45964761D01*
X86854285Y-45964761D02*
X86759047Y-46012380D01*
X86759047Y-46012380D02*
X86568571Y-46012380D01*
X86568571Y-46012380D02*
X86473333Y-45964761D01*
X86473333Y-45964761D02*
X86425714Y-45917142D01*
X86425714Y-45917142D02*
X86378095Y-45821904D01*
X86378095Y-45821904D02*
X86378095Y-45774285D01*
X86378095Y-45774285D02*
X86425714Y-45679047D01*
X86425714Y-45679047D02*
X86473333Y-45631428D01*
X86473333Y-45631428D02*
X86568571Y-45583809D01*
X86568571Y-45583809D02*
X86759047Y-45583809D01*
X86759047Y-45583809D02*
X86854285Y-45536190D01*
X86854285Y-45536190D02*
X86901904Y-45488571D01*
X86901904Y-45488571D02*
X86949523Y-45393333D01*
X86949523Y-45393333D02*
X86949523Y-45202857D01*
X86949523Y-45202857D02*
X86901904Y-45107619D01*
X86901904Y-45107619D02*
X86854285Y-45060000D01*
X86854285Y-45060000D02*
X86759047Y-45012380D01*
X86759047Y-45012380D02*
X86568571Y-45012380D01*
X86568571Y-45012380D02*
X86473333Y-45060000D01*
X86473333Y-45060000D02*
X86425714Y-45107619D01*
X86425714Y-45107619D02*
X86378095Y-45202857D01*
X86378095Y-45202857D02*
X86378095Y-45393333D01*
X86378095Y-45393333D02*
X86425714Y-45488571D01*
X86425714Y-45488571D02*
X86473333Y-45536190D01*
X86473333Y-45536190D02*
X86568571Y-45583809D01*
X93029523Y-44107380D02*
X92410476Y-44107380D01*
X92410476Y-44107380D02*
X92743809Y-43726428D01*
X92743809Y-43726428D02*
X92600952Y-43726428D01*
X92600952Y-43726428D02*
X92505714Y-43678809D01*
X92505714Y-43678809D02*
X92458095Y-43631190D01*
X92458095Y-43631190D02*
X92410476Y-43535952D01*
X92410476Y-43535952D02*
X92410476Y-43297857D01*
X92410476Y-43297857D02*
X92458095Y-43202619D01*
X92458095Y-43202619D02*
X92505714Y-43155000D01*
X92505714Y-43155000D02*
X92600952Y-43107380D01*
X92600952Y-43107380D02*
X92886666Y-43107380D01*
X92886666Y-43107380D02*
X92981904Y-43155000D01*
X92981904Y-43155000D02*
X93029523Y-43202619D01*
X91791428Y-44107380D02*
X91696190Y-44107380D01*
X91696190Y-44107380D02*
X91600952Y-44059761D01*
X91600952Y-44059761D02*
X91553333Y-44012142D01*
X91553333Y-44012142D02*
X91505714Y-43916904D01*
X91505714Y-43916904D02*
X91458095Y-43726428D01*
X91458095Y-43726428D02*
X91458095Y-43488333D01*
X91458095Y-43488333D02*
X91505714Y-43297857D01*
X91505714Y-43297857D02*
X91553333Y-43202619D01*
X91553333Y-43202619D02*
X91600952Y-43155000D01*
X91600952Y-43155000D02*
X91696190Y-43107380D01*
X91696190Y-43107380D02*
X91791428Y-43107380D01*
X91791428Y-43107380D02*
X91886666Y-43155000D01*
X91886666Y-43155000D02*
X91934285Y-43202619D01*
X91934285Y-43202619D02*
X91981904Y-43297857D01*
X91981904Y-43297857D02*
X92029523Y-43488333D01*
X92029523Y-43488333D02*
X92029523Y-43726428D01*
X92029523Y-43726428D02*
X91981904Y-43916904D01*
X91981904Y-43916904D02*
X91934285Y-44012142D01*
X91934285Y-44012142D02*
X91886666Y-44059761D01*
X91886666Y-44059761D02*
X91791428Y-44107380D01*
X115522142Y-48725519D02*
X115569761Y-48773138D01*
X115569761Y-48773138D02*
X115617380Y-48868376D01*
X115617380Y-48868376D02*
X115617380Y-49106471D01*
X115617380Y-49106471D02*
X115569761Y-49201709D01*
X115569761Y-49201709D02*
X115522142Y-49249328D01*
X115522142Y-49249328D02*
X115426904Y-49296947D01*
X115426904Y-49296947D02*
X115331666Y-49296947D01*
X115331666Y-49296947D02*
X115188809Y-49249328D01*
X115188809Y-49249328D02*
X114617380Y-48677900D01*
X114617380Y-48677900D02*
X114617380Y-49296947D01*
X115617380Y-50201709D02*
X115617380Y-49725519D01*
X115617380Y-49725519D02*
X115141190Y-49677900D01*
X115141190Y-49677900D02*
X115188809Y-49725519D01*
X115188809Y-49725519D02*
X115236428Y-49820757D01*
X115236428Y-49820757D02*
X115236428Y-50058852D01*
X115236428Y-50058852D02*
X115188809Y-50154090D01*
X115188809Y-50154090D02*
X115141190Y-50201709D01*
X115141190Y-50201709D02*
X115045952Y-50249328D01*
X115045952Y-50249328D02*
X114807857Y-50249328D01*
X114807857Y-50249328D02*
X114712619Y-50201709D01*
X114712619Y-50201709D02*
X114665000Y-50154090D01*
X114665000Y-50154090D02*
X114617380Y-50058852D01*
X114617380Y-50058852D02*
X114617380Y-49820757D01*
X114617380Y-49820757D02*
X114665000Y-49725519D01*
X114665000Y-49725519D02*
X114712619Y-49677900D01*
X135937380Y-48677900D02*
X135937380Y-49344566D01*
X135937380Y-49344566D02*
X134937380Y-48915995D01*
X135937380Y-50154090D02*
X135937380Y-49963614D01*
X135937380Y-49963614D02*
X135889761Y-49868376D01*
X135889761Y-49868376D02*
X135842142Y-49820757D01*
X135842142Y-49820757D02*
X135699285Y-49725519D01*
X135699285Y-49725519D02*
X135508809Y-49677900D01*
X135508809Y-49677900D02*
X135127857Y-49677900D01*
X135127857Y-49677900D02*
X135032619Y-49725519D01*
X135032619Y-49725519D02*
X134985000Y-49773138D01*
X134985000Y-49773138D02*
X134937380Y-49868376D01*
X134937380Y-49868376D02*
X134937380Y-50058852D01*
X134937380Y-50058852D02*
X134985000Y-50154090D01*
X134985000Y-50154090D02*
X135032619Y-50201709D01*
X135032619Y-50201709D02*
X135127857Y-50249328D01*
X135127857Y-50249328D02*
X135365952Y-50249328D01*
X135365952Y-50249328D02*
X135461190Y-50201709D01*
X135461190Y-50201709D02*
X135508809Y-50154090D01*
X135508809Y-50154090D02*
X135556428Y-50058852D01*
X135556428Y-50058852D02*
X135556428Y-49868376D01*
X135556428Y-49868376D02*
X135508809Y-49773138D01*
X135508809Y-49773138D02*
X135461190Y-49725519D01*
X135461190Y-49725519D02*
X135365952Y-49677900D01*
X124537380Y-40166667D02*
X125537380Y-40166667D01*
X125537380Y-40166667D02*
X125537380Y-40547619D01*
X125537380Y-40547619D02*
X125489761Y-40642857D01*
X125489761Y-40642857D02*
X125442142Y-40690476D01*
X125442142Y-40690476D02*
X125346904Y-40738095D01*
X125346904Y-40738095D02*
X125204047Y-40738095D01*
X125204047Y-40738095D02*
X125108809Y-40690476D01*
X125108809Y-40690476D02*
X125061190Y-40642857D01*
X125061190Y-40642857D02*
X125013571Y-40547619D01*
X125013571Y-40547619D02*
X125013571Y-40166667D01*
X124537380Y-41166667D02*
X125537380Y-41166667D01*
X125537380Y-41166667D02*
X124823095Y-41500000D01*
X124823095Y-41500000D02*
X125537380Y-41833333D01*
X125537380Y-41833333D02*
X124537380Y-41833333D01*
X125537380Y-42500000D02*
X125537380Y-42690476D01*
X125537380Y-42690476D02*
X125489761Y-42785714D01*
X125489761Y-42785714D02*
X125394523Y-42880952D01*
X125394523Y-42880952D02*
X125204047Y-42928571D01*
X125204047Y-42928571D02*
X124870714Y-42928571D01*
X124870714Y-42928571D02*
X124680238Y-42880952D01*
X124680238Y-42880952D02*
X124585000Y-42785714D01*
X124585000Y-42785714D02*
X124537380Y-42690476D01*
X124537380Y-42690476D02*
X124537380Y-42500000D01*
X124537380Y-42500000D02*
X124585000Y-42404762D01*
X124585000Y-42404762D02*
X124680238Y-42309524D01*
X124680238Y-42309524D02*
X124870714Y-42261905D01*
X124870714Y-42261905D02*
X125204047Y-42261905D01*
X125204047Y-42261905D02*
X125394523Y-42309524D01*
X125394523Y-42309524D02*
X125489761Y-42404762D01*
X125489761Y-42404762D02*
X125537380Y-42500000D01*
X124537380Y-43357143D02*
X125537380Y-43357143D01*
X125537380Y-43357143D02*
X125537380Y-43595238D01*
X125537380Y-43595238D02*
X125489761Y-43738095D01*
X125489761Y-43738095D02*
X125394523Y-43833333D01*
X125394523Y-43833333D02*
X125299285Y-43880952D01*
X125299285Y-43880952D02*
X125108809Y-43928571D01*
X125108809Y-43928571D02*
X124965952Y-43928571D01*
X124965952Y-43928571D02*
X124775476Y-43880952D01*
X124775476Y-43880952D02*
X124680238Y-43833333D01*
X124680238Y-43833333D02*
X124585000Y-43738095D01*
X124585000Y-43738095D02*
X124537380Y-43595238D01*
X124537380Y-43595238D02*
X124537380Y-43357143D01*
X124537380Y-44880952D02*
X124537380Y-44309524D01*
X124537380Y-44595238D02*
X125537380Y-44595238D01*
X125537380Y-44595238D02*
X125394523Y-44500000D01*
X125394523Y-44500000D02*
X125299285Y-44404762D01*
X125299285Y-44404762D02*
X125251666Y-44309524D01*
X104457380Y-49285142D02*
X104457380Y-48713714D01*
X104457380Y-48999428D02*
X105457380Y-48999428D01*
X105457380Y-48999428D02*
X105314523Y-48904190D01*
X105314523Y-48904190D02*
X105219285Y-48808952D01*
X105219285Y-48808952D02*
X105171666Y-48713714D01*
X105457380Y-49618476D02*
X105457380Y-50285142D01*
X105457380Y-50285142D02*
X104457380Y-49856571D01*
X117905714Y-45679047D02*
X117905714Y-45012380D01*
X118143809Y-46060000D02*
X118381904Y-45345714D01*
X118381904Y-45345714D02*
X117762857Y-45345714D01*
X116858095Y-45012380D02*
X117429523Y-45012380D01*
X117143809Y-45012380D02*
X117143809Y-46012380D01*
X117143809Y-46012380D02*
X117239047Y-45869523D01*
X117239047Y-45869523D02*
X117334285Y-45774285D01*
X117334285Y-45774285D02*
X117429523Y-45726666D01*
X135971428Y-43678809D02*
X136066666Y-43726428D01*
X136066666Y-43726428D02*
X136114285Y-43774047D01*
X136114285Y-43774047D02*
X136161904Y-43869285D01*
X136161904Y-43869285D02*
X136161904Y-43916904D01*
X136161904Y-43916904D02*
X136114285Y-44012142D01*
X136114285Y-44012142D02*
X136066666Y-44059761D01*
X136066666Y-44059761D02*
X135971428Y-44107380D01*
X135971428Y-44107380D02*
X135780952Y-44107380D01*
X135780952Y-44107380D02*
X135685714Y-44059761D01*
X135685714Y-44059761D02*
X135638095Y-44012142D01*
X135638095Y-44012142D02*
X135590476Y-43916904D01*
X135590476Y-43916904D02*
X135590476Y-43869285D01*
X135590476Y-43869285D02*
X135638095Y-43774047D01*
X135638095Y-43774047D02*
X135685714Y-43726428D01*
X135685714Y-43726428D02*
X135780952Y-43678809D01*
X135780952Y-43678809D02*
X135971428Y-43678809D01*
X135971428Y-43678809D02*
X136066666Y-43631190D01*
X136066666Y-43631190D02*
X136114285Y-43583571D01*
X136114285Y-43583571D02*
X136161904Y-43488333D01*
X136161904Y-43488333D02*
X136161904Y-43297857D01*
X136161904Y-43297857D02*
X136114285Y-43202619D01*
X136114285Y-43202619D02*
X136066666Y-43155000D01*
X136066666Y-43155000D02*
X135971428Y-43107380D01*
X135971428Y-43107380D02*
X135780952Y-43107380D01*
X135780952Y-43107380D02*
X135685714Y-43155000D01*
X135685714Y-43155000D02*
X135638095Y-43202619D01*
X135638095Y-43202619D02*
X135590476Y-43297857D01*
X135590476Y-43297857D02*
X135590476Y-43488333D01*
X135590476Y-43488333D02*
X135638095Y-43583571D01*
X135638095Y-43583571D02*
X135685714Y-43631190D01*
X135685714Y-43631190D02*
X135780952Y-43678809D01*
X134971428Y-44107380D02*
X134876190Y-44107380D01*
X134876190Y-44107380D02*
X134780952Y-44059761D01*
X134780952Y-44059761D02*
X134733333Y-44012142D01*
X134733333Y-44012142D02*
X134685714Y-43916904D01*
X134685714Y-43916904D02*
X134638095Y-43726428D01*
X134638095Y-43726428D02*
X134638095Y-43488333D01*
X134638095Y-43488333D02*
X134685714Y-43297857D01*
X134685714Y-43297857D02*
X134733333Y-43202619D01*
X134733333Y-43202619D02*
X134780952Y-43155000D01*
X134780952Y-43155000D02*
X134876190Y-43107380D01*
X134876190Y-43107380D02*
X134971428Y-43107380D01*
X134971428Y-43107380D02*
X135066666Y-43155000D01*
X135066666Y-43155000D02*
X135114285Y-43202619D01*
X135114285Y-43202619D02*
X135161904Y-43297857D01*
X135161904Y-43297857D02*
X135209523Y-43488333D01*
X135209523Y-43488333D02*
X135209523Y-43726428D01*
X135209523Y-43726428D02*
X135161904Y-43916904D01*
X135161904Y-43916904D02*
X135114285Y-44012142D01*
X135114285Y-44012142D02*
X135066666Y-44059761D01*
X135066666Y-44059761D02*
X134971428Y-44107380D01*
X133669523Y-46012380D02*
X133002857Y-46012380D01*
X133002857Y-46012380D02*
X133431428Y-45012380D01*
X132098095Y-45012380D02*
X132669523Y-45012380D01*
X132383809Y-45012380D02*
X132383809Y-46012380D01*
X132383809Y-46012380D02*
X132479047Y-45869523D01*
X132479047Y-45869523D02*
X132574285Y-45774285D01*
X132574285Y-45774285D02*
X132669523Y-45726666D01*
X95521904Y-44012142D02*
X95474285Y-44059761D01*
X95474285Y-44059761D02*
X95379047Y-44107380D01*
X95379047Y-44107380D02*
X95140952Y-44107380D01*
X95140952Y-44107380D02*
X95045714Y-44059761D01*
X95045714Y-44059761D02*
X94998095Y-44012142D01*
X94998095Y-44012142D02*
X94950476Y-43916904D01*
X94950476Y-43916904D02*
X94950476Y-43821666D01*
X94950476Y-43821666D02*
X94998095Y-43678809D01*
X94998095Y-43678809D02*
X95569523Y-43107380D01*
X95569523Y-43107380D02*
X94950476Y-43107380D01*
X94474285Y-43107380D02*
X94283809Y-43107380D01*
X94283809Y-43107380D02*
X94188571Y-43155000D01*
X94188571Y-43155000D02*
X94140952Y-43202619D01*
X94140952Y-43202619D02*
X94045714Y-43345476D01*
X94045714Y-43345476D02*
X93998095Y-43535952D01*
X93998095Y-43535952D02*
X93998095Y-43916904D01*
X93998095Y-43916904D02*
X94045714Y-44012142D01*
X94045714Y-44012142D02*
X94093333Y-44059761D01*
X94093333Y-44059761D02*
X94188571Y-44107380D01*
X94188571Y-44107380D02*
X94379047Y-44107380D01*
X94379047Y-44107380D02*
X94474285Y-44059761D01*
X94474285Y-44059761D02*
X94521904Y-44012142D01*
X94521904Y-44012142D02*
X94569523Y-43916904D01*
X94569523Y-43916904D02*
X94569523Y-43678809D01*
X94569523Y-43678809D02*
X94521904Y-43583571D01*
X94521904Y-43583571D02*
X94474285Y-43535952D01*
X94474285Y-43535952D02*
X94379047Y-43488333D01*
X94379047Y-43488333D02*
X94188571Y-43488333D01*
X94188571Y-43488333D02*
X94093333Y-43535952D01*
X94093333Y-43535952D02*
X94045714Y-43583571D01*
X94045714Y-43583571D02*
X93998095Y-43678809D01*
X154067380Y-46840238D02*
X154067380Y-47411666D01*
X153067380Y-47125952D02*
X154067380Y-47125952D01*
X153067380Y-48173571D02*
X153591190Y-48173571D01*
X153591190Y-48173571D02*
X153686428Y-48125952D01*
X153686428Y-48125952D02*
X153734047Y-48030714D01*
X153734047Y-48030714D02*
X153734047Y-47840238D01*
X153734047Y-47840238D02*
X153686428Y-47745000D01*
X153115000Y-48173571D02*
X153067380Y-48078333D01*
X153067380Y-48078333D02*
X153067380Y-47840238D01*
X153067380Y-47840238D02*
X153115000Y-47745000D01*
X153115000Y-47745000D02*
X153210238Y-47697381D01*
X153210238Y-47697381D02*
X153305476Y-47697381D01*
X153305476Y-47697381D02*
X153400714Y-47745000D01*
X153400714Y-47745000D02*
X153448333Y-47840238D01*
X153448333Y-47840238D02*
X153448333Y-48078333D01*
X153448333Y-48078333D02*
X153495952Y-48173571D01*
X153734047Y-48649762D02*
X153067380Y-48649762D01*
X153638809Y-48649762D02*
X153686428Y-48697381D01*
X153686428Y-48697381D02*
X153734047Y-48792619D01*
X153734047Y-48792619D02*
X153734047Y-48935476D01*
X153734047Y-48935476D02*
X153686428Y-49030714D01*
X153686428Y-49030714D02*
X153591190Y-49078333D01*
X153591190Y-49078333D02*
X153067380Y-49078333D01*
X153734047Y-49983095D02*
X152924523Y-49983095D01*
X152924523Y-49983095D02*
X152829285Y-49935476D01*
X152829285Y-49935476D02*
X152781666Y-49887857D01*
X152781666Y-49887857D02*
X152734047Y-49792619D01*
X152734047Y-49792619D02*
X152734047Y-49649762D01*
X152734047Y-49649762D02*
X152781666Y-49554524D01*
X153115000Y-49983095D02*
X153067380Y-49887857D01*
X153067380Y-49887857D02*
X153067380Y-49697381D01*
X153067380Y-49697381D02*
X153115000Y-49602143D01*
X153115000Y-49602143D02*
X153162619Y-49554524D01*
X153162619Y-49554524D02*
X153257857Y-49506905D01*
X153257857Y-49506905D02*
X153543571Y-49506905D01*
X153543571Y-49506905D02*
X153638809Y-49554524D01*
X153638809Y-49554524D02*
X153686428Y-49602143D01*
X153686428Y-49602143D02*
X153734047Y-49697381D01*
X153734047Y-49697381D02*
X153734047Y-49887857D01*
X153734047Y-49887857D02*
X153686428Y-49983095D01*
X153067380Y-51221191D02*
X154067380Y-51221191D01*
X154067380Y-51221191D02*
X153067380Y-51792619D01*
X153067380Y-51792619D02*
X154067380Y-51792619D01*
X153067380Y-52697381D02*
X153591190Y-52697381D01*
X153591190Y-52697381D02*
X153686428Y-52649762D01*
X153686428Y-52649762D02*
X153734047Y-52554524D01*
X153734047Y-52554524D02*
X153734047Y-52364048D01*
X153734047Y-52364048D02*
X153686428Y-52268810D01*
X153115000Y-52697381D02*
X153067380Y-52602143D01*
X153067380Y-52602143D02*
X153067380Y-52364048D01*
X153067380Y-52364048D02*
X153115000Y-52268810D01*
X153115000Y-52268810D02*
X153210238Y-52221191D01*
X153210238Y-52221191D02*
X153305476Y-52221191D01*
X153305476Y-52221191D02*
X153400714Y-52268810D01*
X153400714Y-52268810D02*
X153448333Y-52364048D01*
X153448333Y-52364048D02*
X153448333Y-52602143D01*
X153448333Y-52602143D02*
X153495952Y-52697381D01*
X153734047Y-53173572D02*
X153067380Y-53173572D01*
X153638809Y-53173572D02*
X153686428Y-53221191D01*
X153686428Y-53221191D02*
X153734047Y-53316429D01*
X153734047Y-53316429D02*
X153734047Y-53459286D01*
X153734047Y-53459286D02*
X153686428Y-53554524D01*
X153686428Y-53554524D02*
X153591190Y-53602143D01*
X153591190Y-53602143D02*
X153067380Y-53602143D01*
X153067380Y-54221191D02*
X153115000Y-54125953D01*
X153115000Y-54125953D02*
X153162619Y-54078334D01*
X153162619Y-54078334D02*
X153257857Y-54030715D01*
X153257857Y-54030715D02*
X153543571Y-54030715D01*
X153543571Y-54030715D02*
X153638809Y-54078334D01*
X153638809Y-54078334D02*
X153686428Y-54125953D01*
X153686428Y-54125953D02*
X153734047Y-54221191D01*
X153734047Y-54221191D02*
X153734047Y-54364048D01*
X153734047Y-54364048D02*
X153686428Y-54459286D01*
X153686428Y-54459286D02*
X153638809Y-54506905D01*
X153638809Y-54506905D02*
X153543571Y-54554524D01*
X153543571Y-54554524D02*
X153257857Y-54554524D01*
X153257857Y-54554524D02*
X153162619Y-54506905D01*
X153162619Y-54506905D02*
X153115000Y-54459286D01*
X153115000Y-54459286D02*
X153067380Y-54364048D01*
X153067380Y-54364048D02*
X153067380Y-54221191D01*
X153972142Y-55697382D02*
X154019761Y-55745001D01*
X154019761Y-55745001D02*
X154067380Y-55840239D01*
X154067380Y-55840239D02*
X154067380Y-56078334D01*
X154067380Y-56078334D02*
X154019761Y-56173572D01*
X154019761Y-56173572D02*
X153972142Y-56221191D01*
X153972142Y-56221191D02*
X153876904Y-56268810D01*
X153876904Y-56268810D02*
X153781666Y-56268810D01*
X153781666Y-56268810D02*
X153638809Y-56221191D01*
X153638809Y-56221191D02*
X153067380Y-55649763D01*
X153067380Y-55649763D02*
X153067380Y-56268810D01*
X154067380Y-56887858D02*
X154067380Y-56983096D01*
X154067380Y-56983096D02*
X154019761Y-57078334D01*
X154019761Y-57078334D02*
X153972142Y-57125953D01*
X153972142Y-57125953D02*
X153876904Y-57173572D01*
X153876904Y-57173572D02*
X153686428Y-57221191D01*
X153686428Y-57221191D02*
X153448333Y-57221191D01*
X153448333Y-57221191D02*
X153257857Y-57173572D01*
X153257857Y-57173572D02*
X153162619Y-57125953D01*
X153162619Y-57125953D02*
X153115000Y-57078334D01*
X153115000Y-57078334D02*
X153067380Y-56983096D01*
X153067380Y-56983096D02*
X153067380Y-56887858D01*
X153067380Y-56887858D02*
X153115000Y-56792620D01*
X153115000Y-56792620D02*
X153162619Y-56745001D01*
X153162619Y-56745001D02*
X153257857Y-56697382D01*
X153257857Y-56697382D02*
X153448333Y-56649763D01*
X153448333Y-56649763D02*
X153686428Y-56649763D01*
X153686428Y-56649763D02*
X153876904Y-56697382D01*
X153876904Y-56697382D02*
X153972142Y-56745001D01*
X153972142Y-56745001D02*
X154019761Y-56792620D01*
X154019761Y-56792620D02*
X154067380Y-56887858D01*
X153067380Y-57649763D02*
X154067380Y-57649763D01*
X153067380Y-58221191D02*
X153638809Y-57792620D01*
X154067380Y-58221191D02*
X153495952Y-57649763D01*
X153067380Y-59411668D02*
X154067380Y-59411668D01*
X154067380Y-59411668D02*
X154067380Y-59792620D01*
X154067380Y-59792620D02*
X154019761Y-59887858D01*
X154019761Y-59887858D02*
X153972142Y-59935477D01*
X153972142Y-59935477D02*
X153876904Y-59983096D01*
X153876904Y-59983096D02*
X153734047Y-59983096D01*
X153734047Y-59983096D02*
X153638809Y-59935477D01*
X153638809Y-59935477D02*
X153591190Y-59887858D01*
X153591190Y-59887858D02*
X153543571Y-59792620D01*
X153543571Y-59792620D02*
X153543571Y-59411668D01*
X153067380Y-60411668D02*
X153734047Y-60411668D01*
X153638809Y-60411668D02*
X153686428Y-60459287D01*
X153686428Y-60459287D02*
X153734047Y-60554525D01*
X153734047Y-60554525D02*
X153734047Y-60697382D01*
X153734047Y-60697382D02*
X153686428Y-60792620D01*
X153686428Y-60792620D02*
X153591190Y-60840239D01*
X153591190Y-60840239D02*
X153067380Y-60840239D01*
X153591190Y-60840239D02*
X153686428Y-60887858D01*
X153686428Y-60887858D02*
X153734047Y-60983096D01*
X153734047Y-60983096D02*
X153734047Y-61125953D01*
X153734047Y-61125953D02*
X153686428Y-61221192D01*
X153686428Y-61221192D02*
X153591190Y-61268811D01*
X153591190Y-61268811D02*
X153067380Y-61268811D01*
X153067380Y-61887858D02*
X153115000Y-61792620D01*
X153115000Y-61792620D02*
X153162619Y-61745001D01*
X153162619Y-61745001D02*
X153257857Y-61697382D01*
X153257857Y-61697382D02*
X153543571Y-61697382D01*
X153543571Y-61697382D02*
X153638809Y-61745001D01*
X153638809Y-61745001D02*
X153686428Y-61792620D01*
X153686428Y-61792620D02*
X153734047Y-61887858D01*
X153734047Y-61887858D02*
X153734047Y-62030715D01*
X153734047Y-62030715D02*
X153686428Y-62125953D01*
X153686428Y-62125953D02*
X153638809Y-62173572D01*
X153638809Y-62173572D02*
X153543571Y-62221191D01*
X153543571Y-62221191D02*
X153257857Y-62221191D01*
X153257857Y-62221191D02*
X153162619Y-62173572D01*
X153162619Y-62173572D02*
X153115000Y-62125953D01*
X153115000Y-62125953D02*
X153067380Y-62030715D01*
X153067380Y-62030715D02*
X153067380Y-61887858D01*
X153067380Y-63078334D02*
X154067380Y-63078334D01*
X153115000Y-63078334D02*
X153067380Y-62983096D01*
X153067380Y-62983096D02*
X153067380Y-62792620D01*
X153067380Y-62792620D02*
X153115000Y-62697382D01*
X153115000Y-62697382D02*
X153162619Y-62649763D01*
X153162619Y-62649763D02*
X153257857Y-62602144D01*
X153257857Y-62602144D02*
X153543571Y-62602144D01*
X153543571Y-62602144D02*
X153638809Y-62649763D01*
X153638809Y-62649763D02*
X153686428Y-62697382D01*
X153686428Y-62697382D02*
X153734047Y-62792620D01*
X153734047Y-62792620D02*
X153734047Y-62983096D01*
X153734047Y-62983096D02*
X153686428Y-63078334D01*
X153591190Y-64649763D02*
X153543571Y-64792620D01*
X153543571Y-64792620D02*
X153495952Y-64840239D01*
X153495952Y-64840239D02*
X153400714Y-64887858D01*
X153400714Y-64887858D02*
X153257857Y-64887858D01*
X153257857Y-64887858D02*
X153162619Y-64840239D01*
X153162619Y-64840239D02*
X153115000Y-64792620D01*
X153115000Y-64792620D02*
X153067380Y-64697382D01*
X153067380Y-64697382D02*
X153067380Y-64316430D01*
X153067380Y-64316430D02*
X154067380Y-64316430D01*
X154067380Y-64316430D02*
X154067380Y-64649763D01*
X154067380Y-64649763D02*
X154019761Y-64745001D01*
X154019761Y-64745001D02*
X153972142Y-64792620D01*
X153972142Y-64792620D02*
X153876904Y-64840239D01*
X153876904Y-64840239D02*
X153781666Y-64840239D01*
X153781666Y-64840239D02*
X153686428Y-64792620D01*
X153686428Y-64792620D02*
X153638809Y-64745001D01*
X153638809Y-64745001D02*
X153591190Y-64649763D01*
X153591190Y-64649763D02*
X153591190Y-64316430D01*
X153067380Y-65745001D02*
X153591190Y-65745001D01*
X153591190Y-65745001D02*
X153686428Y-65697382D01*
X153686428Y-65697382D02*
X153734047Y-65602144D01*
X153734047Y-65602144D02*
X153734047Y-65411668D01*
X153734047Y-65411668D02*
X153686428Y-65316430D01*
X153115000Y-65745001D02*
X153067380Y-65649763D01*
X153067380Y-65649763D02*
X153067380Y-65411668D01*
X153067380Y-65411668D02*
X153115000Y-65316430D01*
X153115000Y-65316430D02*
X153210238Y-65268811D01*
X153210238Y-65268811D02*
X153305476Y-65268811D01*
X153305476Y-65268811D02*
X153400714Y-65316430D01*
X153400714Y-65316430D02*
X153448333Y-65411668D01*
X153448333Y-65411668D02*
X153448333Y-65649763D01*
X153448333Y-65649763D02*
X153495952Y-65745001D01*
X153115000Y-66173573D02*
X153067380Y-66268811D01*
X153067380Y-66268811D02*
X153067380Y-66459287D01*
X153067380Y-66459287D02*
X153115000Y-66554525D01*
X153115000Y-66554525D02*
X153210238Y-66602144D01*
X153210238Y-66602144D02*
X153257857Y-66602144D01*
X153257857Y-66602144D02*
X153353095Y-66554525D01*
X153353095Y-66554525D02*
X153400714Y-66459287D01*
X153400714Y-66459287D02*
X153400714Y-66316430D01*
X153400714Y-66316430D02*
X153448333Y-66221192D01*
X153448333Y-66221192D02*
X153543571Y-66173573D01*
X153543571Y-66173573D02*
X153591190Y-66173573D01*
X153591190Y-66173573D02*
X153686428Y-66221192D01*
X153686428Y-66221192D02*
X153734047Y-66316430D01*
X153734047Y-66316430D02*
X153734047Y-66459287D01*
X153734047Y-66459287D02*
X153686428Y-66554525D01*
X153115000Y-67411668D02*
X153067380Y-67316430D01*
X153067380Y-67316430D02*
X153067380Y-67125954D01*
X153067380Y-67125954D02*
X153115000Y-67030716D01*
X153115000Y-67030716D02*
X153210238Y-66983097D01*
X153210238Y-66983097D02*
X153591190Y-66983097D01*
X153591190Y-66983097D02*
X153686428Y-67030716D01*
X153686428Y-67030716D02*
X153734047Y-67125954D01*
X153734047Y-67125954D02*
X153734047Y-67316430D01*
X153734047Y-67316430D02*
X153686428Y-67411668D01*
X153686428Y-67411668D02*
X153591190Y-67459287D01*
X153591190Y-67459287D02*
X153495952Y-67459287D01*
X153495952Y-67459287D02*
X153400714Y-66983097D01*
X153591190Y-68983097D02*
X153543571Y-69125954D01*
X153543571Y-69125954D02*
X153495952Y-69173573D01*
X153495952Y-69173573D02*
X153400714Y-69221192D01*
X153400714Y-69221192D02*
X153257857Y-69221192D01*
X153257857Y-69221192D02*
X153162619Y-69173573D01*
X153162619Y-69173573D02*
X153115000Y-69125954D01*
X153115000Y-69125954D02*
X153067380Y-69030716D01*
X153067380Y-69030716D02*
X153067380Y-68649764D01*
X153067380Y-68649764D02*
X154067380Y-68649764D01*
X154067380Y-68649764D02*
X154067380Y-68983097D01*
X154067380Y-68983097D02*
X154019761Y-69078335D01*
X154019761Y-69078335D02*
X153972142Y-69125954D01*
X153972142Y-69125954D02*
X153876904Y-69173573D01*
X153876904Y-69173573D02*
X153781666Y-69173573D01*
X153781666Y-69173573D02*
X153686428Y-69125954D01*
X153686428Y-69125954D02*
X153638809Y-69078335D01*
X153638809Y-69078335D02*
X153591190Y-68983097D01*
X153591190Y-68983097D02*
X153591190Y-68649764D01*
X153067380Y-69792621D02*
X153115000Y-69697383D01*
X153115000Y-69697383D02*
X153162619Y-69649764D01*
X153162619Y-69649764D02*
X153257857Y-69602145D01*
X153257857Y-69602145D02*
X153543571Y-69602145D01*
X153543571Y-69602145D02*
X153638809Y-69649764D01*
X153638809Y-69649764D02*
X153686428Y-69697383D01*
X153686428Y-69697383D02*
X153734047Y-69792621D01*
X153734047Y-69792621D02*
X153734047Y-69935478D01*
X153734047Y-69935478D02*
X153686428Y-70030716D01*
X153686428Y-70030716D02*
X153638809Y-70078335D01*
X153638809Y-70078335D02*
X153543571Y-70125954D01*
X153543571Y-70125954D02*
X153257857Y-70125954D01*
X153257857Y-70125954D02*
X153162619Y-70078335D01*
X153162619Y-70078335D02*
X153115000Y-70030716D01*
X153115000Y-70030716D02*
X153067380Y-69935478D01*
X153067380Y-69935478D02*
X153067380Y-69792621D01*
X153067380Y-70983097D02*
X153591190Y-70983097D01*
X153591190Y-70983097D02*
X153686428Y-70935478D01*
X153686428Y-70935478D02*
X153734047Y-70840240D01*
X153734047Y-70840240D02*
X153734047Y-70649764D01*
X153734047Y-70649764D02*
X153686428Y-70554526D01*
X153115000Y-70983097D02*
X153067380Y-70887859D01*
X153067380Y-70887859D02*
X153067380Y-70649764D01*
X153067380Y-70649764D02*
X153115000Y-70554526D01*
X153115000Y-70554526D02*
X153210238Y-70506907D01*
X153210238Y-70506907D02*
X153305476Y-70506907D01*
X153305476Y-70506907D02*
X153400714Y-70554526D01*
X153400714Y-70554526D02*
X153448333Y-70649764D01*
X153448333Y-70649764D02*
X153448333Y-70887859D01*
X153448333Y-70887859D02*
X153495952Y-70983097D01*
X153067380Y-71459288D02*
X153734047Y-71459288D01*
X153543571Y-71459288D02*
X153638809Y-71506907D01*
X153638809Y-71506907D02*
X153686428Y-71554526D01*
X153686428Y-71554526D02*
X153734047Y-71649764D01*
X153734047Y-71649764D02*
X153734047Y-71745002D01*
X153067380Y-72506907D02*
X154067380Y-72506907D01*
X153115000Y-72506907D02*
X153067380Y-72411669D01*
X153067380Y-72411669D02*
X153067380Y-72221193D01*
X153067380Y-72221193D02*
X153115000Y-72125955D01*
X153115000Y-72125955D02*
X153162619Y-72078336D01*
X153162619Y-72078336D02*
X153257857Y-72030717D01*
X153257857Y-72030717D02*
X153543571Y-72030717D01*
X153543571Y-72030717D02*
X153638809Y-72078336D01*
X153638809Y-72078336D02*
X153686428Y-72125955D01*
X153686428Y-72125955D02*
X153734047Y-72221193D01*
X153734047Y-72221193D02*
X153734047Y-72411669D01*
X153734047Y-72411669D02*
X153686428Y-72506907D01*
X151447380Y-47554523D02*
X151923571Y-47221190D01*
X151447380Y-46983095D02*
X152447380Y-46983095D01*
X152447380Y-46983095D02*
X152447380Y-47364047D01*
X152447380Y-47364047D02*
X152399761Y-47459285D01*
X152399761Y-47459285D02*
X152352142Y-47506904D01*
X152352142Y-47506904D02*
X152256904Y-47554523D01*
X152256904Y-47554523D02*
X152114047Y-47554523D01*
X152114047Y-47554523D02*
X152018809Y-47506904D01*
X152018809Y-47506904D02*
X151971190Y-47459285D01*
X151971190Y-47459285D02*
X151923571Y-47364047D01*
X151923571Y-47364047D02*
X151923571Y-46983095D01*
X151495000Y-48364047D02*
X151447380Y-48268809D01*
X151447380Y-48268809D02*
X151447380Y-48078333D01*
X151447380Y-48078333D02*
X151495000Y-47983095D01*
X151495000Y-47983095D02*
X151590238Y-47935476D01*
X151590238Y-47935476D02*
X151971190Y-47935476D01*
X151971190Y-47935476D02*
X152066428Y-47983095D01*
X152066428Y-47983095D02*
X152114047Y-48078333D01*
X152114047Y-48078333D02*
X152114047Y-48268809D01*
X152114047Y-48268809D02*
X152066428Y-48364047D01*
X152066428Y-48364047D02*
X151971190Y-48411666D01*
X151971190Y-48411666D02*
X151875952Y-48411666D01*
X151875952Y-48411666D02*
X151780714Y-47935476D01*
X152114047Y-48745000D02*
X151447380Y-48983095D01*
X151447380Y-48983095D02*
X152114047Y-49221190D01*
X151542619Y-49602143D02*
X151495000Y-49649762D01*
X151495000Y-49649762D02*
X151447380Y-49602143D01*
X151447380Y-49602143D02*
X151495000Y-49554524D01*
X151495000Y-49554524D02*
X151542619Y-49602143D01*
X151542619Y-49602143D02*
X151447380Y-49602143D01*
X151733095Y-50030714D02*
X151733095Y-50506904D01*
X151447380Y-49935476D02*
X152447380Y-50268809D01*
X152447380Y-50268809D02*
X151447380Y-50602142D01*
X152352142Y-51649762D02*
X152399761Y-51697381D01*
X152399761Y-51697381D02*
X152447380Y-51792619D01*
X152447380Y-51792619D02*
X152447380Y-52030714D01*
X152447380Y-52030714D02*
X152399761Y-52125952D01*
X152399761Y-52125952D02*
X152352142Y-52173571D01*
X152352142Y-52173571D02*
X152256904Y-52221190D01*
X152256904Y-52221190D02*
X152161666Y-52221190D01*
X152161666Y-52221190D02*
X152018809Y-52173571D01*
X152018809Y-52173571D02*
X151447380Y-51602143D01*
X151447380Y-51602143D02*
X151447380Y-52221190D01*
X152447380Y-52840238D02*
X152447380Y-52935476D01*
X152447380Y-52935476D02*
X152399761Y-53030714D01*
X152399761Y-53030714D02*
X152352142Y-53078333D01*
X152352142Y-53078333D02*
X152256904Y-53125952D01*
X152256904Y-53125952D02*
X152066428Y-53173571D01*
X152066428Y-53173571D02*
X151828333Y-53173571D01*
X151828333Y-53173571D02*
X151637857Y-53125952D01*
X151637857Y-53125952D02*
X151542619Y-53078333D01*
X151542619Y-53078333D02*
X151495000Y-53030714D01*
X151495000Y-53030714D02*
X151447380Y-52935476D01*
X151447380Y-52935476D02*
X151447380Y-52840238D01*
X151447380Y-52840238D02*
X151495000Y-52745000D01*
X151495000Y-52745000D02*
X151542619Y-52697381D01*
X151542619Y-52697381D02*
X151637857Y-52649762D01*
X151637857Y-52649762D02*
X151828333Y-52602143D01*
X151828333Y-52602143D02*
X152066428Y-52602143D01*
X152066428Y-52602143D02*
X152256904Y-52649762D01*
X152256904Y-52649762D02*
X152352142Y-52697381D01*
X152352142Y-52697381D02*
X152399761Y-52745000D01*
X152399761Y-52745000D02*
X152447380Y-52840238D01*
X152352142Y-53554524D02*
X152399761Y-53602143D01*
X152399761Y-53602143D02*
X152447380Y-53697381D01*
X152447380Y-53697381D02*
X152447380Y-53935476D01*
X152447380Y-53935476D02*
X152399761Y-54030714D01*
X152399761Y-54030714D02*
X152352142Y-54078333D01*
X152352142Y-54078333D02*
X152256904Y-54125952D01*
X152256904Y-54125952D02*
X152161666Y-54125952D01*
X152161666Y-54125952D02*
X152018809Y-54078333D01*
X152018809Y-54078333D02*
X151447380Y-53506905D01*
X151447380Y-53506905D02*
X151447380Y-54125952D01*
X152447380Y-54459286D02*
X152447380Y-55078333D01*
X152447380Y-55078333D02*
X152066428Y-54745000D01*
X152066428Y-54745000D02*
X152066428Y-54887857D01*
X152066428Y-54887857D02*
X152018809Y-54983095D01*
X152018809Y-54983095D02*
X151971190Y-55030714D01*
X151971190Y-55030714D02*
X151875952Y-55078333D01*
X151875952Y-55078333D02*
X151637857Y-55078333D01*
X151637857Y-55078333D02*
X151542619Y-55030714D01*
X151542619Y-55030714D02*
X151495000Y-54983095D01*
X151495000Y-54983095D02*
X151447380Y-54887857D01*
X151447380Y-54887857D02*
X151447380Y-54602143D01*
X151447380Y-54602143D02*
X151495000Y-54506905D01*
X151495000Y-54506905D02*
X151542619Y-54459286D01*
X151828333Y-55506905D02*
X151828333Y-56268810D01*
X152447380Y-56935476D02*
X152447380Y-57030714D01*
X152447380Y-57030714D02*
X152399761Y-57125952D01*
X152399761Y-57125952D02*
X152352142Y-57173571D01*
X152352142Y-57173571D02*
X152256904Y-57221190D01*
X152256904Y-57221190D02*
X152066428Y-57268809D01*
X152066428Y-57268809D02*
X151828333Y-57268809D01*
X151828333Y-57268809D02*
X151637857Y-57221190D01*
X151637857Y-57221190D02*
X151542619Y-57173571D01*
X151542619Y-57173571D02*
X151495000Y-57125952D01*
X151495000Y-57125952D02*
X151447380Y-57030714D01*
X151447380Y-57030714D02*
X151447380Y-56935476D01*
X151447380Y-56935476D02*
X151495000Y-56840238D01*
X151495000Y-56840238D02*
X151542619Y-56792619D01*
X151542619Y-56792619D02*
X151637857Y-56745000D01*
X151637857Y-56745000D02*
X151828333Y-56697381D01*
X151828333Y-56697381D02*
X152066428Y-56697381D01*
X152066428Y-56697381D02*
X152256904Y-56745000D01*
X152256904Y-56745000D02*
X152352142Y-56792619D01*
X152352142Y-56792619D02*
X152399761Y-56840238D01*
X152399761Y-56840238D02*
X152447380Y-56935476D01*
X152447380Y-57602143D02*
X152447380Y-58221190D01*
X152447380Y-58221190D02*
X152066428Y-57887857D01*
X152066428Y-57887857D02*
X152066428Y-58030714D01*
X152066428Y-58030714D02*
X152018809Y-58125952D01*
X152018809Y-58125952D02*
X151971190Y-58173571D01*
X151971190Y-58173571D02*
X151875952Y-58221190D01*
X151875952Y-58221190D02*
X151637857Y-58221190D01*
X151637857Y-58221190D02*
X151542619Y-58173571D01*
X151542619Y-58173571D02*
X151495000Y-58125952D01*
X151495000Y-58125952D02*
X151447380Y-58030714D01*
X151447380Y-58030714D02*
X151447380Y-57745000D01*
X151447380Y-57745000D02*
X151495000Y-57649762D01*
X151495000Y-57649762D02*
X151542619Y-57602143D01*
X151828333Y-58649762D02*
X151828333Y-59411667D01*
X151447380Y-60411666D02*
X151447380Y-59840238D01*
X151447380Y-60125952D02*
X152447380Y-60125952D01*
X152447380Y-60125952D02*
X152304523Y-60030714D01*
X152304523Y-60030714D02*
X152209285Y-59935476D01*
X152209285Y-59935476D02*
X152161666Y-59840238D01*
X152447380Y-61268809D02*
X152447380Y-61078333D01*
X152447380Y-61078333D02*
X152399761Y-60983095D01*
X152399761Y-60983095D02*
X152352142Y-60935476D01*
X152352142Y-60935476D02*
X152209285Y-60840238D01*
X152209285Y-60840238D02*
X152018809Y-60792619D01*
X152018809Y-60792619D02*
X151637857Y-60792619D01*
X151637857Y-60792619D02*
X151542619Y-60840238D01*
X151542619Y-60840238D02*
X151495000Y-60887857D01*
X151495000Y-60887857D02*
X151447380Y-60983095D01*
X151447380Y-60983095D02*
X151447380Y-61173571D01*
X151447380Y-61173571D02*
X151495000Y-61268809D01*
X151495000Y-61268809D02*
X151542619Y-61316428D01*
X151542619Y-61316428D02*
X151637857Y-61364047D01*
X151637857Y-61364047D02*
X151875952Y-61364047D01*
X151875952Y-61364047D02*
X151971190Y-61316428D01*
X151971190Y-61316428D02*
X152018809Y-61268809D01*
X152018809Y-61268809D02*
X152066428Y-61173571D01*
X152066428Y-61173571D02*
X152066428Y-60983095D01*
X152066428Y-60983095D02*
X152018809Y-60887857D01*
X152018809Y-60887857D02*
X151971190Y-60840238D01*
X151971190Y-60840238D02*
X151875952Y-60792619D01*
X149827380Y-46983095D02*
X150827380Y-46983095D01*
X150446428Y-46983095D02*
X150494047Y-47078333D01*
X150494047Y-47078333D02*
X150494047Y-47268809D01*
X150494047Y-47268809D02*
X150446428Y-47364047D01*
X150446428Y-47364047D02*
X150398809Y-47411666D01*
X150398809Y-47411666D02*
X150303571Y-47459285D01*
X150303571Y-47459285D02*
X150017857Y-47459285D01*
X150017857Y-47459285D02*
X149922619Y-47411666D01*
X149922619Y-47411666D02*
X149875000Y-47364047D01*
X149875000Y-47364047D02*
X149827380Y-47268809D01*
X149827380Y-47268809D02*
X149827380Y-47078333D01*
X149827380Y-47078333D02*
X149875000Y-46983095D01*
X150494047Y-47792619D02*
X149827380Y-48030714D01*
X150494047Y-48268809D02*
X149827380Y-48030714D01*
X149827380Y-48030714D02*
X149589285Y-47935476D01*
X149589285Y-47935476D02*
X149541666Y-47887857D01*
X149541666Y-47887857D02*
X149494047Y-47792619D01*
X150303571Y-50030714D02*
X150351190Y-49983095D01*
X150351190Y-49983095D02*
X150398809Y-49887857D01*
X150398809Y-49887857D02*
X150398809Y-49792619D01*
X150398809Y-49792619D02*
X150351190Y-49697381D01*
X150351190Y-49697381D02*
X150303571Y-49649762D01*
X150303571Y-49649762D02*
X150208333Y-49602143D01*
X150208333Y-49602143D02*
X150113095Y-49602143D01*
X150113095Y-49602143D02*
X150017857Y-49649762D01*
X150017857Y-49649762D02*
X149970238Y-49697381D01*
X149970238Y-49697381D02*
X149922619Y-49792619D01*
X149922619Y-49792619D02*
X149922619Y-49887857D01*
X149922619Y-49887857D02*
X149970238Y-49983095D01*
X149970238Y-49983095D02*
X150017857Y-50030714D01*
X150398809Y-50030714D02*
X150017857Y-50030714D01*
X150017857Y-50030714D02*
X149970238Y-50078333D01*
X149970238Y-50078333D02*
X149970238Y-50125952D01*
X149970238Y-50125952D02*
X150017857Y-50221191D01*
X150017857Y-50221191D02*
X150113095Y-50268810D01*
X150113095Y-50268810D02*
X150351190Y-50268810D01*
X150351190Y-50268810D02*
X150494047Y-50173572D01*
X150494047Y-50173572D02*
X150589285Y-50030714D01*
X150589285Y-50030714D02*
X150636904Y-49840238D01*
X150636904Y-49840238D02*
X150589285Y-49649762D01*
X150589285Y-49649762D02*
X150494047Y-49506905D01*
X150494047Y-49506905D02*
X150351190Y-49411667D01*
X150351190Y-49411667D02*
X150160714Y-49364048D01*
X150160714Y-49364048D02*
X149970238Y-49411667D01*
X149970238Y-49411667D02*
X149827380Y-49506905D01*
X149827380Y-49506905D02*
X149732142Y-49649762D01*
X149732142Y-49649762D02*
X149684523Y-49840238D01*
X149684523Y-49840238D02*
X149732142Y-50030714D01*
X149732142Y-50030714D02*
X149827380Y-50173572D01*
X149875000Y-51125952D02*
X149827380Y-51030714D01*
X149827380Y-51030714D02*
X149827380Y-50840238D01*
X149827380Y-50840238D02*
X149875000Y-50745000D01*
X149875000Y-50745000D02*
X149922619Y-50697381D01*
X149922619Y-50697381D02*
X150017857Y-50649762D01*
X150017857Y-50649762D02*
X150303571Y-50649762D01*
X150303571Y-50649762D02*
X150398809Y-50697381D01*
X150398809Y-50697381D02*
X150446428Y-50745000D01*
X150446428Y-50745000D02*
X150494047Y-50840238D01*
X150494047Y-50840238D02*
X150494047Y-51030714D01*
X150494047Y-51030714D02*
X150446428Y-51125952D01*
X149827380Y-51554524D02*
X150494047Y-51554524D01*
X150827380Y-51554524D02*
X150779761Y-51506905D01*
X150779761Y-51506905D02*
X150732142Y-51554524D01*
X150732142Y-51554524D02*
X150779761Y-51602143D01*
X150779761Y-51602143D02*
X150827380Y-51554524D01*
X150827380Y-51554524D02*
X150732142Y-51554524D01*
X150494047Y-52030714D02*
X149827380Y-52030714D01*
X150398809Y-52030714D02*
X150446428Y-52078333D01*
X150446428Y-52078333D02*
X150494047Y-52173571D01*
X150494047Y-52173571D02*
X150494047Y-52316428D01*
X150494047Y-52316428D02*
X150446428Y-52411666D01*
X150446428Y-52411666D02*
X150351190Y-52459285D01*
X150351190Y-52459285D02*
X149827380Y-52459285D01*
X149827380Y-52935476D02*
X150494047Y-52935476D01*
X150827380Y-52935476D02*
X150779761Y-52887857D01*
X150779761Y-52887857D02*
X150732142Y-52935476D01*
X150732142Y-52935476D02*
X150779761Y-52983095D01*
X150779761Y-52983095D02*
X150827380Y-52935476D01*
X150827380Y-52935476D02*
X150732142Y-52935476D01*
X149827380Y-53411666D02*
X150494047Y-53411666D01*
X150398809Y-53411666D02*
X150446428Y-53459285D01*
X150446428Y-53459285D02*
X150494047Y-53554523D01*
X150494047Y-53554523D02*
X150494047Y-53697380D01*
X150494047Y-53697380D02*
X150446428Y-53792618D01*
X150446428Y-53792618D02*
X150351190Y-53840237D01*
X150351190Y-53840237D02*
X149827380Y-53840237D01*
X150351190Y-53840237D02*
X150446428Y-53887856D01*
X150446428Y-53887856D02*
X150494047Y-53983094D01*
X150494047Y-53983094D02*
X150494047Y-54125951D01*
X150494047Y-54125951D02*
X150446428Y-54221190D01*
X150446428Y-54221190D02*
X150351190Y-54268809D01*
X150351190Y-54268809D02*
X149827380Y-54268809D01*
X149827380Y-54887856D02*
X149875000Y-54792618D01*
X149875000Y-54792618D02*
X149970238Y-54744999D01*
X149970238Y-54744999D02*
X150827380Y-54744999D01*
X138477380Y-48677900D02*
X138477380Y-49344566D01*
X138477380Y-49344566D02*
X137477380Y-48915995D01*
X138144047Y-50154090D02*
X137477380Y-50154090D01*
X138525000Y-49915995D02*
X137810714Y-49677900D01*
X137810714Y-49677900D02*
X137810714Y-50296947D01*
%TO.C,U1*%
X146097380Y-70748095D02*
X145287857Y-70748095D01*
X145287857Y-70748095D02*
X145192619Y-70795714D01*
X145192619Y-70795714D02*
X145145000Y-70843333D01*
X145145000Y-70843333D02*
X145097380Y-70938571D01*
X145097380Y-70938571D02*
X145097380Y-71129047D01*
X145097380Y-71129047D02*
X145145000Y-71224285D01*
X145145000Y-71224285D02*
X145192619Y-71271904D01*
X145192619Y-71271904D02*
X145287857Y-71319523D01*
X145287857Y-71319523D02*
X146097380Y-71319523D01*
X145097380Y-72319523D02*
X145097380Y-71748095D01*
X145097380Y-72033809D02*
X146097380Y-72033809D01*
X146097380Y-72033809D02*
X145954523Y-71938571D01*
X145954523Y-71938571D02*
X145859285Y-71843333D01*
X145859285Y-71843333D02*
X145811666Y-71748095D01*
%TO.C,J7*%
X102537380Y-37666666D02*
X101823095Y-37666666D01*
X101823095Y-37666666D02*
X101680238Y-37619047D01*
X101680238Y-37619047D02*
X101585000Y-37523809D01*
X101585000Y-37523809D02*
X101537380Y-37380952D01*
X101537380Y-37380952D02*
X101537380Y-37285714D01*
X102537380Y-38047619D02*
X102537380Y-38714285D01*
X102537380Y-38714285D02*
X101537380Y-38285714D01*
X85986095Y-42071428D02*
X85986095Y-42528571D01*
X85986095Y-42299999D02*
X85186095Y-42299999D01*
X85186095Y-42299999D02*
X85300380Y-42376190D01*
X85300380Y-42376190D02*
X85376571Y-42452380D01*
X85376571Y-42452380D02*
X85414666Y-42528571D01*
%TO.C,SW7*%
X111841667Y-103855000D02*
X111984524Y-103902619D01*
X111984524Y-103902619D02*
X112222619Y-103902619D01*
X112222619Y-103902619D02*
X112317857Y-103855000D01*
X112317857Y-103855000D02*
X112365476Y-103807380D01*
X112365476Y-103807380D02*
X112413095Y-103712142D01*
X112413095Y-103712142D02*
X112413095Y-103616904D01*
X112413095Y-103616904D02*
X112365476Y-103521666D01*
X112365476Y-103521666D02*
X112317857Y-103474047D01*
X112317857Y-103474047D02*
X112222619Y-103426428D01*
X112222619Y-103426428D02*
X112032143Y-103378809D01*
X112032143Y-103378809D02*
X111936905Y-103331190D01*
X111936905Y-103331190D02*
X111889286Y-103283571D01*
X111889286Y-103283571D02*
X111841667Y-103188333D01*
X111841667Y-103188333D02*
X111841667Y-103093095D01*
X111841667Y-103093095D02*
X111889286Y-102997857D01*
X111889286Y-102997857D02*
X111936905Y-102950238D01*
X111936905Y-102950238D02*
X112032143Y-102902619D01*
X112032143Y-102902619D02*
X112270238Y-102902619D01*
X112270238Y-102902619D02*
X112413095Y-102950238D01*
X112746429Y-102902619D02*
X112984524Y-103902619D01*
X112984524Y-103902619D02*
X113175000Y-103188333D01*
X113175000Y-103188333D02*
X113365476Y-103902619D01*
X113365476Y-103902619D02*
X113603572Y-102902619D01*
X113889286Y-102902619D02*
X114555952Y-102902619D01*
X114555952Y-102902619D02*
X114127381Y-103902619D01*
%TO.C,J6*%
X125537380Y-37666666D02*
X124823095Y-37666666D01*
X124823095Y-37666666D02*
X124680238Y-37619047D01*
X124680238Y-37619047D02*
X124585000Y-37523809D01*
X124585000Y-37523809D02*
X124537380Y-37380952D01*
X124537380Y-37380952D02*
X124537380Y-37285714D01*
X125537380Y-38571428D02*
X125537380Y-38380952D01*
X125537380Y-38380952D02*
X125489761Y-38285714D01*
X125489761Y-38285714D02*
X125442142Y-38238095D01*
X125442142Y-38238095D02*
X125299285Y-38142857D01*
X125299285Y-38142857D02*
X125108809Y-38095238D01*
X125108809Y-38095238D02*
X124727857Y-38095238D01*
X124727857Y-38095238D02*
X124632619Y-38142857D01*
X124632619Y-38142857D02*
X124585000Y-38190476D01*
X124585000Y-38190476D02*
X124537380Y-38285714D01*
X124537380Y-38285714D02*
X124537380Y-38476190D01*
X124537380Y-38476190D02*
X124585000Y-38571428D01*
X124585000Y-38571428D02*
X124632619Y-38619047D01*
X124632619Y-38619047D02*
X124727857Y-38666666D01*
X124727857Y-38666666D02*
X124965952Y-38666666D01*
X124965952Y-38666666D02*
X125061190Y-38619047D01*
X125061190Y-38619047D02*
X125108809Y-38571428D01*
X125108809Y-38571428D02*
X125156428Y-38476190D01*
X125156428Y-38476190D02*
X125156428Y-38285714D01*
X125156428Y-38285714D02*
X125108809Y-38190476D01*
X125108809Y-38190476D02*
X125061190Y-38142857D01*
X125061190Y-38142857D02*
X124965952Y-38095238D01*
X108846095Y-42071428D02*
X108846095Y-42528571D01*
X108846095Y-42299999D02*
X108046095Y-42299999D01*
X108046095Y-42299999D02*
X108160380Y-42376190D01*
X108160380Y-42376190D02*
X108236571Y-42452380D01*
X108236571Y-42452380D02*
X108274666Y-42528571D01*
%TO.C,R5*%
X119697380Y-71208333D02*
X120173571Y-70875000D01*
X119697380Y-70636905D02*
X120697380Y-70636905D01*
X120697380Y-70636905D02*
X120697380Y-71017857D01*
X120697380Y-71017857D02*
X120649761Y-71113095D01*
X120649761Y-71113095D02*
X120602142Y-71160714D01*
X120602142Y-71160714D02*
X120506904Y-71208333D01*
X120506904Y-71208333D02*
X120364047Y-71208333D01*
X120364047Y-71208333D02*
X120268809Y-71160714D01*
X120268809Y-71160714D02*
X120221190Y-71113095D01*
X120221190Y-71113095D02*
X120173571Y-71017857D01*
X120173571Y-71017857D02*
X120173571Y-70636905D01*
X120697380Y-72113095D02*
X120697380Y-71636905D01*
X120697380Y-71636905D02*
X120221190Y-71589286D01*
X120221190Y-71589286D02*
X120268809Y-71636905D01*
X120268809Y-71636905D02*
X120316428Y-71732143D01*
X120316428Y-71732143D02*
X120316428Y-71970238D01*
X120316428Y-71970238D02*
X120268809Y-72065476D01*
X120268809Y-72065476D02*
X120221190Y-72113095D01*
X120221190Y-72113095D02*
X120125952Y-72160714D01*
X120125952Y-72160714D02*
X119887857Y-72160714D01*
X119887857Y-72160714D02*
X119792619Y-72113095D01*
X119792619Y-72113095D02*
X119745000Y-72065476D01*
X119745000Y-72065476D02*
X119697380Y-71970238D01*
X119697380Y-71970238D02*
X119697380Y-71732143D01*
X119697380Y-71732143D02*
X119745000Y-71636905D01*
X119745000Y-71636905D02*
X119792619Y-71589286D01*
%TO.C,R2*%
X129857380Y-71851333D02*
X130333571Y-71518000D01*
X129857380Y-71279905D02*
X130857380Y-71279905D01*
X130857380Y-71279905D02*
X130857380Y-71660857D01*
X130857380Y-71660857D02*
X130809761Y-71756095D01*
X130809761Y-71756095D02*
X130762142Y-71803714D01*
X130762142Y-71803714D02*
X130666904Y-71851333D01*
X130666904Y-71851333D02*
X130524047Y-71851333D01*
X130524047Y-71851333D02*
X130428809Y-71803714D01*
X130428809Y-71803714D02*
X130381190Y-71756095D01*
X130381190Y-71756095D02*
X130333571Y-71660857D01*
X130333571Y-71660857D02*
X130333571Y-71279905D01*
X130762142Y-72232286D02*
X130809761Y-72279905D01*
X130809761Y-72279905D02*
X130857380Y-72375143D01*
X130857380Y-72375143D02*
X130857380Y-72613238D01*
X130857380Y-72613238D02*
X130809761Y-72708476D01*
X130809761Y-72708476D02*
X130762142Y-72756095D01*
X130762142Y-72756095D02*
X130666904Y-72803714D01*
X130666904Y-72803714D02*
X130571666Y-72803714D01*
X130571666Y-72803714D02*
X130428809Y-72756095D01*
X130428809Y-72756095D02*
X129857380Y-72184667D01*
X129857380Y-72184667D02*
X129857380Y-72803714D01*
%TO.C,R8*%
X106997380Y-71208333D02*
X107473571Y-70875000D01*
X106997380Y-70636905D02*
X107997380Y-70636905D01*
X107997380Y-70636905D02*
X107997380Y-71017857D01*
X107997380Y-71017857D02*
X107949761Y-71113095D01*
X107949761Y-71113095D02*
X107902142Y-71160714D01*
X107902142Y-71160714D02*
X107806904Y-71208333D01*
X107806904Y-71208333D02*
X107664047Y-71208333D01*
X107664047Y-71208333D02*
X107568809Y-71160714D01*
X107568809Y-71160714D02*
X107521190Y-71113095D01*
X107521190Y-71113095D02*
X107473571Y-71017857D01*
X107473571Y-71017857D02*
X107473571Y-70636905D01*
X107568809Y-71779762D02*
X107616428Y-71684524D01*
X107616428Y-71684524D02*
X107664047Y-71636905D01*
X107664047Y-71636905D02*
X107759285Y-71589286D01*
X107759285Y-71589286D02*
X107806904Y-71589286D01*
X107806904Y-71589286D02*
X107902142Y-71636905D01*
X107902142Y-71636905D02*
X107949761Y-71684524D01*
X107949761Y-71684524D02*
X107997380Y-71779762D01*
X107997380Y-71779762D02*
X107997380Y-71970238D01*
X107997380Y-71970238D02*
X107949761Y-72065476D01*
X107949761Y-72065476D02*
X107902142Y-72113095D01*
X107902142Y-72113095D02*
X107806904Y-72160714D01*
X107806904Y-72160714D02*
X107759285Y-72160714D01*
X107759285Y-72160714D02*
X107664047Y-72113095D01*
X107664047Y-72113095D02*
X107616428Y-72065476D01*
X107616428Y-72065476D02*
X107568809Y-71970238D01*
X107568809Y-71970238D02*
X107568809Y-71779762D01*
X107568809Y-71779762D02*
X107521190Y-71684524D01*
X107521190Y-71684524D02*
X107473571Y-71636905D01*
X107473571Y-71636905D02*
X107378333Y-71589286D01*
X107378333Y-71589286D02*
X107187857Y-71589286D01*
X107187857Y-71589286D02*
X107092619Y-71636905D01*
X107092619Y-71636905D02*
X107045000Y-71684524D01*
X107045000Y-71684524D02*
X106997380Y-71779762D01*
X106997380Y-71779762D02*
X106997380Y-71970238D01*
X106997380Y-71970238D02*
X107045000Y-72065476D01*
X107045000Y-72065476D02*
X107092619Y-72113095D01*
X107092619Y-72113095D02*
X107187857Y-72160714D01*
X107187857Y-72160714D02*
X107378333Y-72160714D01*
X107378333Y-72160714D02*
X107473571Y-72113095D01*
X107473571Y-72113095D02*
X107521190Y-72065476D01*
X107521190Y-72065476D02*
X107568809Y-71970238D01*
%TO.C,R1*%
X129258619Y-68882666D02*
X128782428Y-69215999D01*
X129258619Y-69454094D02*
X128258619Y-69454094D01*
X128258619Y-69454094D02*
X128258619Y-69073142D01*
X128258619Y-69073142D02*
X128306238Y-68977904D01*
X128306238Y-68977904D02*
X128353857Y-68930285D01*
X128353857Y-68930285D02*
X128449095Y-68882666D01*
X128449095Y-68882666D02*
X128591952Y-68882666D01*
X128591952Y-68882666D02*
X128687190Y-68930285D01*
X128687190Y-68930285D02*
X128734809Y-68977904D01*
X128734809Y-68977904D02*
X128782428Y-69073142D01*
X128782428Y-69073142D02*
X128782428Y-69454094D01*
X129258619Y-67930285D02*
X129258619Y-68501713D01*
X129258619Y-68215999D02*
X128258619Y-68215999D01*
X128258619Y-68215999D02*
X128401476Y-68311237D01*
X128401476Y-68311237D02*
X128496714Y-68406475D01*
X128496714Y-68406475D02*
X128544333Y-68501713D01*
%TO.C,R3*%
X124777380Y-71208333D02*
X125253571Y-70875000D01*
X124777380Y-70636905D02*
X125777380Y-70636905D01*
X125777380Y-70636905D02*
X125777380Y-71017857D01*
X125777380Y-71017857D02*
X125729761Y-71113095D01*
X125729761Y-71113095D02*
X125682142Y-71160714D01*
X125682142Y-71160714D02*
X125586904Y-71208333D01*
X125586904Y-71208333D02*
X125444047Y-71208333D01*
X125444047Y-71208333D02*
X125348809Y-71160714D01*
X125348809Y-71160714D02*
X125301190Y-71113095D01*
X125301190Y-71113095D02*
X125253571Y-71017857D01*
X125253571Y-71017857D02*
X125253571Y-70636905D01*
X125777380Y-71541667D02*
X125777380Y-72160714D01*
X125777380Y-72160714D02*
X125396428Y-71827381D01*
X125396428Y-71827381D02*
X125396428Y-71970238D01*
X125396428Y-71970238D02*
X125348809Y-72065476D01*
X125348809Y-72065476D02*
X125301190Y-72113095D01*
X125301190Y-72113095D02*
X125205952Y-72160714D01*
X125205952Y-72160714D02*
X124967857Y-72160714D01*
X124967857Y-72160714D02*
X124872619Y-72113095D01*
X124872619Y-72113095D02*
X124825000Y-72065476D01*
X124825000Y-72065476D02*
X124777380Y-71970238D01*
X124777380Y-71970238D02*
X124777380Y-71684524D01*
X124777380Y-71684524D02*
X124825000Y-71589286D01*
X124825000Y-71589286D02*
X124872619Y-71541667D01*
%TO.C,SW5*%
X119461667Y-103855000D02*
X119604524Y-103902619D01*
X119604524Y-103902619D02*
X119842619Y-103902619D01*
X119842619Y-103902619D02*
X119937857Y-103855000D01*
X119937857Y-103855000D02*
X119985476Y-103807380D01*
X119985476Y-103807380D02*
X120033095Y-103712142D01*
X120033095Y-103712142D02*
X120033095Y-103616904D01*
X120033095Y-103616904D02*
X119985476Y-103521666D01*
X119985476Y-103521666D02*
X119937857Y-103474047D01*
X119937857Y-103474047D02*
X119842619Y-103426428D01*
X119842619Y-103426428D02*
X119652143Y-103378809D01*
X119652143Y-103378809D02*
X119556905Y-103331190D01*
X119556905Y-103331190D02*
X119509286Y-103283571D01*
X119509286Y-103283571D02*
X119461667Y-103188333D01*
X119461667Y-103188333D02*
X119461667Y-103093095D01*
X119461667Y-103093095D02*
X119509286Y-102997857D01*
X119509286Y-102997857D02*
X119556905Y-102950238D01*
X119556905Y-102950238D02*
X119652143Y-102902619D01*
X119652143Y-102902619D02*
X119890238Y-102902619D01*
X119890238Y-102902619D02*
X120033095Y-102950238D01*
X120366429Y-102902619D02*
X120604524Y-103902619D01*
X120604524Y-103902619D02*
X120795000Y-103188333D01*
X120795000Y-103188333D02*
X120985476Y-103902619D01*
X120985476Y-103902619D02*
X121223572Y-102902619D01*
X122080714Y-102902619D02*
X121604524Y-102902619D01*
X121604524Y-102902619D02*
X121556905Y-103378809D01*
X121556905Y-103378809D02*
X121604524Y-103331190D01*
X121604524Y-103331190D02*
X121699762Y-103283571D01*
X121699762Y-103283571D02*
X121937857Y-103283571D01*
X121937857Y-103283571D02*
X122033095Y-103331190D01*
X122033095Y-103331190D02*
X122080714Y-103378809D01*
X122080714Y-103378809D02*
X122128333Y-103474047D01*
X122128333Y-103474047D02*
X122128333Y-103712142D01*
X122128333Y-103712142D02*
X122080714Y-103807380D01*
X122080714Y-103807380D02*
X122033095Y-103855000D01*
X122033095Y-103855000D02*
X121937857Y-103902619D01*
X121937857Y-103902619D02*
X121699762Y-103902619D01*
X121699762Y-103902619D02*
X121604524Y-103855000D01*
X121604524Y-103855000D02*
X121556905Y-103807380D01*
%TO.C,R6*%
X114617380Y-71208333D02*
X115093571Y-70875000D01*
X114617380Y-70636905D02*
X115617380Y-70636905D01*
X115617380Y-70636905D02*
X115617380Y-71017857D01*
X115617380Y-71017857D02*
X115569761Y-71113095D01*
X115569761Y-71113095D02*
X115522142Y-71160714D01*
X115522142Y-71160714D02*
X115426904Y-71208333D01*
X115426904Y-71208333D02*
X115284047Y-71208333D01*
X115284047Y-71208333D02*
X115188809Y-71160714D01*
X115188809Y-71160714D02*
X115141190Y-71113095D01*
X115141190Y-71113095D02*
X115093571Y-71017857D01*
X115093571Y-71017857D02*
X115093571Y-70636905D01*
X115617380Y-72065476D02*
X115617380Y-71875000D01*
X115617380Y-71875000D02*
X115569761Y-71779762D01*
X115569761Y-71779762D02*
X115522142Y-71732143D01*
X115522142Y-71732143D02*
X115379285Y-71636905D01*
X115379285Y-71636905D02*
X115188809Y-71589286D01*
X115188809Y-71589286D02*
X114807857Y-71589286D01*
X114807857Y-71589286D02*
X114712619Y-71636905D01*
X114712619Y-71636905D02*
X114665000Y-71684524D01*
X114665000Y-71684524D02*
X114617380Y-71779762D01*
X114617380Y-71779762D02*
X114617380Y-71970238D01*
X114617380Y-71970238D02*
X114665000Y-72065476D01*
X114665000Y-72065476D02*
X114712619Y-72113095D01*
X114712619Y-72113095D02*
X114807857Y-72160714D01*
X114807857Y-72160714D02*
X115045952Y-72160714D01*
X115045952Y-72160714D02*
X115141190Y-72113095D01*
X115141190Y-72113095D02*
X115188809Y-72065476D01*
X115188809Y-72065476D02*
X115236428Y-71970238D01*
X115236428Y-71970238D02*
X115236428Y-71779762D01*
X115236428Y-71779762D02*
X115188809Y-71684524D01*
X115188809Y-71684524D02*
X115141190Y-71636905D01*
X115141190Y-71636905D02*
X115045952Y-71589286D01*
%TO.C,SW8*%
X108031667Y-103855000D02*
X108174524Y-103902619D01*
X108174524Y-103902619D02*
X108412619Y-103902619D01*
X108412619Y-103902619D02*
X108507857Y-103855000D01*
X108507857Y-103855000D02*
X108555476Y-103807380D01*
X108555476Y-103807380D02*
X108603095Y-103712142D01*
X108603095Y-103712142D02*
X108603095Y-103616904D01*
X108603095Y-103616904D02*
X108555476Y-103521666D01*
X108555476Y-103521666D02*
X108507857Y-103474047D01*
X108507857Y-103474047D02*
X108412619Y-103426428D01*
X108412619Y-103426428D02*
X108222143Y-103378809D01*
X108222143Y-103378809D02*
X108126905Y-103331190D01*
X108126905Y-103331190D02*
X108079286Y-103283571D01*
X108079286Y-103283571D02*
X108031667Y-103188333D01*
X108031667Y-103188333D02*
X108031667Y-103093095D01*
X108031667Y-103093095D02*
X108079286Y-102997857D01*
X108079286Y-102997857D02*
X108126905Y-102950238D01*
X108126905Y-102950238D02*
X108222143Y-102902619D01*
X108222143Y-102902619D02*
X108460238Y-102902619D01*
X108460238Y-102902619D02*
X108603095Y-102950238D01*
X108936429Y-102902619D02*
X109174524Y-103902619D01*
X109174524Y-103902619D02*
X109365000Y-103188333D01*
X109365000Y-103188333D02*
X109555476Y-103902619D01*
X109555476Y-103902619D02*
X109793572Y-102902619D01*
X110317381Y-103331190D02*
X110222143Y-103283571D01*
X110222143Y-103283571D02*
X110174524Y-103235952D01*
X110174524Y-103235952D02*
X110126905Y-103140714D01*
X110126905Y-103140714D02*
X110126905Y-103093095D01*
X110126905Y-103093095D02*
X110174524Y-102997857D01*
X110174524Y-102997857D02*
X110222143Y-102950238D01*
X110222143Y-102950238D02*
X110317381Y-102902619D01*
X110317381Y-102902619D02*
X110507857Y-102902619D01*
X110507857Y-102902619D02*
X110603095Y-102950238D01*
X110603095Y-102950238D02*
X110650714Y-102997857D01*
X110650714Y-102997857D02*
X110698333Y-103093095D01*
X110698333Y-103093095D02*
X110698333Y-103140714D01*
X110698333Y-103140714D02*
X110650714Y-103235952D01*
X110650714Y-103235952D02*
X110603095Y-103283571D01*
X110603095Y-103283571D02*
X110507857Y-103331190D01*
X110507857Y-103331190D02*
X110317381Y-103331190D01*
X110317381Y-103331190D02*
X110222143Y-103378809D01*
X110222143Y-103378809D02*
X110174524Y-103426428D01*
X110174524Y-103426428D02*
X110126905Y-103521666D01*
X110126905Y-103521666D02*
X110126905Y-103712142D01*
X110126905Y-103712142D02*
X110174524Y-103807380D01*
X110174524Y-103807380D02*
X110222143Y-103855000D01*
X110222143Y-103855000D02*
X110317381Y-103902619D01*
X110317381Y-103902619D02*
X110507857Y-103902619D01*
X110507857Y-103902619D02*
X110603095Y-103855000D01*
X110603095Y-103855000D02*
X110650714Y-103807380D01*
X110650714Y-103807380D02*
X110698333Y-103712142D01*
X110698333Y-103712142D02*
X110698333Y-103521666D01*
X110698333Y-103521666D02*
X110650714Y-103426428D01*
X110650714Y-103426428D02*
X110603095Y-103378809D01*
X110603095Y-103378809D02*
X110507857Y-103331190D01*
%TO.C,SW4*%
X123271667Y-103675000D02*
X123414524Y-103722619D01*
X123414524Y-103722619D02*
X123652619Y-103722619D01*
X123652619Y-103722619D02*
X123747857Y-103675000D01*
X123747857Y-103675000D02*
X123795476Y-103627380D01*
X123795476Y-103627380D02*
X123843095Y-103532142D01*
X123843095Y-103532142D02*
X123843095Y-103436904D01*
X123843095Y-103436904D02*
X123795476Y-103341666D01*
X123795476Y-103341666D02*
X123747857Y-103294047D01*
X123747857Y-103294047D02*
X123652619Y-103246428D01*
X123652619Y-103246428D02*
X123462143Y-103198809D01*
X123462143Y-103198809D02*
X123366905Y-103151190D01*
X123366905Y-103151190D02*
X123319286Y-103103571D01*
X123319286Y-103103571D02*
X123271667Y-103008333D01*
X123271667Y-103008333D02*
X123271667Y-102913095D01*
X123271667Y-102913095D02*
X123319286Y-102817857D01*
X123319286Y-102817857D02*
X123366905Y-102770238D01*
X123366905Y-102770238D02*
X123462143Y-102722619D01*
X123462143Y-102722619D02*
X123700238Y-102722619D01*
X123700238Y-102722619D02*
X123843095Y-102770238D01*
X124176429Y-102722619D02*
X124414524Y-103722619D01*
X124414524Y-103722619D02*
X124605000Y-103008333D01*
X124605000Y-103008333D02*
X124795476Y-103722619D01*
X124795476Y-103722619D02*
X125033572Y-102722619D01*
X125843095Y-103055952D02*
X125843095Y-103722619D01*
X125605000Y-102675000D02*
X125366905Y-103389285D01*
X125366905Y-103389285D02*
X125985952Y-103389285D01*
%TO.C,R7*%
X109537380Y-71208333D02*
X110013571Y-70875000D01*
X109537380Y-70636905D02*
X110537380Y-70636905D01*
X110537380Y-70636905D02*
X110537380Y-71017857D01*
X110537380Y-71017857D02*
X110489761Y-71113095D01*
X110489761Y-71113095D02*
X110442142Y-71160714D01*
X110442142Y-71160714D02*
X110346904Y-71208333D01*
X110346904Y-71208333D02*
X110204047Y-71208333D01*
X110204047Y-71208333D02*
X110108809Y-71160714D01*
X110108809Y-71160714D02*
X110061190Y-71113095D01*
X110061190Y-71113095D02*
X110013571Y-71017857D01*
X110013571Y-71017857D02*
X110013571Y-70636905D01*
X110537380Y-71541667D02*
X110537380Y-72208333D01*
X110537380Y-72208333D02*
X109537380Y-71779762D01*
%TO.C,SW1*%
X134701667Y-103675000D02*
X134844524Y-103722619D01*
X134844524Y-103722619D02*
X135082619Y-103722619D01*
X135082619Y-103722619D02*
X135177857Y-103675000D01*
X135177857Y-103675000D02*
X135225476Y-103627380D01*
X135225476Y-103627380D02*
X135273095Y-103532142D01*
X135273095Y-103532142D02*
X135273095Y-103436904D01*
X135273095Y-103436904D02*
X135225476Y-103341666D01*
X135225476Y-103341666D02*
X135177857Y-103294047D01*
X135177857Y-103294047D02*
X135082619Y-103246428D01*
X135082619Y-103246428D02*
X134892143Y-103198809D01*
X134892143Y-103198809D02*
X134796905Y-103151190D01*
X134796905Y-103151190D02*
X134749286Y-103103571D01*
X134749286Y-103103571D02*
X134701667Y-103008333D01*
X134701667Y-103008333D02*
X134701667Y-102913095D01*
X134701667Y-102913095D02*
X134749286Y-102817857D01*
X134749286Y-102817857D02*
X134796905Y-102770238D01*
X134796905Y-102770238D02*
X134892143Y-102722619D01*
X134892143Y-102722619D02*
X135130238Y-102722619D01*
X135130238Y-102722619D02*
X135273095Y-102770238D01*
X135606429Y-102722619D02*
X135844524Y-103722619D01*
X135844524Y-103722619D02*
X136035000Y-103008333D01*
X136035000Y-103008333D02*
X136225476Y-103722619D01*
X136225476Y-103722619D02*
X136463572Y-102722619D01*
X137368333Y-103722619D02*
X136796905Y-103722619D01*
X137082619Y-103722619D02*
X137082619Y-102722619D01*
X137082619Y-102722619D02*
X136987381Y-102865476D01*
X136987381Y-102865476D02*
X136892143Y-102960714D01*
X136892143Y-102960714D02*
X136796905Y-103008333D01*
%TO.C,SW3*%
X127081667Y-103675000D02*
X127224524Y-103722619D01*
X127224524Y-103722619D02*
X127462619Y-103722619D01*
X127462619Y-103722619D02*
X127557857Y-103675000D01*
X127557857Y-103675000D02*
X127605476Y-103627380D01*
X127605476Y-103627380D02*
X127653095Y-103532142D01*
X127653095Y-103532142D02*
X127653095Y-103436904D01*
X127653095Y-103436904D02*
X127605476Y-103341666D01*
X127605476Y-103341666D02*
X127557857Y-103294047D01*
X127557857Y-103294047D02*
X127462619Y-103246428D01*
X127462619Y-103246428D02*
X127272143Y-103198809D01*
X127272143Y-103198809D02*
X127176905Y-103151190D01*
X127176905Y-103151190D02*
X127129286Y-103103571D01*
X127129286Y-103103571D02*
X127081667Y-103008333D01*
X127081667Y-103008333D02*
X127081667Y-102913095D01*
X127081667Y-102913095D02*
X127129286Y-102817857D01*
X127129286Y-102817857D02*
X127176905Y-102770238D01*
X127176905Y-102770238D02*
X127272143Y-102722619D01*
X127272143Y-102722619D02*
X127510238Y-102722619D01*
X127510238Y-102722619D02*
X127653095Y-102770238D01*
X127986429Y-102722619D02*
X128224524Y-103722619D01*
X128224524Y-103722619D02*
X128415000Y-103008333D01*
X128415000Y-103008333D02*
X128605476Y-103722619D01*
X128605476Y-103722619D02*
X128843572Y-102722619D01*
X129129286Y-102722619D02*
X129748333Y-102722619D01*
X129748333Y-102722619D02*
X129415000Y-103103571D01*
X129415000Y-103103571D02*
X129557857Y-103103571D01*
X129557857Y-103103571D02*
X129653095Y-103151190D01*
X129653095Y-103151190D02*
X129700714Y-103198809D01*
X129700714Y-103198809D02*
X129748333Y-103294047D01*
X129748333Y-103294047D02*
X129748333Y-103532142D01*
X129748333Y-103532142D02*
X129700714Y-103627380D01*
X129700714Y-103627380D02*
X129653095Y-103675000D01*
X129653095Y-103675000D02*
X129557857Y-103722619D01*
X129557857Y-103722619D02*
X129272143Y-103722619D01*
X129272143Y-103722619D02*
X129176905Y-103675000D01*
X129176905Y-103675000D02*
X129129286Y-103627380D01*
%TO.C,R4*%
X122237380Y-71208333D02*
X122713571Y-70875000D01*
X122237380Y-70636905D02*
X123237380Y-70636905D01*
X123237380Y-70636905D02*
X123237380Y-71017857D01*
X123237380Y-71017857D02*
X123189761Y-71113095D01*
X123189761Y-71113095D02*
X123142142Y-71160714D01*
X123142142Y-71160714D02*
X123046904Y-71208333D01*
X123046904Y-71208333D02*
X122904047Y-71208333D01*
X122904047Y-71208333D02*
X122808809Y-71160714D01*
X122808809Y-71160714D02*
X122761190Y-71113095D01*
X122761190Y-71113095D02*
X122713571Y-71017857D01*
X122713571Y-71017857D02*
X122713571Y-70636905D01*
X122904047Y-72065476D02*
X122237380Y-72065476D01*
X123285000Y-71827381D02*
X122570714Y-71589286D01*
X122570714Y-71589286D02*
X122570714Y-72208333D01*
%TO.C,SW6*%
X115651667Y-103855000D02*
X115794524Y-103902619D01*
X115794524Y-103902619D02*
X116032619Y-103902619D01*
X116032619Y-103902619D02*
X116127857Y-103855000D01*
X116127857Y-103855000D02*
X116175476Y-103807380D01*
X116175476Y-103807380D02*
X116223095Y-103712142D01*
X116223095Y-103712142D02*
X116223095Y-103616904D01*
X116223095Y-103616904D02*
X116175476Y-103521666D01*
X116175476Y-103521666D02*
X116127857Y-103474047D01*
X116127857Y-103474047D02*
X116032619Y-103426428D01*
X116032619Y-103426428D02*
X115842143Y-103378809D01*
X115842143Y-103378809D02*
X115746905Y-103331190D01*
X115746905Y-103331190D02*
X115699286Y-103283571D01*
X115699286Y-103283571D02*
X115651667Y-103188333D01*
X115651667Y-103188333D02*
X115651667Y-103093095D01*
X115651667Y-103093095D02*
X115699286Y-102997857D01*
X115699286Y-102997857D02*
X115746905Y-102950238D01*
X115746905Y-102950238D02*
X115842143Y-102902619D01*
X115842143Y-102902619D02*
X116080238Y-102902619D01*
X116080238Y-102902619D02*
X116223095Y-102950238D01*
X116556429Y-102902619D02*
X116794524Y-103902619D01*
X116794524Y-103902619D02*
X116985000Y-103188333D01*
X116985000Y-103188333D02*
X117175476Y-103902619D01*
X117175476Y-103902619D02*
X117413572Y-102902619D01*
X118223095Y-102902619D02*
X118032619Y-102902619D01*
X118032619Y-102902619D02*
X117937381Y-102950238D01*
X117937381Y-102950238D02*
X117889762Y-102997857D01*
X117889762Y-102997857D02*
X117794524Y-103140714D01*
X117794524Y-103140714D02*
X117746905Y-103331190D01*
X117746905Y-103331190D02*
X117746905Y-103712142D01*
X117746905Y-103712142D02*
X117794524Y-103807380D01*
X117794524Y-103807380D02*
X117842143Y-103855000D01*
X117842143Y-103855000D02*
X117937381Y-103902619D01*
X117937381Y-103902619D02*
X118127857Y-103902619D01*
X118127857Y-103902619D02*
X118223095Y-103855000D01*
X118223095Y-103855000D02*
X118270714Y-103807380D01*
X118270714Y-103807380D02*
X118318333Y-103712142D01*
X118318333Y-103712142D02*
X118318333Y-103474047D01*
X118318333Y-103474047D02*
X118270714Y-103378809D01*
X118270714Y-103378809D02*
X118223095Y-103331190D01*
X118223095Y-103331190D02*
X118127857Y-103283571D01*
X118127857Y-103283571D02*
X117937381Y-103283571D01*
X117937381Y-103283571D02*
X117842143Y-103331190D01*
X117842143Y-103331190D02*
X117794524Y-103378809D01*
X117794524Y-103378809D02*
X117746905Y-103474047D01*
%TO.C,SW2*%
X130891667Y-103675000D02*
X131034524Y-103722619D01*
X131034524Y-103722619D02*
X131272619Y-103722619D01*
X131272619Y-103722619D02*
X131367857Y-103675000D01*
X131367857Y-103675000D02*
X131415476Y-103627380D01*
X131415476Y-103627380D02*
X131463095Y-103532142D01*
X131463095Y-103532142D02*
X131463095Y-103436904D01*
X131463095Y-103436904D02*
X131415476Y-103341666D01*
X131415476Y-103341666D02*
X131367857Y-103294047D01*
X131367857Y-103294047D02*
X131272619Y-103246428D01*
X131272619Y-103246428D02*
X131082143Y-103198809D01*
X131082143Y-103198809D02*
X130986905Y-103151190D01*
X130986905Y-103151190D02*
X130939286Y-103103571D01*
X130939286Y-103103571D02*
X130891667Y-103008333D01*
X130891667Y-103008333D02*
X130891667Y-102913095D01*
X130891667Y-102913095D02*
X130939286Y-102817857D01*
X130939286Y-102817857D02*
X130986905Y-102770238D01*
X130986905Y-102770238D02*
X131082143Y-102722619D01*
X131082143Y-102722619D02*
X131320238Y-102722619D01*
X131320238Y-102722619D02*
X131463095Y-102770238D01*
X131796429Y-102722619D02*
X132034524Y-103722619D01*
X132034524Y-103722619D02*
X132225000Y-103008333D01*
X132225000Y-103008333D02*
X132415476Y-103722619D01*
X132415476Y-103722619D02*
X132653572Y-102722619D01*
X132986905Y-102817857D02*
X133034524Y-102770238D01*
X133034524Y-102770238D02*
X133129762Y-102722619D01*
X133129762Y-102722619D02*
X133367857Y-102722619D01*
X133367857Y-102722619D02*
X133463095Y-102770238D01*
X133463095Y-102770238D02*
X133510714Y-102817857D01*
X133510714Y-102817857D02*
X133558333Y-102913095D01*
X133558333Y-102913095D02*
X133558333Y-103008333D01*
X133558333Y-103008333D02*
X133510714Y-103151190D01*
X133510714Y-103151190D02*
X132939286Y-103722619D01*
X132939286Y-103722619D02*
X133558333Y-103722619D01*
%TO.C,J5*%
X148537380Y-37166666D02*
X147823095Y-37166666D01*
X147823095Y-37166666D02*
X147680238Y-37119047D01*
X147680238Y-37119047D02*
X147585000Y-37023809D01*
X147585000Y-37023809D02*
X147537380Y-36880952D01*
X147537380Y-36880952D02*
X147537380Y-36785714D01*
X148537380Y-38119047D02*
X148537380Y-37642857D01*
X148537380Y-37642857D02*
X148061190Y-37595238D01*
X148061190Y-37595238D02*
X148108809Y-37642857D01*
X148108809Y-37642857D02*
X148156428Y-37738095D01*
X148156428Y-37738095D02*
X148156428Y-37976190D01*
X148156428Y-37976190D02*
X148108809Y-38071428D01*
X148108809Y-38071428D02*
X148061190Y-38119047D01*
X148061190Y-38119047D02*
X147965952Y-38166666D01*
X147965952Y-38166666D02*
X147727857Y-38166666D01*
X147727857Y-38166666D02*
X147632619Y-38119047D01*
X147632619Y-38119047D02*
X147585000Y-38071428D01*
X147585000Y-38071428D02*
X147537380Y-37976190D01*
X147537380Y-37976190D02*
X147537380Y-37738095D01*
X147537380Y-37738095D02*
X147585000Y-37642857D01*
X147585000Y-37642857D02*
X147632619Y-37595238D01*
X131706095Y-42071428D02*
X131706095Y-42528571D01*
X131706095Y-42299999D02*
X130906095Y-42299999D01*
X130906095Y-42299999D02*
X131020380Y-42376190D01*
X131020380Y-42376190D02*
X131096571Y-42452380D01*
X131096571Y-42452380D02*
X131134666Y-42528571D01*
D11*
%TO.C,J9*%
X140480000Y-89230000D02*
X141810000Y-89230000D01*
X139210000Y-91890000D02*
X90890000Y-91890000D01*
X90890000Y-89230000D02*
X90890000Y-91890000D01*
X139210000Y-89230000D02*
X90890000Y-89230000D01*
X141810000Y-89230000D02*
X141810000Y-90560000D01*
X139210000Y-89230000D02*
X139210000Y-91890000D01*
%TO.C,J8*%
X140480000Y-86690000D02*
X141810000Y-86690000D01*
X139210000Y-89350000D02*
X90890000Y-89350000D01*
X90890000Y-86690000D02*
X90890000Y-89350000D01*
X139210000Y-86690000D02*
X90890000Y-86690000D01*
X141810000Y-86690000D02*
X141810000Y-88020000D01*
X139210000Y-86690000D02*
X139210000Y-89350000D01*
%TO.C,J4*%
X139210000Y-84150000D02*
X139210000Y-86810000D01*
X141810000Y-84150000D02*
X141810000Y-85480000D01*
X139210000Y-84150000D02*
X90890000Y-84150000D01*
X90890000Y-84150000D02*
X90890000Y-86810000D01*
X139210000Y-86810000D02*
X90890000Y-86810000D01*
X140480000Y-84150000D02*
X141810000Y-84150000D01*
%TO.C,J3*%
X140480000Y-51130000D02*
X141810000Y-51130000D01*
X139210000Y-53790000D02*
X90890000Y-53790000D01*
X90890000Y-51130000D02*
X90890000Y-53790000D01*
X139210000Y-51130000D02*
X90890000Y-51130000D01*
X141810000Y-51130000D02*
X141810000Y-52460000D01*
X139210000Y-51130000D02*
X139210000Y-53790000D01*
%TO.C,J2*%
X140480000Y-53670000D02*
X141810000Y-53670000D01*
X139210000Y-56330000D02*
X90890000Y-56330000D01*
X90890000Y-53670000D02*
X90890000Y-56330000D01*
X139210000Y-53670000D02*
X90890000Y-53670000D01*
X141810000Y-53670000D02*
X141810000Y-55000000D01*
X139210000Y-53670000D02*
X139210000Y-56330000D01*
%TO.C,J1*%
X140480000Y-56210000D02*
X141810000Y-56210000D01*
X139210000Y-58870000D02*
X90890000Y-58870000D01*
X90890000Y-56210000D02*
X90890000Y-58870000D01*
X139210000Y-56210000D02*
X90890000Y-56210000D01*
X141810000Y-56210000D02*
X141810000Y-57540000D01*
X139210000Y-56210000D02*
X139210000Y-58870000D01*
D10*
%TO.C,J7*%
X86505000Y-42300000D02*
X85870000Y-41665000D01*
X87775000Y-42300000D02*
X86505000Y-42300000D01*
X89045000Y-42300000D02*
X88410000Y-41665000D01*
X90315000Y-42300000D02*
X89045000Y-42300000D01*
X91585000Y-42300000D02*
X90950000Y-41665000D01*
X92855000Y-42300000D02*
X91585000Y-42300000D01*
X94125000Y-42300000D02*
X93490000Y-41665000D01*
X95395000Y-42300000D02*
X94125000Y-42300000D01*
X96665000Y-42300000D02*
X96030000Y-41665000D01*
X97935000Y-42300000D02*
X96665000Y-42300000D01*
X99205000Y-42300000D02*
X98570000Y-41665000D01*
X100475000Y-42300000D02*
X99205000Y-42300000D01*
X85870000Y-41665000D02*
X85870000Y-37855000D01*
X88410000Y-41665000D02*
X87775000Y-42300000D01*
X90950000Y-41665000D02*
X90315000Y-42300000D01*
X93490000Y-41665000D02*
X92855000Y-42300000D01*
X96030000Y-41665000D02*
X95395000Y-42300000D01*
X98570000Y-41665000D02*
X97935000Y-42300000D01*
X101110000Y-41665000D02*
X100475000Y-42300000D01*
X85870000Y-37855000D02*
X86505000Y-37220000D01*
X88410000Y-37855000D02*
X89045000Y-37220000D01*
X90950000Y-37855000D02*
X91585000Y-37220000D01*
X93490000Y-37855000D02*
X94125000Y-37220000D01*
X96030000Y-37855000D02*
X96665000Y-37220000D01*
X98570000Y-37855000D02*
X99205000Y-37220000D01*
X101110000Y-37855000D02*
X101110000Y-41665000D01*
X86505000Y-37220000D02*
X87775000Y-37220000D01*
X87775000Y-37220000D02*
X88410000Y-37855000D01*
X89045000Y-37220000D02*
X90315000Y-37220000D01*
X90315000Y-37220000D02*
X90950000Y-37855000D01*
X91585000Y-37220000D02*
X92855000Y-37220000D01*
X92855000Y-37220000D02*
X93490000Y-37855000D01*
X94125000Y-37220000D02*
X95395000Y-37220000D01*
X95395000Y-37220000D02*
X96030000Y-37855000D01*
X96665000Y-37220000D02*
X97935000Y-37220000D01*
X97935000Y-37220000D02*
X98570000Y-37855000D01*
X99205000Y-37220000D02*
X100475000Y-37220000D01*
X100475000Y-37220000D02*
X101110000Y-37855000D01*
%TO.C,J6*%
X109365000Y-42300000D02*
X108730000Y-41665000D01*
X110635000Y-42300000D02*
X109365000Y-42300000D01*
X111905000Y-42300000D02*
X111270000Y-41665000D01*
X113175000Y-42300000D02*
X111905000Y-42300000D01*
X114445000Y-42300000D02*
X113810000Y-41665000D01*
X115715000Y-42300000D02*
X114445000Y-42300000D01*
X116985000Y-42300000D02*
X116350000Y-41665000D01*
X118255000Y-42300000D02*
X116985000Y-42300000D01*
X119525000Y-42300000D02*
X118890000Y-41665000D01*
X120795000Y-42300000D02*
X119525000Y-42300000D01*
X122065000Y-42300000D02*
X121430000Y-41665000D01*
X123335000Y-42300000D02*
X122065000Y-42300000D01*
X108730000Y-41665000D02*
X108730000Y-37855000D01*
X111270000Y-41665000D02*
X110635000Y-42300000D01*
X113810000Y-41665000D02*
X113175000Y-42300000D01*
X116350000Y-41665000D02*
X115715000Y-42300000D01*
X118890000Y-41665000D02*
X118255000Y-42300000D01*
X121430000Y-41665000D02*
X120795000Y-42300000D01*
X123970000Y-41665000D02*
X123335000Y-42300000D01*
X108730000Y-37855000D02*
X109365000Y-37220000D01*
X111270000Y-37855000D02*
X111905000Y-37220000D01*
X113810000Y-37855000D02*
X114445000Y-37220000D01*
X116350000Y-37855000D02*
X116985000Y-37220000D01*
X118890000Y-37855000D02*
X119525000Y-37220000D01*
X121430000Y-37855000D02*
X122065000Y-37220000D01*
X123970000Y-37855000D02*
X123970000Y-41665000D01*
X109365000Y-37220000D02*
X110635000Y-37220000D01*
X110635000Y-37220000D02*
X111270000Y-37855000D01*
X111905000Y-37220000D02*
X113175000Y-37220000D01*
X113175000Y-37220000D02*
X113810000Y-37855000D01*
X114445000Y-37220000D02*
X115715000Y-37220000D01*
X115715000Y-37220000D02*
X116350000Y-37855000D01*
X116985000Y-37220000D02*
X118255000Y-37220000D01*
X118255000Y-37220000D02*
X118890000Y-37855000D01*
X119525000Y-37220000D02*
X120795000Y-37220000D01*
X120795000Y-37220000D02*
X121430000Y-37855000D01*
X122065000Y-37220000D02*
X123335000Y-37220000D01*
X123335000Y-37220000D02*
X123970000Y-37855000D01*
D11*
%TO.C,J11*%
X103590000Y-91770000D02*
X104920000Y-91770000D01*
X103590000Y-93100000D02*
X103590000Y-91770000D01*
X103590000Y-94370000D02*
X103590000Y-99510000D01*
X103590000Y-94370000D02*
X106250000Y-94370000D01*
X103590000Y-99510000D02*
X106250000Y-99510000D01*
X106250000Y-94370000D02*
X106250000Y-99510000D01*
%TO.C,LOGO1*%
D12*
X151971449Y-43648784D02*
X152033485Y-43682069D01*
X152076824Y-43727388D01*
X152132463Y-43805159D01*
X152144440Y-43866815D01*
X152113148Y-43931534D01*
X152081777Y-43970593D01*
X152029479Y-44020262D01*
X151969998Y-44043658D01*
X151879647Y-44049765D01*
X151873073Y-44049778D01*
X151743267Y-44032945D01*
X151658316Y-43982161D01*
X151617665Y-43896998D01*
X151613666Y-43849897D01*
X151633912Y-43759536D01*
X151688028Y-43699049D01*
X151795279Y-43649825D01*
X151883075Y-43640556D01*
X151971449Y-43648784D01*
G36*
X151971449Y-43648784D02*
G01*
X152033485Y-43682069D01*
X152076824Y-43727388D01*
X152132463Y-43805159D01*
X152144440Y-43866815D01*
X152113148Y-43931534D01*
X152081777Y-43970593D01*
X152029479Y-44020262D01*
X151969998Y-44043658D01*
X151879647Y-44049765D01*
X151873073Y-44049778D01*
X151743267Y-44032945D01*
X151658316Y-43982161D01*
X151617665Y-43896998D01*
X151613666Y-43849897D01*
X151633912Y-43759536D01*
X151688028Y-43699049D01*
X151795279Y-43649825D01*
X151883075Y-43640556D01*
X151971449Y-43648784D01*
G37*
X152188291Y-44259173D02*
X152205887Y-44275128D01*
X152280682Y-44367040D01*
X152305186Y-44459230D01*
X152281572Y-44565714D01*
X152258795Y-44616144D01*
X152196328Y-44741222D01*
X151994368Y-44741222D01*
X151875653Y-44737234D01*
X151808386Y-44724760D01*
X151788175Y-44705945D01*
X151780029Y-44654587D01*
X151766517Y-44581398D01*
X151761896Y-44525413D01*
X151778326Y-44474802D01*
X151823618Y-44412835D01*
X151868855Y-44362202D01*
X151967051Y-44267329D01*
X152047276Y-44220018D01*
X152118150Y-44218042D01*
X152188291Y-44259173D01*
G36*
X152188291Y-44259173D02*
G01*
X152205887Y-44275128D01*
X152280682Y-44367040D01*
X152305186Y-44459230D01*
X152281572Y-44565714D01*
X152258795Y-44616144D01*
X152196328Y-44741222D01*
X151994368Y-44741222D01*
X151875653Y-44737234D01*
X151808386Y-44724760D01*
X151788175Y-44705945D01*
X151780029Y-44654587D01*
X151766517Y-44581398D01*
X151761896Y-44525413D01*
X151778326Y-44474802D01*
X151823618Y-44412835D01*
X151868855Y-44362202D01*
X151967051Y-44267329D01*
X152047276Y-44220018D01*
X152118150Y-44218042D01*
X152188291Y-44259173D01*
G37*
X152994162Y-38561303D02*
X153074802Y-38565927D01*
X153126546Y-38577999D01*
X153163166Y-38601090D01*
X153198438Y-38638772D01*
X153205713Y-38647388D01*
X153260306Y-38722562D01*
X153272832Y-38781565D01*
X153242439Y-38843238D01*
X153194347Y-38898970D01*
X153109916Y-38989354D01*
X152844476Y-38979566D01*
X152709645Y-38972281D01*
X152618676Y-38960659D01*
X152559017Y-38942244D01*
X152519684Y-38916015D01*
X152468169Y-38835562D01*
X152461948Y-38741897D01*
X152500055Y-38654150D01*
X152534695Y-38619049D01*
X152579395Y-38590470D01*
X152634239Y-38572855D01*
X152713370Y-38563741D01*
X152830931Y-38560669D01*
X152870853Y-38560556D01*
X152994162Y-38561303D01*
G36*
X152994162Y-38561303D02*
G01*
X153074802Y-38565927D01*
X153126546Y-38577999D01*
X153163166Y-38601090D01*
X153198438Y-38638772D01*
X153205713Y-38647388D01*
X153260306Y-38722562D01*
X153272832Y-38781565D01*
X153242439Y-38843238D01*
X153194347Y-38898970D01*
X153109916Y-38989354D01*
X152844476Y-38979566D01*
X152709645Y-38972281D01*
X152618676Y-38960659D01*
X152559017Y-38942244D01*
X152519684Y-38916015D01*
X152468169Y-38835562D01*
X152461948Y-38741897D01*
X152500055Y-38654150D01*
X152534695Y-38619049D01*
X152579395Y-38590470D01*
X152634239Y-38572855D01*
X152713370Y-38563741D01*
X152830931Y-38560669D01*
X152870853Y-38560556D01*
X152994162Y-38561303D01*
G37*
X155391273Y-39147024D02*
X155455392Y-39201852D01*
X155513442Y-39272619D01*
X155548740Y-39341651D01*
X155550207Y-39432036D01*
X155512847Y-39528172D01*
X155448292Y-39613787D01*
X155368171Y-39672610D01*
X155300169Y-39689445D01*
X155253960Y-39707978D01*
X155182898Y-39756830D01*
X155101509Y-39825873D01*
X155092824Y-39834005D01*
X155012201Y-39908082D01*
X154955472Y-39950034D01*
X154906412Y-39967441D01*
X154848796Y-39967882D01*
X154813785Y-39964343D01*
X154687515Y-39932246D01*
X154608728Y-39869838D01*
X154577560Y-39777235D01*
X154577000Y-39760396D01*
X154583825Y-39711259D01*
X154609185Y-39659811D01*
X154660406Y-39595760D01*
X154744812Y-39508816D01*
X154781611Y-39472946D01*
X154877599Y-39385936D01*
X154968213Y-39313895D01*
X155040367Y-39266771D01*
X155068661Y-39254760D01*
X155153900Y-39220998D01*
X155220634Y-39179695D01*
X155284889Y-39140492D01*
X155337526Y-39125000D01*
X155391273Y-39147024D01*
G36*
X155391273Y-39147024D02*
G01*
X155455392Y-39201852D01*
X155513442Y-39272619D01*
X155548740Y-39341651D01*
X155550207Y-39432036D01*
X155512847Y-39528172D01*
X155448292Y-39613787D01*
X155368171Y-39672610D01*
X155300169Y-39689445D01*
X155253960Y-39707978D01*
X155182898Y-39756830D01*
X155101509Y-39825873D01*
X155092824Y-39834005D01*
X155012201Y-39908082D01*
X154955472Y-39950034D01*
X154906412Y-39967441D01*
X154848796Y-39967882D01*
X154813785Y-39964343D01*
X154687515Y-39932246D01*
X154608728Y-39869838D01*
X154577560Y-39777235D01*
X154577000Y-39760396D01*
X154583825Y-39711259D01*
X154609185Y-39659811D01*
X154660406Y-39595760D01*
X154744812Y-39508816D01*
X154781611Y-39472946D01*
X154877599Y-39385936D01*
X154968213Y-39313895D01*
X155040367Y-39266771D01*
X155068661Y-39254760D01*
X155153900Y-39220998D01*
X155220634Y-39179695D01*
X155284889Y-39140492D01*
X155337526Y-39125000D01*
X155391273Y-39147024D01*
G37*
X153801372Y-40543281D02*
X153862245Y-40572796D01*
X153911269Y-40622943D01*
X153958187Y-40688846D01*
X153983107Y-40743621D01*
X153984333Y-40752951D01*
X153963897Y-40799215D01*
X153909712Y-40869895D01*
X153832463Y-40954597D01*
X153742835Y-41042929D01*
X153651512Y-41124498D01*
X153569179Y-41188910D01*
X153506521Y-41225774D01*
X153494202Y-41229691D01*
X153410014Y-41262097D01*
X153328474Y-41313828D01*
X153326001Y-41315876D01*
X153251358Y-41368230D01*
X153190977Y-41377062D01*
X153124131Y-41343139D01*
X153099139Y-41324285D01*
X153053646Y-41279504D01*
X153031458Y-41224947D01*
X153024893Y-41139394D01*
X153024778Y-41118898D01*
X153033496Y-41014025D01*
X153056284Y-40931353D01*
X153067198Y-40911440D01*
X153121958Y-40862701D01*
X153201487Y-40821515D01*
X153215365Y-40816637D01*
X153294038Y-40778285D01*
X153387641Y-40714682D01*
X153453957Y-40659255D01*
X153534550Y-40589572D01*
X153597551Y-40552292D01*
X153663088Y-40537827D01*
X153712504Y-40536111D01*
X153801372Y-40543281D01*
G36*
X153801372Y-40543281D02*
G01*
X153862245Y-40572796D01*
X153911269Y-40622943D01*
X153958187Y-40688846D01*
X153983107Y-40743621D01*
X153984333Y-40752951D01*
X153963897Y-40799215D01*
X153909712Y-40869895D01*
X153832463Y-40954597D01*
X153742835Y-41042929D01*
X153651512Y-41124498D01*
X153569179Y-41188910D01*
X153506521Y-41225774D01*
X153494202Y-41229691D01*
X153410014Y-41262097D01*
X153328474Y-41313828D01*
X153326001Y-41315876D01*
X153251358Y-41368230D01*
X153190977Y-41377062D01*
X153124131Y-41343139D01*
X153099139Y-41324285D01*
X153053646Y-41279504D01*
X153031458Y-41224947D01*
X153024893Y-41139394D01*
X153024778Y-41118898D01*
X153033496Y-41014025D01*
X153056284Y-40931353D01*
X153067198Y-40911440D01*
X153121958Y-40862701D01*
X153201487Y-40821515D01*
X153215365Y-40816637D01*
X153294038Y-40778285D01*
X153387641Y-40714682D01*
X153453957Y-40659255D01*
X153534550Y-40589572D01*
X153597551Y-40552292D01*
X153663088Y-40537827D01*
X153712504Y-40536111D01*
X153801372Y-40543281D01*
G37*
X151404463Y-42941774D02*
X151461818Y-42971337D01*
X151515780Y-43032438D01*
X151567385Y-43121007D01*
X151572699Y-43184697D01*
X151538907Y-43240990D01*
X151475304Y-43312291D01*
X151396072Y-43386059D01*
X151315396Y-43449749D01*
X151247457Y-43490820D01*
X151216783Y-43499445D01*
X151155888Y-43517053D01*
X151084284Y-43560389D01*
X151072297Y-43570000D01*
X151006386Y-43616070D01*
X150950733Y-43639723D01*
X150942740Y-43640556D01*
X150892859Y-43655872D01*
X150820995Y-43694438D01*
X150790411Y-43714445D01*
X150723666Y-43755439D01*
X150661245Y-43775827D01*
X150580885Y-43780402D01*
X150501214Y-43776710D01*
X150359912Y-43757012D01*
X150266837Y-43716581D01*
X150216320Y-43651447D01*
X150202555Y-43567674D01*
X150223664Y-43475579D01*
X150274436Y-43418778D01*
X150353650Y-43371417D01*
X150427708Y-43344360D01*
X150498251Y-43318456D01*
X150541530Y-43287407D01*
X150588824Y-43253318D01*
X150663288Y-43219930D01*
X150677535Y-43215098D01*
X150757869Y-43183115D01*
X150819454Y-43148133D01*
X150825277Y-43143451D01*
X150881980Y-43108115D01*
X150960125Y-43074132D01*
X150966388Y-43071947D01*
X151054017Y-43033637D01*
X151129877Y-42987513D01*
X151130639Y-42986928D01*
X151218740Y-42947335D01*
X151319703Y-42935000D01*
X151404463Y-42941774D01*
G36*
X151404463Y-42941774D02*
G01*
X151461818Y-42971337D01*
X151515780Y-43032438D01*
X151567385Y-43121007D01*
X151572699Y-43184697D01*
X151538907Y-43240990D01*
X151475304Y-43312291D01*
X151396072Y-43386059D01*
X151315396Y-43449749D01*
X151247457Y-43490820D01*
X151216783Y-43499445D01*
X151155888Y-43517053D01*
X151084284Y-43560389D01*
X151072297Y-43570000D01*
X151006386Y-43616070D01*
X150950733Y-43639723D01*
X150942740Y-43640556D01*
X150892859Y-43655872D01*
X150820995Y-43694438D01*
X150790411Y-43714445D01*
X150723666Y-43755439D01*
X150661245Y-43775827D01*
X150580885Y-43780402D01*
X150501214Y-43776710D01*
X150359912Y-43757012D01*
X150266837Y-43716581D01*
X150216320Y-43651447D01*
X150202555Y-43567674D01*
X150223664Y-43475579D01*
X150274436Y-43418778D01*
X150353650Y-43371417D01*
X150427708Y-43344360D01*
X150498251Y-43318456D01*
X150541530Y-43287407D01*
X150588824Y-43253318D01*
X150663288Y-43219930D01*
X150677535Y-43215098D01*
X150757869Y-43183115D01*
X150819454Y-43148133D01*
X150825277Y-43143451D01*
X150881980Y-43108115D01*
X150960125Y-43074132D01*
X150966388Y-43071947D01*
X151054017Y-43033637D01*
X151129877Y-42987513D01*
X151130639Y-42986928D01*
X151218740Y-42947335D01*
X151319703Y-42935000D01*
X151404463Y-42941774D01*
G37*
X154224705Y-39273281D02*
X154285579Y-39302796D01*
X154334602Y-39352943D01*
X154381520Y-39418846D01*
X154406441Y-39473621D01*
X154407666Y-39482951D01*
X154387230Y-39529215D01*
X154333045Y-39599895D01*
X154255796Y-39684597D01*
X154166168Y-39772929D01*
X154074845Y-39854498D01*
X153992512Y-39918910D01*
X153929854Y-39955774D01*
X153917536Y-39959691D01*
X153833348Y-39992097D01*
X153751807Y-40043828D01*
X153749334Y-40045876D01*
X153640628Y-40102908D01*
X153560088Y-40112778D01*
X153428790Y-40139710D01*
X153343531Y-40185501D01*
X153294647Y-40216590D01*
X153248751Y-40236863D01*
X153192992Y-40248185D01*
X153114523Y-40252418D01*
X153000494Y-40251429D01*
X152905955Y-40249001D01*
X152575467Y-40239778D01*
X152450057Y-40116619D01*
X152356808Y-40004750D01*
X152313285Y-39894637D01*
X152315041Y-39772184D01*
X152325810Y-39722717D01*
X152368146Y-39638338D01*
X152436678Y-39574518D01*
X152512851Y-39548358D01*
X152515032Y-39548334D01*
X152555730Y-39567044D01*
X152620541Y-39615896D01*
X152689299Y-39678474D01*
X152774413Y-39755280D01*
X152845756Y-39798553D01*
X152923824Y-39819611D01*
X152951532Y-39823279D01*
X153048404Y-39826404D01*
X153124968Y-39803793D01*
X153187264Y-39766350D01*
X153274990Y-39716586D01*
X153362590Y-39681334D01*
X153382661Y-39676175D01*
X153455774Y-39651486D01*
X153504863Y-39618519D01*
X153552134Y-39584371D01*
X153626564Y-39550813D01*
X153640868Y-39545921D01*
X153718240Y-39508031D01*
X153810920Y-39444813D01*
X153877291Y-39389255D01*
X153957884Y-39319572D01*
X154020884Y-39282292D01*
X154086421Y-39267827D01*
X154135838Y-39266111D01*
X154224705Y-39273281D01*
G36*
X154224705Y-39273281D02*
G01*
X154285579Y-39302796D01*
X154334602Y-39352943D01*
X154381520Y-39418846D01*
X154406441Y-39473621D01*
X154407666Y-39482951D01*
X154387230Y-39529215D01*
X154333045Y-39599895D01*
X154255796Y-39684597D01*
X154166168Y-39772929D01*
X154074845Y-39854498D01*
X153992512Y-39918910D01*
X153929854Y-39955774D01*
X153917536Y-39959691D01*
X153833348Y-39992097D01*
X153751807Y-40043828D01*
X153749334Y-40045876D01*
X153640628Y-40102908D01*
X153560088Y-40112778D01*
X153428790Y-40139710D01*
X153343531Y-40185501D01*
X153294647Y-40216590D01*
X153248751Y-40236863D01*
X153192992Y-40248185D01*
X153114523Y-40252418D01*
X153000494Y-40251429D01*
X152905955Y-40249001D01*
X152575467Y-40239778D01*
X152450057Y-40116619D01*
X152356808Y-40004750D01*
X152313285Y-39894637D01*
X152315041Y-39772184D01*
X152325810Y-39722717D01*
X152368146Y-39638338D01*
X152436678Y-39574518D01*
X152512851Y-39548358D01*
X152515032Y-39548334D01*
X152555730Y-39567044D01*
X152620541Y-39615896D01*
X152689299Y-39678474D01*
X152774413Y-39755280D01*
X152845756Y-39798553D01*
X152923824Y-39819611D01*
X152951532Y-39823279D01*
X153048404Y-39826404D01*
X153124968Y-39803793D01*
X153187264Y-39766350D01*
X153274990Y-39716586D01*
X153362590Y-39681334D01*
X153382661Y-39676175D01*
X153455774Y-39651486D01*
X153504863Y-39618519D01*
X153552134Y-39584371D01*
X153626564Y-39550813D01*
X153640868Y-39545921D01*
X153718240Y-39508031D01*
X153810920Y-39444813D01*
X153877291Y-39389255D01*
X153957884Y-39319572D01*
X154020884Y-39282292D01*
X154086421Y-39267827D01*
X154135838Y-39266111D01*
X154224705Y-39273281D01*
G37*
X151440449Y-40699915D02*
X151505862Y-40756627D01*
X151565831Y-40830311D01*
X151605609Y-40903919D01*
X151613666Y-40942377D01*
X151598102Y-41005159D01*
X151558927Y-41085887D01*
X151538830Y-41117784D01*
X151486266Y-41220933D01*
X151460680Y-41327483D01*
X151463012Y-41422369D01*
X151494204Y-41490526D01*
X151514536Y-41506689D01*
X151574049Y-41549215D01*
X151655104Y-41619266D01*
X151747453Y-41706457D01*
X151840844Y-41800403D01*
X151925029Y-41890719D01*
X151989756Y-41967019D01*
X152024776Y-42018918D01*
X152027610Y-42026539D01*
X152024989Y-42112208D01*
X151987796Y-42208941D01*
X151926669Y-42294010D01*
X151886702Y-42327591D01*
X151823717Y-42353795D01*
X151757382Y-42345807D01*
X151679156Y-42299837D01*
X151580501Y-42212095D01*
X151544172Y-42175551D01*
X151471292Y-42104543D01*
X151411613Y-42053192D01*
X151377376Y-42031975D01*
X151376325Y-42031889D01*
X151347685Y-42050777D01*
X151286738Y-42102916D01*
X151200965Y-42181521D01*
X151097847Y-42279808D01*
X151031962Y-42344222D01*
X150715395Y-42656554D01*
X150234323Y-42647611D01*
X149753252Y-42638667D01*
X149625126Y-42512846D01*
X149497000Y-42387026D01*
X149497000Y-42155061D01*
X149498303Y-42039067D01*
X149504691Y-41964979D01*
X149519882Y-41918278D01*
X149547593Y-41884444D01*
X149571361Y-41864604D01*
X149636647Y-41823846D01*
X149691708Y-41806135D01*
X149693081Y-41806111D01*
X149752165Y-41829583D01*
X149818151Y-41889135D01*
X149876897Y-41968475D01*
X149914260Y-42051310D01*
X149917475Y-42064604D01*
X149947435Y-42142010D01*
X150004990Y-42192080D01*
X150098258Y-42218336D01*
X150235354Y-42224301D01*
X150282125Y-42222838D01*
X150488695Y-42214039D01*
X150698403Y-41999523D01*
X150784940Y-41907016D01*
X150854108Y-41825491D01*
X150897512Y-41765313D01*
X150908111Y-41740545D01*
X150885819Y-41688290D01*
X150829743Y-41624327D01*
X150756079Y-41563171D01*
X150681028Y-41519338D01*
X150649450Y-41508754D01*
X150580484Y-41482456D01*
X150540915Y-41452963D01*
X150493620Y-41418874D01*
X150419156Y-41385486D01*
X150404909Y-41380654D01*
X150322501Y-41347052D01*
X150257253Y-41308593D01*
X150251490Y-41303869D01*
X150196209Y-41275718D01*
X150108068Y-41250410D01*
X150044357Y-41238974D01*
X149910745Y-41208490D01*
X149826022Y-41157658D01*
X149785017Y-41082355D01*
X149779222Y-41027674D01*
X149793047Y-40942092D01*
X149838582Y-40881511D01*
X149921920Y-40842812D01*
X150049152Y-40822874D01*
X150187876Y-40818334D01*
X150315463Y-40820009D01*
X150399449Y-40826544D01*
X150452615Y-40840205D01*
X150487745Y-40863255D01*
X150497441Y-40873178D01*
X150561241Y-40918758D01*
X150635871Y-40946571D01*
X150705606Y-40976567D01*
X150790213Y-41033914D01*
X150844494Y-41080932D01*
X150919632Y-41147732D01*
X150968971Y-41168927D01*
X151003438Y-41141543D01*
X151033963Y-41062603D01*
X151044542Y-41026468D01*
X151083680Y-40942930D01*
X151149348Y-40852930D01*
X151228535Y-40769838D01*
X151308230Y-40707028D01*
X151375425Y-40677871D01*
X151384335Y-40677222D01*
X151440449Y-40699915D01*
G36*
X151440449Y-40699915D02*
G01*
X151505862Y-40756627D01*
X151565831Y-40830311D01*
X151605609Y-40903919D01*
X151613666Y-40942377D01*
X151598102Y-41005159D01*
X151558927Y-41085887D01*
X151538830Y-41117784D01*
X151486266Y-41220933D01*
X151460680Y-41327483D01*
X151463012Y-41422369D01*
X151494204Y-41490526D01*
X151514536Y-41506689D01*
X151574049Y-41549215D01*
X151655104Y-41619266D01*
X151747453Y-41706457D01*
X151840844Y-41800403D01*
X151925029Y-41890719D01*
X151989756Y-41967019D01*
X152024776Y-42018918D01*
X152027610Y-42026539D01*
X152024989Y-42112208D01*
X151987796Y-42208941D01*
X151926669Y-42294010D01*
X151886702Y-42327591D01*
X151823717Y-42353795D01*
X151757382Y-42345807D01*
X151679156Y-42299837D01*
X151580501Y-42212095D01*
X151544172Y-42175551D01*
X151471292Y-42104543D01*
X151411613Y-42053192D01*
X151377376Y-42031975D01*
X151376325Y-42031889D01*
X151347685Y-42050777D01*
X151286738Y-42102916D01*
X151200965Y-42181521D01*
X151097847Y-42279808D01*
X151031962Y-42344222D01*
X150715395Y-42656554D01*
X150234323Y-42647611D01*
X149753252Y-42638667D01*
X149625126Y-42512846D01*
X149497000Y-42387026D01*
X149497000Y-42155061D01*
X149498303Y-42039067D01*
X149504691Y-41964979D01*
X149519882Y-41918278D01*
X149547593Y-41884444D01*
X149571361Y-41864604D01*
X149636647Y-41823846D01*
X149691708Y-41806135D01*
X149693081Y-41806111D01*
X149752165Y-41829583D01*
X149818151Y-41889135D01*
X149876897Y-41968475D01*
X149914260Y-42051310D01*
X149917475Y-42064604D01*
X149947435Y-42142010D01*
X150004990Y-42192080D01*
X150098258Y-42218336D01*
X150235354Y-42224301D01*
X150282125Y-42222838D01*
X150488695Y-42214039D01*
X150698403Y-41999523D01*
X150784940Y-41907016D01*
X150854108Y-41825491D01*
X150897512Y-41765313D01*
X150908111Y-41740545D01*
X150885819Y-41688290D01*
X150829743Y-41624327D01*
X150756079Y-41563171D01*
X150681028Y-41519338D01*
X150649450Y-41508754D01*
X150580484Y-41482456D01*
X150540915Y-41452963D01*
X150493620Y-41418874D01*
X150419156Y-41385486D01*
X150404909Y-41380654D01*
X150322501Y-41347052D01*
X150257253Y-41308593D01*
X150251490Y-41303869D01*
X150196209Y-41275718D01*
X150108068Y-41250410D01*
X150044357Y-41238974D01*
X149910745Y-41208490D01*
X149826022Y-41157658D01*
X149785017Y-41082355D01*
X149779222Y-41027674D01*
X149793047Y-40942092D01*
X149838582Y-40881511D01*
X149921920Y-40842812D01*
X150049152Y-40822874D01*
X150187876Y-40818334D01*
X150315463Y-40820009D01*
X150399449Y-40826544D01*
X150452615Y-40840205D01*
X150487745Y-40863255D01*
X150497441Y-40873178D01*
X150561241Y-40918758D01*
X150635871Y-40946571D01*
X150705606Y-40976567D01*
X150790213Y-41033914D01*
X150844494Y-41080932D01*
X150919632Y-41147732D01*
X150968971Y-41168927D01*
X151003438Y-41141543D01*
X151033963Y-41062603D01*
X151044542Y-41026468D01*
X151083680Y-40942930D01*
X151149348Y-40852930D01*
X151228535Y-40769838D01*
X151308230Y-40707028D01*
X151375425Y-40677871D01*
X151384335Y-40677222D01*
X151440449Y-40699915D01*
G37*
D11*
%TO.C,J12*%
X139150000Y-91770000D02*
X140480000Y-91770000D01*
X139150000Y-93100000D02*
X139150000Y-91770000D01*
X139150000Y-94370000D02*
X139150000Y-99510000D01*
X139150000Y-94370000D02*
X141810000Y-94370000D01*
X139150000Y-99510000D02*
X141810000Y-99510000D01*
X141810000Y-94370000D02*
X141810000Y-99510000D01*
D10*
%TO.C,J5*%
X132225000Y-42300000D02*
X131590000Y-41665000D01*
X133495000Y-42300000D02*
X132225000Y-42300000D01*
X134765000Y-42300000D02*
X134130000Y-41665000D01*
X136035000Y-42300000D02*
X134765000Y-42300000D01*
X137305000Y-42300000D02*
X136670000Y-41665000D01*
X138575000Y-42300000D02*
X137305000Y-42300000D01*
X139845000Y-42300000D02*
X139210000Y-41665000D01*
X141115000Y-42300000D02*
X139845000Y-42300000D01*
X142385000Y-42300000D02*
X141750000Y-41665000D01*
X143655000Y-42300000D02*
X142385000Y-42300000D01*
X144925000Y-42300000D02*
X144290000Y-41665000D01*
X146195000Y-42300000D02*
X144925000Y-42300000D01*
X131590000Y-41665000D02*
X131590000Y-37855000D01*
X134130000Y-41665000D02*
X133495000Y-42300000D01*
X136670000Y-41665000D02*
X136035000Y-42300000D01*
X139210000Y-41665000D02*
X138575000Y-42300000D01*
X141750000Y-41665000D02*
X141115000Y-42300000D01*
X144290000Y-41665000D02*
X143655000Y-42300000D01*
X146830000Y-41665000D02*
X146195000Y-42300000D01*
X131590000Y-37855000D02*
X132225000Y-37220000D01*
X134130000Y-37855000D02*
X134765000Y-37220000D01*
X136670000Y-37855000D02*
X137305000Y-37220000D01*
X139210000Y-37855000D02*
X139845000Y-37220000D01*
X141750000Y-37855000D02*
X142385000Y-37220000D01*
X144290000Y-37855000D02*
X144925000Y-37220000D01*
X146830000Y-37855000D02*
X146830000Y-41665000D01*
X132225000Y-37220000D02*
X133495000Y-37220000D01*
X133495000Y-37220000D02*
X134130000Y-37855000D01*
X134765000Y-37220000D02*
X136035000Y-37220000D01*
X136035000Y-37220000D02*
X136670000Y-37855000D01*
X137305000Y-37220000D02*
X138575000Y-37220000D01*
X138575000Y-37220000D02*
X139210000Y-37855000D01*
X139845000Y-37220000D02*
X141115000Y-37220000D01*
X141115000Y-37220000D02*
X141750000Y-37855000D01*
X142385000Y-37220000D02*
X143655000Y-37220000D01*
X143655000Y-37220000D02*
X144290000Y-37855000D01*
X144925000Y-37220000D02*
X146195000Y-37220000D01*
X146195000Y-37220000D02*
X146830000Y-37855000D01*
D11*
%TO.C,J10*%
X101050000Y-91770000D02*
X102380000Y-91770000D01*
X101050000Y-93100000D02*
X101050000Y-91770000D01*
X101050000Y-94370000D02*
X101050000Y-99510000D01*
X101050000Y-94370000D02*
X103710000Y-94370000D01*
X101050000Y-99510000D02*
X103710000Y-99510000D01*
X103710000Y-94370000D02*
X103710000Y-99510000D01*
%TD*%
M02*
