M48
; DRILL file {KiCad 7.0.1} date Mon Mar 20 23:30:03 2023
; FORMAT={3:3/ absolute / metric / suppress leading zeros}
; #@! TF.CreationDate,2023-03-20T23:30:03+09:00
; #@! TF.GenerationSoftware,Kicad,Pcbnew,7.0.1
; #@! TF.FileFunction,Plated,1,2,PTH
FMAT,2
METRIC,TZ
; #@! TA.AperFunction,Plated,PTH,ViaDrill
T1C0.400
; #@! TA.AperFunction,Plated,PTH,ComponentDrill
T2C0.700
; #@! TA.AperFunction,Plated,PTH,ComponentDrill
T3C0.800
%
G90
G05
T1
X82500Y-38000
X83584Y-38490
X83584Y-57286
X86378Y-35696
X88410Y-62112
X91712Y-64398
X92474Y-68208
X92910Y-63200
X93998Y-63890
X93998Y-66684
X97554Y-35696
X98062Y-73796
X98062Y-76336
X99332Y-75320
X99840Y-72272
X100602Y-76336
X100856Y-73542
X101872Y-35696
X102126Y-74812
X102380Y-76590
X107460Y-64652
X107714Y-66938
X108730Y-64525
X108730Y-67065
X108984Y-46872
X110000Y-63636
X110000Y-66176
X110000Y-67954
X111778Y-63636
X111778Y-66176
X111778Y-67954
X111778Y-74050
X113810Y-53222
X113810Y-83194
X116350Y-47380
X116350Y-63636
X116350Y-66176
X116350Y-67954
X118382Y-63636
X118382Y-66176
X118382Y-67954
X118890Y-47380
X118890Y-53222
X118890Y-83194
X119652Y-50682
X120414Y-35696
X121176Y-42808
X121684Y-47634
X122192Y-50682
X124478Y-46110
X124986Y-35696
X125748Y-63636
X127018Y-66176
X127018Y-67954
X127018Y-74050
X127272Y-62874
X128034Y-49666
X128415Y-63255
X128542Y-64652
X128542Y-66176
X129050Y-70240
X129050Y-83194
X129050Y-91830
X130320Y-50682
X131590Y-70240
X132098Y-74050
X132860Y-63255
X132860Y-67065
X132860Y-68335
X132860Y-70875
X134130Y-68970
X135400Y-63255
X137940Y-63255
X143274Y-35442
X144544Y-36712
T2
X107460Y-74050
X107460Y-79130
X110000Y-74050
X110000Y-79130
X115080Y-74050
X115080Y-79130
X120160Y-74050
X120160Y-79130
X122700Y-74050
X122700Y-79130
X125240Y-74050
X125240Y-79130
X130320Y-63890
X130320Y-68970
X130320Y-74050
X130320Y-79130
T3
X87140Y-38490
X87140Y-41030
X89680Y-38490
X89680Y-41030
X92220Y-38490
X92220Y-41030
X92220Y-52460
X92220Y-55000
X92220Y-57540
X92220Y-61350
X92220Y-81670
X92220Y-85480
X92220Y-88020
X92220Y-90560
X94760Y-38490
X94760Y-41030
X94760Y-52460
X94760Y-55000
X94760Y-57540
X94760Y-61350
X94760Y-81670
X94760Y-85480
X94760Y-88020
X94760Y-90560
X97300Y-38490
X97300Y-41030
X97300Y-52460
X97300Y-55000
X97300Y-57540
X97300Y-61350
X97300Y-81670
X97300Y-85480
X97300Y-88020
X97300Y-90560
X99840Y-38490
X99840Y-41030
X99840Y-52460
X99840Y-55000
X99840Y-57540
X99840Y-61350
X99840Y-81670
X99840Y-85480
X99840Y-88020
X99840Y-90560
X102380Y-52460
X102380Y-55000
X102380Y-57540
X102380Y-61350
X102380Y-81670
X102380Y-85480
X102380Y-88020
X102380Y-90560
X102380Y-93100
X102380Y-95640
X102380Y-98180
X104920Y-52460
X104920Y-55000
X104920Y-57540
X104920Y-61350
X104920Y-81670
X104920Y-85480
X104920Y-88020
X104920Y-90560
X104920Y-93100
X104920Y-95640
X104920Y-98180
X107460Y-52460
X107460Y-55000
X107460Y-57540
X107460Y-61350
X107460Y-81670
X107460Y-85480
X107460Y-88020
X107460Y-90560
X110000Y-38490
X110000Y-41030
X110000Y-52460
X110000Y-55000
X110000Y-57540
X110000Y-61350
X110000Y-81670
X110000Y-85480
X110000Y-88020
X110000Y-90560
X112540Y-38490
X112540Y-41030
X112540Y-52460
X112540Y-55000
X112540Y-57540
X112540Y-61350
X112540Y-81670
X112540Y-85480
X112540Y-88020
X112540Y-90560
X115080Y-38490
X115080Y-41030
X115080Y-52460
X115080Y-55000
X115080Y-57540
X115080Y-61350
X115080Y-81670
X115080Y-85480
X115080Y-88020
X115080Y-90560
X117620Y-38490
X117620Y-41030
X117620Y-52460
X117620Y-55000
X117620Y-57540
X117620Y-61350
X117620Y-81670
X117620Y-85480
X117620Y-88020
X117620Y-90560
X120160Y-38490
X120160Y-41030
X120160Y-52460
X120160Y-55000
X120160Y-57540
X120160Y-61350
X120160Y-81670
X120160Y-85480
X120160Y-88020
X120160Y-90560
X122700Y-38490
X122700Y-41030
X122700Y-52460
X122700Y-55000
X122700Y-57540
X122700Y-61350
X122700Y-81670
X122700Y-85480
X122700Y-88020
X122700Y-90560
X125240Y-52460
X125240Y-55000
X125240Y-57540
X125240Y-61350
X125240Y-81670
X125240Y-85480
X125240Y-88020
X125240Y-90560
X127780Y-52460
X127780Y-55000
X127780Y-57540
X127780Y-61350
X127780Y-81670
X127780Y-85480
X127780Y-88020
X127780Y-90560
X130320Y-52460
X130320Y-55000
X130320Y-57540
X130320Y-61350
X130320Y-81670
X130320Y-85480
X130320Y-88020
X130320Y-90560
X132860Y-38490
X132860Y-41030
X132860Y-52460
X132860Y-55000
X132860Y-57540
X132860Y-61350
X132860Y-81670
X132860Y-85480
X132860Y-88020
X132860Y-90560
X135400Y-38490
X135400Y-41030
X135400Y-52460
X135400Y-55000
X135400Y-57540
X135400Y-61350
X135400Y-81670
X135400Y-85480
X135400Y-88020
X135400Y-90560
X137940Y-38490
X137940Y-41030
X137940Y-52460
X137940Y-55000
X137940Y-57540
X137940Y-61350
X137940Y-81670
X137940Y-85480
X137940Y-88020
X137940Y-90560
X140480Y-38490
X140480Y-41030
X140480Y-52460
X140480Y-55000
X140480Y-57540
X140480Y-61350
X140480Y-81670
X140480Y-85480
X140480Y-88020
X140480Y-90560
X140480Y-93100
X140480Y-95640
X140480Y-98180
X143020Y-38490
X143020Y-41030
X145560Y-38490
X145560Y-41030
T2
G00X109115Y-94930
M15
G01X109615Y-94930
M16
G05
G00X109115Y-101430
M15
G01X109615Y-101430
M16
G05
G00X112925Y-94930
M15
G01X113425Y-94930
M16
G05
G00X112925Y-101430
M15
G01X113425Y-101430
M16
G05
G00X116735Y-94930
M15
G01X117235Y-94930
M16
G05
G00X116735Y-101430
M15
G01X117235Y-101430
M16
G05
G00X120545Y-94930
M15
G01X121045Y-94930
M16
G05
G00X120545Y-101430
M15
G01X121045Y-101430
M16
G05
G00X124355Y-94930
M15
G01X124855Y-94930
M16
G05
G00X124355Y-101430
M15
G01X124855Y-101430
M16
G05
G00X128165Y-94930
M15
G01X128665Y-94930
M16
G05
G00X128165Y-101430
M15
G01X128665Y-101430
M16
G05
G00X131975Y-94930
M15
G01X132475Y-94930
M16
G05
G00X131975Y-101430
M15
G01X132475Y-101430
M16
G05
G00X135785Y-94930
M15
G01X136285Y-94930
M16
G05
G00X135785Y-101430
M15
G01X136285Y-101430
M16
G05
T0
M30
