G04 #@! TF.GenerationSoftware,KiCad,Pcbnew,7.0.1*
G04 #@! TF.CreationDate,2023-11-13T07:35:08+09:00*
G04 #@! TF.ProjectId,Pmod_Adapter_Ethernet,506d6f64-5f41-4646-9170-7465725f4574,rev?*
G04 #@! TF.SameCoordinates,Original*
G04 #@! TF.FileFunction,Copper,L1,Top*
G04 #@! TF.FilePolarity,Positive*
%FSLAX46Y46*%
G04 Gerber Fmt 4.6, Leading zero omitted, Abs format (unit mm)*
G04 Created by KiCad (PCBNEW 7.0.1) date 2023-11-13 07:35:08*
%MOMM*%
%LPD*%
G01*
G04 APERTURE LIST*
G04 #@! TA.AperFunction,ComponentPad*
%ADD10O,1.600000X1.400000*%
G04 #@! TD*
G04 #@! TA.AperFunction,ComponentPad*
%ADD11R,1.600000X1.600000*%
G04 #@! TD*
G04 #@! TA.AperFunction,ComponentPad*
%ADD12O,1.600000X1.600000*%
G04 #@! TD*
G04 #@! TA.AperFunction,ViaPad*
%ADD13C,0.800000*%
G04 #@! TD*
G04 #@! TA.AperFunction,Conductor*
%ADD14C,0.250000*%
G04 #@! TD*
G04 #@! TA.AperFunction,Conductor*
%ADD15C,0.800000*%
G04 #@! TD*
G04 APERTURE END LIST*
D10*
G04 #@! TO.P,J3,1,Pin_1*
G04 #@! TO.N,/MDIO*
X-5080000Y0D03*
G04 #@! TO.P,J3,2,Pin_2*
G04 #@! TO.N,/MDC*
X-5080000Y-2540000D03*
G04 #@! TD*
D11*
G04 #@! TO.P,J2,1,Pin_1*
G04 #@! TO.N,+3V3*
X-5080000Y5080000D03*
D12*
G04 #@! TO.P,J2,2,Pin_2*
G04 #@! TO.N,GND*
X-2540000Y5080000D03*
G04 #@! TO.P,J2,3,Pin_3*
G04 #@! TO.N,/MDIO*
X0Y5080000D03*
G04 #@! TO.P,J2,4,Pin_4*
G04 #@! TO.N,/PMOD_P1_nINT_RETCLK*
X2540000Y5080000D03*
G04 #@! TO.P,J2,5,Pin_5*
G04 #@! TO.N,/PMOD_P2_RX0*
X5080000Y5080000D03*
G04 #@! TO.P,J2,6,Pin_6*
G04 #@! TO.N,/PMOD_P3_TXEN*
X7620000Y5080000D03*
G04 #@! TO.P,J2,7,Pin_7*
G04 #@! TO.N,/PMOD_P4_TX1*
X10160000Y5080000D03*
G04 #@! TO.P,J2,8,Pin_8*
G04 #@! TO.N,+3V3*
X-5080000Y7620000D03*
G04 #@! TO.P,J2,9,Pin_9*
G04 #@! TO.N,GND*
X-2540000Y7620000D03*
G04 #@! TO.P,J2,10,Pin_10*
G04 #@! TO.N,/MDC*
X0Y7620000D03*
G04 #@! TO.P,J2,11,Pin_11*
G04 #@! TO.N,/PMOD_P5_CRS*
X2540000Y7620000D03*
G04 #@! TO.P,J2,12,Pin_12*
G04 #@! TO.N,/PMOD_P6_RX1*
X5080000Y7620000D03*
G04 #@! TO.P,J2,13,Pin_13*
G04 #@! TO.N,/PMOD_P7_TX0*
X7620000Y7620000D03*
G04 #@! TO.P,J2,14,Pin_14*
G04 #@! TO.N,unconnected-(J2-Pin_14-Pad14)*
X10160000Y7620000D03*
G04 #@! TD*
D11*
G04 #@! TO.P,J1,1,Pin_1*
G04 #@! TO.N,/PMOD_P1_nINT_RETCLK*
X0Y0D03*
D12*
G04 #@! TO.P,J1,2,Pin_2*
G04 #@! TO.N,/PMOD_P2_RX0*
X2540000Y0D03*
G04 #@! TO.P,J1,3,Pin_3*
G04 #@! TO.N,/PMOD_P3_TXEN*
X5080000Y0D03*
G04 #@! TO.P,J1,4,Pin_4*
G04 #@! TO.N,/PMOD_P4_TX1*
X7620000Y0D03*
G04 #@! TO.P,J1,5,Pin_5*
G04 #@! TO.N,GND*
X10160000Y0D03*
G04 #@! TO.P,J1,6,Pin_6*
G04 #@! TO.N,+3V3*
X12700000Y0D03*
G04 #@! TO.P,J1,7,Pin_7*
G04 #@! TO.N,/PMOD_P5_CRS*
X0Y-2540000D03*
G04 #@! TO.P,J1,8,Pin_8*
G04 #@! TO.N,/PMOD_P6_RX1*
X2540000Y-2540000D03*
G04 #@! TO.P,J1,9,Pin_9*
G04 #@! TO.N,/PMOD_P7_TX0*
X5080000Y-2540000D03*
G04 #@! TO.P,J1,10,Pin_10*
G04 #@! TO.N,unconnected-(J1-Pin_10-Pad10)*
X7620000Y-2540000D03*
G04 #@! TO.P,J1,11,Pin_11*
G04 #@! TO.N,GND*
X10160000Y-2540000D03*
G04 #@! TO.P,J1,12,Pin_12*
G04 #@! TO.N,+3V3*
X12700000Y-2540000D03*
G04 #@! TD*
D13*
G04 #@! TO.N,GND*
X700000Y3800000D03*
X-5000000Y-5000000D03*
X10000000Y-5000000D03*
X15000000Y0D03*
X15000000Y10000000D03*
X10000000Y15000000D03*
X-5000000Y15000000D03*
X-10000000Y10000000D03*
X-10000000Y0D03*
X-2600000Y1100000D03*
G04 #@! TD*
D14*
G04 #@! TO.N,/PMOD_P7_TX0*
X6155000Y-1465000D02*
X5080000Y-2540000D01*
X7620000Y7620000D02*
X6155000Y6155000D01*
X6155000Y6155000D02*
X6155000Y-1465000D01*
G04 #@! TO.N,/PMOD_P6_RX1*
X3615000Y-1465000D02*
X2540000Y-2540000D01*
X3615000Y6155000D02*
X3615000Y-1465000D01*
X5080000Y7620000D02*
X3615000Y6155000D01*
G04 #@! TO.N,/PMOD_P5_CRS*
X1465000Y-1075000D02*
X0Y-2540000D01*
X2540000Y7620000D02*
X1465000Y6545000D01*
X1465000Y6545000D02*
X1465000Y-1075000D01*
G04 #@! TO.N,/MDC*
X-1465000Y6155000D02*
X-1465000Y1075000D01*
X-1465000Y1075000D02*
X-5080000Y-2540000D01*
X0Y7620000D02*
X-1465000Y6155000D01*
D15*
G04 #@! TO.N,+3V3*
X12700000Y0D02*
X12700000Y-2540000D01*
X12700000Y8890000D02*
X12700000Y0D01*
X11684000Y9906000D02*
X12700000Y8890000D01*
X-4064000Y9906000D02*
X11684000Y9906000D01*
X-5080000Y8890000D02*
X-4064000Y9906000D01*
X-5080000Y7620000D02*
X-5080000Y8890000D01*
X-5080000Y5080000D02*
X-5080000Y7620000D01*
G04 #@! TD*
G04 #@! TA.AperFunction,Conductor*
G04 #@! TO.N,GND*
G36*
X15205605Y17696964D02*
G01*
X15237723Y17675504D01*
X16405504Y16507723D01*
X16426964Y16475605D01*
X16434500Y16437719D01*
X16434500Y-5007719D01*
X16426964Y-5045605D01*
X16405504Y-5077723D01*
X15237722Y-6245504D01*
X15205604Y-6266964D01*
X15167718Y-6274500D01*
X-10087719Y-6274500D01*
X-10125605Y-6266964D01*
X-10157723Y-6245504D01*
X-11325504Y-5077722D01*
X-11346964Y-5045604D01*
X-11354500Y-5007718D01*
X-11354500Y-2634646D01*
X-6080500Y-2634646D01*
X-6041144Y-2819803D01*
X-5964151Y-2992730D01*
X-5852888Y-3145871D01*
X-5712216Y-3272533D01*
X-5548284Y-3367179D01*
X-5368256Y-3425674D01*
X-5227192Y-3440500D01*
X-4932811Y-3440500D01*
X-4932808Y-3440500D01*
X-4791744Y-3425674D01*
X-4611716Y-3367179D01*
X-4447784Y-3272533D01*
X-4447783Y-3272532D01*
X-4447781Y-3272531D01*
X-4307113Y-3145873D01*
X-4195848Y-2992728D01*
X-4118856Y-2819804D01*
X-4101051Y-2736034D01*
X-4079500Y-2634646D01*
X-4079500Y-2445354D01*
X-4118856Y-2260197D01*
X-4118857Y-2260195D01*
X-4118857Y-2260193D01*
X-4159268Y-2169427D01*
X-4166169Y-2111119D01*
X-4138831Y-2059157D01*
X-1247940Y831732D01*
X-1241574Y837565D01*
X-1211804Y862545D01*
X-1192371Y896204D01*
X-1187734Y903483D01*
X-1172986Y924547D01*
X-1148999Y944233D01*
X-1152058Y975300D01*
X-1147662Y1000224D01*
X-1145794Y1008649D01*
X-1135735Y1046191D01*
X-1139123Y1084904D01*
X-1139500Y1093534D01*
X-1139500Y4722406D01*
X-1123880Y4775781D01*
X-1081947Y4812312D01*
X-1026936Y4820472D01*
X-976205Y4797686D01*
X-945763Y4751144D01*
X-928814Y4695272D01*
X-835911Y4521463D01*
X-835910Y4521462D01*
X-710883Y4369117D01*
X-614956Y4290391D01*
X-558536Y4244088D01*
X-384727Y4151185D01*
X-196130Y4093975D01*
X0Y4074658D01*
X196130Y4093975D01*
X384727Y4151185D01*
X558536Y4244088D01*
X614956Y4290391D01*
X710883Y4369117D01*
X835910Y4521462D01*
X835911Y4521463D01*
X928814Y4695272D01*
X945763Y4751144D01*
X976205Y4797686D01*
X1026936Y4820472D01*
X1081947Y4812312D01*
X1123880Y4775781D01*
X1139500Y4722406D01*
X1139500Y979151D01*
X1126877Y930778D01*
X1092227Y894740D01*
X1044387Y880227D01*
X995555Y890941D01*
X958185Y924149D01*
X955068Y928814D01*
X944552Y944552D01*
X878231Y988867D01*
X819748Y1000500D01*
X-819748Y1000500D01*
X-878231Y988867D01*
X-944552Y944552D01*
X-972248Y903101D01*
X-997325Y881589D01*
X-994790Y848453D01*
X-1000500Y819748D01*
X-1000500Y-819748D01*
X-988867Y-878231D01*
X-944552Y-944552D01*
X-878231Y-988867D01*
X-819748Y-1000500D01*
X819747Y-1000500D01*
X819748Y-1000500D01*
X823498Y-999754D01*
X873404Y-1002696D01*
X915511Y-1029648D01*
X939078Y-1073739D01*
X938097Y-1123723D01*
X912817Y-1166855D01*
X490949Y-1588722D01*
X445001Y-1614751D01*
X392208Y-1613455D01*
X196130Y-1553975D01*
X0Y-1534658D01*
X-196130Y-1553975D01*
X-384727Y-1611185D01*
X-558536Y-1704088D01*
X-600501Y-1738528D01*
X-710883Y-1829117D01*
X-816900Y-1958298D01*
X-835911Y-1981463D01*
X-928814Y-2155272D01*
X-928814Y-2155273D01*
X-986024Y-2343868D01*
X-1005341Y-2540000D01*
X-986024Y-2736132D01*
X-928814Y-2924727D01*
X-835910Y-3098538D01*
X-710883Y-3250883D01*
X-558538Y-3375910D01*
X-384727Y-3468814D01*
X-196132Y-3526024D01*
X0Y-3545341D01*
X196132Y-3526024D01*
X384727Y-3468814D01*
X558538Y-3375910D01*
X710883Y-3250883D01*
X835910Y-3098538D01*
X928814Y-2924727D01*
X986024Y-2736132D01*
X1005341Y-2540000D01*
X996020Y-2445356D01*
X986025Y-2343871D01*
X982301Y-2331595D01*
X928814Y-2155273D01*
X928811Y-2155267D01*
X926543Y-2147791D01*
X925247Y-2094997D01*
X951274Y-2049050D01*
X1682066Y-1318258D01*
X1688410Y-1312444D01*
X1718194Y-1287455D01*
X1737632Y-1253785D01*
X1742254Y-1246529D01*
X1764554Y-1214684D01*
X1764942Y-1213232D01*
X1774838Y-1189343D01*
X1775588Y-1188045D01*
X1782335Y-1149777D01*
X1784204Y-1141348D01*
X1794264Y-1103806D01*
X1790877Y-1065092D01*
X1790500Y-1056463D01*
X1790500Y-888510D01*
X1805859Y-835545D01*
X1847172Y-799015D01*
X1901619Y-790255D01*
X1952305Y-811982D01*
X1981462Y-835911D01*
X2155272Y-928814D01*
X2249570Y-957419D01*
X2343868Y-986024D01*
X2540000Y-1005341D01*
X2736132Y-986024D01*
X2924727Y-928814D01*
X2977699Y-900500D01*
X3098537Y-835911D01*
X3127695Y-811982D01*
X3178381Y-790255D01*
X3232828Y-799015D01*
X3274141Y-835545D01*
X3289500Y-888510D01*
X3289500Y-1289167D01*
X3281964Y-1327053D01*
X3260503Y-1359171D01*
X3030950Y-1588722D01*
X2985002Y-1614751D01*
X2932209Y-1613455D01*
X2736130Y-1553975D01*
X2540000Y-1534658D01*
X2343869Y-1553975D01*
X2155272Y-1611185D01*
X1981463Y-1704088D01*
X1829117Y-1829117D01*
X1704088Y-1981463D01*
X1611185Y-2155272D01*
X1553975Y-2343869D01*
X1534658Y-2540000D01*
X1553975Y-2736130D01*
X1611185Y-2924727D01*
X1704088Y-3098536D01*
X1704090Y-3098538D01*
X1829117Y-3250883D01*
X1958298Y-3356900D01*
X1981463Y-3375911D01*
X2155272Y-3468814D01*
X2249570Y-3497419D01*
X2343868Y-3526024D01*
X2540000Y-3545341D01*
X2736132Y-3526024D01*
X2924727Y-3468814D01*
X3098538Y-3375910D01*
X3250883Y-3250883D01*
X3375910Y-3098538D01*
X3468814Y-2924727D01*
X3526024Y-2736132D01*
X3545341Y-2540000D01*
X3536020Y-2445356D01*
X3526025Y-2343871D01*
X3522301Y-2331595D01*
X3468814Y-2155273D01*
X3468811Y-2155267D01*
X3466543Y-2147791D01*
X3465247Y-2094997D01*
X3491274Y-2049050D01*
X3832066Y-1708258D01*
X3838410Y-1702444D01*
X3868194Y-1677455D01*
X3887632Y-1643785D01*
X3892254Y-1636529D01*
X3914554Y-1604684D01*
X3914942Y-1603232D01*
X3924838Y-1579343D01*
X3925588Y-1578045D01*
X3932335Y-1539777D01*
X3934204Y-1531348D01*
X3944264Y-1493806D01*
X3940877Y-1455092D01*
X3940500Y-1446463D01*
X3940500Y-357594D01*
X3956120Y-304219D01*
X3998053Y-267688D01*
X4053064Y-259528D01*
X4103795Y-282314D01*
X4134237Y-328856D01*
X4151185Y-384727D01*
X4244088Y-558536D01*
X4244090Y-558538D01*
X4369117Y-710883D01*
X4484977Y-805967D01*
X4521463Y-835911D01*
X4695272Y-928814D01*
X4789570Y-957419D01*
X4883868Y-986024D01*
X5080000Y-1005341D01*
X5276132Y-986024D01*
X5464727Y-928814D01*
X5517699Y-900500D01*
X5638537Y-835911D01*
X5667695Y-811982D01*
X5718381Y-790255D01*
X5772828Y-799015D01*
X5814141Y-835545D01*
X5829500Y-888510D01*
X5829500Y-1289167D01*
X5821964Y-1327053D01*
X5800503Y-1359171D01*
X5570950Y-1588722D01*
X5525002Y-1614751D01*
X5472209Y-1613455D01*
X5276130Y-1553975D01*
X5080000Y-1534658D01*
X4883869Y-1553975D01*
X4695272Y-1611185D01*
X4521463Y-1704088D01*
X4369117Y-1829117D01*
X4244088Y-1981463D01*
X4151185Y-2155272D01*
X4093975Y-2343869D01*
X4074658Y-2539999D01*
X4093975Y-2736130D01*
X4151185Y-2924727D01*
X4244088Y-3098536D01*
X4244090Y-3098538D01*
X4369117Y-3250883D01*
X4498298Y-3356900D01*
X4521463Y-3375911D01*
X4695272Y-3468814D01*
X4789570Y-3497419D01*
X4883868Y-3526024D01*
X5080000Y-3545341D01*
X5276132Y-3526024D01*
X5464727Y-3468814D01*
X5638538Y-3375910D01*
X5790883Y-3250883D01*
X5915910Y-3098538D01*
X6008814Y-2924727D01*
X6066024Y-2736132D01*
X6085341Y-2540000D01*
X6614658Y-2540000D01*
X6633975Y-2736130D01*
X6691185Y-2924727D01*
X6784088Y-3098536D01*
X6784090Y-3098538D01*
X6909117Y-3250883D01*
X7038298Y-3356900D01*
X7061463Y-3375911D01*
X7235272Y-3468814D01*
X7329570Y-3497419D01*
X7423868Y-3526024D01*
X7620000Y-3545341D01*
X7816132Y-3526024D01*
X8004727Y-3468814D01*
X8178538Y-3375910D01*
X8330883Y-3250883D01*
X8455910Y-3098538D01*
X8548814Y-2924727D01*
X8606024Y-2736132D01*
X8615492Y-2640000D01*
X9165010Y-2640000D01*
X9174469Y-2736034D01*
X9231649Y-2924536D01*
X9324504Y-3098254D01*
X9449472Y-3250527D01*
X9601745Y-3375495D01*
X9775463Y-3468350D01*
X9963965Y-3525530D01*
X10060000Y-3534990D01*
X10260000Y-3534990D01*
X10356034Y-3525530D01*
X10544536Y-3468350D01*
X10718254Y-3375495D01*
X10870527Y-3250527D01*
X10995495Y-3098254D01*
X11088350Y-2924536D01*
X11145530Y-2736034D01*
X11154990Y-2640000D01*
X10260001Y-2640000D01*
X10260000Y-2640001D01*
X10260000Y-3534990D01*
X10060000Y-3534990D01*
X10060000Y-2640001D01*
X10059999Y-2640000D01*
X9165010Y-2640000D01*
X8615492Y-2640000D01*
X8625341Y-2540000D01*
X8615492Y-2440000D01*
X9165009Y-2440000D01*
X10059999Y-2440000D01*
X10060000Y-2439999D01*
X10060000Y-1545009D01*
X10259999Y-1545009D01*
X10260000Y-1545010D01*
X10260000Y-2439999D01*
X10260001Y-2440000D01*
X11154990Y-2440000D01*
X11145530Y-2343965D01*
X11088350Y-2155463D01*
X10995495Y-1981745D01*
X10870527Y-1829472D01*
X10718254Y-1704504D01*
X10544536Y-1611649D01*
X10356034Y-1554469D01*
X10259999Y-1545009D01*
X10060000Y-1545009D01*
X9963965Y-1554469D01*
X9775463Y-1611649D01*
X9601745Y-1704504D01*
X9449472Y-1829472D01*
X9324504Y-1981745D01*
X9231649Y-2155463D01*
X9174469Y-2343965D01*
X9165009Y-2440000D01*
X8615492Y-2440000D01*
X8606024Y-2343868D01*
X8548814Y-2155273D01*
X8548814Y-2155272D01*
X8455911Y-1981463D01*
X8436900Y-1958298D01*
X8330883Y-1829117D01*
X8220501Y-1738528D01*
X8178536Y-1704088D01*
X8004727Y-1611185D01*
X7816130Y-1553975D01*
X7620000Y-1534658D01*
X7423869Y-1553975D01*
X7235272Y-1611185D01*
X7061463Y-1704088D01*
X6909117Y-1829117D01*
X6784088Y-1981463D01*
X6691185Y-2155272D01*
X6633975Y-2343869D01*
X6614658Y-2540000D01*
X6085341Y-2540000D01*
X6076020Y-2445356D01*
X6066025Y-2343871D01*
X6062301Y-2331595D01*
X6008814Y-2155273D01*
X6008811Y-2155267D01*
X6006543Y-2147791D01*
X6005247Y-2094997D01*
X6031274Y-2049050D01*
X6372066Y-1708258D01*
X6378410Y-1702444D01*
X6408194Y-1677455D01*
X6427632Y-1643785D01*
X6432254Y-1636529D01*
X6454554Y-1604684D01*
X6454942Y-1603232D01*
X6464838Y-1579343D01*
X6465588Y-1578045D01*
X6472335Y-1539777D01*
X6474204Y-1531348D01*
X6484264Y-1493806D01*
X6480877Y-1455092D01*
X6480500Y-1446463D01*
X6480500Y-357594D01*
X6496120Y-304219D01*
X6538053Y-267688D01*
X6593064Y-259528D01*
X6643795Y-282314D01*
X6674237Y-328856D01*
X6691185Y-384727D01*
X6784088Y-558536D01*
X6784090Y-558538D01*
X6909117Y-710883D01*
X7024977Y-805967D01*
X7061463Y-835911D01*
X7235272Y-928814D01*
X7329570Y-957419D01*
X7423868Y-986024D01*
X7620000Y-1005341D01*
X7816132Y-986024D01*
X8004727Y-928814D01*
X8178538Y-835910D01*
X8330883Y-710883D01*
X8455910Y-558538D01*
X8548814Y-384727D01*
X8606024Y-196132D01*
X8615492Y-100000D01*
X9165010Y-100000D01*
X9174469Y-196034D01*
X9231649Y-384536D01*
X9324504Y-558254D01*
X9449472Y-710527D01*
X9601745Y-835495D01*
X9775463Y-928350D01*
X9963965Y-985530D01*
X10060000Y-994990D01*
X10260000Y-994990D01*
X10356034Y-985530D01*
X10544536Y-928350D01*
X10718254Y-835495D01*
X10870527Y-710527D01*
X10995495Y-558254D01*
X11088350Y-384536D01*
X11145530Y-196034D01*
X11154990Y-100000D01*
X10260001Y-100000D01*
X10260000Y-100001D01*
X10260000Y-994990D01*
X10060000Y-994990D01*
X10060000Y-100001D01*
X10059999Y-100000D01*
X9165010Y-100000D01*
X8615492Y-100000D01*
X8625341Y0D01*
X8615492Y100000D01*
X9165010Y100000D01*
X10059999Y100000D01*
X10060000Y100001D01*
X10060000Y994990D01*
X10260000Y994990D01*
X10260000Y100001D01*
X10260001Y100000D01*
X11154990Y100000D01*
X11145530Y196034D01*
X11088350Y384536D01*
X10995495Y558254D01*
X10870527Y710527D01*
X10718254Y835495D01*
X10544536Y928350D01*
X10356034Y985530D01*
X10260000Y994990D01*
X10060000Y994990D01*
X9963965Y985530D01*
X9775463Y928350D01*
X9601745Y835495D01*
X9449472Y710527D01*
X9324504Y558254D01*
X9231649Y384536D01*
X9174469Y196034D01*
X9165010Y100000D01*
X8615492Y100000D01*
X8606024Y196132D01*
X8548814Y384727D01*
X8455910Y558538D01*
X8330883Y710883D01*
X8178538Y835910D01*
X8004727Y928814D01*
X7816132Y986024D01*
X7620000Y1005341D01*
X7423868Y986024D01*
X7344524Y961955D01*
X7235272Y928814D01*
X7061463Y835911D01*
X7061462Y835910D01*
X6909117Y710883D01*
X6870500Y663828D01*
X6784088Y558536D01*
X6691185Y384727D01*
X6674237Y328856D01*
X6643795Y282314D01*
X6593064Y259528D01*
X6538053Y267688D01*
X6496120Y304219D01*
X6480500Y357594D01*
X6480500Y4722406D01*
X6496120Y4775781D01*
X6538053Y4812312D01*
X6593064Y4820472D01*
X6643795Y4797686D01*
X6674237Y4751144D01*
X6691185Y4695272D01*
X6784088Y4521463D01*
X6909117Y4369117D01*
X7061463Y4244088D01*
X7235272Y4151185D01*
X7423869Y4093975D01*
X7620000Y4074658D01*
X7816130Y4093975D01*
X8004727Y4151185D01*
X8178536Y4244088D01*
X8234956Y4290391D01*
X8330883Y4369117D01*
X8455910Y4521462D01*
X8455911Y4521463D01*
X8548814Y4695272D01*
X8606024Y4883869D01*
X8606034Y4883965D01*
X8625341Y5080000D01*
X9154658Y5080000D01*
X9173975Y4883869D01*
X9231185Y4695272D01*
X9324088Y4521463D01*
X9449117Y4369117D01*
X9601463Y4244088D01*
X9775272Y4151185D01*
X9963869Y4093975D01*
X10160000Y4074658D01*
X10356130Y4093975D01*
X10544727Y4151185D01*
X10718536Y4244088D01*
X10774956Y4290391D01*
X10870883Y4369117D01*
X10995910Y4521462D01*
X10995911Y4521463D01*
X11088814Y4695272D01*
X11146024Y4883869D01*
X11146034Y4883965D01*
X11165341Y5080000D01*
X11146024Y5276132D01*
X11088814Y5464727D01*
X10995910Y5638538D01*
X10870883Y5790883D01*
X10718538Y5915910D01*
X10544727Y6008814D01*
X10356132Y6066024D01*
X10160000Y6085341D01*
X9963868Y6066024D01*
X9869570Y6037418D01*
X9775272Y6008814D01*
X9601463Y5915911D01*
X9601462Y5915910D01*
X9449117Y5790883D01*
X9410500Y5743828D01*
X9324088Y5638536D01*
X9231185Y5464727D01*
X9173975Y5276130D01*
X9154658Y5080000D01*
X8625341Y5080000D01*
X8606024Y5276132D01*
X8548814Y5464727D01*
X8455910Y5638538D01*
X8330883Y5790883D01*
X8178538Y5915910D01*
X8004727Y6008814D01*
X7816132Y6066024D01*
X7620000Y6085341D01*
X7423868Y6066024D01*
X7329570Y6037418D01*
X7235272Y6008814D01*
X7061463Y5915911D01*
X7061462Y5915910D01*
X6909117Y5790883D01*
X6870500Y5743828D01*
X6784088Y5638536D01*
X6691185Y5464727D01*
X6674237Y5408856D01*
X6643795Y5362314D01*
X6593064Y5339528D01*
X6538053Y5347688D01*
X6496120Y5384219D01*
X6480500Y5437594D01*
X6480500Y5979166D01*
X6488036Y6017052D01*
X6509496Y6049170D01*
X7129048Y6668722D01*
X7174997Y6694751D01*
X7227790Y6693455D01*
X7423869Y6633975D01*
X7620000Y6614658D01*
X7816130Y6633975D01*
X8004727Y6691185D01*
X8178536Y6784088D01*
X8256696Y6848233D01*
X8330883Y6909117D01*
X8455910Y7061462D01*
X8455911Y7061463D01*
X8548814Y7235272D01*
X8606024Y7423869D01*
X8606034Y7423965D01*
X8625341Y7620000D01*
X9154659Y7620000D01*
X9173975Y7423869D01*
X9231185Y7235272D01*
X9324088Y7061463D01*
X9449117Y6909117D01*
X9601463Y6784088D01*
X9775272Y6691185D01*
X9963869Y6633975D01*
X10160000Y6614658D01*
X10356130Y6633975D01*
X10544727Y6691185D01*
X10718536Y6784088D01*
X10796696Y6848233D01*
X10870883Y6909117D01*
X10995910Y7061462D01*
X10995911Y7061463D01*
X11088814Y7235272D01*
X11146024Y7423869D01*
X11146034Y7423965D01*
X11165341Y7620000D01*
X11146024Y7816132D01*
X11088814Y8004727D01*
X10995910Y8178538D01*
X10870883Y8330883D01*
X10718538Y8455910D01*
X10544727Y8548814D01*
X10356132Y8606024D01*
X10160000Y8625341D01*
X9963868Y8606024D01*
X9869570Y8577419D01*
X9775272Y8548814D01*
X9601463Y8455911D01*
X9601462Y8455910D01*
X9449117Y8330883D01*
X9362109Y8224864D01*
X9324088Y8178536D01*
X9231185Y8004727D01*
X9173975Y7816130D01*
X9154659Y7620000D01*
X8625341Y7620000D01*
X8606024Y7816132D01*
X8548814Y8004727D01*
X8455910Y8178538D01*
X8330883Y8330883D01*
X8178538Y8455910D01*
X8004727Y8548814D01*
X7816132Y8606024D01*
X7620000Y8625341D01*
X7423868Y8606024D01*
X7329570Y8577419D01*
X7235272Y8548814D01*
X7061463Y8455911D01*
X7061462Y8455910D01*
X6909117Y8330883D01*
X6822109Y8224864D01*
X6784088Y8178536D01*
X6691185Y8004727D01*
X6633975Y7816130D01*
X6614658Y7620000D01*
X6633975Y7423869D01*
X6693455Y7227790D01*
X6694751Y7174997D01*
X6668722Y7129048D01*
X5937942Y6398268D01*
X5931574Y6392434D01*
X5901805Y6367454D01*
X5882370Y6333794D01*
X5877732Y6326514D01*
X5855446Y6294685D01*
X5855055Y6293225D01*
X5845166Y6269352D01*
X5844412Y6268045D01*
X5844412Y6268044D01*
X5844411Y6268042D01*
X5837663Y6229778D01*
X5835795Y6221350D01*
X5825735Y6183807D01*
X5829123Y6145096D01*
X5829500Y6136466D01*
X5829500Y5968510D01*
X5814141Y5915545D01*
X5772828Y5879015D01*
X5718381Y5870255D01*
X5667695Y5891982D01*
X5638537Y5915911D01*
X5464727Y6008814D01*
X5412846Y6024552D01*
X5276132Y6066024D01*
X5080000Y6085341D01*
X5079999Y6085340D01*
X5079999Y6085341D01*
X4981934Y6075682D01*
X4883868Y6066024D01*
X4789570Y6037418D01*
X4695272Y6008814D01*
X4521463Y5915911D01*
X4521462Y5915910D01*
X4369117Y5790883D01*
X4330500Y5743828D01*
X4244088Y5638536D01*
X4151185Y5464727D01*
X4134237Y5408856D01*
X4103795Y5362314D01*
X4053064Y5339528D01*
X3998053Y5347688D01*
X3956120Y5384219D01*
X3940500Y5437594D01*
X3940500Y5979166D01*
X3948036Y6017052D01*
X3969496Y6049170D01*
X4589048Y6668722D01*
X4634997Y6694751D01*
X4687790Y6693455D01*
X4883869Y6633975D01*
X5080000Y6614658D01*
X5276130Y6633975D01*
X5464727Y6691185D01*
X5638536Y6784088D01*
X5716696Y6848233D01*
X5790883Y6909117D01*
X5915910Y7061462D01*
X5915911Y7061463D01*
X6008814Y7235272D01*
X6066024Y7423869D01*
X6066034Y7423965D01*
X6085341Y7620000D01*
X6066024Y7816132D01*
X6008814Y8004727D01*
X5915910Y8178538D01*
X5790883Y8330883D01*
X5638538Y8455910D01*
X5464727Y8548814D01*
X5276132Y8606024D01*
X5080000Y8625341D01*
X4883868Y8606024D01*
X4789570Y8577419D01*
X4695272Y8548814D01*
X4521463Y8455911D01*
X4521462Y8455910D01*
X4369117Y8330883D01*
X4282109Y8224864D01*
X4244088Y8178536D01*
X4151185Y8004727D01*
X4093975Y7816130D01*
X4074659Y7620000D01*
X4093975Y7423869D01*
X4153455Y7227790D01*
X4154751Y7174997D01*
X4128722Y7129048D01*
X3397942Y6398268D01*
X3391574Y6392434D01*
X3361805Y6367454D01*
X3342370Y6333794D01*
X3337732Y6326514D01*
X3315446Y6294685D01*
X3315055Y6293225D01*
X3305166Y6269352D01*
X3304412Y6268045D01*
X3304412Y6268044D01*
X3304411Y6268042D01*
X3297663Y6229778D01*
X3295795Y6221350D01*
X3285735Y6183807D01*
X3289123Y6145096D01*
X3289500Y6136466D01*
X3289500Y5968510D01*
X3274141Y5915545D01*
X3232828Y5879015D01*
X3178381Y5870255D01*
X3127695Y5891982D01*
X3098537Y5915911D01*
X2924727Y6008814D01*
X2872846Y6024552D01*
X2736132Y6066024D01*
X2540000Y6085341D01*
X2539999Y6085340D01*
X2539999Y6085341D01*
X2441934Y6075682D01*
X2343868Y6066024D01*
X2249570Y6037418D01*
X2155272Y6008814D01*
X1981462Y5915911D01*
X1952305Y5891982D01*
X1901619Y5870255D01*
X1847172Y5879015D01*
X1805859Y5915545D01*
X1790500Y5968510D01*
X1790500Y6369166D01*
X1798036Y6407052D01*
X1819496Y6439170D01*
X2049048Y6668722D01*
X2094997Y6694751D01*
X2147790Y6693455D01*
X2343869Y6633975D01*
X2540000Y6614658D01*
X2736130Y6633975D01*
X2924727Y6691185D01*
X3098536Y6784088D01*
X3176696Y6848233D01*
X3250883Y6909117D01*
X3375910Y7061462D01*
X3375911Y7061463D01*
X3468814Y7235272D01*
X3526024Y7423869D01*
X3526034Y7423965D01*
X3545341Y7620000D01*
X3526024Y7816132D01*
X3468814Y8004727D01*
X3375910Y8178538D01*
X3250883Y8330883D01*
X3098538Y8455910D01*
X2924727Y8548814D01*
X2736132Y8606024D01*
X2540000Y8625341D01*
X2343868Y8606024D01*
X2249570Y8577419D01*
X2155272Y8548814D01*
X1981463Y8455911D01*
X1981462Y8455910D01*
X1829117Y8330883D01*
X1742109Y8224864D01*
X1704088Y8178536D01*
X1611185Y8004727D01*
X1553975Y7816130D01*
X1534659Y7620000D01*
X1553975Y7423869D01*
X1613455Y7227790D01*
X1614751Y7174997D01*
X1588722Y7129048D01*
X1247942Y6788268D01*
X1241574Y6782434D01*
X1211805Y6757454D01*
X1192370Y6723794D01*
X1187732Y6716514D01*
X1165446Y6684685D01*
X1165055Y6683225D01*
X1155166Y6659352D01*
X1154412Y6658045D01*
X1154411Y6658043D01*
X1154411Y6658042D01*
X1147663Y6619778D01*
X1145795Y6611350D01*
X1135735Y6573807D01*
X1139123Y6535096D01*
X1139500Y6526466D01*
X1139500Y5437594D01*
X1123880Y5384219D01*
X1081947Y5347688D01*
X1026936Y5339528D01*
X976205Y5362314D01*
X945763Y5408856D01*
X928814Y5464727D01*
X835911Y5638536D01*
X835910Y5638538D01*
X710883Y5790883D01*
X558538Y5915910D01*
X384727Y6008814D01*
X196132Y6066024D01*
X0Y6085341D01*
X-196132Y6066024D01*
X-384727Y6008814D01*
X-558538Y5915910D01*
X-710883Y5790883D01*
X-835910Y5638538D01*
X-835911Y5638536D01*
X-928814Y5464727D01*
X-945763Y5408856D01*
X-976205Y5362314D01*
X-1026936Y5339528D01*
X-1081947Y5347688D01*
X-1123880Y5384219D01*
X-1139500Y5437594D01*
X-1139500Y5979166D01*
X-1131964Y6017052D01*
X-1110503Y6049170D01*
X-490949Y6668722D01*
X-445001Y6694751D01*
X-392208Y6693455D01*
X-196130Y6633975D01*
X0Y6614658D01*
X196130Y6633975D01*
X384727Y6691185D01*
X558536Y6784088D01*
X636696Y6848233D01*
X710883Y6909117D01*
X835910Y7061462D01*
X835911Y7061463D01*
X928814Y7235272D01*
X986024Y7423869D01*
X986034Y7423965D01*
X1005341Y7620000D01*
X986024Y7816132D01*
X928814Y8004727D01*
X835910Y8178538D01*
X710883Y8330883D01*
X558538Y8455910D01*
X384727Y8548814D01*
X196132Y8606024D01*
X0Y8625341D01*
X-196132Y8606024D01*
X-384727Y8548814D01*
X-558538Y8455910D01*
X-710883Y8330883D01*
X-835910Y8178538D01*
X-928814Y8004727D01*
X-986024Y7816132D01*
X-995492Y7720001D01*
X-1005341Y7620000D01*
X-986025Y7423871D01*
X-986024Y7423869D01*
X-986024Y7423868D01*
X-928814Y7235273D01*
X-928811Y7235267D01*
X-926543Y7227791D01*
X-925247Y7174997D01*
X-951274Y7129050D01*
X-1682066Y6398258D01*
X-1688410Y6392444D01*
X-1718194Y6367455D01*
X-1737632Y6333785D01*
X-1742254Y6326529D01*
X-1764554Y6294684D01*
X-1764942Y6293232D01*
X-1774836Y6269348D01*
X-1775588Y6268045D01*
X-1782334Y6229783D01*
X-1784201Y6221359D01*
X-1794264Y6183807D01*
X-1794263Y6183805D01*
X-1794264Y6183805D01*
X-1790877Y6145096D01*
X-1790500Y6136466D01*
X-1790500Y5967864D01*
X-1805860Y5914899D01*
X-1847172Y5878369D01*
X-1901619Y5869609D01*
X-1952305Y5891336D01*
X-1981741Y5915494D01*
X-2155463Y6008350D01*
X-2343965Y6065530D01*
X-2440000Y6074990D01*
X-2440000Y4085009D01*
X-2343965Y4094469D01*
X-2155463Y4151649D01*
X-1981741Y4244505D01*
X-1952305Y4268664D01*
X-1901619Y4290391D01*
X-1847172Y4281631D01*
X-1805860Y4245101D01*
X-1790500Y4192136D01*
X-1790500Y1250834D01*
X-1798036Y1212948D01*
X-1819496Y1180830D01*
X-4645373Y-1645047D01*
X-4692265Y-1671307D01*
X-4745967Y-1669198D01*
X-4791739Y-1654326D01*
X-4880030Y-1645047D01*
X-4932808Y-1639500D01*
X-5227192Y-1639500D01*
X-5368256Y-1654326D01*
X-5439433Y-1677453D01*
X-5548284Y-1712821D01*
X-5712218Y-1807468D01*
X-5852886Y-1934126D01*
X-5852888Y-1934129D01*
X-5964151Y-2087270D01*
X-6041144Y-2260197D01*
X-6080500Y-2445354D01*
X-6080500Y-2634646D01*
X-11354500Y-2634646D01*
X-11354500Y-94646D01*
X-6080500Y-94646D01*
X-6041144Y-279803D01*
X-5964151Y-452730D01*
X-5852888Y-605871D01*
X-5712216Y-732533D01*
X-5548284Y-827179D01*
X-5368256Y-885674D01*
X-5227192Y-900500D01*
X-4932811Y-900500D01*
X-4932808Y-900500D01*
X-4791744Y-885674D01*
X-4611716Y-827179D01*
X-4447784Y-732533D01*
X-4447783Y-732532D01*
X-4447781Y-732531D01*
X-4307113Y-605873D01*
X-4195848Y-452728D01*
X-4118856Y-279804D01*
X-4101051Y-196034D01*
X-4079500Y-94646D01*
X-4079500Y94646D01*
X-4118856Y279803D01*
X-4129727Y304219D01*
X-4195848Y452728D01*
X-4307113Y605873D01*
X-4447781Y732531D01*
X-4447784Y732533D01*
X-4611716Y827179D01*
X-4791744Y885674D01*
X-4932808Y900500D01*
X-5227192Y900500D01*
X-5368256Y885674D01*
X-5548284Y827179D01*
X-5712216Y732533D01*
X-5852888Y605871D01*
X-5964151Y452730D01*
X-6041144Y279803D01*
X-6080500Y94646D01*
X-6080500Y-94646D01*
X-11354500Y-94646D01*
X-11354500Y7620000D01*
X-6085341Y7620000D01*
X-6066034Y7423965D01*
X-6066024Y7423869D01*
X-6008814Y7235272D01*
X-5915911Y7061463D01*
X-5915910Y7061462D01*
X-5790883Y6909117D01*
X-5716693Y6848231D01*
X-5690005Y6814033D01*
X-5680500Y6771705D01*
X-5680500Y6179500D01*
X-5693763Y6130000D01*
X-5730000Y6093763D01*
X-5779500Y6080500D01*
X-5899748Y6080500D01*
X-5958231Y6068867D01*
X-6024552Y6024552D01*
X-6068867Y5958231D01*
X-6080500Y5899748D01*
X-6080500Y4260252D01*
X-6068867Y4201769D01*
X-6068866Y4201768D01*
X-6024552Y4135447D01*
X-5963224Y4094469D01*
X-5958231Y4091133D01*
X-5899748Y4079500D01*
X-4260253Y4079500D01*
X-4260252Y4079500D01*
X-4231010Y4085316D01*
X-4201768Y4091133D01*
X-4135447Y4135447D01*
X-4091133Y4201768D01*
X-4082642Y4244455D01*
X-4079500Y4260252D01*
X-4079500Y4980000D01*
X-3534990Y4980000D01*
X-3525530Y4883965D01*
X-3468350Y4695463D01*
X-3375495Y4521745D01*
X-3250527Y4369472D01*
X-3098254Y4244504D01*
X-2924536Y4151649D01*
X-2736034Y4094469D01*
X-2640000Y4085010D01*
X-2640000Y4979999D01*
X-2640001Y4980000D01*
X-3534990Y4980000D01*
X-4079500Y4980000D01*
X-4079500Y5180000D01*
X-3534990Y5180000D01*
X-2640001Y5180000D01*
X-2640000Y5180001D01*
X-2640000Y6074990D01*
X-2736034Y6065530D01*
X-2924536Y6008350D01*
X-3098254Y5915495D01*
X-3250527Y5790527D01*
X-3375495Y5638254D01*
X-3468350Y5464536D01*
X-3525530Y5276034D01*
X-3534990Y5180000D01*
X-4079500Y5180000D01*
X-4079500Y5899748D01*
X-4091133Y5958231D01*
X-4098001Y5968510D01*
X-4135447Y6024552D01*
X-4196775Y6065530D01*
X-4201769Y6068867D01*
X-4260252Y6080500D01*
X-4260253Y6080500D01*
X-4380500Y6080500D01*
X-4430000Y6093763D01*
X-4466237Y6130000D01*
X-4479500Y6179500D01*
X-4479500Y6771705D01*
X-4469995Y6814033D01*
X-4443306Y6848231D01*
X-4369117Y6909117D01*
X-4368826Y6909472D01*
X-4244088Y7061463D01*
X-4151185Y7235272D01*
X-4093975Y7423869D01*
X-4084508Y7520000D01*
X-3534990Y7520000D01*
X-3525530Y7423965D01*
X-3468350Y7235463D01*
X-3375495Y7061745D01*
X-3250527Y6909472D01*
X-3098254Y6784504D01*
X-2924536Y6691649D01*
X-2736034Y6634469D01*
X-2639999Y6625009D01*
X-2440000Y6625009D01*
X-2343965Y6634469D01*
X-2155463Y6691649D01*
X-1981745Y6784504D01*
X-1829472Y6909472D01*
X-1704504Y7061745D01*
X-1611649Y7235463D01*
X-1554469Y7423965D01*
X-1545010Y7520000D01*
X-2439999Y7520000D01*
X-2440000Y7519999D01*
X-2440000Y6625009D01*
X-2639999Y6625009D01*
X-2640000Y6625010D01*
X-2640000Y7519999D01*
X-2640001Y7520000D01*
X-3534990Y7520000D01*
X-4084508Y7520000D01*
X-4074659Y7620000D01*
X-4084508Y7720000D01*
X-3534990Y7720000D01*
X-2640001Y7720000D01*
X-2640000Y7720001D01*
X-2640000Y8614990D01*
X-2440000Y8614990D01*
X-2440000Y7720001D01*
X-2439999Y7720000D01*
X-1545010Y7720000D01*
X-1554469Y7816034D01*
X-1611649Y8004536D01*
X-1704504Y8178254D01*
X-1829472Y8330527D01*
X-1981745Y8455495D01*
X-2155463Y8548350D01*
X-2343965Y8605530D01*
X-2440000Y8614990D01*
X-2640000Y8614990D01*
X-2736034Y8605530D01*
X-2924536Y8548350D01*
X-3098254Y8455495D01*
X-3250527Y8330527D01*
X-3375495Y8178254D01*
X-3468350Y8004536D01*
X-3525530Y7816034D01*
X-3534990Y7720000D01*
X-4084508Y7720000D01*
X-4093975Y7816130D01*
X-4151185Y8004727D01*
X-4244088Y8178536D01*
X-4282109Y8224864D01*
X-4369117Y8330883D01*
X-4443306Y8391768D01*
X-4469995Y8425967D01*
X-4479500Y8468295D01*
X-4479500Y8600257D01*
X-4471964Y8638143D01*
X-4450504Y8670261D01*
X-3844261Y9276504D01*
X-3812143Y9297964D01*
X-3774257Y9305500D01*
X11394257Y9305500D01*
X11432143Y9297964D01*
X11464261Y9276504D01*
X12070504Y8670261D01*
X12091964Y8638143D01*
X12099500Y8600257D01*
X12099500Y848295D01*
X12089995Y805967D01*
X12063306Y771768D01*
X11989117Y710883D01*
X11950500Y663828D01*
X11864088Y558536D01*
X11771185Y384727D01*
X11713975Y196130D01*
X11694658Y0D01*
X11713975Y-196130D01*
X11771185Y-384727D01*
X11864088Y-558536D01*
X11864090Y-558538D01*
X11989117Y-710883D01*
X12063306Y-771768D01*
X12089995Y-805967D01*
X12099500Y-848295D01*
X12099500Y-1691705D01*
X12089995Y-1734033D01*
X12063306Y-1768231D01*
X11989116Y-1829117D01*
X11989117Y-1829117D01*
X11864088Y-1981463D01*
X11771185Y-2155272D01*
X11713975Y-2343869D01*
X11694658Y-2540000D01*
X11713975Y-2736130D01*
X11771185Y-2924727D01*
X11864088Y-3098536D01*
X11864090Y-3098538D01*
X11989117Y-3250883D01*
X12118298Y-3356900D01*
X12141463Y-3375911D01*
X12315272Y-3468814D01*
X12409570Y-3497419D01*
X12503868Y-3526024D01*
X12700000Y-3545341D01*
X12896132Y-3526024D01*
X13084727Y-3468814D01*
X13258538Y-3375910D01*
X13410883Y-3250883D01*
X13535910Y-3098538D01*
X13628814Y-2924727D01*
X13686024Y-2736132D01*
X13705341Y-2540000D01*
X13686024Y-2343868D01*
X13628814Y-2155273D01*
X13628814Y-2155272D01*
X13535911Y-1981463D01*
X13516900Y-1958298D01*
X13410883Y-1829117D01*
X13336693Y-1768231D01*
X13310005Y-1734033D01*
X13300500Y-1691705D01*
X13300500Y-848295D01*
X13310005Y-805967D01*
X13336693Y-771768D01*
X13410883Y-710883D01*
X13535910Y-558538D01*
X13628814Y-384727D01*
X13686024Y-196132D01*
X13705341Y0D01*
X13686024Y196132D01*
X13628814Y384727D01*
X13535910Y558538D01*
X13410883Y710883D01*
X13336693Y771768D01*
X13310005Y805967D01*
X13300500Y848295D01*
X13300500Y8844151D01*
X13301347Y8857073D01*
X13305682Y8890000D01*
X13285044Y9046761D01*
X13285044Y9046762D01*
X13224536Y9192841D01*
X13192249Y9234917D01*
X13152452Y9286784D01*
X13128284Y9318279D01*
X13128282Y9318282D01*
X13101925Y9338505D01*
X13092205Y9347028D01*
X12141028Y10298205D01*
X12132505Y10307925D01*
X12112282Y10334282D01*
X11986841Y10430536D01*
X11840762Y10491044D01*
X11723361Y10506500D01*
X11684000Y10511682D01*
X11651073Y10507347D01*
X11638151Y10506500D01*
X-4018151Y10506500D01*
X-4031073Y10507347D01*
X-4064000Y10511682D01*
X-4103361Y10506500D01*
X-4220762Y10491044D01*
X-4366841Y10430536D01*
X-4492282Y10334282D01*
X-4512505Y10307925D01*
X-4521028Y10298205D01*
X-5472205Y9347028D01*
X-5481925Y9338505D01*
X-5508282Y9318282D01*
X-5508284Y9318279D01*
X-5532452Y9286784D01*
X-5572249Y9234917D01*
X-5604536Y9192841D01*
X-5665044Y9046762D01*
X-5665044Y9046761D01*
X-5685682Y8890000D01*
X-5681347Y8857073D01*
X-5680500Y8844151D01*
X-5680500Y8468295D01*
X-5690005Y8425967D01*
X-5716693Y8391768D01*
X-5790883Y8330883D01*
X-5915910Y8178538D01*
X-6008814Y8004727D01*
X-6066024Y7816132D01*
X-6085341Y7620000D01*
X-11354500Y7620000D01*
X-11354500Y16437719D01*
X-11346964Y16475605D01*
X-11325504Y16507723D01*
X-10157723Y17675504D01*
X-10125605Y17696964D01*
X-10087719Y17704500D01*
X15167719Y17704500D01*
X15205605Y17696964D01*
G37*
G04 #@! TD.AperFunction*
G04 #@! TD*
M02*
