G04 #@! TF.GenerationSoftware,KiCad,Pcbnew,7.0.1*
G04 #@! TF.CreationDate,2023-11-13T07:35:08+09:00*
G04 #@! TF.ProjectId,Pmod_Adapter_Ethernet,506d6f64-5f41-4646-9170-7465725f4574,rev?*
G04 #@! TF.SameCoordinates,Original*
G04 #@! TF.FileFunction,Copper,L2,Bot*
G04 #@! TF.FilePolarity,Positive*
%FSLAX46Y46*%
G04 Gerber Fmt 4.6, Leading zero omitted, Abs format (unit mm)*
G04 Created by KiCad (PCBNEW 7.0.1) date 2023-11-13 07:35:08*
%MOMM*%
%LPD*%
G01*
G04 APERTURE LIST*
G04 #@! TA.AperFunction,ComponentPad*
%ADD10O,1.600000X1.400000*%
G04 #@! TD*
G04 #@! TA.AperFunction,ComponentPad*
%ADD11R,1.600000X1.600000*%
G04 #@! TD*
G04 #@! TA.AperFunction,ComponentPad*
%ADD12O,1.600000X1.600000*%
G04 #@! TD*
G04 #@! TA.AperFunction,ViaPad*
%ADD13C,0.800000*%
G04 #@! TD*
G04 #@! TA.AperFunction,Conductor*
%ADD14C,0.250000*%
G04 #@! TD*
G04 APERTURE END LIST*
D10*
G04 #@! TO.P,J3,1,Pin_1*
G04 #@! TO.N,/MDIO*
X-5080000Y0D03*
G04 #@! TO.P,J3,2,Pin_2*
G04 #@! TO.N,/MDC*
X-5080000Y-2540000D03*
G04 #@! TD*
D11*
G04 #@! TO.P,J2,1,Pin_1*
G04 #@! TO.N,+3V3*
X-5080000Y5080000D03*
D12*
G04 #@! TO.P,J2,2,Pin_2*
G04 #@! TO.N,GND*
X-2540000Y5080000D03*
G04 #@! TO.P,J2,3,Pin_3*
G04 #@! TO.N,/MDIO*
X0Y5080000D03*
G04 #@! TO.P,J2,4,Pin_4*
G04 #@! TO.N,/PMOD_P1_nINT_RETCLK*
X2540000Y5080000D03*
G04 #@! TO.P,J2,5,Pin_5*
G04 #@! TO.N,/PMOD_P2_RX0*
X5080000Y5080000D03*
G04 #@! TO.P,J2,6,Pin_6*
G04 #@! TO.N,/PMOD_P3_TXEN*
X7620000Y5080000D03*
G04 #@! TO.P,J2,7,Pin_7*
G04 #@! TO.N,/PMOD_P4_TX1*
X10160000Y5080000D03*
G04 #@! TO.P,J2,8,Pin_8*
G04 #@! TO.N,+3V3*
X-5080000Y7620000D03*
G04 #@! TO.P,J2,9,Pin_9*
G04 #@! TO.N,GND*
X-2540000Y7620000D03*
G04 #@! TO.P,J2,10,Pin_10*
G04 #@! TO.N,/MDC*
X0Y7620000D03*
G04 #@! TO.P,J2,11,Pin_11*
G04 #@! TO.N,/PMOD_P5_CRS*
X2540000Y7620000D03*
G04 #@! TO.P,J2,12,Pin_12*
G04 #@! TO.N,/PMOD_P6_RX1*
X5080000Y7620000D03*
G04 #@! TO.P,J2,13,Pin_13*
G04 #@! TO.N,/PMOD_P7_TX0*
X7620000Y7620000D03*
G04 #@! TO.P,J2,14,Pin_14*
G04 #@! TO.N,unconnected-(J2-Pin_14-Pad14)*
X10160000Y7620000D03*
G04 #@! TD*
D11*
G04 #@! TO.P,J1,1,Pin_1*
G04 #@! TO.N,/PMOD_P1_nINT_RETCLK*
X0Y0D03*
D12*
G04 #@! TO.P,J1,2,Pin_2*
G04 #@! TO.N,/PMOD_P2_RX0*
X2540000Y0D03*
G04 #@! TO.P,J1,3,Pin_3*
G04 #@! TO.N,/PMOD_P3_TXEN*
X5080000Y0D03*
G04 #@! TO.P,J1,4,Pin_4*
G04 #@! TO.N,/PMOD_P4_TX1*
X7620000Y0D03*
G04 #@! TO.P,J1,5,Pin_5*
G04 #@! TO.N,GND*
X10160000Y0D03*
G04 #@! TO.P,J1,6,Pin_6*
G04 #@! TO.N,+3V3*
X12700000Y0D03*
G04 #@! TO.P,J1,7,Pin_7*
G04 #@! TO.N,/PMOD_P5_CRS*
X0Y-2540000D03*
G04 #@! TO.P,J1,8,Pin_8*
G04 #@! TO.N,/PMOD_P6_RX1*
X2540000Y-2540000D03*
G04 #@! TO.P,J1,9,Pin_9*
G04 #@! TO.N,/PMOD_P7_TX0*
X5080000Y-2540000D03*
G04 #@! TO.P,J1,10,Pin_10*
G04 #@! TO.N,unconnected-(J1-Pin_10-Pad10)*
X7620000Y-2540000D03*
G04 #@! TO.P,J1,11,Pin_11*
G04 #@! TO.N,GND*
X10160000Y-2540000D03*
G04 #@! TO.P,J1,12,Pin_12*
G04 #@! TO.N,+3V3*
X12700000Y-2540000D03*
G04 #@! TD*
D13*
G04 #@! TO.N,GND*
X700000Y3800000D03*
X-5000000Y-5000000D03*
X10000000Y-5000000D03*
X15000000Y0D03*
X15000000Y10000000D03*
X10000000Y15000000D03*
X-5000000Y15000000D03*
X-10000000Y10000000D03*
X-10000000Y0D03*
X-2600000Y1100000D03*
G04 #@! TD*
D14*
G04 #@! TO.N,/PMOD_P4_TX1*
X10160000Y2540000D02*
X7620000Y0D01*
X10160000Y5080000D02*
X10160000Y2540000D01*
G04 #@! TO.N,/PMOD_P3_TXEN*
X7620000Y2540000D02*
X5080000Y0D01*
X7620000Y5080000D02*
X7620000Y2540000D01*
G04 #@! TO.N,/PMOD_P2_RX0*
X5080000Y2540000D02*
X2540000Y0D01*
X5080000Y5080000D02*
X5080000Y2540000D01*
G04 #@! TO.N,/PMOD_P1_nINT_RETCLK*
X2540000Y2540000D02*
X0Y0D01*
X2540000Y5080000D02*
X2540000Y2540000D01*
G04 #@! TO.N,/MDIO*
X0Y5080000D02*
X-5080000Y0D01*
G04 #@! TD*
G04 #@! TA.AperFunction,Conductor*
G04 #@! TO.N,GND*
G36*
X15205605Y17696964D02*
G01*
X15237723Y17675504D01*
X16405504Y16507723D01*
X16426964Y16475605D01*
X16434500Y16437719D01*
X16434500Y-5007719D01*
X16426964Y-5045605D01*
X16405504Y-5077723D01*
X15237722Y-6245504D01*
X15205604Y-6266964D01*
X15167718Y-6274500D01*
X-10087719Y-6274500D01*
X-10125605Y-6266964D01*
X-10157723Y-6245504D01*
X-11325504Y-5077722D01*
X-11346964Y-5045604D01*
X-11354500Y-5007718D01*
X-11354500Y-2634646D01*
X-6080500Y-2634646D01*
X-6041144Y-2819803D01*
X-5964151Y-2992730D01*
X-5852888Y-3145871D01*
X-5712216Y-3272533D01*
X-5548284Y-3367179D01*
X-5368256Y-3425674D01*
X-5227192Y-3440500D01*
X-4932811Y-3440500D01*
X-4932808Y-3440500D01*
X-4791744Y-3425674D01*
X-4611716Y-3367179D01*
X-4447784Y-3272533D01*
X-4447783Y-3272532D01*
X-4447781Y-3272531D01*
X-4307113Y-3145873D01*
X-4195848Y-2992728D01*
X-4118856Y-2819804D01*
X-4101051Y-2736034D01*
X-4079500Y-2634646D01*
X-4079500Y-2540000D01*
X-1005341Y-2540000D01*
X-986024Y-2736132D01*
X-928814Y-2924727D01*
X-835910Y-3098538D01*
X-710883Y-3250883D01*
X-558538Y-3375910D01*
X-384727Y-3468814D01*
X-196132Y-3526024D01*
X0Y-3545341D01*
X196132Y-3526024D01*
X384727Y-3468814D01*
X558538Y-3375910D01*
X710883Y-3250883D01*
X835910Y-3098538D01*
X928814Y-2924727D01*
X986024Y-2736132D01*
X1005341Y-2540000D01*
X1534658Y-2540000D01*
X1553975Y-2736130D01*
X1611185Y-2924727D01*
X1704088Y-3098536D01*
X1704090Y-3098538D01*
X1829117Y-3250883D01*
X1958298Y-3356900D01*
X1981463Y-3375911D01*
X2155272Y-3468814D01*
X2249570Y-3497419D01*
X2343868Y-3526024D01*
X2540000Y-3545341D01*
X2736132Y-3526024D01*
X2924727Y-3468814D01*
X3098538Y-3375910D01*
X3250883Y-3250883D01*
X3375910Y-3098538D01*
X3468814Y-2924727D01*
X3526024Y-2736132D01*
X3545341Y-2540000D01*
X3545341Y-2539999D01*
X4074658Y-2539999D01*
X4093975Y-2736130D01*
X4151185Y-2924727D01*
X4244088Y-3098536D01*
X4244090Y-3098538D01*
X4369117Y-3250883D01*
X4498298Y-3356900D01*
X4521463Y-3375911D01*
X4695272Y-3468814D01*
X4789570Y-3497419D01*
X4883868Y-3526024D01*
X5080000Y-3545341D01*
X5276132Y-3526024D01*
X5464727Y-3468814D01*
X5638538Y-3375910D01*
X5790883Y-3250883D01*
X5915910Y-3098538D01*
X6008814Y-2924727D01*
X6066024Y-2736132D01*
X6085341Y-2540000D01*
X6614658Y-2540000D01*
X6633975Y-2736130D01*
X6691185Y-2924727D01*
X6784088Y-3098536D01*
X6784090Y-3098538D01*
X6909117Y-3250883D01*
X7038298Y-3356900D01*
X7061463Y-3375911D01*
X7235272Y-3468814D01*
X7329570Y-3497419D01*
X7423868Y-3526024D01*
X7620000Y-3545341D01*
X7816132Y-3526024D01*
X8004727Y-3468814D01*
X8178538Y-3375910D01*
X8330883Y-3250883D01*
X8455910Y-3098538D01*
X8548814Y-2924727D01*
X8606024Y-2736132D01*
X8615492Y-2640000D01*
X9165010Y-2640000D01*
X9174469Y-2736034D01*
X9231649Y-2924536D01*
X9324504Y-3098254D01*
X9449472Y-3250527D01*
X9601745Y-3375495D01*
X9775463Y-3468350D01*
X9963965Y-3525530D01*
X10060000Y-3534990D01*
X10260000Y-3534990D01*
X10356034Y-3525530D01*
X10544536Y-3468350D01*
X10718254Y-3375495D01*
X10870527Y-3250527D01*
X10995495Y-3098254D01*
X11088350Y-2924536D01*
X11145530Y-2736034D01*
X11154990Y-2640000D01*
X10260001Y-2640000D01*
X10260000Y-2640001D01*
X10260000Y-3534990D01*
X10060000Y-3534990D01*
X10060000Y-2640001D01*
X10059999Y-2640000D01*
X9165010Y-2640000D01*
X8615492Y-2640000D01*
X8625341Y-2540000D01*
X11694658Y-2540000D01*
X11713975Y-2736130D01*
X11771185Y-2924727D01*
X11864088Y-3098536D01*
X11864090Y-3098538D01*
X11989117Y-3250883D01*
X12118298Y-3356900D01*
X12141463Y-3375911D01*
X12315272Y-3468814D01*
X12409570Y-3497419D01*
X12503868Y-3526024D01*
X12700000Y-3545341D01*
X12896132Y-3526024D01*
X13084727Y-3468814D01*
X13258538Y-3375910D01*
X13410883Y-3250883D01*
X13535910Y-3098538D01*
X13628814Y-2924727D01*
X13686024Y-2736132D01*
X13705341Y-2540000D01*
X13686024Y-2343868D01*
X13628814Y-2155273D01*
X13628814Y-2155272D01*
X13535911Y-1981463D01*
X13516900Y-1958298D01*
X13410883Y-1829117D01*
X13269177Y-1712821D01*
X13258536Y-1704088D01*
X13084727Y-1611185D01*
X12896130Y-1553975D01*
X12700000Y-1534658D01*
X12503869Y-1553975D01*
X12315272Y-1611185D01*
X12141463Y-1704088D01*
X11989117Y-1829117D01*
X11864088Y-1981463D01*
X11771185Y-2155272D01*
X11713975Y-2343869D01*
X11694658Y-2540000D01*
X8625341Y-2540000D01*
X8615492Y-2440000D01*
X9165009Y-2440000D01*
X10059999Y-2440000D01*
X10060000Y-2439999D01*
X10060000Y-1545009D01*
X10259999Y-1545009D01*
X10260000Y-1545010D01*
X10260000Y-2439999D01*
X10260001Y-2440000D01*
X11154990Y-2440000D01*
X11145530Y-2343965D01*
X11088350Y-2155463D01*
X10995495Y-1981745D01*
X10870527Y-1829472D01*
X10718254Y-1704504D01*
X10544536Y-1611649D01*
X10356034Y-1554469D01*
X10259999Y-1545009D01*
X10060000Y-1545009D01*
X9963965Y-1554469D01*
X9775463Y-1611649D01*
X9601745Y-1704504D01*
X9449472Y-1829472D01*
X9324504Y-1981745D01*
X9231649Y-2155463D01*
X9174469Y-2343965D01*
X9165009Y-2440000D01*
X8615492Y-2440000D01*
X8606024Y-2343868D01*
X8548814Y-2155273D01*
X8548814Y-2155272D01*
X8455911Y-1981463D01*
X8436900Y-1958298D01*
X8330883Y-1829117D01*
X8189177Y-1712821D01*
X8178536Y-1704088D01*
X8004727Y-1611185D01*
X7816130Y-1553975D01*
X7620000Y-1534658D01*
X7423869Y-1553975D01*
X7235272Y-1611185D01*
X7061463Y-1704088D01*
X6909117Y-1829117D01*
X6784088Y-1981463D01*
X6691185Y-2155272D01*
X6633975Y-2343869D01*
X6614658Y-2540000D01*
X6085341Y-2540000D01*
X6066024Y-2343868D01*
X6008814Y-2155273D01*
X6008814Y-2155272D01*
X5915911Y-1981463D01*
X5896900Y-1958298D01*
X5790883Y-1829117D01*
X5649177Y-1712821D01*
X5638536Y-1704088D01*
X5464727Y-1611185D01*
X5276130Y-1553975D01*
X5080000Y-1534658D01*
X4883869Y-1553975D01*
X4695272Y-1611185D01*
X4521463Y-1704088D01*
X4369117Y-1829117D01*
X4244088Y-1981463D01*
X4151185Y-2155272D01*
X4093975Y-2343869D01*
X4074658Y-2539999D01*
X3545341Y-2539999D01*
X3526024Y-2343868D01*
X3468814Y-2155273D01*
X3468814Y-2155272D01*
X3375911Y-1981463D01*
X3356900Y-1958298D01*
X3250883Y-1829117D01*
X3109177Y-1712821D01*
X3098536Y-1704088D01*
X2924727Y-1611185D01*
X2736130Y-1553975D01*
X2540000Y-1534658D01*
X2343869Y-1553975D01*
X2155272Y-1611185D01*
X1981463Y-1704088D01*
X1829117Y-1829117D01*
X1704088Y-1981463D01*
X1611185Y-2155272D01*
X1553975Y-2343869D01*
X1534658Y-2540000D01*
X1005341Y-2540000D01*
X986024Y-2343868D01*
X928814Y-2155273D01*
X928814Y-2155272D01*
X835911Y-1981463D01*
X816900Y-1958298D01*
X710883Y-1829117D01*
X569177Y-1712821D01*
X558536Y-1704088D01*
X384727Y-1611185D01*
X196130Y-1553975D01*
X0Y-1534658D01*
X-196130Y-1553975D01*
X-384727Y-1611185D01*
X-558536Y-1704088D01*
X-569177Y-1712821D01*
X-710883Y-1829117D01*
X-816900Y-1958298D01*
X-835911Y-1981463D01*
X-928814Y-2155272D01*
X-928814Y-2155273D01*
X-986024Y-2343868D01*
X-1005341Y-2540000D01*
X-4079500Y-2540000D01*
X-4079500Y-2445354D01*
X-4118856Y-2260197D01*
X-4118856Y-2260195D01*
X-4195848Y-2087271D01*
X-4307113Y-1934126D01*
X-4447781Y-1807468D01*
X-4611715Y-1712821D01*
X-4791744Y-1654326D01*
X-4791743Y-1654326D01*
X-4932808Y-1639500D01*
X-5227192Y-1639500D01*
X-5368256Y-1654326D01*
X-5521407Y-1704088D01*
X-5548284Y-1712821D01*
X-5712218Y-1807468D01*
X-5852886Y-1934126D01*
X-5852888Y-1934129D01*
X-5964151Y-2087270D01*
X-6041144Y-2260197D01*
X-6080500Y-2445354D01*
X-6080500Y-2634646D01*
X-11354500Y-2634646D01*
X-11354500Y-94646D01*
X-6080500Y-94646D01*
X-6041144Y-279803D01*
X-5964151Y-452730D01*
X-5852888Y-605871D01*
X-5712216Y-732533D01*
X-5548284Y-827179D01*
X-5368256Y-885674D01*
X-5227192Y-900500D01*
X-4932811Y-900500D01*
X-4932808Y-900500D01*
X-4791744Y-885674D01*
X-4611716Y-827179D01*
X-4598845Y-819748D01*
X-1000500Y-819748D01*
X-988867Y-878231D01*
X-944552Y-944552D01*
X-878231Y-988867D01*
X-819748Y-1000500D01*
X819747Y-1000500D01*
X819748Y-1000500D01*
X878231Y-988867D01*
X944552Y-944552D01*
X988867Y-878231D01*
X1000500Y-819748D01*
X1000500Y0D01*
X1534658Y0D01*
X1553975Y-196130D01*
X1611185Y-384727D01*
X1704088Y-558536D01*
X1704090Y-558538D01*
X1829117Y-710883D01*
X1958298Y-816900D01*
X1981463Y-835911D01*
X2155272Y-928814D01*
X2249570Y-957419D01*
X2343868Y-986024D01*
X2540000Y-1005341D01*
X2736132Y-986024D01*
X2924727Y-928814D01*
X3098538Y-835910D01*
X3250883Y-710883D01*
X3375910Y-558538D01*
X3468814Y-384727D01*
X3526024Y-196132D01*
X3545341Y0D01*
X4074658Y0D01*
X4093975Y-196130D01*
X4151185Y-384727D01*
X4244088Y-558536D01*
X4244090Y-558538D01*
X4369117Y-710883D01*
X4498298Y-816900D01*
X4521463Y-835911D01*
X4695272Y-928814D01*
X4789570Y-957419D01*
X4883868Y-986024D01*
X5080000Y-1005341D01*
X5276132Y-986024D01*
X5464727Y-928814D01*
X5638538Y-835910D01*
X5790883Y-710883D01*
X5915910Y-558538D01*
X6008814Y-384727D01*
X6066024Y-196132D01*
X6085341Y0D01*
X6614658Y0D01*
X6633975Y-196130D01*
X6691185Y-384727D01*
X6784088Y-558536D01*
X6784090Y-558538D01*
X6909117Y-710883D01*
X7038298Y-816900D01*
X7061463Y-835911D01*
X7235272Y-928814D01*
X7329570Y-957419D01*
X7423868Y-986024D01*
X7620000Y-1005341D01*
X7816132Y-986024D01*
X8004727Y-928814D01*
X8178538Y-835910D01*
X8330883Y-710883D01*
X8455910Y-558538D01*
X8548814Y-384727D01*
X8606024Y-196132D01*
X8615492Y-100000D01*
X9165010Y-100000D01*
X9174469Y-196034D01*
X9231649Y-384536D01*
X9324504Y-558254D01*
X9449472Y-710527D01*
X9601745Y-835495D01*
X9775463Y-928350D01*
X9963965Y-985530D01*
X10060000Y-994990D01*
X10260000Y-994990D01*
X10356034Y-985530D01*
X10544536Y-928350D01*
X10718254Y-835495D01*
X10870527Y-710527D01*
X10995495Y-558254D01*
X11088350Y-384536D01*
X11145530Y-196034D01*
X11154990Y-100000D01*
X10260001Y-100000D01*
X10260000Y-100001D01*
X10260000Y-994990D01*
X10060000Y-994990D01*
X10060000Y-100001D01*
X10059999Y-100000D01*
X9165010Y-100000D01*
X8615492Y-100000D01*
X8625341Y0D01*
X11694658Y0D01*
X11713975Y-196130D01*
X11771185Y-384727D01*
X11864088Y-558536D01*
X11864090Y-558538D01*
X11989117Y-710883D01*
X12118298Y-816900D01*
X12141463Y-835911D01*
X12315272Y-928814D01*
X12409570Y-957419D01*
X12503868Y-986024D01*
X12700000Y-1005341D01*
X12896132Y-986024D01*
X13084727Y-928814D01*
X13258538Y-835910D01*
X13410883Y-710883D01*
X13535910Y-558538D01*
X13628814Y-384727D01*
X13686024Y-196132D01*
X13705341Y0D01*
X13686024Y196132D01*
X13628814Y384727D01*
X13535910Y558538D01*
X13410883Y710883D01*
X13258538Y835910D01*
X13084727Y928814D01*
X12896132Y986024D01*
X12700000Y1005341D01*
X12503868Y986024D01*
X12502240Y985530D01*
X12315272Y928814D01*
X12141463Y835911D01*
X12141462Y835910D01*
X11989117Y710883D01*
X11902937Y605873D01*
X11864088Y558536D01*
X11771185Y384727D01*
X11713975Y196130D01*
X11694658Y0D01*
X8625341Y0D01*
X8616020Y94644D01*
X8615493Y100000D01*
X9165010Y100000D01*
X10059999Y100000D01*
X10060000Y100001D01*
X10060000Y994990D01*
X10260000Y994990D01*
X10260000Y100001D01*
X10260001Y100000D01*
X11154990Y100000D01*
X11145530Y196034D01*
X11088350Y384536D01*
X10995495Y558254D01*
X10870527Y710527D01*
X10718254Y835495D01*
X10544536Y928350D01*
X10356034Y985530D01*
X10260000Y994990D01*
X10060000Y994990D01*
X9963965Y985530D01*
X9775463Y928350D01*
X9601745Y835495D01*
X9449472Y710527D01*
X9324504Y558254D01*
X9231649Y384536D01*
X9174469Y196034D01*
X9165010Y100000D01*
X8615493Y100000D01*
X8606025Y196129D01*
X8598796Y219956D01*
X8548814Y384727D01*
X8548812Y384729D01*
X8546544Y392208D01*
X8545248Y445002D01*
X8571277Y490951D01*
X10377068Y2296741D01*
X10383424Y2302565D01*
X10413194Y2327545D01*
X10432625Y2361201D01*
X10437266Y2368487D01*
X10459553Y2400316D01*
X10459944Y2401776D01*
X10469828Y2425640D01*
X10470588Y2426955D01*
X10477337Y2465231D01*
X10479207Y2473665D01*
X10489263Y2511193D01*
X10485877Y2549896D01*
X10485500Y2558525D01*
X10485500Y4060190D01*
X10499585Y4111086D01*
X10537832Y4147500D01*
X10718536Y4244088D01*
X10764864Y4282109D01*
X10870883Y4369117D01*
X10995910Y4521462D01*
X10995911Y4521463D01*
X11088814Y4695272D01*
X11146024Y4883869D01*
X11146034Y4883965D01*
X11165341Y5080000D01*
X11146024Y5276132D01*
X11088814Y5464727D01*
X10995910Y5638538D01*
X10870883Y5790883D01*
X10718538Y5915910D01*
X10544727Y6008814D01*
X10356132Y6066024D01*
X10160000Y6085341D01*
X9963868Y6066024D01*
X9962240Y6065530D01*
X9775272Y6008814D01*
X9601463Y5915911D01*
X9601462Y5915910D01*
X9449117Y5790883D01*
X9362109Y5684864D01*
X9324088Y5638536D01*
X9231185Y5464727D01*
X9173975Y5276130D01*
X9154658Y5080000D01*
X9173975Y4883869D01*
X9231185Y4695272D01*
X9324088Y4521463D01*
X9449117Y4369117D01*
X9601463Y4244088D01*
X9782168Y4147500D01*
X9820415Y4111086D01*
X9834500Y4060190D01*
X9834500Y2715835D01*
X9826964Y2677949D01*
X9805504Y2645831D01*
X8110951Y951277D01*
X8065002Y925248D01*
X8012208Y926544D01*
X8004729Y928812D01*
X8004727Y928814D01*
X7839956Y978796D01*
X7816129Y986025D01*
X7620000Y1005341D01*
X7423868Y986024D01*
X7422240Y985530D01*
X7235272Y928814D01*
X7061463Y835911D01*
X7061462Y835910D01*
X6909117Y710883D01*
X6822937Y605873D01*
X6784088Y558536D01*
X6691185Y384727D01*
X6633975Y196130D01*
X6614658Y0D01*
X6085341Y0D01*
X6076020Y94644D01*
X6066025Y196129D01*
X6058796Y219956D01*
X6008814Y384727D01*
X6008812Y384729D01*
X6006544Y392208D01*
X6005248Y445002D01*
X6031277Y490951D01*
X7837068Y2296741D01*
X7843424Y2302565D01*
X7873194Y2327545D01*
X7892625Y2361201D01*
X7897266Y2368487D01*
X7919553Y2400316D01*
X7919944Y2401776D01*
X7929828Y2425640D01*
X7930588Y2426955D01*
X7937337Y2465231D01*
X7939207Y2473665D01*
X7949263Y2511193D01*
X7945877Y2549896D01*
X7945500Y2558525D01*
X7945500Y4060190D01*
X7959585Y4111086D01*
X7997832Y4147500D01*
X8178536Y4244088D01*
X8224864Y4282109D01*
X8330883Y4369117D01*
X8455910Y4521462D01*
X8455911Y4521463D01*
X8548814Y4695272D01*
X8606024Y4883869D01*
X8606034Y4883965D01*
X8625341Y5080000D01*
X8606024Y5276132D01*
X8548814Y5464727D01*
X8455910Y5638538D01*
X8330883Y5790883D01*
X8178538Y5915910D01*
X8004727Y6008814D01*
X7816132Y6066024D01*
X7620000Y6085341D01*
X7423868Y6066024D01*
X7422240Y6065530D01*
X7235272Y6008814D01*
X7061463Y5915911D01*
X7061462Y5915910D01*
X6909117Y5790883D01*
X6822109Y5684864D01*
X6784088Y5638536D01*
X6691185Y5464727D01*
X6633975Y5276130D01*
X6614658Y5080000D01*
X6633975Y4883869D01*
X6691185Y4695272D01*
X6784088Y4521463D01*
X6909117Y4369117D01*
X7061463Y4244088D01*
X7242168Y4147500D01*
X7280415Y4111086D01*
X7294500Y4060190D01*
X7294500Y2715835D01*
X7286964Y2677949D01*
X7265504Y2645831D01*
X5570951Y951277D01*
X5525002Y925248D01*
X5472208Y926544D01*
X5464729Y928812D01*
X5464727Y928814D01*
X5299956Y978796D01*
X5276129Y986025D01*
X5080000Y1005341D01*
X4883868Y986024D01*
X4882240Y985530D01*
X4695272Y928814D01*
X4521463Y835911D01*
X4521462Y835910D01*
X4369117Y710883D01*
X4282937Y605873D01*
X4244088Y558536D01*
X4151185Y384727D01*
X4093975Y196130D01*
X4074658Y0D01*
X3545341Y0D01*
X3536020Y94644D01*
X3526025Y196129D01*
X3518796Y219956D01*
X3468814Y384727D01*
X3468812Y384729D01*
X3466544Y392208D01*
X3465248Y445002D01*
X3491277Y490951D01*
X5297068Y2296741D01*
X5303424Y2302565D01*
X5333194Y2327545D01*
X5352625Y2361201D01*
X5357266Y2368487D01*
X5379553Y2400316D01*
X5379944Y2401776D01*
X5389828Y2425640D01*
X5390588Y2426955D01*
X5397337Y2465231D01*
X5399207Y2473665D01*
X5409263Y2511193D01*
X5405877Y2549896D01*
X5405500Y2558525D01*
X5405500Y4060190D01*
X5419585Y4111086D01*
X5457832Y4147500D01*
X5638536Y4244088D01*
X5684864Y4282109D01*
X5790883Y4369117D01*
X5915910Y4521462D01*
X5915911Y4521463D01*
X6008814Y4695272D01*
X6066024Y4883869D01*
X6066034Y4883965D01*
X6085341Y5080000D01*
X6066024Y5276132D01*
X6008814Y5464727D01*
X5915910Y5638538D01*
X5790883Y5790883D01*
X5638538Y5915910D01*
X5464727Y6008814D01*
X5276132Y6066024D01*
X5080000Y6085341D01*
X5079999Y6085340D01*
X5079999Y6085341D01*
X4981934Y6075682D01*
X4883868Y6066024D01*
X4882240Y6065530D01*
X4695272Y6008814D01*
X4521463Y5915911D01*
X4521462Y5915910D01*
X4369117Y5790883D01*
X4282109Y5684864D01*
X4244088Y5638536D01*
X4151185Y5464727D01*
X4093975Y5276130D01*
X4074658Y5080000D01*
X4093975Y4883869D01*
X4151185Y4695272D01*
X4244088Y4521463D01*
X4369117Y4369117D01*
X4521463Y4244088D01*
X4702168Y4147500D01*
X4740415Y4111086D01*
X4754500Y4060190D01*
X4754500Y2715835D01*
X4746964Y2677949D01*
X4725504Y2645831D01*
X3030951Y951277D01*
X2985002Y925248D01*
X2932208Y926544D01*
X2924729Y928812D01*
X2924727Y928814D01*
X2759956Y978796D01*
X2736129Y986025D01*
X2540000Y1005341D01*
X2343868Y986024D01*
X2342240Y985530D01*
X2155272Y928814D01*
X1981463Y835911D01*
X1981462Y835910D01*
X1829117Y710883D01*
X1742937Y605873D01*
X1704088Y558536D01*
X1611185Y384727D01*
X1553975Y196130D01*
X1534658Y0D01*
X1000500Y0D01*
X1000500Y499166D01*
X1008036Y537052D01*
X1029496Y569170D01*
X2757068Y2296741D01*
X2763424Y2302565D01*
X2793194Y2327545D01*
X2812625Y2361201D01*
X2817266Y2368487D01*
X2839553Y2400316D01*
X2839944Y2401776D01*
X2849828Y2425640D01*
X2850588Y2426955D01*
X2857337Y2465231D01*
X2859207Y2473665D01*
X2869263Y2511193D01*
X2865877Y2549896D01*
X2865500Y2558525D01*
X2865500Y4060190D01*
X2879585Y4111086D01*
X2917832Y4147500D01*
X3098536Y4244088D01*
X3144864Y4282109D01*
X3250883Y4369117D01*
X3375910Y4521462D01*
X3375911Y4521463D01*
X3468814Y4695272D01*
X3526024Y4883869D01*
X3526034Y4883965D01*
X3545341Y5080000D01*
X3526024Y5276132D01*
X3468814Y5464727D01*
X3375910Y5638538D01*
X3250883Y5790883D01*
X3098538Y5915910D01*
X2924727Y6008814D01*
X2736132Y6066024D01*
X2540000Y6085341D01*
X2539999Y6085340D01*
X2539999Y6085341D01*
X2441934Y6075682D01*
X2343868Y6066024D01*
X2342240Y6065530D01*
X2155272Y6008814D01*
X1981463Y5915911D01*
X1981462Y5915910D01*
X1829117Y5790883D01*
X1742109Y5684864D01*
X1704088Y5638536D01*
X1611185Y5464727D01*
X1553975Y5276130D01*
X1534658Y5080000D01*
X1553975Y4883869D01*
X1611185Y4695272D01*
X1704088Y4521463D01*
X1829117Y4369117D01*
X1981463Y4244088D01*
X2162168Y4147500D01*
X2200415Y4111086D01*
X2214500Y4060190D01*
X2214500Y2715835D01*
X2206964Y2677949D01*
X2185504Y2645831D01*
X569170Y1029496D01*
X537052Y1008036D01*
X499166Y1000500D01*
X-819748Y1000500D01*
X-878231Y988867D01*
X-944552Y944552D01*
X-988867Y878231D01*
X-1000500Y819748D01*
X-1000500Y-819748D01*
X-4598845Y-819748D01*
X-4447784Y-732533D01*
X-4447783Y-732532D01*
X-4447781Y-732531D01*
X-4307113Y-605873D01*
X-4195848Y-452728D01*
X-4118856Y-279804D01*
X-4101051Y-196034D01*
X-4079500Y-94646D01*
X-4079500Y94646D01*
X-4118856Y279803D01*
X-4118856Y279804D01*
X-4159268Y370570D01*
X-4166169Y428878D01*
X-4138831Y480841D01*
X-490950Y4128722D01*
X-445001Y4154751D01*
X-392208Y4153455D01*
X-196130Y4093975D01*
X0Y4074658D01*
X196130Y4093975D01*
X384727Y4151185D01*
X558536Y4244088D01*
X604864Y4282109D01*
X710883Y4369117D01*
X835910Y4521462D01*
X835911Y4521463D01*
X928814Y4695272D01*
X986024Y4883869D01*
X986034Y4883965D01*
X1005341Y5080000D01*
X986024Y5276132D01*
X928814Y5464727D01*
X835910Y5638538D01*
X710883Y5790883D01*
X558538Y5915910D01*
X384727Y6008814D01*
X196132Y6066024D01*
X0Y6085341D01*
X-196132Y6066024D01*
X-384727Y6008814D01*
X-558538Y5915910D01*
X-710883Y5790883D01*
X-835910Y5638538D01*
X-928814Y5464727D01*
X-986024Y5276132D01*
X-995492Y5180001D01*
X-1005341Y5080000D01*
X-986025Y4883871D01*
X-986024Y4883869D01*
X-986024Y4883868D01*
X-928814Y4695273D01*
X-928811Y4695267D01*
X-926543Y4687791D01*
X-925247Y4634997D01*
X-951274Y4589050D01*
X-4645375Y894949D01*
X-4692266Y868690D01*
X-4745971Y870801D01*
X-4768838Y878231D01*
X-4791744Y885674D01*
X-4932808Y900500D01*
X-5227192Y900500D01*
X-5368256Y885674D01*
X-5548284Y827179D01*
X-5712216Y732533D01*
X-5852888Y605871D01*
X-5964151Y452730D01*
X-6041144Y279803D01*
X-6080500Y94646D01*
X-6080500Y-94646D01*
X-11354500Y-94646D01*
X-11354500Y4260252D01*
X-6080500Y4260252D01*
X-6068867Y4201769D01*
X-6068866Y4201768D01*
X-6024552Y4135447D01*
X-5963224Y4094469D01*
X-5958231Y4091133D01*
X-5899748Y4079500D01*
X-4260253Y4079500D01*
X-4260252Y4079500D01*
X-4232554Y4085009D01*
X-2440000Y4085009D01*
X-2343965Y4094469D01*
X-2155463Y4151649D01*
X-1981745Y4244504D01*
X-1829472Y4369472D01*
X-1704504Y4521745D01*
X-1611649Y4695463D01*
X-1554469Y4883965D01*
X-1545010Y4980000D01*
X-2439999Y4980000D01*
X-2440000Y4979999D01*
X-2440000Y4085009D01*
X-4232554Y4085009D01*
X-4231010Y4085316D01*
X-4201768Y4091133D01*
X-4135447Y4135447D01*
X-4091133Y4201768D01*
X-4082715Y4244090D01*
X-4079500Y4260252D01*
X-4079500Y4980000D01*
X-3534990Y4980000D01*
X-3525530Y4883965D01*
X-3468350Y4695463D01*
X-3375495Y4521745D01*
X-3250527Y4369472D01*
X-3098254Y4244504D01*
X-2924536Y4151649D01*
X-2736034Y4094469D01*
X-2640000Y4085010D01*
X-2640000Y4979999D01*
X-2640001Y4980000D01*
X-3534990Y4980000D01*
X-4079500Y4980000D01*
X-4079500Y5180000D01*
X-3534990Y5180000D01*
X-2640001Y5180000D01*
X-2640000Y5180001D01*
X-2640000Y6074990D01*
X-2440000Y6074990D01*
X-2440000Y5180001D01*
X-2439999Y5180000D01*
X-1545010Y5180000D01*
X-1554469Y5276034D01*
X-1611649Y5464536D01*
X-1704504Y5638254D01*
X-1829472Y5790527D01*
X-1981745Y5915495D01*
X-2155463Y6008350D01*
X-2343965Y6065530D01*
X-2440000Y6074990D01*
X-2640000Y6074990D01*
X-2736034Y6065530D01*
X-2924536Y6008350D01*
X-3098254Y5915495D01*
X-3250527Y5790527D01*
X-3375495Y5638254D01*
X-3468350Y5464536D01*
X-3525530Y5276034D01*
X-3534990Y5180000D01*
X-4079500Y5180000D01*
X-4079500Y5899748D01*
X-4091133Y5958231D01*
X-4135447Y6024552D01*
X-4196775Y6065530D01*
X-4201769Y6068867D01*
X-4260252Y6080500D01*
X-5899748Y6080500D01*
X-5958231Y6068867D01*
X-6024552Y6024552D01*
X-6068867Y5958231D01*
X-6080500Y5899748D01*
X-6080500Y4260252D01*
X-11354500Y4260252D01*
X-11354500Y7620000D01*
X-6085341Y7620000D01*
X-6066034Y7423965D01*
X-6066024Y7423869D01*
X-6008814Y7235272D01*
X-5915911Y7061463D01*
X-5915910Y7061462D01*
X-5790883Y6909117D01*
X-5684864Y6822109D01*
X-5638536Y6784088D01*
X-5464727Y6691185D01*
X-5276130Y6633975D01*
X-5080000Y6614658D01*
X-4883869Y6633975D01*
X-4695272Y6691185D01*
X-4521463Y6784088D01*
X-4369117Y6909117D01*
X-4244088Y7061463D01*
X-4151185Y7235272D01*
X-4093975Y7423869D01*
X-4084508Y7520000D01*
X-3534990Y7520000D01*
X-3525530Y7423965D01*
X-3468350Y7235463D01*
X-3375495Y7061745D01*
X-3250527Y6909472D01*
X-3098254Y6784504D01*
X-2924536Y6691649D01*
X-2736034Y6634469D01*
X-2639999Y6625009D01*
X-2440000Y6625009D01*
X-2343965Y6634469D01*
X-2155463Y6691649D01*
X-1981745Y6784504D01*
X-1829472Y6909472D01*
X-1704504Y7061745D01*
X-1611649Y7235463D01*
X-1554469Y7423965D01*
X-1545010Y7520000D01*
X-2439999Y7520000D01*
X-2440000Y7519999D01*
X-2440000Y6625009D01*
X-2639999Y6625009D01*
X-2640000Y6625010D01*
X-2640000Y7519999D01*
X-2640001Y7520000D01*
X-3534990Y7520000D01*
X-4084508Y7520000D01*
X-4074659Y7620000D01*
X-1005341Y7620000D01*
X-986034Y7423965D01*
X-986024Y7423869D01*
X-928814Y7235272D01*
X-835911Y7061463D01*
X-835910Y7061462D01*
X-710883Y6909117D01*
X-604864Y6822109D01*
X-558536Y6784088D01*
X-384727Y6691185D01*
X-196130Y6633975D01*
X0Y6614658D01*
X196130Y6633975D01*
X384727Y6691185D01*
X558536Y6784088D01*
X604864Y6822109D01*
X710883Y6909117D01*
X835910Y7061462D01*
X835911Y7061463D01*
X928814Y7235272D01*
X986024Y7423869D01*
X986034Y7423965D01*
X1005341Y7620000D01*
X1534659Y7620000D01*
X1553975Y7423869D01*
X1611185Y7235272D01*
X1704088Y7061463D01*
X1829117Y6909117D01*
X1981463Y6784088D01*
X2155272Y6691185D01*
X2343869Y6633975D01*
X2540000Y6614658D01*
X2736130Y6633975D01*
X2924727Y6691185D01*
X3098536Y6784088D01*
X3144864Y6822109D01*
X3250883Y6909117D01*
X3375910Y7061462D01*
X3375911Y7061463D01*
X3468814Y7235272D01*
X3526024Y7423869D01*
X3526034Y7423965D01*
X3545341Y7620000D01*
X4074659Y7620000D01*
X4093975Y7423869D01*
X4151185Y7235272D01*
X4244088Y7061463D01*
X4369117Y6909117D01*
X4521463Y6784088D01*
X4695272Y6691185D01*
X4883869Y6633975D01*
X5080000Y6614658D01*
X5276130Y6633975D01*
X5464727Y6691185D01*
X5638536Y6784088D01*
X5684864Y6822109D01*
X5790883Y6909117D01*
X5915910Y7061462D01*
X5915911Y7061463D01*
X6008814Y7235272D01*
X6066024Y7423869D01*
X6066034Y7423965D01*
X6085341Y7620000D01*
X6614658Y7620000D01*
X6633975Y7423869D01*
X6691185Y7235272D01*
X6784088Y7061463D01*
X6909117Y6909117D01*
X7061463Y6784088D01*
X7235272Y6691185D01*
X7423869Y6633975D01*
X7620000Y6614658D01*
X7816130Y6633975D01*
X8004727Y6691185D01*
X8178536Y6784088D01*
X8224864Y6822109D01*
X8330883Y6909117D01*
X8455910Y7061462D01*
X8455911Y7061463D01*
X8548814Y7235272D01*
X8606024Y7423869D01*
X8606034Y7423965D01*
X8625341Y7620000D01*
X9154659Y7620000D01*
X9173975Y7423869D01*
X9231185Y7235272D01*
X9324088Y7061463D01*
X9449117Y6909117D01*
X9601463Y6784088D01*
X9775272Y6691185D01*
X9963869Y6633975D01*
X10160000Y6614658D01*
X10356130Y6633975D01*
X10544727Y6691185D01*
X10718536Y6784088D01*
X10764864Y6822109D01*
X10870883Y6909117D01*
X10995910Y7061462D01*
X10995911Y7061463D01*
X11088814Y7235272D01*
X11146024Y7423869D01*
X11146034Y7423965D01*
X11165341Y7620000D01*
X11146024Y7816132D01*
X11088814Y8004727D01*
X10995910Y8178538D01*
X10870883Y8330883D01*
X10718538Y8455910D01*
X10544727Y8548814D01*
X10356132Y8606024D01*
X10160000Y8625341D01*
X9963868Y8606024D01*
X9962240Y8605530D01*
X9775272Y8548814D01*
X9601463Y8455911D01*
X9601462Y8455910D01*
X9449117Y8330883D01*
X9362109Y8224864D01*
X9324088Y8178536D01*
X9231185Y8004727D01*
X9173975Y7816130D01*
X9154659Y7620000D01*
X8625341Y7620000D01*
X8606024Y7816132D01*
X8548814Y8004727D01*
X8455910Y8178538D01*
X8330883Y8330883D01*
X8178538Y8455910D01*
X8004727Y8548814D01*
X7816132Y8606024D01*
X7620000Y8625341D01*
X7423868Y8606024D01*
X7422240Y8605530D01*
X7235272Y8548814D01*
X7061463Y8455911D01*
X7061462Y8455910D01*
X6909117Y8330883D01*
X6822109Y8224864D01*
X6784088Y8178536D01*
X6691185Y8004727D01*
X6633975Y7816130D01*
X6614658Y7620000D01*
X6085341Y7620000D01*
X6066024Y7816132D01*
X6008814Y8004727D01*
X5915910Y8178538D01*
X5790883Y8330883D01*
X5638538Y8455910D01*
X5464727Y8548814D01*
X5276132Y8606024D01*
X5080000Y8625341D01*
X4883868Y8606024D01*
X4882240Y8605530D01*
X4695272Y8548814D01*
X4521463Y8455911D01*
X4521462Y8455910D01*
X4369117Y8330883D01*
X4282109Y8224864D01*
X4244088Y8178536D01*
X4151185Y8004727D01*
X4093975Y7816130D01*
X4074659Y7620000D01*
X3545341Y7620000D01*
X3526024Y7816132D01*
X3468814Y8004727D01*
X3375910Y8178538D01*
X3250883Y8330883D01*
X3098538Y8455910D01*
X2924727Y8548814D01*
X2736132Y8606024D01*
X2540000Y8625341D01*
X2343868Y8606024D01*
X2342240Y8605530D01*
X2155272Y8548814D01*
X1981463Y8455911D01*
X1981462Y8455910D01*
X1829117Y8330883D01*
X1742109Y8224864D01*
X1704088Y8178536D01*
X1611185Y8004727D01*
X1553975Y7816130D01*
X1534659Y7620000D01*
X1005341Y7620000D01*
X986024Y7816132D01*
X928814Y8004727D01*
X835910Y8178538D01*
X710883Y8330883D01*
X558538Y8455910D01*
X384727Y8548814D01*
X196132Y8606024D01*
X0Y8625341D01*
X-196132Y8606024D01*
X-384727Y8548814D01*
X-558538Y8455910D01*
X-710883Y8330883D01*
X-835910Y8178538D01*
X-928814Y8004727D01*
X-986024Y7816132D01*
X-1005341Y7620000D01*
X-4074659Y7620000D01*
X-4084508Y7720000D01*
X-3534990Y7720000D01*
X-2640001Y7720000D01*
X-2640000Y7720001D01*
X-2640000Y8614990D01*
X-2440000Y8614990D01*
X-2440000Y7720001D01*
X-2439999Y7720000D01*
X-1545010Y7720000D01*
X-1554469Y7816034D01*
X-1611649Y8004536D01*
X-1704504Y8178254D01*
X-1829472Y8330527D01*
X-1981745Y8455495D01*
X-2155463Y8548350D01*
X-2343965Y8605530D01*
X-2440000Y8614990D01*
X-2640000Y8614990D01*
X-2736034Y8605530D01*
X-2924536Y8548350D01*
X-3098254Y8455495D01*
X-3250527Y8330527D01*
X-3375495Y8178254D01*
X-3468350Y8004536D01*
X-3525530Y7816034D01*
X-3534990Y7720000D01*
X-4084508Y7720000D01*
X-4093975Y7816130D01*
X-4151185Y8004727D01*
X-4244088Y8178536D01*
X-4282109Y8224864D01*
X-4369117Y8330883D01*
X-4521462Y8455910D01*
X-4521463Y8455911D01*
X-4695272Y8548814D01*
X-4882240Y8605530D01*
X-4883868Y8606024D01*
X-4981933Y8615682D01*
X-5079999Y8625341D01*
X-5079999Y8625340D01*
X-5080000Y8625341D01*
X-5276132Y8606024D01*
X-5464727Y8548814D01*
X-5638538Y8455910D01*
X-5790883Y8330883D01*
X-5915910Y8178538D01*
X-6008814Y8004727D01*
X-6066024Y7816132D01*
X-6085341Y7620000D01*
X-11354500Y7620000D01*
X-11354500Y16437719D01*
X-11346964Y16475605D01*
X-11325504Y16507723D01*
X-10157723Y17675504D01*
X-10125605Y17696964D01*
X-10087719Y17704500D01*
X15167719Y17704500D01*
X15205605Y17696964D01*
G37*
G04 #@! TD.AperFunction*
G04 #@! TD*
M02*
