G04 #@! TF.GenerationSoftware,KiCad,Pcbnew,7.0.1*
G04 #@! TF.CreationDate,2023-11-13T07:35:08+09:00*
G04 #@! TF.ProjectId,Pmod_Adapter_Ethernet,506d6f64-5f41-4646-9170-7465725f4574,rev?*
G04 #@! TF.SameCoordinates,Original*
G04 #@! TF.FileFunction,Legend,Top*
G04 #@! TF.FilePolarity,Positive*
%FSLAX46Y46*%
G04 Gerber Fmt 4.6, Leading zero omitted, Abs format (unit mm)*
G04 Created by KiCad (PCBNEW 7.0.1) date 2023-11-13 07:35:08*
%MOMM*%
%LPD*%
G01*
G04 APERTURE LIST*
%ADD10C,0.200000*%
%ADD11C,0.150000*%
%ADD12C,0.120000*%
G04 APERTURE END LIST*
D10*
X11461905Y2392380D02*
X12080952Y2392380D01*
X12080952Y2392380D02*
X11747619Y2011428D01*
X11747619Y2011428D02*
X11890476Y2011428D01*
X11890476Y2011428D02*
X11985714Y1963809D01*
X11985714Y1963809D02*
X12033333Y1916190D01*
X12033333Y1916190D02*
X12080952Y1820952D01*
X12080952Y1820952D02*
X12080952Y1582857D01*
X12080952Y1582857D02*
X12033333Y1487619D01*
X12033333Y1487619D02*
X11985714Y1440000D01*
X11985714Y1440000D02*
X11890476Y1392380D01*
X11890476Y1392380D02*
X11604762Y1392380D01*
X11604762Y1392380D02*
X11509524Y1440000D01*
X11509524Y1440000D02*
X11461905Y1487619D01*
X12366667Y2392380D02*
X12700000Y1392380D01*
X12700000Y1392380D02*
X13033333Y2392380D01*
X13271429Y2392380D02*
X13890476Y2392380D01*
X13890476Y2392380D02*
X13557143Y2011428D01*
X13557143Y2011428D02*
X13700000Y2011428D01*
X13700000Y2011428D02*
X13795238Y1963809D01*
X13795238Y1963809D02*
X13842857Y1916190D01*
X13842857Y1916190D02*
X13890476Y1820952D01*
X13890476Y1820952D02*
X13890476Y1582857D01*
X13890476Y1582857D02*
X13842857Y1487619D01*
X13842857Y1487619D02*
X13795238Y1440000D01*
X13795238Y1440000D02*
X13700000Y1392380D01*
X13700000Y1392380D02*
X13414286Y1392380D01*
X13414286Y1392380D02*
X13319048Y1440000D01*
X13319048Y1440000D02*
X13271429Y1487619D01*
X11461905Y3662380D02*
X12080952Y3662380D01*
X12080952Y3662380D02*
X11747619Y3281428D01*
X11747619Y3281428D02*
X11890476Y3281428D01*
X11890476Y3281428D02*
X11985714Y3233809D01*
X11985714Y3233809D02*
X12033333Y3186190D01*
X12033333Y3186190D02*
X12080952Y3090952D01*
X12080952Y3090952D02*
X12080952Y2852857D01*
X12080952Y2852857D02*
X12033333Y2757619D01*
X12033333Y2757619D02*
X11985714Y2710000D01*
X11985714Y2710000D02*
X11890476Y2662380D01*
X11890476Y2662380D02*
X11604762Y2662380D01*
X11604762Y2662380D02*
X11509524Y2710000D01*
X11509524Y2710000D02*
X11461905Y2757619D01*
X12366667Y3662380D02*
X12700000Y2662380D01*
X12700000Y2662380D02*
X13033333Y3662380D01*
X13271429Y3662380D02*
X13890476Y3662380D01*
X13890476Y3662380D02*
X13557143Y3281428D01*
X13557143Y3281428D02*
X13700000Y3281428D01*
X13700000Y3281428D02*
X13795238Y3233809D01*
X13795238Y3233809D02*
X13842857Y3186190D01*
X13842857Y3186190D02*
X13890476Y3090952D01*
X13890476Y3090952D02*
X13890476Y2852857D01*
X13890476Y2852857D02*
X13842857Y2757619D01*
X13842857Y2757619D02*
X13795238Y2710000D01*
X13795238Y2710000D02*
X13700000Y2662380D01*
X13700000Y2662380D02*
X13414286Y2662380D01*
X13414286Y2662380D02*
X13319048Y2710000D01*
X13319048Y2710000D02*
X13271429Y2757619D01*
X10421904Y2344761D02*
X10326666Y2392380D01*
X10326666Y2392380D02*
X10183809Y2392380D01*
X10183809Y2392380D02*
X10040952Y2344761D01*
X10040952Y2344761D02*
X9945714Y2249523D01*
X9945714Y2249523D02*
X9898095Y2154285D01*
X9898095Y2154285D02*
X9850476Y1963809D01*
X9850476Y1963809D02*
X9850476Y1820952D01*
X9850476Y1820952D02*
X9898095Y1630476D01*
X9898095Y1630476D02*
X9945714Y1535238D01*
X9945714Y1535238D02*
X10040952Y1440000D01*
X10040952Y1440000D02*
X10183809Y1392380D01*
X10183809Y1392380D02*
X10279047Y1392380D01*
X10279047Y1392380D02*
X10421904Y1440000D01*
X10421904Y1440000D02*
X10469523Y1487619D01*
X10469523Y1487619D02*
X10469523Y1820952D01*
X10469523Y1820952D02*
X10279047Y1820952D01*
X10421904Y3614761D02*
X10326666Y3662380D01*
X10326666Y3662380D02*
X10183809Y3662380D01*
X10183809Y3662380D02*
X10040952Y3614761D01*
X10040952Y3614761D02*
X9945714Y3519523D01*
X9945714Y3519523D02*
X9898095Y3424285D01*
X9898095Y3424285D02*
X9850476Y3233809D01*
X9850476Y3233809D02*
X9850476Y3090952D01*
X9850476Y3090952D02*
X9898095Y2900476D01*
X9898095Y2900476D02*
X9945714Y2805238D01*
X9945714Y2805238D02*
X10040952Y2710000D01*
X10040952Y2710000D02*
X10183809Y2662380D01*
X10183809Y2662380D02*
X10279047Y2662380D01*
X10279047Y2662380D02*
X10421904Y2710000D01*
X10421904Y2710000D02*
X10469523Y2757619D01*
X10469523Y2757619D02*
X10469523Y3090952D01*
X10469523Y3090952D02*
X10279047Y3090952D01*
X6842095Y1392380D02*
X6842095Y2392380D01*
X6842095Y2392380D02*
X7413523Y1392380D01*
X7413523Y1392380D02*
X7413523Y2392380D01*
X8461142Y1487619D02*
X8413523Y1440000D01*
X8413523Y1440000D02*
X8270666Y1392380D01*
X8270666Y1392380D02*
X8175428Y1392380D01*
X8175428Y1392380D02*
X8032571Y1440000D01*
X8032571Y1440000D02*
X7937333Y1535238D01*
X7937333Y1535238D02*
X7889714Y1630476D01*
X7889714Y1630476D02*
X7842095Y1820952D01*
X7842095Y1820952D02*
X7842095Y1963809D01*
X7842095Y1963809D02*
X7889714Y2154285D01*
X7889714Y2154285D02*
X7937333Y2249523D01*
X7937333Y2249523D02*
X8032571Y2344761D01*
X8032571Y2344761D02*
X8175428Y2392380D01*
X8175428Y2392380D02*
X8270666Y2392380D01*
X8270666Y2392380D02*
X8413523Y2344761D01*
X8413523Y2344761D02*
X8461142Y2297142D01*
X-9254761Y-2925619D02*
X-9254761Y-1925619D01*
X-9254761Y-1925619D02*
X-8921428Y-2639904D01*
X-8921428Y-2639904D02*
X-8588095Y-1925619D01*
X-8588095Y-1925619D02*
X-8588095Y-2925619D01*
X-8111904Y-2925619D02*
X-8111904Y-1925619D01*
X-8111904Y-1925619D02*
X-7873809Y-1925619D01*
X-7873809Y-1925619D02*
X-7730952Y-1973238D01*
X-7730952Y-1973238D02*
X-7635714Y-2068476D01*
X-7635714Y-2068476D02*
X-7588095Y-2163714D01*
X-7588095Y-2163714D02*
X-7540476Y-2354190D01*
X-7540476Y-2354190D02*
X-7540476Y-2497047D01*
X-7540476Y-2497047D02*
X-7588095Y-2687523D01*
X-7588095Y-2687523D02*
X-7635714Y-2782761D01*
X-7635714Y-2782761D02*
X-7730952Y-2878000D01*
X-7730952Y-2878000D02*
X-7873809Y-2925619D01*
X-7873809Y-2925619D02*
X-8111904Y-2925619D01*
X-6540476Y-2830380D02*
X-6588095Y-2878000D01*
X-6588095Y-2878000D02*
X-6730952Y-2925619D01*
X-6730952Y-2925619D02*
X-6826190Y-2925619D01*
X-6826190Y-2925619D02*
X-6969047Y-2878000D01*
X-6969047Y-2878000D02*
X-7064285Y-2782761D01*
X-7064285Y-2782761D02*
X-7111904Y-2687523D01*
X-7111904Y-2687523D02*
X-7159523Y-2497047D01*
X-7159523Y-2497047D02*
X-7159523Y-2354190D01*
X-7159523Y-2354190D02*
X-7111904Y-2163714D01*
X-7111904Y-2163714D02*
X-7064285Y-2068476D01*
X-7064285Y-2068476D02*
X-6969047Y-1973238D01*
X-6969047Y-1973238D02*
X-6826190Y-1925619D01*
X-6826190Y-1925619D02*
X-6730952Y-1925619D01*
X-6730952Y-1925619D02*
X-6588095Y-1973238D01*
X-6588095Y-1973238D02*
X-6540476Y-2020857D01*
X-9778570Y-639619D02*
X-9778570Y360380D01*
X-9778570Y360380D02*
X-9445237Y-353904D01*
X-9445237Y-353904D02*
X-9111904Y360380D01*
X-9111904Y360380D02*
X-9111904Y-639619D01*
X-8635713Y-639619D02*
X-8635713Y360380D01*
X-8635713Y360380D02*
X-8397618Y360380D01*
X-8397618Y360380D02*
X-8254761Y312761D01*
X-8254761Y312761D02*
X-8159523Y217523D01*
X-8159523Y217523D02*
X-8111904Y122285D01*
X-8111904Y122285D02*
X-8064285Y-68190D01*
X-8064285Y-68190D02*
X-8064285Y-211047D01*
X-8064285Y-211047D02*
X-8111904Y-401523D01*
X-8111904Y-401523D02*
X-8159523Y-496761D01*
X-8159523Y-496761D02*
X-8254761Y-592000D01*
X-8254761Y-592000D02*
X-8397618Y-639619D01*
X-8397618Y-639619D02*
X-8635713Y-639619D01*
X-7635713Y-639619D02*
X-7635713Y360380D01*
X-6969047Y360380D02*
X-6778571Y360380D01*
X-6778571Y360380D02*
X-6683333Y312761D01*
X-6683333Y312761D02*
X-6588095Y217523D01*
X-6588095Y217523D02*
X-6540476Y27047D01*
X-6540476Y27047D02*
X-6540476Y-306285D01*
X-6540476Y-306285D02*
X-6588095Y-496761D01*
X-6588095Y-496761D02*
X-6683333Y-592000D01*
X-6683333Y-592000D02*
X-6778571Y-639619D01*
X-6778571Y-639619D02*
X-6969047Y-639619D01*
X-6969047Y-639619D02*
X-7064285Y-592000D01*
X-7064285Y-592000D02*
X-7159523Y-496761D01*
X-7159523Y-496761D02*
X-7207142Y-306285D01*
X-7207142Y-306285D02*
X-7207142Y27047D01*
X-7207142Y27047D02*
X-7159523Y217523D01*
X-7159523Y217523D02*
X-7064285Y312761D01*
X-7064285Y312761D02*
X-6969047Y360380D01*
X6953238Y3662380D02*
X7524666Y3662380D01*
X7238952Y2662380D02*
X7238952Y3662380D01*
X8381809Y2662380D02*
X7810381Y2662380D01*
X8096095Y2662380D02*
X8096095Y3662380D01*
X8096095Y3662380D02*
X8000857Y3519523D01*
X8000857Y3519523D02*
X7905619Y3424285D01*
X7905619Y3424285D02*
X7810381Y3376666D01*
X4413238Y2392380D02*
X4984666Y2392380D01*
X4698952Y1392380D02*
X4698952Y2392380D01*
X5508476Y2392380D02*
X5603714Y2392380D01*
X5603714Y2392380D02*
X5698952Y2344761D01*
X5698952Y2344761D02*
X5746571Y2297142D01*
X5746571Y2297142D02*
X5794190Y2201904D01*
X5794190Y2201904D02*
X5841809Y2011428D01*
X5841809Y2011428D02*
X5841809Y1773333D01*
X5841809Y1773333D02*
X5794190Y1582857D01*
X5794190Y1582857D02*
X5746571Y1487619D01*
X5746571Y1487619D02*
X5698952Y1440000D01*
X5698952Y1440000D02*
X5603714Y1392380D01*
X5603714Y1392380D02*
X5508476Y1392380D01*
X5508476Y1392380D02*
X5413238Y1440000D01*
X5413238Y1440000D02*
X5365619Y1487619D01*
X5365619Y1487619D02*
X5318000Y1582857D01*
X5318000Y1582857D02*
X5270381Y1773333D01*
X5270381Y1773333D02*
X5270381Y2011428D01*
X5270381Y2011428D02*
X5318000Y2201904D01*
X5318000Y2201904D02*
X5365619Y2297142D01*
X5365619Y2297142D02*
X5413238Y2344761D01*
X5413238Y2344761D02*
X5508476Y2392380D01*
X4413238Y3662380D02*
X4984666Y3662380D01*
X4698952Y2662380D02*
X4698952Y3662380D01*
X5318000Y3186190D02*
X5651333Y3186190D01*
X5794190Y2662380D02*
X5318000Y2662380D01*
X5318000Y2662380D02*
X5318000Y3662380D01*
X5318000Y3662380D02*
X5794190Y3662380D01*
X2333523Y1392380D02*
X2000190Y1868571D01*
X1762095Y1392380D02*
X1762095Y2392380D01*
X1762095Y2392380D02*
X2143047Y2392380D01*
X2143047Y2392380D02*
X2238285Y2344761D01*
X2238285Y2344761D02*
X2285904Y2297142D01*
X2285904Y2297142D02*
X2333523Y2201904D01*
X2333523Y2201904D02*
X2333523Y2059047D01*
X2333523Y2059047D02*
X2285904Y1963809D01*
X2285904Y1963809D02*
X2238285Y1916190D01*
X2238285Y1916190D02*
X2143047Y1868571D01*
X2143047Y1868571D02*
X1762095Y1868571D01*
X3285904Y1392380D02*
X2714476Y1392380D01*
X3000190Y1392380D02*
X3000190Y2392380D01*
X3000190Y2392380D02*
X2904952Y2249523D01*
X2904952Y2249523D02*
X2809714Y2154285D01*
X2809714Y2154285D02*
X2714476Y2106666D01*
X2333523Y2662380D02*
X2000190Y3138571D01*
X1762095Y2662380D02*
X1762095Y3662380D01*
X1762095Y3662380D02*
X2143047Y3662380D01*
X2143047Y3662380D02*
X2238285Y3614761D01*
X2238285Y3614761D02*
X2285904Y3567142D01*
X2285904Y3567142D02*
X2333523Y3471904D01*
X2333523Y3471904D02*
X2333523Y3329047D01*
X2333523Y3329047D02*
X2285904Y3233809D01*
X2285904Y3233809D02*
X2238285Y3186190D01*
X2238285Y3186190D02*
X2143047Y3138571D01*
X2143047Y3138571D02*
X1762095Y3138571D01*
X2952571Y3662380D02*
X3047809Y3662380D01*
X3047809Y3662380D02*
X3143047Y3614761D01*
X3143047Y3614761D02*
X3190666Y3567142D01*
X3190666Y3567142D02*
X3238285Y3471904D01*
X3238285Y3471904D02*
X3285904Y3281428D01*
X3285904Y3281428D02*
X3285904Y3043333D01*
X3285904Y3043333D02*
X3238285Y2852857D01*
X3238285Y2852857D02*
X3190666Y2757619D01*
X3190666Y2757619D02*
X3143047Y2710000D01*
X3143047Y2710000D02*
X3047809Y2662380D01*
X3047809Y2662380D02*
X2952571Y2662380D01*
X2952571Y2662380D02*
X2857333Y2710000D01*
X2857333Y2710000D02*
X2809714Y2757619D01*
X2809714Y2757619D02*
X2762095Y2852857D01*
X2762095Y2852857D02*
X2714476Y3043333D01*
X2714476Y3043333D02*
X2714476Y3281428D01*
X2714476Y3281428D02*
X2762095Y3471904D01*
X2762095Y3471904D02*
X2809714Y3567142D01*
X2809714Y3567142D02*
X2857333Y3614761D01*
X2857333Y3614761D02*
X2952571Y3662380D01*
X-206476Y1487619D02*
X-254095Y1440000D01*
X-254095Y1440000D02*
X-396952Y1392380D01*
X-396952Y1392380D02*
X-492190Y1392380D01*
X-492190Y1392380D02*
X-635047Y1440000D01*
X-635047Y1440000D02*
X-730285Y1535238D01*
X-730285Y1535238D02*
X-777904Y1630476D01*
X-777904Y1630476D02*
X-825523Y1820952D01*
X-825523Y1820952D02*
X-825523Y1963809D01*
X-825523Y1963809D02*
X-777904Y2154285D01*
X-777904Y2154285D02*
X-730285Y2249523D01*
X-730285Y2249523D02*
X-635047Y2344761D01*
X-635047Y2344761D02*
X-492190Y2392380D01*
X-492190Y2392380D02*
X-396952Y2392380D01*
X-396952Y2392380D02*
X-254095Y2344761D01*
X-254095Y2344761D02*
X-206476Y2297142D01*
X793523Y1392380D02*
X460190Y1868571D01*
X222095Y1392380D02*
X222095Y2392380D01*
X222095Y2392380D02*
X603047Y2392380D01*
X603047Y2392380D02*
X698285Y2344761D01*
X698285Y2344761D02*
X745904Y2297142D01*
X745904Y2297142D02*
X793523Y2201904D01*
X793523Y2201904D02*
X793523Y2059047D01*
X793523Y2059047D02*
X745904Y1963809D01*
X745904Y1963809D02*
X698285Y1916190D01*
X698285Y1916190D02*
X603047Y1868571D01*
X603047Y1868571D02*
X222095Y1868571D01*
X-190476Y2622380D02*
X-523809Y3098571D01*
X-761904Y2622380D02*
X-761904Y3622380D01*
X-761904Y3622380D02*
X-380952Y3622380D01*
X-380952Y3622380D02*
X-285714Y3574761D01*
X-285714Y3574761D02*
X-238095Y3527142D01*
X-238095Y3527142D02*
X-190476Y3431904D01*
X-190476Y3431904D02*
X-190476Y3289047D01*
X-190476Y3289047D02*
X-238095Y3193809D01*
X-238095Y3193809D02*
X-285714Y3146190D01*
X-285714Y3146190D02*
X-380952Y3098571D01*
X-380952Y3098571D02*
X-761904Y3098571D01*
X809523Y2717619D02*
X761904Y2670000D01*
X761904Y2670000D02*
X619047Y2622380D01*
X619047Y2622380D02*
X523809Y2622380D01*
X523809Y2622380D02*
X380952Y2670000D01*
X380952Y2670000D02*
X285714Y2765238D01*
X285714Y2765238D02*
X238095Y2860476D01*
X238095Y2860476D02*
X190476Y3050952D01*
X190476Y3050952D02*
X190476Y3193809D01*
X190476Y3193809D02*
X238095Y3384285D01*
X238095Y3384285D02*
X285714Y3479523D01*
X285714Y3479523D02*
X380952Y3574761D01*
X380952Y3574761D02*
X523809Y3622380D01*
X523809Y3622380D02*
X619047Y3622380D01*
X619047Y3622380D02*
X761904Y3574761D01*
X761904Y3574761D02*
X809523Y3527142D01*
D11*
G04 #@! TO.C,J3*
X-5413333Y2867380D02*
X-5413333Y2153095D01*
X-5413333Y2153095D02*
X-5460952Y2010238D01*
X-5460952Y2010238D02*
X-5556190Y1915000D01*
X-5556190Y1915000D02*
X-5699047Y1867380D01*
X-5699047Y1867380D02*
X-5794285Y1867380D01*
X-5032380Y2867380D02*
X-4413333Y2867380D01*
X-4413333Y2867380D02*
X-4746666Y2486428D01*
X-4746666Y2486428D02*
X-4603809Y2486428D01*
X-4603809Y2486428D02*
X-4508571Y2438809D01*
X-4508571Y2438809D02*
X-4460952Y2391190D01*
X-4460952Y2391190D02*
X-4413333Y2295952D01*
X-4413333Y2295952D02*
X-4413333Y2057857D01*
X-4413333Y2057857D02*
X-4460952Y1962619D01*
X-4460952Y1962619D02*
X-4508571Y1915000D01*
X-4508571Y1915000D02*
X-4603809Y1867380D01*
X-4603809Y1867380D02*
X-4889523Y1867380D01*
X-4889523Y1867380D02*
X-4984761Y1915000D01*
X-4984761Y1915000D02*
X-5032380Y1962619D01*
G04 #@! TO.C,J2*
X12162619Y6016666D02*
X12876904Y6016666D01*
X12876904Y6016666D02*
X13019761Y5969047D01*
X13019761Y5969047D02*
X13115000Y5873809D01*
X13115000Y5873809D02*
X13162619Y5730952D01*
X13162619Y5730952D02*
X13162619Y5635714D01*
X12257857Y6445238D02*
X12210238Y6492857D01*
X12210238Y6492857D02*
X12162619Y6588095D01*
X12162619Y6588095D02*
X12162619Y6826190D01*
X12162619Y6826190D02*
X12210238Y6921428D01*
X12210238Y6921428D02*
X12257857Y6969047D01*
X12257857Y6969047D02*
X12353095Y7016666D01*
X12353095Y7016666D02*
X12448333Y7016666D01*
X12448333Y7016666D02*
X12591190Y6969047D01*
X12591190Y6969047D02*
X13162619Y6397619D01*
X13162619Y6397619D02*
X13162619Y7016666D01*
X-6233904Y4038571D02*
X-6233904Y3581428D01*
X-6233904Y3810000D02*
X-7033904Y3810000D01*
X-7033904Y3810000D02*
X-6919619Y3733809D01*
X-6919619Y3733809D02*
X-6843428Y3657619D01*
X-6843428Y3657619D02*
X-6805333Y3581428D01*
G04 #@! TO.C,J1*
X14652666Y-732619D02*
X14652666Y-1446904D01*
X14652666Y-1446904D02*
X14605047Y-1589761D01*
X14605047Y-1589761D02*
X14509809Y-1685000D01*
X14509809Y-1685000D02*
X14366952Y-1732619D01*
X14366952Y-1732619D02*
X14271714Y-1732619D01*
X15652666Y-1732619D02*
X15081238Y-1732619D01*
X15366952Y-1732619D02*
X15366952Y-732619D01*
X15366952Y-732619D02*
X15271714Y-875476D01*
X15271714Y-875476D02*
X15176476Y-970714D01*
X15176476Y-970714D02*
X15081238Y-1018333D01*
X-1153904Y1752571D02*
X-1153904Y1295428D01*
X-1153904Y1524000D02*
X-1953904Y1524000D01*
X-1953904Y1524000D02*
X-1839619Y1447809D01*
X-1839619Y1447809D02*
X-1763428Y1371619D01*
X-1763428Y1371619D02*
X-1725333Y1295428D01*
D12*
G04 #@! TO.C,J3*
X-6410000Y0D02*
X-6410000Y1330000D01*
X-6410000Y-3870000D02*
X-3750000Y-3870000D01*
X-6410000Y-1270000D02*
X-6410000Y-3870000D01*
X-6410000Y-1270000D02*
X-3750000Y-1270000D01*
X-6410000Y1330000D02*
X-5080000Y1330000D01*
X-3750000Y-1270000D02*
X-3750000Y-3870000D01*
D11*
G04 #@! TO.C,J2*
X-5715000Y3810000D02*
X-6350000Y4445000D01*
X-4445000Y3810000D02*
X-5715000Y3810000D01*
X-3175000Y3810000D02*
X-3810000Y4445000D01*
X-1905000Y3810000D02*
X-3175000Y3810000D01*
X-635000Y3810000D02*
X-1270000Y4445000D01*
X635000Y3810000D02*
X-635000Y3810000D01*
X1905000Y3810000D02*
X1270000Y4445000D01*
X3175000Y3810000D02*
X1905000Y3810000D01*
X4445000Y3810000D02*
X3810000Y4445000D01*
X5715000Y3810000D02*
X4445000Y3810000D01*
X6985000Y3810000D02*
X6350000Y4445000D01*
X8255000Y3810000D02*
X6985000Y3810000D01*
X9525000Y3810000D02*
X8890000Y4445000D01*
X10795000Y3810000D02*
X9525000Y3810000D01*
X-6350000Y4445000D02*
X-6350000Y8255000D01*
X-3810000Y4445000D02*
X-4445000Y3810000D01*
X-1270000Y4445000D02*
X-1905000Y3810000D01*
X1270000Y4445000D02*
X635000Y3810000D01*
X3810000Y4445000D02*
X3175000Y3810000D01*
X6350000Y4445000D02*
X5715000Y3810000D01*
X8890000Y4445000D02*
X8255000Y3810000D01*
X11430000Y4445000D02*
X10795000Y3810000D01*
X-6350000Y8255000D02*
X-5715000Y8890000D01*
X-3810000Y8255000D02*
X-3175000Y8890000D01*
X-1270000Y8255000D02*
X-635000Y8890000D01*
X1270000Y8255000D02*
X1905000Y8890000D01*
X3810000Y8255000D02*
X4445000Y8890000D01*
X6350000Y8255000D02*
X6985000Y8890000D01*
X8890000Y8255000D02*
X9525000Y8890000D01*
X11430000Y8255000D02*
X11430000Y4445000D01*
X-5715000Y8890000D02*
X-4445000Y8890000D01*
X-4445000Y8890000D02*
X-3810000Y8255000D01*
X-3175000Y8890000D02*
X-1905000Y8890000D01*
X-1905000Y8890000D02*
X-1270000Y8255000D01*
X-635000Y8890000D02*
X635000Y8890000D01*
X635000Y8890000D02*
X1270000Y8255000D01*
X1905000Y8890000D02*
X3175000Y8890000D01*
X3175000Y8890000D02*
X3810000Y8255000D01*
X4445000Y8890000D02*
X5715000Y8890000D01*
X5715000Y8890000D02*
X6350000Y8255000D01*
X6985000Y8890000D02*
X8255000Y8890000D01*
X8255000Y8890000D02*
X8890000Y8255000D01*
X9525000Y8890000D02*
X10795000Y8890000D01*
X10795000Y8890000D02*
X11430000Y8255000D01*
G04 #@! TO.C,J1*
X-635000Y-3810000D02*
X-1270000Y-3175000D01*
X635000Y-3810000D02*
X-635000Y-3810000D01*
X1905000Y-3810000D02*
X1270000Y-3175000D01*
X3175000Y-3810000D02*
X1905000Y-3810000D01*
X4445000Y-3810000D02*
X3810000Y-3175000D01*
X5715000Y-3810000D02*
X4445000Y-3810000D01*
X6985000Y-3810000D02*
X6350000Y-3175000D01*
X8255000Y-3810000D02*
X6985000Y-3810000D01*
X9525000Y-3810000D02*
X8890000Y-3175000D01*
X10795000Y-3810000D02*
X9525000Y-3810000D01*
X12065000Y-3810000D02*
X11430000Y-3175000D01*
X13335000Y-3810000D02*
X12065000Y-3810000D01*
X-1270000Y-3175000D02*
X-1270000Y635000D01*
X1270000Y-3175000D02*
X635000Y-3810000D01*
X3810000Y-3175000D02*
X3175000Y-3810000D01*
X6350000Y-3175000D02*
X5715000Y-3810000D01*
X8890000Y-3175000D02*
X8255000Y-3810000D01*
X11430000Y-3175000D02*
X10795000Y-3810000D01*
X13970000Y-3175000D02*
X13335000Y-3810000D01*
X-1270000Y635000D02*
X-635000Y1270000D01*
X1270000Y635000D02*
X1905000Y1270000D01*
X3810000Y635000D02*
X4445000Y1270000D01*
X6350000Y635000D02*
X6985000Y1270000D01*
X8890000Y635000D02*
X9525000Y1270000D01*
X11430000Y635000D02*
X12065000Y1270000D01*
X13970000Y635000D02*
X13970000Y-3175000D01*
X-635000Y1270000D02*
X635000Y1270000D01*
X635000Y1270000D02*
X1270000Y635000D01*
X1905000Y1270000D02*
X3175000Y1270000D01*
X3175000Y1270000D02*
X3810000Y635000D01*
X4445000Y1270000D02*
X5715000Y1270000D01*
X5715000Y1270000D02*
X6350000Y635000D01*
X6985000Y1270000D02*
X8255000Y1270000D01*
X8255000Y1270000D02*
X8890000Y635000D01*
X9525000Y1270000D02*
X10795000Y1270000D01*
X10795000Y1270000D02*
X11430000Y635000D01*
X12065000Y1270000D02*
X13335000Y1270000D01*
X13335000Y1270000D02*
X13970000Y635000D01*
G04 #@! TD*
M02*
