G04 #@! TF.GenerationSoftware,KiCad,Pcbnew,7.0.1*
G04 #@! TF.CreationDate,2023-03-15T08:41:10+09:00*
G04 #@! TF.ProjectId,Pmod_HUB75,506d6f64-5f48-4554-9237-352e6b696361,rev?*
G04 #@! TF.SameCoordinates,Original*
G04 #@! TF.FileFunction,Copper,L1,Top*
G04 #@! TF.FilePolarity,Positive*
%FSLAX46Y46*%
G04 Gerber Fmt 4.6, Leading zero omitted, Abs format (unit mm)*
G04 Created by KiCad (PCBNEW 7.0.1) date 2023-03-15 08:41:10*
%MOMM*%
%LPD*%
G01*
G04 APERTURE LIST*
G04 #@! TA.AperFunction,ComponentPad*
%ADD10R,1.600000X1.600000*%
G04 #@! TD*
G04 #@! TA.AperFunction,ComponentPad*
%ADD11O,1.600000X1.600000*%
G04 #@! TD*
G04 #@! TA.AperFunction,ComponentPad*
%ADD12O,1.400000X1.600000*%
G04 #@! TD*
G04 #@! TA.AperFunction,ViaPad*
%ADD13C,0.800000*%
G04 #@! TD*
G04 #@! TA.AperFunction,Conductor*
%ADD14C,0.250000*%
G04 #@! TD*
G04 #@! TA.AperFunction,Conductor*
%ADD15C,0.800000*%
G04 #@! TD*
G04 APERTURE END LIST*
D10*
G04 #@! TO.P,J1,1,Pin_1*
G04 #@! TO.N,/PMOD1_P1_D*
X5080000Y-34490000D03*
D11*
G04 #@! TO.P,J1,2,Pin_2*
G04 #@! TO.N,/PMOD1_P2_LAT*
X7620000Y-34490000D03*
G04 #@! TO.P,J1,3,Pin_3*
G04 #@! TO.N,unconnected-(J1-Pin_3-Pad3)*
X10160000Y-34490000D03*
G04 #@! TO.P,J1,4,Pin_4*
G04 #@! TO.N,unconnected-(J1-Pin_4-Pad4)*
X12700000Y-34490000D03*
G04 #@! TO.P,J1,5,Pin_5*
G04 #@! TO.N,GND*
X15240000Y-34490000D03*
G04 #@! TO.P,J1,6,Pin_6*
G04 #@! TO.N,+3V3*
X17780000Y-34490000D03*
G04 #@! TO.P,J1,7,Pin_7*
G04 #@! TO.N,/PMOD1_P7_A*
X5080000Y-37030000D03*
G04 #@! TO.P,J1,8,Pin_8*
G04 #@! TO.N,/PMOD1_P8_C*
X7620000Y-37030000D03*
G04 #@! TO.P,J1,9,Pin_9*
G04 #@! TO.N,/PMOD1_P9_CLK*
X10160000Y-37030000D03*
G04 #@! TO.P,J1,10,Pin_10*
G04 #@! TO.N,/PMOD1_P10_OE*
X12700000Y-37030000D03*
G04 #@! TO.P,J1,11,Pin_11*
G04 #@! TO.N,GND*
X15240000Y-37030000D03*
G04 #@! TO.P,J1,12,Pin_12*
G04 #@! TO.N,+3V3*
X17780000Y-37030000D03*
G04 #@! TD*
D12*
G04 #@! TO.P,J5,1,Pin_1*
G04 #@! TO.N,GND*
X15240000Y-22860000D03*
G04 #@! TO.P,J5,2,Pin_2*
X17780000Y-22860000D03*
G04 #@! TD*
G04 #@! TO.P,J3,1,Pin_1*
G04 #@! TO.N,/PMOD0_P1_R1*
X-12685000Y-25405000D03*
G04 #@! TO.P,J3,2,Pin_2*
G04 #@! TO.N,/PMOD0_P7_G1*
X-12685000Y-22865000D03*
G04 #@! TO.P,J3,3,Pin_3*
G04 #@! TO.N,/PMOD0_P2_B1*
X-10145000Y-25405000D03*
G04 #@! TO.P,J3,4,Pin_4*
G04 #@! TO.N,GND*
X-10145000Y-22865000D03*
G04 #@! TO.P,J3,5,Pin_5*
G04 #@! TO.N,/PMOD0_P3_R2*
X-7605000Y-25405000D03*
G04 #@! TO.P,J3,6,Pin_6*
G04 #@! TO.N,/PMOD0_P8_G2*
X-7605000Y-22865000D03*
G04 #@! TO.P,J3,7,Pin_7*
G04 #@! TO.N,/PMOD0_P4_B2*
X-5065000Y-25405000D03*
G04 #@! TO.P,J3,8,Pin_8*
G04 #@! TO.N,/PMOD0_P9_E*
X-5065000Y-22865000D03*
G04 #@! TO.P,J3,9,Pin_9*
G04 #@! TO.N,/PMOD1_P7_A*
X-2525000Y-25405000D03*
G04 #@! TO.P,J3,10,Pin_10*
G04 #@! TO.N,/PMOD0_P10_B*
X-2525000Y-22865000D03*
G04 #@! TO.P,J3,11,Pin_11*
G04 #@! TO.N,/PMOD1_P8_C*
X15000Y-25405000D03*
G04 #@! TO.P,J3,12,Pin_12*
G04 #@! TO.N,/PMOD1_P1_D*
X15000Y-22865000D03*
G04 #@! TO.P,J3,13,Pin_13*
G04 #@! TO.N,/PMOD1_P9_CLK*
X2555000Y-25405000D03*
G04 #@! TO.P,J3,14,Pin_14*
G04 #@! TO.N,/PMOD1_P2_LAT*
X2555000Y-22865000D03*
G04 #@! TO.P,J3,15,Pin_15*
G04 #@! TO.N,/PMOD1_P10_OE*
X5095000Y-25405000D03*
G04 #@! TO.P,J3,16,Pin_16*
G04 #@! TO.N,GND*
X5095000Y-22865000D03*
G04 #@! TD*
D10*
G04 #@! TO.P,J2,1,Pin_1*
G04 #@! TO.N,/PMOD0_P1_R1*
X-17780000Y-34490000D03*
D11*
G04 #@! TO.P,J2,2,Pin_2*
G04 #@! TO.N,/PMOD0_P2_B1*
X-15240000Y-34490000D03*
G04 #@! TO.P,J2,3,Pin_3*
G04 #@! TO.N,/PMOD0_P3_R2*
X-12700000Y-34490000D03*
G04 #@! TO.P,J2,4,Pin_4*
G04 #@! TO.N,/PMOD0_P4_B2*
X-10160000Y-34490000D03*
G04 #@! TO.P,J2,5,Pin_5*
G04 #@! TO.N,GND*
X-7620000Y-34490000D03*
G04 #@! TO.P,J2,6,Pin_6*
G04 #@! TO.N,+3V3*
X-5080000Y-34490000D03*
G04 #@! TO.P,J2,7,Pin_7*
G04 #@! TO.N,/PMOD0_P7_G1*
X-17780000Y-37030000D03*
G04 #@! TO.P,J2,8,Pin_8*
G04 #@! TO.N,/PMOD0_P8_G2*
X-15240000Y-37030000D03*
G04 #@! TO.P,J2,9,Pin_9*
G04 #@! TO.N,/PMOD0_P9_E*
X-12700000Y-37030000D03*
G04 #@! TO.P,J2,10,Pin_10*
G04 #@! TO.N,/PMOD0_P10_B*
X-10160000Y-37030000D03*
G04 #@! TO.P,J2,11,Pin_11*
G04 #@! TO.N,GND*
X-7620000Y-37030000D03*
G04 #@! TO.P,J2,12,Pin_12*
G04 #@! TO.N,+3V3*
X-5080000Y-37030000D03*
G04 #@! TD*
D12*
G04 #@! TO.P,J4,1,Pin_1*
G04 #@! TO.N,+3V3*
X15240000Y-27940000D03*
G04 #@! TO.P,J4,2,Pin_2*
X17780000Y-27940000D03*
G04 #@! TD*
D13*
G04 #@! TO.N,GND*
X8100000Y-21400000D03*
X-15100000Y-20600000D03*
X-8800000Y-20400000D03*
X-3600000Y-20400000D03*
X3900000Y-20400000D03*
X8400000Y-25600000D03*
X11500000Y-29000000D03*
X-18800000Y-21600000D03*
X-18800000Y-27600000D03*
X-13900000Y-30200000D03*
X-11600000Y-31500000D03*
X7500000Y-31400000D03*
X4000000Y-35900000D03*
X10500000Y-32600000D03*
X6600000Y-32800000D03*
X1000000Y-27300000D03*
X3400000Y-27300000D03*
X5300000Y-26900000D03*
X4500000Y-33000000D03*
X-400000Y-28700000D03*
X-1700000Y-29700000D03*
X-3300000Y-29600000D03*
X-10600000Y-26800000D03*
X-13200000Y-27000000D03*
X-13500000Y-32600000D03*
X-7100000Y-26900000D03*
X-10900000Y-33100000D03*
X-5800000Y-27700000D03*
X-4600000Y-28600000D03*
X-14000000Y-25600000D03*
X-17000000Y-30800000D03*
X-18100000Y-29700000D03*
G04 #@! TD*
D14*
G04 #@! TO.N,/PMOD1_P2_LAT*
X7620000Y-32720000D02*
X7620000Y-34490000D01*
X1400000Y-26500000D02*
X7620000Y-32720000D01*
X1400000Y-24020000D02*
X1400000Y-26500000D01*
X2555000Y-22865000D02*
X1400000Y-24020000D01*
G04 #@! TO.N,/PMOD1_P8_C*
X15000Y-27415000D02*
X15000Y-25405000D01*
X6155000Y-35565000D02*
X6155000Y-33555000D01*
X7620000Y-37030000D02*
X6155000Y-35565000D01*
X6155000Y-33555000D02*
X15000Y-27415000D01*
G04 #@! TO.N,/PMOD0_P2_B1*
X-15240000Y-30400000D02*
X-15240000Y-34490000D01*
X-10245000Y-25405000D02*
X-15240000Y-30400000D01*
X-10145000Y-25405000D02*
X-10245000Y-25405000D01*
G04 #@! TO.N,/PMOD0_P8_G2*
X-8900000Y-24160000D02*
X-7605000Y-22865000D01*
X-14175000Y-31475000D02*
X-8900000Y-26200000D01*
X-14175000Y-32879595D02*
X-14175000Y-31475000D01*
X-14165000Y-32889595D02*
X-14175000Y-32879595D01*
X-8900000Y-26200000D02*
X-8900000Y-24160000D01*
X-14165000Y-35955000D02*
X-14165000Y-32889595D01*
X-15240000Y-37030000D02*
X-14165000Y-35955000D01*
G04 #@! TO.N,/PMOD0_P3_R2*
X-7605000Y-26405000D02*
X-12700000Y-31500000D01*
X-12700000Y-31500000D02*
X-12700000Y-34490000D01*
X-7605000Y-25405000D02*
X-7605000Y-26405000D01*
G04 #@! TO.N,/PMOD0_P9_E*
X-6300000Y-24100000D02*
X-6300000Y-27200000D01*
X-5065000Y-22865000D02*
X-6300000Y-24100000D01*
X-6300000Y-27200000D02*
X-11600000Y-32500000D01*
X-11600000Y-35930000D02*
X-11600000Y-32500000D01*
G04 #@! TO.N,/PMOD0_P4_B2*
X-5065000Y-28065000D02*
X-10160000Y-33160000D01*
X-5065000Y-25405000D02*
X-5065000Y-28065000D01*
X-10160000Y-33160000D02*
X-10160000Y-34490000D01*
G04 #@! TO.N,/PMOD0_P10_B*
X-3800000Y-28905000D02*
X-3800000Y-24140000D01*
X-8695000Y-33800000D02*
X-3800000Y-28905000D01*
X-3800000Y-24140000D02*
X-2525000Y-22865000D01*
X-8695000Y-35565000D02*
X-8695000Y-33800000D01*
D15*
G04 #@! TO.N,+3V3*
X17780000Y-27940000D02*
X15240000Y-27940000D01*
X17780000Y-34490000D02*
X17780000Y-27940000D01*
X17780000Y-37030000D02*
X17780000Y-34490000D01*
D14*
G04 #@! TO.N,/PMOD0_P1_R1*
X-17780000Y-30500000D02*
X-17780000Y-34490000D01*
X-12685000Y-25405000D02*
X-17780000Y-30500000D01*
G04 #@! TO.N,/PMOD0_P7_G1*
X-18855000Y-29035000D02*
X-12685000Y-22865000D01*
X-18855000Y-35955000D02*
X-18855000Y-29035000D01*
X-17780000Y-37030000D02*
X-18855000Y-35955000D01*
G04 #@! TO.N,/PMOD0_P9_E*
X-12700000Y-37030000D02*
X-11600000Y-35930000D01*
G04 #@! TO.N,/PMOD0_P10_B*
X-10160000Y-37030000D02*
X-8695000Y-35565000D01*
G04 #@! TO.N,/PMOD1_P1_D*
X-1200000Y-24080000D02*
X15000Y-22865000D01*
X4190000Y-34490000D02*
X-1200000Y-29100000D01*
X5080000Y-34490000D02*
X4190000Y-34490000D01*
X-1200000Y-29100000D02*
X-1200000Y-24080000D01*
G04 #@! TO.N,/PMOD1_P7_A*
X5080000Y-37030000D02*
X3730000Y-37030000D01*
X-2525000Y-30775000D02*
X-2525000Y-25405000D01*
X3730000Y-37030000D02*
X-2525000Y-30775000D01*
G04 #@! TO.N,/PMOD1_P9_CLK*
X8695000Y-31545000D02*
X2555000Y-25405000D01*
X8695000Y-35565000D02*
X8695000Y-31545000D01*
X10160000Y-37030000D02*
X8695000Y-35565000D01*
G04 #@! TO.N,/PMOD1_P10_OE*
X6405000Y-25405000D02*
X5095000Y-25405000D01*
X11235000Y-30235000D02*
X6405000Y-25405000D01*
X11235000Y-35565000D02*
X11235000Y-30235000D01*
X12700000Y-37030000D02*
X11235000Y-35565000D01*
G04 #@! TD*
G04 #@! TA.AperFunction,Conductor*
G04 #@! TO.N,GND*
G36*
X1017652Y-25693758D02*
G01*
X1059088Y-25730289D01*
X1074500Y-25783336D01*
X1074500Y-26481466D01*
X1074123Y-26490096D01*
X1070735Y-26528807D01*
X1080795Y-26566350D01*
X1082663Y-26574778D01*
X1089411Y-26613042D01*
X1089412Y-26613045D01*
X1090166Y-26614352D01*
X1100055Y-26638225D01*
X1100446Y-26639685D01*
X1122732Y-26671514D01*
X1127370Y-26678794D01*
X1146803Y-26712452D01*
X1146805Y-26712454D01*
X1146806Y-26712455D01*
X1176583Y-26737441D01*
X1182938Y-26743264D01*
X7265504Y-32825831D01*
X7286964Y-32857949D01*
X7294500Y-32895835D01*
X7294500Y-33470190D01*
X7280415Y-33521086D01*
X7242168Y-33557500D01*
X7061463Y-33654088D01*
X6909117Y-33779117D01*
X6784088Y-33931463D01*
X6691185Y-34105272D01*
X6674237Y-34161144D01*
X6643795Y-34207686D01*
X6593064Y-34230472D01*
X6538053Y-34222312D01*
X6496120Y-34185781D01*
X6480500Y-34132406D01*
X6480500Y-33573526D01*
X6480877Y-33564897D01*
X6484263Y-33526194D01*
X6484263Y-33526193D01*
X6474199Y-33488638D01*
X6472335Y-33480223D01*
X6465589Y-33441958D01*
X6465588Y-33441956D01*
X6465588Y-33441955D01*
X6464834Y-33440650D01*
X6454943Y-33416768D01*
X6454554Y-33415317D01*
X6454554Y-33415316D01*
X6432257Y-33383473D01*
X6427626Y-33376203D01*
X6408193Y-33342543D01*
X6378434Y-33317573D01*
X6372066Y-33311739D01*
X369496Y-27309170D01*
X348036Y-27277052D01*
X340500Y-27239166D01*
X340500Y-26410089D01*
X356472Y-26356170D01*
X399233Y-26319648D01*
X467730Y-26289151D01*
X620871Y-26177888D01*
X747533Y-26037216D01*
X842179Y-25873284D01*
X867054Y-25796727D01*
X881346Y-25752743D01*
X912395Y-25707055D01*
X963092Y-25685117D01*
X1017652Y-25693758D01*
G37*
G04 #@! TD.AperFunction*
G04 #@! TA.AperFunction,Conductor*
G36*
X-4175000Y-25962476D02*
G01*
X-4138763Y-25998712D01*
X-4125500Y-26048212D01*
X-4125500Y-28729165D01*
X-4133036Y-28767051D01*
X-4154496Y-28799169D01*
X-8912056Y-33556730D01*
X-8918423Y-33562564D01*
X-8948194Y-33587545D01*
X-8967633Y-33621215D01*
X-8972260Y-33628477D01*
X-8994554Y-33660316D01*
X-8994942Y-33661765D01*
X-8994943Y-33661768D01*
X-9004834Y-33685650D01*
X-9005588Y-33686955D01*
X-9007843Y-33699745D01*
X-9012335Y-33725220D01*
X-9014203Y-33733647D01*
X-9024264Y-33771193D01*
X-9020877Y-33809904D01*
X-9020500Y-33818534D01*
X-9020500Y-34132406D01*
X-9036120Y-34185781D01*
X-9078053Y-34222312D01*
X-9133064Y-34230472D01*
X-9183795Y-34207686D01*
X-9214237Y-34161144D01*
X-9231185Y-34105272D01*
X-9324088Y-33931463D01*
X-9449117Y-33779117D01*
X-9601463Y-33654088D01*
X-9782168Y-33557500D01*
X-9820415Y-33521086D01*
X-9834500Y-33470190D01*
X-9834500Y-33335834D01*
X-9826964Y-33297948D01*
X-9805504Y-33265830D01*
X-4847942Y-28308268D01*
X-4841574Y-28302434D01*
X-4811805Y-28277454D01*
X-4792370Y-28243794D01*
X-4787732Y-28236514D01*
X-4765446Y-28204685D01*
X-4765055Y-28203225D01*
X-4755166Y-28179352D01*
X-4754412Y-28178045D01*
X-4747662Y-28139769D01*
X-4745794Y-28131343D01*
X-4735736Y-28093806D01*
X-4739123Y-28055104D01*
X-4739500Y-28046475D01*
X-4739500Y-26410089D01*
X-4723528Y-26356170D01*
X-4680767Y-26319648D01*
X-4612270Y-26289151D01*
X-4459129Y-26177888D01*
X-4459126Y-26177886D01*
X-4332465Y-26037214D01*
X-4310236Y-25998712D01*
X-4274000Y-25962475D01*
X-4224500Y-25949212D01*
X-4175000Y-25962476D01*
G37*
G04 #@! TD.AperFunction*
G04 #@! TA.AperFunction,Conductor*
G36*
X-8426000Y-25910514D02*
G01*
X-8389764Y-25946748D01*
X-8337533Y-26037216D01*
X-8210871Y-26177888D01*
X-8088806Y-26266572D01*
X-8054574Y-26311185D01*
X-8050161Y-26367247D01*
X-8076994Y-26416668D01*
X-12917056Y-31256730D01*
X-12923423Y-31262564D01*
X-12953194Y-31287545D01*
X-12972633Y-31321215D01*
X-12977260Y-31328477D01*
X-12999554Y-31360316D01*
X-12999645Y-31360656D01*
X-12999943Y-31361768D01*
X-13009834Y-31385650D01*
X-13010588Y-31386955D01*
X-13014081Y-31406768D01*
X-13017335Y-31425220D01*
X-13019205Y-31433655D01*
X-13029264Y-31471193D01*
X-13025877Y-31509904D01*
X-13025500Y-31518534D01*
X-13025500Y-33470190D01*
X-13039585Y-33521086D01*
X-13077832Y-33557500D01*
X-13258536Y-33654088D01*
X-13297001Y-33685656D01*
X-13410883Y-33779117D01*
X-13449500Y-33826172D01*
X-13535911Y-33931463D01*
X-13628814Y-34105272D01*
X-13645763Y-34161144D01*
X-13676205Y-34207686D01*
X-13726936Y-34230472D01*
X-13781947Y-34222312D01*
X-13823880Y-34185781D01*
X-13839500Y-34132406D01*
X-13839500Y-32908121D01*
X-13839123Y-32899492D01*
X-13835736Y-32860787D01*
X-13845796Y-32823242D01*
X-13847660Y-32814841D01*
X-13847991Y-32812959D01*
X-13849500Y-32795747D01*
X-13849500Y-31650834D01*
X-13841964Y-31612948D01*
X-13820504Y-31580830D01*
X-8682942Y-26443268D01*
X-8676574Y-26437434D01*
X-8646805Y-26412454D01*
X-8627370Y-26378794D01*
X-8622732Y-26371514D01*
X-8600446Y-26339685D01*
X-8600055Y-26338224D01*
X-8590165Y-26314350D01*
X-8589411Y-26313045D01*
X-8582664Y-26274780D01*
X-8580795Y-26266350D01*
X-8570735Y-26228806D01*
X-8574123Y-26190091D01*
X-8574500Y-26181462D01*
X-8574500Y-25996250D01*
X-8561237Y-25946750D01*
X-8525000Y-25910513D01*
X-8475500Y-25897250D01*
X-8426000Y-25910514D01*
G37*
G04 #@! TD.AperFunction*
G04 #@! TA.AperFunction,Conductor*
G36*
X-5801929Y-26032334D02*
G01*
X-5670873Y-26177886D01*
X-5670871Y-26177888D01*
X-5517730Y-26289151D01*
X-5449233Y-26319648D01*
X-5406472Y-26356170D01*
X-5390500Y-26410089D01*
X-5390500Y-27889166D01*
X-5398036Y-27927052D01*
X-5419496Y-27959170D01*
X-10377056Y-32916730D01*
X-10383423Y-32922564D01*
X-10413194Y-32947545D01*
X-10432633Y-32981215D01*
X-10437260Y-32988477D01*
X-10459554Y-33020316D01*
X-10459942Y-33021765D01*
X-10459943Y-33021768D01*
X-10469834Y-33045650D01*
X-10470588Y-33046955D01*
X-10476543Y-33080732D01*
X-10477335Y-33085220D01*
X-10479205Y-33093655D01*
X-10489264Y-33131193D01*
X-10485877Y-33169904D01*
X-10485500Y-33178534D01*
X-10485500Y-33470190D01*
X-10499585Y-33521086D01*
X-10537832Y-33557500D01*
X-10718536Y-33654088D01*
X-10757001Y-33685656D01*
X-10870883Y-33779117D01*
X-10909500Y-33826172D01*
X-10995911Y-33931463D01*
X-11088190Y-34104104D01*
X-11123773Y-34141847D01*
X-11173556Y-34156417D01*
X-11223874Y-34143813D01*
X-11260911Y-34107496D01*
X-11274500Y-34057436D01*
X-11274500Y-32675834D01*
X-11266964Y-32637948D01*
X-11245504Y-32605830D01*
X-6082942Y-27443268D01*
X-6076574Y-27437434D01*
X-6046805Y-27412454D01*
X-6027370Y-27378794D01*
X-6022732Y-27371514D01*
X-6000446Y-27339685D01*
X-6000055Y-27338225D01*
X-5990166Y-27314352D01*
X-5989412Y-27313045D01*
X-5989411Y-27313042D01*
X-5982663Y-27274778D01*
X-5980795Y-27266350D01*
X-5970735Y-27228806D01*
X-5974123Y-27190092D01*
X-5974500Y-27181463D01*
X-5974500Y-26098578D01*
X-5957088Y-26042504D01*
X-5910978Y-26006154D01*
X-5852389Y-26002313D01*
X-5801929Y-26032334D01*
G37*
G04 #@! TD.AperFunction*
G04 #@! TA.AperFunction,Conductor*
G36*
X-701929Y-26054546D02*
G01*
X-632772Y-26131353D01*
X-590871Y-26177888D01*
X-437730Y-26289151D01*
X-369233Y-26319648D01*
X-326472Y-26356170D01*
X-310500Y-26410089D01*
X-310500Y-27396466D01*
X-310877Y-27405096D01*
X-313706Y-27437434D01*
X-314264Y-27443807D01*
X-304201Y-27481359D01*
X-302335Y-27489777D01*
X-295588Y-27528045D01*
X-294838Y-27529343D01*
X-284942Y-27553232D01*
X-284554Y-27554684D01*
X-262254Y-27586529D01*
X-257632Y-27593785D01*
X-238194Y-27627455D01*
X-208414Y-27652442D01*
X-202070Y-27658254D01*
X4525329Y-32385656D01*
X5460169Y-33320496D01*
X5487263Y-33371186D01*
X5481629Y-33428386D01*
X5445166Y-33472815D01*
X5390165Y-33489500D01*
X4260252Y-33489500D01*
X4232556Y-33495009D01*
X4201768Y-33501133D01*
X4135447Y-33545447D01*
X4091133Y-33611768D01*
X4091132Y-33611769D01*
X4091133Y-33611769D01*
X4081477Y-33660316D01*
X4079500Y-33670253D01*
X4079500Y-33680166D01*
X4062815Y-33735167D01*
X4018386Y-33771630D01*
X3961186Y-33777264D01*
X3910496Y-33750170D01*
X-845504Y-28994170D01*
X-866964Y-28962052D01*
X-874500Y-28924166D01*
X-874500Y-26120790D01*
X-857088Y-26064716D01*
X-810978Y-26028366D01*
X-752389Y-26024525D01*
X-701929Y-26054546D01*
G37*
G04 #@! TD.AperFunction*
G04 #@! TA.AperFunction,Conductor*
G36*
X-6675000Y-25893192D02*
G01*
X-6638764Y-25929429D01*
X-6625500Y-25978929D01*
X-6625500Y-27024166D01*
X-6633036Y-27062052D01*
X-6654496Y-27094170D01*
X-11817056Y-32256730D01*
X-11823423Y-32262564D01*
X-11853194Y-32287545D01*
X-11872633Y-32321215D01*
X-11877260Y-32328477D01*
X-11899554Y-32360316D01*
X-11899942Y-32361765D01*
X-11899943Y-32361768D01*
X-11909834Y-32385650D01*
X-11910588Y-32386955D01*
X-11916543Y-32420732D01*
X-11917335Y-32425220D01*
X-11919205Y-32433655D01*
X-11929264Y-32471193D01*
X-11925877Y-32509904D01*
X-11925500Y-32518534D01*
X-11925500Y-33622008D01*
X-11940860Y-33674973D01*
X-11982172Y-33711503D01*
X-12036619Y-33720263D01*
X-12087306Y-33698535D01*
X-12141462Y-33654088D01*
X-12322168Y-33557500D01*
X-12360415Y-33521086D01*
X-12374500Y-33470190D01*
X-12374500Y-31675834D01*
X-12366964Y-31637948D01*
X-12345504Y-31605830D01*
X-7387942Y-26648268D01*
X-7381574Y-26642434D01*
X-7351805Y-26617454D01*
X-7332370Y-26583794D01*
X-7327732Y-26576514D01*
X-7305446Y-26544685D01*
X-7305055Y-26543225D01*
X-7295166Y-26519352D01*
X-7294412Y-26518045D01*
X-7287662Y-26479769D01*
X-7285794Y-26471343D01*
X-7275736Y-26433805D01*
X-7277134Y-26417831D01*
X-7263812Y-26358956D01*
X-7218777Y-26318762D01*
X-7208867Y-26314350D01*
X-7184866Y-26303663D01*
X-7152272Y-26289152D01*
X-7152271Y-26289151D01*
X-7152270Y-26289151D01*
X-6999129Y-26177888D01*
X-6999126Y-26177886D01*
X-6872468Y-26037218D01*
X-6848815Y-25996250D01*
X-6810235Y-25929427D01*
X-6774000Y-25893193D01*
X-6724500Y-25879929D01*
X-6675000Y-25893192D01*
G37*
G04 #@! TD.AperFunction*
G04 #@! TA.AperFunction,Conductor*
G36*
X1898071Y-26121183D02*
G01*
X1949126Y-26177886D01*
X1949129Y-26177888D01*
X2102270Y-26289151D01*
X2275197Y-26366144D01*
X2460354Y-26405500D01*
X2649644Y-26405500D01*
X2649646Y-26405500D01*
X2834803Y-26366144D01*
X2925569Y-26325730D01*
X2983877Y-26318829D01*
X3035840Y-26346166D01*
X5695866Y-29006193D01*
X8340504Y-31650831D01*
X8361964Y-31682949D01*
X8369500Y-31720835D01*
X8369500Y-33601490D01*
X8354141Y-33654455D01*
X8312828Y-33690985D01*
X8258381Y-33699745D01*
X8207695Y-33678018D01*
X8178537Y-33654088D01*
X7997832Y-33557500D01*
X7959585Y-33521086D01*
X7945500Y-33470190D01*
X7945500Y-32738523D01*
X7945877Y-32729894D01*
X7949263Y-32691194D01*
X7945147Y-32675834D01*
X7939199Y-32653638D01*
X7937335Y-32645223D01*
X7936052Y-32637948D01*
X7930588Y-32606955D01*
X7929834Y-32605650D01*
X7919943Y-32581768D01*
X7919554Y-32580317D01*
X7919554Y-32580316D01*
X7897257Y-32548473D01*
X7892626Y-32541203D01*
X7873193Y-32507543D01*
X7843434Y-32482573D01*
X7837066Y-32476739D01*
X1754496Y-26394170D01*
X1733036Y-26362052D01*
X1725500Y-26324166D01*
X1725500Y-26187427D01*
X1742912Y-26131353D01*
X1789022Y-26095003D01*
X1847611Y-26091162D01*
X1898071Y-26121183D01*
G37*
G04 #@! TD.AperFunction*
G04 #@! TA.AperFunction,Conductor*
G36*
X-10584767Y-26294922D02*
G01*
X-10424803Y-26366144D01*
X-10239646Y-26405500D01*
X-10050356Y-26405500D01*
X-10050354Y-26405500D01*
X-9865197Y-26366144D01*
X-9742603Y-26311561D01*
X-9688900Y-26303918D01*
X-9639231Y-26325721D01*
X-9608507Y-26370425D01*
X-9605952Y-26424609D01*
X-9632332Y-26472006D01*
X-14392056Y-31231730D01*
X-14398423Y-31237564D01*
X-14428194Y-31262545D01*
X-14447633Y-31296215D01*
X-14452260Y-31303477D01*
X-14474554Y-31335316D01*
X-14474942Y-31336765D01*
X-14474943Y-31336768D01*
X-14484834Y-31360650D01*
X-14485588Y-31361955D01*
X-14491543Y-31395732D01*
X-14492335Y-31400220D01*
X-14494203Y-31408647D01*
X-14500904Y-31433655D01*
X-14504264Y-31446193D01*
X-14500877Y-31484904D01*
X-14500500Y-31493534D01*
X-14500500Y-32861061D01*
X-14500877Y-32869691D01*
X-14504239Y-32908121D01*
X-14504264Y-32908402D01*
X-14494202Y-32945949D01*
X-14492333Y-32954388D01*
X-14492001Y-32956273D01*
X-14490500Y-32973445D01*
X-14490500Y-33601490D01*
X-14505859Y-33654455D01*
X-14547172Y-33690985D01*
X-14601619Y-33699745D01*
X-14652305Y-33678018D01*
X-14681462Y-33654088D01*
X-14862168Y-33557500D01*
X-14900415Y-33521086D01*
X-14914500Y-33470190D01*
X-14914500Y-30575834D01*
X-14906964Y-30537948D01*
X-14885504Y-30505830D01*
X-10695034Y-26315360D01*
X-10643071Y-26288022D01*
X-10584767Y-26294922D01*
G37*
G04 #@! TD.AperFunction*
G04 #@! TA.AperFunction,Conductor*
G36*
X10950500Y-8088763D02*
G01*
X10986737Y-8125000D01*
X11000000Y-8174500D01*
X11000000Y-17000000D01*
X19825500Y-17000000D01*
X19875000Y-17013263D01*
X19911237Y-17049500D01*
X19924500Y-17099000D01*
X19924500Y-40825500D01*
X19911237Y-40875000D01*
X19875000Y-40911237D01*
X19825500Y-40924500D01*
X-19825500Y-40924500D01*
X-19875000Y-40911237D01*
X-19911237Y-40875000D01*
X-19924500Y-40825500D01*
X-19924500Y-35983807D01*
X-19184264Y-35983807D01*
X-19174201Y-36021359D01*
X-19172335Y-36029777D01*
X-19165588Y-36068045D01*
X-19164838Y-36069343D01*
X-19154942Y-36093232D01*
X-19154554Y-36094684D01*
X-19132254Y-36126529D01*
X-19127632Y-36133785D01*
X-19108194Y-36167455D01*
X-19078424Y-36192434D01*
X-19072070Y-36198254D01*
X-18731274Y-36539050D01*
X-18705247Y-36584997D01*
X-18706543Y-36637791D01*
X-18708811Y-36645267D01*
X-18708814Y-36645273D01*
X-18726780Y-36704500D01*
X-18766025Y-36833871D01*
X-18766034Y-36833965D01*
X-18785341Y-37030000D01*
X-18766024Y-37226132D01*
X-18708814Y-37414727D01*
X-18615910Y-37588538D01*
X-18490883Y-37740883D01*
X-18338538Y-37865910D01*
X-18164727Y-37958814D01*
X-17976132Y-38016024D01*
X-17780000Y-38035341D01*
X-17583868Y-38016024D01*
X-17489570Y-37987419D01*
X-17395272Y-37958814D01*
X-17221463Y-37865911D01*
X-17198298Y-37846900D01*
X-17069117Y-37740883D01*
X-16944090Y-37588538D01*
X-16944088Y-37588536D01*
X-16851185Y-37414727D01*
X-16793975Y-37226130D01*
X-16774658Y-37030000D01*
X-16245341Y-37030000D01*
X-16226024Y-37226132D01*
X-16168814Y-37414727D01*
X-16075910Y-37588538D01*
X-15950883Y-37740883D01*
X-15798538Y-37865910D01*
X-15624727Y-37958814D01*
X-15436132Y-38016024D01*
X-15240000Y-38035341D01*
X-15043868Y-38016024D01*
X-14949570Y-37987419D01*
X-14855272Y-37958814D01*
X-14681463Y-37865911D01*
X-14658298Y-37846900D01*
X-14529117Y-37740883D01*
X-14404090Y-37588538D01*
X-14404088Y-37588536D01*
X-14311185Y-37414727D01*
X-14253975Y-37226130D01*
X-14234658Y-37030000D01*
X-14253975Y-36833869D01*
X-14313455Y-36637790D01*
X-14314751Y-36584997D01*
X-14288722Y-36539048D01*
X-13947942Y-36198268D01*
X-13941574Y-36192434D01*
X-13911805Y-36167454D01*
X-13892370Y-36133794D01*
X-13887732Y-36126514D01*
X-13865446Y-36094685D01*
X-13865055Y-36093225D01*
X-13855166Y-36069352D01*
X-13854412Y-36068045D01*
X-13854411Y-36068042D01*
X-13847663Y-36029778D01*
X-13845795Y-36021350D01*
X-13835735Y-35983806D01*
X-13839123Y-35945092D01*
X-13839500Y-35936463D01*
X-13839500Y-34847594D01*
X-13823880Y-34794219D01*
X-13781947Y-34757688D01*
X-13726936Y-34749528D01*
X-13676205Y-34772314D01*
X-13645763Y-34818856D01*
X-13640505Y-34836187D01*
X-13628814Y-34874727D01*
X-13535910Y-35048538D01*
X-13410883Y-35200883D01*
X-13258538Y-35325910D01*
X-13084727Y-35418814D01*
X-12896132Y-35476024D01*
X-12700000Y-35495341D01*
X-12503868Y-35476024D01*
X-12409570Y-35447419D01*
X-12315272Y-35418814D01*
X-12141462Y-35325911D01*
X-12087306Y-35281465D01*
X-12036619Y-35259737D01*
X-11982172Y-35268497D01*
X-11940860Y-35305027D01*
X-11925500Y-35357992D01*
X-11925500Y-35754166D01*
X-11933036Y-35792052D01*
X-11954496Y-35824170D01*
X-12209048Y-36078722D01*
X-12254997Y-36104751D01*
X-12307790Y-36103455D01*
X-12503869Y-36043975D01*
X-12700000Y-36024658D01*
X-12896130Y-36043975D01*
X-13084727Y-36101185D01*
X-13258536Y-36194088D01*
X-13300501Y-36228528D01*
X-13410883Y-36319117D01*
X-13516900Y-36448298D01*
X-13535911Y-36471463D01*
X-13628814Y-36645272D01*
X-13657418Y-36739570D01*
X-13686024Y-36833868D01*
X-13705341Y-37030000D01*
X-13686024Y-37226132D01*
X-13628814Y-37414727D01*
X-13535910Y-37588538D01*
X-13410883Y-37740883D01*
X-13258538Y-37865910D01*
X-13084727Y-37958814D01*
X-12896132Y-38016024D01*
X-12700000Y-38035341D01*
X-12503868Y-38016024D01*
X-12409570Y-37987419D01*
X-12315272Y-37958814D01*
X-12141463Y-37865911D01*
X-12118298Y-37846900D01*
X-11989117Y-37740883D01*
X-11864090Y-37588538D01*
X-11864088Y-37588536D01*
X-11771185Y-37414727D01*
X-11713975Y-37226130D01*
X-11694658Y-37029999D01*
X-11713975Y-36833869D01*
X-11773455Y-36637790D01*
X-11774751Y-36584997D01*
X-11748722Y-36539048D01*
X-11382942Y-36173268D01*
X-11376574Y-36167434D01*
X-11346805Y-36142454D01*
X-11327370Y-36108794D01*
X-11322732Y-36101514D01*
X-11300446Y-36069685D01*
X-11300055Y-36068225D01*
X-11290166Y-36044352D01*
X-11289412Y-36043045D01*
X-11287995Y-36035010D01*
X-11282663Y-36004778D01*
X-11280795Y-35996350D01*
X-11270735Y-35958807D01*
X-11274123Y-35920096D01*
X-11274500Y-35911466D01*
X-11274500Y-34922564D01*
X-11260911Y-34872504D01*
X-11223874Y-34836187D01*
X-11173556Y-34823583D01*
X-11123773Y-34838153D01*
X-11088190Y-34875896D01*
X-11063245Y-34922564D01*
X-10995910Y-35048538D01*
X-10870883Y-35200883D01*
X-10718538Y-35325910D01*
X-10544727Y-35418814D01*
X-10356132Y-35476024D01*
X-10160000Y-35495341D01*
X-9963868Y-35476024D01*
X-9869570Y-35447419D01*
X-9775272Y-35418814D01*
X-9601463Y-35325911D01*
X-9564977Y-35295967D01*
X-9449117Y-35200883D01*
X-9324090Y-35048538D01*
X-9324088Y-35048536D01*
X-9231185Y-34874727D01*
X-9214237Y-34818856D01*
X-9183795Y-34772314D01*
X-9133064Y-34749528D01*
X-9078053Y-34757688D01*
X-9036120Y-34794219D01*
X-9020500Y-34847594D01*
X-9020500Y-35389166D01*
X-9028036Y-35427052D01*
X-9049496Y-35459170D01*
X-9669048Y-36078722D01*
X-9714997Y-36104751D01*
X-9767790Y-36103455D01*
X-9963869Y-36043975D01*
X-10160000Y-36024658D01*
X-10356130Y-36043975D01*
X-10544727Y-36101185D01*
X-10718536Y-36194088D01*
X-10760501Y-36228528D01*
X-10870883Y-36319117D01*
X-10976900Y-36448298D01*
X-10995911Y-36471463D01*
X-11088814Y-36645272D01*
X-11117418Y-36739570D01*
X-11146024Y-36833868D01*
X-11165341Y-37030000D01*
X-11146024Y-37226132D01*
X-11088814Y-37414727D01*
X-10995910Y-37588538D01*
X-10870883Y-37740883D01*
X-10718538Y-37865910D01*
X-10544727Y-37958814D01*
X-10356132Y-38016024D01*
X-10160000Y-38035341D01*
X-9963868Y-38016024D01*
X-9869570Y-37987419D01*
X-9775272Y-37958814D01*
X-9601463Y-37865911D01*
X-9578298Y-37846900D01*
X-9449117Y-37740883D01*
X-9324090Y-37588538D01*
X-9324088Y-37588536D01*
X-9231185Y-37414727D01*
X-9173975Y-37226130D01*
X-9164507Y-37130000D01*
X-8614990Y-37130000D01*
X-8605530Y-37226034D01*
X-8548350Y-37414536D01*
X-8455495Y-37588254D01*
X-8330527Y-37740527D01*
X-8178254Y-37865495D01*
X-8004536Y-37958350D01*
X-7816034Y-38015530D01*
X-7720000Y-38024990D01*
X-7520000Y-38024990D01*
X-7423965Y-38015530D01*
X-7235463Y-37958350D01*
X-7061745Y-37865495D01*
X-6909472Y-37740527D01*
X-6784504Y-37588254D01*
X-6691649Y-37414536D01*
X-6634469Y-37226034D01*
X-6625010Y-37130000D01*
X-7519999Y-37130000D01*
X-7520000Y-37130001D01*
X-7520000Y-38024990D01*
X-7720000Y-38024990D01*
X-7720000Y-37130001D01*
X-7720001Y-37130000D01*
X-8614990Y-37130000D01*
X-9164507Y-37130000D01*
X-9154658Y-37030000D01*
X-6085341Y-37030000D01*
X-6066024Y-37226132D01*
X-6008814Y-37414727D01*
X-5915910Y-37588538D01*
X-5790883Y-37740883D01*
X-5638538Y-37865910D01*
X-5464727Y-37958814D01*
X-5276132Y-38016024D01*
X-5080000Y-38035341D01*
X-4883868Y-38016024D01*
X-4789570Y-37987419D01*
X-4695272Y-37958814D01*
X-4521463Y-37865911D01*
X-4498298Y-37846900D01*
X-4369117Y-37740883D01*
X-4244090Y-37588538D01*
X-4244088Y-37588536D01*
X-4151185Y-37414727D01*
X-4093975Y-37226130D01*
X-4074658Y-37029999D01*
X-4093975Y-36833869D01*
X-4151185Y-36645272D01*
X-4244088Y-36471463D01*
X-4369117Y-36319117D01*
X-4521463Y-36194088D01*
X-4695272Y-36101185D01*
X-4883869Y-36043975D01*
X-5080000Y-36024658D01*
X-5276130Y-36043975D01*
X-5464727Y-36101185D01*
X-5638536Y-36194088D01*
X-5680501Y-36228528D01*
X-5790883Y-36319117D01*
X-5896900Y-36448298D01*
X-5915911Y-36471463D01*
X-6008814Y-36645272D01*
X-6037418Y-36739570D01*
X-6066024Y-36833868D01*
X-6085341Y-37030000D01*
X-9154658Y-37030000D01*
X-9154658Y-37029999D01*
X-9164507Y-36930000D01*
X-8614990Y-36930000D01*
X-7720001Y-36930000D01*
X-7720000Y-36929999D01*
X-7720000Y-36035010D01*
X-7719999Y-36035009D01*
X-7520000Y-36035009D01*
X-7520000Y-36929999D01*
X-7519999Y-36930000D01*
X-6625009Y-36930000D01*
X-6634469Y-36833965D01*
X-6691649Y-36645463D01*
X-6784504Y-36471745D01*
X-6909472Y-36319472D01*
X-7061745Y-36194504D01*
X-7235463Y-36101649D01*
X-7423965Y-36044469D01*
X-7520000Y-36035009D01*
X-7719999Y-36035009D01*
X-7816034Y-36044469D01*
X-8004536Y-36101649D01*
X-8178254Y-36194504D01*
X-8330527Y-36319472D01*
X-8455495Y-36471745D01*
X-8548350Y-36645463D01*
X-8605530Y-36833965D01*
X-8614990Y-36930000D01*
X-9164507Y-36930000D01*
X-9173975Y-36833869D01*
X-9233455Y-36637790D01*
X-9234751Y-36584997D01*
X-9208722Y-36539048D01*
X-8477942Y-35808268D01*
X-8471574Y-35802434D01*
X-8441805Y-35777454D01*
X-8422370Y-35743794D01*
X-8417732Y-35736514D01*
X-8395446Y-35704685D01*
X-8395055Y-35703225D01*
X-8385166Y-35679352D01*
X-8384412Y-35678045D01*
X-8384411Y-35678042D01*
X-8377663Y-35639778D01*
X-8375795Y-35631350D01*
X-8365735Y-35593806D01*
X-8369123Y-35555092D01*
X-8369500Y-35546463D01*
X-8369500Y-35377864D01*
X-8354140Y-35324899D01*
X-8312828Y-35288369D01*
X-8258381Y-35279609D01*
X-8207695Y-35301336D01*
X-8178258Y-35325494D01*
X-8004536Y-35418350D01*
X-7816034Y-35475530D01*
X-7720000Y-35484990D01*
X-7520000Y-35484990D01*
X-7423965Y-35475530D01*
X-7235463Y-35418350D01*
X-7061745Y-35325495D01*
X-6909472Y-35200527D01*
X-6784504Y-35048254D01*
X-6691649Y-34874536D01*
X-6634469Y-34686034D01*
X-6625010Y-34590000D01*
X-7519999Y-34590000D01*
X-7520000Y-34590001D01*
X-7520000Y-35484990D01*
X-7720000Y-35484990D01*
X-7720000Y-34490000D01*
X-6085341Y-34490000D01*
X-6066024Y-34686132D01*
X-6008814Y-34874727D01*
X-5915910Y-35048538D01*
X-5790883Y-35200883D01*
X-5638538Y-35325910D01*
X-5464727Y-35418814D01*
X-5276132Y-35476024D01*
X-5080000Y-35495341D01*
X-4883868Y-35476024D01*
X-4789570Y-35447419D01*
X-4695272Y-35418814D01*
X-4521463Y-35325911D01*
X-4484977Y-35295967D01*
X-4369117Y-35200883D01*
X-4244090Y-35048538D01*
X-4244088Y-35048536D01*
X-4151185Y-34874727D01*
X-4093975Y-34686130D01*
X-4074658Y-34490000D01*
X-4093975Y-34293869D01*
X-4151185Y-34105272D01*
X-4244088Y-33931463D01*
X-4369117Y-33779117D01*
X-4521463Y-33654088D01*
X-4695272Y-33561185D01*
X-4883869Y-33503975D01*
X-5080000Y-33484658D01*
X-5276130Y-33503975D01*
X-5464727Y-33561185D01*
X-5638536Y-33654088D01*
X-5677001Y-33685656D01*
X-5790883Y-33779117D01*
X-5829500Y-33826172D01*
X-5915911Y-33931463D01*
X-6008814Y-34105272D01*
X-6033236Y-34185781D01*
X-6066024Y-34293868D01*
X-6085341Y-34490000D01*
X-7720000Y-34490000D01*
X-7720000Y-33495010D01*
X-7720001Y-33495009D01*
X-7520000Y-33495009D01*
X-7520000Y-34389999D01*
X-7519999Y-34390000D01*
X-6625009Y-34390000D01*
X-6634469Y-34293965D01*
X-6691649Y-34105463D01*
X-6784504Y-33931745D01*
X-6909472Y-33779472D01*
X-7061745Y-33654504D01*
X-7235463Y-33561649D01*
X-7423965Y-33504469D01*
X-7520000Y-33495009D01*
X-7720001Y-33495009D01*
X-7752516Y-33465539D01*
X-7750138Y-33462915D01*
X-7776445Y-33434581D01*
X-7784480Y-33375337D01*
X-7756944Y-33322270D01*
X-5953207Y-31518534D01*
X-3582936Y-29148263D01*
X-3576568Y-29142429D01*
X-3546806Y-29117455D01*
X-3527370Y-29083792D01*
X-3522731Y-29076510D01*
X-3500445Y-29044681D01*
X-3500054Y-29043222D01*
X-3490169Y-29019357D01*
X-3489410Y-29018043D01*
X-3482660Y-28979765D01*
X-3480792Y-28971338D01*
X-3470736Y-28933807D01*
X-3474104Y-28895316D01*
X-3474123Y-28895102D01*
X-3474500Y-28886475D01*
X-3474500Y-26030891D01*
X-3461237Y-25981391D01*
X-3425000Y-25945154D01*
X-3375500Y-25931891D01*
X-3326000Y-25945155D01*
X-3289764Y-25981389D01*
X-3257533Y-26037216D01*
X-3130871Y-26177888D01*
X-2977730Y-26289151D01*
X-2909233Y-26319648D01*
X-2866472Y-26356170D01*
X-2850500Y-26410089D01*
X-2850500Y-30756466D01*
X-2850876Y-30765093D01*
X-2854264Y-30803807D01*
X-2844201Y-30841359D01*
X-2842335Y-30849777D01*
X-2835588Y-30888045D01*
X-2834838Y-30889343D01*
X-2824942Y-30913232D01*
X-2824554Y-30914684D01*
X-2802254Y-30946529D01*
X-2797632Y-30953785D01*
X-2778194Y-30987455D01*
X-2748414Y-31012442D01*
X-2742070Y-31018254D01*
X1930311Y-35690637D01*
X3486730Y-37247056D01*
X3492564Y-37253423D01*
X3517545Y-37283194D01*
X3551215Y-37302633D01*
X3558477Y-37307260D01*
X3590316Y-37329554D01*
X3591765Y-37329942D01*
X3591768Y-37329943D01*
X3615650Y-37339834D01*
X3616955Y-37340588D01*
X3650732Y-37346543D01*
X3655220Y-37347335D01*
X3663647Y-37349203D01*
X3701193Y-37359264D01*
X3739909Y-37355876D01*
X3748537Y-37355500D01*
X4060190Y-37355500D01*
X4111086Y-37369585D01*
X4147500Y-37407832D01*
X4244088Y-37588536D01*
X4244090Y-37588538D01*
X4369117Y-37740883D01*
X4498298Y-37846900D01*
X4521463Y-37865911D01*
X4695272Y-37958814D01*
X4789570Y-37987419D01*
X4883868Y-38016024D01*
X5080000Y-38035341D01*
X5276132Y-38016024D01*
X5464727Y-37958814D01*
X5638538Y-37865910D01*
X5790883Y-37740883D01*
X5915910Y-37588538D01*
X6008814Y-37414727D01*
X6066024Y-37226132D01*
X6085341Y-37030000D01*
X6066024Y-36833868D01*
X6037418Y-36739570D01*
X6008814Y-36645272D01*
X5915911Y-36471463D01*
X5896900Y-36448298D01*
X5790883Y-36319117D01*
X5680501Y-36228528D01*
X5638536Y-36194088D01*
X5464727Y-36101185D01*
X5276130Y-36043975D01*
X5080000Y-36024658D01*
X4883869Y-36043975D01*
X4695272Y-36101185D01*
X4521463Y-36194088D01*
X4369117Y-36319117D01*
X4244088Y-36471463D01*
X4147500Y-36652168D01*
X4111086Y-36690415D01*
X4060190Y-36704500D01*
X3905834Y-36704500D01*
X3867948Y-36696964D01*
X3835830Y-36675504D01*
X-2170504Y-30669170D01*
X-2191964Y-30637052D01*
X-2199500Y-30599166D01*
X-2199500Y-26410089D01*
X-2183528Y-26356170D01*
X-2140767Y-26319648D01*
X-2072270Y-26289151D01*
X-1919129Y-26177888D01*
X-1919126Y-26177886D01*
X-1792468Y-26037218D01*
X-1768815Y-25996250D01*
X-1710235Y-25894786D01*
X-1674000Y-25858552D01*
X-1624500Y-25845288D01*
X-1575000Y-25858551D01*
X-1538764Y-25894788D01*
X-1525500Y-25944288D01*
X-1525500Y-29081466D01*
X-1525876Y-29090093D01*
X-1529264Y-29128807D01*
X-1519201Y-29166359D01*
X-1517335Y-29174777D01*
X-1510588Y-29213045D01*
X-1509838Y-29214343D01*
X-1499942Y-29238232D01*
X-1499554Y-29239684D01*
X-1477254Y-29271529D01*
X-1472632Y-29278785D01*
X-1453194Y-29312455D01*
X-1423414Y-29337442D01*
X-1417070Y-29343254D01*
X2610860Y-33371186D01*
X3946730Y-34707056D01*
X3952564Y-34713423D01*
X3977545Y-34743194D01*
X4011215Y-34762633D01*
X4018467Y-34767253D01*
X4037286Y-34780430D01*
X4068315Y-34815813D01*
X4079500Y-34861525D01*
X4079500Y-35309747D01*
X4091133Y-35368231D01*
X4135447Y-35434552D01*
X4172291Y-35459170D01*
X4201769Y-35478867D01*
X4260252Y-35490500D01*
X5726734Y-35490500D01*
X5778706Y-35505239D01*
X5815203Y-35545068D01*
X5821517Y-35578064D01*
X5835795Y-35631350D01*
X5837663Y-35639778D01*
X5844411Y-35678042D01*
X5844412Y-35678045D01*
X5845166Y-35679352D01*
X5855055Y-35703225D01*
X5855446Y-35704685D01*
X5877732Y-35736514D01*
X5882370Y-35743794D01*
X5901803Y-35777452D01*
X5901805Y-35777454D01*
X5901806Y-35777455D01*
X5931575Y-35802434D01*
X5937938Y-35808264D01*
X6668722Y-36539048D01*
X6694751Y-36584997D01*
X6693455Y-36637790D01*
X6633975Y-36833869D01*
X6614658Y-37029999D01*
X6633975Y-37226130D01*
X6691185Y-37414727D01*
X6784088Y-37588536D01*
X6784090Y-37588538D01*
X6909117Y-37740883D01*
X7038298Y-37846900D01*
X7061463Y-37865911D01*
X7235272Y-37958814D01*
X7329570Y-37987419D01*
X7423868Y-38016024D01*
X7620000Y-38035341D01*
X7816132Y-38016024D01*
X8004727Y-37958814D01*
X8178538Y-37865910D01*
X8330883Y-37740883D01*
X8455910Y-37588538D01*
X8548814Y-37414727D01*
X8606024Y-37226132D01*
X8625341Y-37030000D01*
X8606024Y-36833868D01*
X8577418Y-36739570D01*
X8548814Y-36645272D01*
X8455911Y-36471463D01*
X8436900Y-36448298D01*
X8330883Y-36319117D01*
X8220501Y-36228528D01*
X8178536Y-36194088D01*
X8004727Y-36101185D01*
X7816130Y-36043975D01*
X7620000Y-36024658D01*
X7423869Y-36043975D01*
X7227790Y-36103455D01*
X7174997Y-36104751D01*
X7129048Y-36078722D01*
X6509496Y-35459170D01*
X6488036Y-35427052D01*
X6480500Y-35389166D01*
X6480500Y-34847594D01*
X6496120Y-34794219D01*
X6538053Y-34757688D01*
X6593064Y-34749528D01*
X6643795Y-34772314D01*
X6674237Y-34818856D01*
X6691185Y-34874727D01*
X6784088Y-35048536D01*
X6784090Y-35048538D01*
X6909117Y-35200883D01*
X7024977Y-35295967D01*
X7061463Y-35325911D01*
X7235272Y-35418814D01*
X7329570Y-35447419D01*
X7423868Y-35476024D01*
X7620000Y-35495341D01*
X7816132Y-35476024D01*
X8004727Y-35418814D01*
X8005595Y-35418350D01*
X8178537Y-35325911D01*
X8207695Y-35301982D01*
X8258381Y-35280255D01*
X8312828Y-35289015D01*
X8354141Y-35325545D01*
X8369500Y-35378510D01*
X8369500Y-35546466D01*
X8369123Y-35555096D01*
X8365735Y-35593807D01*
X8375795Y-35631350D01*
X8377663Y-35639778D01*
X8384411Y-35678042D01*
X8384412Y-35678045D01*
X8385166Y-35679352D01*
X8395055Y-35703225D01*
X8395446Y-35704685D01*
X8417732Y-35736514D01*
X8422370Y-35743794D01*
X8441803Y-35777452D01*
X8441805Y-35777454D01*
X8441806Y-35777455D01*
X8471575Y-35802434D01*
X8477938Y-35808264D01*
X9208722Y-36539048D01*
X9234751Y-36584997D01*
X9233455Y-36637790D01*
X9173975Y-36833869D01*
X9154658Y-37029999D01*
X9173975Y-37226130D01*
X9231185Y-37414727D01*
X9324088Y-37588536D01*
X9324090Y-37588538D01*
X9449117Y-37740883D01*
X9578298Y-37846900D01*
X9601463Y-37865911D01*
X9775272Y-37958814D01*
X9869570Y-37987419D01*
X9963868Y-38016024D01*
X10160000Y-38035341D01*
X10356132Y-38016024D01*
X10544727Y-37958814D01*
X10718538Y-37865910D01*
X10870883Y-37740883D01*
X10995910Y-37588538D01*
X11088814Y-37414727D01*
X11146024Y-37226132D01*
X11165341Y-37030000D01*
X11146024Y-36833868D01*
X11117418Y-36739570D01*
X11088814Y-36645272D01*
X10995911Y-36471463D01*
X10976900Y-36448298D01*
X10870883Y-36319117D01*
X10760501Y-36228528D01*
X10718536Y-36194088D01*
X10544727Y-36101185D01*
X10356130Y-36043975D01*
X10160000Y-36024658D01*
X9963869Y-36043975D01*
X9767790Y-36103455D01*
X9714997Y-36104751D01*
X9669048Y-36078722D01*
X9049496Y-35459170D01*
X9028036Y-35427052D01*
X9020500Y-35389166D01*
X9020500Y-34847594D01*
X9036120Y-34794219D01*
X9078053Y-34757688D01*
X9133064Y-34749528D01*
X9183795Y-34772314D01*
X9214237Y-34818856D01*
X9231185Y-34874727D01*
X9324088Y-35048536D01*
X9324090Y-35048538D01*
X9449117Y-35200883D01*
X9564977Y-35295967D01*
X9601463Y-35325911D01*
X9775272Y-35418814D01*
X9869570Y-35447419D01*
X9963868Y-35476024D01*
X10160000Y-35495341D01*
X10356132Y-35476024D01*
X10544727Y-35418814D01*
X10545595Y-35418350D01*
X10718537Y-35325911D01*
X10747695Y-35301982D01*
X10798381Y-35280255D01*
X10852828Y-35289015D01*
X10894141Y-35325545D01*
X10909500Y-35378510D01*
X10909500Y-35546466D01*
X10909123Y-35555096D01*
X10905735Y-35593807D01*
X10915795Y-35631350D01*
X10917663Y-35639778D01*
X10924411Y-35678042D01*
X10924412Y-35678045D01*
X10925166Y-35679352D01*
X10935055Y-35703225D01*
X10935446Y-35704685D01*
X10957732Y-35736514D01*
X10962370Y-35743794D01*
X10981803Y-35777452D01*
X10981805Y-35777454D01*
X10981806Y-35777455D01*
X11011575Y-35802434D01*
X11017938Y-35808264D01*
X11748722Y-36539048D01*
X11774751Y-36584997D01*
X11773455Y-36637790D01*
X11713975Y-36833869D01*
X11694658Y-37029999D01*
X11713975Y-37226130D01*
X11771185Y-37414727D01*
X11864088Y-37588536D01*
X11864090Y-37588538D01*
X11989117Y-37740883D01*
X12118298Y-37846900D01*
X12141463Y-37865911D01*
X12315272Y-37958814D01*
X12409570Y-37987419D01*
X12503868Y-38016024D01*
X12700000Y-38035341D01*
X12896132Y-38016024D01*
X13084727Y-37958814D01*
X13258538Y-37865910D01*
X13410883Y-37740883D01*
X13535910Y-37588538D01*
X13628814Y-37414727D01*
X13686024Y-37226132D01*
X13695492Y-37130000D01*
X14245010Y-37130000D01*
X14254469Y-37226034D01*
X14311649Y-37414536D01*
X14404504Y-37588254D01*
X14529472Y-37740527D01*
X14681745Y-37865495D01*
X14855463Y-37958350D01*
X15043965Y-38015530D01*
X15140000Y-38024990D01*
X15340000Y-38024990D01*
X15436034Y-38015530D01*
X15624536Y-37958350D01*
X15798254Y-37865495D01*
X15950527Y-37740527D01*
X16075495Y-37588254D01*
X16168350Y-37414536D01*
X16225530Y-37226034D01*
X16234990Y-37130000D01*
X15340001Y-37130000D01*
X15340000Y-37130001D01*
X15340000Y-38024990D01*
X15140000Y-38024990D01*
X15140000Y-37130001D01*
X15139999Y-37130000D01*
X14245010Y-37130000D01*
X13695492Y-37130000D01*
X13705341Y-37030000D01*
X13695492Y-36930000D01*
X14245009Y-36930000D01*
X15139999Y-36930000D01*
X15140000Y-36929999D01*
X15140000Y-36035009D01*
X15339999Y-36035009D01*
X15340000Y-36035010D01*
X15340000Y-36929999D01*
X15340001Y-36930000D01*
X16234990Y-36930000D01*
X16225530Y-36833965D01*
X16168350Y-36645463D01*
X16075495Y-36471745D01*
X15950527Y-36319472D01*
X15798254Y-36194504D01*
X15624536Y-36101649D01*
X15436034Y-36044469D01*
X15339999Y-36035009D01*
X15140000Y-36035009D01*
X15043965Y-36044469D01*
X14855463Y-36101649D01*
X14681745Y-36194504D01*
X14529472Y-36319472D01*
X14404504Y-36471745D01*
X14311649Y-36645463D01*
X14254469Y-36833965D01*
X14245009Y-36930000D01*
X13695492Y-36930000D01*
X13686024Y-36833868D01*
X13657418Y-36739570D01*
X13628814Y-36645272D01*
X13535911Y-36471463D01*
X13516900Y-36448298D01*
X13410883Y-36319117D01*
X13300501Y-36228528D01*
X13258536Y-36194088D01*
X13084727Y-36101185D01*
X12896130Y-36043975D01*
X12700000Y-36024658D01*
X12503869Y-36043975D01*
X12307790Y-36103455D01*
X12254997Y-36104751D01*
X12209048Y-36078722D01*
X11589496Y-35459170D01*
X11568036Y-35427052D01*
X11560500Y-35389166D01*
X11560500Y-34847594D01*
X11576120Y-34794219D01*
X11618053Y-34757688D01*
X11673064Y-34749528D01*
X11723795Y-34772314D01*
X11754237Y-34818856D01*
X11771185Y-34874727D01*
X11864088Y-35048536D01*
X11864090Y-35048538D01*
X11989117Y-35200883D01*
X12104977Y-35295967D01*
X12141463Y-35325911D01*
X12315272Y-35418814D01*
X12409570Y-35447419D01*
X12503868Y-35476024D01*
X12700000Y-35495341D01*
X12896132Y-35476024D01*
X13084727Y-35418814D01*
X13258538Y-35325910D01*
X13410883Y-35200883D01*
X13535910Y-35048538D01*
X13628814Y-34874727D01*
X13686024Y-34686132D01*
X13695492Y-34590000D01*
X14245010Y-34590000D01*
X14254469Y-34686034D01*
X14311649Y-34874536D01*
X14404504Y-35048254D01*
X14529472Y-35200527D01*
X14681745Y-35325495D01*
X14855463Y-35418350D01*
X15043965Y-35475530D01*
X15140000Y-35484990D01*
X15340000Y-35484990D01*
X15436034Y-35475530D01*
X15624536Y-35418350D01*
X15798254Y-35325495D01*
X15950527Y-35200527D01*
X16075495Y-35048254D01*
X16168350Y-34874536D01*
X16225530Y-34686034D01*
X16234990Y-34590000D01*
X15340001Y-34590000D01*
X15340000Y-34590001D01*
X15340000Y-35484990D01*
X15140000Y-35484990D01*
X15140000Y-34590001D01*
X15139999Y-34590000D01*
X14245010Y-34590000D01*
X13695492Y-34590000D01*
X13705341Y-34490000D01*
X13695492Y-34390000D01*
X14245009Y-34390000D01*
X15139999Y-34390000D01*
X15140000Y-34389999D01*
X15140000Y-33495009D01*
X15339999Y-33495009D01*
X15340000Y-33495010D01*
X15340000Y-34389999D01*
X15340001Y-34390000D01*
X16234990Y-34390000D01*
X16225530Y-34293965D01*
X16168350Y-34105463D01*
X16075495Y-33931745D01*
X15950527Y-33779472D01*
X15798254Y-33654504D01*
X15624536Y-33561649D01*
X15436034Y-33504469D01*
X15339999Y-33495009D01*
X15140000Y-33495009D01*
X15043965Y-33504469D01*
X14855463Y-33561649D01*
X14681745Y-33654504D01*
X14529472Y-33779472D01*
X14404504Y-33931745D01*
X14311649Y-34105463D01*
X14254469Y-34293965D01*
X14245009Y-34390000D01*
X13695492Y-34390000D01*
X13686024Y-34293868D01*
X13653236Y-34185781D01*
X13628814Y-34105272D01*
X13535911Y-33931463D01*
X13449500Y-33826172D01*
X13410883Y-33779117D01*
X13297001Y-33685656D01*
X13258536Y-33654088D01*
X13084727Y-33561185D01*
X12896130Y-33503975D01*
X12700000Y-33484658D01*
X12503869Y-33503975D01*
X12315272Y-33561185D01*
X12141463Y-33654088D01*
X11989117Y-33779117D01*
X11864088Y-33931463D01*
X11771185Y-34105272D01*
X11754237Y-34161144D01*
X11723795Y-34207686D01*
X11673064Y-34230472D01*
X11618053Y-34222312D01*
X11576120Y-34185781D01*
X11560500Y-34132406D01*
X11560500Y-30253535D01*
X11560877Y-30244905D01*
X11564264Y-30206194D01*
X11554204Y-30168652D01*
X11552334Y-30160216D01*
X11551326Y-30154501D01*
X11545588Y-30121955D01*
X11544834Y-30120650D01*
X11534943Y-30096768D01*
X11534942Y-30096765D01*
X11534554Y-30095316D01*
X11512260Y-30063477D01*
X11507633Y-30056215D01*
X11488194Y-30022545D01*
X11458428Y-29997568D01*
X11452060Y-29991734D01*
X9547518Y-28087192D01*
X14339500Y-28087192D01*
X14354326Y-28228256D01*
X14370312Y-28277455D01*
X14412821Y-28408284D01*
X14507468Y-28572218D01*
X14634126Y-28712886D01*
X14656532Y-28729165D01*
X14787270Y-28824151D01*
X14960197Y-28901144D01*
X15145354Y-28940500D01*
X15334644Y-28940500D01*
X15334646Y-28940500D01*
X15519803Y-28901144D01*
X15692730Y-28824151D01*
X15845871Y-28712888D01*
X15845873Y-28712886D01*
X15971597Y-28573256D01*
X16004901Y-28549059D01*
X16045168Y-28540500D01*
X16974832Y-28540500D01*
X17015099Y-28549059D01*
X17048403Y-28573256D01*
X17154071Y-28690612D01*
X17172924Y-28721378D01*
X17179500Y-28756856D01*
X17179500Y-33641705D01*
X17169995Y-33684033D01*
X17143306Y-33718231D01*
X17078240Y-33771630D01*
X17069117Y-33779117D01*
X16944088Y-33931463D01*
X16851185Y-34105272D01*
X16793975Y-34293869D01*
X16774658Y-34489999D01*
X16793975Y-34686130D01*
X16851185Y-34874727D01*
X16944088Y-35048536D01*
X16944090Y-35048538D01*
X17069117Y-35200883D01*
X17143306Y-35261768D01*
X17169995Y-35295967D01*
X17179500Y-35338295D01*
X17179500Y-36181705D01*
X17169995Y-36224033D01*
X17143306Y-36258231D01*
X17069117Y-36319116D01*
X17069117Y-36319117D01*
X16944088Y-36471463D01*
X16851185Y-36645272D01*
X16793975Y-36833869D01*
X16774658Y-37030000D01*
X16793975Y-37226130D01*
X16851185Y-37414727D01*
X16944088Y-37588536D01*
X16944090Y-37588538D01*
X17069117Y-37740883D01*
X17198298Y-37846900D01*
X17221463Y-37865911D01*
X17395272Y-37958814D01*
X17489570Y-37987419D01*
X17583868Y-38016024D01*
X17780000Y-38035341D01*
X17976132Y-38016024D01*
X18164727Y-37958814D01*
X18338538Y-37865910D01*
X18490883Y-37740883D01*
X18615910Y-37588538D01*
X18708814Y-37414727D01*
X18766024Y-37226132D01*
X18785341Y-37030000D01*
X18766024Y-36833868D01*
X18737418Y-36739570D01*
X18708814Y-36645272D01*
X18615911Y-36471463D01*
X18596900Y-36448298D01*
X18490883Y-36319117D01*
X18416693Y-36258231D01*
X18390005Y-36224033D01*
X18380500Y-36181705D01*
X18380500Y-35338295D01*
X18390005Y-35295967D01*
X18416693Y-35261768D01*
X18490883Y-35200883D01*
X18615910Y-35048538D01*
X18708814Y-34874727D01*
X18766024Y-34686132D01*
X18785341Y-34490000D01*
X18766024Y-34293868D01*
X18733236Y-34185781D01*
X18708814Y-34105272D01*
X18615911Y-33931463D01*
X18529500Y-33826172D01*
X18490883Y-33779117D01*
X18416693Y-33718231D01*
X18390005Y-33684033D01*
X18380500Y-33641705D01*
X18380500Y-28756856D01*
X18387076Y-28721378D01*
X18405929Y-28690612D01*
X18483888Y-28604029D01*
X18512533Y-28572216D01*
X18607179Y-28408284D01*
X18665674Y-28228256D01*
X18680500Y-28087192D01*
X18680500Y-27792808D01*
X18665674Y-27651744D01*
X18607179Y-27471716D01*
X18512533Y-27307784D01*
X18512532Y-27307783D01*
X18512531Y-27307781D01*
X18385873Y-27167113D01*
X18309300Y-27111480D01*
X18232730Y-27055849D01*
X18161570Y-27024166D01*
X18059804Y-26978856D01*
X17998083Y-26965737D01*
X17874646Y-26939500D01*
X17685354Y-26939500D01*
X17592775Y-26959177D01*
X17500195Y-26978856D01*
X17327271Y-27055848D01*
X17174126Y-27167113D01*
X17048403Y-27306744D01*
X17015099Y-27330941D01*
X16974832Y-27339500D01*
X16045168Y-27339500D01*
X16004901Y-27330941D01*
X15971597Y-27306744D01*
X15845873Y-27167113D01*
X15769300Y-27111480D01*
X15692730Y-27055849D01*
X15621570Y-27024166D01*
X15519804Y-26978856D01*
X15458083Y-26965737D01*
X15334646Y-26939500D01*
X15145354Y-26939500D01*
X15052775Y-26959177D01*
X14960195Y-26978856D01*
X14787271Y-27055848D01*
X14634126Y-27167113D01*
X14507468Y-27307781D01*
X14412821Y-27471715D01*
X14362218Y-27627454D01*
X14354326Y-27651744D01*
X14339500Y-27792808D01*
X14339500Y-28087192D01*
X9547518Y-28087192D01*
X6648268Y-25187942D01*
X6642434Y-25181574D01*
X6617454Y-25151805D01*
X6583794Y-25132370D01*
X6576514Y-25127732D01*
X6544685Y-25105446D01*
X6543225Y-25105055D01*
X6519352Y-25095166D01*
X6518045Y-25094412D01*
X6518043Y-25094411D01*
X6518042Y-25094411D01*
X6479778Y-25087663D01*
X6471350Y-25085795D01*
X6433807Y-25075735D01*
X6398330Y-25078839D01*
X6395093Y-25079123D01*
X6386466Y-25079500D01*
X6040500Y-25079500D01*
X5982309Y-25060593D01*
X5946346Y-25011095D01*
X5922179Y-24936716D01*
X5827533Y-24772784D01*
X5827532Y-24772783D01*
X5827531Y-24772781D01*
X5700873Y-24632113D01*
X5624300Y-24576480D01*
X5547730Y-24520849D01*
X5547728Y-24520848D01*
X5374804Y-24443856D01*
X5313084Y-24430737D01*
X5189646Y-24404500D01*
X5000354Y-24404500D01*
X4907775Y-24424178D01*
X4815195Y-24443856D01*
X4642271Y-24520848D01*
X4489126Y-24632113D01*
X4362468Y-24772781D01*
X4267821Y-24936715D01*
X4267821Y-24936716D01*
X4209326Y-25116744D01*
X4194500Y-25257808D01*
X4194500Y-25552192D01*
X4209326Y-25693256D01*
X4263034Y-25858551D01*
X4267821Y-25873284D01*
X4362468Y-26037218D01*
X4489126Y-26177886D01*
X4489129Y-26177888D01*
X4642270Y-26289151D01*
X4815197Y-26366144D01*
X5000354Y-26405500D01*
X5189644Y-26405500D01*
X5189646Y-26405500D01*
X5374803Y-26366144D01*
X5547730Y-26289151D01*
X5700871Y-26177888D01*
X5827533Y-26037216D01*
X5922179Y-25873284D01*
X5946346Y-25798904D01*
X5982309Y-25749407D01*
X6040500Y-25730500D01*
X6229166Y-25730500D01*
X6267052Y-25738036D01*
X6299170Y-25759496D01*
X10880504Y-30340830D01*
X10901964Y-30372948D01*
X10909500Y-30410834D01*
X10909500Y-33601490D01*
X10894141Y-33654455D01*
X10852828Y-33690985D01*
X10798381Y-33699745D01*
X10747695Y-33678018D01*
X10718537Y-33654088D01*
X10544727Y-33561185D01*
X10356130Y-33503975D01*
X10160000Y-33484658D01*
X9963869Y-33503975D01*
X9775272Y-33561185D01*
X9601463Y-33654088D01*
X9449117Y-33779117D01*
X9324088Y-33931463D01*
X9231185Y-34105272D01*
X9214237Y-34161144D01*
X9183795Y-34207686D01*
X9133064Y-34230472D01*
X9078053Y-34222312D01*
X9036120Y-34185781D01*
X9020500Y-34132406D01*
X9020500Y-31563526D01*
X9020877Y-31554897D01*
X9024263Y-31516194D01*
X9024263Y-31516193D01*
X9014199Y-31478638D01*
X9012335Y-31470223D01*
X9005589Y-31431958D01*
X9005588Y-31431956D01*
X9005588Y-31431955D01*
X9004834Y-31430650D01*
X8994943Y-31406768D01*
X8994554Y-31405317D01*
X8994554Y-31405316D01*
X8972257Y-31373473D01*
X8967626Y-31366203D01*
X8965173Y-31361955D01*
X8948194Y-31332545D01*
X8948193Y-31332543D01*
X8918434Y-31307573D01*
X8912066Y-31301739D01*
X3449951Y-25839625D01*
X3423690Y-25792731D01*
X3425800Y-25739029D01*
X3440674Y-25693256D01*
X3455500Y-25552192D01*
X3455500Y-25257808D01*
X3440674Y-25116744D01*
X3382179Y-24936716D01*
X3287533Y-24772784D01*
X3287532Y-24772783D01*
X3287531Y-24772781D01*
X3160873Y-24632113D01*
X3084300Y-24576480D01*
X3007730Y-24520849D01*
X3007728Y-24520848D01*
X2834804Y-24443856D01*
X2773084Y-24430737D01*
X2649646Y-24404500D01*
X2460354Y-24404500D01*
X2367775Y-24424178D01*
X2275195Y-24443856D01*
X2102271Y-24520848D01*
X1949126Y-24632113D01*
X1898071Y-24688817D01*
X1847611Y-24718838D01*
X1789022Y-24714997D01*
X1742912Y-24678647D01*
X1725500Y-24622573D01*
X1725500Y-24195833D01*
X1733036Y-24157947D01*
X1754496Y-24125830D01*
X1833371Y-24046955D01*
X2074158Y-23806166D01*
X2126119Y-23778829D01*
X2184427Y-23785730D01*
X2230329Y-23806167D01*
X2275197Y-23826144D01*
X2460354Y-23865500D01*
X2649644Y-23865500D01*
X2649646Y-23865500D01*
X2834803Y-23826144D01*
X3007730Y-23749151D01*
X3160871Y-23637888D01*
X3287533Y-23497216D01*
X3382179Y-23333284D01*
X3440674Y-23153256D01*
X3455500Y-23012192D01*
X3455500Y-23012161D01*
X4195000Y-23012161D01*
X4209818Y-23153154D01*
X4268279Y-23333075D01*
X4362875Y-23496922D01*
X4489466Y-23637514D01*
X4642520Y-23748716D01*
X4815348Y-23825663D01*
X4995000Y-23863850D01*
X5195000Y-23863850D01*
X5374649Y-23825663D01*
X5547476Y-23748716D01*
X5700536Y-23637512D01*
X5827124Y-23496922D01*
X5921720Y-23333075D01*
X5980181Y-23153154D01*
X5995000Y-23012161D01*
X5995000Y-23007161D01*
X14340000Y-23007161D01*
X14354818Y-23148154D01*
X14413279Y-23328075D01*
X14507875Y-23491922D01*
X14634466Y-23632514D01*
X14787520Y-23743716D01*
X14960348Y-23820663D01*
X15140000Y-23858850D01*
X15340000Y-23858850D01*
X15519649Y-23820663D01*
X15692476Y-23743716D01*
X15845536Y-23632512D01*
X15972124Y-23491922D01*
X16066720Y-23328075D01*
X16125181Y-23148154D01*
X16140000Y-23007161D01*
X16880000Y-23007161D01*
X16894818Y-23148154D01*
X16953279Y-23328075D01*
X17047875Y-23491922D01*
X17174466Y-23632514D01*
X17327520Y-23743716D01*
X17500348Y-23820663D01*
X17680000Y-23858850D01*
X17880000Y-23858850D01*
X18059649Y-23820663D01*
X18232476Y-23743716D01*
X18385536Y-23632512D01*
X18512124Y-23491922D01*
X18606720Y-23328075D01*
X18665181Y-23148154D01*
X18680000Y-23007161D01*
X18680000Y-22960001D01*
X18679999Y-22960000D01*
X17880001Y-22960000D01*
X17880000Y-22960001D01*
X17880000Y-23858850D01*
X17680000Y-23858850D01*
X17680000Y-22960001D01*
X17679999Y-22960000D01*
X16880001Y-22960000D01*
X16880000Y-22960001D01*
X16880000Y-23007161D01*
X16140000Y-23007161D01*
X16140000Y-22960001D01*
X16139999Y-22960000D01*
X15340001Y-22960000D01*
X15340000Y-22960001D01*
X15340000Y-23858850D01*
X15140000Y-23858850D01*
X15140000Y-22960001D01*
X15139999Y-22960000D01*
X14340001Y-22960000D01*
X14340000Y-22960001D01*
X14340000Y-23007161D01*
X5995000Y-23007161D01*
X5995000Y-22965001D01*
X5994999Y-22965000D01*
X5195001Y-22965000D01*
X5195000Y-22965001D01*
X5195000Y-23863850D01*
X4995000Y-23863850D01*
X4995000Y-22965001D01*
X4994999Y-22965000D01*
X4195001Y-22965000D01*
X4195000Y-22965001D01*
X4195000Y-23012161D01*
X3455500Y-23012161D01*
X3455500Y-22764999D01*
X4195000Y-22764999D01*
X4195001Y-22765000D01*
X4994999Y-22765000D01*
X4995000Y-22764999D01*
X4995000Y-21866150D01*
X5195000Y-21866150D01*
X5195000Y-22764999D01*
X5195001Y-22765000D01*
X5994999Y-22765000D01*
X5995000Y-22764999D01*
X5995000Y-22759999D01*
X14340000Y-22759999D01*
X14340001Y-22760000D01*
X15139999Y-22760000D01*
X15140000Y-22759999D01*
X15140000Y-21861150D01*
X15340000Y-21861150D01*
X15340000Y-22759999D01*
X15340001Y-22760000D01*
X16139999Y-22760000D01*
X16140000Y-22759999D01*
X16880000Y-22759999D01*
X16880001Y-22760000D01*
X17679999Y-22760000D01*
X17680000Y-22759999D01*
X17680000Y-21861150D01*
X17880000Y-21861150D01*
X17880000Y-22759999D01*
X17880001Y-22760000D01*
X18679999Y-22760000D01*
X18680000Y-22759999D01*
X18680000Y-22712839D01*
X18665181Y-22571845D01*
X18606720Y-22391924D01*
X18512124Y-22228077D01*
X18385533Y-22087485D01*
X18232479Y-21976283D01*
X18059651Y-21899336D01*
X17880000Y-21861150D01*
X17680000Y-21861150D01*
X17500350Y-21899336D01*
X17327523Y-21976283D01*
X17174463Y-22087487D01*
X17047875Y-22228077D01*
X16953279Y-22391924D01*
X16894818Y-22571845D01*
X16880000Y-22712839D01*
X16880000Y-22759999D01*
X16140000Y-22759999D01*
X16140000Y-22712839D01*
X16125181Y-22571845D01*
X16066720Y-22391924D01*
X15972124Y-22228077D01*
X15845533Y-22087485D01*
X15692479Y-21976283D01*
X15519651Y-21899336D01*
X15340000Y-21861150D01*
X15140000Y-21861150D01*
X14960350Y-21899336D01*
X14787523Y-21976283D01*
X14634463Y-22087487D01*
X14507875Y-22228077D01*
X14413279Y-22391924D01*
X14354818Y-22571845D01*
X14340000Y-22712839D01*
X14340000Y-22759999D01*
X5995000Y-22759999D01*
X5995000Y-22717839D01*
X5980181Y-22576845D01*
X5921720Y-22396924D01*
X5827124Y-22233077D01*
X5700533Y-22092485D01*
X5547479Y-21981283D01*
X5374651Y-21904336D01*
X5195000Y-21866150D01*
X4995000Y-21866150D01*
X4815350Y-21904336D01*
X4642523Y-21981283D01*
X4489463Y-22092487D01*
X4362875Y-22233077D01*
X4268279Y-22396924D01*
X4209818Y-22576845D01*
X4195000Y-22717839D01*
X4195000Y-22764999D01*
X3455500Y-22764999D01*
X3455500Y-22717808D01*
X3440674Y-22576744D01*
X3382179Y-22396716D01*
X3287533Y-22232784D01*
X3287532Y-22232783D01*
X3287531Y-22232781D01*
X3160873Y-22092113D01*
X3008327Y-21981283D01*
X3007730Y-21980849D01*
X2997475Y-21976283D01*
X2834804Y-21903856D01*
X2773083Y-21890737D01*
X2649646Y-21864500D01*
X2460354Y-21864500D01*
X2367775Y-21884177D01*
X2275195Y-21903856D01*
X2102271Y-21980848D01*
X1949126Y-22092113D01*
X1822468Y-22232781D01*
X1727821Y-22396715D01*
X1727821Y-22396716D01*
X1669326Y-22576744D01*
X1655023Y-22712839D01*
X1654500Y-22717811D01*
X1654500Y-23012189D01*
X1669326Y-23153257D01*
X1684198Y-23199029D01*
X1686308Y-23252733D01*
X1660047Y-23299625D01*
X1182940Y-23776732D01*
X1176574Y-23782565D01*
X1146804Y-23807545D01*
X1127371Y-23841204D01*
X1122734Y-23848484D01*
X1100444Y-23880318D01*
X1100053Y-23881780D01*
X1090168Y-23905645D01*
X1089410Y-23906956D01*
X1082662Y-23945223D01*
X1080794Y-23953649D01*
X1070735Y-23991191D01*
X1074123Y-24029904D01*
X1074500Y-24038534D01*
X1074500Y-25026664D01*
X1059088Y-25079711D01*
X1017652Y-25116242D01*
X963092Y-25124883D01*
X912395Y-25102945D01*
X881346Y-25057257D01*
X842180Y-24936719D01*
X842179Y-24936718D01*
X842179Y-24936716D01*
X747533Y-24772784D01*
X747532Y-24772783D01*
X747531Y-24772781D01*
X620873Y-24632113D01*
X544300Y-24576480D01*
X467730Y-24520849D01*
X467728Y-24520848D01*
X294804Y-24443856D01*
X233084Y-24430737D01*
X109646Y-24404500D01*
X-79646Y-24404500D01*
X-203084Y-24430737D01*
X-264804Y-24443856D01*
X-437728Y-24520848D01*
X-437730Y-24520849D01*
X-514300Y-24576480D01*
X-590873Y-24632113D01*
X-701929Y-24755454D01*
X-752389Y-24785475D01*
X-810978Y-24781634D01*
X-857088Y-24745284D01*
X-874500Y-24689210D01*
X-874500Y-24255834D01*
X-866964Y-24217948D01*
X-845504Y-24185830D01*
X-465841Y-23806167D01*
X-413877Y-23778829D01*
X-355569Y-23785730D01*
X-264803Y-23826144D01*
X-79646Y-23865500D01*
X109644Y-23865500D01*
X109646Y-23865500D01*
X294803Y-23826144D01*
X467730Y-23749151D01*
X620871Y-23637888D01*
X747533Y-23497216D01*
X842179Y-23333284D01*
X900674Y-23153256D01*
X915500Y-23012192D01*
X915500Y-22717808D01*
X900674Y-22576744D01*
X842179Y-22396716D01*
X747533Y-22232784D01*
X747532Y-22232783D01*
X747531Y-22232781D01*
X620873Y-22092113D01*
X468327Y-21981283D01*
X467730Y-21980849D01*
X457475Y-21976283D01*
X294804Y-21903856D01*
X233083Y-21890737D01*
X109646Y-21864500D01*
X-79646Y-21864500D01*
X-203083Y-21890737D01*
X-264804Y-21903856D01*
X-427475Y-21976283D01*
X-437730Y-21980849D01*
X-438327Y-21981283D01*
X-590873Y-22092113D01*
X-717531Y-22232781D01*
X-717532Y-22232783D01*
X-717533Y-22232784D01*
X-812179Y-22396716D01*
X-870674Y-22576744D01*
X-885500Y-22717808D01*
X-885500Y-23012192D01*
X-870674Y-23153256D01*
X-855800Y-23199029D01*
X-853690Y-23252731D01*
X-879951Y-23299625D01*
X-1417056Y-23836730D01*
X-1423423Y-23842564D01*
X-1450757Y-23865500D01*
X-1453194Y-23867545D01*
X-1472633Y-23901215D01*
X-1477260Y-23908477D01*
X-1499554Y-23940316D01*
X-1499942Y-23941765D01*
X-1499943Y-23941768D01*
X-1509834Y-23965650D01*
X-1510588Y-23966955D01*
X-1510857Y-23968483D01*
X-1517335Y-24005220D01*
X-1519203Y-24013647D01*
X-1524714Y-24034214D01*
X-1529264Y-24051193D01*
X-1525877Y-24089904D01*
X-1525500Y-24098534D01*
X-1525500Y-24865712D01*
X-1538764Y-24915212D01*
X-1575000Y-24951449D01*
X-1624500Y-24964712D01*
X-1674000Y-24951448D01*
X-1710235Y-24915213D01*
X-1769316Y-24812883D01*
X-1792468Y-24772781D01*
X-1919126Y-24632113D01*
X-2072271Y-24520848D01*
X-2245195Y-24443856D01*
X-2337775Y-24424178D01*
X-2430354Y-24404500D01*
X-2619646Y-24404500D01*
X-2743084Y-24430737D01*
X-2804804Y-24443856D01*
X-2977728Y-24520848D01*
X-2977730Y-24520849D01*
X-3054300Y-24576480D01*
X-3130873Y-24632113D01*
X-3257531Y-24772781D01*
X-3257532Y-24772783D01*
X-3257533Y-24772784D01*
X-3289764Y-24828610D01*
X-3326000Y-24864845D01*
X-3375500Y-24878109D01*
X-3425000Y-24864846D01*
X-3461237Y-24828609D01*
X-3474500Y-24779109D01*
X-3474500Y-24315834D01*
X-3466964Y-24277948D01*
X-3445504Y-24245830D01*
X-3005841Y-23806167D01*
X-2953877Y-23778829D01*
X-2895569Y-23785730D01*
X-2804803Y-23826144D01*
X-2619646Y-23865500D01*
X-2430356Y-23865500D01*
X-2430354Y-23865500D01*
X-2245197Y-23826144D01*
X-2072270Y-23749151D01*
X-1919129Y-23637888D01*
X-1919126Y-23637886D01*
X-1792468Y-23497218D01*
X-1697821Y-23333284D01*
X-1696128Y-23328075D01*
X-1639326Y-23153256D01*
X-1624500Y-23012192D01*
X-1624500Y-22717808D01*
X-1639326Y-22576744D01*
X-1697821Y-22396716D01*
X-1697821Y-22396715D01*
X-1792468Y-22232781D01*
X-1919126Y-22092113D01*
X-2072271Y-21980848D01*
X-2245195Y-21903856D01*
X-2337775Y-21884177D01*
X-2430354Y-21864500D01*
X-2619646Y-21864500D01*
X-2743083Y-21890737D01*
X-2804804Y-21903856D01*
X-2967475Y-21976283D01*
X-2977730Y-21980849D01*
X-2978327Y-21981283D01*
X-3130873Y-22092113D01*
X-3257531Y-22232781D01*
X-3257532Y-22232783D01*
X-3257533Y-22232784D01*
X-3352179Y-22396716D01*
X-3410674Y-22576744D01*
X-3425500Y-22717808D01*
X-3425500Y-23012192D01*
X-3410674Y-23153256D01*
X-3395800Y-23199029D01*
X-3393690Y-23252731D01*
X-3419951Y-23299625D01*
X-4017056Y-23896730D01*
X-4023423Y-23902564D01*
X-4053193Y-23927544D01*
X-4053194Y-23927545D01*
X-4072633Y-23961215D01*
X-4077260Y-23968477D01*
X-4099554Y-24000316D01*
X-4099942Y-24001765D01*
X-4099943Y-24001768D01*
X-4109834Y-24025650D01*
X-4110588Y-24026955D01*
X-4113885Y-24045656D01*
X-4117335Y-24065220D01*
X-4119203Y-24073647D01*
X-4124714Y-24094214D01*
X-4129264Y-24111193D01*
X-4125877Y-24149904D01*
X-4125500Y-24158534D01*
X-4125500Y-24761788D01*
X-4138763Y-24811288D01*
X-4175000Y-24847524D01*
X-4224500Y-24860788D01*
X-4274000Y-24847525D01*
X-4310236Y-24811288D01*
X-4332465Y-24772785D01*
X-4459126Y-24632113D01*
X-4612271Y-24520848D01*
X-4785195Y-24443856D01*
X-4877775Y-24424178D01*
X-4970354Y-24404500D01*
X-5159646Y-24404500D01*
X-5283084Y-24430737D01*
X-5344804Y-24443856D01*
X-5517728Y-24520848D01*
X-5517730Y-24520849D01*
X-5594300Y-24576480D01*
X-5670873Y-24632113D01*
X-5801929Y-24777666D01*
X-5852389Y-24807687D01*
X-5910978Y-24803846D01*
X-5957088Y-24767496D01*
X-5974500Y-24711422D01*
X-5974500Y-24275834D01*
X-5966964Y-24237948D01*
X-5945504Y-24205830D01*
X-5545841Y-23806167D01*
X-5493877Y-23778829D01*
X-5435569Y-23785730D01*
X-5344803Y-23826144D01*
X-5159646Y-23865500D01*
X-4970356Y-23865500D01*
X-4970354Y-23865500D01*
X-4785197Y-23826144D01*
X-4612270Y-23749151D01*
X-4459129Y-23637888D01*
X-4459126Y-23637886D01*
X-4332468Y-23497218D01*
X-4237821Y-23333284D01*
X-4236128Y-23328075D01*
X-4179326Y-23153256D01*
X-4164500Y-23012192D01*
X-4164500Y-22717808D01*
X-4179326Y-22576744D01*
X-4237821Y-22396716D01*
X-4237821Y-22396715D01*
X-4332468Y-22232781D01*
X-4459126Y-22092113D01*
X-4612271Y-21980848D01*
X-4785195Y-21903856D01*
X-4877775Y-21884177D01*
X-4970354Y-21864500D01*
X-5159646Y-21864500D01*
X-5283083Y-21890737D01*
X-5344804Y-21903856D01*
X-5507475Y-21976283D01*
X-5517730Y-21980849D01*
X-5518327Y-21981283D01*
X-5670873Y-22092113D01*
X-5797531Y-22232781D01*
X-5797532Y-22232783D01*
X-5797533Y-22232784D01*
X-5892179Y-22396716D01*
X-5950674Y-22576744D01*
X-5965500Y-22717808D01*
X-5965500Y-23012192D01*
X-5950674Y-23153256D01*
X-5935800Y-23199029D01*
X-5933690Y-23252731D01*
X-5959951Y-23299625D01*
X-6517056Y-23856730D01*
X-6523423Y-23862564D01*
X-6526922Y-23865500D01*
X-6553194Y-23887545D01*
X-6572633Y-23921215D01*
X-6577260Y-23928477D01*
X-6599554Y-23960316D01*
X-6599790Y-23961197D01*
X-6599943Y-23961768D01*
X-6609834Y-23985650D01*
X-6610588Y-23986955D01*
X-6615296Y-24013655D01*
X-6617335Y-24025220D01*
X-6619203Y-24033647D01*
X-6622421Y-24045656D01*
X-6629264Y-24071193D01*
X-6625877Y-24109904D01*
X-6625500Y-24118534D01*
X-6625500Y-24831071D01*
X-6638764Y-24880571D01*
X-6675000Y-24916808D01*
X-6724500Y-24930071D01*
X-6774000Y-24916807D01*
X-6810235Y-24880572D01*
X-6854533Y-24803846D01*
X-6872468Y-24772781D01*
X-6999126Y-24632113D01*
X-7152271Y-24520848D01*
X-7325195Y-24443856D01*
X-7417775Y-24424178D01*
X-7510354Y-24404500D01*
X-7699646Y-24404500D01*
X-7823084Y-24430737D01*
X-7884804Y-24443856D01*
X-8057728Y-24520848D01*
X-8057730Y-24520849D01*
X-8134300Y-24576480D01*
X-8210873Y-24632113D01*
X-8337531Y-24772781D01*
X-8337532Y-24772783D01*
X-8337533Y-24772784D01*
X-8380684Y-24847525D01*
X-8389763Y-24863250D01*
X-8426000Y-24899486D01*
X-8475500Y-24912750D01*
X-8525000Y-24899487D01*
X-8561237Y-24863250D01*
X-8574500Y-24813750D01*
X-8574500Y-24335834D01*
X-8566964Y-24297948D01*
X-8545504Y-24265830D01*
X-8085841Y-23806167D01*
X-8033877Y-23778829D01*
X-7975569Y-23785730D01*
X-7884803Y-23826144D01*
X-7699646Y-23865500D01*
X-7510356Y-23865500D01*
X-7510354Y-23865500D01*
X-7325197Y-23826144D01*
X-7152270Y-23749151D01*
X-6999129Y-23637888D01*
X-6999126Y-23637886D01*
X-6872468Y-23497218D01*
X-6777821Y-23333284D01*
X-6776128Y-23328075D01*
X-6719326Y-23153256D01*
X-6704500Y-23012192D01*
X-6704500Y-22717808D01*
X-6719326Y-22576744D01*
X-6777821Y-22396716D01*
X-6777821Y-22396715D01*
X-6872468Y-22232781D01*
X-6999126Y-22092113D01*
X-7152271Y-21980848D01*
X-7325195Y-21903856D01*
X-7417775Y-21884177D01*
X-7510354Y-21864500D01*
X-7699646Y-21864500D01*
X-7823083Y-21890737D01*
X-7884804Y-21903856D01*
X-8047475Y-21976283D01*
X-8057730Y-21980849D01*
X-8058327Y-21981283D01*
X-8210873Y-22092113D01*
X-8337531Y-22232781D01*
X-8337532Y-22232783D01*
X-8337533Y-22232784D01*
X-8432179Y-22396716D01*
X-8490674Y-22576744D01*
X-8505500Y-22717808D01*
X-8505500Y-23012192D01*
X-8490674Y-23153256D01*
X-8475800Y-23199029D01*
X-8473690Y-23252731D01*
X-8499951Y-23299625D01*
X-9117056Y-23916730D01*
X-9123423Y-23922564D01*
X-9129358Y-23927544D01*
X-9153194Y-23947545D01*
X-9172633Y-23981215D01*
X-9177260Y-23988477D01*
X-9199554Y-24020316D01*
X-9199942Y-24021765D01*
X-9199943Y-24021768D01*
X-9209834Y-24045650D01*
X-9210588Y-24046955D01*
X-9214862Y-24071193D01*
X-9217335Y-24085220D01*
X-9219203Y-24093647D01*
X-9223559Y-24109904D01*
X-9229264Y-24131193D01*
X-9225877Y-24169904D01*
X-9225500Y-24178534D01*
X-9225500Y-24727147D01*
X-9238763Y-24776647D01*
X-9275000Y-24812883D01*
X-9324499Y-24826147D01*
X-9373999Y-24812884D01*
X-9410236Y-24776648D01*
X-9412467Y-24772783D01*
X-9539126Y-24632113D01*
X-9692271Y-24520848D01*
X-9865195Y-24443856D01*
X-9957775Y-24424178D01*
X-10050354Y-24404500D01*
X-10239646Y-24404500D01*
X-10363084Y-24430737D01*
X-10424804Y-24443856D01*
X-10597728Y-24520848D01*
X-10597730Y-24520849D01*
X-10674300Y-24576480D01*
X-10750873Y-24632113D01*
X-10877531Y-24772781D01*
X-10877532Y-24772783D01*
X-10877533Y-24772784D01*
X-10972179Y-24936716D01*
X-11030674Y-25116744D01*
X-11045500Y-25257808D01*
X-11045500Y-25552192D01*
X-11032081Y-25679862D01*
X-11037217Y-25723252D01*
X-11060535Y-25760209D01*
X-15457056Y-30156730D01*
X-15463423Y-30162564D01*
X-15470678Y-30168652D01*
X-15493194Y-30187545D01*
X-15512633Y-30221215D01*
X-15517260Y-30228477D01*
X-15539554Y-30260316D01*
X-15539942Y-30261765D01*
X-15539943Y-30261768D01*
X-15549834Y-30285650D01*
X-15550588Y-30286955D01*
X-15550692Y-30287545D01*
X-15557335Y-30325220D01*
X-15559205Y-30333655D01*
X-15569264Y-30371193D01*
X-15565877Y-30409904D01*
X-15565500Y-30418534D01*
X-15565500Y-33470190D01*
X-15579585Y-33521086D01*
X-15617832Y-33557500D01*
X-15798536Y-33654088D01*
X-15837001Y-33685656D01*
X-15950883Y-33779117D01*
X-15989500Y-33826172D01*
X-16075911Y-33931463D01*
X-16168814Y-34105272D01*
X-16193236Y-34185781D01*
X-16226024Y-34293868D01*
X-16245341Y-34490000D01*
X-16226024Y-34686132D01*
X-16168814Y-34874727D01*
X-16075910Y-35048538D01*
X-15950883Y-35200883D01*
X-15798538Y-35325910D01*
X-15624727Y-35418814D01*
X-15436132Y-35476024D01*
X-15240000Y-35495341D01*
X-15043868Y-35476024D01*
X-14949570Y-35447419D01*
X-14855272Y-35418814D01*
X-14681462Y-35325911D01*
X-14652305Y-35301982D01*
X-14601619Y-35280255D01*
X-14547172Y-35289015D01*
X-14505859Y-35325545D01*
X-14490500Y-35378510D01*
X-14490500Y-35779166D01*
X-14498036Y-35817052D01*
X-14519496Y-35849170D01*
X-14749048Y-36078722D01*
X-14794997Y-36104751D01*
X-14847790Y-36103455D01*
X-15043869Y-36043975D01*
X-15240000Y-36024658D01*
X-15436130Y-36043975D01*
X-15624727Y-36101185D01*
X-15798536Y-36194088D01*
X-15840501Y-36228528D01*
X-15950883Y-36319117D01*
X-16056900Y-36448298D01*
X-16075911Y-36471463D01*
X-16168814Y-36645272D01*
X-16197418Y-36739570D01*
X-16226024Y-36833868D01*
X-16245341Y-37030000D01*
X-16774658Y-37030000D01*
X-16793975Y-36833869D01*
X-16851185Y-36645272D01*
X-16944088Y-36471463D01*
X-17069117Y-36319117D01*
X-17221463Y-36194088D01*
X-17395272Y-36101185D01*
X-17583869Y-36043975D01*
X-17780000Y-36024658D01*
X-17976130Y-36043975D01*
X-18172209Y-36103455D01*
X-18225002Y-36104751D01*
X-18270950Y-36078722D01*
X-18500503Y-35849171D01*
X-18521964Y-35817053D01*
X-18529500Y-35779167D01*
X-18529500Y-35589500D01*
X-18516237Y-35540000D01*
X-18480000Y-35503763D01*
X-18430500Y-35490500D01*
X-16960253Y-35490500D01*
X-16960252Y-35490500D01*
X-16901769Y-35478867D01*
X-16872291Y-35459170D01*
X-16835447Y-35434552D01*
X-16791133Y-35368231D01*
X-16779500Y-35309747D01*
X-16779500Y-33670253D01*
X-16781477Y-33660316D01*
X-16791133Y-33611769D01*
X-16791132Y-33611769D01*
X-16791133Y-33611768D01*
X-16835447Y-33545447D01*
X-16901768Y-33501133D01*
X-16932556Y-33495009D01*
X-16960252Y-33489500D01*
X-16960253Y-33489500D01*
X-17355500Y-33489500D01*
X-17405000Y-33476237D01*
X-17441237Y-33440000D01*
X-17454500Y-33390500D01*
X-17454500Y-30675834D01*
X-17446964Y-30637948D01*
X-17425504Y-30605830D01*
X-13165841Y-26346167D01*
X-13113877Y-26318829D01*
X-13055569Y-26325730D01*
X-12964803Y-26366144D01*
X-12779646Y-26405500D01*
X-12590356Y-26405500D01*
X-12590354Y-26405500D01*
X-12405197Y-26366144D01*
X-12232270Y-26289151D01*
X-12079129Y-26177888D01*
X-12079126Y-26177886D01*
X-11952468Y-26037218D01*
X-11857821Y-25873284D01*
X-11853034Y-25858551D01*
X-11799326Y-25693256D01*
X-11784500Y-25552192D01*
X-11784500Y-25257808D01*
X-11799326Y-25116744D01*
X-11857821Y-24936716D01*
X-11857821Y-24936715D01*
X-11952468Y-24772781D01*
X-12079126Y-24632113D01*
X-12232271Y-24520848D01*
X-12405195Y-24443856D01*
X-12497775Y-24424178D01*
X-12590354Y-24404500D01*
X-12779646Y-24404500D01*
X-12903084Y-24430737D01*
X-12964804Y-24443856D01*
X-13137728Y-24520848D01*
X-13137730Y-24520849D01*
X-13214300Y-24576480D01*
X-13290873Y-24632113D01*
X-13417531Y-24772781D01*
X-13417532Y-24772783D01*
X-13417533Y-24772784D01*
X-13512179Y-24936716D01*
X-13570674Y-25116744D01*
X-13585500Y-25257808D01*
X-13585500Y-25552192D01*
X-13570674Y-25693256D01*
X-13555800Y-25739029D01*
X-13553690Y-25792731D01*
X-13579951Y-25839625D01*
X-17997056Y-30256730D01*
X-18003423Y-30262564D01*
X-18033193Y-30287544D01*
X-18033194Y-30287545D01*
X-18052633Y-30321215D01*
X-18057260Y-30328477D01*
X-18079554Y-30360316D01*
X-18079942Y-30361765D01*
X-18079943Y-30361768D01*
X-18089834Y-30385650D01*
X-18090588Y-30386955D01*
X-18094634Y-30409904D01*
X-18097335Y-30425220D01*
X-18099203Y-30433647D01*
X-18109264Y-30471193D01*
X-18106234Y-30505830D01*
X-18105877Y-30509904D01*
X-18105500Y-30518534D01*
X-18105500Y-33390500D01*
X-18118763Y-33440000D01*
X-18155000Y-33476237D01*
X-18204500Y-33489500D01*
X-18430500Y-33489500D01*
X-18480000Y-33476237D01*
X-18516237Y-33440000D01*
X-18529500Y-33390500D01*
X-18529500Y-29210834D01*
X-18521964Y-29172948D01*
X-18500504Y-29140830D01*
X-13165841Y-23806167D01*
X-13113877Y-23778829D01*
X-13055569Y-23785730D01*
X-12964803Y-23826144D01*
X-12779646Y-23865500D01*
X-12590356Y-23865500D01*
X-12590354Y-23865500D01*
X-12405197Y-23826144D01*
X-12232270Y-23749151D01*
X-12079129Y-23637888D01*
X-12079126Y-23637886D01*
X-11952468Y-23497218D01*
X-11857821Y-23333284D01*
X-11856128Y-23328075D01*
X-11799326Y-23153256D01*
X-11784500Y-23012192D01*
X-11784500Y-23012161D01*
X-11045000Y-23012161D01*
X-11030181Y-23153154D01*
X-10971720Y-23333075D01*
X-10877124Y-23496922D01*
X-10750533Y-23637514D01*
X-10597479Y-23748716D01*
X-10424651Y-23825663D01*
X-10245000Y-23863850D01*
X-10045000Y-23863850D01*
X-9865350Y-23825663D01*
X-9692523Y-23748716D01*
X-9539463Y-23637512D01*
X-9412875Y-23496922D01*
X-9318279Y-23333075D01*
X-9259818Y-23153154D01*
X-9245000Y-23012161D01*
X-9245000Y-22965001D01*
X-9245001Y-22965000D01*
X-10044999Y-22965000D01*
X-10045000Y-22965001D01*
X-10045000Y-23863850D01*
X-10245000Y-23863850D01*
X-10245000Y-22965001D01*
X-10245001Y-22965000D01*
X-11044999Y-22965000D01*
X-11045000Y-22965001D01*
X-11045000Y-23012161D01*
X-11784500Y-23012161D01*
X-11784500Y-22764999D01*
X-11045000Y-22764999D01*
X-11044999Y-22765000D01*
X-10245001Y-22765000D01*
X-10245000Y-22764999D01*
X-10245000Y-21866150D01*
X-10045000Y-21866150D01*
X-10045000Y-22764999D01*
X-10044999Y-22765000D01*
X-9245001Y-22765000D01*
X-9245000Y-22764999D01*
X-9245000Y-22717839D01*
X-9259818Y-22576845D01*
X-9318279Y-22396924D01*
X-9412875Y-22233077D01*
X-9539466Y-22092485D01*
X-9692520Y-21981283D01*
X-9865348Y-21904336D01*
X-10045000Y-21866150D01*
X-10245000Y-21866150D01*
X-10424649Y-21904336D01*
X-10597476Y-21981283D01*
X-10750536Y-22092487D01*
X-10877124Y-22233077D01*
X-10971720Y-22396924D01*
X-11030181Y-22576845D01*
X-11045000Y-22717839D01*
X-11045000Y-22764999D01*
X-11784500Y-22764999D01*
X-11784500Y-22717808D01*
X-11799326Y-22576744D01*
X-11857821Y-22396716D01*
X-11857821Y-22396715D01*
X-11952468Y-22232781D01*
X-12079126Y-22092113D01*
X-12232271Y-21980848D01*
X-12405195Y-21903856D01*
X-12497775Y-21884177D01*
X-12590354Y-21864500D01*
X-12779646Y-21864500D01*
X-12903083Y-21890737D01*
X-12964804Y-21903856D01*
X-13127475Y-21976283D01*
X-13137730Y-21980849D01*
X-13138327Y-21981283D01*
X-13290873Y-22092113D01*
X-13417531Y-22232781D01*
X-13417532Y-22232783D01*
X-13417533Y-22232784D01*
X-13512179Y-22396716D01*
X-13570674Y-22576744D01*
X-13585500Y-22717808D01*
X-13585500Y-23012192D01*
X-13570674Y-23153256D01*
X-13555800Y-23199029D01*
X-13553690Y-23252731D01*
X-13579951Y-23299625D01*
X-19072056Y-28791730D01*
X-19078423Y-28797564D01*
X-19108193Y-28822544D01*
X-19108194Y-28822545D01*
X-19127633Y-28856215D01*
X-19132260Y-28863477D01*
X-19154554Y-28895316D01*
X-19154942Y-28896765D01*
X-19154943Y-28896768D01*
X-19164834Y-28920650D01*
X-19165588Y-28921955D01*
X-19168858Y-28940500D01*
X-19172335Y-28960220D01*
X-19174205Y-28968655D01*
X-19184264Y-29006193D01*
X-19180877Y-29044904D01*
X-19180500Y-29053534D01*
X-19180500Y-35936466D01*
X-19180877Y-35945092D01*
X-19184264Y-35983807D01*
X-19924500Y-35983807D01*
X-19924500Y-17099000D01*
X-19911237Y-17049500D01*
X-19875000Y-17013263D01*
X-19825500Y-17000000D01*
X-11000001Y-17000000D01*
X-11000000Y-17000000D01*
X-11000000Y-8174500D01*
X-10986737Y-8125000D01*
X-10950500Y-8088763D01*
X-10901000Y-8075500D01*
X10901000Y-8075500D01*
X10950500Y-8088763D01*
G37*
G04 #@! TD.AperFunction*
G04 #@! TD*
M02*
