G04 #@! TF.GenerationSoftware,KiCad,Pcbnew,7.0.1*
G04 #@! TF.CreationDate,2023-03-15T08:41:10+09:00*
G04 #@! TF.ProjectId,Pmod_HUB75,506d6f64-5f48-4554-9237-352e6b696361,rev?*
G04 #@! TF.SameCoordinates,Original*
G04 #@! TF.FileFunction,Soldermask,Top*
G04 #@! TF.FilePolarity,Negative*
%FSLAX46Y46*%
G04 Gerber Fmt 4.6, Leading zero omitted, Abs format (unit mm)*
G04 Created by KiCad (PCBNEW 7.0.1) date 2023-03-15 08:41:10*
%MOMM*%
%LPD*%
G01*
G04 APERTURE LIST*
%ADD10C,3.250000*%
%ADD11C,3.200000*%
%ADD12R,1.600000X1.600000*%
%ADD13O,1.600000X1.600000*%
%ADD14O,1.400000X1.600000*%
G04 APERTURE END LIST*
G04 #@! TO.C,H1*
D10*
X-13375000Y-13000000D02*
G75*
G03*
X-13375000Y-13000000I-1625000J0D01*
G01*
G04 #@! TO.C,H2*
X16625000Y-13000000D02*
G75*
G03*
X16625000Y-13000000I-1625000J0D01*
G01*
G04 #@! TD*
D11*
G04 #@! TO.C,H1*
X-15000000Y-13000000D03*
G04 #@! TD*
G04 #@! TO.C,H2*
X15000000Y-13000000D03*
G04 #@! TD*
D12*
G04 #@! TO.C,J1*
X5080000Y-34490000D03*
D13*
X7620000Y-34490000D03*
X10160000Y-34490000D03*
X12700000Y-34490000D03*
X15240000Y-34490000D03*
X17780000Y-34490000D03*
X5080000Y-37030000D03*
X7620000Y-37030000D03*
X10160000Y-37030000D03*
X12700000Y-37030000D03*
X15240000Y-37030000D03*
X17780000Y-37030000D03*
G04 #@! TD*
D14*
G04 #@! TO.C,J5*
X15240000Y-22860000D03*
X17780000Y-22860000D03*
G04 #@! TD*
G04 #@! TO.C,J3*
X-12685000Y-25405000D03*
X-12685000Y-22865000D03*
X-10145000Y-25405000D03*
X-10145000Y-22865000D03*
X-7605000Y-25405000D03*
X-7605000Y-22865000D03*
X-5065000Y-25405000D03*
X-5065000Y-22865000D03*
X-2525000Y-25405000D03*
X-2525000Y-22865000D03*
X15000Y-25405000D03*
X15000Y-22865000D03*
X2555000Y-25405000D03*
X2555000Y-22865000D03*
X5095000Y-25405000D03*
X5095000Y-22865000D03*
G04 #@! TD*
D12*
G04 #@! TO.C,J2*
X-17780000Y-34490000D03*
D13*
X-15240000Y-34490000D03*
X-12700000Y-34490000D03*
X-10160000Y-34490000D03*
X-7620000Y-34490000D03*
X-5080000Y-34490000D03*
X-17780000Y-37030000D03*
X-15240000Y-37030000D03*
X-12700000Y-37030000D03*
X-10160000Y-37030000D03*
X-7620000Y-37030000D03*
X-5080000Y-37030000D03*
G04 #@! TD*
D14*
G04 #@! TO.C,J4*
X15240000Y-27940000D03*
X17780000Y-27940000D03*
G04 #@! TD*
M02*
