M48
; DRILL file {KiCad 7.0.1} date Wed Mar 15 08:41:15 2023
; FORMAT={3:3/ absolute / metric / suppress leading zeros}
; #@! TF.CreationDate,2023-03-15T08:41:15+09:00
; #@! TF.GenerationSoftware,Kicad,Pcbnew,7.0.1
; #@! TF.FileFunction,Plated,1,2,PTH
FMAT,2
METRIC,TZ
; #@! TA.AperFunction,Plated,PTH,ViaDrill
T1C0.400
; #@! TA.AperFunction,Plated,PTH,ComponentDrill
T2C0.800
%
G90
G05
T1
X-18800Y-21600
X-18800Y-27600
X-18100Y-29700
X-17000Y-30800
X-15100Y-20600
X-14000Y-25600
X-13900Y-30200
X-13500Y-32600
X-13200Y-27000
X-11600Y-31500
X-10900Y-33100
X-10600Y-26800
X-8800Y-20400
X-7100Y-26900
X-5800Y-27700
X-4600Y-28600
X-3600Y-20400
X-3300Y-29600
X-1700Y-29700
X-400Y-28700
X1000Y-27300
X3400Y-27300
X3900Y-20400
X4000Y-35900
X4500Y-33000
X5300Y-26900
X6600Y-32800
X7500Y-31400
X8100Y-21400
X8400Y-25600
X10500Y-32600
X11500Y-29000
T2
X-17780Y-34490
X-17780Y-37030
X-15240Y-34490
X-15240Y-37030
X-12700Y-34490
X-12700Y-37030
X-12685Y-22865
X-12685Y-25405
X-10160Y-34490
X-10160Y-37030
X-10145Y-22865
X-10145Y-25405
X-7620Y-34490
X-7620Y-37030
X-7605Y-22865
X-7605Y-25405
X-5080Y-34490
X-5080Y-37030
X-5065Y-22865
X-5065Y-25405
X-2525Y-22865
X-2525Y-25405
X15Y-22865
X15Y-25405
X2555Y-22865
X2555Y-25405
X5080Y-34490
X5080Y-37030
X5095Y-22865
X5095Y-25405
X7620Y-34490
X7620Y-37030
X10160Y-34490
X10160Y-37030
X12700Y-34490
X12700Y-37030
X15240Y-22860
X15240Y-27940
X15240Y-34490
X15240Y-37030
X17780Y-22860
X17780Y-27940
X17780Y-34490
X17780Y-37030
T0
M30
