M48
; DRILL file {KiCad 7.0.1} date Tue Mar 21 03:43:14 2023
; FORMAT={3:3/ absolute / metric / suppress leading zeros}
; #@! TF.CreationDate,2023-03-21T03:43:14+09:00
; #@! TF.GenerationSoftware,Kicad,Pcbnew,7.0.1
; #@! TF.FileFunction,Plated,1,2,PTH
FMAT,2
METRIC,TZ
; #@! TA.AperFunction,Plated,PTH,ViaDrill
T1C0.400
; #@! TA.AperFunction,Plated,PTH,ComponentDrill
T2C0.800
; #@! TA.AperFunction,Plated,PTH,ComponentDrill
T3C0.900
%
G90
G05
T1
X3048Y-36322
X3556Y-16891
X6731Y-22860
X6731Y-25527
X7239Y-29845
X7239Y-31242
X7620Y-26670
X7623Y-21587
X10287Y-32512
X12065Y-30480
X12065Y-31496
X12105Y-26670
X15240Y-30480
X15748Y-22479
X15748Y-25273
X16129Y-29718
X16510Y-20955
X16510Y-27305
X16891Y-31496
X19685Y-18161
X19812Y-34036
T2
X5080Y-16510
X5080Y-19050
X5080Y-34490
X5080Y-37030
X7620Y-16510
X7620Y-19050
X7620Y-34490
X7620Y-37030
X10160Y-16510
X10160Y-19050
X10160Y-34490
X10160Y-37030
X12700Y-16510
X12700Y-19050
X12700Y-34490
X12700Y-37030
X15240Y-16510
X15240Y-19050
X15240Y-34490
X15240Y-37030
X17780Y-16510
X17780Y-19050
X17780Y-34490
X17780Y-37030
T3
X4763Y-21585
X4763Y-24125
X4763Y-27935
X4763Y-30475
X9207Y-21585
X9207Y-24125
X9207Y-27935
X9207Y-30475
X13653Y-21585
X13653Y-24125
X13653Y-27935
X13653Y-30475
X18098Y-21585
X18098Y-24125
X18098Y-27935
X18098Y-30475
T0
M30
