G04 #@! TF.GenerationSoftware,KiCad,Pcbnew,7.0.1*
G04 #@! TF.CreationDate,2023-03-21T03:43:12+09:00*
G04 #@! TF.ProjectId,Pmod_LED,506d6f64-5f4c-4454-942e-6b696361645f,rev?*
G04 #@! TF.SameCoordinates,Original*
G04 #@! TF.FileFunction,Legend,Bot*
G04 #@! TF.FilePolarity,Positive*
%FSLAX46Y46*%
G04 Gerber Fmt 4.6, Leading zero omitted, Abs format (unit mm)*
G04 Created by KiCad (PCBNEW 7.0.1) date 2023-03-21 03:43:12*
%MOMM*%
%LPD*%
G01*
G04 APERTURE LIST*
%ADD10C,0.150000*%
%ADD11C,0.010000*%
G04 APERTURE END LIST*
D10*
X18861904Y-9092619D02*
X18861904Y-8092619D01*
X18861904Y-8092619D02*
X18480952Y-8092619D01*
X18480952Y-8092619D02*
X18385714Y-8140238D01*
X18385714Y-8140238D02*
X18338095Y-8187857D01*
X18338095Y-8187857D02*
X18290476Y-8283095D01*
X18290476Y-8283095D02*
X18290476Y-8425952D01*
X18290476Y-8425952D02*
X18338095Y-8521190D01*
X18338095Y-8521190D02*
X18385714Y-8568809D01*
X18385714Y-8568809D02*
X18480952Y-8616428D01*
X18480952Y-8616428D02*
X18861904Y-8616428D01*
X17861904Y-9092619D02*
X17861904Y-8425952D01*
X17861904Y-8521190D02*
X17814285Y-8473571D01*
X17814285Y-8473571D02*
X17719047Y-8425952D01*
X17719047Y-8425952D02*
X17576190Y-8425952D01*
X17576190Y-8425952D02*
X17480952Y-8473571D01*
X17480952Y-8473571D02*
X17433333Y-8568809D01*
X17433333Y-8568809D02*
X17433333Y-9092619D01*
X17433333Y-8568809D02*
X17385714Y-8473571D01*
X17385714Y-8473571D02*
X17290476Y-8425952D01*
X17290476Y-8425952D02*
X17147619Y-8425952D01*
X17147619Y-8425952D02*
X17052380Y-8473571D01*
X17052380Y-8473571D02*
X17004761Y-8568809D01*
X17004761Y-8568809D02*
X17004761Y-9092619D01*
X16385714Y-9092619D02*
X16480952Y-9045000D01*
X16480952Y-9045000D02*
X16528571Y-8997380D01*
X16528571Y-8997380D02*
X16576190Y-8902142D01*
X16576190Y-8902142D02*
X16576190Y-8616428D01*
X16576190Y-8616428D02*
X16528571Y-8521190D01*
X16528571Y-8521190D02*
X16480952Y-8473571D01*
X16480952Y-8473571D02*
X16385714Y-8425952D01*
X16385714Y-8425952D02*
X16242857Y-8425952D01*
X16242857Y-8425952D02*
X16147619Y-8473571D01*
X16147619Y-8473571D02*
X16100000Y-8521190D01*
X16100000Y-8521190D02*
X16052381Y-8616428D01*
X16052381Y-8616428D02*
X16052381Y-8902142D01*
X16052381Y-8902142D02*
X16100000Y-8997380D01*
X16100000Y-8997380D02*
X16147619Y-9045000D01*
X16147619Y-9045000D02*
X16242857Y-9092619D01*
X16242857Y-9092619D02*
X16385714Y-9092619D01*
X15195238Y-9092619D02*
X15195238Y-8092619D01*
X15195238Y-9045000D02*
X15290476Y-9092619D01*
X15290476Y-9092619D02*
X15480952Y-9092619D01*
X15480952Y-9092619D02*
X15576190Y-9045000D01*
X15576190Y-9045000D02*
X15623809Y-8997380D01*
X15623809Y-8997380D02*
X15671428Y-8902142D01*
X15671428Y-8902142D02*
X15671428Y-8616428D01*
X15671428Y-8616428D02*
X15623809Y-8521190D01*
X15623809Y-8521190D02*
X15576190Y-8473571D01*
X15576190Y-8473571D02*
X15480952Y-8425952D01*
X15480952Y-8425952D02*
X15290476Y-8425952D01*
X15290476Y-8425952D02*
X15195238Y-8473571D01*
X13480952Y-9092619D02*
X13957142Y-9092619D01*
X13957142Y-9092619D02*
X13957142Y-8092619D01*
X13147618Y-8568809D02*
X12814285Y-8568809D01*
X12671428Y-9092619D02*
X13147618Y-9092619D01*
X13147618Y-9092619D02*
X13147618Y-8092619D01*
X13147618Y-8092619D02*
X12671428Y-8092619D01*
X12242856Y-9092619D02*
X12242856Y-8092619D01*
X12242856Y-8092619D02*
X12004761Y-8092619D01*
X12004761Y-8092619D02*
X11861904Y-8140238D01*
X11861904Y-8140238D02*
X11766666Y-8235476D01*
X11766666Y-8235476D02*
X11719047Y-8330714D01*
X11719047Y-8330714D02*
X11671428Y-8521190D01*
X11671428Y-8521190D02*
X11671428Y-8664047D01*
X11671428Y-8664047D02*
X11719047Y-8854523D01*
X11719047Y-8854523D02*
X11766666Y-8949761D01*
X11766666Y-8949761D02*
X11861904Y-9045000D01*
X11861904Y-9045000D02*
X12004761Y-9092619D01*
X12004761Y-9092619D02*
X12242856Y-9092619D01*
X18290476Y-10712619D02*
X18623809Y-10236428D01*
X18861904Y-10712619D02*
X18861904Y-9712619D01*
X18861904Y-9712619D02*
X18480952Y-9712619D01*
X18480952Y-9712619D02*
X18385714Y-9760238D01*
X18385714Y-9760238D02*
X18338095Y-9807857D01*
X18338095Y-9807857D02*
X18290476Y-9903095D01*
X18290476Y-9903095D02*
X18290476Y-10045952D01*
X18290476Y-10045952D02*
X18338095Y-10141190D01*
X18338095Y-10141190D02*
X18385714Y-10188809D01*
X18385714Y-10188809D02*
X18480952Y-10236428D01*
X18480952Y-10236428D02*
X18861904Y-10236428D01*
X17480952Y-10665000D02*
X17576190Y-10712619D01*
X17576190Y-10712619D02*
X17766666Y-10712619D01*
X17766666Y-10712619D02*
X17861904Y-10665000D01*
X17861904Y-10665000D02*
X17909523Y-10569761D01*
X17909523Y-10569761D02*
X17909523Y-10188809D01*
X17909523Y-10188809D02*
X17861904Y-10093571D01*
X17861904Y-10093571D02*
X17766666Y-10045952D01*
X17766666Y-10045952D02*
X17576190Y-10045952D01*
X17576190Y-10045952D02*
X17480952Y-10093571D01*
X17480952Y-10093571D02*
X17433333Y-10188809D01*
X17433333Y-10188809D02*
X17433333Y-10284047D01*
X17433333Y-10284047D02*
X17909523Y-10379285D01*
X17099999Y-10045952D02*
X16861904Y-10712619D01*
X16861904Y-10712619D02*
X16623809Y-10045952D01*
X16242856Y-10617380D02*
X16195237Y-10665000D01*
X16195237Y-10665000D02*
X16242856Y-10712619D01*
X16242856Y-10712619D02*
X16290475Y-10665000D01*
X16290475Y-10665000D02*
X16242856Y-10617380D01*
X16242856Y-10617380D02*
X16242856Y-10712619D01*
X15814285Y-10426904D02*
X15338095Y-10426904D01*
X15909523Y-10712619D02*
X15576190Y-9712619D01*
X15576190Y-9712619D02*
X15242857Y-10712619D01*
X18909523Y-11427857D02*
X18861904Y-11380238D01*
X18861904Y-11380238D02*
X18766666Y-11332619D01*
X18766666Y-11332619D02*
X18528571Y-11332619D01*
X18528571Y-11332619D02*
X18433333Y-11380238D01*
X18433333Y-11380238D02*
X18385714Y-11427857D01*
X18385714Y-11427857D02*
X18338095Y-11523095D01*
X18338095Y-11523095D02*
X18338095Y-11618333D01*
X18338095Y-11618333D02*
X18385714Y-11761190D01*
X18385714Y-11761190D02*
X18957142Y-12332619D01*
X18957142Y-12332619D02*
X18338095Y-12332619D01*
X17719047Y-11332619D02*
X17623809Y-11332619D01*
X17623809Y-11332619D02*
X17528571Y-11380238D01*
X17528571Y-11380238D02*
X17480952Y-11427857D01*
X17480952Y-11427857D02*
X17433333Y-11523095D01*
X17433333Y-11523095D02*
X17385714Y-11713571D01*
X17385714Y-11713571D02*
X17385714Y-11951666D01*
X17385714Y-11951666D02*
X17433333Y-12142142D01*
X17433333Y-12142142D02*
X17480952Y-12237380D01*
X17480952Y-12237380D02*
X17528571Y-12285000D01*
X17528571Y-12285000D02*
X17623809Y-12332619D01*
X17623809Y-12332619D02*
X17719047Y-12332619D01*
X17719047Y-12332619D02*
X17814285Y-12285000D01*
X17814285Y-12285000D02*
X17861904Y-12237380D01*
X17861904Y-12237380D02*
X17909523Y-12142142D01*
X17909523Y-12142142D02*
X17957142Y-11951666D01*
X17957142Y-11951666D02*
X17957142Y-11713571D01*
X17957142Y-11713571D02*
X17909523Y-11523095D01*
X17909523Y-11523095D02*
X17861904Y-11427857D01*
X17861904Y-11427857D02*
X17814285Y-11380238D01*
X17814285Y-11380238D02*
X17719047Y-11332619D01*
X17004761Y-11427857D02*
X16957142Y-11380238D01*
X16957142Y-11380238D02*
X16861904Y-11332619D01*
X16861904Y-11332619D02*
X16623809Y-11332619D01*
X16623809Y-11332619D02*
X16528571Y-11380238D01*
X16528571Y-11380238D02*
X16480952Y-11427857D01*
X16480952Y-11427857D02*
X16433333Y-11523095D01*
X16433333Y-11523095D02*
X16433333Y-11618333D01*
X16433333Y-11618333D02*
X16480952Y-11761190D01*
X16480952Y-11761190D02*
X17052380Y-12332619D01*
X17052380Y-12332619D02*
X16433333Y-12332619D01*
X16099999Y-11332619D02*
X15480952Y-11332619D01*
X15480952Y-11332619D02*
X15814285Y-11713571D01*
X15814285Y-11713571D02*
X15671428Y-11713571D01*
X15671428Y-11713571D02*
X15576190Y-11761190D01*
X15576190Y-11761190D02*
X15528571Y-11808809D01*
X15528571Y-11808809D02*
X15480952Y-11904047D01*
X15480952Y-11904047D02*
X15480952Y-12142142D01*
X15480952Y-12142142D02*
X15528571Y-12237380D01*
X15528571Y-12237380D02*
X15576190Y-12285000D01*
X15576190Y-12285000D02*
X15671428Y-12332619D01*
X15671428Y-12332619D02*
X15957142Y-12332619D01*
X15957142Y-12332619D02*
X16052380Y-12285000D01*
X16052380Y-12285000D02*
X16099999Y-12237380D01*
X15052380Y-11951666D02*
X14290476Y-11951666D01*
X13623809Y-11332619D02*
X13528571Y-11332619D01*
X13528571Y-11332619D02*
X13433333Y-11380238D01*
X13433333Y-11380238D02*
X13385714Y-11427857D01*
X13385714Y-11427857D02*
X13338095Y-11523095D01*
X13338095Y-11523095D02*
X13290476Y-11713571D01*
X13290476Y-11713571D02*
X13290476Y-11951666D01*
X13290476Y-11951666D02*
X13338095Y-12142142D01*
X13338095Y-12142142D02*
X13385714Y-12237380D01*
X13385714Y-12237380D02*
X13433333Y-12285000D01*
X13433333Y-12285000D02*
X13528571Y-12332619D01*
X13528571Y-12332619D02*
X13623809Y-12332619D01*
X13623809Y-12332619D02*
X13719047Y-12285000D01*
X13719047Y-12285000D02*
X13766666Y-12237380D01*
X13766666Y-12237380D02*
X13814285Y-12142142D01*
X13814285Y-12142142D02*
X13861904Y-11951666D01*
X13861904Y-11951666D02*
X13861904Y-11713571D01*
X13861904Y-11713571D02*
X13814285Y-11523095D01*
X13814285Y-11523095D02*
X13766666Y-11427857D01*
X13766666Y-11427857D02*
X13719047Y-11380238D01*
X13719047Y-11380238D02*
X13623809Y-11332619D01*
X12957142Y-11332619D02*
X12338095Y-11332619D01*
X12338095Y-11332619D02*
X12671428Y-11713571D01*
X12671428Y-11713571D02*
X12528571Y-11713571D01*
X12528571Y-11713571D02*
X12433333Y-11761190D01*
X12433333Y-11761190D02*
X12385714Y-11808809D01*
X12385714Y-11808809D02*
X12338095Y-11904047D01*
X12338095Y-11904047D02*
X12338095Y-12142142D01*
X12338095Y-12142142D02*
X12385714Y-12237380D01*
X12385714Y-12237380D02*
X12433333Y-12285000D01*
X12433333Y-12285000D02*
X12528571Y-12332619D01*
X12528571Y-12332619D02*
X12814285Y-12332619D01*
X12814285Y-12332619D02*
X12909523Y-12285000D01*
X12909523Y-12285000D02*
X12957142Y-12237380D01*
X11909523Y-11951666D02*
X11147619Y-11951666D01*
X10719047Y-11427857D02*
X10671428Y-11380238D01*
X10671428Y-11380238D02*
X10576190Y-11332619D01*
X10576190Y-11332619D02*
X10338095Y-11332619D01*
X10338095Y-11332619D02*
X10242857Y-11380238D01*
X10242857Y-11380238D02*
X10195238Y-11427857D01*
X10195238Y-11427857D02*
X10147619Y-11523095D01*
X10147619Y-11523095D02*
X10147619Y-11618333D01*
X10147619Y-11618333D02*
X10195238Y-11761190D01*
X10195238Y-11761190D02*
X10766666Y-12332619D01*
X10766666Y-12332619D02*
X10147619Y-12332619D01*
X9195238Y-12332619D02*
X9766666Y-12332619D01*
X9480952Y-12332619D02*
X9480952Y-11332619D01*
X9480952Y-11332619D02*
X9576190Y-11475476D01*
X9576190Y-11475476D02*
X9671428Y-11570714D01*
X9671428Y-11570714D02*
X9766666Y-11618333D01*
X18242857Y-13476428D02*
X18290476Y-13428809D01*
X18290476Y-13428809D02*
X18385714Y-13381190D01*
X18385714Y-13381190D02*
X18480952Y-13381190D01*
X18480952Y-13381190D02*
X18576190Y-13428809D01*
X18576190Y-13428809D02*
X18623809Y-13476428D01*
X18623809Y-13476428D02*
X18671428Y-13571666D01*
X18671428Y-13571666D02*
X18671428Y-13666904D01*
X18671428Y-13666904D02*
X18623809Y-13762142D01*
X18623809Y-13762142D02*
X18576190Y-13809761D01*
X18576190Y-13809761D02*
X18480952Y-13857380D01*
X18480952Y-13857380D02*
X18385714Y-13857380D01*
X18385714Y-13857380D02*
X18290476Y-13809761D01*
X18290476Y-13809761D02*
X18242857Y-13762142D01*
X18242857Y-13381190D02*
X18242857Y-13762142D01*
X18242857Y-13762142D02*
X18195238Y-13809761D01*
X18195238Y-13809761D02*
X18147619Y-13809761D01*
X18147619Y-13809761D02*
X18052380Y-13762142D01*
X18052380Y-13762142D02*
X18004761Y-13666904D01*
X18004761Y-13666904D02*
X18004761Y-13428809D01*
X18004761Y-13428809D02*
X18100000Y-13285952D01*
X18100000Y-13285952D02*
X18242857Y-13190714D01*
X18242857Y-13190714D02*
X18433333Y-13143095D01*
X18433333Y-13143095D02*
X18623809Y-13190714D01*
X18623809Y-13190714D02*
X18766666Y-13285952D01*
X18766666Y-13285952D02*
X18861904Y-13428809D01*
X18861904Y-13428809D02*
X18909523Y-13619285D01*
X18909523Y-13619285D02*
X18861904Y-13809761D01*
X18861904Y-13809761D02*
X18766666Y-13952619D01*
X18766666Y-13952619D02*
X18623809Y-14047857D01*
X18623809Y-14047857D02*
X18433333Y-14095476D01*
X18433333Y-14095476D02*
X18242857Y-14047857D01*
X18242857Y-14047857D02*
X18100000Y-13952619D01*
X17147619Y-13905000D02*
X17242857Y-13952619D01*
X17242857Y-13952619D02*
X17433333Y-13952619D01*
X17433333Y-13952619D02*
X17528571Y-13905000D01*
X17528571Y-13905000D02*
X17576190Y-13857380D01*
X17576190Y-13857380D02*
X17623809Y-13762142D01*
X17623809Y-13762142D02*
X17623809Y-13476428D01*
X17623809Y-13476428D02*
X17576190Y-13381190D01*
X17576190Y-13381190D02*
X17528571Y-13333571D01*
X17528571Y-13333571D02*
X17433333Y-13285952D01*
X17433333Y-13285952D02*
X17242857Y-13285952D01*
X17242857Y-13285952D02*
X17147619Y-13333571D01*
X16719047Y-13952619D02*
X16719047Y-13285952D01*
X16719047Y-12952619D02*
X16766666Y-13000238D01*
X16766666Y-13000238D02*
X16719047Y-13047857D01*
X16719047Y-13047857D02*
X16671428Y-13000238D01*
X16671428Y-13000238D02*
X16719047Y-12952619D01*
X16719047Y-12952619D02*
X16719047Y-13047857D01*
X16242857Y-13285952D02*
X16242857Y-13952619D01*
X16242857Y-13381190D02*
X16195238Y-13333571D01*
X16195238Y-13333571D02*
X16100000Y-13285952D01*
X16100000Y-13285952D02*
X15957143Y-13285952D01*
X15957143Y-13285952D02*
X15861905Y-13333571D01*
X15861905Y-13333571D02*
X15814286Y-13428809D01*
X15814286Y-13428809D02*
X15814286Y-13952619D01*
X15338095Y-13952619D02*
X15338095Y-13285952D01*
X15338095Y-12952619D02*
X15385714Y-13000238D01*
X15385714Y-13000238D02*
X15338095Y-13047857D01*
X15338095Y-13047857D02*
X15290476Y-13000238D01*
X15290476Y-13000238D02*
X15338095Y-12952619D01*
X15338095Y-12952619D02*
X15338095Y-13047857D01*
X14861905Y-13952619D02*
X14861905Y-13285952D01*
X14861905Y-13381190D02*
X14814286Y-13333571D01*
X14814286Y-13333571D02*
X14719048Y-13285952D01*
X14719048Y-13285952D02*
X14576191Y-13285952D01*
X14576191Y-13285952D02*
X14480953Y-13333571D01*
X14480953Y-13333571D02*
X14433334Y-13428809D01*
X14433334Y-13428809D02*
X14433334Y-13952619D01*
X14433334Y-13428809D02*
X14385715Y-13333571D01*
X14385715Y-13333571D02*
X14290477Y-13285952D01*
X14290477Y-13285952D02*
X14147620Y-13285952D01*
X14147620Y-13285952D02*
X14052381Y-13333571D01*
X14052381Y-13333571D02*
X14004762Y-13428809D01*
X14004762Y-13428809D02*
X14004762Y-13952619D01*
X13385715Y-13952619D02*
X13480953Y-13905000D01*
X13480953Y-13905000D02*
X13528572Y-13809761D01*
X13528572Y-13809761D02*
X13528572Y-12952619D01*
G04 #@! TO.C,LOGO1*
D11*
X3859841Y-11272537D02*
X3937612Y-11328176D01*
X3982931Y-11371515D01*
X4016216Y-11433551D01*
X4024444Y-11521925D01*
X4015175Y-11609721D01*
X3965951Y-11716972D01*
X3905464Y-11771088D01*
X3815103Y-11791334D01*
X3768002Y-11787335D01*
X3682839Y-11746684D01*
X3632055Y-11661733D01*
X3615222Y-11531927D01*
X3615235Y-11525353D01*
X3621342Y-11435002D01*
X3644738Y-11375521D01*
X3694407Y-11323223D01*
X3733466Y-11291852D01*
X3798185Y-11260560D01*
X3859841Y-11272537D01*
G36*
X3859841Y-11272537D02*
G01*
X3937612Y-11328176D01*
X3982931Y-11371515D01*
X4016216Y-11433551D01*
X4024444Y-11521925D01*
X4015175Y-11609721D01*
X3965951Y-11716972D01*
X3905464Y-11771088D01*
X3815103Y-11791334D01*
X3768002Y-11787335D01*
X3682839Y-11746684D01*
X3632055Y-11661733D01*
X3615222Y-11531927D01*
X3615235Y-11525353D01*
X3621342Y-11435002D01*
X3644738Y-11375521D01*
X3694407Y-11323223D01*
X3733466Y-11291852D01*
X3798185Y-11260560D01*
X3859841Y-11272537D01*
G37*
X3297960Y-11124318D02*
X3389872Y-11199113D01*
X3405827Y-11216709D01*
X3446958Y-11286850D01*
X3444982Y-11357724D01*
X3397671Y-11437949D01*
X3302798Y-11536145D01*
X3252165Y-11581382D01*
X3190198Y-11626674D01*
X3139587Y-11643104D01*
X3083602Y-11638483D01*
X3010413Y-11624971D01*
X2959055Y-11616825D01*
X2940240Y-11596614D01*
X2927766Y-11529347D01*
X2923778Y-11410632D01*
X2923778Y-11208672D01*
X3048856Y-11146205D01*
X3099286Y-11123428D01*
X3205770Y-11099814D01*
X3297960Y-11124318D01*
G36*
X3297960Y-11124318D02*
G01*
X3389872Y-11199113D01*
X3405827Y-11216709D01*
X3446958Y-11286850D01*
X3444982Y-11357724D01*
X3397671Y-11437949D01*
X3302798Y-11536145D01*
X3252165Y-11581382D01*
X3190198Y-11626674D01*
X3139587Y-11643104D01*
X3083602Y-11638483D01*
X3010413Y-11624971D01*
X2959055Y-11616825D01*
X2940240Y-11596614D01*
X2927766Y-11529347D01*
X2923778Y-11410632D01*
X2923778Y-11208672D01*
X3048856Y-11146205D01*
X3099286Y-11123428D01*
X3205770Y-11099814D01*
X3297960Y-11124318D01*
G37*
X8942438Y-10144694D02*
X9017612Y-10199287D01*
X9026228Y-10206562D01*
X9063910Y-10241834D01*
X9087001Y-10278454D01*
X9099073Y-10330198D01*
X9103697Y-10410838D01*
X9104444Y-10534147D01*
X9104331Y-10574069D01*
X9101259Y-10691630D01*
X9092145Y-10770761D01*
X9074530Y-10825605D01*
X9045951Y-10870305D01*
X9010850Y-10904945D01*
X8923103Y-10943052D01*
X8829438Y-10936831D01*
X8748985Y-10885316D01*
X8722756Y-10845983D01*
X8704341Y-10786324D01*
X8692719Y-10695355D01*
X8685434Y-10560524D01*
X8675646Y-10295084D01*
X8766030Y-10210653D01*
X8821762Y-10162561D01*
X8883435Y-10132168D01*
X8942438Y-10144694D01*
G36*
X8942438Y-10144694D02*
G01*
X9017612Y-10199287D01*
X9026228Y-10206562D01*
X9063910Y-10241834D01*
X9087001Y-10278454D01*
X9099073Y-10330198D01*
X9103697Y-10410838D01*
X9104444Y-10534147D01*
X9104331Y-10574069D01*
X9101259Y-10691630D01*
X9092145Y-10770761D01*
X9074530Y-10825605D01*
X9045951Y-10870305D01*
X9010850Y-10904945D01*
X8923103Y-10943052D01*
X8829438Y-10936831D01*
X8748985Y-10885316D01*
X8722756Y-10845983D01*
X8704341Y-10786324D01*
X8692719Y-10695355D01*
X8685434Y-10560524D01*
X8675646Y-10295084D01*
X8766030Y-10210653D01*
X8821762Y-10162561D01*
X8883435Y-10132168D01*
X8942438Y-10144694D01*
G37*
X8323349Y-7856260D02*
X8392381Y-7891558D01*
X8463148Y-7949608D01*
X8517976Y-8013727D01*
X8540000Y-8067474D01*
X8524508Y-8120111D01*
X8485305Y-8184366D01*
X8444002Y-8251100D01*
X8410240Y-8336339D01*
X8398229Y-8364633D01*
X8351105Y-8436787D01*
X8279064Y-8527401D01*
X8192054Y-8623389D01*
X8156184Y-8660188D01*
X8069240Y-8744594D01*
X8005189Y-8795815D01*
X7953741Y-8821175D01*
X7904604Y-8828000D01*
X7887765Y-8827440D01*
X7795162Y-8796272D01*
X7732754Y-8717485D01*
X7700657Y-8591215D01*
X7697118Y-8556204D01*
X7697559Y-8498588D01*
X7714966Y-8449528D01*
X7756918Y-8392799D01*
X7830995Y-8312176D01*
X7839127Y-8303491D01*
X7908170Y-8222102D01*
X7957022Y-8151040D01*
X7975555Y-8104831D01*
X7992390Y-8036829D01*
X8051213Y-7956708D01*
X8136828Y-7892153D01*
X8232964Y-7854793D01*
X8323349Y-7856260D01*
G36*
X8323349Y-7856260D02*
G01*
X8392381Y-7891558D01*
X8463148Y-7949608D01*
X8517976Y-8013727D01*
X8540000Y-8067474D01*
X8524508Y-8120111D01*
X8485305Y-8184366D01*
X8444002Y-8251100D01*
X8410240Y-8336339D01*
X8398229Y-8364633D01*
X8351105Y-8436787D01*
X8279064Y-8527401D01*
X8192054Y-8623389D01*
X8156184Y-8660188D01*
X8069240Y-8744594D01*
X8005189Y-8795815D01*
X7953741Y-8821175D01*
X7904604Y-8828000D01*
X7887765Y-8827440D01*
X7795162Y-8796272D01*
X7732754Y-8717485D01*
X7700657Y-8591215D01*
X7697118Y-8556204D01*
X7697559Y-8498588D01*
X7714966Y-8449528D01*
X7756918Y-8392799D01*
X7830995Y-8312176D01*
X7839127Y-8303491D01*
X7908170Y-8222102D01*
X7957022Y-8151040D01*
X7975555Y-8104831D01*
X7992390Y-8036829D01*
X8051213Y-7956708D01*
X8136828Y-7892153D01*
X8232964Y-7854793D01*
X8323349Y-7856260D01*
G37*
X6921379Y-9421893D02*
X6976154Y-9446813D01*
X7042057Y-9493731D01*
X7092204Y-9542755D01*
X7121719Y-9603628D01*
X7128889Y-9692496D01*
X7127173Y-9741912D01*
X7112708Y-9807449D01*
X7075428Y-9870450D01*
X7005745Y-9951043D01*
X6950318Y-10017359D01*
X6886715Y-10110962D01*
X6848363Y-10189635D01*
X6843485Y-10203513D01*
X6802299Y-10283042D01*
X6753560Y-10337802D01*
X6733647Y-10348716D01*
X6650975Y-10371504D01*
X6546102Y-10380222D01*
X6525606Y-10380107D01*
X6440053Y-10373542D01*
X6385496Y-10351354D01*
X6340715Y-10305861D01*
X6321861Y-10280869D01*
X6287938Y-10214023D01*
X6296770Y-10153642D01*
X6349124Y-10078999D01*
X6351172Y-10076526D01*
X6402903Y-9994986D01*
X6435309Y-9910798D01*
X6439226Y-9898479D01*
X6476090Y-9835821D01*
X6540502Y-9753488D01*
X6622071Y-9662165D01*
X6710403Y-9572537D01*
X6795105Y-9495288D01*
X6865785Y-9441103D01*
X6912049Y-9420667D01*
X6921379Y-9421893D01*
G36*
X6921379Y-9421893D02*
G01*
X6976154Y-9446813D01*
X7042057Y-9493731D01*
X7092204Y-9542755D01*
X7121719Y-9603628D01*
X7128889Y-9692496D01*
X7127173Y-9741912D01*
X7112708Y-9807449D01*
X7075428Y-9870450D01*
X7005745Y-9951043D01*
X6950318Y-10017359D01*
X6886715Y-10110962D01*
X6848363Y-10189635D01*
X6843485Y-10203513D01*
X6802299Y-10283042D01*
X6753560Y-10337802D01*
X6733647Y-10348716D01*
X6650975Y-10371504D01*
X6546102Y-10380222D01*
X6525606Y-10380107D01*
X6440053Y-10373542D01*
X6385496Y-10351354D01*
X6340715Y-10305861D01*
X6321861Y-10280869D01*
X6287938Y-10214023D01*
X6296770Y-10153642D01*
X6349124Y-10078999D01*
X6351172Y-10076526D01*
X6402903Y-9994986D01*
X6435309Y-9910798D01*
X6439226Y-9898479D01*
X6476090Y-9835821D01*
X6540502Y-9753488D01*
X6622071Y-9662165D01*
X6710403Y-9572537D01*
X6795105Y-9495288D01*
X6865785Y-9441103D01*
X6912049Y-9420667D01*
X6921379Y-9421893D01*
G37*
X4543993Y-11837615D02*
X4632562Y-11889220D01*
X4693663Y-11943182D01*
X4723226Y-12000537D01*
X4730000Y-12085297D01*
X4717665Y-12186260D01*
X4678072Y-12274361D01*
X4677487Y-12275123D01*
X4631363Y-12350983D01*
X4593053Y-12438612D01*
X4590868Y-12444875D01*
X4556885Y-12523020D01*
X4521549Y-12579723D01*
X4516867Y-12585546D01*
X4481885Y-12647131D01*
X4449902Y-12727465D01*
X4445070Y-12741712D01*
X4411682Y-12816176D01*
X4377593Y-12863470D01*
X4346544Y-12906749D01*
X4320640Y-12977292D01*
X4293583Y-13051350D01*
X4246222Y-13130564D01*
X4189421Y-13181336D01*
X4097326Y-13202445D01*
X4013553Y-13188680D01*
X3948419Y-13138163D01*
X3907988Y-13045088D01*
X3888290Y-12903786D01*
X3884598Y-12824115D01*
X3889173Y-12743755D01*
X3909561Y-12681334D01*
X3950555Y-12614589D01*
X3970562Y-12584005D01*
X4009128Y-12512141D01*
X4024444Y-12462260D01*
X4025277Y-12454267D01*
X4048930Y-12398614D01*
X4095000Y-12332703D01*
X4104611Y-12320716D01*
X4147947Y-12249112D01*
X4165555Y-12188217D01*
X4174180Y-12157543D01*
X4215251Y-12089604D01*
X4278941Y-12008928D01*
X4352709Y-11929696D01*
X4424010Y-11866093D01*
X4480303Y-11832301D01*
X4543993Y-11837615D01*
G36*
X4543993Y-11837615D02*
G01*
X4632562Y-11889220D01*
X4693663Y-11943182D01*
X4723226Y-12000537D01*
X4730000Y-12085297D01*
X4717665Y-12186260D01*
X4678072Y-12274361D01*
X4677487Y-12275123D01*
X4631363Y-12350983D01*
X4593053Y-12438612D01*
X4590868Y-12444875D01*
X4556885Y-12523020D01*
X4521549Y-12579723D01*
X4516867Y-12585546D01*
X4481885Y-12647131D01*
X4449902Y-12727465D01*
X4445070Y-12741712D01*
X4411682Y-12816176D01*
X4377593Y-12863470D01*
X4346544Y-12906749D01*
X4320640Y-12977292D01*
X4293583Y-13051350D01*
X4246222Y-13130564D01*
X4189421Y-13181336D01*
X4097326Y-13202445D01*
X4013553Y-13188680D01*
X3948419Y-13138163D01*
X3907988Y-13045088D01*
X3888290Y-12903786D01*
X3884598Y-12824115D01*
X3889173Y-12743755D01*
X3909561Y-12681334D01*
X3950555Y-12614589D01*
X3970562Y-12584005D01*
X4009128Y-12512141D01*
X4024444Y-12462260D01*
X4025277Y-12454267D01*
X4048930Y-12398614D01*
X4095000Y-12332703D01*
X4104611Y-12320716D01*
X4147947Y-12249112D01*
X4165555Y-12188217D01*
X4174180Y-12157543D01*
X4215251Y-12089604D01*
X4278941Y-12008928D01*
X4352709Y-11929696D01*
X4424010Y-11866093D01*
X4480303Y-11832301D01*
X4543993Y-11837615D01*
G37*
X8191379Y-8998559D02*
X8246154Y-9023480D01*
X8312057Y-9070398D01*
X8362204Y-9119421D01*
X8391719Y-9180295D01*
X8398889Y-9269162D01*
X8397173Y-9318579D01*
X8382708Y-9384116D01*
X8345428Y-9447116D01*
X8275745Y-9527709D01*
X8220187Y-9594080D01*
X8156969Y-9686760D01*
X8119079Y-9764132D01*
X8114187Y-9778436D01*
X8080629Y-9852866D01*
X8046481Y-9900137D01*
X8013514Y-9949226D01*
X7988825Y-10022339D01*
X7983666Y-10042410D01*
X7948414Y-10130010D01*
X7898650Y-10217736D01*
X7861207Y-10280032D01*
X7838596Y-10356596D01*
X7841721Y-10453468D01*
X7845389Y-10481176D01*
X7866447Y-10559244D01*
X7909720Y-10630587D01*
X7986526Y-10715701D01*
X8049104Y-10784459D01*
X8097956Y-10849270D01*
X8116666Y-10889968D01*
X8116642Y-10892149D01*
X8090482Y-10968322D01*
X8026662Y-11036854D01*
X7942283Y-11079190D01*
X7892816Y-11089959D01*
X7770363Y-11091715D01*
X7660250Y-11048192D01*
X7548381Y-10954943D01*
X7425222Y-10829533D01*
X7415999Y-10499045D01*
X7413571Y-10404506D01*
X7412582Y-10290477D01*
X7416815Y-10212008D01*
X7428137Y-10156249D01*
X7448410Y-10110353D01*
X7479499Y-10061469D01*
X7525290Y-9976210D01*
X7552222Y-9844912D01*
X7562092Y-9764372D01*
X7619124Y-9655666D01*
X7621172Y-9653193D01*
X7672903Y-9571652D01*
X7705309Y-9487464D01*
X7709226Y-9475146D01*
X7746090Y-9412488D01*
X7810502Y-9330155D01*
X7892071Y-9238832D01*
X7980403Y-9149204D01*
X8065105Y-9071955D01*
X8135785Y-9017770D01*
X8182049Y-8997334D01*
X8191379Y-8998559D01*
G36*
X8191379Y-8998559D02*
G01*
X8246154Y-9023480D01*
X8312057Y-9070398D01*
X8362204Y-9119421D01*
X8391719Y-9180295D01*
X8398889Y-9269162D01*
X8397173Y-9318579D01*
X8382708Y-9384116D01*
X8345428Y-9447116D01*
X8275745Y-9527709D01*
X8220187Y-9594080D01*
X8156969Y-9686760D01*
X8119079Y-9764132D01*
X8114187Y-9778436D01*
X8080629Y-9852866D01*
X8046481Y-9900137D01*
X8013514Y-9949226D01*
X7988825Y-10022339D01*
X7983666Y-10042410D01*
X7948414Y-10130010D01*
X7898650Y-10217736D01*
X7861207Y-10280032D01*
X7838596Y-10356596D01*
X7841721Y-10453468D01*
X7845389Y-10481176D01*
X7866447Y-10559244D01*
X7909720Y-10630587D01*
X7986526Y-10715701D01*
X8049104Y-10784459D01*
X8097956Y-10849270D01*
X8116666Y-10889968D01*
X8116642Y-10892149D01*
X8090482Y-10968322D01*
X8026662Y-11036854D01*
X7942283Y-11079190D01*
X7892816Y-11089959D01*
X7770363Y-11091715D01*
X7660250Y-11048192D01*
X7548381Y-10954943D01*
X7425222Y-10829533D01*
X7415999Y-10499045D01*
X7413571Y-10404506D01*
X7412582Y-10290477D01*
X7416815Y-10212008D01*
X7428137Y-10156249D01*
X7448410Y-10110353D01*
X7479499Y-10061469D01*
X7525290Y-9976210D01*
X7552222Y-9844912D01*
X7562092Y-9764372D01*
X7619124Y-9655666D01*
X7621172Y-9653193D01*
X7672903Y-9571652D01*
X7705309Y-9487464D01*
X7709226Y-9475146D01*
X7746090Y-9412488D01*
X7810502Y-9330155D01*
X7892071Y-9238832D01*
X7980403Y-9149204D01*
X8065105Y-9071955D01*
X8135785Y-9017770D01*
X8182049Y-8997334D01*
X8191379Y-8998559D01*
G37*
X5646082Y-11380224D02*
X5697981Y-11415244D01*
X5774281Y-11479971D01*
X5864597Y-11564156D01*
X5958543Y-11657547D01*
X6045734Y-11749896D01*
X6115785Y-11830951D01*
X6158311Y-11890464D01*
X6174474Y-11910796D01*
X6242631Y-11941988D01*
X6337517Y-11944320D01*
X6444067Y-11918734D01*
X6547216Y-11866170D01*
X6579113Y-11846073D01*
X6659841Y-11806898D01*
X6722623Y-11791334D01*
X6761081Y-11799391D01*
X6834689Y-11839169D01*
X6908373Y-11899138D01*
X6965085Y-11964551D01*
X6987778Y-12020665D01*
X6987129Y-12029575D01*
X6957972Y-12096770D01*
X6895162Y-12176465D01*
X6812070Y-12255652D01*
X6722070Y-12321320D01*
X6638532Y-12360458D01*
X6602397Y-12371037D01*
X6523457Y-12401562D01*
X6496073Y-12436029D01*
X6517268Y-12485368D01*
X6584068Y-12560506D01*
X6631086Y-12614787D01*
X6688433Y-12699394D01*
X6718429Y-12769129D01*
X6746242Y-12843759D01*
X6791822Y-12907559D01*
X6801745Y-12917255D01*
X6824795Y-12952385D01*
X6838456Y-13005551D01*
X6844991Y-13089537D01*
X6846666Y-13217124D01*
X6842126Y-13355848D01*
X6822188Y-13483080D01*
X6783489Y-13566418D01*
X6722908Y-13611953D01*
X6637326Y-13625778D01*
X6582645Y-13619983D01*
X6507342Y-13578978D01*
X6456510Y-13494255D01*
X6426026Y-13360643D01*
X6414590Y-13296932D01*
X6389282Y-13208791D01*
X6361131Y-13153510D01*
X6356407Y-13147747D01*
X6317948Y-13082499D01*
X6284346Y-13000091D01*
X6279514Y-12985844D01*
X6246126Y-12911380D01*
X6212037Y-12864085D01*
X6182544Y-12824516D01*
X6156246Y-12755550D01*
X6145662Y-12723972D01*
X6101829Y-12648921D01*
X6040673Y-12575257D01*
X5976710Y-12519181D01*
X5924455Y-12496889D01*
X5899687Y-12507488D01*
X5839509Y-12550892D01*
X5757984Y-12620060D01*
X5665477Y-12706597D01*
X5450961Y-12916305D01*
X5442162Y-13122875D01*
X5440699Y-13169646D01*
X5446664Y-13306742D01*
X5472920Y-13400010D01*
X5522990Y-13457565D01*
X5600396Y-13487525D01*
X5613690Y-13490740D01*
X5696525Y-13528103D01*
X5775865Y-13586849D01*
X5835417Y-13652835D01*
X5858889Y-13711919D01*
X5858865Y-13713292D01*
X5841154Y-13768353D01*
X5800396Y-13833639D01*
X5780556Y-13857407D01*
X5746722Y-13885118D01*
X5700021Y-13900309D01*
X5625933Y-13906697D01*
X5509939Y-13908000D01*
X5277974Y-13908000D01*
X5152154Y-13779874D01*
X5026333Y-13651748D01*
X5017389Y-13170677D01*
X5008446Y-12689605D01*
X5320778Y-12373038D01*
X5385192Y-12307153D01*
X5483479Y-12204035D01*
X5562084Y-12118262D01*
X5614223Y-12057315D01*
X5633111Y-12028675D01*
X5633025Y-12027624D01*
X5611808Y-11993387D01*
X5560457Y-11933708D01*
X5489449Y-11860828D01*
X5452905Y-11824499D01*
X5365163Y-11725844D01*
X5319193Y-11647618D01*
X5311205Y-11581283D01*
X5337409Y-11518298D01*
X5370990Y-11478331D01*
X5456059Y-11417204D01*
X5552792Y-11380011D01*
X5638461Y-11377390D01*
X5646082Y-11380224D01*
G36*
X5646082Y-11380224D02*
G01*
X5697981Y-11415244D01*
X5774281Y-11479971D01*
X5864597Y-11564156D01*
X5958543Y-11657547D01*
X6045734Y-11749896D01*
X6115785Y-11830951D01*
X6158311Y-11890464D01*
X6174474Y-11910796D01*
X6242631Y-11941988D01*
X6337517Y-11944320D01*
X6444067Y-11918734D01*
X6547216Y-11866170D01*
X6579113Y-11846073D01*
X6659841Y-11806898D01*
X6722623Y-11791334D01*
X6761081Y-11799391D01*
X6834689Y-11839169D01*
X6908373Y-11899138D01*
X6965085Y-11964551D01*
X6987778Y-12020665D01*
X6987129Y-12029575D01*
X6957972Y-12096770D01*
X6895162Y-12176465D01*
X6812070Y-12255652D01*
X6722070Y-12321320D01*
X6638532Y-12360458D01*
X6602397Y-12371037D01*
X6523457Y-12401562D01*
X6496073Y-12436029D01*
X6517268Y-12485368D01*
X6584068Y-12560506D01*
X6631086Y-12614787D01*
X6688433Y-12699394D01*
X6718429Y-12769129D01*
X6746242Y-12843759D01*
X6791822Y-12907559D01*
X6801745Y-12917255D01*
X6824795Y-12952385D01*
X6838456Y-13005551D01*
X6844991Y-13089537D01*
X6846666Y-13217124D01*
X6842126Y-13355848D01*
X6822188Y-13483080D01*
X6783489Y-13566418D01*
X6722908Y-13611953D01*
X6637326Y-13625778D01*
X6582645Y-13619983D01*
X6507342Y-13578978D01*
X6456510Y-13494255D01*
X6426026Y-13360643D01*
X6414590Y-13296932D01*
X6389282Y-13208791D01*
X6361131Y-13153510D01*
X6356407Y-13147747D01*
X6317948Y-13082499D01*
X6284346Y-13000091D01*
X6279514Y-12985844D01*
X6246126Y-12911380D01*
X6212037Y-12864085D01*
X6182544Y-12824516D01*
X6156246Y-12755550D01*
X6145662Y-12723972D01*
X6101829Y-12648921D01*
X6040673Y-12575257D01*
X5976710Y-12519181D01*
X5924455Y-12496889D01*
X5899687Y-12507488D01*
X5839509Y-12550892D01*
X5757984Y-12620060D01*
X5665477Y-12706597D01*
X5450961Y-12916305D01*
X5442162Y-13122875D01*
X5440699Y-13169646D01*
X5446664Y-13306742D01*
X5472920Y-13400010D01*
X5522990Y-13457565D01*
X5600396Y-13487525D01*
X5613690Y-13490740D01*
X5696525Y-13528103D01*
X5775865Y-13586849D01*
X5835417Y-13652835D01*
X5858889Y-13711919D01*
X5858865Y-13713292D01*
X5841154Y-13768353D01*
X5800396Y-13833639D01*
X5780556Y-13857407D01*
X5746722Y-13885118D01*
X5700021Y-13900309D01*
X5625933Y-13906697D01*
X5509939Y-13908000D01*
X5277974Y-13908000D01*
X5152154Y-13779874D01*
X5026333Y-13651748D01*
X5017389Y-13170677D01*
X5008446Y-12689605D01*
X5320778Y-12373038D01*
X5385192Y-12307153D01*
X5483479Y-12204035D01*
X5562084Y-12118262D01*
X5614223Y-12057315D01*
X5633111Y-12028675D01*
X5633025Y-12027624D01*
X5611808Y-11993387D01*
X5560457Y-11933708D01*
X5489449Y-11860828D01*
X5452905Y-11824499D01*
X5365163Y-11725844D01*
X5319193Y-11647618D01*
X5311205Y-11581283D01*
X5337409Y-11518298D01*
X5370990Y-11478331D01*
X5456059Y-11417204D01*
X5552792Y-11380011D01*
X5638461Y-11377390D01*
X5646082Y-11380224D01*
G37*
G04 #@! TD*
M02*
