G04 #@! TF.GenerationSoftware,KiCad,Pcbnew,7.0.1*
G04 #@! TF.CreationDate,2023-03-21T03:43:12+09:00*
G04 #@! TF.ProjectId,Pmod_LED,506d6f64-5f4c-4454-942e-6b696361645f,rev?*
G04 #@! TF.SameCoordinates,Original*
G04 #@! TF.FileFunction,Copper,L2,Bot*
G04 #@! TF.FilePolarity,Positive*
%FSLAX46Y46*%
G04 Gerber Fmt 4.6, Leading zero omitted, Abs format (unit mm)*
G04 Created by KiCad (PCBNEW 7.0.1) date 2023-03-21 03:43:12*
%MOMM*%
%LPD*%
G01*
G04 APERTURE LIST*
G04 #@! TA.AperFunction,ComponentPad*
%ADD10C,1.800000*%
G04 #@! TD*
G04 #@! TA.AperFunction,ComponentPad*
%ADD11R,1.800000X1.800000*%
G04 #@! TD*
G04 #@! TA.AperFunction,ComponentPad*
%ADD12R,1.600000X1.600000*%
G04 #@! TD*
G04 #@! TA.AperFunction,ComponentPad*
%ADD13O,1.600000X1.600000*%
G04 #@! TD*
G04 #@! TA.AperFunction,ViaPad*
%ADD14C,0.800000*%
G04 #@! TD*
G04 #@! TA.AperFunction,Conductor*
%ADD15C,0.250000*%
G04 #@! TD*
G04 APERTURE END LIST*
D10*
G04 #@! TO.P,D8,2,A*
G04 #@! TO.N,/PMOD_P10*
X18097500Y-24125000D03*
D11*
G04 #@! TO.P,D8,1,K*
G04 #@! TO.N,GND*
X18097500Y-21585000D03*
G04 #@! TD*
D10*
G04 #@! TO.P,D7,2,A*
G04 #@! TO.N,/PMOD_P9*
X13652500Y-24125000D03*
D11*
G04 #@! TO.P,D7,1,K*
G04 #@! TO.N,GND*
X13652500Y-21585000D03*
G04 #@! TD*
D10*
G04 #@! TO.P,D6,2,A*
G04 #@! TO.N,/PMOD_P8*
X9207500Y-24125000D03*
D11*
G04 #@! TO.P,D6,1,K*
G04 #@! TO.N,GND*
X9207500Y-21585000D03*
G04 #@! TD*
D10*
G04 #@! TO.P,D5,2,A*
G04 #@! TO.N,/PMOD_P7*
X4762500Y-24125000D03*
D11*
G04 #@! TO.P,D5,1,K*
G04 #@! TO.N,GND*
X4762500Y-21585000D03*
G04 #@! TD*
D10*
G04 #@! TO.P,D4,2,A*
G04 #@! TO.N,/PMOD_P4*
X18097500Y-30475000D03*
D11*
G04 #@! TO.P,D4,1,K*
G04 #@! TO.N,GND*
X18097500Y-27935000D03*
G04 #@! TD*
D10*
G04 #@! TO.P,D3,2,A*
G04 #@! TO.N,/PMOD_P3*
X13652500Y-30475000D03*
D11*
G04 #@! TO.P,D3,1,K*
G04 #@! TO.N,GND*
X13652500Y-27935000D03*
G04 #@! TD*
G04 #@! TO.P,D2,1,K*
G04 #@! TO.N,GND*
X9207500Y-27935000D03*
D10*
G04 #@! TO.P,D2,2,A*
G04 #@! TO.N,/PMOD_P2*
X9207500Y-30475000D03*
G04 #@! TD*
G04 #@! TO.P,D1,2,A*
G04 #@! TO.N,/PMOD_P1*
X4762500Y-30475000D03*
D11*
G04 #@! TO.P,D1,1,K*
G04 #@! TO.N,GND*
X4762500Y-27935000D03*
G04 #@! TD*
D12*
G04 #@! TO.P,J1,1,Pin_1*
G04 #@! TO.N,/PMOD_P1*
X5080000Y-34490000D03*
D13*
G04 #@! TO.P,J1,2,Pin_2*
G04 #@! TO.N,/PMOD_P2*
X7620000Y-34490000D03*
G04 #@! TO.P,J1,3,Pin_3*
G04 #@! TO.N,/PMOD_P3*
X10160000Y-34490000D03*
G04 #@! TO.P,J1,4,Pin_4*
G04 #@! TO.N,/PMOD_P4*
X12700000Y-34490000D03*
G04 #@! TO.P,J1,5,Pin_5*
G04 #@! TO.N,GND*
X15240000Y-34490000D03*
G04 #@! TO.P,J1,6,Pin_6*
G04 #@! TO.N,+3V3*
X17780000Y-34490000D03*
G04 #@! TO.P,J1,7,Pin_7*
G04 #@! TO.N,/PMOD_P7*
X5080000Y-37030000D03*
G04 #@! TO.P,J1,8,Pin_8*
G04 #@! TO.N,/PMOD_P8*
X7620000Y-37030000D03*
G04 #@! TO.P,J1,9,Pin_9*
G04 #@! TO.N,/PMOD_P9*
X10160000Y-37030000D03*
G04 #@! TO.P,J1,10,Pin_10*
G04 #@! TO.N,/PMOD_P10*
X12700000Y-37030000D03*
G04 #@! TO.P,J1,11,Pin_11*
G04 #@! TO.N,GND*
X15240000Y-37030000D03*
G04 #@! TO.P,J1,12,Pin_12*
G04 #@! TO.N,+3V3*
X17780000Y-37030000D03*
G04 #@! TD*
D12*
G04 #@! TO.P,J2,1,Pin_1*
G04 #@! TO.N,/PMOD_P1*
X5080000Y-19050000D03*
D13*
G04 #@! TO.P,J2,2,Pin_2*
G04 #@! TO.N,/PMOD_P2*
X7620000Y-19050000D03*
G04 #@! TO.P,J2,3,Pin_3*
G04 #@! TO.N,/PMOD_P3*
X10160000Y-19050000D03*
G04 #@! TO.P,J2,4,Pin_4*
G04 #@! TO.N,/PMOD_P4*
X12700000Y-19050000D03*
G04 #@! TO.P,J2,5,Pin_5*
G04 #@! TO.N,GND*
X15240000Y-19050000D03*
G04 #@! TO.P,J2,6,Pin_6*
G04 #@! TO.N,+3V3*
X17780000Y-19050000D03*
G04 #@! TO.P,J2,7,Pin_7*
G04 #@! TO.N,/PMOD_P7*
X5080000Y-16510000D03*
G04 #@! TO.P,J2,8,Pin_8*
G04 #@! TO.N,/PMOD_P8*
X7620000Y-16510000D03*
G04 #@! TO.P,J2,9,Pin_9*
G04 #@! TO.N,/PMOD_P9*
X10160000Y-16510000D03*
G04 #@! TO.P,J2,10,Pin_10*
G04 #@! TO.N,/PMOD_P10*
X12700000Y-16510000D03*
G04 #@! TO.P,J2,11,Pin_11*
G04 #@! TO.N,GND*
X15240000Y-16510000D03*
G04 #@! TO.P,J2,12,Pin_12*
G04 #@! TO.N,+3V3*
X17780000Y-16510000D03*
G04 #@! TD*
D14*
G04 #@! TO.N,GND*
X16129000Y-29718000D03*
X16891000Y-31496000D03*
X3048000Y-36322000D03*
X19812000Y-34036000D03*
X19685000Y-18161000D03*
X3556000Y-16891000D03*
X16510000Y-20955000D03*
X15748000Y-22479000D03*
X15748000Y-25273000D03*
X12065000Y-31496000D03*
X12065000Y-30480000D03*
X10287000Y-32512000D03*
X7239000Y-31242000D03*
X7239000Y-29845000D03*
X6731000Y-25527000D03*
X6731000Y-22860000D03*
G04 #@! TO.N,/PMOD_P4*
X16510000Y-27305000D03*
G04 #@! TO.N,/PMOD_P3*
X12104500Y-26670000D03*
G04 #@! TO.N,/PMOD_P2*
X7623194Y-21586806D03*
X7620000Y-26670000D03*
G04 #@! TO.N,/PMOD_P10*
X15240000Y-30480000D03*
G04 #@! TD*
D15*
G04 #@! TO.N,/PMOD_P4*
X12065000Y-19685000D02*
X12700000Y-19050000D01*
X15240000Y-26035000D02*
X13335000Y-26035000D01*
X12065000Y-24765000D02*
X12065000Y-19685000D01*
X13335000Y-26035000D02*
X12065000Y-24765000D01*
X16510000Y-27305000D02*
X15240000Y-26035000D01*
G04 #@! TO.N,/PMOD_P3*
X10795000Y-25400000D02*
X10795000Y-19685000D01*
X12065000Y-26670000D02*
X10795000Y-25400000D01*
X12104500Y-26670000D02*
X12065000Y-26670000D01*
X10795000Y-19685000D02*
X10160000Y-19050000D01*
G04 #@! TO.N,/PMOD_P2*
X7620000Y-26670000D02*
X7620000Y-21590000D01*
X7620000Y-21590000D02*
X7623194Y-21586806D01*
G04 #@! TO.N,/PMOD_P10*
X15240000Y-30549201D02*
X15240000Y-30480000D01*
X13970000Y-31819201D02*
X15240000Y-30549201D01*
X13970000Y-35760000D02*
X13970000Y-31819201D01*
X12700000Y-37030000D02*
X13970000Y-35760000D01*
G04 #@! TD*
G04 #@! TA.AperFunction,Conductor*
G04 #@! TO.N,GND*
G36*
X19015605Y-6433036D02*
G01*
X19047723Y-6454496D01*
X20215504Y-7622277D01*
X20236964Y-7654395D01*
X20244500Y-7692281D01*
X20244500Y-39657719D01*
X20236964Y-39695605D01*
X20215504Y-39727723D01*
X19047722Y-40895504D01*
X19015604Y-40916964D01*
X18977718Y-40924500D01*
X3882281Y-40924500D01*
X3844395Y-40916964D01*
X3812277Y-40895504D01*
X2644496Y-39727722D01*
X2623036Y-39695604D01*
X2615500Y-39657718D01*
X2615500Y-37029999D01*
X4074658Y-37029999D01*
X4093975Y-37226130D01*
X4151185Y-37414727D01*
X4244088Y-37588536D01*
X4244090Y-37588538D01*
X4369117Y-37740883D01*
X4498298Y-37846900D01*
X4521463Y-37865911D01*
X4695272Y-37958814D01*
X4789570Y-37987419D01*
X4883868Y-38016024D01*
X5080000Y-38035341D01*
X5276132Y-38016024D01*
X5464727Y-37958814D01*
X5638538Y-37865910D01*
X5790883Y-37740883D01*
X5915910Y-37588538D01*
X6008814Y-37414727D01*
X6066024Y-37226132D01*
X6085341Y-37030000D01*
X6085341Y-37029999D01*
X6614658Y-37029999D01*
X6633975Y-37226130D01*
X6691185Y-37414727D01*
X6784088Y-37588536D01*
X6784090Y-37588538D01*
X6909117Y-37740883D01*
X7038298Y-37846900D01*
X7061463Y-37865911D01*
X7235272Y-37958814D01*
X7329570Y-37987419D01*
X7423868Y-38016024D01*
X7620000Y-38035341D01*
X7816132Y-38016024D01*
X8004727Y-37958814D01*
X8178538Y-37865910D01*
X8330883Y-37740883D01*
X8455910Y-37588538D01*
X8548814Y-37414727D01*
X8606024Y-37226132D01*
X8625341Y-37030000D01*
X8625341Y-37029999D01*
X9154658Y-37029999D01*
X9173975Y-37226130D01*
X9231185Y-37414727D01*
X9324088Y-37588536D01*
X9324090Y-37588538D01*
X9449117Y-37740883D01*
X9578298Y-37846900D01*
X9601463Y-37865911D01*
X9775272Y-37958814D01*
X9869570Y-37987419D01*
X9963868Y-38016024D01*
X10160000Y-38035341D01*
X10356132Y-38016024D01*
X10544727Y-37958814D01*
X10718538Y-37865910D01*
X10870883Y-37740883D01*
X10995910Y-37588538D01*
X11088814Y-37414727D01*
X11146024Y-37226132D01*
X11165341Y-37030000D01*
X11165341Y-37029999D01*
X11694658Y-37029999D01*
X11713975Y-37226130D01*
X11771185Y-37414727D01*
X11864088Y-37588536D01*
X11864090Y-37588538D01*
X11989117Y-37740883D01*
X12118298Y-37846900D01*
X12141463Y-37865911D01*
X12315272Y-37958814D01*
X12409570Y-37987419D01*
X12503868Y-38016024D01*
X12700000Y-38035341D01*
X12896132Y-38016024D01*
X13084727Y-37958814D01*
X13258538Y-37865910D01*
X13410883Y-37740883D01*
X13535910Y-37588538D01*
X13628814Y-37414727D01*
X13686024Y-37226132D01*
X13695492Y-37130000D01*
X14245010Y-37130000D01*
X14254469Y-37226034D01*
X14311649Y-37414536D01*
X14404504Y-37588254D01*
X14529472Y-37740527D01*
X14681745Y-37865495D01*
X14855463Y-37958350D01*
X15043965Y-38015530D01*
X15140000Y-38024990D01*
X15340000Y-38024990D01*
X15436034Y-38015530D01*
X15624536Y-37958350D01*
X15798254Y-37865495D01*
X15950527Y-37740527D01*
X16075495Y-37588254D01*
X16168350Y-37414536D01*
X16225530Y-37226034D01*
X16234990Y-37130000D01*
X15340001Y-37130000D01*
X15340000Y-37130001D01*
X15340000Y-38024990D01*
X15140000Y-38024990D01*
X15140000Y-37130001D01*
X15139999Y-37130000D01*
X14245010Y-37130000D01*
X13695492Y-37130000D01*
X13705341Y-37030000D01*
X16774658Y-37030000D01*
X16793975Y-37226130D01*
X16851185Y-37414727D01*
X16944088Y-37588536D01*
X16944090Y-37588538D01*
X17069117Y-37740883D01*
X17198298Y-37846900D01*
X17221463Y-37865911D01*
X17395272Y-37958814D01*
X17489570Y-37987419D01*
X17583868Y-38016024D01*
X17780000Y-38035341D01*
X17976132Y-38016024D01*
X18164727Y-37958814D01*
X18338538Y-37865910D01*
X18490883Y-37740883D01*
X18615910Y-37588538D01*
X18708814Y-37414727D01*
X18766024Y-37226132D01*
X18785341Y-37030000D01*
X18766024Y-36833868D01*
X18708814Y-36645273D01*
X18708814Y-36645272D01*
X18615911Y-36471463D01*
X18596900Y-36448298D01*
X18490883Y-36319117D01*
X18384864Y-36232109D01*
X18338536Y-36194088D01*
X18164727Y-36101185D01*
X17976130Y-36043975D01*
X17780000Y-36024658D01*
X17583869Y-36043975D01*
X17395272Y-36101185D01*
X17221463Y-36194088D01*
X17069117Y-36319117D01*
X16944088Y-36471463D01*
X16851185Y-36645272D01*
X16793975Y-36833869D01*
X16774658Y-37030000D01*
X13705341Y-37030000D01*
X13695492Y-36930000D01*
X14245009Y-36930000D01*
X15139999Y-36930000D01*
X15140000Y-36929999D01*
X15140000Y-36035009D01*
X15339999Y-36035009D01*
X15340000Y-36035010D01*
X15340000Y-36929999D01*
X15340001Y-36930000D01*
X16234990Y-36930000D01*
X16225530Y-36833965D01*
X16168350Y-36645463D01*
X16075495Y-36471745D01*
X15950527Y-36319472D01*
X15798254Y-36194504D01*
X15624536Y-36101649D01*
X15436034Y-36044469D01*
X15339999Y-36035009D01*
X15140000Y-36035009D01*
X15043965Y-36044469D01*
X14855463Y-36101649D01*
X14681745Y-36194504D01*
X14529472Y-36319472D01*
X14404504Y-36471745D01*
X14311649Y-36645463D01*
X14254469Y-36833965D01*
X14245009Y-36930000D01*
X13695492Y-36930000D01*
X13686034Y-36833965D01*
X13686025Y-36833871D01*
X13682301Y-36821595D01*
X13628814Y-36645273D01*
X13628811Y-36645267D01*
X13626543Y-36637791D01*
X13625247Y-36584997D01*
X13651274Y-36539050D01*
X14187072Y-36003253D01*
X14193430Y-35997429D01*
X14223194Y-35972455D01*
X14242624Y-35938799D01*
X14247252Y-35931532D01*
X14269554Y-35899684D01*
X14269943Y-35898229D01*
X14279837Y-35874345D01*
X14280588Y-35873045D01*
X14287340Y-35834748D01*
X14289197Y-35826371D01*
X14299263Y-35788807D01*
X14295876Y-35750102D01*
X14295500Y-35741475D01*
X14295500Y-35192119D01*
X14313559Y-35135114D01*
X14361148Y-35098906D01*
X14420904Y-35096705D01*
X14471028Y-35129314D01*
X14529470Y-35200525D01*
X14681745Y-35325495D01*
X14855463Y-35418350D01*
X15043965Y-35475530D01*
X15140000Y-35484990D01*
X15340000Y-35484990D01*
X15436034Y-35475530D01*
X15624536Y-35418350D01*
X15798254Y-35325495D01*
X15950527Y-35200527D01*
X16075495Y-35048254D01*
X16168350Y-34874536D01*
X16225530Y-34686034D01*
X16234990Y-34590000D01*
X15340001Y-34590000D01*
X15340000Y-34590001D01*
X15340000Y-35484990D01*
X15140000Y-35484990D01*
X15140000Y-34489999D01*
X16774658Y-34489999D01*
X16793975Y-34686130D01*
X16851185Y-34874727D01*
X16944088Y-35048536D01*
X16944090Y-35048538D01*
X17069117Y-35200883D01*
X17198298Y-35306900D01*
X17221463Y-35325911D01*
X17395272Y-35418814D01*
X17489570Y-35447419D01*
X17583868Y-35476024D01*
X17780000Y-35495341D01*
X17976132Y-35476024D01*
X18164727Y-35418814D01*
X18338538Y-35325910D01*
X18490883Y-35200883D01*
X18615910Y-35048538D01*
X18708814Y-34874727D01*
X18766024Y-34686132D01*
X18785341Y-34490000D01*
X18766024Y-34293868D01*
X18708814Y-34105273D01*
X18708814Y-34105272D01*
X18615911Y-33931463D01*
X18549618Y-33850686D01*
X18490883Y-33779117D01*
X18358233Y-33670253D01*
X18338536Y-33654088D01*
X18164727Y-33561185D01*
X17976130Y-33503975D01*
X17780000Y-33484658D01*
X17583869Y-33503975D01*
X17395272Y-33561185D01*
X17221463Y-33654088D01*
X17069117Y-33779117D01*
X16944088Y-33931463D01*
X16851185Y-34105272D01*
X16793975Y-34293869D01*
X16774658Y-34489999D01*
X15140000Y-34489999D01*
X15140000Y-33495009D01*
X15339999Y-33495009D01*
X15340000Y-33495010D01*
X15340000Y-34389999D01*
X15340001Y-34390000D01*
X16234990Y-34390000D01*
X16225530Y-34293965D01*
X16168350Y-34105463D01*
X16075495Y-33931745D01*
X15950527Y-33779472D01*
X15798254Y-33654504D01*
X15624536Y-33561649D01*
X15436034Y-33504469D01*
X15339999Y-33495009D01*
X15140000Y-33495009D01*
X15043965Y-33504469D01*
X14855463Y-33561649D01*
X14681745Y-33654504D01*
X14529470Y-33779474D01*
X14471028Y-33850686D01*
X14420904Y-33883295D01*
X14361148Y-33881094D01*
X14313559Y-33844886D01*
X14295500Y-33787881D01*
X14295500Y-31995035D01*
X14303036Y-31957149D01*
X14324496Y-31925031D01*
X14711503Y-31538024D01*
X15138185Y-31111341D01*
X15176366Y-31087601D01*
X15221106Y-31083194D01*
X15240000Y-31085682D01*
X15396762Y-31065044D01*
X15542841Y-31004536D01*
X15668282Y-30908282D01*
X15764536Y-30782841D01*
X15825044Y-30636762D01*
X15845682Y-30480000D01*
X15845024Y-30475000D01*
X16992285Y-30475000D01*
X17011103Y-30678082D01*
X17066919Y-30874252D01*
X17157825Y-31056818D01*
X17157826Y-31056819D01*
X17157827Y-31056821D01*
X17280736Y-31219579D01*
X17431459Y-31356981D01*
X17604863Y-31464348D01*
X17754754Y-31522415D01*
X17795046Y-31538025D01*
X17995522Y-31575500D01*
X17995524Y-31575500D01*
X18199476Y-31575500D01*
X18199478Y-31575500D01*
X18399953Y-31538025D01*
X18399956Y-31538024D01*
X18590137Y-31464348D01*
X18763541Y-31356981D01*
X18914264Y-31219579D01*
X19037173Y-31056821D01*
X19128082Y-30874250D01*
X19183897Y-30678083D01*
X19202715Y-30475000D01*
X19183897Y-30271917D01*
X19128082Y-30075750D01*
X19037173Y-29893179D01*
X18914264Y-29730421D01*
X18763541Y-29593019D01*
X18590137Y-29485652D01*
X18549847Y-29470043D01*
X18399953Y-29411974D01*
X18199478Y-29374500D01*
X18199476Y-29374500D01*
X17995524Y-29374500D01*
X17995522Y-29374500D01*
X17795046Y-29411974D01*
X17604860Y-29485653D01*
X17431461Y-29593017D01*
X17280737Y-29730420D01*
X17157825Y-29893181D01*
X17066919Y-30075747D01*
X17011103Y-30271917D01*
X16992285Y-30475000D01*
X15845024Y-30475000D01*
X15825044Y-30323238D01*
X15764536Y-30177159D01*
X15742139Y-30147970D01*
X15668282Y-30051717D01*
X15542841Y-29955464D01*
X15396761Y-29894955D01*
X15240000Y-29874318D01*
X15083238Y-29894955D01*
X14937160Y-29955463D01*
X14805313Y-30056632D01*
X14751647Y-30076869D01*
X14695765Y-30063952D01*
X14656426Y-30022219D01*
X14592173Y-29893179D01*
X14469264Y-29730421D01*
X14318541Y-29593019D01*
X14145137Y-29485652D01*
X14104847Y-29470043D01*
X13954953Y-29411974D01*
X13754478Y-29374500D01*
X13754476Y-29374500D01*
X13550524Y-29374500D01*
X13550522Y-29374500D01*
X13350046Y-29411974D01*
X13159860Y-29485653D01*
X12986461Y-29593017D01*
X12835737Y-29730420D01*
X12712825Y-29893181D01*
X12621919Y-30075747D01*
X12566103Y-30271917D01*
X12547285Y-30475000D01*
X12566103Y-30678082D01*
X12621919Y-30874252D01*
X12712825Y-31056818D01*
X12712826Y-31056819D01*
X12712827Y-31056821D01*
X12835736Y-31219579D01*
X12986459Y-31356981D01*
X13159863Y-31464348D01*
X13309754Y-31522415D01*
X13350046Y-31538025D01*
X13550522Y-31575500D01*
X13550524Y-31575500D01*
X13564466Y-31575500D01*
X13618868Y-31591787D01*
X13655370Y-31635290D01*
X13661962Y-31691694D01*
X13652663Y-31744423D01*
X13650794Y-31752850D01*
X13640735Y-31790392D01*
X13644123Y-31829105D01*
X13644500Y-31837735D01*
X13644500Y-33787093D01*
X13626441Y-33844098D01*
X13578852Y-33880306D01*
X13519096Y-33882507D01*
X13468973Y-33849899D01*
X13410883Y-33779117D01*
X13278233Y-33670253D01*
X13258536Y-33654088D01*
X13084727Y-33561185D01*
X12896130Y-33503975D01*
X12700000Y-33484658D01*
X12503869Y-33503975D01*
X12315272Y-33561185D01*
X12141463Y-33654088D01*
X11989117Y-33779117D01*
X11864088Y-33931463D01*
X11771185Y-34105272D01*
X11713975Y-34293869D01*
X11694658Y-34490000D01*
X11713975Y-34686130D01*
X11771185Y-34874727D01*
X11864088Y-35048536D01*
X11864090Y-35048538D01*
X11989117Y-35200883D01*
X12118298Y-35306900D01*
X12141463Y-35325911D01*
X12315272Y-35418814D01*
X12409570Y-35447419D01*
X12503868Y-35476024D01*
X12700000Y-35495341D01*
X12896132Y-35476024D01*
X13084727Y-35418814D01*
X13258538Y-35325910D01*
X13410883Y-35200883D01*
X13468973Y-35130100D01*
X13519096Y-35097493D01*
X13578852Y-35099694D01*
X13626441Y-35135902D01*
X13644500Y-35192907D01*
X13644500Y-35584165D01*
X13636964Y-35622051D01*
X13615503Y-35654169D01*
X13190949Y-36078722D01*
X13145001Y-36104751D01*
X13092208Y-36103455D01*
X12896130Y-36043975D01*
X12700000Y-36024658D01*
X12503869Y-36043975D01*
X12315272Y-36101185D01*
X12141463Y-36194088D01*
X11989117Y-36319117D01*
X11864088Y-36471463D01*
X11771185Y-36645272D01*
X11713975Y-36833869D01*
X11694658Y-37029999D01*
X11165341Y-37029999D01*
X11146024Y-36833868D01*
X11088814Y-36645273D01*
X11088814Y-36645272D01*
X10995911Y-36471463D01*
X10976900Y-36448298D01*
X10870883Y-36319117D01*
X10764864Y-36232109D01*
X10718536Y-36194088D01*
X10544727Y-36101185D01*
X10356130Y-36043975D01*
X10160000Y-36024658D01*
X9963869Y-36043975D01*
X9775272Y-36101185D01*
X9601463Y-36194088D01*
X9449117Y-36319117D01*
X9324088Y-36471463D01*
X9231185Y-36645272D01*
X9173975Y-36833869D01*
X9154658Y-37029999D01*
X8625341Y-37029999D01*
X8606024Y-36833868D01*
X8548814Y-36645273D01*
X8548814Y-36645272D01*
X8455911Y-36471463D01*
X8436900Y-36448298D01*
X8330883Y-36319117D01*
X8224864Y-36232109D01*
X8178536Y-36194088D01*
X8004727Y-36101185D01*
X7816130Y-36043975D01*
X7620000Y-36024658D01*
X7423869Y-36043975D01*
X7235272Y-36101185D01*
X7061463Y-36194088D01*
X6909117Y-36319117D01*
X6784088Y-36471463D01*
X6691185Y-36645272D01*
X6633975Y-36833869D01*
X6614658Y-37029999D01*
X6085341Y-37029999D01*
X6066024Y-36833868D01*
X6008814Y-36645273D01*
X6008814Y-36645272D01*
X5915911Y-36471463D01*
X5896900Y-36448298D01*
X5790883Y-36319117D01*
X5684864Y-36232109D01*
X5638536Y-36194088D01*
X5464727Y-36101185D01*
X5276130Y-36043975D01*
X5080000Y-36024658D01*
X4883869Y-36043975D01*
X4695272Y-36101185D01*
X4521463Y-36194088D01*
X4369117Y-36319117D01*
X4244088Y-36471463D01*
X4151185Y-36645272D01*
X4093975Y-36833869D01*
X4074658Y-37029999D01*
X2615500Y-37029999D01*
X2615500Y-35309747D01*
X4079500Y-35309747D01*
X4091133Y-35368231D01*
X4135447Y-35434552D01*
X4179762Y-35464162D01*
X4201769Y-35478867D01*
X4260252Y-35490500D01*
X5899747Y-35490500D01*
X5899748Y-35490500D01*
X5958231Y-35478867D01*
X6024552Y-35434552D01*
X6068867Y-35368231D01*
X6080500Y-35309748D01*
X6080500Y-34490000D01*
X6614658Y-34490000D01*
X6633975Y-34686130D01*
X6691185Y-34874727D01*
X6784088Y-35048536D01*
X6784090Y-35048538D01*
X6909117Y-35200883D01*
X7038298Y-35306900D01*
X7061463Y-35325911D01*
X7235272Y-35418814D01*
X7329570Y-35447419D01*
X7423868Y-35476024D01*
X7620000Y-35495341D01*
X7816132Y-35476024D01*
X8004727Y-35418814D01*
X8178538Y-35325910D01*
X8330883Y-35200883D01*
X8455910Y-35048538D01*
X8548814Y-34874727D01*
X8606024Y-34686132D01*
X8625341Y-34490000D01*
X9154658Y-34490000D01*
X9173975Y-34686130D01*
X9231185Y-34874727D01*
X9324088Y-35048536D01*
X9324090Y-35048538D01*
X9449117Y-35200883D01*
X9578298Y-35306900D01*
X9601463Y-35325911D01*
X9775272Y-35418814D01*
X9869570Y-35447419D01*
X9963868Y-35476024D01*
X10160000Y-35495341D01*
X10356132Y-35476024D01*
X10544727Y-35418814D01*
X10718538Y-35325910D01*
X10870883Y-35200883D01*
X10995910Y-35048538D01*
X11088814Y-34874727D01*
X11146024Y-34686132D01*
X11165341Y-34490000D01*
X11146024Y-34293868D01*
X11088814Y-34105273D01*
X11088814Y-34105272D01*
X10995911Y-33931463D01*
X10929618Y-33850686D01*
X10870883Y-33779117D01*
X10738233Y-33670253D01*
X10718536Y-33654088D01*
X10544727Y-33561185D01*
X10356130Y-33503975D01*
X10160000Y-33484658D01*
X9963869Y-33503975D01*
X9775272Y-33561185D01*
X9601463Y-33654088D01*
X9449117Y-33779117D01*
X9324088Y-33931463D01*
X9231185Y-34105272D01*
X9173975Y-34293869D01*
X9154658Y-34490000D01*
X8625341Y-34490000D01*
X8606024Y-34293868D01*
X8548814Y-34105273D01*
X8548814Y-34105272D01*
X8455911Y-33931463D01*
X8389618Y-33850686D01*
X8330883Y-33779117D01*
X8198233Y-33670253D01*
X8178536Y-33654088D01*
X8004727Y-33561185D01*
X7816130Y-33503975D01*
X7620000Y-33484658D01*
X7423869Y-33503975D01*
X7235272Y-33561185D01*
X7061463Y-33654088D01*
X6909117Y-33779117D01*
X6784088Y-33931463D01*
X6691185Y-34105272D01*
X6633975Y-34293869D01*
X6614658Y-34490000D01*
X6080500Y-34490000D01*
X6080500Y-33670252D01*
X6068867Y-33611769D01*
X6054162Y-33589761D01*
X6024552Y-33545447D01*
X5958231Y-33501133D01*
X5899748Y-33489500D01*
X4260252Y-33489500D01*
X4232556Y-33495009D01*
X4201768Y-33501133D01*
X4135447Y-33545447D01*
X4091133Y-33611768D01*
X4091132Y-33611769D01*
X4091133Y-33611769D01*
X4082633Y-33654504D01*
X4079500Y-33670253D01*
X4079500Y-35309747D01*
X2615500Y-35309747D01*
X2615500Y-30475000D01*
X3657285Y-30475000D01*
X3676103Y-30678082D01*
X3731919Y-30874252D01*
X3822825Y-31056818D01*
X3822826Y-31056819D01*
X3822827Y-31056821D01*
X3945736Y-31219579D01*
X4096459Y-31356981D01*
X4269863Y-31464348D01*
X4419754Y-31522415D01*
X4460046Y-31538025D01*
X4660522Y-31575500D01*
X4660524Y-31575500D01*
X4864476Y-31575500D01*
X4864478Y-31575500D01*
X5064953Y-31538025D01*
X5064956Y-31538024D01*
X5255137Y-31464348D01*
X5428541Y-31356981D01*
X5579264Y-31219579D01*
X5702173Y-31056821D01*
X5793082Y-30874250D01*
X5848897Y-30678083D01*
X5867715Y-30475000D01*
X8102285Y-30475000D01*
X8121103Y-30678082D01*
X8176919Y-30874252D01*
X8267825Y-31056818D01*
X8267826Y-31056819D01*
X8267827Y-31056821D01*
X8390736Y-31219579D01*
X8541459Y-31356981D01*
X8714863Y-31464348D01*
X8864754Y-31522415D01*
X8905046Y-31538025D01*
X9105522Y-31575500D01*
X9105524Y-31575500D01*
X9309476Y-31575500D01*
X9309478Y-31575500D01*
X9509953Y-31538025D01*
X9509956Y-31538024D01*
X9700137Y-31464348D01*
X9873541Y-31356981D01*
X10024264Y-31219579D01*
X10147173Y-31056821D01*
X10238082Y-30874250D01*
X10293897Y-30678083D01*
X10312715Y-30475000D01*
X10293897Y-30271917D01*
X10238082Y-30075750D01*
X10147173Y-29893179D01*
X10024264Y-29730421D01*
X9873541Y-29593019D01*
X9700137Y-29485652D01*
X9659847Y-29470043D01*
X9509953Y-29411974D01*
X9309478Y-29374500D01*
X9309476Y-29374500D01*
X9105524Y-29374500D01*
X9105522Y-29374500D01*
X8905046Y-29411974D01*
X8714860Y-29485653D01*
X8541461Y-29593017D01*
X8390737Y-29730420D01*
X8267825Y-29893181D01*
X8176919Y-30075747D01*
X8121103Y-30271917D01*
X8102285Y-30475000D01*
X5867715Y-30475000D01*
X5848897Y-30271917D01*
X5793082Y-30075750D01*
X5702173Y-29893179D01*
X5579264Y-29730421D01*
X5428541Y-29593019D01*
X5255137Y-29485652D01*
X5214847Y-29470043D01*
X5064953Y-29411974D01*
X4864478Y-29374500D01*
X4864476Y-29374500D01*
X4660524Y-29374500D01*
X4660522Y-29374500D01*
X4460046Y-29411974D01*
X4269860Y-29485653D01*
X4096461Y-29593017D01*
X3945737Y-29730420D01*
X3822825Y-29893181D01*
X3731919Y-30075747D01*
X3676103Y-30271917D01*
X3657285Y-30475000D01*
X2615500Y-30475000D01*
X2615500Y-28854697D01*
X3662500Y-28854697D01*
X3674104Y-28913036D01*
X3718307Y-28979192D01*
X3784463Y-29023395D01*
X3842803Y-29035000D01*
X4662499Y-29035000D01*
X4662500Y-29034999D01*
X4862500Y-29034999D01*
X4862501Y-29035000D01*
X5682197Y-29035000D01*
X5740536Y-29023395D01*
X5806692Y-28979192D01*
X5850895Y-28913036D01*
X5862500Y-28854697D01*
X8107500Y-28854697D01*
X8119104Y-28913036D01*
X8163307Y-28979192D01*
X8229463Y-29023395D01*
X8287803Y-29035000D01*
X9107499Y-29035000D01*
X9107500Y-29034999D01*
X9307500Y-29034999D01*
X9307501Y-29035000D01*
X10127197Y-29035000D01*
X10185536Y-29023395D01*
X10251692Y-28979192D01*
X10295895Y-28913036D01*
X10307500Y-28854697D01*
X12552500Y-28854697D01*
X12564104Y-28913036D01*
X12608307Y-28979192D01*
X12674463Y-29023395D01*
X12732803Y-29035000D01*
X13552499Y-29035000D01*
X13552500Y-29034999D01*
X13752500Y-29034999D01*
X13752501Y-29035000D01*
X14572197Y-29035000D01*
X14630536Y-29023395D01*
X14696692Y-28979192D01*
X14740895Y-28913036D01*
X14752500Y-28854697D01*
X16997500Y-28854697D01*
X17009104Y-28913036D01*
X17053307Y-28979192D01*
X17119463Y-29023395D01*
X17177803Y-29035000D01*
X17997499Y-29035000D01*
X17997500Y-29034999D01*
X18197500Y-29034999D01*
X18197501Y-29035000D01*
X19017197Y-29035000D01*
X19075536Y-29023395D01*
X19141692Y-28979192D01*
X19185895Y-28913036D01*
X19197500Y-28854697D01*
X19197500Y-28035001D01*
X19197499Y-28035000D01*
X18197501Y-28035000D01*
X18197500Y-28035001D01*
X18197500Y-29034999D01*
X17997500Y-29034999D01*
X17997500Y-28035001D01*
X17997499Y-28035000D01*
X16997501Y-28035000D01*
X16997500Y-28035001D01*
X16997500Y-28854697D01*
X14752500Y-28854697D01*
X14752500Y-28035001D01*
X14752499Y-28035000D01*
X13752501Y-28035000D01*
X13752500Y-28035001D01*
X13752500Y-29034999D01*
X13552500Y-29034999D01*
X13552500Y-28035001D01*
X13552499Y-28035000D01*
X12552501Y-28035000D01*
X12552500Y-28035001D01*
X12552500Y-28854697D01*
X10307500Y-28854697D01*
X10307500Y-28035001D01*
X10307499Y-28035000D01*
X9307501Y-28035000D01*
X9307500Y-28035001D01*
X9307500Y-29034999D01*
X9107500Y-29034999D01*
X9107500Y-28035001D01*
X9107499Y-28035000D01*
X8107501Y-28035000D01*
X8107500Y-28035001D01*
X8107500Y-28854697D01*
X5862500Y-28854697D01*
X5862500Y-28035001D01*
X5862499Y-28035000D01*
X4862501Y-28035000D01*
X4862500Y-28035001D01*
X4862500Y-29034999D01*
X4662500Y-29034999D01*
X4662500Y-28035001D01*
X4662499Y-28035000D01*
X3662501Y-28035000D01*
X3662500Y-28035001D01*
X3662500Y-28854697D01*
X2615500Y-28854697D01*
X2615500Y-27834999D01*
X3662500Y-27834999D01*
X3662501Y-27835000D01*
X4662499Y-27835000D01*
X4662500Y-27834999D01*
X4862500Y-27834999D01*
X4862501Y-27835000D01*
X5862499Y-27835000D01*
X5862500Y-27834999D01*
X5862500Y-27015303D01*
X5850895Y-26956963D01*
X5806692Y-26890807D01*
X5740536Y-26846604D01*
X5682197Y-26835000D01*
X4862501Y-26835000D01*
X4862500Y-26835001D01*
X4862500Y-27834999D01*
X4662500Y-27834999D01*
X4662500Y-26835001D01*
X4662499Y-26835000D01*
X3842803Y-26835000D01*
X3784463Y-26846604D01*
X3718307Y-26890807D01*
X3674104Y-26956963D01*
X3662500Y-27015303D01*
X3662500Y-27834999D01*
X2615500Y-27834999D01*
X2615500Y-26669999D01*
X7014318Y-26669999D01*
X7034955Y-26826761D01*
X7095464Y-26972841D01*
X7191717Y-27098282D01*
X7248734Y-27142032D01*
X7317159Y-27194536D01*
X7463238Y-27255044D01*
X7620000Y-27275682D01*
X7776762Y-27255044D01*
X7922841Y-27194536D01*
X7948233Y-27175051D01*
X7998796Y-27155071D01*
X8052287Y-27164804D01*
X8092571Y-27201315D01*
X8107500Y-27253594D01*
X8107500Y-27834999D01*
X8107501Y-27835000D01*
X9107499Y-27835000D01*
X9107500Y-27834999D01*
X9307500Y-27834999D01*
X9307501Y-27835000D01*
X10307499Y-27835000D01*
X10307500Y-27834999D01*
X10307500Y-27015303D01*
X10295895Y-26956963D01*
X10251692Y-26890807D01*
X10185536Y-26846604D01*
X10127197Y-26835000D01*
X9307501Y-26835000D01*
X9307500Y-26835001D01*
X9307500Y-27834999D01*
X9107500Y-27834999D01*
X9107500Y-26835001D01*
X9107499Y-26835000D01*
X8316847Y-26835000D01*
X8263654Y-26819496D01*
X8227123Y-26777839D01*
X8218694Y-26723078D01*
X8221822Y-26699318D01*
X8225682Y-26670000D01*
X8205044Y-26513238D01*
X8144536Y-26367159D01*
X8083945Y-26288195D01*
X8048282Y-26241717D01*
X7984233Y-26192571D01*
X7955710Y-26157816D01*
X7945500Y-26114029D01*
X7945500Y-24420608D01*
X7961306Y-24366945D01*
X8003677Y-24330417D01*
X8059083Y-24322688D01*
X8109832Y-24346226D01*
X8139719Y-24393512D01*
X8176918Y-24524250D01*
X8176919Y-24524252D01*
X8267825Y-24706818D01*
X8267826Y-24706819D01*
X8267827Y-24706821D01*
X8390736Y-24869579D01*
X8541459Y-25006981D01*
X8714863Y-25114348D01*
X8800305Y-25147448D01*
X8905046Y-25188025D01*
X9105522Y-25225500D01*
X9105524Y-25225500D01*
X9309476Y-25225500D01*
X9309478Y-25225500D01*
X9509953Y-25188025D01*
X9509956Y-25188024D01*
X9700137Y-25114348D01*
X9873541Y-25006981D01*
X10024264Y-24869579D01*
X10147173Y-24706821D01*
X10238082Y-24524250D01*
X10275280Y-24393512D01*
X10305168Y-24346226D01*
X10355917Y-24322688D01*
X10411323Y-24330417D01*
X10453694Y-24366945D01*
X10469500Y-24420608D01*
X10469500Y-25381466D01*
X10469123Y-25390096D01*
X10465735Y-25428807D01*
X10475795Y-25466350D01*
X10477663Y-25474778D01*
X10484411Y-25513042D01*
X10484412Y-25513045D01*
X10485166Y-25514352D01*
X10495055Y-25538225D01*
X10495446Y-25539685D01*
X10517732Y-25571514D01*
X10522370Y-25578794D01*
X10541803Y-25612452D01*
X10541805Y-25612454D01*
X10541806Y-25612455D01*
X10571583Y-25637441D01*
X10577938Y-25643264D01*
X11476610Y-26541937D01*
X11500352Y-26580117D01*
X11504759Y-26624860D01*
X11498817Y-26669997D01*
X11519455Y-26826761D01*
X11579964Y-26972841D01*
X11676217Y-27098282D01*
X11733234Y-27142032D01*
X11801659Y-27194536D01*
X11947738Y-27255044D01*
X12104500Y-27275682D01*
X12261262Y-27255044D01*
X12407341Y-27194536D01*
X12407341Y-27194535D01*
X12415614Y-27191109D01*
X12463204Y-27184050D01*
X12508501Y-27200257D01*
X12540810Y-27235905D01*
X12552500Y-27282573D01*
X12552500Y-27834999D01*
X12552501Y-27835000D01*
X13552499Y-27835000D01*
X13552500Y-27834999D01*
X13752500Y-27834999D01*
X13752501Y-27835000D01*
X14752499Y-27835000D01*
X14752500Y-27834999D01*
X14752500Y-27015303D01*
X14740895Y-26956963D01*
X14696692Y-26890807D01*
X14630536Y-26846604D01*
X14572197Y-26835000D01*
X13752501Y-26835000D01*
X13752500Y-26835001D01*
X13752500Y-27834999D01*
X13552500Y-27834999D01*
X13552500Y-26835001D01*
X13552499Y-26835000D01*
X12801347Y-26835000D01*
X12748154Y-26819496D01*
X12711623Y-26777839D01*
X12703194Y-26723078D01*
X12706322Y-26699318D01*
X12710182Y-26670000D01*
X12689544Y-26513238D01*
X12629036Y-26367159D01*
X12568445Y-26288195D01*
X12532782Y-26241717D01*
X12407341Y-26145464D01*
X12261261Y-26084955D01*
X12125137Y-26067034D01*
X12104500Y-26064318D01*
X12104499Y-26064318D01*
X11989553Y-26079450D01*
X11944809Y-26075043D01*
X11906628Y-26051301D01*
X11149496Y-25294170D01*
X11128036Y-25262052D01*
X11120500Y-25224166D01*
X11120500Y-19703534D01*
X11120877Y-19694904D01*
X11124264Y-19656193D01*
X11114205Y-19618655D01*
X11112335Y-19610220D01*
X11111543Y-19605732D01*
X11105588Y-19571955D01*
X11104832Y-19570645D01*
X11094943Y-19546768D01*
X11094554Y-19545317D01*
X11094554Y-19545316D01*
X11092659Y-19542610D01*
X11074933Y-19491761D01*
X11086446Y-19439156D01*
X11088814Y-19434727D01*
X11146024Y-19246132D01*
X11146023Y-19246132D01*
X11146025Y-19246129D01*
X11165341Y-19049999D01*
X11694658Y-19049999D01*
X11713974Y-19246128D01*
X11771187Y-19434729D01*
X11773556Y-19439161D01*
X11785066Y-19491762D01*
X11767342Y-19542607D01*
X11765445Y-19545315D01*
X11765053Y-19546780D01*
X11755168Y-19570645D01*
X11754410Y-19571956D01*
X11747662Y-19610223D01*
X11745794Y-19618649D01*
X11735735Y-19656191D01*
X11739123Y-19694904D01*
X11739500Y-19703534D01*
X11739500Y-24746466D01*
X11739123Y-24755096D01*
X11735735Y-24793807D01*
X11745795Y-24831350D01*
X11747663Y-24839778D01*
X11752919Y-24869579D01*
X11754412Y-24878045D01*
X11755166Y-24879352D01*
X11765055Y-24903225D01*
X11765446Y-24904685D01*
X11787732Y-24936514D01*
X11792370Y-24943794D01*
X11811803Y-24977452D01*
X11811805Y-24977454D01*
X11811806Y-24977455D01*
X11841583Y-25002441D01*
X11847938Y-25008264D01*
X13091741Y-26252068D01*
X13097565Y-26258424D01*
X13122545Y-26288194D01*
X13122547Y-26288195D01*
X13156203Y-26307627D01*
X13163473Y-26312257D01*
X13195316Y-26334554D01*
X13196761Y-26334941D01*
X13196768Y-26334943D01*
X13220650Y-26344834D01*
X13221955Y-26345588D01*
X13221956Y-26345588D01*
X13221958Y-26345589D01*
X13247029Y-26350008D01*
X13260228Y-26352336D01*
X13268638Y-26354199D01*
X13306193Y-26364263D01*
X13306193Y-26364262D01*
X13306194Y-26364263D01*
X13328978Y-26362269D01*
X13344897Y-26360876D01*
X13353525Y-26360500D01*
X15064166Y-26360500D01*
X15102052Y-26368036D01*
X15134170Y-26389496D01*
X15886706Y-27142032D01*
X15910448Y-27180213D01*
X15914855Y-27224957D01*
X15904318Y-27304999D01*
X15924955Y-27461761D01*
X15985464Y-27607841D01*
X16081717Y-27733282D01*
X16174645Y-27804587D01*
X16207159Y-27829536D01*
X16353238Y-27890044D01*
X16510000Y-27910682D01*
X16666762Y-27890044D01*
X16812841Y-27829536D01*
X16845355Y-27804586D01*
X16888431Y-27785633D01*
X16935392Y-27788711D01*
X16975626Y-27813125D01*
X16997501Y-27835000D01*
X17997499Y-27835000D01*
X17997500Y-27834999D01*
X18197500Y-27834999D01*
X18197501Y-27835000D01*
X19197499Y-27835000D01*
X19197500Y-27834999D01*
X19197500Y-27015303D01*
X19185895Y-26956963D01*
X19141692Y-26890807D01*
X19075536Y-26846604D01*
X19017197Y-26835000D01*
X18197501Y-26835000D01*
X18197500Y-26835001D01*
X18197500Y-27834999D01*
X17997500Y-27834999D01*
X17997500Y-26835001D01*
X17997499Y-26835000D01*
X17177803Y-26835000D01*
X17119463Y-26846604D01*
X17060624Y-26885919D01*
X17002384Y-26902550D01*
X16945356Y-26882145D01*
X16812842Y-26780464D01*
X16666761Y-26719955D01*
X16530636Y-26702034D01*
X16510000Y-26699318D01*
X16509999Y-26699318D01*
X16429957Y-26709855D01*
X16385213Y-26705448D01*
X16347032Y-26681706D01*
X15483268Y-25817942D01*
X15477434Y-25811574D01*
X15452454Y-25781805D01*
X15418794Y-25762370D01*
X15411514Y-25757732D01*
X15379685Y-25735446D01*
X15378225Y-25735055D01*
X15354352Y-25725166D01*
X15353045Y-25724412D01*
X15353043Y-25724411D01*
X15353042Y-25724411D01*
X15314778Y-25717663D01*
X15306350Y-25715795D01*
X15268807Y-25705735D01*
X15233330Y-25708839D01*
X15230093Y-25709123D01*
X15221466Y-25709500D01*
X13510835Y-25709500D01*
X13472949Y-25701964D01*
X13440832Y-25680504D01*
X13014393Y-25254066D01*
X12987434Y-25204049D01*
X12992416Y-25147448D01*
X13027695Y-25102908D01*
X13081652Y-25085100D01*
X13136512Y-25099890D01*
X13159861Y-25114347D01*
X13159863Y-25114348D01*
X13245305Y-25147448D01*
X13350046Y-25188025D01*
X13550522Y-25225500D01*
X13550524Y-25225500D01*
X13754476Y-25225500D01*
X13754478Y-25225500D01*
X13954953Y-25188025D01*
X13954956Y-25188024D01*
X14145137Y-25114348D01*
X14318541Y-25006981D01*
X14469264Y-24869579D01*
X14592173Y-24706821D01*
X14683082Y-24524250D01*
X14738897Y-24328083D01*
X14757715Y-24125000D01*
X16992285Y-24125000D01*
X17011103Y-24328083D01*
X17029720Y-24393515D01*
X17066919Y-24524252D01*
X17157825Y-24706818D01*
X17157826Y-24706819D01*
X17157827Y-24706821D01*
X17280736Y-24869579D01*
X17431459Y-25006981D01*
X17604863Y-25114348D01*
X17690305Y-25147448D01*
X17795046Y-25188025D01*
X17995522Y-25225500D01*
X17995524Y-25225500D01*
X18199476Y-25225500D01*
X18199478Y-25225500D01*
X18399953Y-25188025D01*
X18399956Y-25188024D01*
X18590137Y-25114348D01*
X18763541Y-25006981D01*
X18914264Y-24869579D01*
X19037173Y-24706821D01*
X19128082Y-24524250D01*
X19183897Y-24328083D01*
X19202715Y-24125000D01*
X19183897Y-23921917D01*
X19128082Y-23725750D01*
X19037173Y-23543179D01*
X18914264Y-23380421D01*
X18763541Y-23243019D01*
X18590137Y-23135652D01*
X18549847Y-23120043D01*
X18399953Y-23061974D01*
X18199478Y-23024500D01*
X18199476Y-23024500D01*
X17995524Y-23024500D01*
X17995522Y-23024500D01*
X17795046Y-23061974D01*
X17604860Y-23135653D01*
X17431461Y-23243017D01*
X17280737Y-23380420D01*
X17157825Y-23543181D01*
X17066919Y-23725747D01*
X17066918Y-23725750D01*
X17011103Y-23921917D01*
X16992285Y-24125000D01*
X14757715Y-24125000D01*
X14738897Y-23921917D01*
X14683082Y-23725750D01*
X14592173Y-23543179D01*
X14469264Y-23380421D01*
X14318541Y-23243019D01*
X14145137Y-23135652D01*
X14104847Y-23120043D01*
X13954953Y-23061974D01*
X13754478Y-23024500D01*
X13754476Y-23024500D01*
X13550524Y-23024500D01*
X13550522Y-23024500D01*
X13350046Y-23061974D01*
X13159860Y-23135653D01*
X12986461Y-23243017D01*
X12835737Y-23380420D01*
X12712825Y-23543181D01*
X12621919Y-23725747D01*
X12621918Y-23725750D01*
X12584719Y-23856487D01*
X12554832Y-23903774D01*
X12504083Y-23927312D01*
X12448677Y-23919583D01*
X12406306Y-23883055D01*
X12390500Y-23829392D01*
X12390500Y-22629579D01*
X12403123Y-22581206D01*
X12437773Y-22545168D01*
X12485613Y-22530655D01*
X12534445Y-22541369D01*
X12571815Y-22574577D01*
X12608307Y-22629191D01*
X12674463Y-22673395D01*
X12732803Y-22685000D01*
X13552499Y-22685000D01*
X13552500Y-22684999D01*
X13752500Y-22684999D01*
X13752501Y-22685000D01*
X14572197Y-22685000D01*
X14630536Y-22673395D01*
X14696692Y-22629192D01*
X14740895Y-22563036D01*
X14752500Y-22504697D01*
X16997500Y-22504697D01*
X17009104Y-22563036D01*
X17053307Y-22629192D01*
X17119463Y-22673395D01*
X17177803Y-22685000D01*
X17997499Y-22685000D01*
X17997500Y-22684999D01*
X18197500Y-22684999D01*
X18197501Y-22685000D01*
X19017197Y-22685000D01*
X19075536Y-22673395D01*
X19141692Y-22629192D01*
X19185895Y-22563036D01*
X19197500Y-22504697D01*
X19197500Y-21685001D01*
X19197499Y-21685000D01*
X18197501Y-21685000D01*
X18197500Y-21685001D01*
X18197500Y-22684999D01*
X17997500Y-22684999D01*
X17997500Y-21685001D01*
X17997499Y-21685000D01*
X16997501Y-21685000D01*
X16997500Y-21685001D01*
X16997500Y-22504697D01*
X14752500Y-22504697D01*
X14752500Y-21685001D01*
X14752499Y-21685000D01*
X13752501Y-21685000D01*
X13752500Y-21685001D01*
X13752500Y-22684999D01*
X13552500Y-22684999D01*
X13552500Y-21484999D01*
X13752500Y-21484999D01*
X13752501Y-21485000D01*
X14752499Y-21485000D01*
X14752500Y-21484999D01*
X16997500Y-21484999D01*
X16997501Y-21485000D01*
X17997499Y-21485000D01*
X17997500Y-21484999D01*
X18197500Y-21484999D01*
X18197501Y-21485000D01*
X19197499Y-21485000D01*
X19197500Y-21484999D01*
X19197500Y-20665303D01*
X19185895Y-20606963D01*
X19141692Y-20540807D01*
X19075536Y-20496604D01*
X19017197Y-20485000D01*
X18197501Y-20485000D01*
X18197500Y-20485001D01*
X18197500Y-21484999D01*
X17997500Y-21484999D01*
X17997500Y-20485001D01*
X17997499Y-20485000D01*
X17177803Y-20485000D01*
X17119463Y-20496604D01*
X17053307Y-20540807D01*
X17009104Y-20606963D01*
X16997500Y-20665303D01*
X16997500Y-21484999D01*
X14752500Y-21484999D01*
X14752500Y-20665303D01*
X14740895Y-20606963D01*
X14696692Y-20540807D01*
X14630536Y-20496604D01*
X14572197Y-20485000D01*
X13752501Y-20485000D01*
X13752500Y-20485001D01*
X13752500Y-21484999D01*
X13552500Y-21484999D01*
X13552500Y-20485001D01*
X13552499Y-20485000D01*
X12732803Y-20485000D01*
X12674463Y-20496604D01*
X12608307Y-20540808D01*
X12571815Y-20595423D01*
X12534445Y-20628631D01*
X12485613Y-20639345D01*
X12437773Y-20624832D01*
X12403123Y-20588794D01*
X12390500Y-20540421D01*
X12390500Y-20134088D01*
X12405429Y-20081809D01*
X12445713Y-20045298D01*
X12499203Y-20035565D01*
X12700000Y-20055341D01*
X12896132Y-20036024D01*
X13084727Y-19978814D01*
X13258538Y-19885910D01*
X13410883Y-19760883D01*
X13535910Y-19608538D01*
X13628814Y-19434727D01*
X13686024Y-19246132D01*
X13695492Y-19150000D01*
X14245010Y-19150000D01*
X14254469Y-19246034D01*
X14311649Y-19434536D01*
X14404504Y-19608254D01*
X14529472Y-19760527D01*
X14681745Y-19885495D01*
X14855463Y-19978350D01*
X15043965Y-20035530D01*
X15140000Y-20044990D01*
X15340000Y-20044990D01*
X15436034Y-20035530D01*
X15624536Y-19978350D01*
X15798254Y-19885495D01*
X15950527Y-19760527D01*
X16075495Y-19608254D01*
X16168350Y-19434536D01*
X16225530Y-19246034D01*
X16234990Y-19150000D01*
X15340001Y-19150000D01*
X15340000Y-19150001D01*
X15340000Y-20044990D01*
X15140000Y-20044990D01*
X15140000Y-19150001D01*
X15139999Y-19150000D01*
X14245010Y-19150000D01*
X13695492Y-19150000D01*
X13705341Y-19050000D01*
X16774658Y-19050000D01*
X16793975Y-19246130D01*
X16851185Y-19434727D01*
X16944088Y-19608536D01*
X16952388Y-19618649D01*
X17069117Y-19760883D01*
X17198298Y-19866900D01*
X17221463Y-19885911D01*
X17395272Y-19978814D01*
X17470500Y-20001634D01*
X17583868Y-20036024D01*
X17780000Y-20055341D01*
X17976132Y-20036024D01*
X18164727Y-19978814D01*
X18338538Y-19885910D01*
X18490883Y-19760883D01*
X18615910Y-19608538D01*
X18708814Y-19434727D01*
X18766024Y-19246132D01*
X18785341Y-19050000D01*
X18766024Y-18853868D01*
X18708814Y-18665273D01*
X18708814Y-18665272D01*
X18615911Y-18491463D01*
X18596900Y-18468298D01*
X18490883Y-18339117D01*
X18358233Y-18230253D01*
X18338536Y-18214088D01*
X18164727Y-18121185D01*
X17976130Y-18063975D01*
X17780000Y-18044658D01*
X17583869Y-18063975D01*
X17395272Y-18121185D01*
X17221463Y-18214088D01*
X17069117Y-18339117D01*
X16944088Y-18491463D01*
X16851185Y-18665272D01*
X16793975Y-18853869D01*
X16774658Y-19050000D01*
X13705341Y-19050000D01*
X13695492Y-18950000D01*
X14245009Y-18950000D01*
X15139999Y-18950000D01*
X15140000Y-18949999D01*
X15140000Y-18055009D01*
X15339999Y-18055009D01*
X15340000Y-18055010D01*
X15340000Y-18949999D01*
X15340001Y-18950000D01*
X16234990Y-18950000D01*
X16225530Y-18853965D01*
X16168350Y-18665463D01*
X16075495Y-18491745D01*
X15950527Y-18339472D01*
X15798254Y-18214504D01*
X15624536Y-18121649D01*
X15436034Y-18064469D01*
X15339999Y-18055009D01*
X15140000Y-18055009D01*
X15043965Y-18064469D01*
X14855463Y-18121649D01*
X14681745Y-18214504D01*
X14529472Y-18339472D01*
X14404504Y-18491745D01*
X14311649Y-18665463D01*
X14254469Y-18853965D01*
X14245009Y-18950000D01*
X13695492Y-18950000D01*
X13686024Y-18853868D01*
X13628814Y-18665273D01*
X13628814Y-18665272D01*
X13535911Y-18491463D01*
X13516900Y-18468298D01*
X13410883Y-18339117D01*
X13278233Y-18230253D01*
X13258536Y-18214088D01*
X13084727Y-18121185D01*
X12896130Y-18063975D01*
X12700000Y-18044658D01*
X12503869Y-18063975D01*
X12315272Y-18121185D01*
X12141463Y-18214088D01*
X11989117Y-18339117D01*
X11864088Y-18491463D01*
X11771185Y-18665272D01*
X11713975Y-18853869D01*
X11694658Y-19049999D01*
X11165341Y-19049999D01*
X11155492Y-18949999D01*
X11146024Y-18853868D01*
X11088814Y-18665273D01*
X11088814Y-18665272D01*
X10995911Y-18491463D01*
X10976900Y-18468298D01*
X10870883Y-18339117D01*
X10738233Y-18230253D01*
X10718536Y-18214088D01*
X10544727Y-18121185D01*
X10356130Y-18063975D01*
X10160000Y-18044658D01*
X9963869Y-18063975D01*
X9775272Y-18121185D01*
X9601463Y-18214088D01*
X9449117Y-18339117D01*
X9324088Y-18491463D01*
X9231185Y-18665272D01*
X9173975Y-18853869D01*
X9154658Y-19050000D01*
X9173975Y-19246130D01*
X9231185Y-19434727D01*
X9324088Y-19608536D01*
X9332388Y-19618649D01*
X9449117Y-19760883D01*
X9578298Y-19866900D01*
X9601463Y-19885911D01*
X9775272Y-19978814D01*
X9850500Y-20001634D01*
X9963868Y-20036024D01*
X10054903Y-20044990D01*
X10159999Y-20055341D01*
X10159999Y-20055340D01*
X10160000Y-20055341D01*
X10195737Y-20051821D01*
X10360797Y-20035565D01*
X10414287Y-20045298D01*
X10454571Y-20081809D01*
X10469500Y-20134088D01*
X10469500Y-20540421D01*
X10456877Y-20588794D01*
X10422227Y-20624832D01*
X10374387Y-20639345D01*
X10325555Y-20628631D01*
X10288185Y-20595423D01*
X10251692Y-20540808D01*
X10185536Y-20496604D01*
X10127197Y-20485000D01*
X9307501Y-20485000D01*
X9307500Y-20485001D01*
X9307500Y-22684999D01*
X9307501Y-22685000D01*
X10127197Y-22685000D01*
X10185536Y-22673395D01*
X10251692Y-22629191D01*
X10288185Y-22574577D01*
X10325555Y-22541369D01*
X10374387Y-22530655D01*
X10422227Y-22545168D01*
X10456877Y-22581206D01*
X10469500Y-22629579D01*
X10469500Y-23829392D01*
X10453694Y-23883055D01*
X10411323Y-23919583D01*
X10355917Y-23927312D01*
X10305168Y-23903774D01*
X10275280Y-23856487D01*
X10238082Y-23725750D01*
X10147173Y-23543179D01*
X10024264Y-23380421D01*
X9873541Y-23243019D01*
X9700137Y-23135652D01*
X9659847Y-23120043D01*
X9509953Y-23061974D01*
X9309478Y-23024500D01*
X9309476Y-23024500D01*
X9105524Y-23024500D01*
X9105522Y-23024500D01*
X8905046Y-23061974D01*
X8714860Y-23135653D01*
X8541461Y-23243017D01*
X8390737Y-23380420D01*
X8267825Y-23543181D01*
X8176919Y-23725747D01*
X8176918Y-23725750D01*
X8139719Y-23856487D01*
X8109832Y-23903774D01*
X8059083Y-23927312D01*
X8003677Y-23919583D01*
X7961306Y-23883055D01*
X7945500Y-23829392D01*
X7945500Y-22629579D01*
X7958123Y-22581206D01*
X7992773Y-22545168D01*
X8040613Y-22530655D01*
X8089445Y-22541369D01*
X8126815Y-22574577D01*
X8163307Y-22629191D01*
X8229463Y-22673395D01*
X8287803Y-22685000D01*
X9107499Y-22685000D01*
X9107500Y-22684999D01*
X9107500Y-20485001D01*
X9107499Y-20485000D01*
X8287803Y-20485000D01*
X8229463Y-20496604D01*
X8163307Y-20540807D01*
X8119104Y-20606963D01*
X8107500Y-20665303D01*
X8107500Y-21000761D01*
X8092571Y-21053040D01*
X8052287Y-21089551D01*
X7998797Y-21099284D01*
X7948233Y-21079303D01*
X7926035Y-21062270D01*
X7779955Y-21001761D01*
X7623194Y-20981124D01*
X7466432Y-21001761D01*
X7320352Y-21062270D01*
X7194911Y-21158523D01*
X7098658Y-21283964D01*
X7038149Y-21430044D01*
X7017512Y-21586806D01*
X7038149Y-21743567D01*
X7098658Y-21889647D01*
X7194911Y-22015088D01*
X7255767Y-22061784D01*
X7284290Y-22096539D01*
X7294500Y-22140326D01*
X7294500Y-26114029D01*
X7284290Y-26157816D01*
X7255767Y-26192571D01*
X7191717Y-26241717D01*
X7095464Y-26367158D01*
X7034955Y-26513238D01*
X7014318Y-26669999D01*
X2615500Y-26669999D01*
X2615500Y-24125000D01*
X3657285Y-24125000D01*
X3676103Y-24328083D01*
X3694720Y-24393515D01*
X3731919Y-24524252D01*
X3822825Y-24706818D01*
X3822826Y-24706819D01*
X3822827Y-24706821D01*
X3945736Y-24869579D01*
X4096459Y-25006981D01*
X4269863Y-25114348D01*
X4355305Y-25147448D01*
X4460046Y-25188025D01*
X4660522Y-25225500D01*
X4660524Y-25225500D01*
X4864476Y-25225500D01*
X4864478Y-25225500D01*
X5064953Y-25188025D01*
X5064956Y-25188024D01*
X5255137Y-25114348D01*
X5428541Y-25006981D01*
X5579264Y-24869579D01*
X5702173Y-24706821D01*
X5793082Y-24524250D01*
X5848897Y-24328083D01*
X5867715Y-24125000D01*
X5848897Y-23921917D01*
X5793082Y-23725750D01*
X5702173Y-23543179D01*
X5579264Y-23380421D01*
X5428541Y-23243019D01*
X5255137Y-23135652D01*
X5214847Y-23120043D01*
X5064953Y-23061974D01*
X4864478Y-23024500D01*
X4864476Y-23024500D01*
X4660524Y-23024500D01*
X4660522Y-23024500D01*
X4460046Y-23061974D01*
X4269860Y-23135653D01*
X4096461Y-23243017D01*
X3945737Y-23380420D01*
X3822825Y-23543181D01*
X3731919Y-23725747D01*
X3731918Y-23725750D01*
X3676103Y-23921917D01*
X3657285Y-24125000D01*
X2615500Y-24125000D01*
X2615500Y-22504697D01*
X3662500Y-22504697D01*
X3674104Y-22563036D01*
X3718307Y-22629192D01*
X3784463Y-22673395D01*
X3842803Y-22685000D01*
X4662499Y-22685000D01*
X4662500Y-22684999D01*
X4862500Y-22684999D01*
X4862501Y-22685000D01*
X5682197Y-22685000D01*
X5740536Y-22673395D01*
X5806692Y-22629192D01*
X5850895Y-22563036D01*
X5862500Y-22504697D01*
X5862500Y-21685001D01*
X5862499Y-21685000D01*
X4862501Y-21685000D01*
X4862500Y-21685001D01*
X4862500Y-22684999D01*
X4662500Y-22684999D01*
X4662500Y-21685001D01*
X4662499Y-21685000D01*
X3662501Y-21685000D01*
X3662500Y-21685001D01*
X3662500Y-22504697D01*
X2615500Y-22504697D01*
X2615500Y-21484999D01*
X3662500Y-21484999D01*
X3662501Y-21485000D01*
X4662499Y-21485000D01*
X4662500Y-21484999D01*
X4862500Y-21484999D01*
X4862501Y-21485000D01*
X5862499Y-21485000D01*
X5862500Y-21484999D01*
X5862500Y-20665303D01*
X5850895Y-20606963D01*
X5806692Y-20540807D01*
X5740536Y-20496604D01*
X5682197Y-20485000D01*
X4862501Y-20485000D01*
X4862500Y-20485001D01*
X4862500Y-21484999D01*
X4662500Y-21484999D01*
X4662500Y-20485001D01*
X4662499Y-20485000D01*
X3842803Y-20485000D01*
X3784463Y-20496604D01*
X3718307Y-20540807D01*
X3674104Y-20606963D01*
X3662500Y-20665303D01*
X3662500Y-21484999D01*
X2615500Y-21484999D01*
X2615500Y-19869747D01*
X4079500Y-19869747D01*
X4091133Y-19928231D01*
X4135447Y-19994552D01*
X4179762Y-20024162D01*
X4201769Y-20038867D01*
X4260252Y-20050500D01*
X5899747Y-20050500D01*
X5899748Y-20050500D01*
X5958231Y-20038867D01*
X6024552Y-19994552D01*
X6068867Y-19928231D01*
X6080500Y-19869748D01*
X6080500Y-19050000D01*
X6614658Y-19050000D01*
X6633975Y-19246130D01*
X6691185Y-19434727D01*
X6784088Y-19608536D01*
X6792388Y-19618649D01*
X6909117Y-19760883D01*
X7038298Y-19866900D01*
X7061463Y-19885911D01*
X7235272Y-19978814D01*
X7310500Y-20001634D01*
X7423868Y-20036024D01*
X7620000Y-20055341D01*
X7816132Y-20036024D01*
X8004727Y-19978814D01*
X8178538Y-19885910D01*
X8330883Y-19760883D01*
X8455910Y-19608538D01*
X8548814Y-19434727D01*
X8606024Y-19246132D01*
X8625341Y-19050000D01*
X8606024Y-18853868D01*
X8548814Y-18665273D01*
X8548814Y-18665272D01*
X8455911Y-18491463D01*
X8436900Y-18468298D01*
X8330883Y-18339117D01*
X8198233Y-18230253D01*
X8178536Y-18214088D01*
X8004727Y-18121185D01*
X7816130Y-18063975D01*
X7620000Y-18044658D01*
X7423869Y-18063975D01*
X7235272Y-18121185D01*
X7061463Y-18214088D01*
X6909117Y-18339117D01*
X6784088Y-18491463D01*
X6691185Y-18665272D01*
X6633975Y-18853869D01*
X6614658Y-19050000D01*
X6080500Y-19050000D01*
X6080500Y-18230252D01*
X6068867Y-18171769D01*
X6054162Y-18149761D01*
X6024552Y-18105447D01*
X5958231Y-18061133D01*
X5899748Y-18049500D01*
X4260252Y-18049500D01*
X4232556Y-18055009D01*
X4201768Y-18061133D01*
X4135447Y-18105447D01*
X4091133Y-18171768D01*
X4091132Y-18171769D01*
X4091133Y-18171769D01*
X4082633Y-18214504D01*
X4079500Y-18230253D01*
X4079500Y-19869747D01*
X2615500Y-19869747D01*
X2615500Y-16510000D01*
X4074658Y-16510000D01*
X4093975Y-16706130D01*
X4151185Y-16894727D01*
X4244088Y-17068536D01*
X4244090Y-17068538D01*
X4369117Y-17220883D01*
X4498298Y-17326900D01*
X4521463Y-17345911D01*
X4695272Y-17438814D01*
X4789570Y-17467418D01*
X4883868Y-17496024D01*
X5080000Y-17515341D01*
X5276132Y-17496024D01*
X5464727Y-17438814D01*
X5638538Y-17345910D01*
X5790883Y-17220883D01*
X5915910Y-17068538D01*
X6008814Y-16894727D01*
X6066024Y-16706132D01*
X6085341Y-16510000D01*
X6614658Y-16510000D01*
X6633975Y-16706130D01*
X6691185Y-16894727D01*
X6784088Y-17068536D01*
X6784090Y-17068538D01*
X6909117Y-17220883D01*
X7038298Y-17326900D01*
X7061463Y-17345911D01*
X7235272Y-17438814D01*
X7329570Y-17467418D01*
X7423868Y-17496024D01*
X7620000Y-17515341D01*
X7816132Y-17496024D01*
X8004727Y-17438814D01*
X8178538Y-17345910D01*
X8330883Y-17220883D01*
X8455910Y-17068538D01*
X8548814Y-16894727D01*
X8606024Y-16706132D01*
X8625341Y-16510000D01*
X9154658Y-16510000D01*
X9173975Y-16706130D01*
X9231185Y-16894727D01*
X9324088Y-17068536D01*
X9324090Y-17068538D01*
X9449117Y-17220883D01*
X9578298Y-17326900D01*
X9601463Y-17345911D01*
X9775272Y-17438814D01*
X9869570Y-17467418D01*
X9963868Y-17496024D01*
X10160000Y-17515341D01*
X10356132Y-17496024D01*
X10544727Y-17438814D01*
X10718538Y-17345910D01*
X10870883Y-17220883D01*
X10995910Y-17068538D01*
X11088814Y-16894727D01*
X11146024Y-16706132D01*
X11165341Y-16510000D01*
X11694658Y-16510000D01*
X11713975Y-16706130D01*
X11771185Y-16894727D01*
X11864088Y-17068536D01*
X11864090Y-17068538D01*
X11989117Y-17220883D01*
X12118298Y-17326900D01*
X12141463Y-17345911D01*
X12315272Y-17438814D01*
X12409570Y-17467418D01*
X12503868Y-17496024D01*
X12700000Y-17515341D01*
X12896132Y-17496024D01*
X13084727Y-17438814D01*
X13258538Y-17345910D01*
X13410883Y-17220883D01*
X13535910Y-17068538D01*
X13628814Y-16894727D01*
X13686024Y-16706132D01*
X13695492Y-16610000D01*
X14245010Y-16610000D01*
X14254469Y-16706034D01*
X14311649Y-16894536D01*
X14404504Y-17068254D01*
X14529472Y-17220527D01*
X14681745Y-17345495D01*
X14855463Y-17438350D01*
X15043965Y-17495530D01*
X15140000Y-17504990D01*
X15340000Y-17504990D01*
X15436034Y-17495530D01*
X15624536Y-17438350D01*
X15798254Y-17345495D01*
X15950527Y-17220527D01*
X16075495Y-17068254D01*
X16168350Y-16894536D01*
X16225530Y-16706034D01*
X16234990Y-16610000D01*
X15340001Y-16610000D01*
X15340000Y-16610001D01*
X15340000Y-17504990D01*
X15140000Y-17504990D01*
X15140000Y-16610001D01*
X15139999Y-16610000D01*
X14245010Y-16610000D01*
X13695492Y-16610000D01*
X13705341Y-16510000D01*
X13705341Y-16509999D01*
X16774658Y-16509999D01*
X16793975Y-16706130D01*
X16851185Y-16894727D01*
X16944088Y-17068536D01*
X16944090Y-17068538D01*
X17069117Y-17220883D01*
X17198298Y-17326900D01*
X17221463Y-17345911D01*
X17395272Y-17438814D01*
X17489570Y-17467418D01*
X17583868Y-17496024D01*
X17780000Y-17515341D01*
X17976132Y-17496024D01*
X18164727Y-17438814D01*
X18338538Y-17345910D01*
X18490883Y-17220883D01*
X18615910Y-17068538D01*
X18708814Y-16894727D01*
X18766024Y-16706132D01*
X18785341Y-16510000D01*
X18766024Y-16313868D01*
X18708814Y-16125273D01*
X18708814Y-16125272D01*
X18615911Y-15951463D01*
X18596900Y-15928298D01*
X18490883Y-15799117D01*
X18384864Y-15712109D01*
X18338536Y-15674088D01*
X18164727Y-15581185D01*
X17976130Y-15523975D01*
X17780000Y-15504658D01*
X17583869Y-15523975D01*
X17395272Y-15581185D01*
X17221463Y-15674088D01*
X17069117Y-15799117D01*
X16944088Y-15951463D01*
X16851185Y-16125272D01*
X16793975Y-16313869D01*
X16774658Y-16509999D01*
X13705341Y-16509999D01*
X13695492Y-16410000D01*
X14245009Y-16410000D01*
X15139999Y-16410000D01*
X15140000Y-16409999D01*
X15140000Y-15515010D01*
X15340000Y-15515010D01*
X15340000Y-16409999D01*
X15340001Y-16410000D01*
X16234990Y-16410000D01*
X16225530Y-16313965D01*
X16168350Y-16125463D01*
X16075495Y-15951745D01*
X15950527Y-15799472D01*
X15798254Y-15674504D01*
X15624536Y-15581649D01*
X15436034Y-15524469D01*
X15340000Y-15515010D01*
X15140000Y-15515010D01*
X15140000Y-15515009D01*
X15043965Y-15524469D01*
X14855463Y-15581649D01*
X14681745Y-15674504D01*
X14529472Y-15799472D01*
X14404504Y-15951745D01*
X14311649Y-16125463D01*
X14254469Y-16313965D01*
X14245009Y-16410000D01*
X13695492Y-16410000D01*
X13686024Y-16313868D01*
X13628814Y-16125273D01*
X13628814Y-16125272D01*
X13535911Y-15951463D01*
X13516900Y-15928298D01*
X13410883Y-15799117D01*
X13304864Y-15712109D01*
X13258536Y-15674088D01*
X13084727Y-15581185D01*
X12896130Y-15523975D01*
X12700000Y-15504658D01*
X12503869Y-15523975D01*
X12315272Y-15581185D01*
X12141463Y-15674088D01*
X11989117Y-15799117D01*
X11864088Y-15951463D01*
X11771185Y-16125272D01*
X11713975Y-16313869D01*
X11694658Y-16510000D01*
X11165341Y-16510000D01*
X11146024Y-16313868D01*
X11088814Y-16125273D01*
X11088814Y-16125272D01*
X10995911Y-15951463D01*
X10976900Y-15928298D01*
X10870883Y-15799117D01*
X10764864Y-15712109D01*
X10718536Y-15674088D01*
X10544727Y-15581185D01*
X10356130Y-15523975D01*
X10160000Y-15504658D01*
X9963869Y-15523975D01*
X9775272Y-15581185D01*
X9601463Y-15674088D01*
X9449117Y-15799117D01*
X9324088Y-15951463D01*
X9231185Y-16125272D01*
X9173975Y-16313869D01*
X9154658Y-16510000D01*
X8625341Y-16510000D01*
X8606024Y-16313868D01*
X8548814Y-16125273D01*
X8548814Y-16125272D01*
X8455911Y-15951463D01*
X8436900Y-15928298D01*
X8330883Y-15799117D01*
X8224864Y-15712109D01*
X8178536Y-15674088D01*
X8004727Y-15581185D01*
X7816130Y-15523975D01*
X7620000Y-15504658D01*
X7423869Y-15523975D01*
X7235272Y-15581185D01*
X7061463Y-15674088D01*
X6909117Y-15799117D01*
X6784088Y-15951463D01*
X6691185Y-16125272D01*
X6633975Y-16313869D01*
X6614658Y-16510000D01*
X6085341Y-16510000D01*
X6066024Y-16313868D01*
X6008814Y-16125273D01*
X6008814Y-16125272D01*
X5915911Y-15951463D01*
X5896900Y-15928298D01*
X5790883Y-15799117D01*
X5684864Y-15712109D01*
X5638536Y-15674088D01*
X5464727Y-15581185D01*
X5276130Y-15523975D01*
X5080000Y-15504658D01*
X4883869Y-15523975D01*
X4695272Y-15581185D01*
X4521463Y-15674088D01*
X4369117Y-15799117D01*
X4244088Y-15951463D01*
X4151185Y-16125272D01*
X4093975Y-16313869D01*
X4074658Y-16510000D01*
X2615500Y-16510000D01*
X2615500Y-7692281D01*
X2623036Y-7654395D01*
X2644496Y-7622277D01*
X3812277Y-6454496D01*
X3844395Y-6433036D01*
X3882281Y-6425500D01*
X18977719Y-6425500D01*
X19015605Y-6433036D01*
G37*
G04 #@! TD.AperFunction*
G04 #@! TD*
M02*
