%TF.GenerationSoftware,KiCad,Pcbnew,(7.0.0)*%
%TF.CreationDate,2023-03-12T18:56:36+09:00*%
%TF.ProjectId,TangPrimer_PmodExtender,54616e67-5072-4696-9d65-725f506d6f64,rev?*%
%TF.SameCoordinates,Original*%
%TF.FileFunction,Legend,Bot*%
%TF.FilePolarity,Positive*%
%FSLAX46Y46*%
G04 Gerber Fmt 4.6, Leading zero omitted, Abs format (unit mm)*
G04 Created by KiCad (PCBNEW (7.0.0)) date 2023-03-12 18:56:36*
%MOMM*%
%LPD*%
G01*
G04 APERTURE LIST*
%ADD10C,0.150000*%
%ADD11C,0.010000*%
G04 APERTURE END LIST*
D10*
X140638761Y-44873380D02*
X140067333Y-44873380D01*
X140353047Y-45873380D02*
X140353047Y-44873380D01*
X139305428Y-45873380D02*
X139305428Y-45349571D01*
X139305428Y-45349571D02*
X139353047Y-45254333D01*
X139353047Y-45254333D02*
X139448285Y-45206714D01*
X139448285Y-45206714D02*
X139638761Y-45206714D01*
X139638761Y-45206714D02*
X139733999Y-45254333D01*
X139305428Y-45825761D02*
X139400666Y-45873380D01*
X139400666Y-45873380D02*
X139638761Y-45873380D01*
X139638761Y-45873380D02*
X139733999Y-45825761D01*
X139733999Y-45825761D02*
X139781618Y-45730523D01*
X139781618Y-45730523D02*
X139781618Y-45635285D01*
X139781618Y-45635285D02*
X139733999Y-45540047D01*
X139733999Y-45540047D02*
X139638761Y-45492428D01*
X139638761Y-45492428D02*
X139400666Y-45492428D01*
X139400666Y-45492428D02*
X139305428Y-45444809D01*
X138829237Y-45206714D02*
X138829237Y-45873380D01*
X138829237Y-45301952D02*
X138781618Y-45254333D01*
X138781618Y-45254333D02*
X138686380Y-45206714D01*
X138686380Y-45206714D02*
X138543523Y-45206714D01*
X138543523Y-45206714D02*
X138448285Y-45254333D01*
X138448285Y-45254333D02*
X138400666Y-45349571D01*
X138400666Y-45349571D02*
X138400666Y-45873380D01*
X137495904Y-45206714D02*
X137495904Y-46016238D01*
X137495904Y-46016238D02*
X137543523Y-46111476D01*
X137543523Y-46111476D02*
X137591142Y-46159095D01*
X137591142Y-46159095D02*
X137686380Y-46206714D01*
X137686380Y-46206714D02*
X137829237Y-46206714D01*
X137829237Y-46206714D02*
X137924475Y-46159095D01*
X137495904Y-45825761D02*
X137591142Y-45873380D01*
X137591142Y-45873380D02*
X137781618Y-45873380D01*
X137781618Y-45873380D02*
X137876856Y-45825761D01*
X137876856Y-45825761D02*
X137924475Y-45778142D01*
X137924475Y-45778142D02*
X137972094Y-45682904D01*
X137972094Y-45682904D02*
X137972094Y-45397190D01*
X137972094Y-45397190D02*
X137924475Y-45301952D01*
X137924475Y-45301952D02*
X137876856Y-45254333D01*
X137876856Y-45254333D02*
X137781618Y-45206714D01*
X137781618Y-45206714D02*
X137591142Y-45206714D01*
X137591142Y-45206714D02*
X137495904Y-45254333D01*
X136419713Y-45873380D02*
X136419713Y-44873380D01*
X136419713Y-44873380D02*
X136038761Y-44873380D01*
X136038761Y-44873380D02*
X135943523Y-44921000D01*
X135943523Y-44921000D02*
X135895904Y-44968619D01*
X135895904Y-44968619D02*
X135848285Y-45063857D01*
X135848285Y-45063857D02*
X135848285Y-45206714D01*
X135848285Y-45206714D02*
X135895904Y-45301952D01*
X135895904Y-45301952D02*
X135943523Y-45349571D01*
X135943523Y-45349571D02*
X136038761Y-45397190D01*
X136038761Y-45397190D02*
X136419713Y-45397190D01*
X135419713Y-45873380D02*
X135419713Y-45206714D01*
X135419713Y-45397190D02*
X135372094Y-45301952D01*
X135372094Y-45301952D02*
X135324475Y-45254333D01*
X135324475Y-45254333D02*
X135229237Y-45206714D01*
X135229237Y-45206714D02*
X135133999Y-45206714D01*
X134800665Y-45873380D02*
X134800665Y-45206714D01*
X134800665Y-44873380D02*
X134848284Y-44921000D01*
X134848284Y-44921000D02*
X134800665Y-44968619D01*
X134800665Y-44968619D02*
X134753046Y-44921000D01*
X134753046Y-44921000D02*
X134800665Y-44873380D01*
X134800665Y-44873380D02*
X134800665Y-44968619D01*
X134324475Y-45873380D02*
X134324475Y-45206714D01*
X134324475Y-45301952D02*
X134276856Y-45254333D01*
X134276856Y-45254333D02*
X134181618Y-45206714D01*
X134181618Y-45206714D02*
X134038761Y-45206714D01*
X134038761Y-45206714D02*
X133943523Y-45254333D01*
X133943523Y-45254333D02*
X133895904Y-45349571D01*
X133895904Y-45349571D02*
X133895904Y-45873380D01*
X133895904Y-45349571D02*
X133848285Y-45254333D01*
X133848285Y-45254333D02*
X133753047Y-45206714D01*
X133753047Y-45206714D02*
X133610190Y-45206714D01*
X133610190Y-45206714D02*
X133514951Y-45254333D01*
X133514951Y-45254333D02*
X133467332Y-45349571D01*
X133467332Y-45349571D02*
X133467332Y-45873380D01*
X132610190Y-45825761D02*
X132705428Y-45873380D01*
X132705428Y-45873380D02*
X132895904Y-45873380D01*
X132895904Y-45873380D02*
X132991142Y-45825761D01*
X132991142Y-45825761D02*
X133038761Y-45730523D01*
X133038761Y-45730523D02*
X133038761Y-45349571D01*
X133038761Y-45349571D02*
X132991142Y-45254333D01*
X132991142Y-45254333D02*
X132895904Y-45206714D01*
X132895904Y-45206714D02*
X132705428Y-45206714D01*
X132705428Y-45206714D02*
X132610190Y-45254333D01*
X132610190Y-45254333D02*
X132562571Y-45349571D01*
X132562571Y-45349571D02*
X132562571Y-45444809D01*
X132562571Y-45444809D02*
X133038761Y-45540047D01*
X132133999Y-45873380D02*
X132133999Y-45206714D01*
X132133999Y-45397190D02*
X132086380Y-45301952D01*
X132086380Y-45301952D02*
X132038761Y-45254333D01*
X132038761Y-45254333D02*
X131943523Y-45206714D01*
X131943523Y-45206714D02*
X131848285Y-45206714D01*
X130962570Y-44968619D02*
X130914951Y-44921000D01*
X130914951Y-44921000D02*
X130819713Y-44873380D01*
X130819713Y-44873380D02*
X130581618Y-44873380D01*
X130581618Y-44873380D02*
X130486380Y-44921000D01*
X130486380Y-44921000D02*
X130438761Y-44968619D01*
X130438761Y-44968619D02*
X130391142Y-45063857D01*
X130391142Y-45063857D02*
X130391142Y-45159095D01*
X130391142Y-45159095D02*
X130438761Y-45301952D01*
X130438761Y-45301952D02*
X131010189Y-45873380D01*
X131010189Y-45873380D02*
X130391142Y-45873380D01*
X129772094Y-44873380D02*
X129676856Y-44873380D01*
X129676856Y-44873380D02*
X129581618Y-44921000D01*
X129581618Y-44921000D02*
X129533999Y-44968619D01*
X129533999Y-44968619D02*
X129486380Y-45063857D01*
X129486380Y-45063857D02*
X129438761Y-45254333D01*
X129438761Y-45254333D02*
X129438761Y-45492428D01*
X129438761Y-45492428D02*
X129486380Y-45682904D01*
X129486380Y-45682904D02*
X129533999Y-45778142D01*
X129533999Y-45778142D02*
X129581618Y-45825761D01*
X129581618Y-45825761D02*
X129676856Y-45873380D01*
X129676856Y-45873380D02*
X129772094Y-45873380D01*
X129772094Y-45873380D02*
X129867332Y-45825761D01*
X129867332Y-45825761D02*
X129914951Y-45778142D01*
X129914951Y-45778142D02*
X129962570Y-45682904D01*
X129962570Y-45682904D02*
X130010189Y-45492428D01*
X130010189Y-45492428D02*
X130010189Y-45254333D01*
X130010189Y-45254333D02*
X129962570Y-45063857D01*
X129962570Y-45063857D02*
X129914951Y-44968619D01*
X129914951Y-44968619D02*
X129867332Y-44921000D01*
X129867332Y-44921000D02*
X129772094Y-44873380D01*
X129010189Y-45873380D02*
X129010189Y-44873380D01*
X128438761Y-45873380D02*
X128867332Y-45301952D01*
X128438761Y-44873380D02*
X129010189Y-45444809D01*
X127410189Y-45873380D02*
X127410189Y-44873380D01*
X127410189Y-44873380D02*
X127172094Y-44873380D01*
X127172094Y-44873380D02*
X127029237Y-44921000D01*
X127029237Y-44921000D02*
X126933999Y-45016238D01*
X126933999Y-45016238D02*
X126886380Y-45111476D01*
X126886380Y-45111476D02*
X126838761Y-45301952D01*
X126838761Y-45301952D02*
X126838761Y-45444809D01*
X126838761Y-45444809D02*
X126886380Y-45635285D01*
X126886380Y-45635285D02*
X126933999Y-45730523D01*
X126933999Y-45730523D02*
X127029237Y-45825761D01*
X127029237Y-45825761D02*
X127172094Y-45873380D01*
X127172094Y-45873380D02*
X127410189Y-45873380D01*
X126267332Y-45873380D02*
X126362570Y-45825761D01*
X126362570Y-45825761D02*
X126410189Y-45778142D01*
X126410189Y-45778142D02*
X126457808Y-45682904D01*
X126457808Y-45682904D02*
X126457808Y-45397190D01*
X126457808Y-45397190D02*
X126410189Y-45301952D01*
X126410189Y-45301952D02*
X126362570Y-45254333D01*
X126362570Y-45254333D02*
X126267332Y-45206714D01*
X126267332Y-45206714D02*
X126124475Y-45206714D01*
X126124475Y-45206714D02*
X126029237Y-45254333D01*
X126029237Y-45254333D02*
X125981618Y-45301952D01*
X125981618Y-45301952D02*
X125933999Y-45397190D01*
X125933999Y-45397190D02*
X125933999Y-45682904D01*
X125933999Y-45682904D02*
X125981618Y-45778142D01*
X125981618Y-45778142D02*
X126029237Y-45825761D01*
X126029237Y-45825761D02*
X126124475Y-45873380D01*
X126124475Y-45873380D02*
X126267332Y-45873380D01*
X125076856Y-45825761D02*
X125172094Y-45873380D01*
X125172094Y-45873380D02*
X125362570Y-45873380D01*
X125362570Y-45873380D02*
X125457808Y-45825761D01*
X125457808Y-45825761D02*
X125505427Y-45778142D01*
X125505427Y-45778142D02*
X125553046Y-45682904D01*
X125553046Y-45682904D02*
X125553046Y-45397190D01*
X125553046Y-45397190D02*
X125505427Y-45301952D01*
X125505427Y-45301952D02*
X125457808Y-45254333D01*
X125457808Y-45254333D02*
X125362570Y-45206714D01*
X125362570Y-45206714D02*
X125172094Y-45206714D01*
X125172094Y-45206714D02*
X125076856Y-45254333D01*
X124648284Y-45873380D02*
X124648284Y-44873380D01*
X124553046Y-45492428D02*
X124267332Y-45873380D01*
X124267332Y-45206714D02*
X124648284Y-45587666D01*
X123238760Y-45873380D02*
X123238760Y-44873380D01*
X123238760Y-44873380D02*
X122857808Y-44873380D01*
X122857808Y-44873380D02*
X122762570Y-44921000D01*
X122762570Y-44921000D02*
X122714951Y-44968619D01*
X122714951Y-44968619D02*
X122667332Y-45063857D01*
X122667332Y-45063857D02*
X122667332Y-45206714D01*
X122667332Y-45206714D02*
X122714951Y-45301952D01*
X122714951Y-45301952D02*
X122762570Y-45349571D01*
X122762570Y-45349571D02*
X122857808Y-45397190D01*
X122857808Y-45397190D02*
X123238760Y-45397190D01*
X122238760Y-45873380D02*
X122238760Y-45206714D01*
X122238760Y-45301952D02*
X122191141Y-45254333D01*
X122191141Y-45254333D02*
X122095903Y-45206714D01*
X122095903Y-45206714D02*
X121953046Y-45206714D01*
X121953046Y-45206714D02*
X121857808Y-45254333D01*
X121857808Y-45254333D02*
X121810189Y-45349571D01*
X121810189Y-45349571D02*
X121810189Y-45873380D01*
X121810189Y-45349571D02*
X121762570Y-45254333D01*
X121762570Y-45254333D02*
X121667332Y-45206714D01*
X121667332Y-45206714D02*
X121524475Y-45206714D01*
X121524475Y-45206714D02*
X121429236Y-45254333D01*
X121429236Y-45254333D02*
X121381617Y-45349571D01*
X121381617Y-45349571D02*
X121381617Y-45873380D01*
X120762570Y-45873380D02*
X120857808Y-45825761D01*
X120857808Y-45825761D02*
X120905427Y-45778142D01*
X120905427Y-45778142D02*
X120953046Y-45682904D01*
X120953046Y-45682904D02*
X120953046Y-45397190D01*
X120953046Y-45397190D02*
X120905427Y-45301952D01*
X120905427Y-45301952D02*
X120857808Y-45254333D01*
X120857808Y-45254333D02*
X120762570Y-45206714D01*
X120762570Y-45206714D02*
X120619713Y-45206714D01*
X120619713Y-45206714D02*
X120524475Y-45254333D01*
X120524475Y-45254333D02*
X120476856Y-45301952D01*
X120476856Y-45301952D02*
X120429237Y-45397190D01*
X120429237Y-45397190D02*
X120429237Y-45682904D01*
X120429237Y-45682904D02*
X120476856Y-45778142D01*
X120476856Y-45778142D02*
X120524475Y-45825761D01*
X120524475Y-45825761D02*
X120619713Y-45873380D01*
X120619713Y-45873380D02*
X120762570Y-45873380D01*
X119572094Y-45873380D02*
X119572094Y-44873380D01*
X119572094Y-45825761D02*
X119667332Y-45873380D01*
X119667332Y-45873380D02*
X119857808Y-45873380D01*
X119857808Y-45873380D02*
X119953046Y-45825761D01*
X119953046Y-45825761D02*
X120000665Y-45778142D01*
X120000665Y-45778142D02*
X120048284Y-45682904D01*
X120048284Y-45682904D02*
X120048284Y-45397190D01*
X120048284Y-45397190D02*
X120000665Y-45301952D01*
X120000665Y-45301952D02*
X119953046Y-45254333D01*
X119953046Y-45254333D02*
X119857808Y-45206714D01*
X119857808Y-45206714D02*
X119667332Y-45206714D01*
X119667332Y-45206714D02*
X119572094Y-45254333D01*
X118495903Y-45349571D02*
X118162570Y-45349571D01*
X118019713Y-45873380D02*
X118495903Y-45873380D01*
X118495903Y-45873380D02*
X118495903Y-44873380D01*
X118495903Y-44873380D02*
X118019713Y-44873380D01*
X117686379Y-45873380D02*
X117162570Y-45206714D01*
X117686379Y-45206714D02*
X117162570Y-45873380D01*
X116924474Y-45206714D02*
X116543522Y-45206714D01*
X116781617Y-44873380D02*
X116781617Y-45730523D01*
X116781617Y-45730523D02*
X116733998Y-45825761D01*
X116733998Y-45825761D02*
X116638760Y-45873380D01*
X116638760Y-45873380D02*
X116543522Y-45873380D01*
X115829236Y-45825761D02*
X115924474Y-45873380D01*
X115924474Y-45873380D02*
X116114950Y-45873380D01*
X116114950Y-45873380D02*
X116210188Y-45825761D01*
X116210188Y-45825761D02*
X116257807Y-45730523D01*
X116257807Y-45730523D02*
X116257807Y-45349571D01*
X116257807Y-45349571D02*
X116210188Y-45254333D01*
X116210188Y-45254333D02*
X116114950Y-45206714D01*
X116114950Y-45206714D02*
X115924474Y-45206714D01*
X115924474Y-45206714D02*
X115829236Y-45254333D01*
X115829236Y-45254333D02*
X115781617Y-45349571D01*
X115781617Y-45349571D02*
X115781617Y-45444809D01*
X115781617Y-45444809D02*
X116257807Y-45540047D01*
X115353045Y-45206714D02*
X115353045Y-45873380D01*
X115353045Y-45301952D02*
X115305426Y-45254333D01*
X115305426Y-45254333D02*
X115210188Y-45206714D01*
X115210188Y-45206714D02*
X115067331Y-45206714D01*
X115067331Y-45206714D02*
X114972093Y-45254333D01*
X114972093Y-45254333D02*
X114924474Y-45349571D01*
X114924474Y-45349571D02*
X114924474Y-45873380D01*
X114495902Y-45825761D02*
X114400664Y-45873380D01*
X114400664Y-45873380D02*
X114210188Y-45873380D01*
X114210188Y-45873380D02*
X114114950Y-45825761D01*
X114114950Y-45825761D02*
X114067331Y-45730523D01*
X114067331Y-45730523D02*
X114067331Y-45682904D01*
X114067331Y-45682904D02*
X114114950Y-45587666D01*
X114114950Y-45587666D02*
X114210188Y-45540047D01*
X114210188Y-45540047D02*
X114353045Y-45540047D01*
X114353045Y-45540047D02*
X114448283Y-45492428D01*
X114448283Y-45492428D02*
X114495902Y-45397190D01*
X114495902Y-45397190D02*
X114495902Y-45349571D01*
X114495902Y-45349571D02*
X114448283Y-45254333D01*
X114448283Y-45254333D02*
X114353045Y-45206714D01*
X114353045Y-45206714D02*
X114210188Y-45206714D01*
X114210188Y-45206714D02*
X114114950Y-45254333D01*
X113638759Y-45873380D02*
X113638759Y-45206714D01*
X113638759Y-44873380D02*
X113686378Y-44921000D01*
X113686378Y-44921000D02*
X113638759Y-44968619D01*
X113638759Y-44968619D02*
X113591140Y-44921000D01*
X113591140Y-44921000D02*
X113638759Y-44873380D01*
X113638759Y-44873380D02*
X113638759Y-44968619D01*
X113019712Y-45873380D02*
X113114950Y-45825761D01*
X113114950Y-45825761D02*
X113162569Y-45778142D01*
X113162569Y-45778142D02*
X113210188Y-45682904D01*
X113210188Y-45682904D02*
X113210188Y-45397190D01*
X113210188Y-45397190D02*
X113162569Y-45301952D01*
X113162569Y-45301952D02*
X113114950Y-45254333D01*
X113114950Y-45254333D02*
X113019712Y-45206714D01*
X113019712Y-45206714D02*
X112876855Y-45206714D01*
X112876855Y-45206714D02*
X112781617Y-45254333D01*
X112781617Y-45254333D02*
X112733998Y-45301952D01*
X112733998Y-45301952D02*
X112686379Y-45397190D01*
X112686379Y-45397190D02*
X112686379Y-45682904D01*
X112686379Y-45682904D02*
X112733998Y-45778142D01*
X112733998Y-45778142D02*
X112781617Y-45825761D01*
X112781617Y-45825761D02*
X112876855Y-45873380D01*
X112876855Y-45873380D02*
X113019712Y-45873380D01*
X112257807Y-45206714D02*
X112257807Y-45873380D01*
X112257807Y-45301952D02*
X112210188Y-45254333D01*
X112210188Y-45254333D02*
X112114950Y-45206714D01*
X112114950Y-45206714D02*
X111972093Y-45206714D01*
X111972093Y-45206714D02*
X111876855Y-45254333D01*
X111876855Y-45254333D02*
X111829236Y-45349571D01*
X111829236Y-45349571D02*
X111829236Y-45873380D01*
X139924476Y-47493380D02*
X140257809Y-47017190D01*
X140495904Y-47493380D02*
X140495904Y-46493380D01*
X140495904Y-46493380D02*
X140114952Y-46493380D01*
X140114952Y-46493380D02*
X140019714Y-46541000D01*
X140019714Y-46541000D02*
X139972095Y-46588619D01*
X139972095Y-46588619D02*
X139924476Y-46683857D01*
X139924476Y-46683857D02*
X139924476Y-46826714D01*
X139924476Y-46826714D02*
X139972095Y-46921952D01*
X139972095Y-46921952D02*
X140019714Y-46969571D01*
X140019714Y-46969571D02*
X140114952Y-47017190D01*
X140114952Y-47017190D02*
X140495904Y-47017190D01*
X139114952Y-47445761D02*
X139210190Y-47493380D01*
X139210190Y-47493380D02*
X139400666Y-47493380D01*
X139400666Y-47493380D02*
X139495904Y-47445761D01*
X139495904Y-47445761D02*
X139543523Y-47350523D01*
X139543523Y-47350523D02*
X139543523Y-46969571D01*
X139543523Y-46969571D02*
X139495904Y-46874333D01*
X139495904Y-46874333D02*
X139400666Y-46826714D01*
X139400666Y-46826714D02*
X139210190Y-46826714D01*
X139210190Y-46826714D02*
X139114952Y-46874333D01*
X139114952Y-46874333D02*
X139067333Y-46969571D01*
X139067333Y-46969571D02*
X139067333Y-47064809D01*
X139067333Y-47064809D02*
X139543523Y-47160047D01*
X138733999Y-46826714D02*
X138495904Y-47493380D01*
X138495904Y-47493380D02*
X138257809Y-46826714D01*
X137876856Y-47398142D02*
X137829237Y-47445761D01*
X137829237Y-47445761D02*
X137876856Y-47493380D01*
X137876856Y-47493380D02*
X137924475Y-47445761D01*
X137924475Y-47445761D02*
X137876856Y-47398142D01*
X137876856Y-47398142D02*
X137876856Y-47493380D01*
X137067333Y-46969571D02*
X136924476Y-47017190D01*
X136924476Y-47017190D02*
X136876857Y-47064809D01*
X136876857Y-47064809D02*
X136829238Y-47160047D01*
X136829238Y-47160047D02*
X136829238Y-47302904D01*
X136829238Y-47302904D02*
X136876857Y-47398142D01*
X136876857Y-47398142D02*
X136924476Y-47445761D01*
X136924476Y-47445761D02*
X137019714Y-47493380D01*
X137019714Y-47493380D02*
X137400666Y-47493380D01*
X137400666Y-47493380D02*
X137400666Y-46493380D01*
X137400666Y-46493380D02*
X137067333Y-46493380D01*
X137067333Y-46493380D02*
X136972095Y-46541000D01*
X136972095Y-46541000D02*
X136924476Y-46588619D01*
X136924476Y-46588619D02*
X136876857Y-46683857D01*
X136876857Y-46683857D02*
X136876857Y-46779095D01*
X136876857Y-46779095D02*
X136924476Y-46874333D01*
X136924476Y-46874333D02*
X136972095Y-46921952D01*
X136972095Y-46921952D02*
X137067333Y-46969571D01*
X137067333Y-46969571D02*
X137400666Y-46969571D01*
X135848285Y-46588619D02*
X135800666Y-46541000D01*
X135800666Y-46541000D02*
X135705428Y-46493380D01*
X135705428Y-46493380D02*
X135467333Y-46493380D01*
X135467333Y-46493380D02*
X135372095Y-46541000D01*
X135372095Y-46541000D02*
X135324476Y-46588619D01*
X135324476Y-46588619D02*
X135276857Y-46683857D01*
X135276857Y-46683857D02*
X135276857Y-46779095D01*
X135276857Y-46779095D02*
X135324476Y-46921952D01*
X135324476Y-46921952D02*
X135895904Y-47493380D01*
X135895904Y-47493380D02*
X135276857Y-47493380D01*
X134657809Y-46493380D02*
X134562571Y-46493380D01*
X134562571Y-46493380D02*
X134467333Y-46541000D01*
X134467333Y-46541000D02*
X134419714Y-46588619D01*
X134419714Y-46588619D02*
X134372095Y-46683857D01*
X134372095Y-46683857D02*
X134324476Y-46874333D01*
X134324476Y-46874333D02*
X134324476Y-47112428D01*
X134324476Y-47112428D02*
X134372095Y-47302904D01*
X134372095Y-47302904D02*
X134419714Y-47398142D01*
X134419714Y-47398142D02*
X134467333Y-47445761D01*
X134467333Y-47445761D02*
X134562571Y-47493380D01*
X134562571Y-47493380D02*
X134657809Y-47493380D01*
X134657809Y-47493380D02*
X134753047Y-47445761D01*
X134753047Y-47445761D02*
X134800666Y-47398142D01*
X134800666Y-47398142D02*
X134848285Y-47302904D01*
X134848285Y-47302904D02*
X134895904Y-47112428D01*
X134895904Y-47112428D02*
X134895904Y-46874333D01*
X134895904Y-46874333D02*
X134848285Y-46683857D01*
X134848285Y-46683857D02*
X134800666Y-46588619D01*
X134800666Y-46588619D02*
X134753047Y-46541000D01*
X134753047Y-46541000D02*
X134657809Y-46493380D01*
X133943523Y-46588619D02*
X133895904Y-46541000D01*
X133895904Y-46541000D02*
X133800666Y-46493380D01*
X133800666Y-46493380D02*
X133562571Y-46493380D01*
X133562571Y-46493380D02*
X133467333Y-46541000D01*
X133467333Y-46541000D02*
X133419714Y-46588619D01*
X133419714Y-46588619D02*
X133372095Y-46683857D01*
X133372095Y-46683857D02*
X133372095Y-46779095D01*
X133372095Y-46779095D02*
X133419714Y-46921952D01*
X133419714Y-46921952D02*
X133991142Y-47493380D01*
X133991142Y-47493380D02*
X133372095Y-47493380D01*
X132991142Y-46588619D02*
X132943523Y-46541000D01*
X132943523Y-46541000D02*
X132848285Y-46493380D01*
X132848285Y-46493380D02*
X132610190Y-46493380D01*
X132610190Y-46493380D02*
X132514952Y-46541000D01*
X132514952Y-46541000D02*
X132467333Y-46588619D01*
X132467333Y-46588619D02*
X132419714Y-46683857D01*
X132419714Y-46683857D02*
X132419714Y-46779095D01*
X132419714Y-46779095D02*
X132467333Y-46921952D01*
X132467333Y-46921952D02*
X133038761Y-47493380D01*
X133038761Y-47493380D02*
X132419714Y-47493380D01*
X131991142Y-47112428D02*
X131229238Y-47112428D01*
X130562571Y-46493380D02*
X130467333Y-46493380D01*
X130467333Y-46493380D02*
X130372095Y-46541000D01*
X130372095Y-46541000D02*
X130324476Y-46588619D01*
X130324476Y-46588619D02*
X130276857Y-46683857D01*
X130276857Y-46683857D02*
X130229238Y-46874333D01*
X130229238Y-46874333D02*
X130229238Y-47112428D01*
X130229238Y-47112428D02*
X130276857Y-47302904D01*
X130276857Y-47302904D02*
X130324476Y-47398142D01*
X130324476Y-47398142D02*
X130372095Y-47445761D01*
X130372095Y-47445761D02*
X130467333Y-47493380D01*
X130467333Y-47493380D02*
X130562571Y-47493380D01*
X130562571Y-47493380D02*
X130657809Y-47445761D01*
X130657809Y-47445761D02*
X130705428Y-47398142D01*
X130705428Y-47398142D02*
X130753047Y-47302904D01*
X130753047Y-47302904D02*
X130800666Y-47112428D01*
X130800666Y-47112428D02*
X130800666Y-46874333D01*
X130800666Y-46874333D02*
X130753047Y-46683857D01*
X130753047Y-46683857D02*
X130705428Y-46588619D01*
X130705428Y-46588619D02*
X130657809Y-46541000D01*
X130657809Y-46541000D02*
X130562571Y-46493380D01*
X129895904Y-46493380D02*
X129276857Y-46493380D01*
X129276857Y-46493380D02*
X129610190Y-46874333D01*
X129610190Y-46874333D02*
X129467333Y-46874333D01*
X129467333Y-46874333D02*
X129372095Y-46921952D01*
X129372095Y-46921952D02*
X129324476Y-46969571D01*
X129324476Y-46969571D02*
X129276857Y-47064809D01*
X129276857Y-47064809D02*
X129276857Y-47302904D01*
X129276857Y-47302904D02*
X129324476Y-47398142D01*
X129324476Y-47398142D02*
X129372095Y-47445761D01*
X129372095Y-47445761D02*
X129467333Y-47493380D01*
X129467333Y-47493380D02*
X129753047Y-47493380D01*
X129753047Y-47493380D02*
X129848285Y-47445761D01*
X129848285Y-47445761D02*
X129895904Y-47398142D01*
X128848285Y-47112428D02*
X128086381Y-47112428D01*
X127419714Y-46493380D02*
X127324476Y-46493380D01*
X127324476Y-46493380D02*
X127229238Y-46541000D01*
X127229238Y-46541000D02*
X127181619Y-46588619D01*
X127181619Y-46588619D02*
X127134000Y-46683857D01*
X127134000Y-46683857D02*
X127086381Y-46874333D01*
X127086381Y-46874333D02*
X127086381Y-47112428D01*
X127086381Y-47112428D02*
X127134000Y-47302904D01*
X127134000Y-47302904D02*
X127181619Y-47398142D01*
X127181619Y-47398142D02*
X127229238Y-47445761D01*
X127229238Y-47445761D02*
X127324476Y-47493380D01*
X127324476Y-47493380D02*
X127419714Y-47493380D01*
X127419714Y-47493380D02*
X127514952Y-47445761D01*
X127514952Y-47445761D02*
X127562571Y-47398142D01*
X127562571Y-47398142D02*
X127610190Y-47302904D01*
X127610190Y-47302904D02*
X127657809Y-47112428D01*
X127657809Y-47112428D02*
X127657809Y-46874333D01*
X127657809Y-46874333D02*
X127610190Y-46683857D01*
X127610190Y-46683857D02*
X127562571Y-46588619D01*
X127562571Y-46588619D02*
X127514952Y-46541000D01*
X127514952Y-46541000D02*
X127419714Y-46493380D01*
X126514952Y-46921952D02*
X126610190Y-46874333D01*
X126610190Y-46874333D02*
X126657809Y-46826714D01*
X126657809Y-46826714D02*
X126705428Y-46731476D01*
X126705428Y-46731476D02*
X126705428Y-46683857D01*
X126705428Y-46683857D02*
X126657809Y-46588619D01*
X126657809Y-46588619D02*
X126610190Y-46541000D01*
X126610190Y-46541000D02*
X126514952Y-46493380D01*
X126514952Y-46493380D02*
X126324476Y-46493380D01*
X126324476Y-46493380D02*
X126229238Y-46541000D01*
X126229238Y-46541000D02*
X126181619Y-46588619D01*
X126181619Y-46588619D02*
X126134000Y-46683857D01*
X126134000Y-46683857D02*
X126134000Y-46731476D01*
X126134000Y-46731476D02*
X126181619Y-46826714D01*
X126181619Y-46826714D02*
X126229238Y-46874333D01*
X126229238Y-46874333D02*
X126324476Y-46921952D01*
X126324476Y-46921952D02*
X126514952Y-46921952D01*
X126514952Y-46921952D02*
X126610190Y-46969571D01*
X126610190Y-46969571D02*
X126657809Y-47017190D01*
X126657809Y-47017190D02*
X126705428Y-47112428D01*
X126705428Y-47112428D02*
X126705428Y-47302904D01*
X126705428Y-47302904D02*
X126657809Y-47398142D01*
X126657809Y-47398142D02*
X126610190Y-47445761D01*
X126610190Y-47445761D02*
X126514952Y-47493380D01*
X126514952Y-47493380D02*
X126324476Y-47493380D01*
X126324476Y-47493380D02*
X126229238Y-47445761D01*
X126229238Y-47445761D02*
X126181619Y-47398142D01*
X126181619Y-47398142D02*
X126134000Y-47302904D01*
X126134000Y-47302904D02*
X126134000Y-47112428D01*
X126134000Y-47112428D02*
X126181619Y-47017190D01*
X126181619Y-47017190D02*
X126229238Y-46969571D01*
X126229238Y-46969571D02*
X126324476Y-46921952D01*
X139876857Y-48637190D02*
X139924476Y-48589571D01*
X139924476Y-48589571D02*
X140019714Y-48541952D01*
X140019714Y-48541952D02*
X140114952Y-48541952D01*
X140114952Y-48541952D02*
X140210190Y-48589571D01*
X140210190Y-48589571D02*
X140257809Y-48637190D01*
X140257809Y-48637190D02*
X140305428Y-48732428D01*
X140305428Y-48732428D02*
X140305428Y-48827666D01*
X140305428Y-48827666D02*
X140257809Y-48922904D01*
X140257809Y-48922904D02*
X140210190Y-48970523D01*
X140210190Y-48970523D02*
X140114952Y-49018142D01*
X140114952Y-49018142D02*
X140019714Y-49018142D01*
X140019714Y-49018142D02*
X139924476Y-48970523D01*
X139924476Y-48970523D02*
X139876857Y-48922904D01*
X139876857Y-48541952D02*
X139876857Y-48922904D01*
X139876857Y-48922904D02*
X139829238Y-48970523D01*
X139829238Y-48970523D02*
X139781619Y-48970523D01*
X139781619Y-48970523D02*
X139686380Y-48922904D01*
X139686380Y-48922904D02*
X139638761Y-48827666D01*
X139638761Y-48827666D02*
X139638761Y-48589571D01*
X139638761Y-48589571D02*
X139734000Y-48446714D01*
X139734000Y-48446714D02*
X139876857Y-48351476D01*
X139876857Y-48351476D02*
X140067333Y-48303857D01*
X140067333Y-48303857D02*
X140257809Y-48351476D01*
X140257809Y-48351476D02*
X140400666Y-48446714D01*
X140400666Y-48446714D02*
X140495904Y-48589571D01*
X140495904Y-48589571D02*
X140543523Y-48780047D01*
X140543523Y-48780047D02*
X140495904Y-48970523D01*
X140495904Y-48970523D02*
X140400666Y-49113380D01*
X140400666Y-49113380D02*
X140257809Y-49208619D01*
X140257809Y-49208619D02*
X140067333Y-49256238D01*
X140067333Y-49256238D02*
X139876857Y-49208619D01*
X139876857Y-49208619D02*
X139734000Y-49113380D01*
X138781619Y-49065761D02*
X138876857Y-49113380D01*
X138876857Y-49113380D02*
X139067333Y-49113380D01*
X139067333Y-49113380D02*
X139162571Y-49065761D01*
X139162571Y-49065761D02*
X139210190Y-49018142D01*
X139210190Y-49018142D02*
X139257809Y-48922904D01*
X139257809Y-48922904D02*
X139257809Y-48637190D01*
X139257809Y-48637190D02*
X139210190Y-48541952D01*
X139210190Y-48541952D02*
X139162571Y-48494333D01*
X139162571Y-48494333D02*
X139067333Y-48446714D01*
X139067333Y-48446714D02*
X138876857Y-48446714D01*
X138876857Y-48446714D02*
X138781619Y-48494333D01*
X138353047Y-49113380D02*
X138353047Y-48446714D01*
X138353047Y-48113380D02*
X138400666Y-48161000D01*
X138400666Y-48161000D02*
X138353047Y-48208619D01*
X138353047Y-48208619D02*
X138305428Y-48161000D01*
X138305428Y-48161000D02*
X138353047Y-48113380D01*
X138353047Y-48113380D02*
X138353047Y-48208619D01*
X137876857Y-48446714D02*
X137876857Y-49113380D01*
X137876857Y-48541952D02*
X137829238Y-48494333D01*
X137829238Y-48494333D02*
X137734000Y-48446714D01*
X137734000Y-48446714D02*
X137591143Y-48446714D01*
X137591143Y-48446714D02*
X137495905Y-48494333D01*
X137495905Y-48494333D02*
X137448286Y-48589571D01*
X137448286Y-48589571D02*
X137448286Y-49113380D01*
X136972095Y-49113380D02*
X136972095Y-48446714D01*
X136972095Y-48113380D02*
X137019714Y-48161000D01*
X137019714Y-48161000D02*
X136972095Y-48208619D01*
X136972095Y-48208619D02*
X136924476Y-48161000D01*
X136924476Y-48161000D02*
X136972095Y-48113380D01*
X136972095Y-48113380D02*
X136972095Y-48208619D01*
X136495905Y-49113380D02*
X136495905Y-48446714D01*
X136495905Y-48541952D02*
X136448286Y-48494333D01*
X136448286Y-48494333D02*
X136353048Y-48446714D01*
X136353048Y-48446714D02*
X136210191Y-48446714D01*
X136210191Y-48446714D02*
X136114953Y-48494333D01*
X136114953Y-48494333D02*
X136067334Y-48589571D01*
X136067334Y-48589571D02*
X136067334Y-49113380D01*
X136067334Y-48589571D02*
X136019715Y-48494333D01*
X136019715Y-48494333D02*
X135924477Y-48446714D01*
X135924477Y-48446714D02*
X135781620Y-48446714D01*
X135781620Y-48446714D02*
X135686381Y-48494333D01*
X135686381Y-48494333D02*
X135638762Y-48589571D01*
X135638762Y-48589571D02*
X135638762Y-49113380D01*
X135019715Y-49113380D02*
X135114953Y-49065761D01*
X135114953Y-49065761D02*
X135162572Y-48970523D01*
X135162572Y-48970523D02*
X135162572Y-48113380D01*
%TO.C,J3*%
X90292380Y-54666666D02*
X91006666Y-54666666D01*
X91006666Y-54666666D02*
X91149523Y-54619047D01*
X91149523Y-54619047D02*
X91244761Y-54523809D01*
X91244761Y-54523809D02*
X91292380Y-54380952D01*
X91292380Y-54380952D02*
X91292380Y-54285714D01*
X90292380Y-55047619D02*
X90292380Y-55666666D01*
X90292380Y-55666666D02*
X90673333Y-55333333D01*
X90673333Y-55333333D02*
X90673333Y-55476190D01*
X90673333Y-55476190D02*
X90720952Y-55571428D01*
X90720952Y-55571428D02*
X90768571Y-55619047D01*
X90768571Y-55619047D02*
X90863809Y-55666666D01*
X90863809Y-55666666D02*
X91101904Y-55666666D01*
X91101904Y-55666666D02*
X91197142Y-55619047D01*
X91197142Y-55619047D02*
X91244761Y-55571428D01*
X91244761Y-55571428D02*
X91292380Y-55476190D01*
X91292380Y-55476190D02*
X91292380Y-55190476D01*
X91292380Y-55190476D02*
X91244761Y-55095238D01*
X91244761Y-55095238D02*
X91197142Y-55047619D01*
X106506095Y-50961428D02*
X106506095Y-51418571D01*
X106506095Y-51189999D02*
X107306095Y-51189999D01*
X107306095Y-51189999D02*
X107191809Y-51266190D01*
X107191809Y-51266190D02*
X107115619Y-51342380D01*
X107115619Y-51342380D02*
X107077523Y-51418571D01*
%TO.C,J4*%
X71192380Y-54666666D02*
X71906666Y-54666666D01*
X71906666Y-54666666D02*
X72049523Y-54619047D01*
X72049523Y-54619047D02*
X72144761Y-54523809D01*
X72144761Y-54523809D02*
X72192380Y-54380952D01*
X72192380Y-54380952D02*
X72192380Y-54285714D01*
X71525714Y-55571428D02*
X72192380Y-55571428D01*
X71144761Y-55333333D02*
X71859047Y-55095238D01*
X71859047Y-55095238D02*
X71859047Y-55714285D01*
X87406095Y-50961428D02*
X87406095Y-51418571D01*
X87406095Y-51189999D02*
X88206095Y-51189999D01*
X88206095Y-51189999D02*
X88091809Y-51266190D01*
X88091809Y-51266190D02*
X88015619Y-51342380D01*
X88015619Y-51342380D02*
X87977523Y-51418571D01*
%TO.C,J2*%
X109392380Y-54666666D02*
X110106666Y-54666666D01*
X110106666Y-54666666D02*
X110249523Y-54619047D01*
X110249523Y-54619047D02*
X110344761Y-54523809D01*
X110344761Y-54523809D02*
X110392380Y-54380952D01*
X110392380Y-54380952D02*
X110392380Y-54285714D01*
X109487619Y-55095238D02*
X109440000Y-55142857D01*
X109440000Y-55142857D02*
X109392380Y-55238095D01*
X109392380Y-55238095D02*
X109392380Y-55476190D01*
X109392380Y-55476190D02*
X109440000Y-55571428D01*
X109440000Y-55571428D02*
X109487619Y-55619047D01*
X109487619Y-55619047D02*
X109582857Y-55666666D01*
X109582857Y-55666666D02*
X109678095Y-55666666D01*
X109678095Y-55666666D02*
X109820952Y-55619047D01*
X109820952Y-55619047D02*
X110392380Y-55047619D01*
X110392380Y-55047619D02*
X110392380Y-55666666D01*
X125606095Y-50961428D02*
X125606095Y-51418571D01*
X125606095Y-51189999D02*
X126406095Y-51189999D01*
X126406095Y-51189999D02*
X126291809Y-51266190D01*
X126291809Y-51266190D02*
X126215619Y-51342380D01*
X126215619Y-51342380D02*
X126177523Y-51418571D01*
%TO.C,J1*%
X128492380Y-54666666D02*
X129206666Y-54666666D01*
X129206666Y-54666666D02*
X129349523Y-54619047D01*
X129349523Y-54619047D02*
X129444761Y-54523809D01*
X129444761Y-54523809D02*
X129492380Y-54380952D01*
X129492380Y-54380952D02*
X129492380Y-54285714D01*
X129492380Y-55666666D02*
X129492380Y-55095238D01*
X129492380Y-55380952D02*
X128492380Y-55380952D01*
X128492380Y-55380952D02*
X128635238Y-55285714D01*
X128635238Y-55285714D02*
X128730476Y-55190476D01*
X128730476Y-55190476D02*
X128778095Y-55095238D01*
X144706095Y-50961428D02*
X144706095Y-51418571D01*
X144706095Y-51189999D02*
X145506095Y-51189999D01*
X145506095Y-51189999D02*
X145391809Y-51266190D01*
X145391809Y-51266190D02*
X145315619Y-51342380D01*
X145315619Y-51342380D02*
X145277523Y-51418571D01*
%TO.C,LOGO1*%
G36*
X143419841Y-47538537D02*
G01*
X143497612Y-47594176D01*
X143542931Y-47637515D01*
X143576216Y-47699551D01*
X143584444Y-47787925D01*
X143575175Y-47875721D01*
X143525951Y-47982972D01*
X143465464Y-48037088D01*
X143375103Y-48057334D01*
X143328002Y-48053335D01*
X143242839Y-48012684D01*
X143192055Y-47927733D01*
X143175222Y-47797927D01*
X143175235Y-47791353D01*
X143181342Y-47701002D01*
X143204738Y-47641521D01*
X143254407Y-47589223D01*
X143293466Y-47557852D01*
X143358185Y-47526560D01*
X143419841Y-47538537D01*
G37*
D11*
X143419841Y-47538537D02*
X143497612Y-47594176D01*
X143542931Y-47637515D01*
X143576216Y-47699551D01*
X143584444Y-47787925D01*
X143575175Y-47875721D01*
X143525951Y-47982972D01*
X143465464Y-48037088D01*
X143375103Y-48057334D01*
X143328002Y-48053335D01*
X143242839Y-48012684D01*
X143192055Y-47927733D01*
X143175222Y-47797927D01*
X143175235Y-47791353D01*
X143181342Y-47701002D01*
X143204738Y-47641521D01*
X143254407Y-47589223D01*
X143293466Y-47557852D01*
X143358185Y-47526560D01*
X143419841Y-47538537D01*
G36*
X142857960Y-47390318D02*
G01*
X142949872Y-47465113D01*
X142965827Y-47482709D01*
X143006958Y-47552850D01*
X143004982Y-47623724D01*
X142957671Y-47703949D01*
X142862798Y-47802145D01*
X142812165Y-47847382D01*
X142750198Y-47892674D01*
X142699587Y-47909104D01*
X142643602Y-47904483D01*
X142570413Y-47890971D01*
X142519055Y-47882825D01*
X142500240Y-47862614D01*
X142487766Y-47795347D01*
X142483778Y-47676632D01*
X142483778Y-47474672D01*
X142608856Y-47412205D01*
X142659286Y-47389428D01*
X142765770Y-47365814D01*
X142857960Y-47390318D01*
G37*
X142857960Y-47390318D02*
X142949872Y-47465113D01*
X142965827Y-47482709D01*
X143006958Y-47552850D01*
X143004982Y-47623724D01*
X142957671Y-47703949D01*
X142862798Y-47802145D01*
X142812165Y-47847382D01*
X142750198Y-47892674D01*
X142699587Y-47909104D01*
X142643602Y-47904483D01*
X142570413Y-47890971D01*
X142519055Y-47882825D01*
X142500240Y-47862614D01*
X142487766Y-47795347D01*
X142483778Y-47676632D01*
X142483778Y-47474672D01*
X142608856Y-47412205D01*
X142659286Y-47389428D01*
X142765770Y-47365814D01*
X142857960Y-47390318D01*
G36*
X148502438Y-46410694D02*
G01*
X148577612Y-46465287D01*
X148586228Y-46472562D01*
X148623910Y-46507834D01*
X148647001Y-46544454D01*
X148659073Y-46596198D01*
X148663697Y-46676838D01*
X148664444Y-46800147D01*
X148664331Y-46840069D01*
X148661259Y-46957630D01*
X148652145Y-47036761D01*
X148634530Y-47091605D01*
X148605951Y-47136305D01*
X148570850Y-47170945D01*
X148483103Y-47209052D01*
X148389438Y-47202831D01*
X148308985Y-47151316D01*
X148282756Y-47111983D01*
X148264341Y-47052324D01*
X148252719Y-46961355D01*
X148245434Y-46826524D01*
X148235646Y-46561084D01*
X148326030Y-46476653D01*
X148381762Y-46428561D01*
X148443435Y-46398168D01*
X148502438Y-46410694D01*
G37*
X148502438Y-46410694D02*
X148577612Y-46465287D01*
X148586228Y-46472562D01*
X148623910Y-46507834D01*
X148647001Y-46544454D01*
X148659073Y-46596198D01*
X148663697Y-46676838D01*
X148664444Y-46800147D01*
X148664331Y-46840069D01*
X148661259Y-46957630D01*
X148652145Y-47036761D01*
X148634530Y-47091605D01*
X148605951Y-47136305D01*
X148570850Y-47170945D01*
X148483103Y-47209052D01*
X148389438Y-47202831D01*
X148308985Y-47151316D01*
X148282756Y-47111983D01*
X148264341Y-47052324D01*
X148252719Y-46961355D01*
X148245434Y-46826524D01*
X148235646Y-46561084D01*
X148326030Y-46476653D01*
X148381762Y-46428561D01*
X148443435Y-46398168D01*
X148502438Y-46410694D01*
G36*
X147883349Y-44122260D02*
G01*
X147952381Y-44157558D01*
X148023148Y-44215608D01*
X148077976Y-44279727D01*
X148100000Y-44333474D01*
X148084508Y-44386111D01*
X148045305Y-44450366D01*
X148004002Y-44517100D01*
X147970240Y-44602339D01*
X147958229Y-44630633D01*
X147911105Y-44702787D01*
X147839064Y-44793401D01*
X147752054Y-44889389D01*
X147716184Y-44926188D01*
X147629240Y-45010594D01*
X147565189Y-45061815D01*
X147513741Y-45087175D01*
X147464604Y-45094000D01*
X147447765Y-45093440D01*
X147355162Y-45062272D01*
X147292754Y-44983485D01*
X147260657Y-44857215D01*
X147257118Y-44822204D01*
X147257559Y-44764588D01*
X147274966Y-44715528D01*
X147316918Y-44658799D01*
X147390995Y-44578176D01*
X147399127Y-44569491D01*
X147468170Y-44488102D01*
X147517022Y-44417040D01*
X147535555Y-44370831D01*
X147552390Y-44302829D01*
X147611213Y-44222708D01*
X147696828Y-44158153D01*
X147792964Y-44120793D01*
X147883349Y-44122260D01*
G37*
X147883349Y-44122260D02*
X147952381Y-44157558D01*
X148023148Y-44215608D01*
X148077976Y-44279727D01*
X148100000Y-44333474D01*
X148084508Y-44386111D01*
X148045305Y-44450366D01*
X148004002Y-44517100D01*
X147970240Y-44602339D01*
X147958229Y-44630633D01*
X147911105Y-44702787D01*
X147839064Y-44793401D01*
X147752054Y-44889389D01*
X147716184Y-44926188D01*
X147629240Y-45010594D01*
X147565189Y-45061815D01*
X147513741Y-45087175D01*
X147464604Y-45094000D01*
X147447765Y-45093440D01*
X147355162Y-45062272D01*
X147292754Y-44983485D01*
X147260657Y-44857215D01*
X147257118Y-44822204D01*
X147257559Y-44764588D01*
X147274966Y-44715528D01*
X147316918Y-44658799D01*
X147390995Y-44578176D01*
X147399127Y-44569491D01*
X147468170Y-44488102D01*
X147517022Y-44417040D01*
X147535555Y-44370831D01*
X147552390Y-44302829D01*
X147611213Y-44222708D01*
X147696828Y-44158153D01*
X147792964Y-44120793D01*
X147883349Y-44122260D01*
G36*
X146481379Y-45687893D02*
G01*
X146536154Y-45712813D01*
X146602057Y-45759731D01*
X146652204Y-45808755D01*
X146681719Y-45869628D01*
X146688889Y-45958496D01*
X146687173Y-46007912D01*
X146672708Y-46073449D01*
X146635428Y-46136450D01*
X146565745Y-46217043D01*
X146510318Y-46283359D01*
X146446715Y-46376962D01*
X146408363Y-46455635D01*
X146403485Y-46469513D01*
X146362299Y-46549042D01*
X146313560Y-46603802D01*
X146293647Y-46614716D01*
X146210975Y-46637504D01*
X146106102Y-46646222D01*
X146085606Y-46646107D01*
X146000053Y-46639542D01*
X145945496Y-46617354D01*
X145900715Y-46571861D01*
X145881861Y-46546869D01*
X145847938Y-46480023D01*
X145856770Y-46419642D01*
X145909124Y-46344999D01*
X145911172Y-46342526D01*
X145962903Y-46260986D01*
X145995309Y-46176798D01*
X145999226Y-46164479D01*
X146036090Y-46101821D01*
X146100502Y-46019488D01*
X146182071Y-45928165D01*
X146270403Y-45838537D01*
X146355105Y-45761288D01*
X146425785Y-45707103D01*
X146472049Y-45686667D01*
X146481379Y-45687893D01*
G37*
X146481379Y-45687893D02*
X146536154Y-45712813D01*
X146602057Y-45759731D01*
X146652204Y-45808755D01*
X146681719Y-45869628D01*
X146688889Y-45958496D01*
X146687173Y-46007912D01*
X146672708Y-46073449D01*
X146635428Y-46136450D01*
X146565745Y-46217043D01*
X146510318Y-46283359D01*
X146446715Y-46376962D01*
X146408363Y-46455635D01*
X146403485Y-46469513D01*
X146362299Y-46549042D01*
X146313560Y-46603802D01*
X146293647Y-46614716D01*
X146210975Y-46637504D01*
X146106102Y-46646222D01*
X146085606Y-46646107D01*
X146000053Y-46639542D01*
X145945496Y-46617354D01*
X145900715Y-46571861D01*
X145881861Y-46546869D01*
X145847938Y-46480023D01*
X145856770Y-46419642D01*
X145909124Y-46344999D01*
X145911172Y-46342526D01*
X145962903Y-46260986D01*
X145995309Y-46176798D01*
X145999226Y-46164479D01*
X146036090Y-46101821D01*
X146100502Y-46019488D01*
X146182071Y-45928165D01*
X146270403Y-45838537D01*
X146355105Y-45761288D01*
X146425785Y-45707103D01*
X146472049Y-45686667D01*
X146481379Y-45687893D01*
G36*
X144103993Y-48103615D02*
G01*
X144192562Y-48155220D01*
X144253663Y-48209182D01*
X144283226Y-48266537D01*
X144290000Y-48351297D01*
X144277665Y-48452260D01*
X144238072Y-48540361D01*
X144237487Y-48541123D01*
X144191363Y-48616983D01*
X144153053Y-48704612D01*
X144150868Y-48710875D01*
X144116885Y-48789020D01*
X144081549Y-48845723D01*
X144076867Y-48851546D01*
X144041885Y-48913131D01*
X144009902Y-48993465D01*
X144005070Y-49007712D01*
X143971682Y-49082176D01*
X143937593Y-49129470D01*
X143906544Y-49172749D01*
X143880640Y-49243292D01*
X143853583Y-49317350D01*
X143806222Y-49396564D01*
X143749421Y-49447336D01*
X143657326Y-49468445D01*
X143573553Y-49454680D01*
X143508419Y-49404163D01*
X143467988Y-49311088D01*
X143448290Y-49169786D01*
X143444598Y-49090115D01*
X143449173Y-49009755D01*
X143469561Y-48947334D01*
X143510555Y-48880589D01*
X143530562Y-48850005D01*
X143569128Y-48778141D01*
X143584444Y-48728260D01*
X143585277Y-48720267D01*
X143608930Y-48664614D01*
X143655000Y-48598703D01*
X143664611Y-48586716D01*
X143707947Y-48515112D01*
X143725555Y-48454217D01*
X143734180Y-48423543D01*
X143775251Y-48355604D01*
X143838941Y-48274928D01*
X143912709Y-48195696D01*
X143984010Y-48132093D01*
X144040303Y-48098301D01*
X144103993Y-48103615D01*
G37*
X144103993Y-48103615D02*
X144192562Y-48155220D01*
X144253663Y-48209182D01*
X144283226Y-48266537D01*
X144290000Y-48351297D01*
X144277665Y-48452260D01*
X144238072Y-48540361D01*
X144237487Y-48541123D01*
X144191363Y-48616983D01*
X144153053Y-48704612D01*
X144150868Y-48710875D01*
X144116885Y-48789020D01*
X144081549Y-48845723D01*
X144076867Y-48851546D01*
X144041885Y-48913131D01*
X144009902Y-48993465D01*
X144005070Y-49007712D01*
X143971682Y-49082176D01*
X143937593Y-49129470D01*
X143906544Y-49172749D01*
X143880640Y-49243292D01*
X143853583Y-49317350D01*
X143806222Y-49396564D01*
X143749421Y-49447336D01*
X143657326Y-49468445D01*
X143573553Y-49454680D01*
X143508419Y-49404163D01*
X143467988Y-49311088D01*
X143448290Y-49169786D01*
X143444598Y-49090115D01*
X143449173Y-49009755D01*
X143469561Y-48947334D01*
X143510555Y-48880589D01*
X143530562Y-48850005D01*
X143569128Y-48778141D01*
X143584444Y-48728260D01*
X143585277Y-48720267D01*
X143608930Y-48664614D01*
X143655000Y-48598703D01*
X143664611Y-48586716D01*
X143707947Y-48515112D01*
X143725555Y-48454217D01*
X143734180Y-48423543D01*
X143775251Y-48355604D01*
X143838941Y-48274928D01*
X143912709Y-48195696D01*
X143984010Y-48132093D01*
X144040303Y-48098301D01*
X144103993Y-48103615D01*
G36*
X147751379Y-45264559D02*
G01*
X147806154Y-45289480D01*
X147872057Y-45336398D01*
X147922204Y-45385421D01*
X147951719Y-45446295D01*
X147958889Y-45535162D01*
X147957173Y-45584579D01*
X147942708Y-45650116D01*
X147905428Y-45713116D01*
X147835745Y-45793709D01*
X147780187Y-45860080D01*
X147716969Y-45952760D01*
X147679079Y-46030132D01*
X147674187Y-46044436D01*
X147640629Y-46118866D01*
X147606481Y-46166137D01*
X147573514Y-46215226D01*
X147548825Y-46288339D01*
X147543666Y-46308410D01*
X147508414Y-46396010D01*
X147458650Y-46483736D01*
X147421207Y-46546032D01*
X147398596Y-46622596D01*
X147401721Y-46719468D01*
X147405389Y-46747176D01*
X147426447Y-46825244D01*
X147469720Y-46896587D01*
X147546526Y-46981701D01*
X147609104Y-47050459D01*
X147657956Y-47115270D01*
X147676666Y-47155968D01*
X147676642Y-47158149D01*
X147650482Y-47234322D01*
X147586662Y-47302854D01*
X147502283Y-47345190D01*
X147452816Y-47355959D01*
X147330363Y-47357715D01*
X147220250Y-47314192D01*
X147108381Y-47220943D01*
X146985222Y-47095533D01*
X146975999Y-46765045D01*
X146973571Y-46670506D01*
X146972582Y-46556477D01*
X146976815Y-46478008D01*
X146988137Y-46422249D01*
X147008410Y-46376353D01*
X147039499Y-46327469D01*
X147085290Y-46242210D01*
X147112222Y-46110912D01*
X147122092Y-46030372D01*
X147179124Y-45921666D01*
X147181172Y-45919193D01*
X147232903Y-45837652D01*
X147265309Y-45753464D01*
X147269226Y-45741146D01*
X147306090Y-45678488D01*
X147370502Y-45596155D01*
X147452071Y-45504832D01*
X147540403Y-45415204D01*
X147625105Y-45337955D01*
X147695785Y-45283770D01*
X147742049Y-45263334D01*
X147751379Y-45264559D01*
G37*
X147751379Y-45264559D02*
X147806154Y-45289480D01*
X147872057Y-45336398D01*
X147922204Y-45385421D01*
X147951719Y-45446295D01*
X147958889Y-45535162D01*
X147957173Y-45584579D01*
X147942708Y-45650116D01*
X147905428Y-45713116D01*
X147835745Y-45793709D01*
X147780187Y-45860080D01*
X147716969Y-45952760D01*
X147679079Y-46030132D01*
X147674187Y-46044436D01*
X147640629Y-46118866D01*
X147606481Y-46166137D01*
X147573514Y-46215226D01*
X147548825Y-46288339D01*
X147543666Y-46308410D01*
X147508414Y-46396010D01*
X147458650Y-46483736D01*
X147421207Y-46546032D01*
X147398596Y-46622596D01*
X147401721Y-46719468D01*
X147405389Y-46747176D01*
X147426447Y-46825244D01*
X147469720Y-46896587D01*
X147546526Y-46981701D01*
X147609104Y-47050459D01*
X147657956Y-47115270D01*
X147676666Y-47155968D01*
X147676642Y-47158149D01*
X147650482Y-47234322D01*
X147586662Y-47302854D01*
X147502283Y-47345190D01*
X147452816Y-47355959D01*
X147330363Y-47357715D01*
X147220250Y-47314192D01*
X147108381Y-47220943D01*
X146985222Y-47095533D01*
X146975999Y-46765045D01*
X146973571Y-46670506D01*
X146972582Y-46556477D01*
X146976815Y-46478008D01*
X146988137Y-46422249D01*
X147008410Y-46376353D01*
X147039499Y-46327469D01*
X147085290Y-46242210D01*
X147112222Y-46110912D01*
X147122092Y-46030372D01*
X147179124Y-45921666D01*
X147181172Y-45919193D01*
X147232903Y-45837652D01*
X147265309Y-45753464D01*
X147269226Y-45741146D01*
X147306090Y-45678488D01*
X147370502Y-45596155D01*
X147452071Y-45504832D01*
X147540403Y-45415204D01*
X147625105Y-45337955D01*
X147695785Y-45283770D01*
X147742049Y-45263334D01*
X147751379Y-45264559D01*
G36*
X145206082Y-47646224D02*
G01*
X145257981Y-47681244D01*
X145334281Y-47745971D01*
X145424597Y-47830156D01*
X145518543Y-47923547D01*
X145605734Y-48015896D01*
X145675785Y-48096951D01*
X145718311Y-48156464D01*
X145734474Y-48176796D01*
X145802631Y-48207988D01*
X145897517Y-48210320D01*
X146004067Y-48184734D01*
X146107216Y-48132170D01*
X146139113Y-48112073D01*
X146219841Y-48072898D01*
X146282623Y-48057334D01*
X146321081Y-48065391D01*
X146394689Y-48105169D01*
X146468373Y-48165138D01*
X146525085Y-48230551D01*
X146547778Y-48286665D01*
X146547129Y-48295575D01*
X146517972Y-48362770D01*
X146455162Y-48442465D01*
X146372070Y-48521652D01*
X146282070Y-48587320D01*
X146198532Y-48626458D01*
X146162397Y-48637037D01*
X146083457Y-48667562D01*
X146056073Y-48702029D01*
X146077268Y-48751368D01*
X146144068Y-48826506D01*
X146191086Y-48880787D01*
X146248433Y-48965394D01*
X146278429Y-49035129D01*
X146306242Y-49109759D01*
X146351822Y-49173559D01*
X146361745Y-49183255D01*
X146384795Y-49218385D01*
X146398456Y-49271551D01*
X146404991Y-49355537D01*
X146406666Y-49483124D01*
X146402126Y-49621848D01*
X146382188Y-49749080D01*
X146343489Y-49832418D01*
X146282908Y-49877953D01*
X146197326Y-49891778D01*
X146142645Y-49885983D01*
X146067342Y-49844978D01*
X146016510Y-49760255D01*
X145986026Y-49626643D01*
X145974590Y-49562932D01*
X145949282Y-49474791D01*
X145921131Y-49419510D01*
X145916407Y-49413747D01*
X145877948Y-49348499D01*
X145844346Y-49266091D01*
X145839514Y-49251844D01*
X145806126Y-49177380D01*
X145772037Y-49130085D01*
X145742544Y-49090516D01*
X145716246Y-49021550D01*
X145705662Y-48989972D01*
X145661829Y-48914921D01*
X145600673Y-48841257D01*
X145536710Y-48785181D01*
X145484455Y-48762889D01*
X145459687Y-48773488D01*
X145399509Y-48816892D01*
X145317984Y-48886060D01*
X145225477Y-48972597D01*
X145010961Y-49182305D01*
X145002162Y-49388875D01*
X145000699Y-49435646D01*
X145006664Y-49572742D01*
X145032920Y-49666010D01*
X145082990Y-49723565D01*
X145160396Y-49753525D01*
X145173690Y-49756740D01*
X145256525Y-49794103D01*
X145335865Y-49852849D01*
X145395417Y-49918835D01*
X145418889Y-49977919D01*
X145418865Y-49979292D01*
X145401154Y-50034353D01*
X145360396Y-50099639D01*
X145340556Y-50123407D01*
X145306722Y-50151118D01*
X145260021Y-50166309D01*
X145185933Y-50172697D01*
X145069939Y-50174000D01*
X144837974Y-50174000D01*
X144712154Y-50045874D01*
X144586333Y-49917748D01*
X144577389Y-49436677D01*
X144568446Y-48955605D01*
X144880778Y-48639038D01*
X144945192Y-48573153D01*
X145043479Y-48470035D01*
X145122084Y-48384262D01*
X145174223Y-48323315D01*
X145193111Y-48294675D01*
X145193025Y-48293624D01*
X145171808Y-48259387D01*
X145120457Y-48199708D01*
X145049449Y-48126828D01*
X145012905Y-48090499D01*
X144925163Y-47991844D01*
X144879193Y-47913618D01*
X144871205Y-47847283D01*
X144897409Y-47784298D01*
X144930990Y-47744331D01*
X145016059Y-47683204D01*
X145112792Y-47646011D01*
X145198461Y-47643390D01*
X145206082Y-47646224D01*
G37*
X145206082Y-47646224D02*
X145257981Y-47681244D01*
X145334281Y-47745971D01*
X145424597Y-47830156D01*
X145518543Y-47923547D01*
X145605734Y-48015896D01*
X145675785Y-48096951D01*
X145718311Y-48156464D01*
X145734474Y-48176796D01*
X145802631Y-48207988D01*
X145897517Y-48210320D01*
X146004067Y-48184734D01*
X146107216Y-48132170D01*
X146139113Y-48112073D01*
X146219841Y-48072898D01*
X146282623Y-48057334D01*
X146321081Y-48065391D01*
X146394689Y-48105169D01*
X146468373Y-48165138D01*
X146525085Y-48230551D01*
X146547778Y-48286665D01*
X146547129Y-48295575D01*
X146517972Y-48362770D01*
X146455162Y-48442465D01*
X146372070Y-48521652D01*
X146282070Y-48587320D01*
X146198532Y-48626458D01*
X146162397Y-48637037D01*
X146083457Y-48667562D01*
X146056073Y-48702029D01*
X146077268Y-48751368D01*
X146144068Y-48826506D01*
X146191086Y-48880787D01*
X146248433Y-48965394D01*
X146278429Y-49035129D01*
X146306242Y-49109759D01*
X146351822Y-49173559D01*
X146361745Y-49183255D01*
X146384795Y-49218385D01*
X146398456Y-49271551D01*
X146404991Y-49355537D01*
X146406666Y-49483124D01*
X146402126Y-49621848D01*
X146382188Y-49749080D01*
X146343489Y-49832418D01*
X146282908Y-49877953D01*
X146197326Y-49891778D01*
X146142645Y-49885983D01*
X146067342Y-49844978D01*
X146016510Y-49760255D01*
X145986026Y-49626643D01*
X145974590Y-49562932D01*
X145949282Y-49474791D01*
X145921131Y-49419510D01*
X145916407Y-49413747D01*
X145877948Y-49348499D01*
X145844346Y-49266091D01*
X145839514Y-49251844D01*
X145806126Y-49177380D01*
X145772037Y-49130085D01*
X145742544Y-49090516D01*
X145716246Y-49021550D01*
X145705662Y-48989972D01*
X145661829Y-48914921D01*
X145600673Y-48841257D01*
X145536710Y-48785181D01*
X145484455Y-48762889D01*
X145459687Y-48773488D01*
X145399509Y-48816892D01*
X145317984Y-48886060D01*
X145225477Y-48972597D01*
X145010961Y-49182305D01*
X145002162Y-49388875D01*
X145000699Y-49435646D01*
X145006664Y-49572742D01*
X145032920Y-49666010D01*
X145082990Y-49723565D01*
X145160396Y-49753525D01*
X145173690Y-49756740D01*
X145256525Y-49794103D01*
X145335865Y-49852849D01*
X145395417Y-49918835D01*
X145418889Y-49977919D01*
X145418865Y-49979292D01*
X145401154Y-50034353D01*
X145360396Y-50099639D01*
X145340556Y-50123407D01*
X145306722Y-50151118D01*
X145260021Y-50166309D01*
X145185933Y-50172697D01*
X145069939Y-50174000D01*
X144837974Y-50174000D01*
X144712154Y-50045874D01*
X144586333Y-49917748D01*
X144577389Y-49436677D01*
X144568446Y-48955605D01*
X144880778Y-48639038D01*
X144945192Y-48573153D01*
X145043479Y-48470035D01*
X145122084Y-48384262D01*
X145174223Y-48323315D01*
X145193111Y-48294675D01*
X145193025Y-48293624D01*
X145171808Y-48259387D01*
X145120457Y-48199708D01*
X145049449Y-48126828D01*
X145012905Y-48090499D01*
X144925163Y-47991844D01*
X144879193Y-47913618D01*
X144871205Y-47847283D01*
X144897409Y-47784298D01*
X144930990Y-47744331D01*
X145016059Y-47683204D01*
X145112792Y-47646011D01*
X145198461Y-47643390D01*
X145206082Y-47646224D01*
D10*
%TO.C,J3*%
X92195000Y-58175000D02*
X108705000Y-58175000D01*
X108705000Y-58175000D02*
X108705000Y-51825000D01*
X92195000Y-51825000D02*
X92195000Y-58175000D01*
X108705000Y-51825000D02*
X92195000Y-51825000D01*
%TO.C,J4*%
X73095000Y-58175000D02*
X89605000Y-58175000D01*
X89605000Y-58175000D02*
X89605000Y-51825000D01*
X73095000Y-51825000D02*
X73095000Y-58175000D01*
X89605000Y-51825000D02*
X73095000Y-51825000D01*
%TO.C,J2*%
X111295000Y-58175000D02*
X127805000Y-58175000D01*
X127805000Y-58175000D02*
X127805000Y-51825000D01*
X111295000Y-51825000D02*
X111295000Y-58175000D01*
X127805000Y-51825000D02*
X111295000Y-51825000D01*
%TO.C,J1*%
X130395000Y-58175000D02*
X146905000Y-58175000D01*
X146905000Y-58175000D02*
X146905000Y-51825000D01*
X130395000Y-51825000D02*
X130395000Y-58175000D01*
X146905000Y-51825000D02*
X130395000Y-51825000D01*
%TD*%
M02*
