%TF.GenerationSoftware,KiCad,Pcbnew,(7.0.0)*%
%TF.CreationDate,2023-03-12T18:56:36+09:00*%
%TF.ProjectId,TangPrimer_PmodExtender,54616e67-5072-4696-9d65-725f506d6f64,rev?*%
%TF.SameCoordinates,Original*%
%TF.FileFunction,Soldermask,Bot*%
%TF.FilePolarity,Negative*%
%FSLAX46Y46*%
G04 Gerber Fmt 4.6, Leading zero omitted, Abs format (unit mm)*
G04 Created by KiCad (PCBNEW (7.0.0)) date 2023-03-12 18:56:36*
%MOMM*%
%LPD*%
G01*
G04 APERTURE LIST*
%ADD10C,3.250000*%
%ADD11R,1.600000X1.600000*%
%ADD12O,1.600000X1.600000*%
%ADD13C,3.200000*%
G04 APERTURE END LIST*
%TO.C,H1*%
D10*
X68125000Y-47000000D02*
G75*
G03*
X68125000Y-47000000I-1625000J0D01*
G01*
%TO.C,H2*%
X155125000Y-47000000D02*
G75*
G03*
X155125000Y-47000000I-1625000J0D01*
G01*
%TD*%
D11*
%TO.C,J7*%
X92219999Y-41029999D03*
D12*
X94759999Y-41029999D03*
X97299999Y-41029999D03*
X99839999Y-41029999D03*
X102379999Y-41029999D03*
X104919999Y-41029999D03*
X92219999Y-38489999D03*
X94759999Y-38489999D03*
X97299999Y-38489999D03*
X99839999Y-38489999D03*
X102379999Y-38489999D03*
X104919999Y-38489999D03*
%TD*%
D11*
%TO.C,J6*%
X115079999Y-41029999D03*
D12*
X117619999Y-41029999D03*
X120159999Y-41029999D03*
X122699999Y-41029999D03*
X125239999Y-41029999D03*
X127779999Y-41029999D03*
X115079999Y-38489999D03*
X117619999Y-38489999D03*
X120159999Y-38489999D03*
X122699999Y-38489999D03*
X125239999Y-38489999D03*
X127779999Y-38489999D03*
%TD*%
D13*
%TO.C,H1*%
X66500000Y-47000000D03*
%TD*%
D11*
%TO.C,J8*%
X69359999Y-41029999D03*
D12*
X71899999Y-41029999D03*
X74439999Y-41029999D03*
X76979999Y-41029999D03*
X79519999Y-41029999D03*
X82059999Y-41029999D03*
X69359999Y-38489999D03*
X71899999Y-38489999D03*
X74439999Y-38489999D03*
X76979999Y-38489999D03*
X79519999Y-38489999D03*
X82059999Y-38489999D03*
%TD*%
D11*
%TO.C,J5*%
X137939999Y-41029999D03*
D12*
X140479999Y-41029999D03*
X143019999Y-41029999D03*
X145559999Y-41029999D03*
X148099999Y-41029999D03*
X150639999Y-41029999D03*
X137939999Y-38489999D03*
X140479999Y-38489999D03*
X143019999Y-38489999D03*
X145559999Y-38489999D03*
X148099999Y-38489999D03*
X150639999Y-38489999D03*
%TD*%
D13*
%TO.C,H2*%
X153500000Y-47000000D03*
%TD*%
D11*
%TO.C,J3*%
X106799999Y-53729999D03*
D12*
X104259999Y-53729999D03*
X101719999Y-53729999D03*
X99179999Y-53729999D03*
X96639999Y-53729999D03*
X94099999Y-53729999D03*
X106799999Y-56269999D03*
X104259999Y-56269999D03*
X101719999Y-56269999D03*
X99179999Y-56269999D03*
X96639999Y-56269999D03*
X94099999Y-56269999D03*
%TD*%
D11*
%TO.C,J4*%
X87699999Y-53729999D03*
D12*
X85159999Y-53729999D03*
X82619999Y-53729999D03*
X80079999Y-53729999D03*
X77539999Y-53729999D03*
X74999999Y-53729999D03*
X87699999Y-56269999D03*
X85159999Y-56269999D03*
X82619999Y-56269999D03*
X80079999Y-56269999D03*
X77539999Y-56269999D03*
X74999999Y-56269999D03*
%TD*%
D11*
%TO.C,J2*%
X125899999Y-53729999D03*
D12*
X123359999Y-53729999D03*
X120819999Y-53729999D03*
X118279999Y-53729999D03*
X115739999Y-53729999D03*
X113199999Y-53729999D03*
X125899999Y-56269999D03*
X123359999Y-56269999D03*
X120819999Y-56269999D03*
X118279999Y-56269999D03*
X115739999Y-56269999D03*
X113199999Y-56269999D03*
%TD*%
D11*
%TO.C,J1*%
X144999999Y-53729999D03*
D12*
X142459999Y-53729999D03*
X139919999Y-53729999D03*
X137379999Y-53729999D03*
X134839999Y-53729999D03*
X132299999Y-53729999D03*
X144999999Y-56269999D03*
X142459999Y-56269999D03*
X139919999Y-56269999D03*
X137379999Y-56269999D03*
X134839999Y-56269999D03*
X132299999Y-56269999D03*
%TD*%
M02*
