M48
; DRILL file {KiCad (7.0.0)} date Sun Mar 12 18:56:40 2023
; FORMAT={3:3/ absolute / metric / suppress leading zeros}
; #@! TF.CreationDate,2023-03-12T18:56:40+09:00
; #@! TF.GenerationSoftware,Kicad,Pcbnew,(7.0.0)
; #@! TF.FileFunction,Plated,1,2,PTH
FMAT,2
METRIC,TZ
; #@! TA.AperFunction,Plated,PTH,ViaDrill
T1C0.400
; #@! TA.AperFunction,Plated,PTH,ComponentDrill
T2C0.800
%
G90
G05
T1
X69700Y-35400
X71400Y-36900
X72300Y-42600
X72300Y-45400
X72400Y-32800
X73900Y-34400
X73900Y-48400
X74400Y-42600
X74400Y-45400
X75400Y-36300
X76100Y-46200
X76100Y-50700
X76500Y-47300
X77000Y-42800
X77600Y-44600
X77600Y-47800
X78100Y-50900
X78900Y-44900
X79200Y-46200
X80200Y-48600
X80200Y-51100
X82700Y-36500
X83000Y-43900
X83100Y-51000
X84800Y-35600
X85200Y-49900
X86800Y-48000
X87200Y-33800
X88300Y-37400
X88800Y-43600
X90300Y-37400
X90300Y-42200
X91400Y-30600
X91400Y-32800
X93000Y-35600
X94500Y-37000
X95200Y-44400
X96800Y-42900
X97400Y-37000
X97500Y-34100
X99100Y-35700
X99900Y-42600
X101700Y-50900
X102700Y-49000
X103100Y-30600
X103100Y-32800
X103800Y-35700
X104300Y-47000
X104700Y-51000
X106000Y-36700
X106000Y-52000
X106100Y-33800
X110100Y-34400
X111900Y-35900
X112100Y-52200
X113600Y-37300
X113600Y-45500
X113700Y-43100
X115200Y-30900
X115200Y-33400
X115200Y-35700
X117600Y-42800
X117600Y-45000
X118500Y-52100
X118900Y-37200
X118900Y-47500
X119600Y-42800
X119600Y-45000
X120700Y-52100
X121000Y-45900
X121000Y-48300
X122200Y-44300
X122300Y-46600
X122800Y-49900
X123100Y-33500
X123300Y-52000
X123700Y-42700
X124000Y-35500
X124700Y-31900
X125500Y-52000
X126200Y-33500
X126300Y-35500
X127600Y-36800
X128000Y-53600
X128100Y-50200
X130200Y-50200
X131700Y-33100
X134700Y-34100
X135100Y-52100
X135300Y-45600
X136000Y-43400
X136400Y-29700
X136400Y-31900
X136400Y-35900
X137900Y-52200
X138400Y-42900
X138500Y-35600
X139200Y-48500
X140100Y-52200
X140400Y-36700
X140500Y-33700
X140500Y-42900
X140500Y-50200
X140988Y-46364
X142300Y-34800
X142300Y-48300
X142700Y-52100
X144800Y-52100
X144900Y-49200
X146600Y-32400
X146900Y-34500
X147000Y-49200
X147100Y-52200
X149100Y-32400
X149400Y-37200
X149900Y-34600
X152400Y-36700
X152500Y-40600
X154000Y-35200
X154500Y-40600
T2
X69360Y-38490
X69360Y-41030
X71900Y-38490
X71900Y-41030
X74440Y-38490
X74440Y-41030
X75000Y-53730
X75000Y-56270
X76980Y-38490
X76980Y-41030
X77540Y-53730
X77540Y-56270
X79520Y-38490
X79520Y-41030
X80080Y-53730
X80080Y-56270
X82060Y-38490
X82060Y-41030
X82620Y-53730
X82620Y-56270
X85160Y-53730
X85160Y-56270
X87700Y-53730
X87700Y-56270
X92220Y-38490
X92220Y-41030
X94100Y-53730
X94100Y-56270
X94760Y-38490
X94760Y-41030
X96640Y-53730
X96640Y-56270
X97300Y-38490
X97300Y-41030
X99180Y-53730
X99180Y-56270
X99840Y-38490
X99840Y-41030
X101720Y-53730
X101720Y-56270
X102380Y-38490
X102380Y-41030
X104260Y-53730
X104260Y-56270
X104920Y-38490
X104920Y-41030
X106800Y-53730
X106800Y-56270
X113200Y-53730
X113200Y-56270
X115080Y-38490
X115080Y-41030
X115740Y-53730
X115740Y-56270
X117620Y-38490
X117620Y-41030
X118280Y-53730
X118280Y-56270
X120160Y-38490
X120160Y-41030
X120820Y-53730
X120820Y-56270
X122700Y-38490
X122700Y-41030
X123360Y-53730
X123360Y-56270
X125240Y-38490
X125240Y-41030
X125900Y-53730
X125900Y-56270
X127780Y-38490
X127780Y-41030
X132300Y-53730
X132300Y-56270
X134840Y-53730
X134840Y-56270
X137380Y-53730
X137380Y-56270
X137940Y-38490
X137940Y-41030
X139920Y-53730
X139920Y-56270
X140480Y-38490
X140480Y-41030
X142460Y-53730
X142460Y-56270
X143020Y-38490
X143020Y-41030
X145000Y-53730
X145000Y-56270
X145560Y-38490
X145560Y-41030
X148100Y-38490
X148100Y-41030
X150640Y-38490
X150640Y-41030
T0
M30
